<svg width="52" height="56" viewBox="0 0 52 56" fill="none" xmlns="http://www.w3.org/2000/svg"><path d="M22.548 0.090 C 17.938 0.671,14.085 3.835,12.615 8.247 C 12.187 9.535,12.021 10.576,12.020 12.003 C 12.013 17.458,15.705 22.234,20.988 23.607 C 27.088 25.192,33.404 21.745,35.392 15.747 C 35.838 14.402,35.924 13.783,35.921 11.917 C 35.919 10.027,35.809 9.348,35.267 7.872 C 33.827 3.949,30.360 1.008,26.244 0.217 C 25.366 0.048,23.413 -0.019,22.548 0.090 M13.260 28.053 C 12.360 28.204,11.339 28.736,10.601 29.439 C 10.309 29.716,8.440 31.640,6.447 33.713 C 4.454 35.787,2.392 37.932,1.864 38.481 C 1.336 39.030,0.763 39.712,0.591 39.998 C -0.007 40.987,-0.000 40.911,-0.000 46.304 C -0.000 50.538,0.017 51.187,0.137 51.439 C 0.423 52.041,-0.623 52.000,14.421 52.000 L 27.993 52.000 27.993 45.977 L 27.993 39.953 31.979 39.953 L 35.965 39.953 35.987 35.988 L 36.010 32.023 37.917 31.980 L 39.823 31.937 38.263 30.368 C 36.964 29.061,36.609 28.753,36.140 28.525 C 35.012 27.979,35.407 27.995,23.920 28.007 C 18.176 28.012,13.379 28.033,13.260 28.053 M40.019 39.973 L 39.997 43.983 35.987 44.006 L 31.977 44.028 32.000 45.999 L 32.023 47.970 36.032 47.993 L 40.040 48.015 40.040 52.001 L 40.040 55.987 42.033 55.987 L 44.027 55.987 44.027 52.000 L 44.027 48.013 48.013 48.013 L 52.000 48.013 52.000 46.020 L 52.000 44.027 48.014 44.027 L 44.028 44.027 44.006 40.018 L 43.983 36.010 42.013 35.987 L 40.042 35.963 40.019 39.973 " fill="#2B2C30" stroke="none" fill-rule="evenodd"></path></svg>