<svg width="48" height="48" viewBox="0 0 48 48" fill="none" xmlns="http://www.w3.org/2000/svg"><path d="M3.240 0.083 C 1.841 0.371,0.743 1.325,0.212 2.712 L 0.040 3.160 0.040 24.000 L 0.040 44.840 0.212 45.288 C 0.663 46.468,1.531 47.338,2.700 47.784 L 3.160 47.960 23.960 47.960 L 44.760 47.960 45.280 47.770 C 46.506 47.320,47.315 46.512,47.768 45.280 L 47.960 44.760 47.960 24.000 L 47.960 3.240 47.770 2.720 C 47.330 1.519,46.493 0.673,45.288 0.212 L 44.840 0.040 24.200 0.028 C 12.848 0.022,3.416 0.046,3.240 0.083 M21.899 12.159 C 22.124 12.295,22.531 13.062,24.961 17.922 C 26.503 21.005,27.817 23.731,27.882 23.981 C 28.063 24.675,28.058 35.097,27.876 35.448 C 27.629 35.925,27.379 35.999,26.016 36.000 C 24.648 36.000,24.428 35.940,24.157 35.496 C 24.015 35.264,24.001 35.086,24.000 33.620 L 24.000 32.000 20.000 32.000 L 16.000 32.000 16.000 33.620 C 15.999 35.956,15.962 36.000,14.000 36.000 C 12.650 36.000,12.427 35.939,12.157 35.496 C 12.006 35.249,12.001 35.055,12.000 29.837 C 12.000 25.332,12.020 24.358,12.118 23.981 C 12.183 23.731,13.497 21.005,15.039 17.922 C 17.469 13.062,17.876 12.295,18.101 12.159 C 18.337 12.015,18.508 12.001,20.000 12.001 C 21.492 12.001,21.663 12.015,21.899 12.159 M35.448 12.124 C 35.579 12.192,35.757 12.363,35.843 12.504 C 35.996 12.755,35.999 12.993,35.999 24.000 C 35.999 35.007,35.996 35.245,35.843 35.496 C 35.573 35.939,35.350 36.000,34.000 36.000 C 32.650 36.000,32.427 35.939,32.157 35.496 C 32.004 35.245,32.001 35.007,32.000 24.016 C 32.000 11.620,31.963 12.486,32.504 12.157 C 32.728 12.020,32.911 12.001,33.984 12.000 C 34.933 12.000,35.262 12.028,35.448 12.124 M18.062 20.060 C 17.030 22.029,16.145 23.762,16.093 23.912 C 16.032 24.089,16.000 24.848,16.000 26.092 L 16.000 28.000 20.000 28.000 L 24.000 28.000 24.000 26.092 C 24.000 24.840,23.968 24.090,23.906 23.912 C 23.767 23.510,20.072 16.480,19.999 16.480 C 19.965 16.480,19.093 18.091,18.062 20.060 " fill="#2B2C30" stroke="none" fill-rule="evenodd"></path></svg>