<svg width="56" height="56" viewBox="0 0 56 56" fill="none" xmlns="http://www.w3.org/2000/svg"><path d="M12.636 0.091 C 12.528 0.135,12.349 0.285,12.240 0.425 C 12.053 0.662,12.040 0.784,12.040 2.346 L 12.040 4.013 16.007 4.013 L 19.973 4.013 19.971 2.310 C 19.969 0.481,19.940 0.358,19.443 0.104 C 19.198 -0.021,12.943 -0.033,12.636 0.091 M24.593 0.106 C 24.111 0.376,24.084 0.492,24.082 2.310 L 24.080 4.013 28.047 4.013 L 32.013 4.013 32.013 2.335 L 32.013 0.656 31.741 0.351 L 31.469 0.047 28.124 0.024 C 25.791 0.009,24.724 0.034,24.593 0.106 M36.633 0.088 C 36.531 0.130,36.363 0.258,36.260 0.372 C 36.090 0.560,36.071 0.734,36.044 2.297 L 36.015 4.015 40.011 3.991 L 44.007 3.967 44.032 2.539 C 44.063 0.847,43.981 0.440,43.559 0.183 C 43.277 0.011,43.074 0.001,40.040 0.006 C 38.269 0.009,36.736 0.046,36.633 0.088 M10.481 8.200 C 9.541 8.526,8.750 9.244,8.319 10.162 L 8.073 10.687 8.073 28.000 L 8.073 45.313 8.323 45.847 C 8.673 46.592,9.328 47.260,10.068 47.624 L 10.683 47.927 28.000 47.927 L 45.317 47.927 45.932 47.624 C 46.672 47.260,47.327 46.592,47.677 45.847 L 47.927 45.313 47.927 27.998 L 47.927 10.683 47.624 10.068 C 47.260 9.328,46.592 8.673,45.847 8.323 L 45.313 8.073 28.140 8.053 C 11.806 8.033,10.943 8.040,10.481 8.200 M0.338 12.288 C 0.201 12.424,0.068 12.624,0.041 12.731 C 0.014 12.839,0.004 14.390,0.019 16.178 L 0.047 19.429 0.351 19.701 L 0.656 19.973 2.335 19.973 L 4.013 19.973 4.013 16.007 L 4.013 12.040 2.299 12.040 L 0.585 12.040 0.338 12.288 M51.987 16.007 L 51.987 19.973 53.665 19.973 L 55.344 19.973 55.649 19.701 L 55.953 19.429 55.981 16.178 C 55.996 14.390,55.986 12.839,55.959 12.731 C 55.932 12.624,55.799 12.424,55.662 12.288 L 55.415 12.040 53.701 12.040 L 51.987 12.040 51.987 16.007 M25.988 16.253 C 26.165 16.391,27.090 18.151,29.021 22.019 C 31.311 26.605,31.819 27.693,31.907 28.197 C 31.978 28.605,32.013 30.522,32.013 33.967 C 32.013 39.693,32.023 39.601,31.409 39.893 C 30.994 40.090,29.070 40.100,28.610 39.907 C 28.070 39.682,28.000 39.418,28.000 37.618 L 28.000 36.027 23.987 36.027 L 19.973 36.027 19.973 37.694 C 19.973 39.235,19.959 39.380,19.782 39.605 C 19.495 39.969,19.032 40.065,17.741 40.027 L 16.598 39.993 16.323 39.685 L 16.048 39.378 16.074 33.600 L 16.100 27.822 18.947 22.115 C 20.671 18.658,21.881 16.338,22.016 16.231 C 22.217 16.071,22.410 16.053,23.987 16.053 C 25.631 16.053,25.750 16.065,25.988 16.253 M39.674 16.326 L 39.947 16.599 39.947 27.991 L 39.947 39.384 39.674 39.688 L 39.402 39.993 38.259 40.027 C 36.968 40.065,36.505 39.969,36.218 39.605 C 36.027 39.362,36.027 39.319,36.027 27.980 L 36.027 16.599 36.299 16.326 L 36.572 16.053 37.987 16.053 L 39.401 16.053 39.674 16.326 M23.778 20.822 C 23.649 21.048,22.751 22.745,21.782 24.593 L 20.020 27.953 20.020 29.960 L 20.020 31.967 24.010 31.991 L 28.000 32.015 28.000 30.115 C 28.000 28.922,27.960 28.100,27.893 27.906 C 27.833 27.737,27.000 26.103,26.040 24.276 C 25.081 22.448,24.232 20.831,24.154 20.682 L 24.012 20.410 23.778 20.822 M0.538 24.132 C 0.015 24.418,-0.000 24.526,-0.000 28.000 C -0.000 31.498,0.013 31.591,0.561 31.874 C 0.786 31.990,1.140 32.013,2.403 31.992 L 3.967 31.967 3.967 28.000 L 3.967 24.033 2.380 24.013 C 1.117 23.996,0.741 24.020,0.538 24.132 M52.029 24.103 C 52.005 24.168,51.996 25.963,52.009 28.093 L 52.033 31.967 53.597 31.992 C 54.860 32.013,55.214 31.990,55.439 31.874 C 55.987 31.591,56.000 31.498,56.000 28.000 C 56.000 24.506,55.986 24.409,55.443 24.128 C 55.080 23.941,52.100 23.919,52.029 24.103 M0.351 36.299 L 0.047 36.571 0.018 39.869 C -0.008 42.795,0.006 43.200,0.143 43.459 C 0.383 43.912,0.596 43.960,2.384 43.960 L 4.013 43.960 4.013 39.993 L 4.013 36.027 2.335 36.027 L 0.656 36.027 0.351 36.299 M51.987 39.993 L 51.987 43.960 53.616 43.960 C 54.635 43.960,55.332 43.920,55.478 43.854 C 55.984 43.623,56.009 43.424,55.980 39.848 L 55.953 36.571 55.649 36.299 L 55.344 36.027 53.665 36.027 L 51.987 36.027 51.987 39.993 M12.040 53.665 L 12.040 55.344 12.312 55.649 L 12.584 55.953 15.836 55.981 C 17.624 55.996,19.185 55.983,19.305 55.953 C 19.424 55.924,19.624 55.790,19.748 55.656 C 19.969 55.417,19.973 55.381,19.973 53.700 L 19.973 51.987 16.007 51.987 L 12.040 51.987 12.040 53.665 M24.080 53.700 C 24.080 55.381,24.084 55.417,24.305 55.656 C 24.429 55.790,24.629 55.924,24.749 55.953 C 24.869 55.983,26.430 55.996,28.218 55.981 L 31.469 55.953 31.741 55.649 L 32.013 55.344 32.013 53.665 L 32.013 51.987 28.047 51.987 L 24.080 51.987 24.080 53.700 M36.044 53.710 L 36.073 55.436 36.332 55.695 L 36.591 55.953 39.925 55.978 C 43.104 56.002,43.274 55.995,43.559 55.819 C 43.981 55.559,44.063 55.152,44.032 53.461 L 44.007 52.033 40.011 52.009 L 36.015 51.985 36.044 53.710 " fill="#2B2C30" stroke="none" fill-rule="evenodd"></path></svg>