<svg width="56" height="56" viewBox="0 0 56 56" fill="none" xmlns="http://www.w3.org/2000/svg"><path d="M49.756 0.142 C 48.617 0.462,48.665 0.418,40.679 8.384 L 33.057 15.987 32.652 15.923 C 32.429 15.888,26.043 14.769,18.461 13.436 C 10.193 11.983,4.440 11.013,4.088 11.013 C 3.164 11.014,2.582 11.344,1.427 12.525 C 0.116 13.865,-0.232 14.666,0.126 15.520 C 0.293 15.917,0.787 16.392,1.310 16.660 C 1.542 16.778,6.393 19.004,12.090 21.605 C 17.786 24.207,22.477 26.364,22.515 26.400 C 22.552 26.436,20.409 28.638,17.752 31.295 L 12.922 36.124 7.662 34.826 C 3.344 33.760,2.350 33.543,2.104 33.611 C 1.920 33.662,1.552 33.954,1.150 34.370 C 0.167 35.386,0.052 35.996,0.730 36.605 C 0.919 36.775,3.639 38.422,6.775 40.266 L 12.477 43.617 15.872 49.445 C 17.739 52.650,19.367 55.351,19.490 55.447 C 20.109 55.934,20.809 55.706,21.780 54.701 C 22.314 54.147,22.400 54.011,22.400 53.718 C 22.400 53.530,21.832 51.081,21.138 48.274 L 19.876 43.171 24.728 38.319 C 27.396 35.651,29.594 33.487,29.612 33.511 C 29.631 33.534,31.718 38.110,34.250 43.680 C 39.294 54.773,39.356 54.904,39.719 55.336 C 40.297 56.023,41.152 56.169,42.013 55.728 C 42.625 55.414,44.470 53.543,44.704 52.999 C 45.106 52.065,45.169 52.516,42.482 37.287 L 39.979 23.100 47.453 15.587 C 52.813 10.198,55.013 7.926,55.231 7.554 C 56.451 5.471,56.186 3.469,54.461 1.742 C 53.724 1.005,53.055 0.566,52.214 0.269 C 51.489 0.013,50.412 -0.042,49.756 0.142 " fill="#2B2C30" stroke="none" fill-rule="evenodd"></path></svg>