<svg width="56" height="56" viewBox="0 0 56 56" fill="none" xmlns="http://www.w3.org/2000/svg"><path d="M26.133 0.059 C 17.918 0.672,10.533 4.677,5.619 11.185 C 2.783 14.941,1.033 19.178,0.255 24.172 C -0.030 26.001,-0.030 29.999,0.255 31.828 C 0.790 35.261,1.802 38.387,3.269 41.134 C 5.870 46.008,9.992 50.130,14.866 52.731 C 17.613 54.198,20.739 55.210,24.172 55.745 C 26.001 56.030,29.999 56.030,31.828 55.745 C 38.614 54.688,44.394 51.630,48.716 46.811 C 52.598 42.483,54.824 37.738,55.745 31.828 C 56.030 29.999,56.030 26.001,55.745 24.172 C 54.968 19.185,53.197 14.901,50.377 11.183 C 45.748 5.083,39.127 1.241,31.500 0.232 C 30.407 0.087,27.159 -0.017,26.133 0.059 M29.359 12.343 C 29.920 12.631,30.465 13.206,30.741 13.802 C 30.940 14.233,30.940 14.242,30.940 23.007 L 30.940 31.780 30.681 32.308 C 30.396 32.889,29.905 33.383,29.288 33.712 C 28.951 33.892,28.745 33.926,28.000 33.926 C 27.255 33.926,27.049 33.892,26.712 33.712 C 26.095 33.383,25.604 32.889,25.319 32.308 L 25.060 31.780 25.060 23.007 C 25.060 14.242,25.060 14.233,25.259 13.802 C 25.623 13.016,26.323 12.397,27.160 12.122 C 27.288 12.080,27.729 12.058,28.140 12.073 C 28.722 12.095,28.991 12.155,29.359 12.343 M29.060 37.203 C 29.660 37.408,30.439 38.137,30.716 38.755 C 31.042 39.478,31.029 40.646,30.688 41.300 C 30.126 42.380,29.173 42.973,28.000 42.973 C 26.829 42.973,25.882 42.385,25.308 41.300 C 25.092 40.893,25.061 40.726,25.064 39.993 C 25.067 39.271,25.103 39.087,25.315 38.677 C 25.618 38.094,26.374 37.396,26.906 37.208 C 27.437 37.019,28.514 37.017,29.060 37.203 " fill="#2B2C30" stroke="none" fill-rule="evenodd"></path></svg>