<svg width="56" height="52" viewBox="0 0 56 52" fill="none" xmlns="http://www.w3.org/2000/svg"><path d="M26.983 0.142 C 26.270 0.342,25.664 0.695,25.168 1.199 C 24.820 1.553,22.494 5.748,12.633 23.800 C 5.974 35.992,0.425 46.211,0.303 46.509 C -0.281 47.936,0.027 49.551,1.101 50.700 C 1.616 51.251,2.138 51.572,2.905 51.811 C 3.452 51.981,4.236 51.987,28.000 51.987 C 51.764 51.987,52.548 51.981,53.095 51.811 C 53.861 51.572,54.384 51.251,54.898 50.701 C 55.937 49.590,56.270 47.984,55.744 46.620 C 55.502 45.992,31.506 2.002,31.179 1.587 C 30.764 1.059,30.018 0.502,29.432 0.281 C 28.724 0.014,27.654 -0.047,26.983 0.142 M29.260 12.305 C 29.895 12.606,30.445 13.162,30.741 13.802 L 30.940 14.233 30.940 24.033 L 30.940 33.833 30.688 34.310 C 29.758 36.074,27.485 36.515,26.038 35.213 C 25.777 34.979,25.450 34.572,25.312 34.310 L 25.060 33.833 25.060 24.033 L 25.060 14.233 25.259 13.802 C 25.555 13.162,26.105 12.606,26.740 12.305 C 27.201 12.087,27.424 12.040,28.000 12.040 C 28.576 12.040,28.799 12.087,29.260 12.305 M29.708 40.397 C 30.887 40.978,31.692 42.042,31.930 43.335 C 32.248 45.056,31.287 46.834,29.611 47.628 C 29.026 47.905,28.909 47.927,28.000 47.927 C 27.091 47.927,26.974 47.905,26.389 47.628 C 25.136 47.034,24.284 45.918,24.062 44.579 C 23.817 43.105,24.530 41.483,25.772 40.686 C 26.590 40.161,27.080 40.032,28.145 40.063 C 28.989 40.087,29.147 40.121,29.708 40.397 " fill="#2B2C30" stroke="none" fill-rule="evenodd"></path></svg>