<svg width="48" height="40" viewBox="0 0 48 40" fill="none" xmlns="http://www.w3.org/2000/svg"><path d="M4.504 0.157 C 3.999 0.465,4.000 0.457,4.000 4.016 C 4.001 7.073,4.009 7.253,4.157 7.496 C 4.491 8.044,2.772 8.000,24.016 8.000 C 42.941 7.999,43.244 7.997,43.496 7.843 C 44.001 7.536,44.000 7.542,44.000 4.000 C 44.000 0.458,44.001 0.464,43.496 0.157 C 43.244 0.003,42.942 0.001,24.000 0.001 C 5.058 0.001,4.756 0.003,4.504 0.157 M10.504 16.157 C 9.999 16.465,10.000 16.457,10.000 20.016 C 10.001 23.073,10.009 23.253,10.157 23.496 C 10.488 24.039,9.410 24.000,24.000 24.000 C 38.590 24.000,37.512 24.039,37.843 23.496 C 37.991 23.253,37.999 23.073,38.000 20.016 C 38.000 16.457,38.001 16.465,37.496 16.157 C 37.245 16.004,36.991 16.001,24.000 16.001 C 11.009 16.001,10.755 16.004,10.504 16.157 M0.504 32.157 C -0.001 32.465,-0.000 32.457,0.000 36.016 C 0.001 39.073,0.009 39.253,0.157 39.496 C 0.492 40.045,-1.652 40.000,24.016 40.000 C 46.909 39.999,47.244 39.997,47.496 39.843 C 48.001 39.536,48.000 39.542,48.000 36.000 C 48.000 32.458,48.001 32.464,47.496 32.157 C 47.244 32.003,46.909 32.001,24.000 32.001 C 1.091 32.001,0.756 32.003,0.504 32.157 " fill="#2B2C30" stroke="none" fill-rule="evenodd"></path></svg>