<svg width="48" height="51" viewBox="0 0 48 51" fill="none" xmlns="http://www.w3.org/2000/svg"><path d="M9.120 0.569 C 7.953 1.233,7.788 1.369,7.670 1.763 C 7.555 2.145,7.596 2.232,9.103 4.831 L 10.303 6.903 9.684 7.362 C 3.946 11.617,0.351 18.374,0.026 25.517 L -0.025 26.640 24.000 26.640 L 48.025 26.640 47.974 25.517 C 47.649 18.377,44.052 11.615,38.316 7.362 L 37.697 6.903 38.897 4.831 C 40.316 2.384,40.429 2.154,40.360 1.840 C 40.272 1.438,40.023 1.223,38.933 0.603 C 37.223 -0.369,37.292 -0.409,35.562 2.577 C 34.857 3.795,34.260 4.811,34.235 4.834 C 34.211 4.857,33.779 4.702,33.275 4.488 C 31.498 3.736,29.561 3.198,27.440 2.868 C 26.439 2.713,25.968 2.688,24.000 2.688 C 22.032 2.688,21.561 2.713,20.560 2.868 C 18.439 3.198,16.502 3.736,14.725 4.488 C 14.221 4.702,13.789 4.857,13.765 4.834 C 13.740 4.811,13.143 3.795,12.438 2.577 C 10.716 -0.396,10.765 -0.366,9.120 0.569 M15.942 14.807 C 16.819 15.103,17.361 15.609,17.774 16.520 C 18.049 17.127,18.036 18.192,17.744 18.817 C 17.447 19.455,16.885 20.028,16.250 20.341 C 15.773 20.575,15.655 20.600,15.002 20.599 C 14.389 20.598,14.211 20.565,13.823 20.384 C 13.185 20.087,12.612 19.525,12.299 18.890 C 12.065 18.414,12.040 18.294,12.040 17.642 C 12.041 16.997,12.068 16.862,12.295 16.382 C 12.962 14.971,14.482 14.315,15.942 14.807 M33.942 14.807 C 34.819 15.103,35.361 15.609,35.774 16.520 C 36.049 17.127,36.036 18.192,35.744 18.817 C 35.447 19.455,34.885 20.028,34.250 20.341 C 33.773 20.575,33.655 20.600,33.002 20.599 C 32.389 20.598,32.211 20.565,31.823 20.384 C 31.185 20.087,30.612 19.525,30.299 18.890 C 30.065 18.414,30.040 18.294,30.040 17.642 C 30.041 16.997,30.068 16.862,30.295 16.382 C 30.962 14.971,32.482 14.315,33.942 14.807 M0.000 40.268 L 0.000 49.896 0.182 50.167 C 0.283 50.316,0.454 50.483,0.562 50.538 C 0.719 50.617,5.570 50.638,24.000 50.639 C 46.910 50.639,47.244 50.637,47.496 50.483 C 48.034 50.155,48.000 50.849,48.000 40.244 L 48.000 30.640 24.000 30.640 L 0.000 30.640 0.000 40.268 " fill="#2B2C30" stroke="none" fill-rule="evenodd"></path></svg>