<svg width="48" height="40" viewBox="0 0 48 40" fill="none" xmlns="http://www.w3.org/2000/svg"><path d="M3.161 0.094 C 1.719 0.369,0.399 1.697,0.088 3.184 C 0.030 3.462,-0.000 5.050,-0.000 7.804 L 0.000 12.000 24.000 12.000 L 48.000 12.000 48.000 7.804 C 48.000 5.050,47.970 3.462,47.912 3.184 C 47.594 1.659,46.277 0.363,44.765 0.087 C 44.149 -0.026,3.752 -0.019,3.161 0.094 M28.000 6.000 L 28.000 8.000 26.000 8.000 L 24.000 8.000 24.000 6.000 L 24.000 4.000 26.000 4.000 L 28.000 4.000 28.000 6.000 M36.000 6.000 L 36.000 8.000 34.000 8.000 L 32.000 8.000 32.000 6.000 L 32.000 4.000 34.000 4.000 L 36.000 4.000 36.000 6.000 M44.000 6.000 L 44.000 8.000 42.000 8.000 L 40.000 8.000 40.000 6.000 L 40.000 4.000 42.000 4.000 L 44.000 4.000 44.000 6.000 M0.018 26.420 L 0.040 36.840 0.216 37.300 C 0.662 38.469,1.532 39.337,2.712 39.788 L 3.160 39.960 23.960 39.960 L 44.760 39.960 45.280 39.768 C 46.489 39.323,47.281 38.544,47.769 37.320 L 47.960 36.840 47.982 26.420 L 48.003 16.000 24.000 16.000 L -0.003 16.000 0.018 26.420 M12.000 22.000 L 12.000 24.000 10.000 24.000 L 8.000 24.000 8.000 22.000 L 8.000 20.000 10.000 20.000 L 12.000 20.000 12.000 22.000 M36.000 22.000 L 36.000 24.000 26.000 24.000 L 16.000 24.000 16.000 22.000 L 16.000 20.000 26.000 20.000 L 36.000 20.000 36.000 22.000 M24.000 30.000 L 24.000 32.000 16.000 32.000 L 8.000 32.000 8.000 30.000 L 8.000 28.000 16.000 28.000 L 24.000 28.000 24.000 30.000 M32.000 30.000 L 32.000 32.000 30.000 32.000 L 28.000 32.000 28.000 30.000 L 28.000 28.000 30.000 28.000 L 32.000 28.000 32.000 30.000 " fill="#2B2C30" stroke="none" fill-rule="evenodd"></path></svg>