<svg width="48" height="40" viewBox="0 0 48 40" fill="none" xmlns="http://www.w3.org/2000/svg"><path d="M35.587 0.104 C 35.281 0.242,24.206 10.436,24.093 10.682 C 23.967 10.961,23.976 11.242,24.121 11.523 C 24.369 12.001,24.358 12.000,28.355 12.000 L 31.998 12.000 32.019 21.718 L 32.040 31.437 32.301 31.698 L 32.563 31.960 35.881 31.983 C 39.553 32.008,39.530 32.010,39.843 31.496 C 39.996 31.246,39.999 31.020,40.000 21.620 L 40.000 12.000 43.628 12.000 L 47.256 12.000 47.525 11.819 C 47.678 11.716,47.844 11.507,47.909 11.336 C 48.154 10.693,48.356 10.908,42.274 5.360 C 39.210 2.566,36.591 0.217,36.453 0.140 C 36.164 -0.022,35.889 -0.033,35.587 0.104 M8.504 8.157 C 7.966 8.485,8.000 7.791,8.000 18.396 L 8.000 28.000 4.397 28.000 C 0.441 28.000,0.364 28.008,0.125 28.470 C -0.022 28.755,-0.031 28.928,0.085 29.261 C 0.145 29.431,1.859 31.056,5.774 34.653 C 8.856 37.484,11.455 39.844,11.549 39.897 C 11.797 40.038,12.248 40.020,12.488 39.859 C 12.769 39.672,23.599 29.804,23.793 29.560 C 23.986 29.316,23.988 28.738,23.795 28.444 C 23.504 27.999,23.515 28.000,19.604 28.000 L 16.000 28.000 16.000 18.420 C 16.000 9.460,15.991 8.822,15.860 8.560 C 15.583 8.005,15.546 8.000,11.960 8.000 C 8.927 8.001,8.747 8.009,8.504 8.157 " fill="#2B2C30" stroke="none" fill-rule="evenodd"></path></svg>