<svg width="24" height="64" viewBox="0 0 24 64" fill="none" xmlns="http://www.w3.org/2000/svg"><path d="M11.720 0.037 C 11.665 0.054,11.565 0.096,11.499 0.130 C 11.288 0.239,0.188 10.386,0.102 10.548 C -0.162 11.048,0.140 11.793,0.672 11.953 C 0.788 11.987,1.778 12.000,4.395 12.000 L 7.960 12.000 7.960 31.999 L 7.960 51.998 4.330 52.009 L 0.700 52.020 0.536 52.108 C 0.070 52.357,-0.137 53.000,0.103 53.454 C 0.197 53.631,11.331 63.797,11.553 63.907 C 11.757 64.009,12.206 64.007,12.415 63.903 C 12.500 63.861,15.086 61.515,18.163 58.690 C 24.329 53.028,23.966 53.391,23.966 52.902 C 23.966 52.504,23.745 52.191,23.370 52.057 C 23.249 52.014,22.521 52.003,19.610 52.002 L 16.000 52.000 16.000 32.000 L 16.000 12.000 19.610 11.998 C 22.521 11.997,23.249 11.986,23.370 11.943 C 23.745 11.809,23.966 11.496,23.966 11.098 C 23.966 10.610,24.321 10.966,18.233 5.374 C 15.194 2.583,12.643 0.252,12.564 0.194 C 12.330 0.023,11.981 -0.042,11.720 0.037 " fill="#2B2C30" stroke="none" fill-rule="evenodd"></path></svg>