<svg width="24" height="33" viewBox="0 0 24 33" fill="none" xmlns="http://www.w3.org/2000/svg"><path d="M11.670 0.055 C 11.587 0.085,11.461 0.156,11.390 0.211 C 11.318 0.267,8.767 2.582,5.720 5.357 C 2.163 8.596,0.152 10.454,0.103 10.547 C -0.079 10.891,0.001 11.393,0.288 11.704 C 0.575 12.015,0.363 12.000,4.407 12.000 L 8.000 12.000 8.000 21.632 L 8.000 31.264 8.104 31.472 C 8.161 31.587,8.272 31.734,8.351 31.799 C 8.652 32.047,8.547 32.040,12.000 32.040 C 15.549 32.040,15.380 32.054,15.697 31.737 C 16.028 31.405,16.000 32.359,16.000 21.593 L 16.000 12.000 19.610 12.000 C 22.032 12.000,23.270 11.986,23.373 11.957 C 23.568 11.903,23.832 11.666,23.925 11.460 C 23.965 11.372,23.998 11.210,23.999 11.100 C 23.999 10.785,23.864 10.550,23.455 10.160 C 22.385 9.138,12.612 0.205,12.477 0.125 C 12.279 0.007,11.888 -0.027,11.670 0.055 " fill="#2B2C30" stroke="none" fill-rule="evenodd"></path></svg>