<svg width="53" height="56" viewBox="0 0 53 56" fill="none" xmlns="http://www.w3.org/2000/svg"><path d="M22.825 0.300 L 22.525 0.601 22.525 20.551 L 22.525 40.500 14.200 32.184 C 9.621 27.611,5.787 23.824,5.681 23.771 C 5.417 23.637,5.073 23.649,4.788 23.800 C 4.501 23.952,0.237 28.229,0.098 28.504 C -0.036 28.768,-0.025 29.112,0.127 29.397 C 0.196 29.528,6.049 35.425,13.134 42.500 C 22.670 52.025,26.077 55.376,26.257 55.407 C 26.391 55.430,26.609 55.430,26.743 55.407 C 26.923 55.376,30.299 52.057,39.737 42.633 C 46.750 35.630,52.603 29.746,52.744 29.556 C 53.027 29.176,53.068 28.827,52.873 28.461 C 52.721 28.174,48.445 23.910,48.170 23.771 C 47.923 23.646,47.565 23.646,47.319 23.771 C 47.213 23.824,43.379 27.611,38.800 32.184 L 30.475 40.500 30.475 20.551 L 30.475 0.601 30.175 0.300 L 29.874 0.000 26.500 0.000 L 23.126 0.000 22.825 0.300 " fill="#2B2C30" stroke="none" fill-rule="evenodd"></path></svg>