<svg width="50" height="48" viewBox="0 0 50 48" fill="none" xmlns="http://www.w3.org/2000/svg"><path d="M20.447 0.188 C 19.713 0.734,12.180 7.446,12.097 7.628 C 11.952 7.946,11.978 8.195,12.188 8.492 C 12.501 8.937,20.499 15.903,20.764 15.961 C 21.123 16.040,21.451 15.935,21.717 15.657 L 21.958 15.406 21.984 13.704 L 22.010 12.001 35.711 11.980 L 49.413 11.958 49.686 11.686 L 49.958 11.413 49.958 8.000 L 49.958 4.587 49.686 4.314 L 49.413 4.042 35.711 4.020 L 22.010 3.999 21.984 2.284 L 21.958 0.570 21.647 0.285 C 21.264 -0.066,20.834 -0.101,20.447 0.188 M8.625 16.075 C 8.369 16.187,0.400 23.208,0.187 23.509 C -0.050 23.846,-0.050 24.154,0.187 24.490 C 0.291 24.636,2.212 26.367,4.458 28.336 C 7.540 31.039,8.608 31.929,8.814 31.968 C 9.140 32.029,9.496 31.896,9.763 31.612 C 9.953 31.409,9.959 31.356,9.984 29.702 L 10.010 28.000 29.617 28.000 L 49.225 28.000 49.507 27.810 C 50.009 27.472,50.003 27.523,49.979 23.897 L 49.958 20.586 49.686 20.314 L 49.413 20.042 29.711 20.020 L 10.010 19.999 9.984 18.293 L 9.958 16.586 9.701 16.329 C 9.426 16.054,8.937 15.939,8.625 16.075 M20.625 32.075 C 20.367 32.188,12.399 39.207,12.188 39.508 C 12.084 39.655,12.000 39.876,12.000 40.000 C 12.000 40.124,12.084 40.344,12.188 40.489 C 12.412 40.805,20.269 47.712,20.597 47.882 C 20.921 48.049,21.183 48.029,21.507 47.810 C 21.969 47.499,21.997 47.371,21.999 45.604 L 22.000 44.000 35.587 44.000 C 50.596 44.000,49.492 44.041,49.837 43.475 C 49.991 43.223,49.999 43.035,50.000 39.976 C 50.000 36.482,49.984 36.339,49.556 36.059 C 49.354 35.926,48.409 35.917,35.674 35.917 L 22.010 35.917 21.984 34.251 L 21.958 32.586 21.701 32.329 C 21.426 32.054,20.937 31.939,20.625 32.075 " fill="#2B2C30" stroke="none" fill-rule="evenodd"></path></svg>