<svg width="56" height="53" viewBox="0 0 56 53" fill="none" xmlns="http://www.w3.org/2000/svg"><path d="M26.158 2.357 C 23.707 4.800,23.564 4.987,23.722 5.553 C 23.777 5.750,26.271 8.304,32.129 14.163 L 40.458 22.492 20.511 22.516 L 0.564 22.540 0.305 22.799 L 0.047 23.058 0.047 26.507 L 0.047 29.956 0.305 30.215 L 0.564 30.473 20.511 30.497 L 40.458 30.521 32.129 38.851 C 26.282 44.699,23.777 47.263,23.722 47.460 C 23.566 48.016,23.716 48.214,26.107 50.607 L 28.419 52.920 28.932 52.920 L 29.446 52.920 42.391 39.970 C 51.276 31.082,55.356 26.939,55.398 26.763 C 55.432 26.622,55.432 26.391,55.398 26.250 C 55.356 26.074,51.295 21.948,42.485 13.131 C 35.416 6.056,29.520 0.208,29.381 0.134 C 29.243 0.060,28.993 0.000,28.826 0.000 C 28.553 0.000,28.277 0.244,26.158 2.357 " fill="#2B2C30" stroke="none" fill-rule="evenodd"></path></svg>