<svg width="48" height="48" viewBox="0 0 48 48" fill="none" xmlns="http://www.w3.org/2000/svg"><path d="M10.577 0.099 C 10.476 0.148,8.241 2.548,5.611 5.434 C -0.190 11.798,0.094 11.478,0.032 11.722 C -0.106 12.273,-0.154 12.213,5.130 17.978 C 7.904 21.004,10.286 23.579,10.423 23.699 C 10.753 23.989,11.108 24.051,11.466 23.881 C 12.001 23.627,12.000 23.636,12.000 19.608 L 12.000 16.000 29.563 16.000 C 48.892 16.000,47.512 16.037,47.839 15.505 C 47.997 15.248,48.002 15.139,47.981 11.901 L 47.960 8.563 47.698 8.301 L 47.437 8.040 29.718 8.019 L 12.000 7.999 11.999 4.379 C 11.998 1.645,11.973 0.712,11.898 0.562 C 11.669 0.111,11.023 -0.116,10.577 0.099 M36.582 24.119 C 36.439 24.180,36.251 24.350,36.162 24.495 C 36.006 24.750,36.001 24.892,36.000 28.380 L 36.000 32.000 18.380 32.001 C 4.446 32.002,0.719 32.023,0.562 32.102 C 0.454 32.157,0.283 32.324,0.182 32.473 C 0.000 32.744,0.000 32.746,0.000 35.934 C 0.000 39.411,0.011 39.507,0.449 39.804 C 0.676 39.957,0.967 39.960,18.340 39.981 L 36.000 40.001 36.000 43.609 C 36.000 47.531,36.008 47.609,36.448 47.844 C 36.721 47.991,37.149 47.966,37.435 47.788 C 37.631 47.666,47.314 37.185,47.788 36.583 C 47.986 36.331,48.046 35.837,47.909 35.578 C 47.731 35.242,37.620 24.195,37.397 24.093 C 37.132 23.972,36.901 23.980,36.582 24.119 " fill="#2B2C30" stroke="none" fill-rule="evenodd"></path></svg>