<svg width="32" height="24" viewBox="0 0 32 24" fill="none" xmlns="http://www.w3.org/2000/svg"><path d="M10.608 0.082 C 10.466 0.143,9.065 1.645,5.328 5.741 C 2.529 8.807,0.186 11.414,0.120 11.533 C -0.024 11.793,-0.033 12.108,0.095 12.387 C 0.147 12.502,2.383 14.978,5.324 18.181 C 10.462 23.775,10.538 23.853,10.971 23.973 C 11.130 24.017,11.474 23.918,11.653 23.777 C 11.734 23.714,11.845 23.564,11.899 23.444 C 11.992 23.239,11.998 23.015,11.999 19.613 L 12.000 16.000 21.533 16.000 C 28.021 16.000,31.131 15.982,31.268 15.943 C 31.379 15.913,31.551 15.816,31.651 15.728 C 32.011 15.412,32.005 15.483,31.988 11.889 L 31.973 8.659 31.830 8.443 C 31.744 8.312,31.594 8.181,31.453 8.113 L 31.220 8.000 21.610 8.000 L 12.000 8.000 11.999 4.387 C 11.998 0.952,11.993 0.762,11.896 0.550 C 11.698 0.114,11.066 -0.116,10.608 0.082 " fill="#2B2C30" stroke="none" fill-rule="evenodd"></path></svg>