<svg width="64" height="24" viewBox="0 0 64 24" fill="none" xmlns="http://www.w3.org/2000/svg"><path d="M10.239 0.400 C 9.456 1.147,0.194 11.359,0.079 11.602 C -0.186 12.161,-0.013 12.378,5.359 18.221 C 10.801 24.141,10.805 24.145,11.453 23.898 C 12.013 23.686,12.053 23.393,12.053 19.523 L 12.053 16.000 32.000 16.000 L 51.947 16.000 51.947 19.523 C 51.947 23.393,51.987 23.686,52.547 23.898 C 53.239 24.162,52.903 24.498,63.439 12.988 C 64.158 12.202,64.190 11.842,63.600 11.176 C 61.347 8.634,53.512 0.116,53.381 0.066 C 52.878 -0.127,52.237 0.159,52.065 0.653 C 51.988 0.874,51.947 2.206,51.947 4.496 L 51.947 8.000 32.000 8.000 L 12.053 8.000 12.053 4.496 C 12.053 2.206,12.012 0.874,11.935 0.653 C 11.806 0.283,11.373 0.000,10.934 0.000 C 10.761 0.000,10.502 0.149,10.239 0.400 " fill="#2B2C30" stroke="none" fill-rule="evenodd"></path></svg>