<svg width="48" height="48" viewBox="0 0 48 48" fill="none" xmlns="http://www.w3.org/2000/svg"><path d="M8.504 0.157 C 7.957 0.490,8.000 -1.056,8.000 18.396 L 8.000 36.000 4.397 36.000 C 0.441 36.000,0.364 36.008,0.125 36.470 C -0.022 36.755,-0.031 36.928,0.085 37.261 C 0.145 37.431,1.859 39.056,5.774 42.653 C 8.856 45.484,11.455 47.844,11.549 47.897 C 11.797 48.038,12.248 48.020,12.488 47.859 C 12.769 47.672,23.599 37.804,23.793 37.560 C 23.986 37.316,23.988 36.738,23.795 36.444 C 23.504 35.999,23.515 36.000,19.604 36.000 L 16.000 36.000 16.000 18.420 C 16.000 1.843,15.992 0.824,15.860 0.560 C 15.583 0.005,15.546 0.000,11.960 0.000 C 8.927 0.001,8.747 0.009,8.504 0.157 M35.587 0.104 C 35.281 0.242,24.206 10.436,24.093 10.682 C 23.967 10.961,23.976 11.242,24.121 11.523 C 24.369 12.001,24.358 12.000,28.356 12.000 L 32.000 12.000 32.001 29.620 C 32.002 43.554,32.023 47.281,32.102 47.438 C 32.157 47.546,32.324 47.717,32.473 47.818 C 32.744 48.000,32.744 48.000,35.976 48.000 C 39.544 48.000,39.535 48.001,39.843 47.496 C 39.997 47.244,39.999 46.955,40.000 29.620 L 40.000 12.000 43.628 12.000 L 47.256 12.000 47.525 11.819 C 47.678 11.716,47.844 11.507,47.909 11.336 C 48.154 10.693,48.356 10.908,42.274 5.360 C 39.210 2.566,36.591 0.217,36.453 0.140 C 36.164 -0.022,35.889 -0.033,35.587 0.104 " fill="#2B2C30" stroke="none" fill-rule="evenodd"></path></svg>