<svg width="48" height="24" viewBox="0 0 48 24" fill="none" xmlns="http://www.w3.org/2000/svg"><path d="M10.577 0.099 C 10.476 0.148,8.241 2.548,5.611 5.434 C -0.190 11.798,0.094 11.478,0.032 11.722 C -0.106 12.273,-0.154 12.213,5.130 17.978 C 7.904 21.004,10.286 23.579,10.423 23.699 C 10.753 23.989,11.108 24.051,11.466 23.881 C 12.001 23.627,12.000 23.636,12.000 19.608 L 12.000 16.000 24.000 16.000 L 36.000 16.000 36.000 19.608 C 36.000 23.636,35.999 23.627,36.534 23.881 C 36.907 24.058,37.262 23.986,37.620 23.659 C 37.981 23.329,47.679 12.747,47.863 12.482 C 48.021 12.254,48.038 11.798,47.897 11.546 C 47.712 11.213,37.604 0.188,37.399 0.094 C 37.285 0.042,37.091 0.000,36.968 0.000 C 36.693 0.000,36.237 0.296,36.102 0.562 C 36.027 0.712,36.002 1.645,36.001 4.380 L 36.000 8.000 24.000 8.000 L 12.000 8.000 11.999 4.380 C 11.998 1.645,11.973 0.712,11.898 0.562 C 11.669 0.111,11.023 -0.116,10.577 0.099 " fill="#2B2C30" stroke="none" fill-rule="evenodd"></path></svg>