<svg width="39" height="39" viewBox="0 0 39 39" fill="none" xmlns="http://www.w3.org/2000/svg"><path d="M33.345 0.103 C 33.195 0.167,28.824 4.492,20.556 12.758 L 7.995 25.317 7.995 13.533 C 7.995 0.525,8.029 1.546,7.583 1.206 L 7.365 1.040 4.017 1.040 L 0.669 1.040 0.448 1.188 C 0.327 1.269,0.176 1.437,0.114 1.561 C 0.006 1.775,0.001 2.763,0.016 20.064 L 0.033 38.340 0.167 38.520 C 0.240 38.619,0.381 38.760,0.480 38.833 L 0.660 38.968 19.013 38.968 L 37.365 38.968 37.549 38.834 C 37.650 38.760,37.799 38.570,37.881 38.411 L 38.029 38.123 38.011 34.893 C 37.993 31.733,37.990 31.660,37.857 31.481 C 37.782 31.380,37.624 31.232,37.506 31.151 L 37.291 31.005 25.487 31.005 L 13.683 31.005 26.272 18.411 C 39.937 4.739,39.083 5.640,38.971 5.028 C 38.931 4.807,38.652 4.503,36.639 2.479 C 35.361 1.195,34.260 0.141,34.143 0.091 C 33.878 -0.024,33.633 -0.021,33.345 0.103 " fill="#2B2C30" stroke="none" fill-rule="evenodd"></path></svg>