<svg width="50" height="48" viewBox="0 0 50 48" fill="none" xmlns="http://www.w3.org/2000/svg"><path d="M28.353 0.285 L 28.042 0.570 28.016 2.284 L 27.990 3.999 14.289 4.020 L 0.587 4.042 0.314 4.314 L 0.042 4.587 0.042 8.000 L 0.042 11.413 0.314 11.686 L 0.587 11.958 14.289 11.980 L 27.990 12.001 28.016 13.704 L 28.042 15.406 28.283 15.657 C 28.549 15.935,28.877 16.040,29.236 15.961 C 29.501 15.903,37.499 8.937,37.813 8.492 C 38.022 8.195,38.048 7.946,37.903 7.628 C 37.821 7.447,30.299 0.746,29.552 0.188 C 29.166 -0.101,28.736 -0.066,28.353 0.285 M40.625 16.075 C 40.533 16.115,40.365 16.249,40.250 16.372 C 40.044 16.594,40.041 16.615,40.016 18.298 L 39.990 19.999 20.289 20.020 L 0.587 20.042 0.314 20.314 L 0.042 20.587 0.042 24.000 L 0.042 27.413 0.314 27.686 L 0.587 27.958 20.289 27.980 L 39.990 28.001 40.016 29.702 C 40.041 31.356,40.047 31.409,40.237 31.612 C 40.505 31.896,40.860 32.029,41.186 31.967 C 41.391 31.929,42.469 31.030,45.542 28.336 C 47.788 26.367,49.709 24.637,49.813 24.491 C 50.021 24.195,50.048 23.946,49.903 23.629 C 49.829 23.467,42.614 17.026,41.604 16.221 C 41.382 16.044,40.870 15.968,40.625 16.075 M28.625 32.075 C 28.533 32.115,28.365 32.249,28.250 32.372 C 28.044 32.594,28.041 32.617,28.016 34.257 L 27.990 35.917 14.326 35.917 C 1.772 35.917,0.644 35.928,0.451 36.054 C 0.005 36.346,-0.000 36.393,0.001 39.933 C 0.003 43.510,-0.002 43.477,0.493 43.810 L 0.775 44.000 14.387 44.000 L 28.000 44.000 28.001 45.604 C 28.003 47.371,28.031 47.499,28.493 47.810 C 28.834 48.040,29.124 48.051,29.460 47.846 C 29.863 47.600,37.605 40.781,37.813 40.489 C 38.022 40.195,38.048 39.946,37.903 39.628 C 37.828 39.464,30.577 32.991,29.605 32.221 C 29.382 32.044,28.870 31.968,28.625 32.075 " fill="#2B2C30" stroke="none" fill-rule="evenodd"></path></svg>