<svg width="32" height="24" viewBox="0 0 32 24" fill="none" xmlns="http://www.w3.org/2000/svg"><path d="M20.682 0.053 C 20.436 0.127,20.205 0.326,20.102 0.555 C 20.008 0.761,20.002 0.978,20.001 4.387 L 20.000 8.000 10.390 8.000 L 0.780 8.000 0.547 8.113 C 0.406 8.181,0.256 8.312,0.170 8.443 L 0.027 8.659 0.012 11.889 C -0.005 15.483,-0.011 15.412,0.349 15.728 C 0.449 15.816,0.621 15.913,0.732 15.943 C 0.869 15.982,3.979 16.000,10.467 16.000 L 20.000 16.000 20.001 19.613 C 20.002 23.015,20.008 23.239,20.101 23.444 C 20.155 23.564,20.266 23.714,20.347 23.777 C 20.526 23.918,20.870 24.017,21.029 23.973 C 21.460 23.854,21.541 23.770,26.675 18.181 C 29.597 14.999,31.853 12.500,31.905 12.387 C 32.033 12.108,32.024 11.793,31.880 11.533 C 31.814 11.414,29.471 8.807,26.673 5.741 C 22.594 1.271,21.544 0.149,21.378 0.083 C 21.155 -0.006,20.913 -0.017,20.682 0.053 " fill="#2B2C30" stroke="none" fill-rule="evenodd"></path></svg>