<svg width="24" height="20" viewBox="0 0 24 20" fill="none" xmlns="http://www.w3.org/2000/svg"><path d="M11.700 0.053 C 11.634 0.079,11.538 0.124,11.487 0.153 C 11.370 0.219,0.426 10.154,0.251 10.353 C -0.208 10.873,0.012 11.708,0.670 11.943 C 0.791 11.986,1.512 11.997,4.390 11.998 L 7.960 12.000 7.960 15.573 C 7.960 19.596,7.945 19.387,8.260 19.702 C 8.574 20.016,8.411 20.003,12.043 19.991 L 15.260 19.980 15.449 19.869 C 15.662 19.744,15.824 19.551,15.903 19.330 C 15.946 19.209,15.957 18.484,15.958 15.591 L 15.960 12.002 19.590 11.991 L 23.220 11.980 23.398 11.880 C 23.861 11.620,24.050 11.036,23.820 10.574 C 23.733 10.401,22.987 9.708,18.573 5.696 C 11.898 -0.369,12.466 0.136,12.249 0.062 C 12.036 -0.010,11.869 -0.013,11.700 0.053 " fill="#2B2C30" stroke="none" fill-rule="evenodd"></path></svg>