<svg width="56" height="36" viewBox="0 0 56 36" fill="none" xmlns="http://www.w3.org/2000/svg"><path d="M10.121 0.490 C 9.844 0.760,7.475 3.353,4.856 6.253 C -0.028 11.662,-0.124 11.783,0.047 12.320 C 0.105 12.503,9.611 23.106,10.276 23.730 C 10.578 24.013,11.013 24.068,11.436 23.875 C 11.935 23.648,11.947 23.554,11.947 19.651 L 11.947 16.053 17.967 16.053 L 23.987 16.053 23.987 25.706 L 23.987 35.359 24.228 35.646 L 24.470 35.933 27.966 35.933 L 31.462 35.933 31.679 35.699 C 31.798 35.571,31.922 35.308,31.954 35.116 C 31.985 34.924,32.012 30.556,32.012 25.410 L 32.013 16.053 37.987 16.053 L 43.960 16.053 43.960 19.556 C 43.960 23.314,43.982 23.516,44.438 23.834 C 44.557 23.918,44.831 23.987,45.047 23.987 C 45.425 23.987,45.471 23.952,46.368 22.983 C 49.789 19.290,55.767 12.593,55.879 12.329 C 55.993 12.061,55.995 11.964,55.891 11.708 C 55.758 11.383,45.643 0.150,45.398 0.056 C 45.146 -0.040,44.802 -0.006,44.508 0.146 C 43.979 0.420,43.960 0.572,43.960 4.477 L 43.960 8.027 27.953 8.027 L 11.947 8.027 11.947 4.331 L 11.947 0.635 11.629 0.317 C 11.383 0.071,11.235 0.000,10.968 0.000 C 10.679 0.000,10.543 0.078,10.121 0.490 " fill="#2B2C30" stroke="none" fill-rule="evenodd"></path></svg>