<svg width="24" height="32" viewBox="0 0 24 32" fill="none" xmlns="http://www.w3.org/2000/svg"><path d="M8.720 0.037 C 8.429 0.127,8.174 0.354,8.045 0.637 C 7.986 0.768,7.979 1.619,7.969 10.389 L 7.959 19.998 4.329 20.009 C 0.877 20.019,0.693 20.024,0.560 20.095 C 0.363 20.199,0.207 20.353,0.108 20.540 C -0.010 20.761,-0.014 21.236,0.100 21.451 C 0.153 21.552,2.041 23.298,5.780 26.706 C 10.149 30.688,11.427 31.831,11.594 31.909 C 11.864 32.036,12.181 32.024,12.453 31.878 C 12.558 31.821,14.991 29.615,18.202 26.664 C 23.350 21.934,23.778 21.530,23.873 21.324 C 24.116 20.795,23.898 20.245,23.370 20.057 C 23.249 20.014,22.521 20.003,19.610 20.002 L 16.000 20.000 16.000 10.467 C 16.000 -0.130,16.022 0.677,15.730 0.355 C 15.651 0.266,15.512 0.155,15.423 0.107 L 15.260 0.020 12.040 0.013 C 10.269 0.009,8.775 0.020,8.720 0.037 " fill="#2B2C30" stroke="none" fill-rule="evenodd"></path></svg>