<svg width="50" height="56" viewBox="0 0 50 56" fill="none" xmlns="http://www.w3.org/2000/svg"><path d="M40.042 0.075 C 39.950 0.115,39.795 0.237,39.698 0.345 C 39.601 0.453,32.626 12.485,24.198 27.083 C 9.703 52.191,8.875 53.646,8.876 54.020 C 8.876 54.527,9.009 54.659,10.250 55.387 C 11.325 56.017,11.714 56.100,12.131 55.789 C 12.277 55.680,17.809 46.183,27.736 28.998 C 42.057 4.207,43.116 2.348,43.120 1.986 C 43.127 1.471,42.979 1.323,41.765 0.622 C 40.803 0.067,40.372 -0.070,40.042 0.075 M20.498 4.143 C 19.917 4.544,12.191 11.422,12.103 11.615 C 11.964 11.919,11.973 12.079,12.146 12.392 C 12.366 12.792,20.390 19.814,20.754 19.926 C 21.148 20.046,21.602 19.860,21.831 19.484 C 21.984 19.233,21.999 19.066,22.000 17.604 L 22.000 16.000 24.325 16.000 L 26.650 16.000 28.947 12.021 L 31.244 8.042 26.622 8.020 L 22.000 7.999 22.000 6.408 C 22.000 4.652,21.946 4.401,21.507 4.142 C 21.199 3.960,20.761 3.960,20.498 4.143 M41.521 11.946 C 40.272 14.115,39.250 15.914,39.250 15.944 C 39.250 15.975,41.464 16.000,44.169 16.000 C 49.595 16.000,49.512 16.008,49.831 15.484 C 49.992 15.220,49.999 15.071,50.000 12.013 C 50.000 8.509,49.990 8.428,49.507 8.142 C 49.293 8.016,48.961 8.000,46.529 8.002 L 43.792 8.004 41.521 11.946 M8.498 20.143 C 7.917 20.544,0.191 27.422,0.103 27.615 C -0.039 27.926,-0.025 28.168,0.148 28.431 C 0.229 28.554,2.132 30.270,4.377 32.245 C 7.177 34.708,8.551 35.864,8.754 35.926 C 9.148 36.046,9.602 35.860,9.831 35.484 C 9.984 35.233,9.999 35.066,10.000 33.605 L 10.000 32.002 13.718 31.980 L 17.435 31.958 19.718 28.008 C 20.973 25.836,22.000 24.045,22.000 24.029 C 22.000 24.013,19.300 24.000,16.000 24.000 L 10.000 24.000 10.000 22.408 C 10.000 20.652,9.946 20.401,9.507 20.142 C 9.199 19.960,8.761 19.960,8.498 20.143 M34.522 24.104 C 34.404 24.255,30.000 31.899,30.000 31.954 C 30.000 31.979,34.295 32.000,39.544 32.000 C 50.053 32.000,49.500 32.028,49.831 31.484 C 49.992 31.220,49.999 31.071,50.000 28.013 C 50.000 24.509,49.990 24.428,49.507 24.142 C 49.285 24.011,48.695 24.000,41.935 24.000 C 36.169 24.000,34.586 24.022,34.522 24.104 M25.389 39.896 C 25.369 39.930,23.959 42.370,22.257 45.318 L 19.161 50.678 19.560 51.036 C 20.277 51.679,20.484 51.836,20.729 51.922 C 21.085 52.046,21.573 51.860,21.809 51.509 C 21.992 51.238,22.000 51.155,22.000 49.613 L 22.000 48.000 35.521 47.995 C 45.769 47.992,49.112 47.967,49.330 47.891 C 49.495 47.834,49.701 47.670,49.810 47.509 C 50.000 47.225,50.000 47.225,50.000 43.917 C 50.000 40.609,50.000 40.608,49.810 40.325 C 49.701 40.163,49.495 39.999,49.330 39.942 C 49.112 39.867,46.155 39.842,37.234 39.838 C 30.740 39.835,25.410 39.861,25.389 39.896 " fill="#2B2C30" stroke="none" fill-rule="evenodd"></path></svg>