<svg width="24" height="48" viewBox="0 0 24 48" fill="none" xmlns="http://www.w3.org/2000/svg"><path d="M11.720 0.035 C 11.665 0.053,11.565 0.096,11.499 0.130 C 11.288 0.239,0.188 10.386,0.102 10.548 C -0.162 11.048,0.140 11.793,0.672 11.953 C 0.788 11.987,1.778 12.000,4.395 12.000 L 7.960 12.000 7.960 23.999 L 7.960 35.998 4.330 36.009 L 0.700 36.020 0.536 36.108 C 0.070 36.357,-0.137 37.000,0.103 37.454 C 0.197 37.631,11.331 47.797,11.553 47.907 C 11.758 48.009,12.206 48.007,12.415 47.903 C 12.500 47.861,15.087 45.514,18.164 42.689 C 24.328 37.028,23.966 37.390,23.966 36.902 C 23.966 36.504,23.745 36.191,23.370 36.057 C 23.249 36.014,22.521 36.003,19.610 36.002 L 16.000 36.000 16.000 24.000 L 16.000 12.000 19.610 11.998 C 22.521 11.997,23.249 11.986,23.370 11.943 C 23.745 11.809,23.966 11.496,23.966 11.098 C 23.966 10.610,24.328 10.972,18.163 5.311 C 15.086 2.485,12.501 0.141,12.419 0.102 C 12.250 0.022,11.870 -0.014,11.720 0.035 " fill="#2B2C30" stroke="none" fill-rule="evenodd"></path></svg>