<svg width="39" height="39" viewBox="0 0 39 39" fill="none" xmlns="http://www.w3.org/2000/svg"><path d="M1.593 0.102 C 1.297 0.257,1.184 0.380,1.072 0.674 C 0.983 0.908,0.972 1.357,0.989 4.139 C 1.007 7.266,1.010 7.340,1.143 7.519 C 1.218 7.620,1.376 7.768,1.494 7.849 L 1.709 7.995 13.513 7.995 L 25.317 7.995 12.762 20.556 C 5.857 27.465,0.161 33.211,0.104 33.326 C -0.024 33.582,-0.029 33.868,0.091 34.143 C 0.141 34.260,1.195 35.361,2.479 36.639 C 4.503 38.652,4.807 38.931,5.028 38.971 C 5.640 39.083,4.739 39.937,18.411 26.272 L 31.005 13.683 31.005 25.487 L 31.005 37.291 31.151 37.506 C 31.232 37.624,31.380 37.782,31.481 37.857 C 31.660 37.990,31.733 37.993,34.893 38.011 L 38.123 38.029 38.411 37.881 C 38.570 37.799,38.760 37.650,38.834 37.549 L 38.968 37.365 38.968 19.012 L 38.968 0.660 38.833 0.480 C 38.760 0.381,38.619 0.240,38.520 0.167 L 38.340 0.033 20.064 0.016 C 3.582 0.002,1.768 0.010,1.593 0.102 " fill="#2B2C30" stroke="none" fill-rule="evenodd"></path></svg>