<svg width="40" height="40" viewBox="0 0 40 40" fill="none" xmlns="http://www.w3.org/2000/svg"><path d="M27.578 0.108 C 27.272 0.273,16.244 10.325,16.117 10.555 C 15.873 10.993,16.074 11.632,16.532 11.876 C 16.750 11.992,16.987 12.000,20.349 12.000 L 23.933 12.000 23.933 15.470 C 23.933 17.809,23.958 19.038,24.008 19.237 C 24.096 19.586,24.422 19.907,24.749 19.966 C 24.869 19.988,26.397 19.997,28.145 19.986 C 31.257 19.967,31.328 19.964,31.512 19.826 C 31.615 19.749,31.760 19.584,31.833 19.460 C 31.962 19.242,31.967 19.095,31.986 15.617 L 32.005 12.000 35.577 12.000 C 39.125 12.000,39.150 11.999,39.408 11.854 C 39.681 11.701,39.933 11.290,39.933 11.000 C 39.933 10.566,39.723 10.358,34.227 5.367 C 31.240 2.653,28.659 0.336,28.491 0.217 C 28.152 -0.024,27.880 -0.056,27.578 0.108 M8.535 20.117 C 8.407 20.181,8.235 20.335,8.151 20.460 L 8.000 20.686 8.000 24.343 L 8.000 28.000 4.417 28.001 C 1.064 28.003,0.816 28.011,0.560 28.127 C 0.356 28.220,0.249 28.327,0.143 28.547 C -0.039 28.922,-0.037 29.112,0.150 29.449 C 0.330 29.774,11.332 39.795,11.656 39.929 C 11.956 40.053,12.277 39.969,12.647 39.669 C 13.224 39.200,23.623 29.704,23.748 29.532 C 24.078 29.076,23.894 28.389,23.375 28.137 C 23.099 28.004,22.990 28.000,19.512 28.000 L 15.933 28.000 15.933 24.343 L 15.933 20.686 15.782 20.460 C 15.470 19.992,15.534 20.000,11.967 20.000 C 9.053 20.000,8.746 20.011,8.535 20.117 " fill="#2B2C30" stroke="none" fill-rule="evenodd"></path></svg>