<svg width="24" height="48" viewBox="0 0 24 48" fill="none" xmlns="http://www.w3.org/2000/svg"><path d="M8.720 0.037 C 8.429 0.127,8.174 0.354,8.045 0.637 C 7.985 0.768,7.979 2.234,7.970 18.389 L 7.959 35.998 4.330 36.009 L 0.700 36.020 0.536 36.108 C 0.070 36.357,-0.137 37.000,0.103 37.453 C 0.153 37.548,2.158 39.403,5.780 42.705 C 10.163 46.701,11.426 47.832,11.594 47.910 C 11.864 48.036,12.181 48.024,12.452 47.878 C 12.555 47.822,15.021 45.584,18.196 42.666 C 24.324 37.031,23.966 37.389,23.966 36.902 C 23.966 36.504,23.745 36.191,23.370 36.057 C 23.249 36.014,22.521 36.003,19.610 36.002 L 16.000 36.000 16.000 18.467 C 16.000 2.717,15.994 0.913,15.938 0.725 C 15.865 0.481,15.659 0.233,15.423 0.107 L 15.260 0.020 12.040 0.013 C 10.269 0.009,8.775 0.020,8.720 0.037 " fill="#2B2C30" stroke="none" fill-rule="evenodd"></path></svg>