<svg width="40" height="40" viewBox="0 0 40 40" fill="none" xmlns="http://www.w3.org/2000/svg"><path d="M10.485 0.183 C 10.176 0.390,0.263 11.285,0.103 11.595 C -0.055 11.900,-0.023 12.152,0.217 12.494 C 0.336 12.664,2.653 15.246,5.367 18.231 C 10.357 23.722,10.567 23.933,11.000 23.933 C 11.290 23.933,11.701 23.681,11.854 23.408 C 11.999 23.150,12.000 23.125,12.000 19.577 L 12.000 16.005 15.617 15.986 C 19.095 15.967,19.242 15.962,19.460 15.833 C 19.584 15.760,19.749 15.615,19.826 15.512 C 19.964 15.327,19.967 15.260,19.984 12.045 C 20.004 8.385,20.013 8.467,19.540 8.151 L 19.314 8.000 15.657 8.000 L 12.000 8.000 12.000 4.382 C 12.000 0.279,12.021 0.445,11.466 0.152 C 11.087 -0.049,10.820 -0.040,10.485 0.183 M28.542 16.144 C 28.328 16.250,28.217 16.362,28.127 16.561 C 28.011 16.815,28.003 17.071,28.001 20.417 L 28.000 24.000 24.343 24.000 L 20.686 24.000 20.460 24.151 C 19.992 24.464,20.000 24.399,20.000 27.967 C 20.000 31.534,19.992 31.470,20.460 31.782 L 20.686 31.933 24.343 31.933 L 28.000 31.933 28.000 35.512 C 28.000 38.990,28.004 39.099,28.137 39.375 C 28.389 39.894,29.076 40.078,29.532 39.748 C 29.704 39.623,39.200 29.224,39.669 28.647 C 39.983 28.260,40.060 27.940,39.912 27.630 C 39.740 27.271,29.765 16.325,29.449 16.150 C 29.111 15.962,28.912 15.961,28.542 16.144 " fill="#2B2C30" stroke="none" fill-rule="evenodd"></path></svg>