<svg width="48" height="24" viewBox="0 0 48 24" fill="none" xmlns="http://www.w3.org/2000/svg"><path d="M10.577 0.099 C 10.476 0.148,8.241 2.548,5.611 5.434 C -0.190 11.798,0.094 11.478,0.032 11.722 C -0.106 12.273,-0.154 12.213,5.130 17.978 C 7.904 21.004,10.286 23.579,10.423 23.699 C 10.753 23.989,11.108 24.051,11.466 23.881 C 12.001 23.627,12.000 23.636,12.000 19.608 L 12.000 16.000 29.563 16.000 C 48.892 16.000,47.512 16.037,47.839 15.505 C 47.997 15.248,48.002 15.139,47.981 11.901 L 47.960 8.563 47.698 8.301 L 47.437 8.040 29.718 8.019 L 12.000 7.999 11.999 4.379 C 11.998 1.645,11.973 0.712,11.898 0.562 C 11.669 0.111,11.023 -0.116,10.577 0.099 " fill="#2B2C30" stroke="none" fill-rule="evenodd"></path></svg>