<svg width="40" height="24" viewBox="0 0 40 24" fill="none" xmlns="http://www.w3.org/2000/svg"><path d="M10.485 0.183 C 10.176 0.390,0.263 11.285,0.103 11.595 C -0.055 11.900,-0.023 12.152,0.217 12.494 C 0.336 12.664,2.653 15.246,5.367 18.231 C 10.357 23.722,10.567 23.933,11.000 23.933 C 11.290 23.933,11.701 23.681,11.854 23.408 C 11.999 23.150,12.000 23.125,12.000 19.574 L 12.000 16.000 19.998 16.000 L 27.997 16.000 28.015 19.650 C 28.033 23.179,28.038 23.306,28.167 23.482 C 28.319 23.691,28.767 23.933,29.000 23.933 C 29.434 23.933,29.642 23.723,34.633 18.227 C 37.347 15.240,39.664 12.659,39.783 12.491 C 40.024 12.152,40.055 11.901,39.897 11.594 C 39.737 11.285,29.824 0.391,29.514 0.183 C 29.180 -0.040,28.913 -0.049,28.534 0.152 C 27.979 0.445,28.000 0.279,28.000 4.382 L 28.000 8.000 20.000 8.000 L 12.000 8.000 12.000 4.382 C 12.000 0.279,12.021 0.445,11.466 0.152 C 11.087 -0.049,10.820 -0.040,10.485 0.183 " fill="#2B2C30" stroke="none" fill-rule="evenodd"></path></svg>