<svg width="39" height="39" viewBox="0 0 39 39" fill="none" xmlns="http://www.w3.org/2000/svg"><path d="M0.614 0.091 C 0.352 0.206,0.079 0.538,0.033 0.798 C 0.012 0.913,0.004 9.188,0.014 19.186 L 0.033 37.365 0.166 37.549 C 0.240 37.650,0.430 37.799,0.589 37.881 L 0.878 38.029 4.107 38.011 C 7.267 37.993,7.340 37.990,7.519 37.857 C 7.620 37.782,7.768 37.624,7.849 37.506 L 7.995 37.291 7.995 25.487 L 7.995 13.683 20.589 26.272 C 34.260 39.937,33.360 39.082,33.972 38.972 C 34.193 38.932,34.496 38.653,36.574 36.574 C 38.653 34.496,38.932 34.193,38.972 33.972 C 39.082 33.360,39.937 34.260,26.272 20.589 L 13.683 7.995 25.487 7.995 L 37.291 7.995 37.506 7.849 C 37.624 7.768,37.782 7.620,37.857 7.519 C 37.990 7.340,37.993 7.266,38.011 4.139 C 38.032 0.555,38.032 0.550,37.586 0.210 L 37.353 0.033 19.083 0.019 C 3.992 0.007,0.778 0.020,0.614 0.091 " fill="#2B2C30" stroke="none" fill-rule="evenodd"></path></svg>