<svg width="53" height="56" viewBox="0 0 53 56" fill="none" xmlns="http://www.w3.org/2000/svg"><path d="M13.052 13.052 L 0.000 26.103 0.000 26.497 L 0.000 26.890 2.360 29.256 C 3.924 30.824,4.816 31.654,5.003 31.716 C 5.219 31.787,5.354 31.779,5.580 31.681 C 5.759 31.603,9.104 28.319,14.133 23.285 C 18.676 18.737,22.422 15.017,22.459 15.017 C 22.495 15.017,22.525 23.939,22.525 34.843 C 22.525 50.027,22.550 54.724,22.631 54.902 C 22.845 55.372,22.945 55.385,26.500 55.385 C 30.055 55.385,30.155 55.372,30.369 54.902 C 30.450 54.724,30.475 50.027,30.475 34.843 C 30.475 23.939,30.505 15.017,30.541 15.017 C 30.578 15.017,34.344 18.753,38.911 23.320 C 44.640 29.050,47.301 31.653,47.494 31.716 C 47.707 31.787,47.843 31.778,48.068 31.681 C 48.235 31.608,49.359 30.552,50.659 29.247 L 52.956 26.940 52.956 26.499 L 52.956 26.058 39.926 13.029 L 26.896 0.000 26.500 0.000 L 26.103 0.000 13.052 13.052 " fill="#2B2C30" stroke="none" fill-rule="evenodd"></path></svg>