<svg width="40" height="48" viewBox="0 0 40 48" fill="none" xmlns="http://www.w3.org/2000/svg"><path d="M10.556 0.117 C 10.284 0.269,0.217 11.300,0.094 11.581 C -0.041 11.889,-0.021 12.198,0.150 12.474 C 0.233 12.607,2.589 15.207,5.388 18.252 C 10.814 24.157,10.722 24.067,11.240 23.970 C 11.357 23.948,11.535 23.866,11.635 23.787 C 12.001 23.499,12.000 23.507,12.000 19.603 L 12.000 16.001 21.662 15.984 C 31.303 15.967,31.324 15.966,31.508 15.829 C 31.609 15.754,31.754 15.609,31.829 15.508 C 31.964 15.327,31.967 15.253,31.967 11.967 C 31.967 8.676,31.964 8.606,31.829 8.422 C 31.753 8.318,31.588 8.181,31.462 8.117 C 31.247 8.007,30.640 8.000,21.617 8.000 L 12.000 8.000 12.000 4.383 C 12.000 0.269,12.020 0.428,11.469 0.150 C 11.112 -0.030,10.837 -0.040,10.556 0.117 M28.536 24.150 C 27.979 24.435,28.000 24.271,28.000 28.382 L 28.000 32.000 18.393 32.000 C 7.759 32.000,8.507 31.969,8.182 32.425 L 8.033 32.633 8.033 35.978 C 8.033 39.253,8.036 39.327,8.171 39.508 C 8.246 39.609,8.391 39.754,8.492 39.829 C 8.676 39.966,8.698 39.967,18.338 39.984 L 28.000 40.002 28.000 43.618 C 28.000 46.928,28.010 47.253,28.117 47.462 C 28.382 47.982,28.989 48.113,29.479 47.756 C 29.621 47.652,32.016 45.083,34.800 42.047 C 38.750 37.741,39.880 36.471,39.940 36.270 C 40.049 35.907,39.971 35.601,39.682 35.263 C 38.661 34.065,29.607 24.209,29.443 24.117 C 29.164 23.960,28.887 23.970,28.536 24.150 " fill="#2B2C30" stroke="none" fill-rule="evenodd"></path></svg>