<svg width="48" height="24" viewBox="0 0 48 24" fill="none" xmlns="http://www.w3.org/2000/svg"><path d="M36.473 0.182 C 36.324 0.283,36.157 0.454,36.102 0.562 C 36.027 0.712,36.002 1.645,36.001 4.379 L 36.000 7.999 18.282 8.019 L 0.563 8.040 0.302 8.301 L 0.040 8.563 0.019 11.901 C -0.002 15.139,0.003 15.248,0.161 15.505 C 0.488 16.037,-0.892 16.000,18.437 16.000 L 36.000 16.000 36.000 19.608 C 36.000 23.636,35.999 23.627,36.534 23.881 C 36.907 24.058,37.262 23.986,37.620 23.659 C 37.981 23.329,47.679 12.747,47.863 12.482 C 48.021 12.254,48.038 11.798,47.897 11.546 C 47.712 11.213,37.604 0.188,37.399 0.094 C 37.085 -0.049,36.772 -0.019,36.473 0.182 " fill="#2B2C30" stroke="none" fill-rule="evenodd"></path></svg>