<svg width="56" height="53" viewBox="0 0 56 53" fill="none" xmlns="http://www.w3.org/2000/svg"><path d="M25.993 0.178 C 25.839 0.275,19.938 6.134,12.880 13.198 L 0.047 26.040 0.047 26.507 L 0.047 26.973 13.020 39.947 L 25.993 52.920 26.505 52.920 L 27.016 52.920 29.375 50.561 C 31.628 48.308,31.733 48.187,31.733 47.848 C 31.733 47.654,31.687 47.403,31.630 47.291 C 31.574 47.178,27.804 43.359,23.254 38.803 L 14.980 30.520 34.795 30.520 C 52.599 30.520,54.638 30.505,54.892 30.374 C 55.412 30.105,55.440 29.907,55.440 26.507 C 55.440 23.106,55.412 22.908,54.892 22.640 C 54.638 22.508,52.599 22.493,34.795 22.493 L 14.980 22.493 23.254 14.210 C 27.804 9.654,31.574 5.835,31.630 5.723 C 31.687 5.611,31.733 5.361,31.733 5.167 C 31.733 4.833,31.623 4.704,29.470 2.541 C 28.225 1.290,27.093 0.206,26.955 0.133 C 26.614 -0.047,26.328 -0.034,25.993 0.178 " fill="#2B2C30" stroke="none" fill-rule="evenodd"></path></svg>