<svg width="24" height="20" viewBox="0 0 24 20" fill="none" xmlns="http://www.w3.org/2000/svg"><path d="M8.627 0.064 C 8.375 0.142,8.115 0.401,8.026 0.660 C 7.967 0.835,7.960 1.206,7.960 4.427 L 7.960 8.000 4.390 8.002 C 1.512 8.003,0.791 8.014,0.670 8.057 C 0.012 8.292,-0.208 9.126,0.251 9.647 C 0.322 9.728,2.878 12.062,5.931 14.834 C 11.837 20.195,11.608 20.000,12.003 20.000 C 12.089 20.000,12.235 19.954,12.353 19.890 C 12.478 19.822,14.672 17.854,18.138 14.703 C 24.376 9.030,23.951 9.454,23.910 8.940 C 23.876 8.521,23.631 8.193,23.250 8.057 C 23.129 8.014,22.408 8.003,19.530 8.002 L 15.960 8.000 15.958 4.410 C 15.957 1.516,15.946 0.791,15.903 0.670 C 15.824 0.449,15.662 0.256,15.449 0.131 L 15.260 0.020 12.040 0.012 C 9.279 0.006,8.792 0.013,8.627 0.064 " fill="#2B2C30" stroke="none" fill-rule="evenodd"></path></svg>