<svg width="24" height="48" viewBox="0 0 24 48" fill="none" xmlns="http://www.w3.org/2000/svg"><path d="M11.720 0.035 C 11.665 0.053,11.565 0.096,11.499 0.130 C 11.288 0.239,0.188 10.386,0.102 10.548 C -0.162 11.048,0.140 11.793,0.672 11.953 C 0.788 11.987,1.778 12.000,4.394 12.000 L 7.959 12.000 7.970 29.610 C 7.979 45.766,7.985 47.232,8.045 47.363 C 8.147 47.586,8.361 47.804,8.580 47.906 L 8.780 47.999 11.955 48.000 C 14.352 48.000,15.171 47.988,15.295 47.951 C 15.547 47.876,15.857 47.553,15.936 47.283 C 15.994 47.085,16.000 45.460,16.000 29.533 L 16.000 12.000 19.610 11.998 C 22.521 11.997,23.249 11.986,23.370 11.943 C 23.745 11.809,23.966 11.496,23.966 11.098 C 23.966 10.610,24.328 10.972,18.163 5.311 C 15.086 2.485,12.501 0.141,12.419 0.102 C 12.250 0.022,11.870 -0.014,11.720 0.035 " fill="#2B2C30" stroke="none" fill-rule="evenodd"></path></svg>