<svg width="50" height="56" viewBox="0 0 50 56" fill="none" xmlns="http://www.w3.org/2000/svg"><path d="M38.042 0.075 C 37.950 0.115,37.795 0.237,37.698 0.345 C 37.601 0.453,30.626 12.485,22.198 27.083 C 7.703 52.191,6.875 53.646,6.876 54.020 C 6.876 54.527,7.009 54.659,8.250 55.387 C 9.325 56.017,9.714 56.100,10.131 55.789 C 10.277 55.680,15.809 46.183,25.736 28.998 C 40.057 4.207,41.116 2.348,41.120 1.986 C 41.127 1.471,40.979 1.323,39.765 0.622 C 38.803 0.067,38.372 -0.070,38.042 0.075 M28.480 4.146 C 28.054 4.410,28.000 4.663,28.000 6.408 L 28.000 8.000 14.367 8.000 C 1.667 8.000,0.718 8.010,0.493 8.142 C 0.010 8.428,-0.000 8.509,0.000 12.013 C 0.001 15.071,0.008 15.220,0.169 15.484 C 0.503 16.032,-0.285 16.000,12.781 16.000 L 24.650 16.000 27.745 10.646 L 30.839 5.292 30.399 4.889 C 29.395 3.971,29.005 3.821,28.480 4.146 M40.480 20.146 C 40.054 20.410,40.000 20.663,40.000 22.408 L 40.000 23.998 36.272 24.020 L 32.544 24.042 30.276 27.958 C 29.029 30.113,28.006 31.903,28.004 31.938 C 28.002 31.972,30.700 32.000,34.000 32.000 L 40.000 32.000 40.000 33.604 C 40.001 35.066,40.016 35.233,40.169 35.484 C 40.398 35.860,40.852 36.046,41.246 35.926 C 41.609 35.815,49.633 28.792,49.854 28.391 C 50.027 28.079,50.036 27.919,49.897 27.615 C 49.809 27.422,42.083 20.544,41.502 20.143 C 41.241 19.962,40.775 19.963,40.480 20.146 M0.480 24.146 C 0.011 24.437,-0.000 24.524,0.000 28.013 C 0.001 31.071,0.008 31.220,0.169 31.484 C 0.498 32.024,0.167 32.003,8.174 31.980 L 15.435 31.958 17.718 28.008 C 18.973 25.836,20.000 24.045,20.000 24.029 C 20.000 24.013,15.659 24.001,10.354 24.002 C 1.420 24.004,0.691 24.015,0.480 24.146 M28.480 36.146 C 28.058 36.408,28.000 36.670,28.000 38.324 L 28.000 39.831 25.701 39.853 L 23.402 39.875 21.076 43.902 C 19.797 46.117,18.750 47.946,18.750 47.965 C 18.750 47.984,20.831 48.000,23.375 48.000 L 28.000 48.000 28.000 49.613 C 28.000 51.153,28.009 51.238,28.190 51.509 C 28.450 51.896,28.949 52.060,29.345 51.888 C 29.726 51.723,37.671 44.723,37.854 44.392 C 38.027 44.079,38.036 43.919,37.897 43.615 C 37.809 43.422,30.083 36.544,29.502 36.143 C 29.241 35.962,28.775 35.963,28.480 36.146 M0.670 39.942 C 0.505 39.999,0.299 40.163,0.190 40.325 C 0.000 40.608,-0.000 40.609,-0.000 43.917 L -0.000 47.225 0.191 47.509 C 0.506 47.977,0.706 48.005,3.609 47.980 L 6.199 47.958 8.513 43.958 C 9.786 41.758,10.829 39.930,10.830 39.896 C 10.836 39.785,0.996 39.830,0.670 39.942 " fill="#2B2C30" stroke="none" fill-rule="evenodd"></path></svg>