<svg width="56" height="56" viewBox="0 0 56 56" fill="none" xmlns="http://www.w3.org/2000/svg"><path d="M0.607 0.088 C 0.504 0.130,0.336 0.258,0.233 0.372 C 0.048 0.579,0.047 0.711,0.047 28.008 L 0.047 55.436 0.305 55.695 L 0.564 55.953 28.000 55.953 L 55.436 55.953 55.695 55.695 L 55.953 55.436 55.953 28.000 L 55.953 0.564 55.695 0.305 L 55.436 0.047 28.115 0.029 C 13.088 0.019,0.709 0.046,0.607 0.088 M7.549 4.166 C 7.949 4.446,8.027 4.821,8.027 6.484 L 8.027 8.027 28.000 8.027 L 47.973 8.027 47.973 6.484 C 47.973 4.074,48.023 4.013,50.010 4.013 L 51.352 4.013 51.669 4.331 L 51.987 4.648 51.986 9.954 C 51.986 15.051,51.979 15.272,51.804 15.559 C 51.555 15.967,51.081 16.080,49.791 16.039 C 48.096 15.986,47.973 15.817,47.973 13.536 L 47.973 12.040 28.000 12.040 L 8.027 12.040 8.027 13.536 C 8.027 15.817,7.904 15.986,6.209 16.039 C 4.919 16.080,4.445 15.967,4.196 15.559 C 4.021 15.272,4.014 15.051,4.014 9.954 L 4.013 4.648 4.331 4.331 L 4.648 4.013 5.990 4.013 C 7.079 4.013,7.373 4.042,7.549 4.166 M39.674 20.325 L 39.947 20.630 39.947 22.023 C 39.947 23.361,39.938 23.427,39.721 23.678 L 39.496 23.940 24.158 23.965 C 12.733 23.983,8.753 23.962,8.559 23.881 C 8.112 23.697,8.027 23.390,8.027 21.959 C 8.027 20.917,8.056 20.626,8.179 20.451 C 8.526 19.956,7.742 19.978,24.158 20.000 L 39.402 20.020 39.674 20.325 M27.695 28.305 C 27.950 28.560,27.954 28.580,27.980 29.892 C 28.004 31.093,27.989 31.249,27.817 31.526 C 27.712 31.694,27.517 31.873,27.384 31.924 C 27.228 31.983,23.815 32.007,17.856 31.991 L 8.571 31.967 8.299 31.662 L 8.027 31.357 8.027 29.996 L 8.027 28.635 8.345 28.316 L 8.664 27.997 18.050 28.022 L 27.436 28.047 27.695 28.305 M31.662 36.299 L 31.967 36.571 31.997 37.833 C 32.022 38.859,31.999 39.156,31.873 39.420 C 31.560 40.080,32.330 40.040,20.026 40.040 C 8.097 40.040,8.525 40.057,8.179 39.562 C 8.055 39.385,8.027 39.090,8.027 37.973 L 8.027 36.601 8.314 36.314 L 8.601 36.027 19.979 36.027 L 31.357 36.027 31.662 36.299 M19.701 44.326 L 19.973 44.599 19.973 45.917 C 19.973 47.310,19.887 47.676,19.512 47.877 C 19.395 47.940,17.479 47.973,14.000 47.973 C 10.521 47.973,8.605 47.940,8.488 47.877 C 8.113 47.676,8.027 47.310,8.027 45.917 L 8.027 44.599 8.299 44.326 L 8.572 44.053 14.000 44.053 L 19.428 44.053 19.701 44.326 " fill="#2B2C30" stroke="none" fill-rule="evenodd"></path></svg>