<svg width="32" height="36" viewBox="0 0 32 36" fill="none" xmlns="http://www.w3.org/2000/svg"><path d="M10.521 0.115 C 10.215 0.285,0.251 11.281,0.095 11.622 C -0.048 11.934,-0.008 12.309,0.195 12.575 C 0.526 13.009,10.205 23.666,10.397 23.807 C 10.850 24.142,11.484 24.015,11.793 23.529 L 11.947 23.286 11.947 19.643 L 11.947 16.000 17.947 16.000 L 23.947 16.000 23.948 25.587 C 23.949 34.772,23.953 35.182,24.047 35.389 C 24.166 35.650,24.416 35.870,24.682 35.948 C 24.817 35.987,25.904 36.000,28.084 35.989 L 31.288 35.973 31.504 35.830 C 31.634 35.744,31.765 35.594,31.834 35.453 L 31.947 35.220 31.947 23.352 C 31.947 11.628,31.945 11.479,31.839 11.062 C 31.475 9.634,30.429 8.558,28.987 8.126 C 28.686 8.035,28.170 8.029,20.307 8.014 L 11.947 7.998 11.947 4.389 C 11.947 0.821,11.945 0.778,11.834 0.547 C 11.604 0.072,10.975 -0.135,10.521 0.115 " fill="#2B2C30" stroke="none" fill-rule="evenodd"></path></svg>