<svg width="40" height="56" viewBox="0 0 40 56" fill="none" xmlns="http://www.w3.org/2000/svg"><path d="M15.133 0.104 C 13.667 0.420,12.410 1.689,12.100 3.167 C 12.046 3.423,12.002 3.716,12.001 3.817 L 12.000 4.000 7.817 4.001 C 4.396 4.002,3.548 4.020,3.167 4.100 C 1.673 4.414,0.414 5.673,0.100 7.167 C -0.048 7.872,-0.048 52.128,0.100 52.833 C 0.414 54.327,1.673 55.586,3.167 55.900 C 3.869 56.047,36.128 56.047,36.833 55.900 C 38.310 55.591,39.591 54.310,39.900 52.833 C 40.047 52.129,40.047 7.871,39.900 7.167 C 39.590 5.683,38.319 4.412,36.833 4.100 C 36.452 4.020,35.604 4.002,32.183 4.001 L 28.000 4.000 27.999 3.817 C 27.998 3.716,27.954 3.423,27.900 3.167 C 27.590 1.683,26.319 0.412,24.833 0.100 C 24.164 -0.040,15.787 -0.037,15.133 0.104 M32.000 30.000 L 32.000 48.000 20.000 48.000 L 8.000 48.000 8.000 30.000 L 8.000 12.000 20.000 12.000 L 32.000 12.000 32.000 30.000 M12.507 40.151 C 12.034 40.422,11.993 40.582,12.014 42.067 C 12.032 43.288,12.042 43.379,12.182 43.575 C 12.504 44.026,12.020 44.000,20.000 44.000 C 27.980 44.000,27.496 44.026,27.818 43.575 C 27.957 43.380,27.968 43.286,27.987 42.085 C 28.011 40.598,27.971 40.439,27.502 40.164 L 27.222 40.000 19.994 40.001 L 12.767 40.002 12.507 40.151 " fill="#2B2C30" stroke="none" fill-rule="evenodd"></path></svg>