<svg width="40" height="56" viewBox="0 0 40 56" fill="none" xmlns="http://www.w3.org/2000/svg"><path d="M15.133 0.104 C 13.667 0.420,12.410 1.689,12.100 3.167 C 12.046 3.423,12.002 3.716,12.001 3.817 L 12.000 4.000 7.817 4.001 C 4.396 4.002,3.548 4.020,3.167 4.100 C 1.673 4.414,0.414 5.673,0.100 7.167 C -0.048 7.872,-0.048 52.128,0.100 52.833 C 0.414 54.327,1.673 55.586,3.167 55.900 C 3.869 56.047,36.128 56.047,36.833 55.900 C 38.310 55.591,39.591 54.310,39.900 52.833 C 40.047 52.129,40.047 7.871,39.900 7.167 C 39.590 5.683,38.319 4.412,36.833 4.100 C 36.452 4.020,35.604 4.002,32.183 4.001 L 28.000 4.000 27.999 3.817 C 27.998 3.716,27.954 3.423,27.900 3.167 C 27.590 1.683,26.319 0.412,24.833 0.100 C 24.164 -0.040,15.787 -0.037,15.133 0.104 M32.000 30.000 L 32.000 48.000 20.000 48.000 L 8.000 48.000 8.000 30.000 L 8.000 12.000 20.000 12.000 L 32.000 12.000 32.000 30.000 M12.507 22.151 C 12.034 22.422,11.993 22.582,12.014 24.067 C 12.032 25.288,12.042 25.379,12.182 25.575 C 12.504 26.026,12.020 26.000,20.000 26.000 C 27.980 26.000,27.496 26.026,27.818 25.575 C 27.957 25.380,27.968 25.286,27.987 24.085 C 28.011 22.598,27.971 22.439,27.502 22.164 L 27.222 22.000 19.994 22.001 L 12.767 22.002 12.507 22.151 M12.553 28.139 C 12.073 28.376,12.000 28.622,12.000 30.000 C 12.000 31.033,12.015 31.189,12.137 31.442 C 12.237 31.648,12.352 31.763,12.558 31.863 C 12.839 31.999,12.909 32.000,20.000 32.000 C 27.091 32.000,27.161 31.999,27.442 31.863 C 27.648 31.763,27.763 31.648,27.863 31.442 C 27.985 31.189,28.000 31.033,28.000 30.000 C 28.000 28.967,27.985 28.811,27.863 28.558 C 27.763 28.352,27.648 28.237,27.442 28.137 C 27.161 28.001,27.091 28.000,19.996 28.000 C 12.877 28.000,12.832 28.001,12.553 28.139 M12.553 34.139 C 12.073 34.376,12.000 34.622,12.000 36.000 C 12.000 37.033,12.015 37.189,12.137 37.442 C 12.237 37.648,12.352 37.763,12.558 37.863 C 12.839 37.999,12.909 38.000,20.000 38.000 C 27.091 38.000,27.161 37.999,27.442 37.863 C 27.648 37.763,27.763 37.648,27.863 37.442 C 27.985 37.189,28.000 37.033,28.000 36.000 C 28.000 34.967,27.985 34.811,27.863 34.558 C 27.763 34.352,27.648 34.237,27.442 34.137 C 27.161 34.001,27.091 34.000,19.996 34.000 C 12.877 34.000,12.832 34.001,12.553 34.139 M12.553 40.139 C 12.073 40.376,12.000 40.622,12.000 42.000 C 12.000 43.033,12.015 43.189,12.137 43.442 C 12.237 43.648,12.352 43.763,12.558 43.863 C 12.839 43.999,12.909 44.000,20.000 44.000 C 27.091 44.000,27.161 43.999,27.442 43.863 C 27.648 43.763,27.763 43.648,27.863 43.442 C 27.985 43.189,28.000 43.033,28.000 42.000 C 28.000 40.967,27.985 40.811,27.863 40.558 C 27.763 40.352,27.648 40.237,27.442 40.137 C 27.161 40.001,27.091 40.000,19.996 40.000 C 12.877 40.000,12.832 40.001,12.553 40.139 " fill="#2B2C30" stroke="none" fill-rule="evenodd"></path></svg>