<svg width="56" height="20" viewBox="0 0 56 20" fill="none" xmlns="http://www.w3.org/2000/svg"><path d="M0.607 0.088 C 0.504 0.130,0.336 0.258,0.233 0.372 C 0.049 0.577,0.047 0.711,0.047 9.994 L 0.047 19.409 0.305 19.668 L 0.564 19.927 28.000 19.927 L 55.436 19.927 55.695 19.668 L 55.953 19.409 55.953 9.987 L 55.953 0.564 55.695 0.305 L 55.436 0.047 28.115 0.029 C 13.088 0.019,0.709 0.046,0.607 0.088 M11.674 8.299 L 11.947 8.572 11.947 9.967 C 11.947 11.231,11.929 11.384,11.756 11.604 C 11.503 11.926,11.050 12.039,10.033 12.037 C 8.968 12.035,8.501 11.927,8.237 11.620 C 8.039 11.391,8.027 11.294,8.027 9.974 L 8.027 8.572 8.299 8.299 L 8.572 8.027 9.987 8.027 L 11.401 8.027 11.674 8.299 M47.703 8.317 L 47.973 8.606 47.973 9.987 L 47.973 11.367 47.711 11.648 C 47.504 11.869,47.341 11.942,46.941 11.989 C 46.662 12.023,42.443 12.037,37.567 12.022 C 27.933 11.991,28.475 12.022,28.151 11.473 C 28.032 11.273,28.000 10.953,28.000 9.987 C 28.000 8.671,28.092 8.334,28.506 8.133 C 28.632 8.072,31.969 8.037,38.066 8.033 L 47.432 8.027 47.703 8.317 " fill="#2B2C30" stroke="none" fill-rule="evenodd"></path></svg>