<svg width="56" height="56" viewBox="0 0 56 56" fill="none" xmlns="http://www.w3.org/2000/svg"><path d="M26.133 0.059 C 17.913 0.672,10.583 4.646,5.629 11.176 C 2.262 15.613,0.267 21.179,0.033 26.789 C -0.023 28.138,-0.014 28.269,0.171 28.687 C 0.580 29.610,2.029 30.797,3.879 31.721 C 8.180 33.870,14.568 35.279,22.633 35.856 C 24.681 36.002,31.319 36.002,33.367 35.856 C 41.432 35.279,47.820 33.870,52.121 31.721 C 53.953 30.805,55.354 29.662,55.810 28.711 C 56.020 28.274,56.026 28.199,55.967 26.798 C 55.657 19.362,52.299 12.206,46.810 7.283 C 42.401 3.329,37.361 1.008,31.500 0.232 C 30.407 0.087,27.159 -0.017,26.133 0.059 M43.687 12.313 L 43.960 12.586 43.960 18.191 L 43.960 23.796 43.733 23.944 C 43.567 24.053,43.460 24.068,43.336 23.999 C 43.243 23.948,42.411 23.147,41.488 22.219 C 40.564 21.292,39.767 20.533,39.716 20.533 C 39.664 20.533,37.563 22.591,35.046 25.107 C 30.552 29.596,30.462 29.680,30.101 29.680 C 29.747 29.680,29.662 29.610,28.026 27.974 C 26.464 26.412,26.320 26.240,26.320 25.941 C 26.320 25.762,26.389 25.511,26.473 25.384 C 26.556 25.257,28.625 23.148,31.069 20.697 L 35.512 16.241 33.763 14.489 C 31.980 12.705,31.812 12.465,32.125 12.152 C 32.210 12.067,33.604 12.040,37.826 12.040 L 43.414 12.040 43.687 12.313 M0.840 34.751 C 0.840 34.802,0.990 35.351,1.173 35.972 C 4.068 45.778,12.284 53.337,22.285 55.395 C 24.399 55.830,25.564 55.942,28.000 55.942 C 30.436 55.942,31.601 55.830,33.715 55.395 C 42.865 53.512,50.601 46.991,54.038 38.262 C 54.427 37.274,55.160 34.966,55.160 34.729 C 55.160 34.690,54.635 34.926,53.994 35.253 C 49.193 37.698,42.151 39.272,33.367 39.863 C 32.443 39.925,30.028 39.976,28.000 39.976 C 24.222 39.976,22.324 39.889,19.133 39.567 C 12.075 38.855,6.144 37.361,2.006 35.253 C 1.365 34.926,0.840 34.700,0.840 34.751 " fill="#2B2C30" stroke="none" fill-rule="evenodd"></path></svg>