<svg width="48" height="56" viewBox="0 0 48 56" fill="none" xmlns="http://www.w3.org/2000/svg"><path d="M22.865 0.081 C 21.685 0.268,20.443 0.759,19.463 1.425 C 17.910 2.479,16.788 4.074,16.260 5.978 C 16.068 6.673,16.044 6.897,16.044 8.000 C 16.044 9.107,16.067 9.325,16.264 10.034 C 17.091 13.020,19.399 15.200,22.401 15.829 L 23.160 15.989 12.515 15.994 C 0.452 16.001,1.318 15.954,0.636 16.636 C -0.204 17.477,-0.205 18.762,0.634 19.602 C 0.912 19.880,1.135 20.020,1.448 20.112 C 1.686 20.182,4.670 20.583,8.080 21.003 C 11.697 21.447,14.427 21.819,14.632 21.894 C 15.068 22.053,15.556 22.484,15.786 22.915 L 15.960 23.240 16.000 39.280 C 16.033 52.324,16.060 55.354,16.145 55.504 C 16.203 55.606,16.365 55.759,16.505 55.844 C 16.729 55.981,16.913 55.999,18.040 55.999 C 19.480 55.999,19.730 55.924,19.962 55.421 C 20.044 55.242,20.357 52.398,20.957 46.388 C 21.573 40.202,21.869 37.525,21.960 37.308 C 22.119 36.924,22.579 36.441,23.000 36.214 C 23.458 35.967,24.542 35.967,25.000 36.214 C 25.421 36.441,25.881 36.924,26.041 37.308 C 26.131 37.525,26.429 40.218,27.050 46.428 C 27.535 51.275,27.974 55.329,28.026 55.437 C 28.078 55.545,28.242 55.716,28.392 55.817 C 28.647 55.989,28.742 56.000,29.952 56.000 C 31.086 55.999,31.270 55.981,31.495 55.844 C 31.635 55.759,31.797 55.606,31.855 55.504 C 31.940 55.354,31.967 52.324,32.000 39.280 L 32.040 23.240 32.214 22.915 C 32.444 22.484,32.932 22.053,33.368 21.894 C 33.573 21.819,36.303 21.447,39.920 21.003 C 43.330 20.583,46.314 20.182,46.552 20.112 C 46.865 20.020,47.088 19.880,47.366 19.602 C 48.205 18.762,48.204 17.477,47.364 16.636 C 46.682 15.954,47.548 16.001,35.485 15.994 L 24.840 15.989 25.599 15.829 C 28.598 15.200,30.941 12.985,31.738 10.024 C 31.924 9.336,31.949 9.089,31.949 8.000 C 31.949 6.917,31.923 6.663,31.742 5.990 C 31.234 4.108,30.092 2.481,28.537 1.425 C 27.834 0.947,26.686 0.428,25.917 0.240 C 25.143 0.051,23.567 -0.031,22.865 0.081 " fill="#2B2C30" stroke="none" fill-rule="evenodd"></path></svg>