<svg width="36" height="59" viewBox="0 0 36 59" fill="none" xmlns="http://www.w3.org/2000/svg"><path d="M4.318 0.138 C 4.139 0.233,4.013 0.359,3.918 0.538 L 3.780 0.799 3.780 14.613 L 3.780 28.428 3.376 28.498 C 1.854 28.763,0.629 29.841,0.170 31.320 C 0.058 31.681,0.030 31.906,0.030 32.460 C 0.030 33.645,0.378 34.472,1.231 35.319 C 1.829 35.914,2.475 36.259,3.274 36.409 L 3.780 36.505 3.780 47.343 L 3.780 58.181 3.918 58.442 C 4.013 58.621,4.139 58.747,4.318 58.842 C 4.633 59.009,4.870 59.015,5.190 58.865 C 5.356 58.787,7.666 56.514,12.660 51.516 L 19.890 44.280 27.180 51.565 C 35.065 59.445,34.644 59.056,35.185 58.955 C 35.448 58.905,35.808 58.603,35.919 58.338 C 35.987 58.176,36.000 53.417,36.000 29.471 L 36.000 0.799 35.862 0.538 C 35.767 0.359,35.641 0.233,35.462 0.138 L 35.201 0.000 19.890 -0.000 L 4.579 -0.000 4.318 0.138 " fill="white" stroke="none" fill-rule="evenodd"></path></svg>