<svg width="57" height="56" viewBox="0 0 57 56" fill="none" xmlns="http://www.w3.org/2000/svg"><path d="M16.471 0.181 C 16.308 0.281,16.126 0.501,16.067 0.670 C 15.989 0.896,15.960 6.614,15.960 22.010 C 15.960 45.283,15.912 43.571,16.571 43.846 C 17.060 44.050,22.935 44.050,23.424 43.846 C 24.083 43.571,24.035 45.285,24.035 21.993 C 24.035 4.016,24.015 0.897,23.900 0.621 C 23.647 0.014,23.556 -0.000,19.978 0.000 C 16.990 0.001,16.747 0.013,16.471 0.181 M28.632 8.073 C 28.522 8.118,28.340 8.270,28.228 8.412 L 28.025 8.671 28.025 25.994 L 28.025 43.317 28.302 43.627 L 28.579 43.938 31.746 43.968 C 35.268 44.001,35.520 43.971,35.819 43.481 C 36.001 43.183,36.004 42.858,36.005 26.002 C 36.005 7.125,36.047 8.439,35.438 8.124 C 35.205 8.003,34.646 7.981,31.996 7.986 C 30.256 7.989,28.742 8.029,28.632 8.073 M4.675 16.067 C 4.484 16.122,4.291 16.275,4.177 16.462 C 3.994 16.761,3.991 17.029,3.991 29.973 C 3.991 42.894,3.995 43.184,4.176 43.481 C 4.475 43.971,4.727 44.001,8.249 43.968 L 11.416 43.938 11.693 43.627 L 11.970 43.317 11.970 29.992 C 11.970 17.827,11.957 16.648,11.815 16.446 C 11.496 15.990,11.249 15.959,8.007 15.969 C 6.346 15.973,4.847 16.018,4.675 16.067 M43.843 20.025 C 43.475 20.100,38.168 23.220,38.017 23.450 C 37.935 23.576,37.867 23.816,37.867 23.983 C 37.867 24.211,39.240 26.665,43.404 33.875 C 46.450 39.148,49.040 43.564,49.161 43.688 C 49.313 43.844,49.495 43.917,49.749 43.924 C 50.060 43.932,50.538 43.692,52.822 42.381 C 54.310 41.528,55.624 40.725,55.741 40.597 C 56.008 40.307,56.020 39.829,55.774 39.350 C 55.398 38.621,44.826 20.372,44.712 20.258 C 44.558 20.102,44.085 19.975,43.843 20.025 M0.358 48.252 L 0.048 48.529 0.048 51.955 L 0.048 55.381 0.311 55.644 L 0.574 55.907 27.813 55.934 C 42.795 55.948,55.152 55.936,55.274 55.906 C 55.396 55.876,55.599 55.741,55.726 55.605 L 55.955 55.357 55.955 51.992 C 55.955 49.866,55.919 48.560,55.857 48.445 C 55.589 47.944,57.412 47.975,27.936 47.975 L 0.668 47.975 0.358 48.252 " fill="#2B2C30" stroke="none" fill-rule="evenodd"></path></svg>