<svg width="40" height="60" viewBox="0 0 40 60" fill="none" xmlns="http://www.w3.org/2000/svg"><path d="M18.667 0.042 C 12.795 0.480,7.559 3.319,4.021 7.983 C 1.997 10.650,0.736 13.701,0.183 17.266 C -0.009 18.500,-0.024 21.363,0.155 22.567 C 0.676 26.066,2.023 28.779,4.824 31.967 C 5.114 32.297,6.130 33.335,7.082 34.274 L 8.814 35.982 8.530 36.141 C 8.032 36.420,7.992 36.567,8.014 38.067 C 8.032 39.288,8.042 39.379,8.182 39.575 C 8.264 39.690,8.442 39.836,8.578 39.901 C 8.811 40.012,9.469 40.018,20.000 40.018 C 30.531 40.018,31.189 40.012,31.422 39.901 C 31.558 39.836,31.736 39.690,31.818 39.575 C 31.958 39.379,31.968 39.288,31.986 38.067 C 32.008 36.569,31.968 36.420,31.472 36.142 L 31.191 35.985 33.017 34.176 C 35.997 31.224,37.292 29.570,38.402 27.300 C 39.127 25.815,39.589 24.302,39.845 22.567 C 40.024 21.361,40.008 18.497,39.817 17.266 C 39.266 13.711,37.998 10.644,35.983 7.988 C 32.676 3.629,27.950 0.887,22.500 0.165 C 21.720 0.062,19.400 -0.012,18.667 0.042 M14.021 16.140 C 14.101 16.181,14.759 16.803,15.483 17.523 L 16.800 18.832 18.117 17.523 C 18.841 16.803,19.499 16.181,19.579 16.140 C 19.659 16.100,19.849 16.067,20.000 16.067 C 20.151 16.067,20.341 16.100,20.421 16.140 C 20.501 16.181,21.159 16.803,21.883 17.523 L 23.200 18.832 24.517 17.523 C 25.241 16.803,25.899 16.181,25.979 16.140 C 26.166 16.046,26.634 16.045,26.821 16.140 C 27.028 16.245,31.722 20.930,31.838 21.147 C 31.960 21.377,31.960 21.822,31.838 22.053 C 31.695 22.322,30.129 23.849,29.912 23.930 C 29.644 24.030,29.359 24.017,29.113 23.892 C 28.996 23.833,28.337 23.226,27.650 22.544 L 26.400 21.305 25.117 22.581 C 24.411 23.283,23.749 23.890,23.646 23.929 C 23.405 24.020,22.995 24.020,22.754 23.929 C 22.651 23.890,21.989 23.283,21.283 22.581 L 20.000 21.304 18.717 22.581 C 18.011 23.283,17.349 23.890,17.246 23.929 C 17.142 23.968,16.942 24.000,16.800 24.000 C 16.658 24.000,16.458 23.968,16.354 23.929 C 16.251 23.890,15.589 23.283,14.883 22.581 L 13.600 21.305 12.350 22.544 C 11.663 23.226,11.004 23.833,10.887 23.892 C 10.641 24.017,10.356 24.030,10.088 23.930 C 9.871 23.849,8.305 22.322,8.162 22.053 C 8.040 21.822,8.040 21.377,8.162 21.147 C 8.270 20.944,12.959 16.256,13.167 16.143 C 13.341 16.048,13.836 16.047,14.021 16.140 M8.553 44.139 C 8.073 44.376,8.000 44.622,8.000 46.000 C 8.000 47.033,8.015 47.189,8.137 47.442 C 8.237 47.648,8.352 47.763,8.558 47.863 C 8.820 47.989,8.963 48.000,10.421 48.000 L 12.000 48.000 12.000 51.579 C 12.000 55.056,12.004 55.166,12.137 55.442 C 12.237 55.648,12.352 55.763,12.558 55.863 C 12.820 55.989,12.963 56.000,14.421 56.000 L 16.000 56.000 16.000 57.579 C 16.000 59.037,16.011 59.180,16.137 59.442 C 16.237 59.648,16.352 59.763,16.558 59.863 C 16.833 59.995,16.948 60.000,20.000 60.000 C 23.052 60.000,23.167 59.995,23.442 59.863 C 23.648 59.763,23.763 59.648,23.863 59.442 C 23.989 59.180,24.000 59.037,24.000 57.579 L 24.000 56.000 25.579 56.000 C 27.037 56.000,27.180 55.989,27.442 55.863 C 27.648 55.763,27.763 55.648,27.863 55.442 C 27.996 55.166,28.000 55.056,28.000 51.579 L 28.000 48.000 29.579 48.000 C 31.037 48.000,31.180 47.989,31.442 47.863 C 31.648 47.763,31.763 47.648,31.863 47.442 C 31.985 47.189,32.000 47.033,32.000 46.000 C 32.000 44.967,31.985 44.811,31.863 44.558 C 31.763 44.352,31.648 44.237,31.442 44.137 C 31.159 44.000,31.130 44.000,19.996 44.000 L 8.833 44.000 8.553 44.139 " fill="#2B2C30" stroke="none" fill-rule="evenodd"></path></svg>