<svg width="48" height="52" viewBox="0 0 48 52" fill="none" xmlns="http://www.w3.org/2000/svg"><path d="M13.203 0.128 C 11.781 0.510,10.960 1.743,10.960 3.495 L 10.960 4.000 7.335 4.000 C 5.076 4.000,3.530 4.033,3.235 4.087 C 1.723 4.363,0.406 5.659,0.088 7.184 C -0.037 7.785,-0.037 48.215,0.088 48.816 C 0.401 50.315,1.685 51.599,3.184 51.912 C 3.785 52.037,44.215 52.037,44.816 51.912 C 46.315 51.599,47.599 50.315,47.912 48.816 C 48.037 48.215,48.037 7.785,47.912 7.184 C 47.594 5.659,46.277 4.363,44.765 4.087 C 44.470 4.033,42.924 4.000,40.665 4.000 L 37.040 4.000 37.040 3.495 C 37.040 1.615,36.109 0.364,34.488 0.062 C 34.124 -0.005,33.876 -0.005,33.512 0.062 C 31.891 0.364,30.960 1.615,30.960 3.495 L 30.960 4.000 24.000 4.000 L 17.040 4.000 17.040 3.495 C 17.040 1.723,16.215 0.502,14.762 0.124 C 14.182 -0.027,13.777 -0.026,13.203 0.128 M40.000 14.000 L 40.000 16.000 24.000 16.000 L 8.000 16.000 8.000 14.000 L 8.000 12.000 24.000 12.000 L 40.000 12.000 40.000 14.000 M15.496 24.157 C 16.001 24.465,16.000 24.457,16.000 28.016 C 15.999 31.073,15.991 31.253,15.843 31.496 C 15.536 32.001,15.542 32.000,12.000 32.000 C 8.458 32.000,8.464 32.001,8.157 31.496 C 8.009 31.253,8.001 31.073,8.000 28.016 C 8.000 24.457,7.999 24.465,8.504 24.157 C 8.747 24.009,8.927 24.001,12.000 24.001 C 15.073 24.001,15.253 24.009,15.496 24.157 M27.496 24.157 C 28.001 24.465,28.000 24.457,28.000 28.016 C 27.999 31.073,27.991 31.253,27.843 31.496 C 27.536 32.001,27.542 32.000,24.000 32.000 C 20.458 32.000,20.464 32.001,20.157 31.496 C 20.009 31.253,20.001 31.073,20.000 28.016 C 20.000 24.457,19.999 24.465,20.504 24.157 C 20.747 24.009,20.927 24.001,24.000 24.001 C 27.073 24.001,27.253 24.009,27.496 24.157 M39.496 24.157 C 40.001 24.465,40.000 24.457,40.000 28.016 C 39.999 31.073,39.991 31.253,39.843 31.496 C 39.536 32.001,39.542 32.000,36.000 32.000 C 32.458 32.000,32.464 32.001,32.157 31.496 C 32.009 31.253,32.001 31.073,32.000 28.016 C 32.000 24.457,31.999 24.465,32.504 24.157 C 32.747 24.009,32.927 24.001,36.000 24.001 C 39.073 24.001,39.253 24.009,39.496 24.157 M15.496 36.157 C 16.001 36.465,16.000 36.457,16.000 40.016 C 15.999 43.073,15.991 43.253,15.843 43.496 C 15.536 44.001,15.542 44.000,12.000 44.000 C 8.458 44.000,8.464 44.001,8.157 43.496 C 8.009 43.253,8.001 43.073,8.000 40.016 C 8.000 36.457,7.999 36.465,8.504 36.157 C 8.747 36.009,8.927 36.001,12.000 36.001 C 15.073 36.001,15.253 36.009,15.496 36.157 M27.496 36.157 C 28.001 36.465,28.000 36.457,28.000 40.016 C 27.999 43.073,27.991 43.253,27.843 43.496 C 27.536 44.001,27.542 44.000,24.000 44.000 C 20.458 44.000,20.464 44.001,20.157 43.496 C 20.009 43.253,20.001 43.073,20.000 40.016 C 20.000 36.457,19.999 36.465,20.504 36.157 C 20.747 36.009,20.927 36.001,24.000 36.001 C 27.073 36.001,27.253 36.009,27.496 36.157 " fill="#2B2C30" stroke="none" fill-rule="evenodd"></path></svg>