<svg width="57" height="53" viewBox="0 0 57 53" fill="none" xmlns="http://www.w3.org/2000/svg"><path d="M16.957 0.091 C 16.853 0.134,16.661 0.284,16.530 0.425 C 16.301 0.671,16.293 0.724,16.293 1.987 C 16.293 3.424,16.372 3.713,16.831 3.951 C 17.050 4.064,18.850 4.085,28.500 4.085 C 41.151 4.085,40.343 4.126,40.620 3.464 C 40.816 2.996,40.806 1.038,40.605 0.615 C 40.295 -0.039,41.055 -0.001,28.486 0.006 C 22.250 0.009,17.062 0.047,16.957 0.091 M48.393 0.275 C 48.189 0.427,46.313 2.265,44.223 4.360 L 40.423 8.170 22.037 8.170 C 1.932 8.170,3.126 8.138,2.071 8.712 C 1.537 9.003,0.905 9.646,0.537 10.275 C -0.025 11.234,-0.005 10.513,0.022 28.810 C 0.050 47.511,-0.009 45.953,0.714 47.027 C 0.896 47.298,1.045 47.543,1.045 47.572 C 1.045 47.601,0.810 47.872,0.522 48.173 C 0.077 48.640,0.000 48.774,0.000 49.081 C 0.000 49.422,0.095 49.537,1.737 51.178 C 3.450 52.891,3.479 52.915,3.881 52.915 L 4.289 52.915 8.011 49.258 C 11.591 45.741,22.123 35.205,43.062 14.196 L 52.915 4.310 52.915 3.892 C 52.915 3.476,52.905 3.463,51.178 1.737 C 49.575 0.133,49.416 0.000,49.103 0.000 C 48.877 0.000,48.640 0.092,48.393 0.275 M48.222 17.660 L 40.348 25.535 40.451 25.949 C 40.508 26.176,40.607 26.840,40.670 27.424 C 40.808 28.708,40.686 30.200,40.328 31.576 C 38.719 37.769,32.503 41.714,26.241 40.515 L 25.508 40.375 21.280 44.603 L 17.053 48.830 35.306 48.830 C 53.237 48.830,53.571 48.827,54.170 48.642 C 55.547 48.216,56.587 47.062,56.893 45.619 C 56.970 45.257,57.000 40.432,57.000 28.468 C 57.000 13.817,56.983 11.753,56.854 11.261 C 56.714 10.721,56.269 9.785,56.153 9.785 C 56.122 9.785,52.553 13.329,48.222 17.660 M30.305 16.445 C 30.697 16.500,31.203 16.591,31.430 16.646 L 31.843 16.747 30.006 18.586 C 28.362 20.232,28.136 20.425,27.856 20.425 C 27.364 20.425,26.135 20.704,25.510 20.958 C 23.578 21.743,21.950 23.311,21.085 25.218 C 20.758 25.939,20.427 27.232,20.426 27.788 C 20.425 28.156,20.362 28.232,18.583 30.010 L 16.741 31.850 16.585 31.165 C 16.358 30.165,16.264 28.648,16.356 27.463 C 16.814 21.573,21.655 16.770,27.550 16.355 C 28.601 16.282,29.314 16.305,30.305 16.445 M32.917 32.965 C 30.462 35.421,29.369 36.575,29.498 36.574 C 29.960 36.573,31.345 36.160,32.051 35.813 C 34.043 34.836,35.500 33.178,36.183 31.113 C 36.438 30.340,36.651 29.355,36.562 29.355 C 36.542 29.355,34.902 30.980,32.917 32.965 " fill="#2B2C30" stroke="none" fill-rule="evenodd"></path></svg>