<svg width="56" height="48" viewBox="0 0 56 48" fill="none" xmlns="http://www.w3.org/2000/svg"><path d="M16.462 0.178 C 16.302 0.276,16.124 0.492,16.066 0.658 C 15.901 1.132,15.929 3.034,16.107 3.409 C 16.412 4.051,15.668 4.013,28.000 4.013 C 40.332 4.013,39.588 4.051,39.893 3.409 C 40.090 2.994,40.100 1.070,39.907 0.610 C 39.636 -0.041,40.431 -0.000,27.981 0.000 C 17.111 0.001,16.744 0.006,16.462 0.178 M2.971 8.174 C 1.920 8.497,0.692 9.654,0.256 10.729 L 0.047 11.247 0.047 28.005 L 0.047 44.763 0.405 45.488 C 0.874 46.436,1.537 47.100,2.486 47.569 L 3.210 47.927 28.000 47.927 L 52.790 47.927 53.514 47.569 C 54.463 47.100,55.126 46.436,55.595 45.488 L 55.953 44.763 55.953 28.005 L 55.953 11.247 55.744 10.729 C 55.458 10.024,54.765 9.193,54.062 8.713 C 52.964 7.963,55.397 8.026,27.960 8.033 C 6.890 8.039,3.345 8.059,2.971 8.174 M29.280 16.060 C 31.085 16.262,32.845 16.872,34.414 17.841 C 35.513 18.519,37.314 20.291,38.030 21.397 C 40.811 25.694,40.630 31.134,37.572 35.197 C 35.755 37.611,33.009 39.292,30.060 39.796 C 28.930 39.990,27.070 39.990,25.940 39.796 C 20.248 38.823,16.038 33.834,16.023 28.047 C 16.017 25.557,16.629 23.470,17.972 21.394 C 18.686 20.291,20.489 18.518,21.586 17.841 C 23.949 16.381,26.620 15.764,29.280 16.060 M26.956 20.068 C 25.035 20.372,23.531 21.133,22.260 22.444 C 19.183 25.618,19.295 30.675,22.511 33.754 C 25.146 36.276,29.258 36.674,32.309 34.703 C 35.384 32.715,36.713 28.918,35.552 25.438 C 34.503 22.293,31.703 20.195,28.327 20.026 C 27.865 20.003,27.248 20.022,26.956 20.068 " fill="#2B2C30" stroke="none" fill-rule="evenodd"></path></svg>