<svg width="20" height="40" viewBox="0 0 20 40" fill="none" xmlns="http://www.w3.org/2000/svg"><path d="M0.745 0.034 C 0.447 0.127,0.138 0.442,0.050 0.744 C 0.005 0.898,0.001 3.060,0.008 20.067 L 0.017 39.217 0.110 39.407 C 0.360 39.916,0.979 40.140,1.460 39.894 C 1.698 39.772,19.760 20.737,19.892 20.470 C 19.970 20.311,19.983 20.242,19.983 20.000 C 19.983 19.758,19.970 19.689,19.892 19.530 C 19.817 19.377,18.153 17.608,10.716 9.772 C 0.751 -0.728,1.505 0.034,1.067 0.013 C 0.947 0.007,0.803 0.017,0.745 0.034 " fill="#2B2C30" stroke="none" fill-rule="evenodd"></path></svg>