<svg width="20" height="40" viewBox="0 0 20 40" fill="none" xmlns="http://www.w3.org/2000/svg"><path d="M18.733 0.029 C 18.688 0.044,18.586 0.089,18.508 0.129 C 18.405 0.182,15.940 2.759,9.283 9.772 C 1.842 17.614,0.184 19.377,0.108 19.530 C 0.030 19.689,0.017 19.758,0.017 20.000 C 0.017 20.242,0.030 20.311,0.108 20.470 C 0.183 20.623,1.846 22.390,9.292 30.235 C 16.479 37.808,18.416 39.831,18.540 39.894 C 19.021 40.140,19.640 39.916,19.890 39.407 L 19.983 39.217 19.983 20.000 L 19.983 0.783 19.891 0.595 C 19.788 0.385,19.610 0.207,19.393 0.096 C 19.239 0.018,18.880 -0.019,18.733 0.029 " fill="#2B2C30" stroke="none" fill-rule="evenodd"></path></svg>