<svg width="56" height="48" viewBox="0 0 56 48" fill="none" xmlns="http://www.w3.org/2000/svg"><path d="M48.476 0.176 C 48.315 0.275,48.137 0.492,48.079 0.658 C 48.001 0.880,47.973 7.108,47.973 24.004 C 47.973 49.268,47.933 47.523,48.528 47.831 C 48.780 47.961,49.238 47.977,52.127 47.953 L 55.436 47.927 55.695 47.668 L 55.953 47.409 55.953 23.987 L 55.953 0.564 55.695 0.305 L 55.436 0.047 52.101 0.022 C 48.950 -0.002,48.751 0.007,48.476 0.176 M36.299 12.313 L 36.027 12.586 36.027 29.951 L 36.027 47.317 36.299 47.622 L 36.571 47.927 39.848 47.953 C 43.424 47.983,43.623 47.958,43.854 47.451 C 43.932 47.279,43.960 42.652,43.960 29.902 L 43.960 12.586 43.687 12.313 L 43.414 12.040 39.993 12.040 L 36.572 12.040 36.299 12.313 M24.525 24.133 C 23.956 24.441,23.987 23.764,23.987 35.980 C 23.987 48.239,23.953 47.526,24.544 47.832 C 24.773 47.950,25.338 47.973,28.000 47.973 C 30.662 47.973,31.227 47.950,31.456 47.832 C 32.047 47.526,32.013 48.239,32.013 35.980 C 32.013 23.721,32.047 24.434,31.456 24.128 C 31.055 23.920,24.908 23.925,24.525 24.133 M12.330 32.284 L 12.040 32.555 12.040 39.886 C 12.040 45.090,12.070 47.284,12.144 47.447 C 12.202 47.573,12.380 47.745,12.541 47.830 C 12.800 47.967,13.205 47.982,16.131 47.956 L 19.429 47.927 19.701 47.622 L 19.973 47.317 19.973 40.043 C 19.973 34.602,19.945 32.707,19.862 32.524 C 19.636 32.029,19.516 32.013,15.928 32.013 L 12.620 32.013 12.330 32.284 M0.344 36.252 C 0.210 36.376,0.077 36.576,0.047 36.695 C 0.018 36.815,0.005 39.275,0.020 42.161 L 0.047 47.409 0.305 47.668 L 0.564 47.927 3.899 47.952 C 7.074 47.975,7.248 47.968,7.531 47.793 C 7.730 47.670,7.861 47.492,7.927 47.255 C 7.991 47.026,8.026 45.130,8.026 41.927 C 8.027 36.586,8.020 36.509,7.549 36.179 C 7.358 36.045,6.926 36.027,3.960 36.027 L 0.587 36.027 0.344 36.252 " fill="#2B2C30" stroke="none" fill-rule="evenodd"></path></svg>