<svg width="44" height="36" viewBox="0 0 44 36" fill="none" xmlns="http://www.w3.org/2000/svg"><path d="M36.504 0.162 C 35.962 0.475,36.007 -1.115,36.007 17.991 C 36.007 29.162,36.032 35.257,36.079 35.381 C 36.119 35.486,36.239 35.654,36.347 35.753 L 36.541 35.933 40.000 35.933 L 43.458 35.933 43.711 35.673 L 43.963 35.412 43.963 18.005 L 43.963 0.598 43.780 0.402 C 43.398 -0.007,43.461 -0.000,39.989 0.002 C 36.833 0.003,36.772 0.006,36.504 0.162 M24.603 12.097 C 24.378 12.190,24.131 12.490,24.052 12.766 C 23.951 13.117,23.955 34.924,24.056 35.287 C 24.097 35.436,24.232 35.642,24.354 35.745 L 24.578 35.933 27.985 35.933 C 31.026 35.933,31.412 35.920,31.576 35.812 C 31.998 35.536,31.973 36.256,31.973 24.017 C 31.973 11.575,32.008 12.473,31.511 12.170 C 31.288 12.034,31.125 12.027,28.013 12.032 C 26.218 12.034,24.684 12.063,24.603 12.097 M12.489 20.164 C 11.999 20.462,12.027 19.991,12.027 28.013 C 12.027 35.899,12.008 35.540,12.424 35.812 C 12.588 35.920,12.975 35.933,16.028 35.933 L 19.448 35.933 19.690 35.691 C 19.884 35.497,19.942 35.369,19.980 35.049 C 20.006 34.830,20.018 31.514,20.005 27.680 C 19.985 21.107,19.976 20.699,19.851 20.508 C 19.778 20.397,19.613 20.242,19.484 20.163 C 19.261 20.027,19.092 20.021,15.987 20.021 C 12.879 20.021,12.712 20.027,12.489 20.164 M0.749 24.050 C 0.616 24.083,0.438 24.171,0.354 24.246 C -0.003 24.564,0.000 24.517,0.000 30.031 C 0.000 35.664,-0.016 35.444,0.412 35.780 C 0.603 35.930,0.670 35.933,3.997 35.933 C 7.324 35.933,7.391 35.930,7.582 35.780 C 8.009 35.444,7.993 35.669,7.993 29.979 C 7.993 24.925,7.988 24.742,7.850 24.516 C 7.537 24.002,7.651 24.018,4.147 24.004 C 2.411 23.997,0.881 24.018,0.749 24.050 " fill="#2B2C30" stroke="none" fill-rule="evenodd"></path></svg>