<svg width="32" height="24" viewBox="0 0 32 24" fill="none" xmlns="http://www.w3.org/2000/svg"><path d="M24.613 0.101 C 24.342 0.227,24.119 0.463,24.052 0.697 C 23.981 0.947,23.981 23.051,24.053 23.309 C 24.119 23.545,24.454 23.878,24.696 23.947 C 24.807 23.979,26.110 24.000,28.000 24.000 C 29.890 24.000,31.193 23.979,31.304 23.947 C 31.546 23.878,31.881 23.545,31.947 23.309 C 32.019 23.050,32.019 0.950,31.947 0.691 C 31.918 0.587,31.816 0.426,31.721 0.334 C 31.366 -0.010,31.471 -0.000,27.988 0.001 C 25.025 0.002,24.813 0.009,24.613 0.101 M12.613 8.101 C 12.355 8.220,12.193 8.389,12.083 8.652 C 12.009 8.827,12.000 9.667,12.000 16.000 C 12.000 22.333,12.009 23.173,12.083 23.348 C 12.193 23.611,12.355 23.780,12.613 23.899 C 12.813 23.991,13.027 23.998,16.000 23.998 C 18.973 23.998,19.187 23.991,19.387 23.899 C 19.645 23.780,19.807 23.611,19.917 23.348 C 19.991 23.173,20.000 22.333,20.000 16.000 C 20.000 9.667,19.991 8.827,19.917 8.652 C 19.807 8.389,19.645 8.220,19.387 8.101 C 19.187 8.009,18.973 8.002,16.000 8.002 C 13.027 8.002,12.813 8.009,12.613 8.101 M0.613 12.101 C 0.355 12.220,0.193 12.389,0.083 12.652 C 0.010 12.826,0.000 13.472,0.001 18.012 C 0.002 22.916,0.007 23.184,0.101 23.387 C 0.220 23.645,0.389 23.807,0.652 23.917 C 0.950 24.042,7.050 24.042,7.348 23.917 C 7.611 23.807,7.780 23.645,7.899 23.387 C 7.993 23.184,7.998 22.916,7.999 18.012 C 8.000 13.472,7.990 12.826,7.917 12.652 C 7.807 12.389,7.645 12.220,7.387 12.101 C 7.187 12.009,6.973 12.002,4.000 12.002 C 1.027 12.002,0.813 12.009,0.613 12.101 " fill="#2B2C30" stroke="none" fill-rule="evenodd"></path></svg>