<svg width="8" height="12" viewBox="0 0 8 12" fill="none" xmlns="http://www.w3.org/2000/svg"><path d="M0.834 0.014 C 0.496 0.071,0.185 0.325,0.067 0.642 C -0.004 0.832,0.000 0.496,0.000 5.997 C -0.000 11.591,-0.006 11.178,0.078 11.384 C 0.174 11.619,0.381 11.826,0.616 11.922 C 0.820 12.005,0.609 12.000,4.000 12.000 C 7.391 12.000,7.180 12.005,7.383 11.922 C 7.617 11.827,7.827 11.617,7.922 11.383 C 8.006 11.178,8.000 11.590,8.000 6.000 C 8.000 0.409,8.006 0.822,7.922 0.616 C 7.833 0.398,7.655 0.211,7.432 0.104 C 7.211 -0.003,7.551 0.007,4.040 0.005 C 2.313 0.004,0.870 0.008,0.834 0.014 " fill="#2B2C30" stroke="none" fill-rule="evenodd"></path></svg>