<svg width="20" height="16" viewBox="0 0 20 16" fill="none" xmlns="http://www.w3.org/2000/svg"><path d="M12.678 0.061 C 12.368 0.169,12.164 0.376,12.051 0.696 C 12.006 0.825,12.000 1.642,12.000 8.003 L 12.000 15.164 12.071 15.355 C 12.166 15.609,12.391 15.834,12.645 15.929 C 12.835 16.000,12.847 16.000,16.000 16.000 C 19.153 16.000,19.165 16.000,19.355 15.929 C 19.479 15.882,19.601 15.802,19.702 15.702 C 19.802 15.601,19.882 15.479,19.929 15.355 L 20.000 15.164 20.000 8.000 C 20.000 0.908,19.999 0.834,19.933 0.657 C 19.842 0.414,19.670 0.223,19.441 0.110 L 19.250 0.017 16.050 0.009 C 13.046 0.002,12.839 0.005,12.678 0.061 M0.683 4.060 C 0.353 4.174,0.104 4.450,0.033 4.778 C 0.007 4.901,-0.001 6.425,0.006 10.100 L 0.017 15.250 0.088 15.405 C 0.128 15.490,0.223 15.623,0.300 15.700 C 0.377 15.777,0.510 15.872,0.595 15.912 L 0.750 15.983 4.000 15.983 L 7.250 15.983 7.405 15.912 C 7.603 15.820,7.820 15.603,7.912 15.405 L 7.983 15.250 7.983 10.000 L 7.983 4.750 7.912 4.595 C 7.820 4.397,7.603 4.180,7.405 4.088 C 7.250 4.017,7.246 4.017,4.050 4.009 C 1.082 4.002,0.838 4.006,0.683 4.060 " fill="#2B2C30" stroke="none" fill-rule="evenodd"></path></svg>