<svg width="56" height="36" viewBox="0 0 56 36" fill="none" xmlns="http://www.w3.org/2000/svg"><path d="M48.476 0.176 C 48.315 0.275,48.137 0.492,48.079 0.658 C 48.002 0.879,47.973 5.577,47.973 18.030 C 47.973 36.348,47.954 35.580,48.426 35.832 C 48.551 35.899,49.770 35.933,52.058 35.933 L 55.501 35.933 55.727 35.692 L 55.953 35.452 55.953 18.008 L 55.953 0.564 55.695 0.305 L 55.436 0.047 52.101 0.022 C 48.950 -0.002,48.751 0.007,48.476 0.176 M12.382 12.231 C 12.249 12.336,12.097 12.577,12.044 12.768 C 11.939 13.145,11.903 34.492,12.006 35.116 C 12.038 35.308,12.162 35.571,12.281 35.699 L 12.498 35.933 15.994 35.933 L 19.490 35.933 19.732 35.646 L 19.973 35.359 19.973 23.970 L 19.973 12.582 19.683 12.311 L 19.394 12.040 16.009 12.040 C 12.741 12.040,12.617 12.047,12.382 12.231 M36.317 12.311 L 36.027 12.582 36.027 23.970 L 36.027 35.359 36.268 35.646 L 36.510 35.933 40.006 35.933 L 43.502 35.933 43.719 35.699 C 43.838 35.571,43.962 35.308,43.994 35.116 C 44.097 34.492,44.061 13.145,43.956 12.768 C 43.903 12.577,43.751 12.336,43.618 12.231 C 43.383 12.047,43.259 12.040,39.991 12.040 L 36.606 12.040 36.317 12.311 M0.407 20.203 C -0.004 20.491,-0.005 20.500,0.022 28.156 L 0.047 35.452 0.273 35.693 L 0.499 35.933 3.987 35.933 L 7.475 35.933 7.698 35.710 C 7.821 35.588,7.946 35.346,7.978 35.174 C 8.009 35.001,8.022 31.654,8.007 27.736 L 7.980 20.611 7.675 20.339 L 7.370 20.067 3.986 20.067 C 1.170 20.067,0.569 20.090,0.407 20.203 M24.333 20.290 C 24.201 20.413,24.067 20.654,24.036 20.827 C 24.004 20.999,23.991 24.360,24.006 28.296 L 24.033 35.452 24.261 35.694 L 24.488 35.936 28.037 35.911 L 31.586 35.887 31.800 35.570 L 32.013 35.252 32.013 28.086 C 32.013 23.845,31.978 20.825,31.926 20.688 C 31.878 20.562,31.744 20.370,31.628 20.262 C 31.423 20.071,31.341 20.067,27.996 20.067 L 24.574 20.067 24.333 20.290 " fill="#2B2C30" stroke="none" fill-rule="evenodd"></path></svg>