<svg width="48" height="38" viewBox="0 0 48 38" fill="none" xmlns="http://www.w3.org/2000/svg"><path d="M42.360 0.092 C 42.272 0.139,36.305 6.069,29.100 13.269 L 16.000 26.360 10.980 21.351 C 8.219 18.596,5.871 16.283,5.762 16.211 C 5.445 16.001,4.954 16.043,4.592 16.311 C 4.420 16.437,3.338 17.490,2.187 18.651 C -0.070 20.926,-0.129 21.007,0.072 21.615 C 0.184 21.955,15.277 37.066,15.639 37.201 C 16.251 37.429,15.200 38.430,32.180 21.455 C 48.850 4.791,48.107 5.566,47.963 4.981 C 47.903 4.737,43.557 0.312,43.184 0.114 C 42.929 -0.020,42.584 -0.030,42.360 0.092 " fill="#2B2C30" stroke="none" fill-rule="evenodd"></path></svg>