<svg width="48" height="48" viewBox="0 0 48 48" fill="none" xmlns="http://www.w3.org/2000/svg"><path d="M3.161 0.094 C 1.719 0.369,0.399 1.697,0.088 3.184 C -0.037 3.785,-0.037 44.215,0.088 44.816 C 0.401 46.315,1.685 47.599,3.184 47.912 C 3.785 48.037,44.215 48.037,44.816 47.912 C 46.315 47.599,47.599 46.315,47.912 44.816 C 48.037 44.215,48.037 3.785,47.912 3.184 C 47.594 1.659,46.277 0.363,44.765 0.087 C 44.149 -0.026,3.752 -0.019,3.161 0.094 M37.250 11.524 C 37.511 11.623,39.005 13.066,39.167 13.376 C 39.312 13.653,39.311 14.029,39.165 14.304 C 39.102 14.423,34.377 19.189,28.665 24.895 C 21.536 32.018,18.211 35.288,18.059 35.324 C 17.493 35.461,17.548 35.508,13.060 31.020 C 9.943 27.903,8.780 26.690,8.726 26.501 C 8.589 26.023,8.735 25.776,9.747 24.777 L 10.695 23.840 11.085 23.840 L 11.475 23.840 14.618 26.979 L 17.761 30.118 27.020 20.863 C 32.113 15.772,36.370 11.572,36.480 11.529 C 36.747 11.424,36.983 11.422,37.250 11.524 " fill="#2B2C30" stroke="none" fill-rule="evenodd"></path></svg>