<svg width="56" height="56" viewBox="0 0 56 56" fill="none" xmlns="http://www.w3.org/2000/svg"><path d="M26.133 0.059 C 17.913 0.672,10.583 4.646,5.629 11.176 C 2.796 14.909,1.034 19.171,0.255 24.172 C -0.030 26.001,-0.030 29.999,0.255 31.828 C 1.452 39.508,5.165 45.810,11.183 50.377 C 14.901 53.197,19.185 54.968,24.172 55.745 C 26.001 56.030,29.999 56.030,31.828 55.745 C 38.632 54.685,44.416 51.617,48.757 46.767 C 52.604 42.467,54.828 37.714,55.745 31.828 C 56.030 29.999,56.030 26.001,55.745 24.172 C 54.968 19.185,53.197 14.901,50.377 11.183 C 45.747 5.081,39.129 1.242,31.500 0.232 C 30.407 0.087,27.159 -0.017,26.133 0.059 M42.075 15.907 C 42.372 16.064,43.707 17.410,43.856 17.704 C 43.913 17.816,43.960 18.068,43.960 18.263 C 43.960 18.610,43.732 18.846,34.281 28.299 C 28.957 33.624,24.482 38.030,24.336 38.090 C 23.727 38.342,23.749 38.362,17.710 32.316 L 12.040 26.640 12.040 26.182 C 12.040 25.724,12.043 25.720,13.002 24.762 C 13.961 23.802,13.964 23.800,14.423 23.800 L 14.882 23.800 19.435 28.349 L 23.988 32.899 32.457 24.440 C 37.115 19.788,41.011 15.936,41.113 15.880 C 41.375 15.739,41.778 15.750,42.075 15.907 " fill="#2B2C30" stroke="none" fill-rule="evenodd"></path></svg>