<svg width="32" height="42" viewBox="0 0 32 42" fill="none" xmlns="http://www.w3.org/2000/svg"><path d="M15.600 0.102 C 15.452 0.172,13.049 2.543,7.751 7.848 C -0.608 16.218,-0.059 15.624,0.024 16.195 C 0.062 16.451,0.086 16.477,2.364 18.764 C 3.631 20.035,4.727 21.105,4.800 21.143 C 5.029 21.261,5.266 21.279,5.529 21.200 C 5.763 21.130,6.193 20.713,10.891 16.015 L 16.000 10.907 21.133 16.036 C 25.776 20.675,26.289 21.171,26.498 21.226 C 26.773 21.298,26.990 21.261,27.280 21.092 C 27.606 20.902,31.817 16.655,31.917 16.415 C 32.027 16.152,32.020 15.861,31.898 15.600 C 31.755 15.295,16.638 0.196,16.362 0.082 C 16.100 -0.026,15.861 -0.020,15.600 0.102 M15.520 20.159 C 15.417 20.214,11.909 23.687,7.724 27.876 C 0.729 34.879,0.110 35.513,0.052 35.731 C -0.022 36.014,0.020 36.333,0.159 36.558 C 0.215 36.647,1.264 37.720,2.490 38.942 C 4.821 41.264,4.842 41.281,5.280 41.279 C 5.648 41.276,5.793 41.140,10.916 35.998 L 15.975 30.921 20.961 35.919 C 23.703 38.668,26.049 40.988,26.173 41.074 C 26.486 41.292,26.847 41.331,27.156 41.182 C 27.316 41.104,28.076 40.379,29.635 38.815 C 31.986 36.458,32.001 36.439,31.999 36.000 C 31.996 35.600,32.000 35.604,24.278 27.874 C 20.150 23.742,16.667 20.292,16.536 20.208 C 16.246 20.019,15.818 19.998,15.520 20.159 " fill="#2B2C30" stroke="none" fill-rule="evenodd"></path></svg>