<svg width="48" height="30" viewBox="0 0 48 30" fill="none" xmlns="http://www.w3.org/2000/svg"><path d="M4.760 0.152 C 4.314 0.432,0.094 4.747,0.037 4.981 C -0.107 5.564,-0.606 5.035,11.820 17.453 C 20.985 26.612,23.614 29.197,23.806 29.236 C 23.941 29.264,24.157 29.247,24.286 29.200 C 24.549 29.102,47.699 6.014,47.885 5.664 C 48.031 5.389,48.031 5.091,47.885 4.816 C 47.747 4.556,43.394 0.214,43.145 0.088 C 42.922 -0.024,42.598 -0.025,42.375 0.088 C 42.279 0.137,38.105 4.268,33.100 9.268 L 24.000 18.360 14.900 9.268 C 9.895 4.268,5.721 0.137,5.625 0.088 C 5.365 -0.043,5.030 -0.018,4.760 0.152 " fill="#2B2C30" stroke="none" fill-rule="evenodd"></path></svg>