<svg width="22" height="32" viewBox="0 0 22 32" fill="none" xmlns="http://www.w3.org/2000/svg"><path d="M15.730 0.032 C 15.679 0.049,15.580 0.090,15.510 0.124 C 15.434 0.161,12.242 3.332,7.764 7.821 C 0.747 14.853,0.140 15.470,0.073 15.649 C -0.015 15.884,-0.020 16.097,0.059 16.338 C 0.114 16.505,0.702 17.103,7.769 24.176 C 13.107 29.520,15.463 31.855,15.565 31.903 C 15.752 31.991,16.222 31.998,16.419 31.917 C 16.513 31.878,17.247 31.169,18.818 29.599 C 21.270 27.149,21.234 27.191,21.238 26.789 C 21.238 26.686,21.218 26.527,21.192 26.437 C 21.149 26.286,20.687 25.813,16.036 21.156 C 13.226 18.343,10.927 16.025,10.927 16.005 C 10.927 15.985,13.196 13.700,15.971 10.927 C 18.745 8.154,21.057 5.814,21.108 5.728 C 21.235 5.515,21.263 5.179,21.175 4.909 C 21.115 4.722,20.988 4.588,18.857 2.452 C 17.254 0.846,16.554 0.169,16.437 0.110 C 16.260 0.021,15.887 -0.020,15.730 0.032 " fill="#2B2C30" stroke="none" fill-rule="evenodd"></path></svg>