<svg width="42" height="32" viewBox="0 0 42 32" fill="none" xmlns="http://www.w3.org/2000/svg"><path d="M4.686 0.202 C 4.283 0.464,0.260 4.516,0.113 4.809 C -0.026 5.085,-0.030 5.325,0.098 5.620 C 0.155 5.750,2.330 7.975,5.243 10.885 C 8.019 13.657,10.290 15.956,10.290 15.995 C 10.290 16.034,8.019 18.333,5.243 21.105 C 2.330 24.015,0.155 26.240,0.098 26.370 C -0.041 26.690,-0.023 26.946,0.158 27.239 C 0.401 27.633,4.780 31.905,4.996 31.959 C 5.098 31.985,5.299 31.984,5.443 31.958 C 5.676 31.916,6.554 31.062,13.427 24.194 C 21.684 15.942,21.325 16.331,21.204 15.757 C 21.162 15.560,19.828 14.192,13.499 7.857 C 9.024 3.378,5.751 0.155,5.620 0.098 C 5.281 -0.049,5.031 -0.022,4.686 0.202 M24.706 0.202 C 24.281 0.478,20.187 4.606,20.094 4.852 C 19.991 5.125,20.002 5.432,20.120 5.656 C 20.176 5.760,22.491 8.113,25.265 10.885 C 28.040 13.657,30.310 15.956,30.310 15.995 C 30.310 16.034,28.040 18.333,25.265 21.105 C 22.491 23.877,20.172 26.237,20.113 26.349 C 19.953 26.650,20.025 27.093,20.285 27.419 C 20.403 27.565,21.438 28.618,22.587 29.759 C 24.810 31.966,24.926 32.055,25.467 31.957 C 25.695 31.916,26.621 31.016,33.377 24.268 C 37.586 20.064,41.074 16.540,41.130 16.436 C 41.258 16.194,41.258 15.796,41.129 15.554 C 40.972 15.258,25.821 0.156,25.598 0.073 C 25.276 -0.046,25.036 -0.012,24.706 0.202 " fill="#2B2C30" stroke="none" fill-rule="evenodd"></path></svg>