<svg width="22" height="32" viewBox="0 0 22 32" fill="none" xmlns="http://www.w3.org/2000/svg"><path d="M4.946 0.048 C 4.873 0.076,4.757 0.133,4.689 0.176 C 4.621 0.218,3.581 1.240,2.378 2.446 C 0.884 3.943,0.163 4.691,0.105 4.803 C -0.007 5.020,-0.015 5.445,0.089 5.665 C 0.136 5.766,1.742 7.397,5.249 10.908 L 10.339 16.005 5.249 21.102 C 1.741 24.613,0.136 26.244,0.089 26.345 C 0.040 26.447,0.019 26.575,0.019 26.767 C 0.018 27.000,0.034 27.070,0.122 27.228 C 0.264 27.485,4.569 31.785,4.799 31.900 C 4.937 31.969,5.008 31.978,5.294 31.968 C 5.600 31.956,5.642 31.945,5.793 31.839 C 5.884 31.775,9.368 28.310,13.535 24.139 C 20.797 16.870,21.115 16.547,21.175 16.359 C 21.252 16.120,21.237 15.775,21.140 15.565 C 21.042 15.352,5.960 0.263,5.709 0.126 C 5.492 0.008,5.147 -0.027,4.946 0.048 " fill="#2B2C30" stroke="none" fill-rule="evenodd"></path></svg>