<svg width="42" height="32" viewBox="0 0 42 32" fill="none" xmlns="http://www.w3.org/2000/svg"><path d="M15.575 0.101 C 15.460 0.153,11.926 3.641,7.722 7.851 C 0.834 14.748,0.074 15.532,0.030 15.774 C -0.077 16.369,-0.387 16.031,7.821 24.233 C 14.747 31.154,15.532 31.916,15.774 31.960 C 16.334 32.061,16.402 32.008,18.841 29.560 C 20.694 27.700,21.141 27.215,21.198 27.003 C 21.356 26.417,21.538 26.625,16.025 21.105 L 10.920 15.994 15.862 11.060 C 18.580 8.346,20.895 6.002,21.007 5.852 C 21.238 5.541,21.280 5.096,21.110 4.774 C 20.955 4.483,16.581 0.156,16.358 0.073 C 16.095 -0.024,15.830 -0.015,15.575 0.101 M35.630 0.077 C 35.420 0.159,20.265 15.282,20.121 15.554 C 19.993 15.793,19.992 16.111,20.118 16.400 C 20.175 16.532,23.378 19.782,27.870 24.266 C 36.056 32.437,35.651 32.065,36.248 31.957 C 36.469 31.917,36.829 31.586,38.827 29.587 C 40.847 27.568,41.156 27.231,41.198 27.003 C 41.318 26.345,41.589 26.655,36.028 21.087 L 30.907 15.959 35.895 11.018 C 38.645 8.293,40.960 5.943,41.056 5.779 C 41.243 5.461,41.274 5.167,41.156 4.852 C 41.063 4.606,36.969 0.478,36.544 0.202 C 36.222 -0.007,35.943 -0.045,35.630 0.077 " fill="#2B2C30" stroke="none" fill-rule="evenodd"></path></svg>