<svg width="48" height="50" viewBox="0 0 48 50" fill="none" xmlns="http://www.w3.org/2000/svg"><path d="M4.840 0.115 C 4.708 0.174,3.586 1.244,2.346 2.492 C 0.399 4.451,0.084 4.801,0.037 5.061 C 0.005 5.238,0.020 5.455,0.074 5.584 C 0.124 5.706,5.429 11.070,11.863 17.503 L 23.561 29.200 24.000 29.200 L 24.439 29.200 36.137 17.503 C 42.571 11.070,47.876 5.706,47.926 5.584 C 47.980 5.455,47.995 5.238,47.963 5.061 C 47.916 4.801,47.602 4.452,45.654 2.494 C 44.414 1.248,43.303 0.177,43.184 0.114 C 42.925 -0.022,42.614 -0.032,42.375 0.088 C 42.279 0.137,38.105 4.268,33.100 9.268 L 24.000 18.360 14.900 9.263 C 9.742 4.108,5.702 0.131,5.575 0.084 C 5.284 -0.024,5.134 -0.018,4.840 0.115 M4.840 20.115 C 4.481 20.277,0.103 24.712,0.037 24.981 C -0.107 25.564,-0.606 25.035,11.820 37.453 C 20.985 46.612,23.614 49.197,23.806 49.236 C 23.941 49.264,24.157 49.247,24.286 49.200 C 24.426 49.148,29.230 44.404,36.220 37.416 C 48.601 25.039,48.107 25.563,47.963 24.981 C 47.903 24.737,43.557 20.312,43.184 20.114 C 42.925 19.978,42.614 19.968,42.375 20.088 C 42.279 20.137,38.105 24.268,33.100 29.268 L 24.000 38.360 14.900 29.263 C 9.742 24.108,5.702 20.131,5.575 20.084 C 5.284 19.976,5.134 19.982,4.840 20.115 " fill="#2B2C30" stroke="none" fill-rule="evenodd"></path></svg>