<svg width="32" height="22" viewBox="0 0 32 22" fill="none" xmlns="http://www.w3.org/2000/svg"><path d="M15.600 0.102 C 15.295 0.245,0.196 15.362,0.082 15.638 C -0.023 15.891,-0.022 16.164,0.083 16.415 C 0.139 16.549,0.856 17.306,2.283 18.737 C 3.447 19.906,4.486 20.931,4.592 21.015 C 4.697 21.100,4.893 21.199,5.027 21.235 C 5.560 21.377,5.203 21.695,10.867 16.036 L 16.000 10.907 21.107 16.012 C 26.214 21.117,26.389 21.281,26.732 21.280 C 27.160 21.279,27.188 21.255,29.535 18.915 C 31.011 17.444,31.826 16.592,31.895 16.450 C 32.021 16.190,32.029 15.907,31.918 15.638 C 31.804 15.362,16.704 0.245,16.400 0.102 C 16.129 -0.025,15.871 -0.025,15.600 0.102 " fill="#2B2C30" stroke="none" fill-rule="evenodd"></path></svg>