<svg width="48" height="50" viewBox="0 0 48 50" fill="none" xmlns="http://www.w3.org/2000/svg"><path d="M23.558 0.123 C 23.425 0.189,18.091 5.471,11.706 11.861 C -0.625 24.201,-0.090 23.631,0.042 24.260 C 0.119 24.628,4.645 29.159,5.000 29.223 C 5.593 29.331,5.263 29.638,14.860 20.052 L 24.000 10.922 33.140 20.051 C 43.134 30.034,42.475 29.435,43.149 29.129 C 43.644 28.905,47.882 24.613,47.957 24.260 C 48.091 23.633,48.627 24.203,36.293 11.860 C 29.906 5.469,24.567 0.186,24.428 0.120 C 24.112 -0.030,23.867 -0.030,23.558 0.123 M23.558 20.123 C 23.425 20.189,18.091 25.471,11.706 31.861 C 2.316 41.258,0.085 43.530,0.041 43.740 C -0.079 44.319,-0.013 44.408,2.189 46.629 C 3.339 47.790,4.420 48.843,4.592 48.969 C 4.928 49.218,5.381 49.276,5.705 49.112 C 5.801 49.063,9.957 44.950,14.940 39.972 L 24.000 30.920 33.060 39.972 C 38.043 44.950,42.199 49.063,42.295 49.112 C 42.619 49.276,43.072 49.218,43.408 48.969 C 43.580 48.843,44.661 47.790,45.811 46.629 C 48.013 44.408,48.079 44.319,47.959 43.740 C 47.915 43.530,45.684 41.257,36.293 31.860 C 29.906 25.469,24.567 20.186,24.428 20.120 C 24.112 19.970,23.867 19.970,23.558 20.123 " fill="#2B2C30" stroke="none" fill-rule="evenodd"></path></svg>