<svg width="50" height="48" viewBox="0 0 50 48" fill="none" xmlns="http://www.w3.org/2000/svg"><path d="M4.875 0.078 C 4.783 0.119,3.658 1.206,2.375 2.494 L 0.042 4.834 0.042 5.250 L 0.042 5.666 9.208 14.833 L 18.375 24.000 9.237 33.146 C 4.211 38.176,0.073 42.379,0.042 42.486 C 0.010 42.594,0.010 42.819,0.041 42.986 C 0.089 43.244,0.424 43.621,2.195 45.406 C 3.348 46.568,4.438 47.628,4.617 47.760 C 4.850 47.932,5.038 48.000,5.283 48.000 L 5.624 48.000 17.354 36.271 C 25.709 27.916,29.110 24.464,29.174 24.271 C 29.223 24.121,29.240 23.895,29.212 23.768 C 29.176 23.603,25.774 20.149,17.429 11.804 C 6.310 0.685,5.679 0.070,5.369 0.037 C 5.189 0.018,4.967 0.036,4.875 0.078 M24.792 0.154 C 24.361 0.434,20.179 4.696,20.084 4.952 C 20.034 5.086,20.017 5.311,20.046 5.452 C 20.087 5.651,22.127 7.739,29.236 14.854 L 38.374 24.000 29.233 33.146 C 22.987 39.396,20.075 42.364,20.037 42.521 C 20.007 42.647,20.007 42.853,20.038 42.979 C 20.074 43.129,20.925 44.041,22.497 45.616 L 24.902 48.023 25.296 47.979 L 25.690 47.934 37.387 36.238 C 45.714 27.912,49.110 24.464,49.174 24.271 C 49.379 23.650,49.916 24.225,37.721 12.015 C 31.435 5.721,26.150 0.458,25.978 0.320 C 25.575 -0.004,25.131 -0.067,24.792 0.154 " fill="#2B2C30" stroke="none" fill-rule="evenodd"></path></svg>