<svg width="33" height="42" viewBox="0 0 33 42" fill="none" xmlns="http://www.w3.org/2000/svg"><path d="M4.981 0.082 C 4.813 0.142,4.246 0.676,2.486 2.431 C 0.975 3.938,0.174 4.777,0.106 4.923 C -0.027 5.206,-0.027 5.507,0.106 5.763 C 0.167 5.880,3.570 9.321,8.013 13.760 C 15.214 20.955,15.831 21.557,16.060 21.617 C 16.264 21.670,16.355 21.666,16.582 21.594 C 16.839 21.513,17.370 20.994,24.677 13.682 C 31.855 6.500,32.502 5.837,32.561 5.614 C 32.630 5.349,32.608 5.149,32.477 4.875 C 32.431 4.777,31.360 3.668,30.098 2.409 C 27.586 -0.095,27.636 -0.056,27.079 0.024 L 26.813 0.063 21.560 5.311 L 16.307 10.559 11.137 5.384 C 7.587 1.830,5.899 0.177,5.747 0.106 C 5.487 -0.017,5.276 -0.023,4.981 0.082 M4.781 20.567 C 4.647 20.657,3.567 21.702,2.382 22.891 C -0.098 25.376,-0.114 25.398,0.060 26.043 C 0.111 26.234,1.131 27.276,7.801 33.954 C 12.026 38.185,15.579 41.718,15.697 41.806 C 15.884 41.944,15.960 41.965,16.280 41.965 C 16.593 41.965,16.681 41.942,16.865 41.814 C 16.984 41.731,20.550 38.185,24.789 33.934 C 30.367 28.341,32.508 26.161,32.538 26.042 C 32.592 25.834,32.592 25.594,32.539 25.383 C 32.510 25.265,31.832 24.550,30.178 22.890 C 28.902 21.610,27.791 20.527,27.709 20.484 C 27.535 20.391,27.079 20.380,26.857 20.463 C 26.770 20.495,24.428 22.794,21.505 25.715 L 16.307 30.910 11.220 25.816 C 8.422 23.015,6.022 20.652,5.888 20.564 C 5.540 20.338,5.123 20.339,4.781 20.567 " fill="#2B2C30" stroke="none" fill-rule="evenodd"></path></svg>