<svg width="30" height="48" viewBox="0 0 30 48" fill="none" xmlns="http://www.w3.org/2000/svg"><path d="M4.850 0.104 C 4.681 0.180,4.083 0.746,2.436 2.390 C 0.150 4.672,-0.001 4.850,0.001 5.247 C 0.004 5.686,-0.249 5.422,9.264 14.937 L 18.324 24.000 9.220 33.112 C -0.429 42.770,-0.001 42.322,0.000 42.756 C 0.001 43.165,0.010 43.175,2.367 45.539 C 3.851 47.026,4.695 47.837,4.828 47.901 C 5.074 48.020,5.370 48.028,5.631 47.921 C 5.908 47.808,28.953 24.775,29.114 24.450 C 29.269 24.136,29.260 23.785,29.088 23.497 C 29.012 23.368,24.085 18.406,17.366 11.691 C 7.252 1.584,5.750 0.101,5.575 0.054 C 5.286 -0.023,5.105 -0.011,4.850 0.104 " fill="#2B2C30" stroke="none" fill-rule="evenodd"></path></svg>