<svg width="30" height="48" viewBox="0 0 30 48" fill="none" xmlns="http://www.w3.org/2000/svg"><path d="M23.600 0.103 C 23.271 0.251,0.305 23.210,0.124 23.572 C -0.026 23.872,-0.034 24.148,0.099 24.422 C 0.167 24.561,3.845 28.270,11.836 36.259 C 24.187 48.604,23.561 47.999,24.000 47.999 C 24.414 47.999,24.423 47.992,26.765 45.658 C 29.217 43.213,29.294 43.120,29.232 42.673 C 29.216 42.549,29.169 42.387,29.129 42.312 C 29.089 42.236,24.971 38.091,19.978 33.100 L 10.900 24.026 20.021 14.900 C 27.964 6.954,29.149 5.749,29.196 5.575 C 29.275 5.279,29.262 5.056,29.151 4.828 C 29.087 4.695,28.276 3.851,26.789 2.367 C 24.867 0.450,24.495 0.101,24.325 0.055 C 24.037 -0.023,23.855 -0.011,23.600 0.103 " fill="#2B2C30" stroke="none" fill-rule="evenodd"></path></svg>