<svg width="50" height="48" viewBox="0 0 50 48" fill="none" xmlns="http://www.w3.org/2000/svg"><path d="M23.542 0.159 C 23.404 0.245,18.051 5.561,11.646 11.971 C 0.059 23.568,0.000 23.628,0.001 23.959 C 0.001 24.142,0.066 24.389,0.146 24.508 C 0.226 24.627,5.537 29.952,11.949 36.341 L 23.606 47.958 24.011 47.958 L 24.416 47.958 26.791 45.584 C 29.256 43.120,29.357 42.990,29.208 42.486 C 29.176 42.379,25.038 38.176,20.013 33.146 L 10.876 24.000 20.013 14.854 C 25.039 9.824,29.177 5.621,29.208 5.514 C 29.240 5.406,29.240 5.181,29.209 5.014 C 29.161 4.755,28.815 4.370,26.936 2.482 C 25.717 1.257,24.599 0.197,24.452 0.127 C 24.096 -0.041,23.845 -0.033,23.542 0.159 M43.542 0.159 C 43.138 0.414,20.105 23.523,20.042 23.736 C 19.867 24.328,19.336 23.766,31.807 36.199 C 38.249 42.621,43.599 47.906,43.697 47.944 C 43.795 47.982,44.005 47.992,44.164 47.967 C 44.407 47.929,44.813 47.562,46.732 45.648 C 47.985 44.398,49.068 43.267,49.138 43.136 C 49.452 42.543,49.935 43.071,40.016 33.146 L 30.876 24.000 40.013 14.854 C 45.039 9.824,49.177 5.621,49.208 5.514 C 49.240 5.406,49.240 5.181,49.209 5.014 C 49.161 4.755,48.815 4.370,46.936 2.482 C 45.717 1.257,44.599 0.197,44.452 0.127 C 44.096 -0.041,43.845 -0.033,43.542 0.159 " fill="#2B2C30" stroke="none" fill-rule="evenodd"></path></svg>