<svg width="48" height="30" viewBox="0 0 48 30" fill="none" xmlns="http://www.w3.org/2000/svg"><path d="M23.558 0.123 C 23.425 0.189,18.091 5.471,11.706 11.861 C -0.625 24.201,-0.090 23.631,0.042 24.260 C 0.119 24.628,4.645 29.159,5.000 29.223 C 5.593 29.331,5.263 29.638,14.860 20.052 L 24.000 10.922 33.140 20.051 C 43.134 30.034,42.475 29.435,43.149 29.129 C 43.644 28.905,47.882 24.613,47.957 24.260 C 48.091 23.633,48.627 24.203,36.293 11.860 C 29.906 5.469,24.567 0.186,24.428 0.120 C 24.112 -0.030,23.867 -0.030,23.558 0.123 " fill="#2B2C30" stroke="none" fill-rule="evenodd"></path></svg>