<svg width="33" height="22" viewBox="0 0 33 22" fill="none" xmlns="http://www.w3.org/2000/svg"><path d="M5.060 0.064 C 4.772 0.146,0.202 4.711,0.075 5.045 C -0.040 5.346,0.007 5.728,0.192 5.993 C 0.266 6.100,3.824 9.682,8.097 13.954 C 13.611 19.465,15.927 21.745,16.072 21.805 C 16.327 21.911,16.669 21.914,16.901 21.813 C 17.005 21.768,20.336 18.474,25.008 13.797 L 32.938 5.857 32.976 5.591 C 33.056 5.032,33.099 5.086,30.562 2.538 C 29.014 0.983,28.169 0.174,28.023 0.105 C 27.754 -0.020,27.507 -0.027,27.237 0.084 C 27.093 0.144,25.482 1.718,21.766 5.433 L 16.500 10.697 11.234 5.433 C 7.518 1.718,5.907 0.144,5.763 0.084 C 5.534 -0.010,5.343 -0.016,5.060 0.064 " fill="#2B2C30" stroke="none" fill-rule="evenodd"></path></svg>