<svg width="48" height="48" viewBox="0 0 48 48" fill="none" xmlns="http://www.w3.org/2000/svg"><path d="M11.240 0.082 C 9.840 0.373,8.743 1.325,8.212 2.712 L 8.040 3.160 8.040 24.000 L 8.040 44.840 8.212 45.288 C 8.663 46.468,9.531 47.338,10.700 47.784 L 11.160 47.960 24.000 47.960 L 36.840 47.960 37.300 47.784 C 38.469 47.338,39.337 46.468,39.788 45.288 L 39.960 44.840 39.960 24.000 L 39.960 3.160 39.788 2.712 C 39.337 1.532,38.469 0.662,37.300 0.216 L 36.840 0.040 24.200 0.028 C 17.248 0.021,11.416 0.046,11.240 0.082 M0.504 8.157 C -0.001 8.465,-0.000 8.457,0.000 12.016 C 0.001 16.282,-0.169 16.000,2.396 16.000 L 4.000 16.000 4.000 12.000 L 4.000 8.000 2.380 8.000 C 0.914 8.001,0.736 8.015,0.504 8.157 M44.000 12.000 L 44.000 16.000 45.604 16.000 C 47.385 16.000,47.560 15.961,47.843 15.496 C 47.991 15.253,47.999 15.073,47.999 12.000 C 47.999 7.715,48.170 8.000,45.604 8.000 L 44.000 8.000 44.000 12.000 M28.000 24.000 L 28.000 36.000 24.000 36.000 L 20.000 36.000 20.000 24.000 L 20.000 12.000 24.000 12.000 L 28.000 12.000 28.000 24.000 M0.504 20.157 C -0.001 20.465,-0.000 20.457,0.000 24.016 C 0.001 28.282,-0.169 28.000,2.396 28.000 L 4.000 28.000 4.000 24.000 L 4.000 20.000 2.380 20.000 C 0.914 20.001,0.736 20.015,0.504 20.157 M44.000 24.000 L 44.000 28.000 45.604 28.000 C 47.385 28.000,47.560 27.961,47.843 27.496 C 47.991 27.253,47.999 27.073,47.999 24.000 C 47.999 19.715,48.170 20.000,45.604 20.000 L 44.000 20.000 44.000 24.000 M0.504 32.157 C -0.001 32.465,-0.000 32.457,0.000 36.016 C 0.001 40.282,-0.169 40.000,2.396 40.000 L 4.000 40.000 4.000 36.000 L 4.000 32.000 2.380 32.000 C 0.914 32.001,0.736 32.015,0.504 32.157 M44.000 36.000 L 44.000 40.000 45.604 40.000 C 47.385 40.000,47.560 39.961,47.843 39.496 C 47.991 39.253,47.999 39.073,47.999 36.000 C 47.999 31.715,48.170 32.000,45.604 32.000 L 44.000 32.000 44.000 36.000 " fill="#2B2C30" stroke="none" fill-rule="evenodd"></path></svg>