<svg width="56" height="56" viewBox="0 0 56 56" fill="none" xmlns="http://www.w3.org/2000/svg"><path d="M25.672 0.099 C 18.941 0.699,12.774 3.594,8.056 8.369 C 3.859 12.616,1.204 17.972,0.266 24.080 C -0.036 26.049,-0.036 29.951,0.266 31.920 C 1.216 38.111,3.904 43.478,8.213 47.787 C 12.516 52.090,17.897 54.785,24.080 55.734 C 25.233 55.911,25.814 55.942,28.000 55.942 C 30.186 55.942,30.767 55.911,31.920 55.734 C 39.434 54.581,45.843 50.793,50.364 44.834 C 53.198 41.098,54.967 36.824,55.745 31.828 C 56.030 29.999,56.030 26.001,55.745 24.172 C 54.968 19.185,53.197 14.901,50.377 11.183 C 45.747 5.081,39.129 1.242,31.500 0.232 C 30.140 0.052,27.005 -0.020,25.672 0.099 M30.520 6.167 C 39.389 7.095,47.029 13.731,49.284 22.466 C 49.746 24.252,49.949 25.943,49.949 28.000 C 49.949 32.149,48.960 35.784,46.880 39.278 C 46.268 40.307,44.976 42.039,44.154 42.933 L 43.596 43.540 35.798 35.747 L 28.000 27.954 28.000 16.974 L 28.000 5.994 28.817 6.034 C 29.266 6.056,30.032 6.116,30.520 6.167 " fill="#2B2C30" stroke="none" fill-rule="evenodd"></path></svg>