<svg width="56" height="56" viewBox="0 0 56 56" fill="none" xmlns="http://www.w3.org/2000/svg"><path d="M26.133 0.059 C 17.913 0.672,10.583 4.646,5.629 11.176 C 2.796 14.909,1.034 19.171,0.255 24.172 C -0.030 26.001,-0.030 29.999,0.255 31.828 C 1.452 39.508,5.165 45.810,11.183 50.377 C 14.901 53.197,19.185 54.968,24.172 55.745 C 26.001 56.030,29.999 56.030,31.828 55.745 C 38.632 54.685,44.416 51.617,48.757 46.767 C 52.604 42.467,54.828 37.714,55.745 31.828 C 56.030 29.999,56.030 26.001,55.745 24.172 C 54.968 19.185,53.197 14.901,50.377 11.183 C 45.747 5.081,39.129 1.242,31.500 0.232 C 30.407 0.087,27.159 -0.017,26.133 0.059 " fill="#2B2C30" stroke="none" fill-rule="evenodd"></path></svg>