<svg width="56" height="56" viewBox="0 0 56 56" fill="none" xmlns="http://www.w3.org/2000/svg"><path d="M26.133 0.059 C 17.913 0.672,10.583 4.646,5.629 11.176 C 2.802 14.901,1.033 19.181,0.255 24.172 C -0.030 26.001,-0.030 29.999,0.255 31.828 C 1.452 39.508,5.165 45.810,11.183 50.377 C 17.195 54.938,25.090 56.873,32.573 55.619 C 38.389 54.645,43.620 51.952,47.787 47.787 C 52.101 43.474,54.768 38.149,55.734 31.920 C 56.032 29.999,56.037 26.052,55.745 24.172 C 54.970 19.189,53.197 14.901,50.377 11.183 C 45.747 5.081,39.129 1.242,31.500 0.232 C 30.407 0.087,27.159 -0.017,26.133 0.059 M27.907 28.011 L 27.907 50.049 26.903 49.985 C 23.768 49.785,21.075 49.080,18.340 47.745 C 16.040 46.621,14.212 45.308,12.364 43.450 C 8.945 40.011,6.781 35.521,6.155 30.567 C 6.015 29.456,6.015 26.604,6.156 25.433 C 7.024 18.196,11.375 11.885,17.827 8.505 C 20.506 7.102,23.537 6.252,26.507 6.072 C 27.148 6.033,27.726 5.995,27.790 5.987 C 27.883 5.976,27.907 10.436,27.907 28.011 " fill="#2B2C30" stroke="none" fill-rule="evenodd"></path></svg>