<svg width="48" height="56" viewBox="0 0 48 56" fill="none" xmlns="http://www.w3.org/2000/svg"><path d="M16.504 0.157 C 15.999 0.465,16.000 0.457,16.000 4.016 C 16.001 7.073,16.009 7.253,16.157 7.496 C 16.481 8.028,16.044 8.000,24.000 8.000 C 31.956 8.000,31.519 8.028,31.843 7.496 C 31.991 7.253,31.999 7.073,31.999 4.000 C 31.999 0.927,31.991 0.747,31.843 0.504 C 31.519 -0.028,31.958 -0.000,23.984 0.000 C 16.960 0.001,16.753 0.005,16.504 0.157 M0.504 4.157 C -0.039 4.488,0.000 3.474,0.000 17.396 L 0.000 30.000 8.000 30.000 L 16.000 30.000 16.004 25.820 C 16.007 21.334,16.007 21.335,16.426 20.786 C 16.868 20.205,17.878 19.873,18.600 20.069 C 19.022 20.184,34.983 30.137,35.412 30.553 C 36.197 31.314,36.197 32.686,35.412 33.447 C 34.983 33.863,19.022 43.816,18.600 43.931 C 17.896 44.122,17.097 43.880,16.543 43.307 C 15.996 42.740,16.000 42.780,16.000 38.150 L 16.000 34.000 7.998 34.000 L -0.004 34.000 0.018 43.420 C 0.040 52.836,0.040 52.840,0.212 53.288 C 0.663 54.468,1.531 55.338,2.700 55.784 L 3.160 55.960 24.000 55.960 L 44.840 55.960 45.300 55.784 C 46.469 55.338,47.337 54.468,47.788 53.288 L 47.960 52.840 47.981 28.818 C 48.004 2.247,48.048 4.493,47.496 4.157 C 47.249 4.006,47.053 4.001,41.620 4.000 L 36.000 4.000 36.000 6.196 C 36.000 7.490,35.964 8.566,35.912 8.816 C 35.599 10.315,34.315 11.599,32.816 11.912 C 32.521 11.973,29.817 11.999,23.936 11.995 C 16.210 11.991,15.435 11.979,14.954 11.853 C 13.602 11.501,12.430 10.300,12.125 8.957 C 12.028 8.532,12.000 7.913,12.000 6.204 L 12.000 4.000 6.380 4.000 C 0.947 4.001,0.751 4.006,0.504 4.157 " fill="#2B2C30" stroke="none" fill-rule="evenodd"></path></svg>