<svg width="48" height="56" viewBox="0 0 48 56" fill="none" xmlns="http://www.w3.org/2000/svg"><path d="M16.504 0.157 C 15.999 0.465,16.000 0.457,16.000 4.016 C 16.001 7.073,16.009 7.253,16.157 7.496 C 16.481 8.028,16.044 8.000,24.000 8.000 C 31.956 8.000,31.519 8.028,31.843 7.496 C 31.991 7.253,31.999 7.073,31.999 4.000 C 31.999 0.927,31.991 0.747,31.843 0.504 C 31.519 -0.028,31.958 -0.000,23.984 0.000 C 16.960 0.001,16.753 0.005,16.504 0.157 M0.504 4.157 C -0.048 4.493,-0.004 2.247,0.019 28.818 L 0.040 52.840 0.212 53.288 C 0.663 54.468,1.531 55.338,2.700 55.784 L 3.160 55.960 24.000 55.960 L 44.840 55.960 45.300 55.784 C 46.469 55.338,47.337 54.468,47.788 53.288 L 47.960 52.840 47.981 28.818 C 48.004 2.247,48.048 4.493,47.496 4.157 C 47.249 4.006,47.053 4.001,41.620 4.000 L 36.000 4.000 36.000 6.196 C 36.000 7.490,35.964 8.566,35.912 8.816 C 35.599 10.315,34.315 11.599,32.816 11.912 C 32.521 11.973,29.817 11.999,23.936 11.995 C 16.210 11.991,15.435 11.979,14.954 11.853 C 13.602 11.501,12.430 10.300,12.125 8.957 C 12.028 8.532,12.000 7.913,12.000 6.204 L 12.000 4.000 6.380 4.000 C 0.947 4.001,0.751 4.006,0.504 4.157 M19.448 16.124 C 19.579 16.192,19.757 16.363,19.843 16.504 C 19.992 16.748,19.999 16.931,20.000 20.380 L 20.000 24.000 26.204 24.000 C 33.109 24.000,33.086 23.998,33.973 24.529 C 34.913 25.093,35.598 25.976,35.853 26.954 C 35.980 27.437,35.991 28.287,35.995 37.360 C 35.999 47.022,35.996 47.246,35.843 47.496 C 35.536 48.001,35.542 48.000,32.000 48.000 C 28.458 48.000,28.464 48.001,28.157 47.496 C 28.005 47.247,28.001 47.037,28.000 39.620 L 28.000 32.000 24.000 32.000 L 20.000 32.000 20.000 35.620 C 19.999 39.069,19.992 39.252,19.843 39.496 C 19.523 40.021,18.840 40.158,18.399 39.787 C 18.076 39.515,8.233 28.677,8.103 28.450 C 7.962 28.203,7.980 27.752,8.141 27.512 C 8.296 27.281,18.127 16.436,18.368 16.230 C 18.670 15.973,19.077 15.933,19.448 16.124 " fill="#2B2C30" stroke="none" fill-rule="evenodd"></path></svg>