<svg width="48" height="56" viewBox="0 0 48 56" fill="none" xmlns="http://www.w3.org/2000/svg"><path d="M16.504 0.157 C 15.999 0.465,16.000 0.457,16.000 4.016 C 16.001 7.073,16.009 7.253,16.157 7.496 C 16.481 8.028,16.044 8.000,24.000 8.000 C 31.956 8.000,31.519 8.028,31.843 7.496 C 31.991 7.253,31.999 7.073,31.999 4.000 C 31.999 0.927,31.991 0.747,31.843 0.504 C 31.519 -0.028,31.958 -0.000,23.984 0.000 C 16.960 0.001,16.753 0.005,16.504 0.157 M0.504 4.157 C -0.048 4.493,-0.004 2.247,0.019 28.818 L 0.040 52.840 0.212 53.288 C 0.663 54.468,1.531 55.338,2.700 55.784 L 3.160 55.960 24.000 55.960 L 44.840 55.960 45.300 55.784 C 46.469 55.338,47.337 54.468,47.788 53.288 L 47.960 52.840 47.981 28.818 C 48.004 2.247,48.048 4.493,47.496 4.157 C 47.249 4.006,47.053 4.001,41.620 4.000 L 36.000 4.000 36.000 6.196 C 36.000 7.490,35.964 8.566,35.912 8.816 C 35.599 10.315,34.315 11.599,32.816 11.912 C 32.521 11.973,29.817 11.999,23.936 11.995 C 16.210 11.991,15.435 11.979,14.954 11.853 C 13.602 11.501,12.430 10.300,12.125 8.957 C 12.028 8.532,12.000 7.913,12.000 6.204 L 12.000 4.000 6.380 4.000 C 0.947 4.001,0.751 4.006,0.504 4.157 M29.615 16.211 C 29.888 16.453,39.707 27.284,39.859 27.512 C 40.020 27.752,40.038 28.203,39.897 28.449 C 39.766 28.676,29.922 39.517,29.601 39.787 C 29.160 40.158,28.477 40.021,28.157 39.496 C 28.008 39.252,28.001 39.069,28.000 35.620 L 28.000 32.000 24.000 32.000 L 20.000 32.000 20.000 39.620 C 19.999 47.037,19.995 47.247,19.843 47.496 C 19.536 48.001,19.542 48.000,16.000 48.000 C 12.458 48.000,12.464 48.001,12.157 47.496 C 12.004 47.246,12.001 47.022,12.005 37.360 C 12.009 28.287,12.020 27.437,12.147 26.954 C 12.402 25.976,13.087 25.093,14.027 24.529 C 14.914 23.998,14.891 24.000,21.796 24.000 L 28.000 24.000 28.001 20.380 C 28.002 17.645,28.027 16.712,28.102 16.562 C 28.157 16.454,28.328 16.280,28.481 16.175 C 28.812 15.951,29.341 15.967,29.615 16.211 " fill="#2B2C30" stroke="none" fill-rule="evenodd"></path></svg>