<svg width="60" height="44" viewBox="0 0 60 44" fill="none" xmlns="http://www.w3.org/2000/svg"><path d="M24.285 0.107 C 23.291 0.230,21.856 0.597,20.850 0.986 C 17.808 2.162,14.952 4.787,13.455 7.784 C 13.018 8.659,12.472 10.265,12.263 11.289 C 12.181 11.695,12.076 12.059,12.031 12.097 C 11.987 12.136,11.635 12.223,11.250 12.290 C 9.634 12.571,7.702 13.385,6.076 14.470 C 5.120 15.109,3.531 16.643,2.752 17.681 C 1.586 19.235,0.681 21.289,0.232 23.400 C -0.022 24.593,-0.022 27.407,0.232 28.600 C 0.876 31.628,2.195 34.019,4.378 36.114 C 5.937 37.611,7.546 38.589,9.534 39.249 C 11.730 39.978,11.019 39.935,21.533 39.973 L 31.016 40.008 30.750 39.579 C 30.236 38.750,29.204 36.541,28.914 35.648 C 28.084 33.093,27.834 30.566,28.147 27.893 C 28.557 24.386,29.965 21.133,32.255 18.400 C 35.931 14.014,41.700 11.596,47.326 12.083 C 48.109 12.151,48.875 12.233,49.028 12.266 C 49.302 12.324,49.305 12.319,49.183 12.037 C 48.265 9.901,46.450 8.042,44.249 6.988 C 42.766 6.276,41.775 6.061,40.000 6.063 C 39.203 6.064,38.358 6.113,38.123 6.172 L 37.696 6.280 37.156 5.562 C 36.357 4.501,34.848 3.092,33.712 2.348 C 32.075 1.276,30.445 0.608,28.593 0.253 C 27.560 0.054,25.319 -0.022,24.285 0.107 M44.650 16.063 C 41.342 16.422,38.483 17.791,36.137 20.137 C 34.063 22.211,32.807 24.569,32.236 27.463 C 31.994 28.686,31.994 31.314,32.236 32.537 C 32.807 35.431,34.064 37.790,36.137 39.863 C 38.152 41.877,40.433 43.119,43.204 43.711 C 44.702 44.031,47.298 44.031,48.796 43.711 C 51.567 43.119,53.848 41.877,55.863 39.863 C 57.877 37.848,59.119 35.567,59.711 32.796 C 60.031 31.298,60.031 28.702,59.711 27.204 C 59.119 24.433,57.877 22.152,55.863 20.137 C 53.235 17.510,50.074 16.145,46.403 16.053 C 45.659 16.035,44.870 16.039,44.650 16.063 M55.325 24.475 C 56.380 25.501,56.571 25.842,56.361 26.325 C 56.279 26.513,53.738 29.127,50.312 32.548 C 44.446 38.403,44.401 38.445,43.999 38.445 C 43.599 38.445,43.544 38.396,39.897 34.745 C 36.476 31.321,36.200 31.019,36.200 30.702 C 36.200 30.402,36.325 30.236,37.230 29.330 C 38.751 27.810,38.447 27.707,41.521 30.773 L 44.001 33.246 48.828 28.423 C 54.561 22.694,53.905 23.093,55.325 24.475 " fill="#2B2C30" stroke="none" fill-rule="evenodd"></path></svg>