<svg width="56" height="52" viewBox="0 0 56 52" fill="none" xmlns="http://www.w3.org/2000/svg"><path d="M47.367 0.262 C 47.161 0.416,44.876 2.662,42.289 5.255 L 37.585 9.969 37.186 9.427 C 36.600 8.630,35.621 7.622,34.769 6.938 C 32.955 5.479,30.955 4.554,28.609 4.086 C 27.152 3.795,24.845 3.798,23.355 4.092 C 20.559 4.644,18.118 5.950,16.099 7.976 C 14.118 9.962,12.804 12.413,12.268 15.120 C 12.181 15.556,12.105 15.921,12.097 15.930 C 12.090 15.940,11.656 16.035,11.134 16.141 C 5.678 17.253,1.478 21.486,0.261 27.100 C -0.014 28.368,-0.035 31.062,0.220 32.337 C 0.644 34.457,1.562 36.543,2.795 38.184 C 3.565 39.210,4.884 40.530,5.687 41.078 L 6.150 41.393 3.268 44.287 C 1.385 46.177,0.364 47.269,0.323 47.437 C 0.288 47.578,0.289 47.809,0.324 47.950 C 0.401 48.262,3.360 51.272,3.746 51.432 C 4.395 51.701,3.018 53.029,28.210 27.836 L 51.800 4.246 51.800 3.831 C 51.800 3.419,51.792 3.409,50.139 1.749 C 48.648 0.252,48.440 0.076,48.109 0.032 C 47.802 -0.008,47.678 0.030,47.367 0.262 M35.000 29.727 L 20.954 43.773 33.040 43.773 C 46.351 43.773,45.981 43.787,47.772 43.193 C 51.885 41.829,54.873 38.425,55.779 34.067 C 56.009 32.963,56.010 30.671,55.782 29.587 C 55.454 28.032,54.870 26.571,54.089 25.350 C 53.206 23.969,51.764 22.534,50.436 21.714 L 49.884 21.374 49.945 20.604 C 50.029 19.567,49.887 18.101,49.611 17.156 C 49.405 16.446,49.123 15.680,49.069 15.680 C 49.056 15.680,42.726 22.001,35.000 29.727 " fill="#2B2C30" stroke="none" fill-rule="evenodd"></path></svg>