<svg width="60" height="44" viewBox="0 0 60 44" fill="none" xmlns="http://www.w3.org/2000/svg"><path d="M24.285 0.107 C 23.291 0.230,21.856 0.597,20.850 0.986 C 17.808 2.162,14.952 4.787,13.455 7.784 C 13.018 8.659,12.472 10.265,12.263 11.289 C 12.181 11.695,12.076 12.059,12.031 12.097 C 11.987 12.136,11.635 12.223,11.250 12.290 C 9.634 12.571,7.702 13.385,6.076 14.470 C 5.120 15.109,3.531 16.643,2.752 17.681 C 1.586 19.235,0.681 21.289,0.232 23.400 C -0.022 24.593,-0.022 27.407,0.232 28.600 C 0.876 31.628,2.195 34.019,4.378 36.114 C 5.937 37.611,7.546 38.589,9.534 39.249 C 11.701 39.968,11.199 39.934,20.025 39.973 L 28.000 40.009 28.000 34.579 C 28.000 28.568,28.069 27.511,28.590 25.489 C 29.256 22.906,30.507 20.486,32.255 18.400 C 35.931 14.014,41.700 11.596,47.326 12.083 C 48.109 12.151,48.875 12.233,49.028 12.266 C 49.302 12.324,49.305 12.319,49.183 12.037 C 48.265 9.901,46.450 8.042,44.249 6.988 C 42.766 6.276,41.775 6.061,40.000 6.063 C 39.203 6.064,38.358 6.113,38.123 6.172 L 37.696 6.280 37.156 5.562 C 36.357 4.501,34.848 3.092,33.712 2.348 C 32.075 1.276,30.445 0.608,28.593 0.253 C 27.560 0.054,25.319 -0.022,24.285 0.107 M44.061 16.099 C 39.004 16.738,34.779 19.885,32.793 24.492 C 32.430 25.334,32.026 26.687,31.858 27.625 L 31.791 28.000 33.828 28.000 L 35.866 28.000 35.980 27.503 C 36.642 24.635,39.047 21.887,41.903 20.733 C 45.376 19.330,49.614 20.050,52.228 22.487 L 52.706 22.933 50.903 24.753 C 49.139 26.533,49.100 26.581,49.100 26.994 C 49.100 27.326,49.162 27.477,49.392 27.708 L 49.685 28.000 54.350 28.000 L 59.015 28.000 59.308 27.708 L 59.600 27.415 59.600 22.751 C 59.600 19.743,59.563 18.019,59.497 17.894 C 59.440 17.789,59.255 17.630,59.085 17.542 C 58.512 17.246,58.260 17.387,56.858 18.792 L 55.570 20.083 54.889 19.498 C 52.964 17.841,50.665 16.726,48.200 16.254 C 47.181 16.059,45.017 15.978,44.061 16.099 M32.236 32.099 C 31.694 32.318,31.700 32.263,31.700 37.327 L 31.700 42.009 31.941 42.250 C 32.251 42.560,32.630 42.653,32.983 42.507 C 33.136 42.444,33.817 41.835,34.496 41.154 L 35.730 39.917 36.411 40.502 C 38.306 42.134,40.432 43.183,42.911 43.712 C 43.752 43.891,44.274 43.934,45.650 43.934 C 48.054 43.934,49.567 43.599,51.672 42.600 C 54.964 41.038,57.614 38.120,58.799 34.750 C 59.145 33.767,59.511 32.244,59.422 32.156 C 59.392 32.125,58.480 32.100,57.395 32.100 L 55.424 32.100 55.305 32.575 C 54.684 35.048,52.784 37.478,50.480 38.745 C 49.041 39.536,47.254 40.000,45.650 40.000 C 43.250 40.000,40.709 39.039,39.071 37.512 L 38.592 37.065 40.396 35.251 C 42.092 33.546,42.200 33.415,42.200 33.062 C 42.200 32.583,42.067 32.340,41.702 32.151 C 41.454 32.023,40.739 32.001,36.930 32.006 C 34.466 32.010,32.354 32.052,32.236 32.099 " fill="#2B2C30" stroke="none" fill-rule="evenodd"></path></svg>