<svg width="56" height="40" viewBox="0 0 56 40" fill="none" xmlns="http://www.w3.org/2000/svg"><path d="M24.733 0.055 C 22.187 0.359,20.149 1.092,18.200 2.404 C 15.104 4.488,12.973 7.687,12.264 11.315 L 12.105 12.130 11.769 12.188 C 8.763 12.706,6.148 14.073,3.997 16.251 C 2.131 18.141,0.855 20.537,0.261 23.269 C -0.035 24.628,-0.033 27.428,0.264 28.778 C 1.508 34.435,5.692 38.617,11.249 39.760 C 12.134 39.942,12.530 39.947,28.901 39.947 C 43.780 39.947,45.728 39.930,46.367 39.800 C 50.555 38.943,54.046 35.856,55.381 31.827 C 55.828 30.479,55.953 29.648,55.951 28.047 C 55.949 26.383,55.799 25.439,55.323 24.080 C 54.458 21.610,52.799 19.475,50.627 18.037 L 49.968 17.600 49.971 16.197 C 49.975 14.718,49.895 14.169,49.494 12.927 C 48.476 9.765,45.918 7.304,42.700 6.391 C 41.387 6.018,39.608 5.947,38.033 6.203 L 37.660 6.264 37.110 5.512 C 36.521 4.706,35.395 3.578,34.487 2.882 C 32.800 1.589,30.829 0.704,28.695 0.279 C 27.799 0.100,25.461 -0.032,24.733 0.055 M31.662 12.312 L 31.967 12.585 31.993 16.326 L 32.019 20.067 35.010 20.067 L 38.001 20.067 38.274 20.339 C 38.584 20.650,38.638 21.116,38.413 21.541 C 38.340 21.680,36.083 23.984,33.397 26.660 C 28.170 31.869,28.259 31.795,27.613 31.515 C 27.424 31.433,25.347 29.422,22.377 26.443 L 17.453 21.506 17.453 21.059 C 17.453 20.690,17.501 20.565,17.726 20.339 L 17.999 20.067 20.990 20.067 L 23.981 20.067 24.007 16.326 L 24.033 12.585 24.338 12.312 L 24.643 12.040 28.000 12.040 L 31.357 12.040 31.662 12.312 " fill="#2B2C30" stroke="none" fill-rule="evenodd"></path></svg>