<svg width="56" height="40" viewBox="0 0 56 40" fill="none" xmlns="http://www.w3.org/2000/svg"><path d="M24.733 0.055 C 22.187 0.359,20.149 1.092,18.200 2.404 C 15.104 4.488,12.973 7.687,12.264 11.315 L 12.105 12.130 11.769 12.188 C 8.763 12.706,6.148 14.073,3.997 16.251 C 2.131 18.141,0.855 20.537,0.261 23.269 C -0.035 24.628,-0.033 27.428,0.264 28.778 C 1.508 34.435,5.692 38.617,11.249 39.760 C 12.134 39.942,12.530 39.947,28.901 39.947 C 43.780 39.947,45.728 39.930,46.367 39.800 C 50.555 38.943,54.046 35.856,55.381 31.827 C 55.828 30.479,55.953 29.648,55.951 28.047 C 55.949 26.383,55.799 25.439,55.323 24.080 C 54.458 21.610,52.799 19.475,50.627 18.037 L 49.968 17.600 49.971 16.197 C 49.975 14.718,49.895 14.169,49.494 12.927 C 48.476 9.765,45.918 7.304,42.700 6.391 C 41.387 6.018,39.608 5.947,38.033 6.203 L 37.660 6.264 37.110 5.512 C 36.521 4.706,35.395 3.578,34.487 2.882 C 32.800 1.589,30.829 0.704,28.695 0.279 C 27.799 0.100,25.461 -0.032,24.733 0.055 M28.448 12.547 C 28.587 12.620,30.916 14.900,33.623 17.614 L 38.547 22.548 38.547 22.982 C 38.547 23.527,38.278 23.868,37.753 23.989 C 37.548 24.037,36.172 24.077,34.697 24.078 L 32.013 24.080 32.013 27.631 C 32.013 30.599,31.990 31.227,31.874 31.452 C 31.580 32.021,31.636 32.013,27.981 32.013 L 24.643 32.013 24.338 31.741 L 24.033 31.469 24.007 27.774 L 23.980 24.080 21.254 24.079 C 19.673 24.079,18.381 24.039,18.181 23.983 C 17.702 23.850,17.453 23.505,17.453 22.975 L 17.453 22.548 22.372 17.623 C 25.077 14.915,27.419 12.635,27.575 12.558 C 27.934 12.381,28.130 12.379,28.448 12.547 " fill="#2B2C30" stroke="none" fill-rule="evenodd"></path></svg>