<svg width="60" height="44" viewBox="0 0 60 44" fill="none" xmlns="http://www.w3.org/2000/svg"><path d="M24.285 0.107 C 22.545 0.322,20.649 0.952,19.150 1.811 C 17.860 2.551,16.961 3.258,15.879 4.385 C 14.043 6.298,12.948 8.345,12.345 10.991 C 12.214 11.564,12.072 12.063,12.029 12.100 C 11.985 12.137,11.639 12.222,11.260 12.289 C 9.648 12.573,7.665 13.404,6.104 14.450 C 5.120 15.110,3.537 16.635,2.752 17.681 C 1.586 19.235,0.681 21.289,0.232 23.400 C 0.097 24.035,0.051 24.692,0.051 26.000 C 0.051 27.959,0.172 28.726,0.757 30.486 C 2.364 35.316,6.609 38.937,11.685 39.806 C 12.752 39.988,13.364 40.000,21.916 40.000 L 31.011 40.000 30.748 39.575 C 30.208 38.704,29.204 36.547,28.904 35.613 C 26.816 29.109,28.498 22.092,33.295 17.295 C 37.031 13.559,42.250 11.628,47.375 12.085 C 48.131 12.153,48.876 12.234,49.029 12.266 L 49.309 12.325 49.055 11.753 C 47.883 9.101,45.169 6.932,42.150 6.236 C 41.251 6.028,38.872 5.991,38.130 6.173 L 37.710 6.277 37.163 5.563 C 36.461 4.649,34.942 3.172,34.072 2.557 C 32.577 1.501,30.463 0.611,28.600 0.254 C 27.561 0.054,25.322 -0.022,24.285 0.107 M44.850 16.070 C 41.659 16.361,38.582 17.767,36.264 19.992 C 34.257 21.918,32.744 24.784,32.233 27.628 C 32.013 28.854,32.013 31.146,32.233 32.372 C 33.217 37.846,37.233 42.191,42.560 43.545 C 46.678 44.592,51.025 43.712,54.461 41.136 C 55.385 40.444,56.921 38.835,57.530 37.924 C 59.072 35.612,59.841 33.285,59.966 30.550 C 60.200 25.432,57.490 20.522,52.975 17.886 C 50.671 16.540,47.490 15.829,44.850 16.070 M43.452 24.612 L 46.055 27.197 48.647 24.603 C 50.073 23.176,51.332 21.994,51.445 21.975 C 51.884 21.904,52.267 22.121,53.029 22.874 C 53.461 23.301,53.883 23.780,53.967 23.939 C 54.278 24.528,54.171 24.675,51.424 27.425 L 48.851 30.000 51.365 32.525 C 52.748 33.914,53.933 35.156,53.999 35.286 C 54.241 35.762,54.054 36.109,52.999 37.146 C 51.550 38.570,51.830 38.678,48.584 35.434 L 46.002 32.853 43.372 35.477 C 40.162 38.678,40.447 38.562,39.078 37.225 C 38.079 36.249,37.859 35.916,37.947 35.514 C 37.987 35.333,38.862 34.387,40.553 32.697 C 41.954 31.297,43.100 30.106,43.100 30.050 C 43.100 29.994,41.977 28.826,40.604 27.454 C 39.231 26.081,38.056 24.836,37.994 24.685 C 37.798 24.213,38.024 23.802,38.992 22.869 C 39.857 22.035,40.094 21.905,40.600 21.987 C 40.765 22.013,41.739 22.910,43.452 24.612 " fill="#2B2C30" stroke="none" fill-rule="evenodd"></path></svg>