<svg width="52" height="52" viewBox="0 0 52 52" fill="none" xmlns="http://www.w3.org/2000/svg"><path d="M19.153 0.095 C 17.613 0.396,16.195 1.939,16.057 3.463 L 16.009 3.987 32.011 3.987 L 48.013 3.987 48.013 19.933 L 48.013 35.880 48.255 35.880 C 48.606 35.880,49.435 35.650,49.854 35.436 C 50.353 35.182,51.175 34.378,51.475 33.849 C 52.030 32.876,52.000 33.790,52.000 17.924 C 52.000 2.169,52.026 3.020,51.507 2.065 C 51.241 1.577,50.477 0.822,49.920 0.497 C 49.024 -0.027,49.860 -0.001,34.020 0.009 C 26.058 0.015,19.368 0.053,19.153 0.095 M11.440 8.061 C 10.085 8.253,8.905 9.135,8.356 10.368 C 8.140 10.853,7.934 11.826,8.018 11.962 C 8.052 12.017,13.696 12.047,24.055 12.047 L 40.040 12.047 40.040 27.962 L 40.040 43.877 40.540 43.832 C 41.646 43.732,42.931 42.841,43.495 41.783 C 44.060 40.721,44.032 41.612,44.006 25.677 L 43.983 11.223 43.777 10.672 C 43.364 9.566,42.477 8.691,41.297 8.223 L 40.777 8.017 26.347 8.005 C 18.410 7.999,11.702 8.024,11.440 8.061 M2.734 16.216 C 1.642 16.593,0.888 17.277,0.358 18.373 L 0.043 19.023 0.021 33.664 C -0.004 49.497,-0.025 48.702,0.447 49.719 C 0.698 50.258,1.569 51.134,2.147 51.427 C 3.162 51.941,2.385 51.918,18.263 51.893 L 32.803 51.870 33.289 51.684 C 34.755 51.123,35.749 49.903,35.963 48.403 C 36.082 47.572,36.081 20.282,35.963 19.457 C 35.774 18.147,34.931 16.995,33.723 16.398 L 33.072 16.077 18.161 16.057 C 3.324 16.038,3.247 16.039,2.734 16.216 M28.947 33.973 L 28.947 35.967 18.070 35.967 L 7.193 35.967 7.193 33.973 L 7.193 31.980 18.070 31.980 L 28.947 31.980 28.947 33.973 " fill="#2B2C30" stroke="none" fill-rule="evenodd"></path></svg>