<svg width="48" height="48" viewBox="0 0 48 48" fill="none" xmlns="http://www.w3.org/2000/svg"><path d="M0.504 0.157 C -0.045 0.492,-0.000 -1.652,0.000 24.016 C 0.001 46.909,0.003 47.244,0.157 47.496 C 0.464 48.001,0.458 48.000,4.000 48.000 C 7.542 48.000,7.536 48.001,7.843 47.496 C 7.997 47.244,7.999 46.909,8.000 24.016 C 8.000 -1.652,8.045 0.492,7.496 0.157 C 7.253 0.009,7.073 0.001,4.000 0.001 C 0.927 0.001,0.747 0.009,0.504 0.157 M20.504 0.157 C 19.955 0.492,20.000 -1.652,20.000 24.016 C 20.001 46.909,20.003 47.244,20.157 47.496 C 20.464 48.001,20.458 48.000,24.000 48.000 C 27.542 48.000,27.536 48.001,27.843 47.496 C 27.997 47.244,27.999 46.909,28.000 24.016 C 28.000 -1.652,28.045 0.492,27.496 0.157 C 27.253 0.009,27.073 0.001,24.000 0.001 C 20.927 0.001,20.747 0.009,20.504 0.157 M40.504 0.157 C 39.955 0.492,40.000 -1.652,40.000 24.016 C 40.001 46.909,40.003 47.244,40.157 47.496 C 40.464 48.001,40.458 48.000,44.000 48.000 C 47.542 48.000,47.536 48.001,47.843 47.496 C 47.997 47.244,47.999 46.909,48.000 24.016 C 48.000 -1.652,48.045 0.492,47.496 0.157 C 47.253 0.009,47.073 0.001,44.000 0.001 C 40.927 0.001,40.747 0.009,40.504 0.157 " fill="#2B2C30" stroke="none" fill-rule="evenodd"></path></svg>