<svg width="46" height="48" viewBox="0 0 46 48" fill="none" xmlns="http://www.w3.org/2000/svg"><path d="M4.792 0.145 C 4.665 0.225,3.531 1.326,2.271 2.593 L -0.021 4.895 0.018 5.293 L 0.056 5.691 9.190 14.825 L 18.323 23.959 9.272 33.005 C 4.293 37.981,0.171 42.145,0.110 42.259 C -0.030 42.523,-0.030 42.884,0.110 43.148 C 0.170 43.262,1.232 44.364,2.468 45.597 C 4.811 47.935,4.944 48.038,5.470 47.942 C 5.666 47.907,7.923 45.689,17.351 36.273 C 23.753 29.880,29.043 24.548,29.109 24.425 C 29.187 24.277,29.214 24.086,29.188 23.858 C 29.150 23.518,29.057 23.422,17.507 11.868 C 11.104 5.462,5.772 0.171,5.658 0.110 C 5.375 -0.040,5.066 -0.028,4.792 0.145 M24.433 40.135 C 23.161 40.485,22.121 41.480,21.686 42.765 C 21.435 43.505,21.447 44.529,21.714 45.288 C 22.111 46.412,22.993 47.310,24.139 47.757 L 24.648 47.955 33.158 47.977 C 39.170 47.993,41.819 47.974,42.182 47.913 C 43.673 47.664,44.955 46.483,45.352 44.993 C 45.496 44.454,45.493 43.539,45.346 42.975 C 44.988 41.599,43.884 40.496,42.508 40.137 C 42.116 40.035,40.945 40.021,33.430 40.027 C 26.528 40.032,24.728 40.054,24.433 40.135 " fill="#2B2C30" stroke="none" fill-rule="evenodd"></path></svg>