<svg width="48" height="48" viewBox="0 0 48 48" fill="none" xmlns="http://www.w3.org/2000/svg"><path d="M3.161 0.094 C 1.719 0.369,0.399 1.697,0.088 3.184 C -0.037 3.783,-0.037 32.217,0.088 32.816 C 0.401 34.315,1.685 35.599,3.184 35.912 C 3.483 35.974,7.214 36.000,15.824 36.000 L 28.040 36.000 34.020 41.980 L 40.000 47.960 40.000 41.980 L 40.000 36.000 42.196 36.000 C 43.490 36.000,44.566 35.964,44.816 35.912 C 46.315 35.599,47.599 34.315,47.912 32.816 C 48.037 32.217,48.037 3.783,47.912 3.184 C 47.594 1.659,46.277 0.363,44.765 0.087 C 44.149 -0.026,3.752 -0.019,3.161 0.094 M10.748 25.150 C 11.125 25.308,11.582 25.732,11.782 26.112 C 12.023 26.569,12.024 27.430,11.783 27.885 C 11.424 28.567,10.742 28.988,10.000 28.988 C 9.258 28.988,8.576 28.567,8.217 27.885 C 7.976 27.430,7.977 26.569,8.218 26.112 C 8.413 25.742,8.868 25.313,9.234 25.153 C 9.557 25.013,10.415 25.011,10.748 25.150 M16.748 25.150 C 17.125 25.308,17.582 25.732,17.782 26.112 C 18.023 26.569,18.024 27.430,17.783 27.885 C 17.424 28.567,16.742 28.988,16.000 28.988 C 15.258 28.988,14.576 28.567,14.217 27.885 C 13.976 27.430,13.977 26.569,14.218 26.112 C 14.413 25.742,14.868 25.313,15.234 25.153 C 15.557 25.013,16.415 25.011,16.748 25.150 M22.748 25.150 C 23.125 25.308,23.582 25.732,23.782 26.112 C 24.023 26.569,24.024 27.430,23.783 27.885 C 23.424 28.567,22.742 28.988,22.000 28.988 C 21.258 28.988,20.576 28.567,20.217 27.885 C 19.976 27.430,19.977 26.569,20.218 26.112 C 20.413 25.742,20.868 25.313,21.234 25.153 C 21.557 25.013,22.415 25.011,22.748 25.150 " fill="#2B2C30" stroke="none" fill-rule="evenodd"></path></svg>