<svg width="56" height="48" viewBox="0 0 56 48" fill="none" xmlns="http://www.w3.org/2000/svg"><path d="M22.960 0.150 C 21.526 0.533,20.392 1.752,20.077 3.248 C 19.931 3.944,19.931 24.056,20.077 24.752 C 20.411 26.339,21.635 27.562,23.221 27.896 C 23.563 27.968,26.229 28.000,31.854 28.000 L 39.993 28.000 43.983 31.990 L 47.973 35.979 47.973 31.996 L 47.973 28.014 50.423 27.981 C 52.727 27.950,52.906 27.935,53.419 27.730 C 54.429 27.328,55.324 26.434,55.735 25.413 L 55.953 24.873 55.978 14.193 C 56.005 2.498,56.030 3.077,55.463 2.029 C 55.176 1.498,54.410 0.750,53.873 0.477 C 52.900 -0.020,53.555 -0.000,37.944 0.006 C 25.514 0.011,23.401 0.032,22.960 0.150 M2.745 12.210 C 1.388 12.680,0.395 13.801,0.103 15.195 C -0.043 15.896,-0.042 36.101,0.105 36.792 C 0.406 38.209,1.440 39.344,2.822 39.774 C 3.299 39.923,3.702 39.947,5.702 39.947 L 8.027 39.947 8.027 43.936 L 8.027 47.926 12.017 43.938 L 16.007 39.950 24.500 39.925 L 32.993 39.900 33.624 39.601 C 34.886 39.003,35.744 37.865,35.931 36.540 C 35.982 36.181,36.024 35.017,36.025 33.955 L 36.027 32.023 29.423 31.988 C 23.441 31.957,22.760 31.938,22.177 31.787 C 20.282 31.292,18.706 30.247,17.553 28.720 C 17.070 28.078,16.479 26.827,16.221 25.900 C 16.018 25.167,16.014 25.032,15.982 18.597 L 15.950 12.040 9.585 12.043 C 3.758 12.046,3.180 12.060,2.745 12.210 " fill="#2B2C30" stroke="none" fill-rule="evenodd"></path></svg>