<svg width="56" height="56" viewBox="0 0 56 56" fill="none" xmlns="http://www.w3.org/2000/svg"><path d="M26.133 0.059 C 17.918 0.672,10.533 4.677,5.619 11.185 C 2.783 14.941,1.033 19.178,0.255 24.172 C -0.030 26.001,-0.030 29.999,0.255 31.828 C 0.790 35.261,1.802 38.387,3.269 41.134 C 5.870 46.008,9.992 50.130,14.866 52.731 C 17.613 54.198,20.739 55.210,24.172 55.745 C 26.001 56.030,29.999 56.030,31.828 55.745 C 38.614 54.688,44.394 51.630,48.716 46.811 C 52.598 42.483,54.824 37.738,55.745 31.828 C 56.030 29.999,56.030 26.001,55.745 24.172 C 54.968 19.185,53.197 14.901,50.377 11.183 C 45.748 5.083,39.127 1.241,31.500 0.232 C 30.407 0.087,27.159 -0.017,26.133 0.059 M42.614 12.739 C 42.868 12.888,43.119 13.144,43.281 13.419 C 43.807 14.316,43.973 13.768,39.649 25.380 L 35.775 35.780 25.284 39.685 C 15.710 43.249,14.752 43.588,14.317 43.559 C 13.658 43.515,13.049 43.142,12.719 42.581 C 12.193 41.684,12.027 42.231,16.351 30.622 L 20.223 20.224 30.108 16.551 C 35.545 14.530,40.287 12.771,40.647 12.642 C 41.438 12.358,42.011 12.386,42.614 12.739 M30.987 20.490 C 27.060 21.950,23.744 23.189,23.620 23.244 C 23.402 23.341,23.582 23.535,28.004 27.957 C 30.540 30.494,32.645 32.538,32.682 32.501 C 32.760 32.421,38.199 17.819,38.146 17.831 C 38.135 17.834,34.914 19.030,30.987 20.490 " fill="#2B2C30" stroke="none" fill-rule="evenodd"></path></svg>