<svg width="48" height="56" viewBox="0 0 48 56" fill="none" xmlns="http://www.w3.org/2000/svg"><path d="M0.000 18.196 C 0.000 31.171,0.025 36.514,0.088 36.816 C 0.401 38.315,1.685 39.599,3.184 39.912 C 3.462 39.970,5.050 40.000,7.804 40.000 L 12.000 40.000 12.000 26.000 L 12.000 12.000 14.000 12.000 L 16.000 12.000 16.000 6.000 L 16.000 0.000 8.000 0.000 L 0.000 0.000 0.000 18.196 M20.000 5.600 C 20.001 11.053,20.006 11.249,20.157 11.496 C 20.479 12.024,20.206 12.003,26.397 11.981 L 32.000 11.960 26.000 5.960 L 20.000 -0.040 20.000 5.600 M16.019 34.420 L 16.040 52.840 16.233 53.320 C 16.721 54.539,17.570 55.383,18.700 55.773 L 19.240 55.960 32.040 55.960 L 44.840 55.960 45.300 55.784 C 46.470 55.338,47.285 54.524,47.767 53.320 L 47.960 52.840 47.982 42.420 L 48.003 32.000 41.798 32.000 C 34.891 32.000,34.914 32.002,34.027 31.471 C 33.087 30.907,32.402 30.024,32.147 29.046 C 32.023 28.571,32.009 27.910,32.005 22.260 L 32.000 16.000 23.999 16.000 L 15.998 16.000 16.019 34.420 M36.000 21.600 C 36.001 27.053,36.006 27.249,36.157 27.496 C 36.479 28.024,36.206 28.003,42.397 27.981 L 48.000 27.960 42.000 21.960 L 36.000 15.960 36.000 21.600 " fill="#2B2C30" stroke="none" fill-rule="evenodd"></path></svg>