<svg width="52" height="56" viewBox="0 0 52 56" fill="none" xmlns="http://www.w3.org/2000/svg"><path d="M19.023 0.055 C 17.089 0.363,15.560 1.130,14.288 2.431 C 12.957 3.793,12.226 5.403,12.002 7.471 L 11.949 7.964 11.543 8.012 C 9.877 8.209,8.702 8.602,7.609 9.328 C 6.495 10.067,5.438 11.243,4.854 12.392 C 4.367 13.349,3.987 14.927,3.987 15.990 C 3.987 17.185,4.393 18.747,4.983 19.820 C 5.150 20.124,5.287 20.390,5.287 20.412 C 5.287 20.434,5.031 20.568,4.718 20.710 C 2.898 21.535,1.288 23.207,0.602 24.985 C 0.123 26.227,0.048 26.635,0.048 27.993 C 0.048 29.351,0.123 29.759,0.602 31.002 C 1.288 32.779,2.898 34.452,4.718 35.277 C 5.031 35.419,5.287 35.553,5.287 35.575 C 5.287 35.596,5.150 35.863,4.983 36.167 C 4.393 37.240,3.987 38.802,3.987 39.997 C 3.987 41.060,4.367 42.638,4.854 43.595 C 5.477 44.821,6.699 46.132,7.871 46.833 C 8.780 47.376,10.040 47.806,11.110 47.937 L 11.951 48.040 12.003 48.525 C 12.392 52.123,14.651 54.827,18.032 55.742 C 18.636 55.905,18.983 55.939,20.020 55.939 C 21.369 55.939,21.990 55.818,23.167 55.327 C 24.521 54.761,26.008 53.456,26.842 52.102 C 27.480 51.065,27.991 49.395,27.993 48.338 L 27.993 48.013 29.766 48.013 C 31.787 48.013,31.950 48.050,32.029 48.525 C 32.325 50.296,33.651 51.639,35.402 51.939 C 36.562 52.137,37.748 51.748,38.704 50.853 C 40.346 49.317,40.420 46.872,38.873 45.250 C 38.012 44.348,37.052 43.978,35.746 44.046 C 35.089 44.081,34.848 44.136,34.345 44.368 L 33.738 44.648 33.121 44.337 L 32.504 44.027 30.249 44.027 L 27.993 44.027 27.993 42.033 L 27.993 40.040 33.796 40.040 C 37.840 40.040,39.662 40.069,39.808 40.136 C 39.977 40.212,40.028 40.317,40.070 40.667 C 40.250 42.192,41.743 43.657,43.402 43.937 C 45.943 44.366,48.369 41.943,47.947 39.398 C 47.510 36.759,44.725 35.270,42.326 36.392 L 41.762 36.656 41.076 36.311 L 40.391 35.967 34.192 35.967 L 27.993 35.967 27.993 32.977 L 27.993 29.987 36.255 29.987 L 44.517 29.987 44.795 30.373 C 45.563 31.442,46.884 32.047,48.260 31.959 C 49.812 31.859,51.175 30.861,51.750 29.403 C 52.033 28.686,52.033 27.301,51.750 26.584 C 51.494 25.934,50.945 25.219,50.374 24.793 C 48.659 23.510,46.103 23.866,44.834 25.565 L 44.510 26.000 36.252 26.000 L 27.993 26.000 27.993 23.010 L 27.993 20.020 34.235 20.020 L 40.477 20.020 41.157 19.678 C 41.783 19.364,41.850 19.347,42.021 19.466 C 42.309 19.668,43.113 19.919,43.674 19.983 C 45.203 20.156,46.921 19.159,47.603 17.702 C 48.858 15.020,46.955 12.047,43.983 12.047 C 41.972 12.047,40.293 13.463,40.067 15.351 C 39.981 16.065,40.274 16.033,33.710 16.033 L 27.993 16.033 27.993 14.040 L 27.993 12.047 30.186 12.047 L 32.379 12.047 33.088 11.704 L 33.797 11.361 34.341 11.616 C 35.863 12.328,37.686 11.981,38.854 10.756 C 39.975 9.581,40.278 8.034,39.692 6.476 C 39.323 5.495,38.240 4.502,37.191 4.184 C 36.464 3.963,35.286 3.992,34.623 4.246 C 33.216 4.786,32.283 5.942,32.029 7.462 C 31.950 7.937,31.787 7.973,29.766 7.973 L 27.993 7.973 27.993 7.648 C 27.991 6.593,27.480 4.921,26.844 3.888 C 26.334 3.059,25.393 2.039,24.651 1.509 C 23.936 0.999,22.808 0.472,21.970 0.257 C 21.289 0.082,19.586 -0.034,19.023 0.055 " fill="#2B2C30" stroke="none" fill-rule="evenodd"></path></svg>