<svg width="60" height="60" viewBox="0 0 60 60" fill="none" xmlns="http://www.w3.org/2000/svg"><path d="M3.062 0.111 C 1.635 0.448,0.407 1.718,0.096 3.177 C 0.030 3.487,0.005 9.403,0.023 20.300 C 0.049 36.631,0.054 36.959,0.248 37.429 C 0.662 38.431,1.582 39.349,2.571 39.747 C 2.988 39.915,3.370 39.945,5.525 39.978 L 8.000 40.015 8.000 43.603 C 8.000 46.171,8.034 47.265,8.119 47.453 C 8.362 47.984,8.485 48.000,12.395 48.000 L 16.000 48.000 16.000 46.000 L 16.000 44.000 14.000 44.000 L 12.000 44.000 12.000 42.000 L 12.000 40.000 22.661 40.000 C 32.775 40.000,33.318 40.009,33.248 40.175 C 32.899 41.013,32.479 42.336,32.286 43.203 C 31.978 44.591,31.951 47.285,32.231 48.600 C 32.878 51.632,34.195 54.019,36.378 56.114 C 38.344 58.001,40.592 59.171,43.400 59.768 C 44.593 60.022,47.407 60.022,48.600 59.768 C 51.408 59.171,53.656 58.001,55.622 56.114 C 57.805 54.019,59.124 51.628,59.768 48.600 C 60.022 47.407,60.022 44.593,59.768 43.400 C 59.319 41.289,58.414 39.235,57.248 37.681 C 56.469 36.643,54.880 35.109,53.924 34.470 C 52.287 33.378,50.346 32.562,48.723 32.283 L 48.000 32.159 48.000 22.080 L 48.000 12.000 50.000 12.000 L 52.000 12.000 52.000 14.000 L 52.000 16.000 54.000 16.000 L 56.000 16.000 56.000 12.395 C 56.000 8.485,55.984 8.362,55.453 8.119 C 55.265 8.034,54.171 8.000,51.603 8.000 L 48.015 8.000 47.983 5.525 L 47.950 3.050 47.634 2.382 C 47.193 1.452,46.626 0.873,45.716 0.423 L 44.960 0.050 24.205 0.034 C 11.904 0.025,3.292 0.056,3.062 0.111 M33.643 8.382 C 34.545 8.804,35.129 9.378,35.577 10.284 C 35.929 10.998,35.950 11.092,35.950 12.000 C 35.950 12.908,35.929 13.002,35.577 13.716 C 34.080 16.745,29.922 16.748,28.427 13.722 C 28.071 13.002,28.050 12.908,28.050 12.005 C 28.050 11.140,28.080 10.987,28.366 10.382 C 28.768 9.534,29.340 8.913,30.087 8.515 C 30.874 8.095,31.305 8.000,32.225 8.044 C 32.825 8.073,33.145 8.149,33.643 8.382 M18.660 16.290 C 18.874 16.449,20.602 18.136,22.498 20.038 L 25.946 23.497 28.755 20.698 L 31.565 17.900 32.002 17.900 L 32.439 17.900 36.219 21.672 L 40.000 25.444 40.000 28.297 L 40.000 31.149 36.000 27.150 L 32.001 23.152 30.404 24.746 L 28.807 26.341 29.937 27.495 C 30.588 28.161,31.087 28.756,31.115 28.900 C 31.211 29.402,31.013 29.744,30.101 30.650 C 29.232 31.514,29.178 31.550,28.748 31.550 L 28.301 31.550 23.150 26.400 L 18.000 21.251 13.000 26.250 L 8.000 31.249 8.000 28.399 L 8.000 25.549 12.625 20.938 C 15.169 18.402,17.361 16.253,17.497 16.163 C 17.860 15.924,18.220 15.963,18.660 16.290 M52.000 24.000 L 52.000 28.000 54.000 28.000 L 56.000 28.000 56.000 24.000 L 56.000 20.000 54.000 20.000 L 52.000 20.000 52.000 24.000 M47.453 36.119 C 47.984 36.362,48.000 36.485,48.000 40.395 L 48.000 44.000 51.595 44.000 C 55.462 44.000,55.600 44.017,55.857 44.515 C 56.039 44.866,56.056 47.067,55.881 47.453 C 55.638 47.984,55.515 48.000,51.605 48.000 L 48.000 48.000 48.000 51.605 C 48.000 55.515,47.984 55.638,47.453 55.881 C 47.296 55.952,46.710 56.000,46.000 56.000 C 45.290 56.000,44.704 55.952,44.547 55.881 C 44.016 55.638,44.000 55.515,44.000 51.605 L 44.000 48.000 40.395 48.000 C 36.485 48.000,36.362 47.984,36.119 47.453 C 36.048 47.296,36.000 46.710,36.000 46.000 C 36.000 45.290,36.048 44.704,36.119 44.547 C 36.362 44.016,36.485 44.000,40.395 44.000 L 44.000 44.000 44.004 40.375 C 44.007 36.500,44.018 36.413,44.511 36.140 C 44.824 35.966,47.083 35.951,47.453 36.119 M20.000 46.000 L 20.000 48.000 24.000 48.000 L 28.000 48.000 28.000 46.000 L 28.000 44.000 24.000 44.000 L 20.000 44.000 20.000 46.000 " fill="#2B2C30" stroke="none" fill-rule="evenodd"></path></svg>