<svg width="60" height="60" viewBox="0 0 60 60" fill="none" xmlns="http://www.w3.org/2000/svg"><path d="M27.550 0.109 C 19.035 0.801,11.200 5.126,6.011 12.000 C 2.985 16.008,1.100 20.553,0.286 25.800 C 0.093 27.042,0.061 27.645,0.061 30.000 C 0.061 33.032,0.204 34.358,0.807 36.900 C 2.630 44.585,7.397 51.230,14.121 55.457 C 15.383 56.250,18.019 57.562,19.300 58.034 C 21.602 58.883,24.230 59.525,26.600 59.820 C 27.964 59.989,32.036 59.989,33.400 59.820 C 35.770 59.525,38.398 58.883,40.700 58.034 C 41.981 57.562,44.617 56.250,45.879 55.457 C 52.601 51.231,57.371 44.582,59.193 36.900 C 59.796 34.358,59.939 33.032,59.939 30.000 C 59.939 26.968,59.796 25.642,59.193 23.100 C 56.640 12.336,48.383 3.860,37.664 0.999 C 34.582 0.177,30.806 -0.155,27.550 0.109 M18.232 14.110 C 18.352 14.171,21.049 16.815,24.225 19.985 L 30.000 25.749 35.775 19.985 C 38.951 16.815,41.656 14.167,41.786 14.101 C 42.299 13.841,42.572 14.020,44.266 15.725 C 45.154 16.619,45.911 17.454,45.949 17.582 C 45.987 17.710,45.989 17.935,45.953 18.082 C 45.910 18.258,43.887 20.353,40.070 24.175 L 34.251 30.001 40.026 35.776 C 45.891 41.641,46.016 41.782,45.919 42.397 C 45.871 42.705,43.014 45.623,42.541 45.848 C 42.335 45.945,42.101 45.981,41.929 45.941 C 41.736 45.896,39.850 44.080,35.825 40.064 L 29.999 34.251 24.225 40.015 C 21.049 43.185,18.344 45.833,18.214 45.899 C 17.698 46.161,17.422 45.981,15.732 44.274 C 14.848 43.381,14.092 42.546,14.053 42.418 C 14.014 42.290,14.011 42.065,14.047 41.918 C 14.090 41.742,16.113 39.647,19.930 35.825 L 25.749 29.999 19.985 24.225 C 16.815 21.049,14.167 18.344,14.101 18.214 C 13.841 17.701,14.019 17.428,15.725 15.735 C 16.619 14.848,17.418 14.098,17.500 14.069 C 17.751 13.980,18.002 13.994,18.232 14.110 " fill="#2B2C30" stroke="none" fill-rule="evenodd"></path></svg>