<svg width="40" height="40" viewBox="0 0 40 40" fill="none" xmlns="http://www.w3.org/2000/svg"><path d="M4.833 0.096 C 4.564 0.218,0.158 4.650,0.070 4.888 C -0.021 5.131,-0.019 5.438,0.074 5.621 C 0.114 5.701,3.346 8.969,7.257 12.883 L 14.366 20.000 7.221 27.150 C 0.923 33.451,0.070 34.329,0.031 34.545 C -0.067 35.087,-0.070 35.082,2.390 37.552 C 4.855 40.026,4.907 40.068,5.444 39.971 C 5.675 39.929,6.406 39.219,12.850 32.779 L 20.000 25.634 27.150 32.779 C 33.594 39.219,34.325 39.929,34.556 39.971 C 35.092 40.068,35.145 40.026,37.612 37.552 C 39.601 35.557,39.930 35.199,39.968 34.989 C 40.072 34.420,40.418 34.798,32.778 27.150 L 25.634 20.000 32.779 12.850 C 39.077 6.549,39.930 5.671,39.969 5.455 C 40.066 4.914,40.065 4.913,37.677 2.512 C 36.443 1.272,35.322 0.199,35.186 0.128 C 34.908 -0.016,34.696 -0.032,34.421 0.070 C 34.315 0.109,31.144 3.227,27.117 7.253 L 20.000 14.366 12.883 7.253 C 8.856 3.227,5.685 0.109,5.579 0.070 C 5.329 -0.023,5.076 -0.014,4.833 0.096 " fill="#2B2C30" stroke="none" fill-rule="evenodd"></path></svg>