<svg width="40" height="48" viewBox="0 0 40 48" fill="none" xmlns="http://www.w3.org/2000/svg"><path d="M18.267 0.038 C 16.836 0.132,15.764 0.228,14.911 0.340 C 9.311 1.077,4.698 2.957,2.097 5.562 C 1.134 6.526,0.523 7.501,0.192 8.600 C 0.048 9.076,0.040 9.228,0.016 11.759 C -0.011 14.662,0.020 15.017,0.380 15.933 C 1.808 19.568,7.194 22.519,14.367 23.596 C 16.350 23.894,17.396 23.962,20.000 23.962 C 22.604 23.962,23.650 23.894,25.633 23.596 C 31.359 22.736,36.028 20.666,38.368 17.949 C 39.179 17.008,39.685 16.020,39.899 14.959 C 39.992 14.498,40.005 14.026,39.984 11.759 C 39.960 9.228,39.952 9.076,39.808 8.600 C 39.477 7.501,38.866 6.526,37.903 5.562 C 35.049 2.704,29.875 0.761,23.533 0.166 C 22.499 0.069,19.073 -0.014,18.267 0.038 M0.011 22.500 C 0.002 26.115,0.012 26.483,0.127 27.042 C 0.610 29.379,2.796 31.603,6.205 33.224 C 13.943 36.905,26.057 36.905,33.795 33.224 C 37.204 31.603,39.390 29.379,39.873 27.042 C 39.988 26.484,39.998 26.105,39.994 22.500 C 39.989 18.841,39.982 18.599,39.890 19.033 C 39.153 22.485,34.940 25.482,28.677 27.008 C 22.037 28.627,14.144 28.251,8.073 26.028 C 7.001 25.636,5.018 24.665,4.200 24.132 C 2.056 22.735,0.716 21.151,0.205 19.411 C 0.134 19.167,0.063 18.877,0.047 18.767 C 0.032 18.657,0.016 20.337,0.011 22.500 M0.011 34.500 C 0.002 38.115,0.012 38.483,0.127 39.042 C 0.610 41.379,2.796 43.603,6.205 45.224 C 13.943 48.905,26.057 48.905,33.795 45.224 C 37.204 43.603,39.390 41.379,39.873 39.042 C 39.988 38.484,39.998 38.105,39.994 34.500 C 39.989 30.841,39.982 30.599,39.890 31.033 C 39.153 34.485,34.940 37.482,28.677 39.008 C 22.037 40.627,14.144 40.251,8.073 38.028 C 7.001 37.636,5.018 36.665,4.200 36.132 C 2.056 34.735,0.716 33.151,0.205 31.411 C 0.134 31.167,0.063 30.877,0.047 30.767 C 0.032 30.657,0.016 32.337,0.011 34.500 " fill="#2B2C30" stroke="none" fill-rule="evenodd"></path></svg>