<svg width="56" height="56" viewBox="0 0 56 56" fill="none" xmlns="http://www.w3.org/2000/svg"><path d="M26.133 0.059 C 17.913 0.672,10.583 4.646,5.629 11.176 C 2.796 14.909,1.034 19.171,0.255 24.172 C -0.030 26.001,-0.030 29.999,0.255 31.828 C 1.452 39.508,5.165 45.810,11.183 50.377 C 14.901 53.197,19.185 54.968,24.172 55.745 C 26.001 56.030,29.999 56.030,31.828 55.745 C 38.632 54.685,44.416 51.617,48.757 46.767 C 52.604 42.467,54.828 37.714,55.745 31.828 C 56.030 29.999,56.030 26.001,55.745 24.172 C 54.968 19.185,53.197 14.901,50.377 11.183 C 45.747 5.081,39.129 1.242,31.500 0.232 C 30.407 0.087,27.159 -0.017,26.133 0.059 M30.100 8.121 C 33.178 8.459,36.511 9.633,38.827 11.195 C 38.939 11.271,36.250 14.006,25.153 25.105 C 17.556 32.703,11.317 38.920,11.288 38.920 C 11.259 38.920,11.035 38.583,10.791 38.172 C 7.399 32.470,7.107 25.256,10.026 19.272 C 11.998 15.229,15.223 12.005,19.278 10.024 C 21.265 9.053,23.690 8.349,25.807 8.129 C 26.881 8.017,29.121 8.013,30.100 8.121 M45.116 17.665 C 46.341 19.630,47.313 22.283,47.741 24.828 C 47.951 26.078,48.022 28.481,47.890 29.882 C 47.241 36.782,43.089 42.813,36.848 45.916 C 34.844 46.913,32.526 47.601,30.242 47.878 C 29.081 48.018,26.676 47.994,25.415 47.830 C 23.389 47.565,21.334 46.962,19.507 46.095 C 18.437 45.587,17.115 44.838,17.021 44.687 C 16.967 44.599,44.488 16.987,44.630 16.987 C 44.665 16.987,44.884 17.292,45.116 17.665 " fill="#2B2C30" stroke="none" fill-rule="evenodd"></path></svg>