<svg width="56" height="56" viewBox="0 0 56 56" fill="none" xmlns="http://www.w3.org/2000/svg"><path d="M40.290 0.099 C 38.579 0.297,37.206 0.707,35.607 1.495 C 33.571 2.498,33.244 2.783,27.078 8.912 C 20.906 15.047,19.701 16.313,18.907 17.493 C 17.788 19.158,17.043 21.035,16.696 23.065 C 16.528 24.044,16.506 24.455,16.550 25.760 C 16.627 28.080,17.020 29.651,18.040 31.718 C 18.977 33.617,20.326 34.460,22.203 34.318 C 24.412 34.151,26.113 31.990,25.757 29.804 C 25.644 29.109,25.603 28.984,25.243 28.269 C 24.242 26.277,24.249 24.267,25.265 22.400 C 25.546 21.884,26.548 20.841,32.001 15.393 C 37.869 9.529,38.458 8.968,39.013 8.705 C 40.046 8.216,40.503 8.098,41.533 8.052 C 43.299 7.973,44.670 8.480,45.921 9.673 C 47.187 10.882,47.799 12.272,47.804 13.953 C 47.807 15.092,47.627 15.836,47.109 16.835 C 46.799 17.432,46.464 17.842,45.320 19.030 C 43.264 21.165,42.975 21.710,43.045 23.319 C 43.092 24.380,43.336 24.994,44.011 25.745 C 44.877 26.709,45.874 27.114,47.219 27.050 C 47.876 27.018,48.139 26.957,48.655 26.716 C 49.203 26.459,49.486 26.215,50.786 24.881 C 51.610 24.034,52.498 23.077,52.757 22.754 C 54.148 21.025,55.021 19.157,55.550 16.780 C 55.835 15.500,55.859 12.739,55.596 11.437 C 55.020 8.589,53.687 6.080,51.701 4.107 C 49.847 2.264,47.509 0.961,45.033 0.391 C 43.471 0.031,41.773 -0.074,40.290 0.099 M32.821 21.838 C 31.224 22.348,30.158 23.714,30.071 25.361 C 30.021 26.294,30.123 26.725,30.673 27.926 C 31.822 30.431,31.471 32.756,29.630 34.842 C 28.334 36.310,17.888 46.623,17.330 46.986 C 15.462 48.199,13.186 48.300,11.172 47.258 C 10.717 47.022,10.271 46.680,9.789 46.197 C 8.065 44.469,7.564 41.962,8.485 39.677 C 8.814 38.860,9.255 38.281,10.733 36.730 C 12.276 35.110,12.624 34.565,12.802 33.490 C 13.079 31.817,12.145 30.058,10.571 29.288 C 9.968 28.994,9.892 28.980,8.867 28.980 C 7.842 28.980,7.765 28.994,7.164 29.288 C 6.638 29.545,6.296 29.838,5.095 31.061 C 2.979 33.216,2.070 34.410,1.338 35.994 C -1.189 41.463,-0.078 47.713,4.168 51.917 C 6.119 53.849,8.288 55.033,11.067 55.684 C 12.086 55.922,12.334 55.944,14.000 55.944 C 15.521 55.943,15.970 55.910,16.731 55.741 C 19.223 55.189,21.209 54.228,23.053 52.682 C 23.438 52.359,26.548 49.288,29.963 45.858 C 34.407 41.394,36.326 39.402,36.712 38.855 C 37.869 37.214,38.728 35.199,39.122 33.201 C 39.392 31.833,39.408 29.601,39.158 28.280 C 38.801 26.388,37.790 23.901,37.009 22.988 C 36.045 21.862,34.271 21.374,32.821 21.838 " fill="#2B2C30" stroke="none" fill-rule="evenodd"></path></svg>