<svg width="56" height="48" viewBox="0 0 56 48" fill="none" xmlns="http://www.w3.org/2000/svg"><path d="M3.010 0.144 C 2.741 0.217,2.345 0.366,2.130 0.475 C 1.589 0.751,0.825 1.497,0.532 2.036 C -0.030 3.068,0.000 2.067,0.000 19.942 C 0.000 31.696,0.030 36.437,0.105 36.792 C 0.406 38.209,1.440 39.344,2.822 39.774 C 3.348 39.938,3.918 39.947,13.682 39.947 L 23.987 39.947 23.987 41.953 L 23.987 43.960 18.941 43.960 C 15.614 43.960,13.759 43.995,13.493 44.062 C 12.982 44.190,12.465 44.613,12.208 45.112 C 12.043 45.433,12.001 45.713,11.966 46.737 L 11.922 47.973 28.000 47.973 L 44.078 47.973 44.034 46.737 C 43.999 45.713,43.957 45.433,43.792 45.112 C 43.535 44.613,43.018 44.190,42.507 44.062 C 42.241 43.995,40.386 43.960,37.059 43.960 L 32.013 43.960 32.013 41.953 L 32.013 39.947 42.318 39.947 C 52.082 39.947,52.652 39.938,53.178 39.774 C 54.546 39.348,55.598 38.194,55.895 36.792 C 55.970 36.437,56.000 31.686,56.000 19.942 C 56.000 2.287,56.022 3.104,55.523 2.127 C 55.249 1.589,54.502 0.824,53.964 0.532 C 52.919 -0.037,54.725 -0.001,27.957 0.006 C 7.190 0.011,3.426 0.032,3.010 0.144 M31.662 8.299 L 31.967 8.571 31.998 9.862 C 32.024 10.935,32.003 11.203,31.873 11.446 C 31.571 12.008,31.732 11.993,25.934 11.993 L 20.630 11.993 20.325 11.688 L 20.020 11.383 20.020 9.977 L 20.020 8.571 20.325 8.299 L 20.630 8.027 25.993 8.027 L 31.357 8.027 31.662 8.299 M47.701 8.299 L 47.973 8.572 47.973 9.959 C 47.973 11.506,47.920 11.675,47.357 11.910 C 46.898 12.102,37.102 12.102,36.643 11.910 C 36.080 11.675,36.027 11.506,36.027 9.959 L 36.027 8.572 36.299 8.299 L 36.572 8.027 42.000 8.027 L 47.428 8.027 47.701 8.299 " fill="#2B2C30" stroke="none" fill-rule="evenodd"></path></svg>