<svg width="56" height="48" viewBox="0 0 56 48" fill="none" xmlns="http://www.w3.org/2000/svg"><path d="M3.010 0.144 C 1.598 0.524,0.504 1.617,0.130 3.019 C 0.024 3.418,0.002 6.317,0.001 19.977 C -0.000 38.006,-0.029 37.022,0.536 37.986 C 0.901 38.611,1.606 39.247,2.313 39.593 L 2.940 39.900 13.463 39.925 L 23.987 39.950 23.987 41.955 L 23.987 43.960 20.431 43.960 C 16.473 43.960,16.389 43.972,16.107 44.565 C 15.910 44.979,15.900 46.903,16.093 47.363 C 16.364 48.014,15.571 47.973,28.000 47.973 C 40.429 47.973,39.636 48.014,39.907 47.363 C 40.100 46.903,40.090 44.979,39.893 44.565 C 39.611 43.972,39.527 43.960,35.569 43.960 L 32.013 43.960 32.013 41.955 L 32.013 39.950 42.537 39.925 L 53.060 39.900 53.687 39.593 C 54.394 39.247,55.099 38.611,55.464 37.986 C 56.029 37.022,56.000 38.007,56.000 19.962 C 56.000 4.071,55.994 3.449,55.824 2.905 C 55.586 2.139,55.264 1.616,54.714 1.102 C 54.174 0.596,53.690 0.332,52.950 0.140 C 52.164 -0.065,3.770 -0.061,3.010 0.144 " fill="#2B2C30" stroke="none" fill-rule="evenodd"></path></svg>