<svg width="48" height="48" viewBox="0 0 48 48" fill="none" xmlns="http://www.w3.org/2000/svg"><path d="M3.161 0.094 C 1.719 0.369,0.399 1.697,0.088 3.184 C -0.037 3.785,-0.037 44.215,0.088 44.816 C 0.401 46.315,1.685 47.599,3.184 47.912 C 3.768 48.033,12.232 48.033,12.816 47.912 C 14.407 47.580,15.681 46.231,15.940 44.605 L 16.036 44.000 31.198 43.999 L 46.360 43.998 46.761 43.812 C 47.198 43.608,47.627 43.173,47.830 42.726 C 47.949 42.465,47.960 40.850,47.960 24.000 C 47.960 7.150,47.949 5.535,47.830 5.274 C 47.645 4.868,47.229 4.420,46.848 4.215 L 46.520 4.040 31.278 4.019 L 16.036 3.998 15.940 3.394 C 15.677 1.744,14.368 0.379,12.765 0.087 C 12.171 -0.022,3.735 -0.015,3.161 0.094 M12.000 24.000 L 12.000 44.000 8.000 44.000 L 4.000 44.000 4.000 24.000 L 4.000 4.000 8.000 4.000 L 12.000 4.000 12.000 24.000 M39.448 12.124 C 39.579 12.192,39.757 12.363,39.843 12.504 C 39.991 12.747,39.999 12.927,39.999 16.000 C 39.999 19.073,39.991 19.253,39.843 19.496 C 39.516 20.033,40.167 20.000,30.000 20.000 C 19.833 20.000,20.484 20.033,20.157 19.496 C 20.009 19.253,20.001 19.073,20.000 16.016 C 20.000 12.457,19.999 12.465,20.504 12.157 C 20.754 12.004,20.977 12.001,29.984 12.000 C 38.156 12.000,39.235 12.014,39.448 12.124 M23.448 24.124 C 23.925 24.371,23.999 24.621,24.000 25.984 C 24.000 27.352,23.940 27.572,23.496 27.843 C 23.271 27.980,23.089 27.999,22.000 27.999 C 20.911 27.999,20.729 27.980,20.504 27.843 C 20.061 27.573,20.000 27.350,20.000 26.000 C 20.000 24.650,20.061 24.427,20.504 24.157 C 20.728 24.020,20.911 24.001,21.984 24.000 C 22.933 24.000,23.262 24.028,23.448 24.124 M31.448 24.124 C 31.925 24.371,31.999 24.621,32.000 25.984 C 32.000 27.352,31.940 27.572,31.496 27.843 C 31.271 27.980,31.089 27.999,30.000 27.999 C 28.911 27.999,28.729 27.980,28.504 27.843 C 28.061 27.573,28.000 27.350,28.000 26.000 C 28.000 24.650,28.061 24.427,28.504 24.157 C 28.728 24.020,28.911 24.001,29.984 24.000 C 30.933 24.000,31.262 24.028,31.448 24.124 M39.448 24.124 C 39.925 24.371,39.999 24.621,40.000 25.984 C 40.000 27.352,39.940 27.572,39.496 27.843 C 39.271 27.980,39.089 27.999,38.000 27.999 C 36.911 27.999,36.729 27.980,36.504 27.843 C 36.061 27.573,36.000 27.350,36.000 26.000 C 36.000 24.650,36.061 24.427,36.504 24.157 C 36.728 24.020,36.911 24.001,37.984 24.000 C 38.933 24.000,39.262 24.028,39.448 24.124 M23.448 32.124 C 23.925 32.371,23.999 32.621,24.000 33.984 C 24.000 35.352,23.940 35.572,23.496 35.843 C 23.271 35.980,23.089 35.999,22.000 35.999 C 20.911 35.999,20.729 35.980,20.504 35.843 C 20.061 35.573,20.000 35.350,20.000 34.000 C 20.000 32.650,20.061 32.427,20.504 32.157 C 20.728 32.020,20.911 32.001,21.984 32.000 C 22.933 32.000,23.262 32.028,23.448 32.124 M31.448 32.124 C 31.925 32.371,31.999 32.621,32.000 33.984 C 32.000 35.352,31.940 35.572,31.496 35.843 C 31.271 35.980,31.089 35.999,30.000 35.999 C 28.911 35.999,28.729 35.980,28.504 35.843 C 28.061 35.573,28.000 35.350,28.000 34.000 C 28.000 32.650,28.061 32.427,28.504 32.157 C 28.728 32.020,28.911 32.001,29.984 32.000 C 30.933 32.000,31.262 32.028,31.448 32.124 M39.448 32.124 C 39.925 32.371,39.999 32.621,40.000 33.984 C 40.000 35.352,39.940 35.572,39.496 35.843 C 39.271 35.980,39.089 35.999,38.000 35.999 C 36.911 35.999,36.729 35.980,36.504 35.843 C 36.061 35.573,36.000 35.350,36.000 34.000 C 36.000 32.650,36.061 32.427,36.504 32.157 C 36.728 32.020,36.911 32.001,37.984 32.000 C 38.933 32.000,39.262 32.028,39.448 32.124 " fill="#2B2C30" stroke="none" fill-rule="evenodd"></path></svg>