<svg width="55" height="56" viewBox="0 0 55 56" fill="none" xmlns="http://www.w3.org/2000/svg"><path d="M25.208 0.061 C 18.379 0.547,12.268 3.251,7.436 7.925 C 4.787 10.488,2.421 13.979,1.057 17.335 L 0.830 17.895 1.125 17.655 C 2.570 16.484,4.154 15.843,5.995 15.685 C 9.166 15.412,11.986 16.488,13.729 18.637 C 14.536 19.632,15.246 21.201,15.428 22.390 L 15.480 22.733 12.974 22.733 L 10.467 22.733 10.322 22.308 C 9.756 20.646,8.191 19.770,6.281 20.046 C 4.184 20.348,2.805 22.095,2.345 25.034 C 2.153 26.260,2.065 27.592,2.175 27.592 C 2.225 27.592,2.410 27.375,2.585 27.110 C 3.443 25.819,4.761 24.921,6.462 24.467 C 7.491 24.193,9.191 24.193,10.221 24.467 C 12.763 25.144,14.649 27.017,15.406 29.617 C 15.688 30.587,15.757 32.678,15.541 33.742 C 14.896 36.928,12.683 39.196,9.371 40.068 C 8.456 40.309,6.172 40.406,5.155 40.247 C 3.792 40.034,2.559 39.586,1.535 38.931 L 1.022 38.603 1.158 38.929 C 2.152 41.305,3.740 43.884,5.530 46.021 C 9.281 50.504,14.430 53.730,20.075 55.136 C 22.765 55.806,24.171 55.948,27.567 55.890 C 30.603 55.838,31.678 55.700,34.190 55.039 C 40.923 53.268,46.984 48.772,50.695 42.797 C 51.254 41.897,52.525 39.524,52.525 39.381 C 52.525 39.354,52.331 39.415,52.093 39.517 C 49.899 40.457,46.370 40.607,43.725 39.871 C 42.940 39.653,41.549 39.018,40.946 38.603 C 39.711 37.753,38.758 36.525,38.359 35.265 C 38.071 34.359,38.034 33.022,38.271 32.129 C 38.643 30.726,39.606 29.410,40.861 28.591 C 41.480 28.187,42.729 27.683,43.114 27.683 C 43.450 27.683,43.203 27.484,42.623 27.288 C 40.799 26.672,39.455 25.130,39.093 23.236 C 38.924 22.356,38.925 21.850,39.097 21.040 C 39.478 19.241,40.737 17.710,42.603 16.774 C 44.133 16.007,45.425 15.724,47.392 15.727 C 49.319 15.730,50.640 16.010,52.079 16.720 L 52.686 17.019 52.549 16.691 C 52.474 16.510,52.205 15.950,51.952 15.446 C 48.393 8.349,41.792 2.969,34.191 0.969 C 31.326 0.216,27.904 -0.130,25.208 0.061 M35.473 18.127 L 35.472 20.212 30.488 30.112 L 25.504 40.012 22.881 40.037 C 21.439 40.050,20.259 40.050,20.259 40.037 C 20.259 40.023,22.487 35.602,25.209 30.212 C 27.931 24.822,30.158 20.356,30.158 20.289 C 30.158 20.188,29.137 20.167,24.383 20.167 L 18.608 20.167 18.608 18.104 L 18.608 16.042 27.042 16.042 L 35.475 16.042 35.473 18.127 M46.500 19.616 C 44.955 19.945,43.980 21.109,43.972 22.634 C 43.967 23.525,44.177 24.155,44.662 24.705 C 45.380 25.521,46.188 25.859,47.418 25.859 C 49.149 25.859,50.358 24.991,50.745 23.470 C 50.913 22.808,50.880 22.224,50.631 21.494 C 50.411 20.845,49.626 20.078,48.907 19.809 C 48.293 19.579,47.115 19.485,46.500 19.616 M54.221 25.994 C 53.586 26.636,53.000 27.005,52.160 27.288 C 51.834 27.398,51.554 27.526,51.539 27.571 C 51.524 27.616,51.736 27.703,52.010 27.765 C 52.675 27.913,53.833 28.484,54.427 28.956 L 54.908 29.338 54.903 27.708 C 54.900 26.812,54.869 25.935,54.834 25.758 L 54.771 25.437 54.221 25.994 M5.463 28.136 C 4.338 28.506,3.363 29.452,2.929 30.596 C 2.652 31.326,2.590 32.500,2.788 33.273 C 3.424 35.752,6.095 37.040,8.406 35.982 C 9.922 35.288,10.733 33.941,10.733 32.116 C 10.733 30.334,9.960 29.047,8.439 28.298 C 7.911 28.039,7.749 28.005,6.926 27.983 C 6.211 27.964,5.883 27.998,5.463 28.136 M46.393 29.701 C 45.830 29.821,44.924 30.260,44.531 30.606 C 43.085 31.875,43.006 34.239,44.366 35.511 C 45.182 36.275,46.032 36.573,47.392 36.573 C 49.002 36.573,50.144 36.072,50.825 35.067 C 51.681 33.804,51.583 32.072,50.591 30.941 C 50.210 30.506,49.517 30.057,48.904 29.846 C 48.365 29.661,46.966 29.580,46.393 29.701 " fill="#2B2C30" stroke="none" fill-rule="evenodd"></path></svg>