<svg width="40" height="40" viewBox="0 0 40 40" fill="none" xmlns="http://www.w3.org/2000/svg"><path d="M37.067 0.089 C 36.610 0.224,22.641 5.531,14.667 8.600 C 4.952 12.338,1.429 13.754,0.937 14.115 C 0.305 14.580,0.035 15.124,0.034 15.933 C 0.033 16.415,0.060 16.555,0.214 16.867 C 0.573 17.599,0.429 17.513,7.925 21.459 L 14.882 25.120 17.612 30.310 C 19.113 33.165,20.751 36.280,21.253 37.233 C 22.253 39.137,22.504 39.478,23.125 39.782 C 23.444 39.937,23.585 39.965,24.067 39.966 C 24.539 39.967,24.694 39.938,25.000 39.794 C 25.525 39.546,25.908 39.132,26.204 38.490 C 27.069 36.614,30.454 27.883,37.741 8.733 L 39.961 2.900 39.963 2.333 C 39.965 1.889,39.934 1.699,39.820 1.450 C 39.622 1.019,39.055 0.437,38.634 0.231 C 38.208 0.022,37.507 -0.041,37.067 0.089 " fill="#2B2C30" stroke="none" fill-rule="evenodd"></path></svg>