<svg width="48" height="44" viewBox="0 0 48 44" fill="none" xmlns="http://www.w3.org/2000/svg"><path d="M22.091 0.089 C 19.894 0.284,17.743 0.894,15.734 1.890 L 14.867 2.320 7.871 2.320 C 0.165 2.320,0.476 2.300,0.162 2.815 C 0.003 3.076,0.001 3.197,0.000 11.144 C -0.000 20.047,-0.031 19.517,0.504 19.843 C 0.751 19.994,0.947 19.999,6.378 20.000 L 11.997 20.000 15.092 24.140 L 18.187 28.280 19.258 30.280 C 20.630 32.840,22.640 36.895,23.307 38.448 C 23.593 39.112,23.996 40.192,24.202 40.848 C 24.655 42.285,24.879 42.763,25.303 43.205 C 25.812 43.734,26.380 43.960,27.200 43.960 C 27.781 43.959,27.946 43.927,28.333 43.737 C 28.906 43.456,29.311 43.009,29.644 42.288 C 30.307 40.850,30.405 38.513,29.910 35.931 C 29.786 35.286,28.222 28.802,28.030 28.140 C 27.991 28.007,28.419 28.000,36.215 27.999 C 45.162 27.998,44.807 28.015,45.749 27.545 C 46.335 27.253,47.253 26.335,47.545 25.749 C 48.423 23.989,47.965 22.124,46.407 21.125 C 45.990 20.857,45.202 20.560,44.907 20.560 C 44.639 20.560,44.678 20.476,45.083 20.177 C 45.563 19.825,46.028 19.221,46.253 18.660 C 46.405 18.278,46.437 18.050,46.438 17.314 C 46.440 16.431,46.439 16.425,46.100 15.742 C 45.852 15.242,45.641 14.948,45.321 14.655 C 44.811 14.189,44.065 13.791,43.556 13.715 C 43.360 13.686,43.200 13.630,43.200 13.591 C 43.200 13.552,43.233 13.520,43.274 13.520 C 43.414 13.520,44.226 12.716,44.466 12.339 C 45.166 11.239,45.136 9.576,44.395 8.458 C 43.871 7.666,42.833 6.955,42.026 6.834 L 41.680 6.782 42.239 6.265 C 43.815 4.806,43.924 2.574,42.491 1.132 C 42.243 0.882,41.857 0.581,41.634 0.462 C 40.736 -0.017,41.097 -0.001,31.563 0.011 C 26.765 0.017,22.503 0.052,22.091 0.089 " fill="#2B2C30" stroke="none" fill-rule="evenodd"></path></svg>