<svg width="60" height="56" viewBox="0 0 60 56" fill="none" xmlns="http://www.w3.org/2000/svg"><path d="M8.536 0.099 C 8.418 0.147,8.249 0.289,8.161 0.415 C 8.014 0.624,8.000 2.533,8.000 21.821 L 8.000 42.997 7.625 43.238 C 7.419 43.370,5.743 44.342,3.900 45.398 C 2.057 46.454,0.426 47.449,0.275 47.610 C 0.112 47.784,0.000 48.016,0.000 48.180 C -0.000 48.504,1.009 50.348,1.366 50.675 C 1.873 51.140,2.022 51.078,6.191 48.681 C 8.313 47.461,12.277 45.174,15.000 43.599 C 17.723 42.023,21.750 39.697,23.950 38.429 C 26.150 37.161,29.525 35.213,31.450 34.102 C 39.692 29.342,42.379 27.791,44.500 26.569 C 55.269 20.364,59.576 17.845,59.723 17.663 C 60.042 17.270,59.946 16.827,59.301 15.710 C 58.972 15.140,58.623 14.614,58.526 14.540 C 58.429 14.467,58.178 14.405,57.969 14.403 C 57.655 14.401,57.110 14.676,54.919 15.944 C 53.451 16.793,52.171 17.518,52.075 17.555 C 51.917 17.615,51.900 17.542,51.900 16.814 L 51.900 16.007 45.425 15.978 L 38.950 15.950 38.295 15.640 C 37.094 15.071,36.251 13.971,36.009 12.657 C 35.938 12.269,35.900 9.967,35.900 6.032 L 35.900 0.000 22.325 0.006 C 14.859 0.010,8.654 0.052,8.536 0.099 M40.000 5.712 C 40.000 11.262,40.004 11.378,40.204 11.633 C 40.317 11.776,40.553 11.918,40.729 11.950 C 40.906 11.981,43.491 11.994,46.475 11.979 L 51.901 11.950 45.950 6.000 L 40.000 0.051 40.000 5.712 M31.488 16.163 C 31.869 16.430,32.000 16.899,32.000 18.000 C 32.000 19.101,31.869 19.570,31.488 19.837 C 31.278 19.984,30.542 20.000,23.950 20.000 C 17.358 20.000,16.622 19.984,16.412 19.837 C 16.031 19.570,15.900 19.101,15.900 18.000 C 15.900 16.899,16.031 16.430,16.412 16.163 C 16.622 16.016,17.358 16.000,23.950 16.000 C 30.542 16.000,31.278 16.016,31.488 16.163 M40.892 24.037 C 40.869 24.057,39.316 24.957,37.442 26.037 L 34.034 28.000 25.339 28.000 C 17.463 28.000,16.623 27.985,16.412 27.837 C 16.031 27.570,15.900 27.101,15.900 26.000 C 15.900 24.899,16.031 24.430,16.412 24.163 C 16.624 24.014,17.723 24.000,28.789 24.000 C 35.468 24.000,40.915 24.016,40.892 24.037 M29.871 39.629 L 7.992 52.250 8.042 52.726 C 8.176 54.023,9.368 55.366,10.769 55.798 C 11.413 55.997,11.656 56.000,29.950 56.000 C 48.163 56.000,48.490 55.997,49.123 55.801 C 50.581 55.351,51.647 54.100,51.902 52.539 C 51.961 52.183,51.999 47.005,51.999 39.475 C 52.000 29.559,51.974 27.001,51.875 27.004 C 51.806 27.006,41.905 32.688,29.871 39.629 M26.847 32.135 C 26.739 32.210,25.195 33.110,23.417 34.135 L 20.183 36.000 18.414 36.000 C 16.940 36.000,16.606 35.973,16.412 35.837 C 16.031 35.570,15.900 35.101,15.900 34.000 C 15.900 32.899,16.031 32.430,16.412 32.163 C 16.620 32.017,17.199 32.000,21.845 32.000 C 26.245 32.000,27.014 32.021,26.847 32.135 " fill="#2B2C30" stroke="none" fill-rule="evenodd"></path></svg>