<svg width="44" height="56" viewBox="0 0 44 56" fill="none" xmlns="http://www.w3.org/2000/svg"><path d="M0.550 0.136 C 0.429 0.211,0.264 0.347,0.183 0.437 C 0.037 0.601,0.037 0.719,0.018 26.523 C -0.003 55.261,-0.043 52.902,0.484 53.903 C 0.848 54.597,1.577 55.287,2.322 55.642 L 2.897 55.917 22.000 55.917 L 41.103 55.917 41.678 55.642 C 42.422 55.287,43.152 54.596,43.516 53.904 C 44.035 52.917,43.998 54.429,43.999 34.228 L 44.000 15.987 37.722 15.987 C 32.232 15.987,31.388 15.972,30.994 15.870 C 29.569 15.503,28.346 14.209,28.092 12.802 C 28.040 12.515,28.013 10.254,28.013 6.183 L 28.013 0.000 14.392 0.000 C 1.258 0.001,0.762 0.005,0.550 0.136 M31.989 5.665 C 32.012 11.885,31.987 11.576,32.506 11.860 C 32.726 11.981,33.150 11.991,38.335 12.010 C 41.410 12.021,43.927 12.005,43.927 11.973 C 43.927 11.899,32.100 0.073,32.026 0.073 C 31.995 0.073,31.978 2.590,31.989 5.665 M34.217 22.576 C 34.660 22.900,35.817 24.136,35.926 24.400 C 36.159 24.967,36.316 24.782,31.315 29.842 C 25.790 35.432,25.384 35.832,25.125 35.930 C 24.845 36.037,24.522 36.026,24.288 35.901 C 24.179 35.844,22.622 34.326,20.827 32.528 L 17.564 29.260 14.225 32.599 C 10.647 36.176,10.718 36.117,10.143 35.973 C 9.832 35.895,8.157 34.210,8.067 33.885 C 7.898 33.271,7.784 33.405,12.527 28.650 C 14.934 26.237,16.992 24.216,17.101 24.158 C 17.210 24.101,17.457 24.053,17.649 24.053 L 18.000 24.053 21.357 27.408 L 24.714 30.762 28.802 26.684 C 31.050 24.441,32.972 22.552,33.071 22.487 C 33.368 22.290,33.882 22.331,34.217 22.576 M35.507 40.168 C 35.930 40.415,36.007 40.701,36.007 42.020 C 36.007 43.339,35.930 43.625,35.507 43.872 C 35.300 43.993,34.522 44.000,22.000 44.000 C 9.478 44.000,8.700 43.993,8.493 43.872 C 8.068 43.624,7.993 43.341,7.996 42.005 C 8.000 40.682,8.059 40.457,8.474 40.184 C 8.686 40.044,8.942 40.041,21.989 40.040 C 34.522 40.040,35.300 40.047,35.507 40.168 " fill="#2B2C30" stroke="none" fill-rule="evenodd"></path></svg>