<svg width="44" height="56" viewBox="0 0 44 56" fill="none" xmlns="http://www.w3.org/2000/svg"><path d="M0.550 0.136 C 0.429 0.211,0.264 0.347,0.183 0.437 C 0.037 0.601,0.037 0.719,0.018 26.523 C -0.003 55.261,-0.043 52.902,0.484 53.903 C 0.848 54.597,1.577 55.287,2.322 55.642 L 2.897 55.917 22.000 55.917 L 41.103 55.917 41.678 55.642 C 42.422 55.287,43.152 54.596,43.516 53.904 C 44.035 52.917,43.998 54.429,43.999 34.228 L 44.000 15.987 37.722 15.987 C 32.232 15.987,31.388 15.972,30.994 15.870 C 29.569 15.503,28.346 14.209,28.092 12.802 C 28.040 12.515,28.013 10.254,28.013 6.183 L 28.013 0.000 14.392 0.000 C 1.258 0.001,0.762 0.005,0.550 0.136 M31.989 5.665 C 32.012 11.885,31.987 11.576,32.506 11.860 C 32.726 11.981,33.150 11.991,38.335 12.010 C 41.410 12.021,43.927 12.005,43.927 11.973 C 43.927 11.899,32.100 0.073,32.026 0.073 C 31.995 0.073,31.978 2.590,31.989 5.665 M11.491 20.163 C 11.957 20.447,11.990 20.570,11.990 21.997 C 11.990 23.128,11.973 23.311,11.852 23.512 C 11.576 23.967,11.396 24.017,10.010 24.017 C 8.895 24.017,8.737 24.001,8.515 23.870 C 8.059 23.601,7.993 23.367,7.993 22.016 C 7.993 20.744,8.029 20.577,8.371 20.268 C 8.466 20.182,8.593 20.094,8.653 20.072 C 8.714 20.050,9.324 20.029,10.010 20.026 C 11.122 20.021,11.282 20.036,11.491 20.163 M35.604 20.240 C 35.974 20.586,36.007 20.729,36.007 22.016 C 36.007 23.367,35.941 23.601,35.485 23.870 C 35.240 24.015,35.105 24.017,25.997 24.017 C 17.207 24.017,16.745 24.010,16.513 23.883 C 16.084 23.650,15.990 23.312,15.988 22.000 C 15.987 20.715,16.052 20.481,16.494 20.186 L 16.744 20.018 26.076 20.038 L 35.408 20.057 35.604 20.240 M11.435 28.142 C 11.953 28.406,11.990 28.528,11.990 29.980 C 11.990 31.204,11.981 31.292,11.822 31.547 C 11.548 31.988,11.236 32.064,9.841 32.035 C 8.789 32.013,8.642 31.994,8.457 31.858 C 8.052 31.561,7.994 31.327,7.994 29.993 C 7.994 28.640,8.049 28.449,8.524 28.160 C 8.737 28.030,8.895 28.014,9.973 28.014 C 10.981 28.014,11.225 28.035,11.435 28.142 M35.501 28.180 C 35.944 28.476,36.006 28.706,36.006 30.030 C 36.006 31.324,35.946 31.563,35.543 31.858 C 35.337 32.010,35.310 32.010,26.156 32.030 C 15.985 32.053,16.543 32.078,16.189 31.583 C 16.035 31.366,16.022 31.262,16.002 30.103 C 15.978 28.696,16.031 28.488,16.493 28.180 L 16.742 28.013 25.997 28.013 L 35.252 28.013 35.501 28.180 M11.438 36.135 C 11.922 36.380,11.990 36.612,11.990 38.023 C 11.990 39.138,11.975 39.296,11.843 39.518 C 11.575 39.973,11.338 40.040,10.011 40.040 C 8.716 40.040,8.477 39.979,8.182 39.576 C 8.041 39.385,8.030 39.269,8.030 38.023 C 8.030 36.778,8.041 36.662,8.182 36.470 C 8.477 36.067,8.716 36.007,10.010 36.007 C 10.981 36.007,11.227 36.029,11.438 36.135 M35.415 36.135 C 35.553 36.206,35.735 36.357,35.818 36.470 C 35.959 36.662,35.970 36.778,35.970 38.023 C 35.970 39.269,35.959 39.385,35.818 39.576 C 35.735 39.690,35.553 39.841,35.415 39.912 C 35.179 40.032,34.579 40.040,25.997 40.040 C 17.414 40.040,16.814 40.032,16.579 39.912 C 16.440 39.841,16.259 39.690,16.175 39.576 C 16.035 39.385,16.023 39.269,16.023 38.024 C 16.023 36.778,16.035 36.662,16.175 36.470 C 16.259 36.357,16.440 36.206,16.579 36.135 C 16.814 36.015,17.414 36.007,25.997 36.007 C 34.579 36.007,35.179 36.015,35.415 36.135 " fill="#2B2C30" stroke="none" fill-rule="evenodd"></path></svg>