<svg width="44" height="56" viewBox="0 0 44 56" fill="none" xmlns="http://www.w3.org/2000/svg"><path d="M0.531 0.146 C 0.400 0.226,0.226 0.400,0.146 0.531 C 0.001 0.769,-0.000 0.918,0.018 26.803 L 0.037 52.837 0.193 53.244 C 0.455 53.929,0.640 54.237,1.064 54.695 C 1.548 55.217,2.039 55.546,2.685 55.781 L 3.160 55.953 21.992 55.953 C 40.647 55.953,40.828 55.952,41.251 55.806 C 42.425 55.402,43.299 54.543,43.773 53.326 L 43.963 52.837 43.983 34.412 L 44.002 15.987 37.710 15.987 C 30.780 15.987,31.010 16.001,30.109 15.528 C 29.540 15.229,28.772 14.462,28.476 13.897 C 28.000 12.988,28.013 13.200,28.013 6.278 L 28.013 0.000 14.392 0.000 C 0.929 0.001,0.767 0.002,0.531 0.146 M31.989 5.665 C 32.012 11.885,31.987 11.576,32.506 11.860 C 32.726 11.981,33.150 11.991,38.335 12.010 C 41.410 12.021,43.927 12.005,43.927 11.973 C 43.927 11.899,32.100 0.073,32.026 0.073 C 31.995 0.073,31.978 2.590,31.989 5.665 M23.615 20.097 C 25.209 20.294,26.797 20.767,28.167 21.452 C 29.679 22.209,30.772 22.997,31.945 24.177 C 36.090 28.349,37.168 34.639,34.657 39.999 C 33.336 42.818,30.942 45.239,28.121 46.608 C 24.204 48.510,19.739 48.494,15.803 46.564 C 13.449 45.410,11.375 43.508,10.009 41.250 C 6.745 35.855,7.528 28.893,11.907 24.362 C 14.183 22.008,16.995 20.561,20.124 20.136 C 21.029 20.013,22.777 19.993,23.615 20.097 M22.000 29.040 L 22.000 34.027 17.002 34.027 L 12.005 34.027 12.049 34.815 C 12.173 37.006,13.173 39.244,14.772 40.910 C 16.706 42.926,19.218 43.999,22.000 43.999 C 24.762 43.999,27.313 42.916,29.190 40.947 C 30.464 39.610,31.275 38.140,31.726 36.351 C 31.986 35.319,32.050 33.507,31.865 32.402 C 31.251 28.728,28.679 25.717,25.143 24.534 C 24.282 24.246,23.225 24.054,22.495 24.054 L 22.000 24.053 22.000 29.040 " fill="#2B2C30" stroke="none" fill-rule="evenodd"></path></svg>