<svg width="44" height="56" viewBox="0 0 44 56" fill="none" xmlns="http://www.w3.org/2000/svg"><path d="M0.531 0.146 C 0.400 0.226,0.226 0.400,0.146 0.531 C 0.001 0.769,-0.000 0.918,0.018 26.803 L 0.037 52.837 0.193 53.244 C 0.455 53.929,0.640 54.237,1.064 54.695 C 1.548 55.217,2.039 55.546,2.685 55.781 L 3.160 55.953 21.992 55.953 C 40.647 55.953,40.828 55.952,41.251 55.806 C 42.425 55.402,43.299 54.543,43.773 53.326 L 43.963 52.837 43.983 34.412 L 44.002 15.987 37.710 15.987 C 30.780 15.987,31.010 16.001,30.109 15.528 C 29.540 15.229,28.772 14.462,28.476 13.897 C 28.000 12.988,28.013 13.200,28.013 6.278 L 28.013 0.000 14.392 0.000 C 0.929 0.001,0.767 0.002,0.531 0.146 M31.989 5.665 C 32.012 11.885,31.987 11.576,32.506 11.860 C 32.726 11.981,33.150 11.991,38.335 12.010 C 41.410 12.021,43.927 12.005,43.927 11.973 C 43.927 11.899,32.100 0.073,32.026 0.073 C 31.995 0.073,31.978 2.590,31.989 5.665 M23.474 20.134 C 23.594 20.196,23.758 20.353,23.836 20.482 C 23.967 20.697,23.979 20.860,23.980 22.387 C 23.980 23.660,24.002 24.065,24.072 24.086 C 24.122 24.102,24.477 24.200,24.860 24.305 C 25.282 24.420,25.970 24.700,26.607 25.018 L 27.656 25.541 28.848 24.357 L 30.040 23.173 30.387 23.173 C 30.578 23.173,30.823 23.221,30.932 23.278 C 31.146 23.391,32.536 24.780,32.733 25.078 C 32.871 25.286,32.891 25.748,32.772 25.983 C 32.727 26.071,32.185 26.655,31.568 27.280 L 30.444 28.417 30.767 28.962 C 31.172 29.646,31.532 30.503,31.760 31.327 L 31.937 31.964 33.587 31.987 C 35.442 32.013,35.624 32.059,35.878 32.562 C 36.058 32.919,36.067 35.087,35.890 35.460 C 35.660 35.945,35.574 35.966,33.665 36.007 L 31.946 36.043 31.737 36.770 C 31.490 37.629,31.122 38.500,30.728 39.160 L 30.443 39.637 31.606 40.810 C 33.240 42.459,33.241 42.475,31.845 43.871 C 30.448 45.268,30.433 45.267,28.783 43.633 L 27.610 42.471 27.060 42.794 C 26.399 43.181,25.570 43.525,24.677 43.782 L 24.017 43.972 23.980 45.691 C 23.939 47.600,23.918 47.687,23.433 47.917 C 23.079 48.085,20.921 48.085,20.567 47.917 C 20.082 47.687,20.061 47.600,20.020 45.691 L 19.983 43.972 19.323 43.782 C 18.430 43.525,17.601 43.181,16.940 42.794 L 16.390 42.471 15.217 43.633 C 13.567 45.267,13.552 45.268,12.155 43.871 C 10.759 42.475,10.760 42.459,12.394 40.810 L 13.557 39.637 13.272 39.160 C 12.878 38.500,12.510 37.629,12.263 36.770 L 12.054 36.043 10.335 36.007 C 8.426 35.966,8.340 35.945,8.110 35.460 C 7.933 35.087,7.942 32.919,8.122 32.562 C 8.376 32.058,8.558 32.013,10.417 31.987 L 12.070 31.964 12.204 31.437 C 12.396 30.686,12.787 29.737,13.198 29.028 L 13.553 28.417 12.431 27.280 C 11.814 26.655,11.273 26.071,11.228 25.983 C 11.109 25.748,11.129 25.286,11.267 25.078 C 11.464 24.780,12.854 23.391,13.068 23.278 C 13.177 23.221,13.422 23.173,13.613 23.173 L 13.960 23.173 15.152 24.358 L 16.344 25.542 17.357 25.032 C 17.967 24.725,18.662 24.440,19.103 24.316 C 19.507 24.202,19.878 24.098,19.928 24.084 C 19.998 24.064,20.020 23.664,20.020 22.402 C 20.020 20.566,20.049 20.428,20.482 20.164 C 20.691 20.036,20.856 20.021,21.985 20.020 C 22.988 20.020,23.300 20.044,23.474 20.134 M20.876 28.130 C 18.964 28.476,17.190 29.926,16.457 31.742 C 16.111 32.597,16.028 33.054,16.033 34.063 C 16.037 34.881,16.066 35.110,16.237 35.677 C 16.857 37.729,18.440 39.272,20.497 39.829 C 20.951 39.952,21.289 39.988,22.000 39.988 C 22.711 39.988,23.049 39.952,23.503 39.829 C 25.603 39.261,27.204 37.661,27.806 35.530 C 28.019 34.773,28.038 33.360,27.845 32.642 C 27.540 31.513,27.111 30.728,26.370 29.940 C 24.936 28.416,22.937 27.758,20.876 28.130 " fill="#2B2C30" stroke="none" fill-rule="evenodd"></path></svg>