<svg width="44" height="56" viewBox="0 0 44 56" fill="none" xmlns="http://www.w3.org/2000/svg"><path d="M0.550 0.136 C 0.429 0.211,0.264 0.347,0.183 0.437 C 0.037 0.601,0.037 0.719,0.018 26.523 C -0.003 55.261,-0.043 52.902,0.484 53.903 C 0.848 54.597,1.577 55.287,2.322 55.642 L 2.897 55.917 22.000 55.917 L 41.103 55.917 41.678 55.642 C 42.422 55.287,43.152 54.596,43.516 53.904 C 44.035 52.917,43.998 54.429,43.999 34.228 L 44.000 15.987 37.722 15.987 C 32.232 15.987,31.388 15.972,30.994 15.870 C 29.569 15.503,28.346 14.209,28.092 12.802 C 28.040 12.515,28.013 10.254,28.013 6.183 L 28.013 0.000 14.392 0.000 C 1.258 0.001,0.762 0.005,0.550 0.136 M31.989 5.665 C 32.012 11.885,31.987 11.576,32.506 11.860 C 32.726 11.981,33.150 11.991,38.335 12.010 C 41.410 12.021,43.927 12.005,43.927 11.973 C 43.927 11.899,32.100 0.073,32.026 0.073 C 31.995 0.073,31.978 2.590,31.989 5.665 " fill="#2B2C30" stroke="none" fill-rule="evenodd"></path></svg>