<svg width="44" height="56" viewBox="0 0 44 56" fill="none" xmlns="http://www.w3.org/2000/svg"><path d="M0.550 0.136 C 0.429 0.211,0.264 0.347,0.183 0.437 C 0.037 0.601,0.037 0.719,0.018 26.523 C -0.003 55.261,-0.043 52.902,0.484 53.903 C 0.848 54.597,1.577 55.287,2.322 55.642 L 2.897 55.917 22.000 55.917 L 41.103 55.917 41.678 55.642 C 42.422 55.287,43.152 54.596,43.516 53.904 C 44.035 52.917,43.998 54.429,43.999 34.228 L 44.000 15.987 37.722 15.987 C 32.232 15.987,31.388 15.972,30.994 15.870 C 29.569 15.503,28.346 14.209,28.092 12.802 C 28.040 12.515,28.013 10.254,28.013 6.183 L 28.013 0.000 14.392 0.000 C 1.258 0.001,0.762 0.005,0.550 0.136 M31.989 5.665 C 32.012 11.885,31.987 11.576,32.506 11.860 C 32.726 11.981,33.150 11.991,38.335 12.010 C 41.410 12.021,43.927 12.005,43.927 11.973 C 43.927 11.899,32.100 0.073,32.026 0.073 C 31.995 0.073,31.978 2.590,31.989 5.665 M23.251 16.060 C 23.394 16.100,23.609 16.234,23.728 16.357 L 23.943 16.583 23.966 17.937 C 23.988 19.202,23.979 19.307,23.837 19.538 C 23.522 20.048,23.974 20.020,16.012 20.020 C 9.326 20.020,8.820 20.011,8.585 19.892 C 8.085 19.636,8.033 19.485,8.006 18.203 C 7.993 17.573,8.003 16.949,8.028 16.817 C 8.087 16.500,8.390 16.151,8.678 16.067 C 9.002 15.973,22.914 15.966,23.251 16.060 M35.553 24.202 C 35.941 24.439,36.007 24.700,36.007 26.013 C 36.006 27.319,35.942 27.552,35.501 27.847 L 35.252 28.013 22.007 28.013 C 8.921 28.013,8.760 28.011,8.524 27.867 C 8.050 27.578,7.994 27.385,7.994 26.049 C 7.993 24.697,8.056 24.440,8.447 24.202 C 8.688 24.055,8.779 24.054,22.000 24.054 C 35.221 24.054,35.312 24.055,35.553 24.202 M35.536 32.185 C 35.939 32.431,36.007 32.695,36.007 34.028 C 36.007 35.111,35.993 35.242,35.848 35.499 C 35.539 36.050,36.708 36.007,22.000 36.007 C 7.292 36.007,8.461 36.050,8.152 35.499 C 8.007 35.242,7.993 35.111,7.993 34.028 C 7.993 32.695,8.061 32.431,8.464 32.185 C 8.683 32.052,9.107 32.047,22.000 32.047 C 34.893 32.047,35.317 32.052,35.536 32.185 M35.507 40.168 C 35.930 40.415,36.007 40.701,36.007 42.020 C 36.007 43.339,35.930 43.625,35.507 43.872 C 35.300 43.993,34.522 44.000,22.000 44.000 C 9.478 44.000,8.700 43.993,8.493 43.872 C 8.068 43.624,7.993 43.341,7.996 42.005 C 8.000 40.682,8.059 40.457,8.474 40.184 C 8.686 40.044,8.942 40.041,21.989 40.040 C 34.522 40.040,35.300 40.047,35.507 40.168 " fill="#2B2C30" stroke="none" fill-rule="evenodd"></path></svg>