<svg width="44" height="56" viewBox="0 0 44 56" fill="none" xmlns="http://www.w3.org/2000/svg"><path d="M0.550 0.136 C 0.429 0.211,0.264 0.347,0.183 0.437 C 0.037 0.601,0.037 0.719,0.018 26.523 C -0.003 55.261,-0.043 52.902,0.484 53.903 C 0.848 54.597,1.577 55.287,2.322 55.642 L 2.897 55.917 22.000 55.917 L 41.103 55.917 41.678 55.642 C 42.422 55.287,43.152 54.596,43.516 53.904 C 44.035 52.917,43.998 54.429,43.999 34.228 L 44.000 15.987 37.722 15.987 C 32.232 15.987,31.388 15.972,30.994 15.870 C 29.569 15.503,28.346 14.209,28.092 12.802 C 28.040 12.515,28.013 10.254,28.013 6.183 L 28.013 0.000 14.392 0.000 C 1.258 0.001,0.762 0.005,0.550 0.136 M31.989 5.665 C 32.012 11.885,31.987 11.576,32.506 11.860 C 32.726 11.981,33.150 11.991,38.335 12.010 C 41.410 12.021,43.927 12.005,43.927 11.973 C 43.927 11.899,32.100 0.073,32.026 0.073 C 31.995 0.073,31.978 2.590,31.989 5.665 M23.567 24.206 C 23.948 24.505,23.941 24.436,23.980 28.343 L 24.017 32.010 27.731 32.047 C 31.313 32.082,31.450 32.089,31.607 32.230 C 31.938 32.530,31.973 32.701,31.973 34.027 C 31.973 35.424,31.926 35.610,31.511 35.863 C 31.287 36.000,31.117 36.006,27.628 36.006 L 23.980 36.007 23.980 39.655 C 23.979 43.144,23.973 43.314,23.836 43.538 C 23.583 43.953,23.397 44.000,22.000 44.000 C 20.603 44.000,20.417 43.953,20.164 43.538 C 20.027 43.314,20.021 43.144,20.020 39.655 L 20.020 36.007 16.386 36.007 C 12.376 36.007,12.457 36.016,12.170 35.545 C 12.043 35.336,12.027 35.170,12.027 34.041 C 12.027 32.700,12.061 32.531,12.393 32.230 C 12.550 32.089,12.687 32.082,16.269 32.047 L 19.983 32.010 20.020 28.343 C 20.059 24.436,20.052 24.505,20.433 24.206 C 20.613 24.064,20.720 24.053,22.000 24.053 C 23.280 24.053,23.387 24.064,23.567 24.206 " fill="#2B2C30" stroke="none" fill-rule="evenodd"></path></svg>