<svg width="44" height="56" viewBox="0 0 44 56" fill="none" xmlns="http://www.w3.org/2000/svg"><path d="M0.550 0.136 C 0.429 0.211,0.264 0.347,0.183 0.437 C 0.037 0.601,0.037 0.719,0.018 26.523 C -0.003 55.264,-0.043 52.902,0.484 53.904 C 0.858 54.616,1.500 55.230,2.266 55.609 L 2.886 55.917 21.994 55.917 L 41.103 55.917 41.678 55.642 C 42.422 55.287,43.152 54.596,43.516 53.904 C 44.035 52.917,43.998 54.429,43.999 34.228 L 44.000 15.987 37.722 15.987 C 32.232 15.987,31.388 15.972,30.994 15.870 C 29.569 15.503,28.346 14.209,28.092 12.802 C 28.040 12.515,28.013 10.254,28.013 6.183 L 28.013 0.000 14.392 0.000 C 1.258 0.001,0.762 0.005,0.550 0.136 M31.989 5.665 C 32.012 11.885,31.987 11.576,32.506 11.860 C 32.726 11.981,33.150 11.991,38.335 12.010 C 41.410 12.021,43.927 12.005,43.927 11.973 C 43.927 11.899,32.100 0.073,32.026 0.073 C 31.995 0.073,31.978 2.590,31.989 5.665 M18.102 25.869 L 19.668 27.392 16.688 30.683 C 15.049 32.494,13.718 34.004,13.730 34.039 C 13.741 34.074,15.071 35.589,16.684 37.405 C 18.297 39.221,19.617 40.734,19.617 40.766 C 19.617 40.798,18.842 41.539,17.896 42.412 C 16.551 43.652,16.156 43.979,16.089 43.908 C 15.923 43.729,8.535 35.011,8.285 34.697 C 7.956 34.286,7.930 33.817,8.213 33.426 C 8.314 33.287,10.141 31.122,12.273 28.614 L 16.149 24.055 16.343 24.200 C 16.449 24.281,17.241 25.032,18.102 25.869 M31.937 28.857 C 34.063 31.357,35.851 33.517,35.911 33.657 C 36.061 34.001,35.990 34.353,35.699 34.717 C 35.464 35.012,28.076 43.728,27.909 43.909 C 27.841 43.982,27.458 43.665,26.103 42.412 C 25.157 41.538,24.383 40.796,24.383 40.765 C 24.383 40.733,25.703 39.221,27.316 37.405 C 28.929 35.589,30.259 34.074,30.270 34.039 C 30.282 34.004,28.974 32.520,27.363 30.742 C 25.752 28.964,24.415 27.478,24.391 27.440 C 24.368 27.401,25.127 26.620,26.079 25.703 C 27.758 24.086,27.813 24.041,27.941 24.173 C 28.014 24.248,29.812 26.356,31.937 28.857 " fill="#2B2C30" stroke="none" fill-rule="evenodd"></path></svg>