<svg width="52" height="56" viewBox="0 0 52 56" fill="none" xmlns="http://www.w3.org/2000/svg"><path d="M24.506 0.136 C 23.976 0.423,24.007 -0.329,24.007 12.389 L 24.007 24.007 19.409 24.007 C 14.365 24.007,14.443 23.999,14.171 24.524 C 13.986 24.882,14.008 25.237,14.235 25.548 C 14.455 25.850,25.288 35.731,25.556 35.874 C 25.815 36.013,26.275 35.985,26.528 35.814 C 26.926 35.547,37.651 25.735,37.808 25.495 C 37.994 25.209,38.002 24.859,37.829 24.524 C 37.557 23.999,37.635 24.007,32.591 24.007 L 27.993 24.007 27.993 12.389 C 27.993 -0.373,28.027 0.416,27.476 0.131 C 27.118 -0.054,24.850 -0.051,24.506 0.136 M3.088 32.117 C 1.573 32.484,0.378 33.738,0.088 35.264 C -0.039 35.938,-0.032 52.187,0.097 52.797 C 0.259 53.569,0.595 54.168,1.207 54.778 C 1.817 55.385,2.422 55.724,3.189 55.888 C 3.846 56.029,48.154 56.029,48.811 55.888 C 49.580 55.724,50.183 55.386,50.791 54.778 C 51.399 54.169,51.737 53.567,51.902 52.797 C 52.032 52.190,52.041 35.946,51.912 35.264 C 51.698 34.140,50.898 33.028,49.931 32.513 C 48.982 32.007,48.725 31.983,44.330 31.982 C 42.137 31.982,40.250 32.007,40.135 32.038 C 40.021 32.069,36.959 34.745,33.332 37.985 C 29.705 41.225,26.607 43.932,26.448 43.999 C 26.223 44.094,26.094 44.101,25.871 44.027 C 25.692 43.968,23.032 41.697,18.826 38.012 C 15.109 34.756,11.976 32.068,11.863 32.037 C 11.749 32.007,9.843 31.985,7.627 31.988 C 4.459 31.993,3.488 32.021,3.088 32.117 " fill="#2B2C30" stroke="none" fill-rule="evenodd"></path></svg>