<svg width="24" height="56" viewBox="0 0 24 56" fill="none" xmlns="http://www.w3.org/2000/svg"><path d="M3.433 0.040 C 2.843 0.134,2.221 0.380,1.731 0.712 C 0.955 1.240,0.394 2.037,0.130 2.989 C 0.034 3.337,0.022 3.449,0.022 4.000 C 0.022 4.553,0.034 4.663,0.132 5.017 C 0.475 6.256,1.357 7.252,2.520 7.715 C 4.334 8.437,6.462 7.710,7.444 6.033 C 8.503 4.224,7.985 1.878,6.269 0.712 C 5.917 0.473,5.343 0.214,4.958 0.120 C 4.572 0.026,3.783 -0.016,3.433 0.040 M19.420 0.044 C 18.618 0.159,17.768 0.588,17.178 1.178 C 15.253 3.103,15.781 6.344,18.220 7.570 C 19.744 8.336,21.612 8.032,22.822 6.822 C 24.377 5.267,24.377 2.733,22.822 1.178 C 21.936 0.292,20.660 -0.133,19.420 0.044 M3.420 16.044 C 2.618 16.159,1.768 16.588,1.178 17.178 C -0.378 18.734,-0.378 21.266,1.178 22.822 C 2.733 24.377,5.267 24.377,6.822 22.822 C 8.377 21.267,8.377 18.733,6.822 17.178 C 5.936 16.292,4.660 15.867,3.420 16.044 M19.420 16.044 C 18.618 16.159,17.768 16.588,17.178 17.178 C 15.622 18.734,15.622 21.266,17.178 22.822 C 18.733 24.377,21.267 24.377,22.822 22.822 C 24.377 21.267,24.377 18.733,22.822 17.178 C 21.936 16.292,20.660 15.867,19.420 16.044 M3.420 32.044 C 2.618 32.159,1.768 32.588,1.178 33.178 C -0.378 34.734,-0.378 37.266,1.178 38.822 C 2.733 40.377,5.267 40.377,6.822 38.822 C 8.377 37.267,8.377 34.733,6.822 33.178 C 5.936 32.292,4.660 31.867,3.420 32.044 M19.420 32.044 C 18.618 32.159,17.768 32.588,17.178 33.178 C 15.622 34.734,15.622 37.266,17.178 38.822 C 18.733 40.377,21.267 40.377,22.822 38.822 C 24.377 37.267,24.377 34.733,22.822 33.178 C 21.936 32.292,20.660 31.867,19.420 32.044 M3.420 48.044 C 2.618 48.159,1.768 48.588,1.178 49.178 C -0.747 51.103,-0.219 54.344,2.220 55.570 C 3.744 56.336,5.612 56.032,6.822 54.822 C 8.377 53.267,8.377 50.733,6.822 49.178 C 5.936 48.292,4.660 47.867,3.420 48.044 M19.420 48.044 C 18.618 48.159,17.768 48.588,17.178 49.178 C 15.253 51.103,15.781 54.344,18.220 55.570 C 19.744 56.336,21.612 56.032,22.822 54.822 C 24.377 53.267,24.377 50.733,22.822 49.178 C 21.936 48.292,20.660 47.867,19.420 48.044 " fill="#2B2C30" stroke="none" fill-rule="evenodd"></path></svg>