<svg width="52" height="52" viewBox="0 0 52 52" fill="none" xmlns="http://www.w3.org/2000/svg"><path d="M45.630 0.081 C 45.535 0.124,39.694 5.925,32.652 12.972 L 19.846 25.784 23.032 28.969 L 26.217 32.153 39.061 19.305 C 47.876 10.486,51.922 6.382,51.961 6.218 C 51.993 6.087,51.993 5.873,51.960 5.742 C 51.922 5.586,50.968 4.566,49.195 2.789 C 46.678 0.266,46.463 0.072,46.145 0.038 C 45.957 0.018,45.725 0.038,45.630 0.081 M0.499 3.776 C -0.040 4.068,-0.000 2.164,-0.000 27.781 C -0.000 48.883,0.013 51.178,0.137 51.439 C 0.427 52.049,-1.690 52.000,24.219 52.000 C 44.938 52.000,47.617 51.985,47.843 51.869 C 48.400 51.581,48.360 52.989,48.360 33.480 L 48.360 15.731 36.292 27.793 C 24.427 39.652,24.217 39.856,23.833 39.909 C 23.619 39.938,21.064 39.951,18.157 39.936 C 13.406 39.913,12.843 39.895,12.605 39.765 C 12.079 39.476,12.092 39.629,12.064 33.843 C 12.049 30.936,12.062 28.381,12.091 28.167 C 12.144 27.783,12.348 27.573,24.207 15.708 L 36.269 3.640 18.503 3.643 C 2.958 3.647,0.707 3.663,0.499 3.776 M16.528 29.101 L 16.120 29.516 16.120 32.698 L 16.120 35.880 19.308 35.880 L 22.497 35.880 22.925 35.445 L 23.353 35.010 20.192 31.849 C 18.453 30.110,17.010 28.687,16.984 28.687 C 16.958 28.687,16.753 28.873,16.528 29.101 " fill="#2B2C30" stroke="none" fill-rule="evenodd"></path></svg>