<svg width="48" height="64" viewBox="0 0 48 64" fill="none" xmlns="http://www.w3.org/2000/svg"><path d="M22.320 0.081 C 16.002 0.740,10.336 4.430,6.167 10.600 C -1.071 21.313,-2.040 37.171,3.805 49.270 C 4.577 50.868,5.043 51.686,6.045 53.200 C 9.546 58.493,14.238 62.077,19.400 63.399 C 21.203 63.861,21.992 63.957,24.000 63.957 C 26.008 63.957,26.797 63.861,28.600 63.399 C 33.760 62.077,38.456 58.491,41.955 53.200 C 42.957 51.686,43.423 50.868,44.195 49.270 C 46.149 45.224,47.364 40.726,47.855 35.720 C 47.990 34.352,47.990 29.648,47.855 28.280 C 46.868 18.208,42.718 9.670,36.317 4.542 C 33.443 2.239,30.016 0.701,26.640 0.200 C 25.622 0.049,23.253 -0.016,22.320 0.081 " fill="#2B2C30" stroke="none" fill-rule="evenodd"></path></svg>