<svg width="56" height="12" viewBox="0 0 56 12" fill="none" xmlns="http://www.w3.org/2000/svg"><path d="M4.807 0.140 C 2.629 0.626,0.994 2.082,0.307 4.146 C 0.091 4.796,0.056 5.054,0.056 6.020 C 0.056 6.986,0.091 7.244,0.307 7.894 C 0.906 9.693,2.318 11.118,4.089 11.707 C 4.707 11.913,4.971 11.947,5.980 11.947 C 7.864 11.947,8.946 11.507,10.221 10.225 C 11.419 9.020,11.975 7.687,11.975 6.020 C 11.975 4.352,11.419 3.019,10.221 1.812 C 9.632 1.220,9.301 0.974,8.679 0.667 C 7.400 0.037,6.076 -0.144,4.807 0.140 M26.756 0.152 C 24.975 0.534,23.502 1.675,22.679 3.310 C 21.057 6.535,22.590 10.405,26.000 11.691 C 26.486 11.875,26.729 11.900,28.000 11.900 C 29.271 11.900,29.514 11.875,30.000 11.691 C 30.867 11.364,31.531 10.929,32.245 10.220 C 34.052 8.427,34.487 5.628,33.321 3.310 C 32.096 0.875,29.409 -0.417,26.756 0.152 M49.140 0.059 C 46.966 0.395,45.003 2.050,44.325 4.118 C 44.134 4.703,44.100 4.989,44.100 6.020 C 44.100 7.051,44.134 7.337,44.325 7.922 C 44.777 9.300,45.925 10.653,47.211 11.322 C 48.178 11.825,48.731 11.947,50.041 11.945 C 51.061 11.944,51.280 11.914,51.945 11.682 C 56.153 10.218,57.341 4.892,54.169 1.720 C 53.162 0.713,51.728 0.098,50.265 0.046 C 49.800 0.029,49.294 0.035,49.140 0.059 " fill="#2B2C30" stroke="none" fill-rule="evenodd"></path></svg>