<svg width="12" height="56" viewBox="0 0 12 56" fill="none" xmlns="http://www.w3.org/2000/svg"><path d="M5.600 0.013 C 3.838 0.144,2.268 0.996,1.206 2.395 C 0.226 3.687,-0.186 5.367,0.081 6.986 C 0.382 8.814,1.538 10.420,3.186 11.300 C 3.767 11.610,4.459 11.835,5.160 11.943 C 5.574 12.007,6.420 12.008,6.820 11.945 C 8.278 11.718,9.518 11.061,10.448 10.021 C 11.272 9.100,11.749 8.082,11.945 6.820 C 12.007 6.428,12.007 5.572,11.945 5.180 C 11.779 4.111,11.399 3.193,10.795 2.396 C 9.803 1.089,8.385 0.266,6.750 0.050 C 6.516 0.019,5.820 -0.004,5.600 0.013 M5.530 22.019 C 4.064 22.152,2.772 22.749,1.758 23.763 C 0.000 25.521,-0.489 28.191,0.530 30.461 C 0.858 31.192,1.407 31.946,1.979 32.450 C 2.937 33.295,3.994 33.779,5.260 33.953 C 5.569 33.995,6.355 34.001,6.650 33.963 C 7.686 33.831,8.501 33.534,9.324 32.988 C 11.431 31.591,12.429 29.014,11.818 26.550 C 11.459 25.104,10.564 23.835,9.324 23.012 C 8.522 22.480,7.720 22.181,6.740 22.049 C 6.470 22.013,5.787 21.996,5.530 22.019 M5.530 44.019 C 4.622 44.101,3.780 44.359,3.048 44.780 C 1.602 45.610,0.578 46.957,0.182 48.550 C 0.055 49.062,0.012 49.429,0.012 50.000 C 0.012 50.571,0.055 50.938,0.182 51.450 C 0.673 53.426,2.158 55.038,4.080 55.681 C 4.724 55.897,5.299 55.989,6.000 55.989 C 7.224 55.989,8.306 55.663,9.324 54.988 C 11.431 53.591,12.429 51.014,11.818 48.550 C 11.459 47.104,10.564 45.835,9.324 45.012 C 8.522 44.480,7.720 44.181,6.740 44.049 C 6.470 44.013,5.787 43.996,5.530 44.019 " fill="#2B2C30" stroke="none" fill-rule="evenodd"></path></svg>