<svg width="56" height="40" viewBox="0 0 56 40" fill="none" xmlns="http://www.w3.org/2000/svg"><path d="M3.242 0.081 C 2.999 0.137,3.690 0.846,15.492 12.647 L 28.000 25.153 40.508 12.647 C 52.310 0.846,53.001 0.137,52.758 0.081 C 52.421 0.004,3.579 0.004,3.242 0.081 M0.061 3.327 C -0.016 3.794,0.003 36.459,0.081 36.798 C 0.137 37.042,0.608 36.588,8.657 28.538 L 17.173 20.020 8.647 11.494 L 0.121 2.968 0.061 3.327 M47.343 11.502 L 38.827 20.020 47.353 28.546 L 55.879 37.072 55.939 36.713 C 56.016 36.246,55.997 3.581,55.919 3.242 C 55.863 2.998,55.392 3.452,47.343 11.502 M11.479 31.407 L 2.940 39.947 28.000 39.947 L 53.060 39.947 44.521 31.407 L 35.982 22.868 32.198 26.647 L 28.415 30.427 28.000 30.427 L 27.585 30.427 23.802 26.647 L 20.018 22.868 11.479 31.407 " fill="#2B2C30" stroke="none" fill-rule="evenodd"></path></svg>