<svg width="32" height="56" viewBox="0 0 32 56" fill="none" xmlns="http://www.w3.org/2000/svg"><path d="M10.424 0.100 C 10.072 0.260,9.960 0.450,9.612 1.475 C 9.435 1.999,7.207 8.535,4.662 16.000 C 0.080 29.437,0.033 29.578,0.030 30.000 C 0.027 30.375,0.047 30.468,0.197 30.773 C 0.476 31.342,0.901 31.715,1.474 31.892 C 1.816 31.997,1.952 32.000,6.908 32.000 L 11.991 32.000 7.996 43.985 C 5.545 51.338,4.040 55.929,4.101 55.865 C 4.156 55.807,10.222 48.632,17.581 39.920 C 24.940 31.208,31.114 23.900,31.300 23.680 C 31.913 22.958,32.101 22.346,31.924 21.653 C 31.751 20.973,31.363 20.502,30.720 20.193 L 30.373 20.027 25.189 20.000 L 20.004 19.973 23.954 11.387 C 26.714 5.385,27.921 2.706,27.962 2.489 C 28.116 1.672,27.701 0.768,26.971 0.330 C 26.393 -0.017,26.872 0.001,18.373 0.002 C 10.985 0.002,10.630 0.007,10.424 0.100 " fill="#2B2C30" stroke="none" fill-rule="evenodd"></path></svg>