<svg width="52" height="52" viewBox="0 0 52 52" fill="none" xmlns="http://www.w3.org/2000/svg"><path d="M19.153 0.095 C 17.613 0.396,16.195 1.939,16.057 3.463 L 16.009 3.987 32.011 3.987 L 48.013 3.987 48.013 19.933 L 48.013 35.880 48.255 35.880 C 48.606 35.880,49.435 35.650,49.854 35.436 C 50.353 35.182,51.175 34.378,51.475 33.849 C 52.030 32.876,52.000 33.790,51.999 17.927 C 51.998 5.708,51.979 3.439,51.874 3.045 C 51.481 1.567,50.281 0.413,48.811 0.098 C 48.251 -0.022,19.766 -0.025,19.153 0.095 M11.657 8.030 C 9.706 8.278,8.326 9.594,8.072 11.447 L 8.002 11.960 23.999 11.981 L 39.997 12.003 40.019 27.928 L 40.040 43.853 40.328 43.853 C 40.486 43.853,40.827 43.791,41.086 43.715 C 42.651 43.256,43.744 41.948,43.944 40.293 C 44.002 39.817,44.024 34.659,44.008 25.437 L 43.983 11.310 43.782 10.751 C 43.321 9.475,42.523 8.679,41.241 8.216 L 40.690 8.017 26.303 8.007 C 18.391 8.002,11.800 8.012,11.657 8.030 M3.216 15.954 C 2.164 16.160,1.031 16.994,0.534 17.928 C -0.033 18.991,-0.000 18.002,0.001 33.797 C 0.003 49.582,-0.025 48.751,0.532 49.724 C 0.872 50.318,1.492 50.937,2.048 51.239 C 3.025 51.768,2.133 51.740,18.023 51.739 C 29.870 51.738,32.623 51.717,32.977 51.622 C 33.988 51.351,34.805 50.762,35.364 49.901 C 36.019 48.892,35.977 50.050,35.949 33.579 L 35.923 18.841 35.583 18.152 C 35.198 17.372,34.602 16.731,33.918 16.361 C 32.953 15.838,33.716 15.862,17.983 15.871 C 10.071 15.875,3.425 15.913,3.216 15.954 M19.999 27.452 L 20.022 31.893 24.484 31.893 L 28.947 31.893 28.947 33.887 L 28.947 35.880 24.483 35.880 L 20.020 35.880 20.020 40.300 L 20.020 44.720 18.027 44.720 L 16.033 44.720 16.033 40.300 L 16.033 35.880 11.613 35.880 L 7.193 35.880 7.193 33.887 L 7.193 31.895 11.592 31.872 L 15.990 31.850 16.012 27.407 L 16.035 22.963 18.006 22.987 L 19.977 23.010 19.999 27.452 " fill="#2B2C30" stroke="none" fill-rule="evenodd"></path></svg>