<svg width="48" height="48" viewBox="0 0 48 48" fill="none" xmlns="http://www.w3.org/2000/svg"><path d="M30.969 0.137 C 30.785 0.228,30.648 0.383,30.543 0.619 C 30.263 1.252,30.236 1.217,33.828 4.820 L 37.078 8.081 26.584 18.580 C 15.276 29.895,15.852 29.275,16.079 29.881 C 16.180 30.152,17.687 31.711,18.016 31.886 C 18.274 32.022,18.586 32.032,18.825 31.912 C 18.921 31.863,23.707 27.120,29.460 21.372 L 39.920 10.920 43.140 14.132 C 44.911 15.898,46.445 17.387,46.550 17.440 C 47.015 17.676,47.652 17.469,47.869 17.011 C 47.988 16.762,48.000 15.976,48.000 8.748 C 47.999 0.967,47.995 0.753,47.843 0.504 C 47.517 -0.031,48.039 -0.000,39.224 0.002 C 31.928 0.003,31.217 0.015,30.969 0.137 M3.240 12.083 C 1.844 12.369,0.743 13.325,0.212 14.712 L 0.040 15.160 0.040 30.000 L 0.040 44.840 0.216 45.300 C 0.662 46.469,1.532 47.337,2.712 47.788 L 3.160 47.960 18.000 47.960 L 32.840 47.960 33.300 47.784 C 34.469 47.338,35.337 46.468,35.788 45.288 L 35.960 44.840 35.981 33.720 C 36.000 23.242,35.993 22.584,35.861 22.320 C 35.675 21.951,35.222 21.724,34.817 21.797 C 34.554 21.844,33.608 22.761,26.640 29.717 C 22.306 34.043,18.681 37.623,18.585 37.672 C 18.489 37.720,18.274 37.760,18.107 37.760 C 17.814 37.760,17.680 37.637,14.056 34.020 C 11.995 31.963,10.254 30.177,10.187 30.050 C 9.888 29.484,9.505 29.908,18.036 21.360 C 24.297 15.087,25.909 13.429,25.946 13.232 C 26.034 12.749,25.802 12.283,25.386 12.109 C 25.170 12.019,23.281 12.001,14.343 12.009 C 8.412 12.014,3.416 12.047,3.240 12.083 " fill="#2B2C30" stroke="none" fill-rule="evenodd"></path></svg>