<svg width="58" height="42" viewBox="0 0 58 42" fill="none" xmlns="http://www.w3.org/2000/svg"><path d="M46.980 0.067 C 46.900 0.095,45.368 1.580,43.575 3.366 L 40.316 6.615 39.902 6.494 C 35.922 5.330,32.948 4.891,29.048 4.893 C 26.542 4.895,24.974 5.018,22.912 5.375 C 15.060 6.734,7.854 10.694,2.438 16.625 C 0.996 18.204,0.432 19.008,0.177 19.848 C -0.228 21.182,0.087 22.353,1.224 23.732 C 1.979 24.647,4.191 26.909,5.317 27.916 C 7.262 29.655,10.085 31.599,12.301 32.726 C 12.899 33.031,13.408 33.297,13.431 33.318 C 13.455 33.339,12.294 34.540,10.851 35.987 C 9.398 37.445,8.180 38.746,8.120 38.905 C 8.061 39.062,8.039 39.301,8.072 39.436 C 8.105 39.571,8.552 40.106,9.066 40.624 C 10.085 41.651,10.384 41.800,10.887 41.533 C 11.040 41.452,19.842 32.706,30.448 22.097 L 49.731 2.808 49.731 2.413 C 49.731 2.040,49.675 1.964,48.709 1.009 C 47.670 -0.017,47.492 -0.114,46.980 0.067 M42.515 15.636 L 37.131 21.025 37.027 21.795 C 36.772 23.678,36.094 25.092,34.810 26.423 C 33.470 27.811,31.795 28.617,29.768 28.851 L 29.232 28.912 25.625 32.520 C 23.641 34.505,22.056 36.152,22.103 36.181 C 22.254 36.274,24.749 36.624,26.095 36.742 C 27.759 36.887,32.027 36.802,33.543 36.594 C 40.643 35.619,46.758 32.952,52.169 28.472 C 53.457 27.405,55.697 25.168,56.579 24.068 C 58.434 21.754,58.449 20.014,56.635 17.732 C 55.300 16.052,52.861 13.728,50.795 12.168 C 49.717 11.354,48.091 10.247,47.974 10.247 C 47.932 10.247,45.475 12.672,42.515 15.636 M30.999 13.092 C 31.615 13.242,32.963 13.803,32.963 13.909 C 32.963 13.942,30.525 16.405,27.545 19.382 C 21.392 25.530,22.078 25.045,21.562 23.619 C 21.167 22.529,21.038 21.624,21.103 20.397 C 21.297 16.700,23.904 13.730,27.598 12.995 C 28.417 12.833,30.134 12.881,30.999 13.092 " fill="#2B2C30" stroke="none" fill-rule="evenodd"></path></svg>