<svg width="58" height="32" viewBox="0 0 58 32" fill="none" xmlns="http://www.w3.org/2000/svg"><path d="M27.018 0.057 C 21.622 0.472,17.612 1.522,13.195 3.678 C 9.573 5.446,6.625 7.572,3.622 10.579 C 1.634 12.571,0.774 13.601,0.347 14.500 C 0.080 15.061,0.049 15.222,0.053 15.998 C 0.060 17.594,0.560 18.352,3.623 21.414 C 5.959 23.750,7.833 25.240,10.391 26.795 C 14.852 29.507,19.845 31.193,25.278 31.823 C 26.670 31.985,31.330 31.985,32.722 31.823 C 41.286 30.830,48.752 27.206,54.639 21.185 C 56.840 18.935,57.591 17.841,57.817 16.560 C 58.099 14.956,57.357 13.596,54.724 10.896 C 48.851 4.873,41.356 1.193,33.012 0.237 C 31.788 0.097,27.988 -0.017,27.018 0.057 M31.075 8.268 C 32.780 8.737,34.449 9.885,35.436 11.268 C 36.435 12.667,36.962 14.302,36.962 15.998 C 36.962 17.289,36.729 18.293,36.154 19.478 C 35.343 21.149,34.133 22.377,32.528 23.157 C 27.957 25.379,22.556 22.897,21.256 17.976 C 20.955 16.837,20.953 15.165,21.252 14.033 C 22.050 11.016,24.565 8.661,27.562 8.126 C 28.300 7.994,30.383 8.079,31.075 8.268 " fill="#2B2C30" stroke="none" fill-rule="evenodd"></path></svg>