<svg width="60" height="57" viewBox="0 0 60 57" fill="none" xmlns="http://www.w3.org/2000/svg"><path d="M1.379 0.099 C 0.739 0.292,0.196 0.900,0.051 1.584 C -0.142 2.493,-0.585 1.810,10.057 17.007 L 20.000 31.206 20.002 40.278 C 20.004 48.895,20.014 49.370,20.190 49.750 C 20.291 49.970,20.504 50.271,20.662 50.418 C 20.847 50.591,23.182 51.634,27.210 53.343 C 32.561 55.614,33.543 56.000,33.964 56.000 C 34.630 56.000,35.267 55.666,35.649 55.116 L 35.950 54.683 36.000 42.866 L 36.050 31.050 45.922 16.973 C 52.691 7.321,55.828 2.767,55.905 2.482 C 56.140 1.607,55.710 0.673,54.882 0.260 L 54.361 0.000 28.005 0.009 C 13.510 0.013,1.528 0.054,1.379 0.099 M42.050 36.096 C 41.940 36.142,41.428 36.611,40.912 37.140 C 39.512 38.573,39.293 38.142,43.616 42.466 L 47.146 45.997 43.631 49.524 C 41.327 51.835,40.091 53.145,40.047 53.325 C 39.928 53.802,40.091 54.114,40.881 54.928 C 41.731 55.802,42.032 56.000,42.514 56.000 C 42.807 56.000,43.187 55.653,46.420 52.428 L 50.001 48.855 53.579 52.428 C 56.821 55.665,57.187 56.000,57.483 56.000 C 57.968 56.000,58.268 55.803,59.119 54.928 C 59.909 54.114,60.072 53.802,59.953 53.325 C 59.909 53.145,58.673 51.835,56.369 49.524 L 52.854 45.997 56.316 42.524 C 58.221 40.613,59.833 38.944,59.899 38.814 C 60.134 38.351,59.951 37.997,58.975 37.029 C 58.002 36.065,57.730 35.918,57.246 36.100 C 57.078 36.163,55.449 37.709,53.475 39.679 L 50.000 43.146 46.525 39.679 C 44.614 37.772,42.923 36.164,42.768 36.106 C 42.442 35.983,42.325 35.982,42.050 36.096 " fill="#2B2C30" stroke="none" fill-rule="evenodd"></path></svg>