<svg width="40" height="48" viewBox="0 0 40 48" fill="none" xmlns="http://www.w3.org/2000/svg"><path d="M8.040 1.075 C 7.846 5.640,7.049 9.044,5.186 13.267 C 4.967 13.762,4.135 15.502,3.336 17.133 C 1.716 20.442,1.411 21.138,0.893 22.706 C 0.221 24.742,-0.045 26.564,0.021 28.667 C 0.118 31.725,0.760 34.309,2.103 37.042 C 4.001 40.906,7.197 44.076,11.100 45.967 C 17.785 49.205,25.846 48.520,31.800 44.208 C 35.864 41.266,38.615 36.980,39.594 32.067 C 39.902 30.524,39.966 29.835,39.965 28.100 C 39.965 25.980,39.784 24.861,39.141 22.999 C 38.608 21.454,37.994 20.250,36.199 17.233 C 34.588 14.526,33.764 12.833,33.133 10.934 C 32.549 9.179,32.187 7.104,32.093 4.988 L 32.047 3.943 31.724 4.071 C 30.757 4.451,29.885 5.039,29.064 5.863 C 28.010 6.921,27.325 7.970,26.072 10.450 C 25.659 11.266,25.297 11.933,25.266 11.933 C 25.236 11.933,24.967 11.590,24.670 11.171 C 22.741 8.452,20.387 5.908,18.067 4.032 C 16.509 2.773,14.212 1.435,12.587 0.838 C 11.408 0.405,10.054 0.121,8.726 0.028 L 8.086 -0.017 8.040 1.075 M16.457 13.638 C 17.533 14.924,18.216 15.885,21.697 21.017 C 23.631 23.867,25.236 26.200,25.262 26.200 C 25.288 26.200,26.131 24.985,27.135 23.501 C 28.140 22.016,28.984 20.824,29.012 20.852 C 29.187 21.027,30.919 24.072,31.246 24.780 C 32.058 26.539,32.202 28.271,31.727 30.593 C 31.112 33.604,29.227 36.369,26.633 38.065 C 23.127 40.357,18.395 40.624,14.533 38.747 C 11.802 37.419,9.619 34.917,8.646 31.998 C 8.035 30.164,7.847 27.941,8.169 26.357 C 8.432 25.065,8.867 24.032,10.885 19.900 C 12.683 16.219,13.393 14.556,14.168 12.203 L 14.420 11.439 15.162 12.207 C 15.570 12.629,16.153 13.273,16.457 13.638 " fill="#2B2C30" stroke="none" fill-rule="evenodd"></path></svg>