<svg width="56" height="48" viewBox="0 0 56 48" fill="none" xmlns="http://www.w3.org/2000/svg"><path d="M3.010 0.144 C 1.598 0.524,0.504 1.617,0.130 3.019 C -0.058 3.725,-0.061 44.237,0.127 44.940 C 0.308 45.619,0.613 46.164,1.102 46.688 C 1.616 47.237,2.139 47.559,2.905 47.797 C 3.452 47.968,4.236 47.973,28.000 47.973 C 51.764 47.973,52.548 47.968,53.095 47.797 C 53.861 47.559,54.384 47.237,54.898 46.688 C 55.386 46.166,55.632 45.728,55.850 44.993 C 55.986 44.534,56.000 42.560,56.000 23.978 C 56.000 4.153,55.994 3.451,55.824 2.905 C 55.586 2.139,55.264 1.616,54.714 1.102 C 54.174 0.596,53.690 0.332,52.950 0.140 C 52.164 -0.065,3.770 -0.061,3.010 0.144 M15.960 6.020 L 15.960 8.027 11.993 8.027 L 8.027 8.027 8.027 11.993 L 8.027 15.960 6.020 15.960 L 4.013 15.960 4.013 9.987 L 4.013 4.013 9.987 4.013 L 15.960 4.013 15.960 6.020 M51.987 9.987 L 51.987 15.960 49.980 15.960 L 47.973 15.960 47.973 11.993 L 47.973 8.027 44.007 8.027 L 40.040 8.027 40.040 6.020 L 40.040 4.013 46.013 4.013 L 51.987 4.013 51.987 9.987 M8.027 35.980 L 8.027 39.947 11.993 39.947 L 15.960 39.947 15.960 41.953 L 15.960 43.960 9.987 43.960 L 4.013 43.960 4.013 37.987 L 4.013 32.013 6.020 32.013 L 8.027 32.013 8.027 35.980 M51.987 37.987 L 51.987 43.960 46.013 43.960 L 40.040 43.960 40.040 41.953 L 40.040 39.947 44.007 39.947 L 47.973 39.947 47.973 35.980 L 47.973 32.013 49.980 32.013 L 51.987 32.013 51.987 37.987 " fill="#2B2C30" stroke="none" fill-rule="evenodd"></path></svg>