<svg width="48" height="49" viewBox="0 0 48 49" fill="none" xmlns="http://www.w3.org/2000/svg"><path d="M0.582 0.119 C 0.439 0.180,0.251 0.350,0.162 0.495 C 0.001 0.759,0.001 0.840,0.000 23.988 C -0.000 49.512,-0.039 47.561,0.474 47.864 C 0.814 48.065,3.186 48.065,3.526 47.864 C 4.039 47.561,4.000 49.508,4.000 24.028 C 4.000 2.112,3.992 0.825,3.860 0.560 C 3.623 0.086,3.334 -0.000,2.000 0.003 C 1.186 0.005,0.763 0.040,0.582 0.119 M16.120 0.088 C 12.945 0.323,8.947 1.277,8.240 1.968 L 8.040 2.164 8.020 15.422 C 8.000 28.540,8.001 28.683,8.159 28.941 C 8.540 29.564,9.067 29.643,10.320 29.263 C 12.804 28.510,16.186 28.085,18.880 28.187 C 21.483 28.285,23.412 28.698,27.920 30.123 C 32.413 31.542,34.298 31.910,37.418 31.978 C 39.549 32.024,40.793 31.942,42.600 31.639 C 44.930 31.247,47.303 30.558,47.720 30.151 L 47.960 29.917 47.984 16.738 C 48.000 7.464,47.981 3.471,47.921 3.261 C 47.806 2.866,47.367 2.560,46.914 2.560 C 46.733 2.560,46.372 2.634,46.113 2.725 C 44.874 3.158,42.652 3.638,40.880 3.857 C 39.601 4.014,36.270 3.989,35.080 3.813 C 33.136 3.525,31.478 3.107,28.369 2.121 C 25.627 1.252,25.032 1.075,23.800 0.767 C 21.066 0.084,18.835 -0.113,16.120 0.088 " fill="#2B2C30" stroke="none" fill-rule="evenodd"></path></svg>