<svg width="56" height="48" viewBox="0 0 56 48" fill="none" xmlns="http://www.w3.org/2000/svg"><path d="M3.010 0.144 C 1.598 0.524,0.504 1.617,0.130 3.019 C 0.025 3.415,0.002 5.671,0.001 15.750 L 0.000 28.000 11.993 28.000 L 23.987 28.000 23.987 24.402 C 23.987 20.438,23.992 20.400,24.560 20.107 C 25.167 19.792,25.109 19.747,30.649 24.746 C 34.048 27.813,35.860 29.510,35.920 29.683 C 36.028 29.991,35.969 30.307,35.757 30.557 C 35.638 30.697,27.206 38.338,25.736 39.637 C 25.266 40.052,24.776 40.066,24.338 39.674 L 24.033 39.402 24.007 35.708 L 23.980 32.013 11.990 32.013 L 0.000 32.013 0.001 38.243 C 0.002 43.222,0.028 44.570,0.130 44.954 C 0.503 46.354,1.623 47.470,3.033 47.846 C 3.737 48.034,52.274 48.031,52.981 47.843 C 54.007 47.570,55.066 46.743,55.514 45.864 C 56.032 44.850,56.005 45.908,55.978 27.762 L 55.953 11.060 55.737 10.551 C 55.252 9.408,54.335 8.556,53.219 8.212 C 52.636 8.031,52.323 8.027,41.214 8.027 L 29.807 8.027 27.881 4.690 C 25.361 0.326,25.506 0.543,24.912 0.247 L 24.417 0.000 13.958 0.006 C 5.254 0.011,3.418 0.034,3.010 0.144 " fill="#2B2C30" stroke="none" fill-rule="evenodd"></path></svg>