<svg width="56" height="48" viewBox="0 0 56 48" fill="none" xmlns="http://www.w3.org/2000/svg"><path d="M3.010 0.144 C 1.598 0.524,0.504 1.617,0.130 3.019 C -0.061 3.736,-0.061 44.238,0.130 44.954 C 0.503 46.354,1.623 47.470,3.033 47.846 C 3.737 48.034,52.274 48.031,52.981 47.843 C 54.007 47.570,55.066 46.743,55.514 45.864 C 56.032 44.850,56.005 45.908,55.978 27.762 L 55.953 11.060 55.737 10.551 C 55.252 9.408,54.335 8.556,53.219 8.212 C 52.636 8.031,52.323 8.027,41.214 8.027 L 29.807 8.027 27.881 4.690 C 25.361 0.326,25.506 0.543,24.912 0.247 L 24.417 0.000 13.958 0.006 C 5.254 0.011,3.418 0.034,3.010 0.144 M28.934 20.120 C 30.492 20.474,31.656 21.745,31.936 23.397 C 32.151 24.668,31.661 26.044,30.678 26.933 C 28.376 29.013,24.769 27.837,24.108 24.791 C 23.974 24.171,23.967 23.970,24.064 23.397 C 24.338 21.779,25.442 20.542,26.969 20.144 C 27.743 19.942,28.130 19.937,28.934 20.120 M24.097 28.506 C 26.235 30.441,29.767 30.439,31.908 28.502 C 32.470 27.993,32.474 27.991,32.848 28.092 C 33.235 28.196,33.946 28.737,36.303 30.722 C 38.036 32.181,37.987 32.090,37.986 33.824 C 37.986 35.471,37.889 35.755,37.268 35.927 C 36.776 36.064,19.224 36.064,18.732 35.927 C 18.111 35.755,18.014 35.471,18.014 33.824 C 18.013 32.512,18.028 32.392,18.226 32.097 C 18.405 31.829,21.593 29.065,22.436 28.447 C 22.681 28.267,23.265 28.014,23.459 28.004 C 23.502 28.002,23.789 28.228,24.097 28.506 " fill="#2B2C30" stroke="none" fill-rule="evenodd"></path></svg>