<svg width="60" height="56" viewBox="0 0 60 56" fill="none" xmlns="http://www.w3.org/2000/svg"><path d="M3.062 0.111 C 1.662 0.440,0.434 1.689,0.104 3.121 C 0.040 3.396,0.004 10.892,0.002 24.064 C 0.000 44.245,0.003 44.589,0.198 45.214 C 0.567 46.396,1.604 47.433,2.786 47.802 C 3.405 47.995,3.737 48.000,16.221 48.000 C 27.560 48.000,29.015 47.983,28.964 47.850 C 28.786 47.387,28.385 45.721,28.253 44.900 C 27.333 39.160,29.196 33.394,33.295 29.295 C 38.090 24.500,45.112 22.817,51.613 24.904 C 52.547 25.204,54.704 26.208,55.575 26.748 L 56.000 27.011 56.000 19.224 C 56.000 10.658,56.014 10.873,55.384 9.880 C 54.970 9.229,54.391 8.733,53.612 8.364 L 52.950 8.050 41.466 8.000 L 29.981 7.950 27.855 4.450 C 26.686 2.525,25.568 0.784,25.371 0.581 C 25.174 0.379,24.841 0.165,24.631 0.107 C 24.150 -0.027,3.632 -0.023,3.062 0.111 M44.550 28.103 C 39.759 28.643,35.666 31.492,33.503 35.794 C 32.530 37.730,32.069 39.718,32.066 42.000 C 32.063 43.649,32.233 44.774,32.711 46.272 C 34.166 50.840,37.935 54.387,42.562 55.542 C 47.474 56.768,52.350 55.406,55.901 51.814 C 57.953 49.739,59.116 47.592,59.715 44.769 C 59.997 43.438,60.026 40.902,59.775 39.544 C 59.242 36.674,57.954 34.240,55.857 32.144 C 54.174 30.462,52.458 29.407,50.276 28.712 C 48.489 28.142,46.282 27.908,44.550 28.103 M47.660 32.340 L 48.000 32.680 48.000 36.340 L 48.000 40.000 51.660 40.000 L 55.320 40.000 55.668 40.348 L 56.015 40.695 55.983 42.107 C 55.950 43.512,55.949 43.519,55.669 43.759 L 55.389 44.000 51.698 44.000 L 48.007 44.000 47.978 47.759 L 47.950 51.517 47.669 51.759 C 47.402 51.989,47.325 52.000,45.987 52.000 L 44.585 52.000 44.292 51.708 L 44.000 51.415 44.000 47.708 L 44.000 44.000 40.292 44.000 L 36.585 44.000 36.292 43.708 L 36.000 43.415 36.000 42.048 L 36.000 40.680 36.340 40.340 L 36.680 40.000 40.340 40.000 L 44.000 40.000 44.000 36.340 L 44.000 32.680 44.340 32.340 L 44.680 32.000 46.000 32.000 L 47.320 32.000 47.660 32.340 " fill="#2B2C30" stroke="none" fill-rule="evenodd"></path></svg>