<svg width="32" height="36" viewBox="0 0 32 36" fill="none" xmlns="http://www.w3.org/2000/svg"><path d="M20.613 0.101 C 20.342 0.227,20.119 0.463,20.052 0.697 C 20.020 0.808,20.000 2.273,20.000 4.439 L 20.000 7.998 11.640 8.014 C 2.305 8.031,3.146 7.995,2.272 8.416 C 1.344 8.862,0.612 9.648,0.269 10.567 C -0.011 11.318,0.002 10.700,0.001 23.360 C 0.001 30.895,0.019 35.188,0.053 35.309 C 0.119 35.545,0.454 35.878,0.696 35.947 C 0.807 35.979,2.110 36.000,4.000 36.000 C 5.890 36.000,7.193 35.979,7.304 35.947 C 7.546 35.878,7.881 35.545,7.947 35.309 C 7.980 35.188,8.000 31.652,8.000 25.560 L 8.000 16.000 14.000 16.000 L 20.000 16.000 20.000 19.597 C 20.000 22.008,20.019 23.243,20.057 23.343 C 20.244 23.839,20.923 24.133,21.402 23.926 C 21.634 23.826,21.535 23.931,26.988 17.920 C 29.871 14.741,31.840 12.528,31.899 12.400 C 32.025 12.128,32.024 11.870,31.898 11.600 C 31.839 11.475,29.708 9.085,26.739 5.813 C 21.406 -0.062,21.465 -0.002,21.015 0.001 C 20.912 0.002,20.731 0.047,20.613 0.101 " fill="#2B2C30" stroke="none" fill-rule="evenodd"></path></svg>