<svg width="48" height="44" viewBox="0 0 48 44" fill="none" xmlns="http://www.w3.org/2000/svg"><path d="M3.161 0.094 C 1.719 0.369,0.399 1.697,0.088 3.184 C -0.037 3.785,-0.037 40.215,0.088 40.816 C 0.401 42.315,1.685 43.599,3.184 43.912 C 3.785 44.037,44.215 44.037,44.816 43.912 C 46.315 43.599,47.599 42.315,47.912 40.816 C 48.037 40.215,48.037 3.785,47.912 3.184 C 47.594 1.659,46.277 0.363,44.765 0.087 C 44.149 -0.026,3.752 -0.019,3.161 0.094 M7.448 4.124 C 7.925 4.371,7.999 4.621,8.000 5.984 C 8.000 7.352,7.940 7.572,7.496 7.843 C 7.271 7.980,7.089 7.999,6.000 7.999 C 4.620 7.999,4.372 7.926,4.124 7.448 C 3.946 7.103,3.946 4.897,4.124 4.552 C 4.371 4.075,4.621 4.001,5.984 4.000 C 6.933 4.000,7.262 4.028,7.448 4.124 M35.496 4.157 C 36.028 4.481,36.000 4.044,36.000 12.000 C 36.000 19.956,36.028 19.519,35.496 19.843 C 35.245 19.996,35.007 19.999,24.000 19.999 C 12.993 19.999,12.755 19.996,12.504 19.843 C 11.972 19.519,12.000 19.956,12.000 12.000 C 12.000 4.044,11.972 4.481,12.504 4.157 C 12.755 4.004,12.993 4.001,24.000 4.001 C 35.007 4.001,35.245 4.004,35.496 4.157 M43.448 4.124 C 43.925 4.371,43.999 4.621,44.000 5.984 C 44.000 7.352,43.940 7.572,43.496 7.843 C 43.271 7.980,43.089 7.999,42.000 7.999 C 40.911 7.999,40.729 7.980,40.504 7.843 C 40.061 7.573,40.000 7.350,40.000 6.000 C 40.000 4.650,40.061 4.427,40.504 4.157 C 40.728 4.020,40.911 4.001,41.984 4.000 C 42.933 4.000,43.262 4.028,43.448 4.124 M7.448 12.124 C 7.925 12.371,7.999 12.621,8.000 13.984 C 8.000 15.352,7.940 15.572,7.496 15.843 C 7.271 15.980,7.089 15.999,6.000 15.999 C 4.620 15.999,4.372 15.926,4.124 15.448 C 3.946 15.103,3.946 12.897,4.124 12.552 C 4.371 12.075,4.621 12.001,5.984 12.000 C 6.933 12.000,7.262 12.028,7.448 12.124 M43.448 12.124 C 43.925 12.371,43.999 12.621,44.000 13.984 C 44.000 15.352,43.940 15.572,43.496 15.843 C 43.271 15.980,43.089 15.999,42.000 15.999 C 40.911 15.999,40.729 15.980,40.504 15.843 C 40.061 15.573,40.000 15.350,40.000 14.000 C 40.000 12.650,40.061 12.427,40.504 12.157 C 40.728 12.020,40.911 12.001,41.984 12.000 C 42.933 12.000,43.262 12.028,43.448 12.124 M7.448 20.124 C 7.925 20.371,7.999 20.621,8.000 21.984 C 8.000 23.352,7.940 23.572,7.496 23.843 C 7.271 23.980,7.089 23.999,6.000 23.999 C 4.620 23.999,4.372 23.926,4.124 23.448 C 3.946 23.103,3.946 20.897,4.124 20.552 C 4.371 20.075,4.621 20.001,5.984 20.000 C 6.933 20.000,7.262 20.028,7.448 20.124 M43.448 20.124 C 43.925 20.371,43.999 20.621,44.000 21.984 C 44.000 23.352,43.940 23.572,43.496 23.843 C 43.271 23.980,43.089 23.999,42.000 23.999 C 40.911 23.999,40.729 23.980,40.504 23.843 C 40.061 23.573,40.000 23.350,40.000 22.000 C 40.000 20.650,40.061 20.427,40.504 20.157 C 40.728 20.020,40.911 20.001,41.984 20.000 C 42.933 20.000,43.262 20.028,43.448 20.124 M35.496 24.157 C 36.028 24.481,36.000 24.044,36.000 32.000 C 36.000 39.956,36.028 39.519,35.496 39.843 C 35.245 39.996,35.007 39.999,24.000 39.999 C 12.993 39.999,12.755 39.996,12.504 39.843 C 11.972 39.519,12.000 39.956,12.000 32.000 C 12.000 24.044,11.972 24.481,12.504 24.157 C 12.755 24.004,12.993 24.001,24.000 24.001 C 35.007 24.001,35.245 24.004,35.496 24.157 M7.448 28.124 C 7.925 28.371,7.999 28.621,8.000 29.984 C 8.000 31.352,7.940 31.572,7.496 31.843 C 7.271 31.980,7.089 31.999,6.000 31.999 C 4.620 31.999,4.372 31.926,4.124 31.448 C 3.946 31.103,3.946 28.897,4.124 28.552 C 4.371 28.075,4.621 28.001,5.984 28.000 C 6.933 28.000,7.262 28.028,7.448 28.124 M43.448 28.124 C 43.925 28.371,43.999 28.621,44.000 29.984 C 44.000 31.352,43.940 31.572,43.496 31.843 C 43.271 31.980,43.089 31.999,42.000 31.999 C 40.911 31.999,40.729 31.980,40.504 31.843 C 40.061 31.573,40.000 31.350,40.000 30.000 C 40.000 28.650,40.061 28.427,40.504 28.157 C 40.728 28.020,40.911 28.001,41.984 28.000 C 42.933 28.000,43.262 28.028,43.448 28.124 M7.448 36.124 C 7.925 36.371,7.999 36.621,8.000 37.984 C 8.000 39.352,7.940 39.572,7.496 39.843 C 7.271 39.980,7.089 39.999,6.000 39.999 C 4.620 39.999,4.372 39.926,4.124 39.448 C 3.946 39.103,3.946 36.897,4.124 36.552 C 4.371 36.075,4.621 36.001,5.984 36.000 C 6.933 36.000,7.262 36.028,7.448 36.124 M43.448 36.124 C 43.925 36.371,43.999 36.621,44.000 37.984 C 44.000 39.352,43.940 39.572,43.496 39.843 C 43.271 39.980,43.089 39.999,42.000 39.999 C 40.911 39.999,40.729 39.980,40.504 39.843 C 40.061 39.573,40.000 39.350,40.000 38.000 C 40.000 36.650,40.061 36.427,40.504 36.157 C 40.728 36.020,40.911 36.001,41.984 36.000 C 42.933 36.000,43.262 36.028,43.448 36.124 " fill="#2B2C30" stroke="none" fill-rule="evenodd"></path></svg>