<svg width="48" height="52" viewBox="0 0 48 52" fill="none" xmlns="http://www.w3.org/2000/svg"><path d="M3.161 0.094 C 1.719 0.369,0.399 1.697,0.088 3.184 C -0.037 3.783,-0.037 32.217,0.088 32.816 C 0.401 34.315,1.685 35.599,3.184 35.912 C 3.462 35.970,5.050 36.000,7.804 36.000 L 12.000 36.000 12.000 34.000 L 12.000 32.000 8.000 32.000 L 4.000 32.000 4.000 30.000 L 4.000 28.000 7.995 28.000 L 11.991 28.000 12.020 23.380 C 12.049 18.914,12.056 18.737,12.228 18.083 C 12.586 16.719,13.378 15.330,14.354 14.354 C 15.329 13.379,16.715 12.589,18.083 12.226 C 18.754 12.049,18.823 12.047,25.380 12.020 L 32.000 11.993 32.000 7.800 C 32.000 5.049,31.970 3.462,31.912 3.184 C 31.594 1.659,30.277 0.363,28.765 0.087 C 28.153 -0.025,3.749 -0.018,3.161 0.094 M7.448 4.124 C 7.925 4.371,7.999 4.621,8.000 5.984 C 8.000 7.352,7.940 7.572,7.496 7.843 C 7.271 7.980,7.089 7.999,6.000 7.999 C 4.620 7.999,4.372 7.926,4.124 7.448 C 3.946 7.103,3.946 4.897,4.124 4.552 C 4.371 4.075,4.621 4.001,5.984 4.000 C 6.933 4.000,7.262 4.028,7.448 4.124 M27.448 4.124 C 27.925 4.371,27.999 4.621,28.000 5.984 C 28.000 7.352,27.940 7.572,27.496 7.843 C 27.271 7.980,27.089 7.999,26.000 7.999 C 24.911 7.999,24.729 7.980,24.504 7.843 C 24.061 7.573,24.000 7.350,24.000 6.000 C 24.000 4.650,24.061 4.427,24.504 4.157 C 24.728 4.020,24.911 4.001,25.984 4.000 C 26.933 4.000,27.262 4.028,27.448 4.124 M7.448 12.124 C 7.925 12.371,7.999 12.621,8.000 13.984 C 8.000 15.352,7.940 15.572,7.496 15.843 C 7.271 15.980,7.089 15.999,6.000 15.999 C 4.620 15.999,4.372 15.926,4.124 15.448 C 3.946 15.103,3.946 12.897,4.124 12.552 C 4.371 12.075,4.621 12.001,5.984 12.000 C 6.933 12.000,7.262 12.028,7.448 12.124 M19.240 16.082 C 17.839 16.373,16.737 17.330,16.214 18.712 C 16.049 19.146,16.043 19.301,16.018 23.580 L 15.992 28.000 19.994 28.000 L 23.995 28.000 24.018 24.234 L 24.040 20.468 24.339 20.194 C 24.753 19.814,25.201 19.809,25.659 20.180 C 25.836 20.323,28.182 22.474,30.873 24.960 C 36.160 29.845,36.050 29.725,35.847 30.339 C 35.774 30.561,34.701 31.579,30.672 35.250 C 27.876 37.796,25.511 39.924,25.415 39.977 C 25.025 40.194,24.417 40.004,24.162 39.585 C 24.006 39.330,24.001 39.190,24.000 35.713 L 24.000 32.106 22.020 32.053 C 20.931 32.024,19.130 32.000,18.018 32.000 L 15.996 32.000 16.018 40.420 L 16.040 48.840 16.231 49.320 C 16.719 50.544,17.511 51.323,18.720 51.768 L 19.240 51.960 32.000 51.960 L 44.760 51.960 45.280 51.770 C 46.506 51.320,47.315 50.512,47.768 49.280 L 47.960 48.760 47.960 33.960 L 47.960 19.160 47.788 18.712 C 47.337 17.532,46.469 16.662,45.300 16.216 L 44.840 16.040 32.200 16.028 C 25.248 16.021,19.416 16.046,19.240 16.082 M7.448 20.124 C 7.925 20.371,7.999 20.621,8.000 21.984 C 8.000 23.352,7.940 23.572,7.496 23.843 C 7.271 23.980,7.089 23.999,6.000 23.999 C 4.620 23.999,4.372 23.926,4.124 23.448 C 3.946 23.103,3.946 20.897,4.124 20.552 C 4.371 20.075,4.621 20.001,5.984 20.000 C 6.933 20.000,7.262 20.028,7.448 20.124 M43.448 20.124 C 43.925 20.371,43.999 20.621,44.000 21.984 C 44.000 23.352,43.940 23.572,43.496 23.843 C 43.271 23.980,43.089 23.999,42.000 23.999 C 40.911 23.999,40.729 23.980,40.504 23.843 C 40.061 23.573,40.000 23.350,40.000 22.000 C 40.000 20.650,40.061 20.427,40.504 20.157 C 40.728 20.020,40.911 20.001,41.984 20.000 C 42.933 20.000,43.262 20.028,43.448 20.124 M43.448 28.124 C 43.925 28.371,43.999 28.621,44.000 29.984 C 44.000 31.352,43.940 31.572,43.496 31.843 C 43.271 31.980,43.089 31.999,42.000 31.999 C 40.911 31.999,40.729 31.980,40.504 31.843 C 40.061 31.573,40.000 31.350,40.000 30.000 C 40.000 28.650,40.061 28.427,40.504 28.157 C 40.728 28.020,40.911 28.001,41.984 28.000 C 42.933 28.000,43.262 28.028,43.448 28.124 M43.448 36.124 C 43.925 36.371,43.999 36.621,44.000 37.984 C 44.000 39.352,43.940 39.572,43.496 39.843 C 43.271 39.980,43.089 39.999,42.000 39.999 C 40.911 39.999,40.729 39.980,40.504 39.843 C 40.061 39.573,40.000 39.350,40.000 38.000 C 40.000 36.650,40.061 36.427,40.504 36.157 C 40.728 36.020,40.911 36.001,41.984 36.000 C 42.933 36.000,43.262 36.028,43.448 36.124 M23.448 44.124 C 23.925 44.371,23.999 44.621,24.000 45.984 C 24.000 47.352,23.940 47.572,23.496 47.843 C 23.271 47.980,23.089 47.999,22.000 47.999 C 20.911 47.999,20.729 47.980,20.504 47.843 C 20.061 47.573,20.000 47.350,20.000 46.000 C 20.000 44.650,20.061 44.427,20.504 44.157 C 20.728 44.020,20.911 44.001,21.984 44.000 C 22.933 44.000,23.262 44.028,23.448 44.124 M43.448 44.124 C 43.925 44.371,43.999 44.621,44.000 45.984 C 44.000 47.352,43.940 47.572,43.496 47.843 C 43.271 47.980,43.089 47.999,42.000 47.999 C 40.911 47.999,40.729 47.980,40.504 47.843 C 40.061 47.573,40.000 47.350,40.000 46.000 C 40.000 44.650,40.061 44.427,40.504 44.157 C 40.728 44.020,40.911 44.001,41.984 44.000 C 42.933 44.000,43.262 44.028,43.448 44.124 " fill="#2B2C30" stroke="none" fill-rule="evenodd"></path></svg>