<svg width="54" height="54" viewBox="0 0 54 54" fill="none" xmlns="http://www.w3.org/2000/svg"><path d="M2.857 2.857 L 0.000 5.714 4.027 9.742 L 8.054 13.770 6.176 15.649 C 4.387 17.439,4.297 17.546,4.288 17.884 C 4.283 18.089,4.348 18.344,4.441 18.487 C 4.777 18.999,4.649 18.990,11.630 18.990 C 17.557 18.990,18.069 18.978,18.360 18.832 C 19.016 18.505,18.990 18.803,18.990 11.630 C 18.990 4.732,18.994 4.792,18.529 4.467 C 18.412 4.384,18.144 4.320,17.917 4.320 L 17.515 4.320 15.641 6.186 L 13.768 8.052 9.741 4.026 L 5.714 0.000 2.857 2.857 M44.259 4.026 L 40.233 8.052 38.359 6.186 L 36.485 4.320 36.056 4.320 C 35.701 4.320,35.580 4.366,35.363 4.583 L 35.100 4.846 35.100 11.610 L 35.100 18.374 35.363 18.637 L 35.626 18.900 42.390 18.900 L 49.154 18.900 49.417 18.637 C 49.634 18.420,49.680 18.299,49.680 17.944 L 49.680 17.515 47.814 15.641 L 45.948 13.768 49.974 9.741 L 54.000 5.714 51.142 2.857 L 48.284 0.000 44.259 4.026 M4.583 35.363 C 4.366 35.580,4.320 35.701,4.320 36.056 L 4.320 36.485 6.186 38.359 L 8.052 40.232 4.026 44.259 L 0.000 48.286 2.857 51.143 L 5.714 54.000 9.741 49.974 L 13.768 45.948 15.641 47.814 L 17.515 49.680 17.944 49.680 C 18.299 49.680,18.420 49.634,18.637 49.417 L 18.900 49.154 18.900 42.390 L 18.900 35.626 18.637 35.363 L 18.374 35.100 11.610 35.100 L 4.846 35.100 4.583 35.363 M35.363 35.363 L 35.100 35.626 35.100 42.390 L 35.100 49.154 35.363 49.417 C 35.580 49.634,35.701 49.680,36.056 49.680 L 36.485 49.680 38.359 47.814 L 40.232 45.948 44.259 49.974 L 48.286 54.000 51.143 51.143 L 54.000 48.286 49.974 44.259 L 45.948 40.232 47.814 38.359 L 49.680 36.485 49.680 36.056 C 49.680 35.701,49.634 35.580,49.417 35.363 L 49.154 35.100 42.390 35.100 L 35.626 35.100 35.363 35.363 " fill="#2B2C30" stroke="none" fill-rule="evenodd"></path></svg>