<svg width="48" height="48" viewBox="0 0 48 48" fill="none" xmlns="http://www.w3.org/2000/svg"><path d="M0.504 0.157 C -0.031 0.483,-0.005 0.100,0.019 7.405 L 0.040 14.012 0.339 14.286 C 0.591 14.517,0.697 14.560,1.015 14.560 L 1.392 14.560 3.238 12.720 C 4.254 11.708,5.119 10.880,5.162 10.880 C 5.204 10.880,6.590 12.230,8.240 13.880 L 11.241 16.880 14.060 14.060 L 16.880 11.239 13.880 8.240 C 12.230 6.590,10.880 5.206,10.880 5.163 C 10.880 5.120,11.708 4.254,12.720 3.238 C 14.548 1.404,14.560 1.390,14.560 1.048 C 14.560 0.859,14.499 0.601,14.424 0.474 C 14.133 -0.018,14.404 -0.000,7.268 0.000 C 0.954 0.001,0.752 0.005,0.504 0.157 M34.033 0.078 C 33.699 0.213,33.440 0.625,33.440 1.023 L 33.440 1.393 35.319 3.277 L 37.198 5.160 34.219 8.140 L 31.241 11.120 34.060 13.940 L 36.880 16.759 39.860 13.781 L 42.840 10.802 44.723 12.681 L 46.607 14.560 46.985 14.560 C 47.303 14.560,47.409 14.517,47.661 14.286 L 47.960 14.012 47.981 7.405 C 48.005 0.100,48.031 0.483,47.496 0.157 C 47.247 0.005,47.050 0.001,40.720 0.005 C 37.134 0.008,34.125 0.040,34.033 0.078 M8.140 34.220 L 5.201 37.159 3.500 35.472 C 2.565 34.544,1.696 33.707,1.569 33.612 C 1.415 33.497,1.222 33.440,0.988 33.440 C 0.701 33.440,0.584 33.489,0.339 33.714 L 0.040 33.988 0.019 40.595 C -0.005 47.900,-0.031 47.516,0.504 47.844 C 0.754 47.997,0.925 48.000,7.386 47.980 L 14.012 47.960 14.286 47.661 C 14.511 47.416,14.560 47.299,14.560 47.012 C 14.560 46.778,14.503 46.585,14.388 46.431 C 14.293 46.304,13.456 45.435,12.528 44.500 L 10.841 42.800 13.800 39.840 L 16.759 36.880 13.960 34.080 C 12.420 32.540,11.143 31.280,11.120 31.280 C 11.098 31.280,9.757 32.603,8.140 34.220 M34.040 34.080 L 31.241 36.880 34.200 39.840 L 37.159 42.800 35.472 44.500 C 34.544 45.435,33.707 46.304,33.612 46.431 C 33.497 46.585,33.440 46.778,33.440 47.012 C 33.440 47.299,33.489 47.416,33.714 47.661 L 33.988 47.960 40.614 47.980 C 47.075 48.000,47.246 47.997,47.496 47.844 C 48.031 47.516,48.005 47.900,47.981 40.595 L 47.960 33.988 47.661 33.714 C 47.416 33.489,47.299 33.440,47.012 33.440 C 46.778 33.440,46.585 33.497,46.431 33.612 C 46.304 33.707,45.435 34.544,44.500 35.472 L 42.800 37.159 39.859 34.219 C 38.242 32.603,36.901 31.280,36.879 31.280 C 36.857 31.280,35.580 32.540,34.040 34.080 " fill="#2B2C30" stroke="none" fill-rule="evenodd"></path></svg>