<svg width="48" height="40" viewBox="0 0 48 40" fill="none" xmlns="http://www.w3.org/2000/svg"><path d="M14.400 0.121 C 12.526 0.378,10.893 0.998,9.320 2.049 C 6.252 4.099,4.270 7.521,4.030 11.180 L 3.976 12.000 2.384 12.000 C 0.616 12.000,0.440 12.040,0.157 12.504 C 0.009 12.747,0.001 12.927,0.001 16.000 C 0.001 20.285,-0.170 20.000,2.396 20.000 L 4.000 20.000 4.000 29.620 C 4.001 39.020,4.004 39.246,4.157 39.496 C 4.464 40.001,4.458 40.000,8.000 40.000 C 11.542 40.000,11.536 40.001,11.843 39.496 C 11.996 39.246,11.999 39.020,12.000 29.620 L 12.000 20.000 13.620 20.000 C 15.086 19.999,15.264 19.985,15.496 19.843 C 16.001 19.535,16.000 19.543,16.000 15.984 C 15.999 11.716,16.170 12.000,13.595 12.000 L 11.982 12.000 12.038 11.540 C 12.255 9.779,13.580 8.377,15.310 8.076 C 15.924 7.969,16.690 8.020,17.205 8.202 C 17.389 8.267,17.589 8.320,17.648 8.320 C 17.744 8.320,21.331 1.299,21.265 1.242 C 21.182 1.170,20.664 0.937,20.194 0.761 C 18.433 0.098,16.291 -0.139,14.400 0.121 M28.010 18.998 L 32.012 26.000 28.010 33.002 L 24.009 40.004 27.918 39.982 L 31.827 39.960 32.028 39.771 C 32.139 39.667,33.068 38.111,34.094 36.312 C 35.121 34.513,35.978 33.042,36.000 33.042 C 36.022 33.042,36.879 34.513,37.906 36.312 C 38.932 38.111,39.861 39.667,39.972 39.771 L 40.173 39.960 44.082 39.982 L 47.991 40.004 43.990 33.002 L 39.988 26.000 43.990 18.998 L 47.991 11.996 44.082 12.018 L 40.173 12.040 39.972 12.229 C 39.861 12.333,38.932 13.889,37.906 15.688 C 36.879 17.487,36.022 18.958,36.000 18.958 C 35.978 18.958,35.121 17.487,34.094 15.688 C 33.068 13.889,32.139 12.333,32.028 12.229 L 31.827 12.040 27.918 12.018 L 24.009 11.996 28.010 18.998 " fill="#2B2C30" stroke="none" fill-rule="evenodd"></path></svg>