<svg width="56" height="48" viewBox="0 0 56 48" fill="none" xmlns="http://www.w3.org/2000/svg"><path d="M26.133 0.066 C 25.189 0.124,23.391 0.377,22.213 0.619 C 18.279 1.425,14.375 3.201,11.142 5.654 C 5.202 10.163,1.388 16.624,0.266 24.080 C 0.100 25.183,0.061 25.874,0.055 27.813 C 0.046 30.407,0.130 31.349,0.561 33.511 C 1.370 37.568,3.103 41.436,5.591 44.739 C 6.704 46.217,7.467 47.041,8.042 47.387 C 9.088 48.016,7.721 47.978,28.240 47.951 C 45.779 47.928,46.830 47.917,47.227 47.761 C 47.959 47.472,48.620 46.940,49.391 46.020 C 52.971 41.748,55.127 36.779,55.830 31.173 C 55.991 29.889,55.989 25.909,55.827 24.733 C 54.934 18.274,52.387 12.975,48.026 8.506 C 42.226 2.562,34.434 -0.442,26.133 0.066 M44.380 10.278 C 44.901 10.422,45.587 11.125,45.732 11.663 C 45.858 12.130,45.801 12.665,45.579 13.094 C 45.497 13.253,42.386 17.501,38.665 22.534 C 31.474 32.263,31.012 32.835,29.877 33.408 C 28.197 34.256,26.278 34.175,24.653 33.188 C 23.522 32.501,22.549 31.235,22.176 29.966 C 21.983 29.312,21.983 27.964,22.175 27.220 C 22.389 26.391,22.930 25.421,23.520 24.811 C 23.907 24.411,39.502 12.781,42.467 10.682 C 43.170 10.184,43.665 10.080,44.380 10.278 " fill="#2B2C30" stroke="none" fill-rule="evenodd"></path></svg>