<svg width="56" height="56" viewBox="0 0 56 56" fill="none" xmlns="http://www.w3.org/2000/svg"><path d="M20.487 0.062 C 19.016 0.181,17.520 0.427,16.346 0.743 L 15.963 0.846 15.938 2.952 L 15.913 5.058 15.125 5.375 C 14.692 5.550,14.293 5.693,14.240 5.693 C 14.186 5.693,13.489 5.041,12.690 4.244 L 11.238 2.794 10.403 3.318 C 7.770 4.967,5.358 7.304,3.665 9.847 C 3.357 10.309,3.039 10.816,2.959 10.974 L 2.812 11.261 4.253 12.699 C 5.045 13.490,5.693 14.182,5.693 14.237 C 5.693 14.377,5.076 15.868,4.977 15.967 C 4.931 16.013,3.972 16.061,2.844 16.075 L 0.793 16.100 0.590 16.931 C 0.174 18.630,0.050 19.804,0.050 22.027 C 0.051 24.244,0.161 25.274,0.589 27.074 L 0.798 27.953 2.911 27.978 L 5.023 28.003 5.274 28.632 C 5.412 28.977,5.572 29.376,5.630 29.518 C 5.732 29.769,5.695 29.816,4.253 31.260 L 2.771 32.744 3.205 33.442 C 4.714 35.862,6.541 37.877,8.746 39.553 C 9.591 40.196,11.088 41.160,11.241 41.160 C 11.294 41.160,11.990 40.509,12.786 39.714 L 14.234 38.268 15.097 38.614 L 15.960 38.961 15.960 41.043 L 15.960 43.125 16.190 43.212 C 16.816 43.450,20.214 44.031,20.326 43.919 C 20.348 43.897,20.293 43.383,20.205 42.776 C 19.993 41.323,19.992 38.604,20.202 37.193 C 20.534 34.971,21.145 33.030,22.138 31.045 L 22.693 29.937 22.383 29.985 C 21.903 30.059,20.464 29.888,19.744 29.672 C 16.189 28.602,13.807 25.218,14.033 21.560 C 14.102 20.450,14.296 19.673,14.748 18.697 C 15.593 16.873,16.867 15.596,18.681 14.755 C 21.517 13.442,24.764 13.895,27.221 15.948 C 27.926 16.537,28.556 17.343,29.072 18.314 C 29.641 19.387,29.871 20.260,29.934 21.578 L 29.985 22.669 31.069 22.126 C 33.029 21.145,34.978 20.533,37.193 20.202 C 38.559 19.998,41.413 19.996,42.740 20.198 C 44.072 20.401,43.976 20.430,43.909 19.857 C 43.809 18.993,43.585 17.710,43.389 16.872 L 43.199 16.057 41.093 16.032 L 38.987 16.007 38.626 15.122 L 38.265 14.237 39.713 12.787 C 40.509 11.990,41.160 11.294,41.160 11.241 C 41.160 11.089,40.196 9.592,39.562 8.758 C 37.885 6.555,35.985 4.820,33.628 3.339 L 32.737 2.779 31.232 4.268 L 29.727 5.756 28.863 5.382 L 28.000 5.008 28.000 2.927 L 28.000 0.845 27.510 0.706 C 25.641 0.177,22.557 -0.106,20.487 0.062 M38.574 24.080 C 38.153 24.117,37.408 24.223,36.918 24.315 L 36.027 24.483 36.027 25.996 L 36.027 27.510 35.257 27.814 C 34.833 27.981,34.382 28.173,34.253 28.240 C 34.028 28.358,33.982 28.324,32.942 27.291 L 31.865 26.221 31.059 26.760 C 29.365 27.894,27.894 29.365,26.760 31.059 L 26.221 31.865 27.295 32.942 C 28.132 33.783,28.348 34.051,28.278 34.160 C 28.228 34.237,28.036 34.689,27.851 35.163 L 27.514 36.027 26.000 36.027 L 24.485 36.027 24.326 36.855 C 23.932 38.903,23.932 41.118,24.327 43.143 L 24.486 43.960 25.994 43.960 L 27.502 43.960 27.845 44.823 C 28.034 45.298,28.229 45.750,28.279 45.827 C 28.348 45.936,28.130 46.206,27.291 47.048 L 26.214 48.129 26.775 48.961 C 27.930 50.674,29.251 51.998,31.020 53.215 L 31.847 53.784 32.933 52.705 L 34.020 51.625 34.347 51.801 C 34.526 51.898,34.978 52.090,35.350 52.228 L 36.027 52.478 36.027 53.993 L 36.027 55.508 36.797 55.660 C 39.079 56.109,41.288 56.082,43.657 55.575 L 43.960 55.510 43.960 53.994 L 43.960 52.478 44.637 52.228 C 45.009 52.090,45.460 51.898,45.640 51.801 L 45.967 51.625 47.051 52.702 L 48.135 53.779 48.544 53.515 C 50.488 52.261,52.101 50.673,53.355 48.778 L 53.780 48.136 52.703 47.051 L 51.625 45.967 51.801 45.640 C 51.898 45.460,52.090 45.009,52.228 44.637 L 52.478 43.960 53.994 43.960 L 55.510 43.960 55.575 43.657 C 56.082 41.288,56.109 39.079,55.660 36.797 L 55.508 36.027 53.993 36.027 L 52.478 36.027 52.228 35.350 C 52.090 34.978,51.898 34.526,51.801 34.347 L 51.625 34.020 52.705 32.933 L 53.784 31.847 53.215 31.020 C 51.998 29.251,50.674 27.930,48.961 26.775 L 48.129 26.214 47.048 27.291 C 46.206 28.130,45.936 28.348,45.827 28.279 C 45.750 28.229,45.298 28.034,44.823 27.845 L 43.960 27.502 43.960 25.993 L 43.960 24.485 43.137 24.327 C 41.568 24.025,40.111 23.946,38.574 24.080 M41.739 36.424 C 43.688 37.387,44.534 39.755,43.621 41.694 C 43.289 42.398,42.398 43.289,41.694 43.621 C 40.627 44.123,39.331 44.098,38.230 43.554 C 37.394 43.141,36.779 42.510,36.371 41.648 C 36.093 41.060,36.073 40.954,36.073 39.993 C 36.073 39.031,36.092 38.927,36.373 38.334 C 36.715 37.611,37.458 36.812,38.087 36.488 C 38.829 36.107,39.204 36.028,40.144 36.054 C 40.964 36.077,41.101 36.108,41.739 36.424 " fill="#2B2C30" stroke="none" fill-rule="evenodd"></path></svg>