<svg width="56" height="56" viewBox="0 0 56 56" fill="none" xmlns="http://www.w3.org/2000/svg"><path d="M26.133 0.059 C 25.283 0.123,23.432 0.369,22.563 0.534 L 21.747 0.690 21.747 4.854 L 21.747 9.019 21.257 9.176 C 20.987 9.262,20.368 9.515,19.880 9.739 L 18.993 10.147 16.051 7.218 L 13.108 4.289 12.271 4.850 C 9.509 6.700,6.789 9.410,4.836 12.260 L 4.269 13.088 7.211 16.040 L 10.154 18.993 9.836 19.647 C 9.661 20.006,9.403 20.625,9.262 21.023 L 9.007 21.746 4.846 21.746 L 0.685 21.747 0.529 22.563 C 0.117 24.721,0.059 25.390,0.059 28.000 C 0.059 30.600,0.107 31.160,0.523 33.437 L 0.673 34.253 4.840 34.254 L 9.007 34.254 9.262 34.977 C 9.403 35.375,9.661 35.994,9.836 36.353 L 10.154 37.007 7.210 39.961 L 4.266 42.915 4.904 43.830 C 6.908 46.704,9.296 49.092,12.170 51.096 L 13.085 51.734 16.039 48.790 L 18.993 45.846 19.647 46.164 C 20.006 46.339,20.625 46.597,21.023 46.738 L 21.746 46.993 21.746 51.154 L 21.747 55.315 22.563 55.471 C 24.721 55.883,25.390 55.941,28.000 55.941 C 30.610 55.941,31.279 55.883,33.437 55.471 L 34.253 55.315 34.254 51.154 L 34.254 46.993 34.977 46.738 C 35.375 46.597,35.994 46.339,36.353 46.164 L 37.007 45.846 39.961 48.790 L 42.915 51.734 43.830 51.096 C 46.704 49.092,49.092 46.704,51.096 43.830 L 51.734 42.915 48.790 39.961 L 45.846 37.007 46.164 36.353 C 46.339 35.994,46.597 35.375,46.738 34.977 L 46.993 34.254 51.154 34.254 L 55.315 34.253 55.471 33.437 C 55.883 31.279,55.941 30.610,55.941 28.000 C 55.941 25.390,55.883 24.721,55.471 22.563 L 55.315 21.747 51.154 21.746 L 46.993 21.746 46.738 21.023 C 46.597 20.625,46.339 20.006,46.164 19.647 L 45.846 18.993 48.790 16.039 L 51.734 13.085 51.096 12.170 C 49.069 9.263,46.486 6.696,43.729 4.850 L 42.892 4.289 39.949 7.218 L 37.007 10.147 36.120 9.739 C 35.632 9.515,35.013 9.262,34.743 9.176 L 34.253 9.019 34.253 4.853 L 34.253 0.688 33.390 0.527 C 31.703 0.213,30.449 0.091,28.560 0.056 C 27.508 0.036,26.416 0.038,26.133 0.059 M29.802 20.223 C 32.298 20.776,34.431 22.598,35.414 25.017 C 36.150 26.829,36.150 29.171,35.414 30.983 C 34.421 33.428,32.489 35.079,29.773 35.805 C 28.859 36.049,27.064 36.027,26.059 35.760 C 23.069 34.964,20.905 32.745,20.204 29.755 C 19.991 28.845,19.991 27.155,20.204 26.245 C 21.003 22.835,23.817 20.372,27.300 20.033 C 27.885 19.977,29.105 20.069,29.802 20.223 " fill="#2B2C30" stroke="none" fill-rule="evenodd"></path></svg>