<svg width="60" height="60" viewBox="0 0 60 60" fill="none" xmlns="http://www.w3.org/2000/svg"><path d="M26.443 0.747 C 23.970 3.499,21.708 6.883,20.091 10.250 C 17.848 14.919,16.554 19.794,16.144 25.125 L 16.076 26.000 27.931 26.000 L 39.786 26.000 39.738 25.425 C 39.598 23.728,39.358 21.797,39.140 20.600 C 37.813 13.336,34.490 6.498,29.587 0.941 L 28.757 -0.000 27.935 -0.000 L 27.114 0.000 26.443 0.747 M19.700 1.244 C 9.111 4.529,1.428 13.742,0.148 24.688 C 0.066 25.381,-0.000 25.960,-0.000 25.974 C -0.000 25.988,2.700 26.000,6.000 26.000 L 12.000 26.000 12.002 25.475 C 12.007 24.082,12.465 20.687,12.953 18.425 C 14.217 12.560,16.850 6.620,20.294 1.865 C 20.679 1.334,20.938 0.904,20.872 0.909 C 20.805 0.914,20.278 1.064,19.700 1.244 M34.961 1.021 C 35.004 1.092,35.284 1.482,35.582 1.887 C 35.881 2.292,36.471 3.170,36.894 3.837 C 41.003 10.324,43.252 17.207,43.852 25.125 L 43.918 26.000 49.874 26.000 L 55.830 26.000 55.766 25.175 C 55.514 21.893,54.221 17.712,52.491 14.579 C 48.990 8.239,43.188 3.460,36.400 1.325 C 35.068 0.906,34.866 0.863,34.961 1.021 M0.000 30.026 C 0.000 30.040,0.066 30.619,0.148 31.312 C 1.437 42.340,9.202 51.577,19.900 54.811 C 20.422 54.969,20.882 55.098,20.922 55.099 C 20.961 55.099,20.679 54.666,20.294 54.135 C 16.850 49.380,14.217 43.440,12.953 37.575 C 12.465 35.313,12.007 31.918,12.002 30.525 L 12.000 30.000 6.000 30.000 C 2.700 30.000,0.000 30.012,0.000 30.026 M16.153 30.675 C 16.406 33.584,16.788 35.911,17.397 38.250 C 18.995 44.389,21.888 49.846,26.172 54.804 L 27.163 55.950 27.906 55.978 L 28.650 56.006 29.700 54.792 C 30.277 54.125,31.078 53.149,31.478 52.623 C 32.676 51.049,34.422 48.320,34.954 47.189 L 35.123 46.828 33.799 43.339 C 33.070 41.420,32.367 39.537,32.236 39.154 C 31.551 37.153,32.022 35.167,33.543 33.640 C 34.975 32.202,36.793 31.700,38.751 32.200 C 39.181 32.310,39.546 32.388,39.561 32.372 C 39.577 32.357,39.621 31.817,39.659 31.172 L 39.729 30.000 27.912 30.000 L 16.094 30.000 16.153 30.675 M43.858 30.875 C 43.821 31.356,43.744 32.184,43.687 32.715 C 43.629 33.245,43.597 33.754,43.616 33.845 C 43.640 33.964,45.040 34.543,48.500 35.865 C 51.168 36.884,53.515 37.778,53.716 37.852 L 54.082 37.985 54.347 37.272 C 54.947 35.654,55.635 32.524,55.766 30.825 L 55.830 30.000 49.877 30.000 L 43.924 30.000 43.858 30.875 M36.690 36.208 C 36.241 36.475,35.972 36.918,35.974 37.389 C 35.975 37.749,37.216 41.101,40.868 50.600 C 43.259 56.823,44.270 59.305,44.519 59.570 C 44.977 60.058,45.802 60.106,46.319 59.675 C 46.480 59.540,47.261 58.164,48.260 56.250 C 49.180 54.490,49.970 53.007,50.016 52.955 C 50.066 52.898,51.519 54.272,53.575 56.320 C 56.668 59.399,57.099 59.793,57.496 59.900 C 58.999 60.302,60.334 58.869,59.794 57.432 C 59.736 57.277,58.129 55.587,56.223 53.677 C 54.085 51.534,52.794 50.169,52.853 50.114 C 52.907 50.065,54.345 49.292,56.050 48.398 C 59.634 46.517,59.565 46.558,59.755 46.190 C 60.115 45.494,59.804 44.665,59.049 44.310 C 57.199 43.440,38.023 36.106,37.414 36.036 C 37.162 36.007,36.939 36.059,36.690 36.208 M36.477 52.822 C 36.171 53.277,35.686 53.978,35.400 54.379 C 34.887 55.100,34.884 55.108,35.165 55.042 C 35.767 54.902,37.900 54.186,37.900 54.125 C 37.900 54.018,37.177 52.156,37.102 52.072 C 37.065 52.029,36.783 52.367,36.477 52.822 " fill="#2B2C30" stroke="none" fill-rule="evenodd"></path></svg>