<svg width="56" height="44" viewBox="0 0 56 44" fill="none" xmlns="http://www.w3.org/2000/svg"><path d="M0.351 0.272 L 0.047 0.544 0.016 1.850 C -0.032 3.934,0.059 4.013,2.470 4.013 L 4.013 4.013 4.013 23.659 L 4.013 43.304 4.285 43.609 L 4.558 43.913 5.895 43.940 C 7.958 43.981,8.025 43.901,8.026 41.415 L 8.027 39.943 10.010 39.968 L 11.993 39.993 12.041 41.673 C 12.067 42.597,12.121 43.419,12.161 43.498 C 12.200 43.578,12.353 43.714,12.501 43.802 C 12.750 43.949,13.840 43.960,27.954 43.960 C 41.588 43.960,43.170 43.945,43.449 43.813 C 43.619 43.732,43.793 43.595,43.835 43.509 C 43.877 43.424,43.933 42.597,43.959 41.673 L 44.007 39.993 49.721 39.947 L 55.436 39.900 55.695 39.641 L 55.953 39.382 55.953 21.970 L 55.953 4.558 55.649 4.286 L 55.344 4.013 31.685 4.013 L 8.027 4.013 8.026 2.543 C 8.026 0.813,7.946 0.435,7.531 0.182 C 7.251 0.012,7.037 0.001,3.945 0.000 L 0.656 -0.000 0.351 0.272 M32.013 12.194 C 36.259 13.055,39.438 16.582,39.951 21.000 C 40.142 22.640,39.814 24.567,39.071 26.176 C 37.309 29.990,33.167 32.365,29.052 31.922 C 22.131 31.177,18.011 23.982,20.948 17.769 C 21.510 16.579,22.022 15.854,22.951 14.929 C 23.874 14.011,24.609 13.486,25.694 12.970 C 27.660 12.035,29.885 11.761,32.013 12.194 M29.213 16.056 C 27.887 16.217,26.835 16.747,25.798 17.777 C 25.201 18.369,24.960 18.694,24.653 19.320 C 24.222 20.198,23.990 21.129,23.990 21.980 C 23.990 24.167,25.382 26.385,27.347 27.328 C 29.777 28.494,32.312 28.069,34.219 26.176 C 34.826 25.573,35.053 25.265,35.356 24.635 C 35.749 23.816,36.027 22.717,36.027 21.980 C 36.027 21.243,35.749 20.144,35.356 19.325 C 34.644 17.843,33.079 16.575,31.500 16.202 C 30.731 16.020,29.934 15.969,29.213 16.056 " fill="#2B2C30" stroke="none" fill-rule="evenodd"></path></svg>