<svg width="56" height="52" viewBox="0 0 56 52" fill="none" xmlns="http://www.w3.org/2000/svg"><path d="M26.973 0.058 C 21.271 0.785,17.173 5.337,17.173 10.946 C 17.173 13.063,17.644 14.850,18.658 16.580 L 18.939 17.060 15.279 23.533 L 11.620 30.007 10.687 30.030 C 6.793 30.129,3.267 32.271,1.345 35.708 C 0.874 36.550,0.332 38.131,0.151 39.193 C -0.754 44.476,2.453 49.758,7.582 51.434 C 11.410 52.685,15.626 51.743,18.526 48.989 C 19.303 48.250,20.255 47.046,20.563 46.413 L 20.757 46.013 28.019 46.013 C 32.202 46.013,35.280 46.049,35.280 46.096 C 35.280 46.142,35.526 46.554,35.827 47.012 C 39.103 52.002,45.729 53.454,50.829 50.300 C 51.933 49.616,53.473 48.103,54.190 46.996 C 55.917 44.328,56.429 41.023,55.579 38.019 C 55.270 36.928,54.472 35.323,53.768 34.379 C 51.796 31.734,48.597 30.088,45.329 30.037 C 44.509 30.024,44.397 30.001,44.285 29.828 C 44.216 29.721,42.585 26.847,40.662 23.441 L 37.164 17.249 37.529 16.668 C 38.837 14.582,39.376 11.790,38.963 9.243 C 38.122 4.057,33.753 0.212,28.521 0.053 C 27.849 0.033,27.153 0.035,26.973 0.058 M29.173 8.183 C 29.837 8.408,30.712 9.301,30.941 9.987 C 31.322 11.126,31.016 12.391,30.174 13.168 C 28.972 14.275,27.263 14.264,26.075 13.141 C 25.402 12.504,25.156 11.922,25.158 10.967 C 25.159 10.297,25.192 10.159,25.476 9.630 C 26.039 8.581,26.927 8.041,28.100 8.032 C 28.441 8.029,28.918 8.096,29.173 8.183 M26.404 21.842 C 27.177 21.977,29.114 21.977,29.866 21.840 C 30.339 21.754,30.476 21.758,30.567 21.857 C 30.629 21.925,32.120 24.533,33.879 27.653 L 37.078 33.326 36.707 33.766 C 35.787 34.860,35.115 36.014,34.672 37.263 L 34.416 37.987 28.003 37.987 L 21.590 37.987 21.473 37.590 C 21.309 37.027,20.607 35.562,20.248 35.030 C 20.080 34.783,19.716 34.298,19.437 33.954 C 19.159 33.609,18.949 33.294,18.971 33.254 C 18.993 33.213,20.474 30.586,22.263 27.416 C 24.713 23.073,25.551 21.662,25.661 21.694 C 25.741 21.718,26.076 21.784,26.404 21.842 M12.248 38.290 C 12.895 38.586,13.398 39.090,13.709 39.752 C 13.910 40.181,13.953 40.406,13.951 41.020 C 13.948 41.925,13.716 42.479,13.065 43.130 C 11.924 44.272,9.917 44.228,8.841 43.038 C 8.300 42.439,8.094 41.952,8.049 41.160 C 8.016 40.599,8.049 40.353,8.211 39.922 C 8.539 39.055,9.381 38.312,10.313 38.068 C 10.807 37.939,11.706 38.042,12.248 38.290 M46.324 38.302 C 46.890 38.578,47.385 39.072,47.712 39.686 C 47.892 40.023,47.926 40.228,47.926 40.973 C 47.926 41.754,47.896 41.916,47.678 42.327 C 47.346 42.950,46.830 43.430,46.167 43.733 C 45.681 43.955,45.537 43.978,44.860 43.941 C 43.672 43.875,42.809 43.319,42.306 42.295 C 42.083 41.841,42.047 41.655,42.049 40.973 C 42.051 40.335,42.094 40.094,42.269 39.738 C 42.643 38.977,43.382 38.351,44.240 38.068 C 44.706 37.915,45.780 38.035,46.324 38.302 " fill="#2B2C30" stroke="none" fill-rule="evenodd"></path></svg>