<svg width="57" height="56" viewBox="0 0 57 56" fill="none" xmlns="http://www.w3.org/2000/svg"><path d="M48.611 1.767 C 47.608 2.753,42.566 7.771,37.406 12.918 L 28.025 22.277 21.918 16.171 C 15.293 9.546,15.526 9.747,14.858 10.101 C 14.707 10.182,11.322 13.511,7.336 17.500 C -0.630 25.474,-0.267 25.055,0.173 25.763 C 0.280 25.936,1.343 27.046,2.535 28.230 C 4.351 30.034,4.759 30.393,5.049 30.448 C 5.258 30.487,5.483 30.468,5.619 30.399 C 5.742 30.336,7.969 28.163,10.568 25.570 L 15.294 20.854 21.448 27.004 L 27.601 33.155 28.038 33.155 L 28.476 33.155 42.163 19.494 C 50.030 11.641,55.895 5.716,55.954 5.560 C 56.011 5.410,56.033 5.175,56.003 5.038 C 55.968 4.880,55.098 3.939,53.593 2.435 C 51.395 0.239,51.211 0.078,50.836 0.027 L 50.435 -0.026 48.611 1.767 M48.766 20.014 C 48.653 20.037,48.449 20.166,48.315 20.301 L 48.070 20.546 48.070 37.924 C 48.070 49.662,48.102 55.362,48.168 55.485 C 48.406 55.929,48.616 55.955,52.032 55.955 C 55.048 55.954,55.261 55.943,55.546 55.769 C 55.757 55.641,55.881 55.468,55.951 55.208 C 56.022 54.948,56.045 49.602,56.028 37.748 C 56.006 23.303,55.982 20.632,55.870 20.463 C 55.563 20.002,55.533 19.998,52.155 19.984 C 50.405 19.977,48.880 19.990,48.766 20.014 M12.343 32.293 L 12.065 32.570 12.065 43.936 C 12.065 51.550,12.097 55.363,12.163 55.485 C 12.401 55.929,12.611 55.955,16.027 55.955 C 19.039 55.954,19.256 55.943,19.540 55.770 C 19.744 55.645,19.876 55.466,19.944 55.224 C 20.081 54.729,20.083 33.250,19.946 32.756 C 19.892 32.562,19.737 32.316,19.601 32.209 C 19.363 32.022,19.235 32.015,15.987 32.015 L 12.620 32.015 12.343 32.293 M36.353 32.263 C 36.216 32.400,36.081 32.645,36.051 32.809 C 36.022 32.973,36.010 38.119,36.025 44.244 L 36.053 55.381 36.316 55.644 L 36.579 55.907 39.956 55.935 L 43.332 55.962 43.659 55.635 L 43.985 55.309 43.985 43.940 L 43.985 32.570 43.707 32.293 L 43.430 32.015 40.015 32.015 L 36.601 32.015 36.353 32.263 M0.358 40.272 L 0.048 40.549 0.023 47.848 C -0.001 55.012,0.002 55.153,0.189 55.459 C 0.294 55.630,0.490 55.811,0.624 55.862 C 0.764 55.916,2.213 55.955,4.053 55.955 C 7.515 55.955,7.638 55.938,7.877 55.412 C 7.948 55.256,7.980 52.932,7.980 47.883 L 7.980 40.580 7.688 40.287 L 7.395 39.995 4.032 39.995 L 0.668 39.995 0.358 40.272 M24.520 40.128 C 24.029 40.400,24.042 40.181,24.038 47.997 L 24.035 55.287 24.312 55.597 L 24.589 55.907 28.015 55.907 L 31.441 55.907 31.704 55.644 L 31.968 55.381 31.968 47.965 L 31.968 40.549 31.657 40.272 L 31.347 39.995 28.047 39.998 C 25.491 40.001,24.696 40.030,24.520 40.128 " fill="#2B2C30" stroke="none" fill-rule="evenodd"></path></svg>