<svg width="56" height="56" viewBox="0 0 56 56" fill="none" xmlns="http://www.w3.org/2000/svg"><path d="M10.636 1.065 C 5.356 2.245,5.455 2.219,4.456 2.712 C 1.768 4.040,0.000 6.862,0.000 9.828 C 0.000 11.385,0.351 14.381,0.800 16.660 C 3.069 28.167,9.512 38.361,19.399 46.088 C 20.672 47.083,23.512 48.979,25.013 49.836 C 29.020 52.123,33.739 53.946,38.173 54.921 C 41.569 55.667,45.551 56.109,47.049 55.907 C 50.217 55.479,52.776 53.375,53.745 50.400 C 54.060 49.432,55.910 41.087,55.970 40.362 C 56.031 39.617,55.865 38.893,55.463 38.149 C 55.177 37.621,54.410 36.871,53.879 36.600 C 53.514 36.414,50.780 35.377,44.576 33.072 C 41.414 31.897,41.058 31.822,40.353 32.185 C 39.860 32.438,39.802 32.507,37.251 35.906 C 36.010 37.559,34.876 38.996,34.731 39.099 C 34.586 39.202,34.273 39.339,34.036 39.402 C 33.470 39.554,32.350 39.348,30.627 38.775 C 24.067 36.595,18.224 30.259,16.707 23.684 C 16.448 22.560,16.478 21.854,16.805 21.349 C 16.957 21.116,18.133 20.171,20.311 18.533 C 23.226 16.341,23.613 16.020,23.797 15.639 C 24.197 14.812,24.203 14.834,21.787 8.379 C 20.571 5.131,19.501 2.326,19.411 2.147 C 18.801 0.939,17.240 -0.008,15.882 0.005 C 15.567 0.009,13.446 0.437,10.636 1.065 " fill="#2B2C30" stroke="none" fill-rule="evenodd"></path></svg>