<svg width="57" height="48" viewBox="0 0 57 48" fill="none" xmlns="http://www.w3.org/2000/svg"><path d="M14.297 0.104 C 8.121 0.748,2.810 5.019,0.853 10.916 C 0.120 13.125,-0.047 14.572,0.032 18.050 C 0.166 23.970,1.060 27.710,3.056 30.694 C 3.467 31.308,4.202 32.147,5.418 33.391 C 7.973 36.003,7.980 36.021,7.980 39.237 C 7.980 40.420,8.008 42.871,8.043 44.682 L 8.106 47.975 18.065 47.975 L 28.025 47.975 28.025 43.998 L 28.025 40.022 29.521 39.967 C 30.404 39.934,31.232 39.852,31.540 39.766 C 33.526 39.212,35.118 37.656,35.776 35.625 C 35.923 35.171,35.950 34.632,35.982 31.516 L 36.019 27.930 37.711 27.930 L 39.404 27.930 39.859 27.621 C 40.456 27.217,40.708 26.729,40.708 25.980 C 40.708 25.422,40.650 25.293,38.370 20.755 L 36.033 16.102 35.924 14.773 C 35.687 11.898,34.850 9.468,33.290 7.125 C 30.633 3.135,26.394 0.592,21.579 0.100 C 20.443 -0.015,15.421 -0.013,14.297 0.104 M49.462 20.048 C 48.480 20.342,47.874 21.364,48.087 22.364 C 48.181 22.803,48.252 22.910,49.311 24.215 C 50.409 25.567,51.161 27.092,51.649 28.953 C 51.983 30.227,52.065 32.586,51.825 34.021 C 51.436 36.349,50.502 38.302,48.845 40.253 C 48.344 40.841,48.159 41.139,48.089 41.467 C 47.944 42.149,48.177 42.939,48.656 43.387 C 49.195 43.890,50.168 44.033,50.873 43.713 C 51.811 43.287,53.708 40.697,54.617 38.600 C 56.564 34.112,56.478 29.172,54.378 24.796 C 53.546 23.063,52.075 21.026,51.169 20.353 C 50.677 19.987,50.042 19.874,49.462 20.048 M44.354 28.292 L 44.032 28.579 44.004 31.718 C 43.973 35.137,44.013 35.515,44.436 35.792 C 44.991 36.155,46.266 35.846,47.049 35.158 C 47.241 34.990,47.517 34.609,47.662 34.312 C 47.924 33.779,47.928 33.751,47.928 31.968 C 47.928 30.249,47.916 30.140,47.697 29.695 C 47.224 28.733,46.303 28.109,45.257 28.042 C 44.719 28.007,44.652 28.026,44.354 28.292 " fill="#2B2C30" stroke="none" fill-rule="evenodd"></path></svg>