<svg width="41" height="48" viewBox="0 0 41 48" fill="none" xmlns="http://www.w3.org/2000/svg"><path d="M14.828 0.043 C 11.747 0.294,8.794 1.406,6.355 3.236 C 5.542 3.847,4.246 5.098,3.589 5.908 C 2.146 7.688,1.072 9.811,0.512 11.992 C 0.121 13.517,0.056 14.100,0.019 16.463 C -0.069 21.921,0.594 25.952,2.081 29.007 C 2.906 30.702,3.635 31.646,5.617 33.586 C 6.867 34.810,7.310 35.351,7.628 36.046 C 7.987 36.831,7.993 36.926,7.994 42.657 L 7.995 47.970 18.006 47.970 L 28.017 47.970 28.017 43.980 L 28.017 39.990 29.537 39.957 C 31.189 39.922,31.559 39.857,32.490 39.434 C 33.896 38.797,35.138 37.449,35.642 36.012 C 35.982 35.043,36.007 34.722,36.009 31.252 L 36.012 28.029 37.600 28.006 C 39.162 27.982,39.196 27.979,39.565 27.798 C 40.188 27.494,40.511 27.120,40.692 26.493 C 40.903 25.763,40.929 25.829,38.371 20.707 L 36.032 16.024 35.984 15.204 C 35.745 11.076,34.038 7.326,31.116 4.510 C 28.664 2.146,25.730 0.707,22.242 0.158 C 21.706 0.073,20.871 0.047,18.348 0.034 C 16.581 0.025,14.997 0.029,14.828 0.043 M21.012 8.071 C 22.742 8.283,24.417 9.109,25.669 10.367 C 28.753 13.466,28.753 18.514,25.669 21.613 C 24.444 22.844,22.786 23.675,21.085 23.912 C 20.236 24.030,15.453 24.007,14.734 23.882 C 12.999 23.579,11.552 22.836,10.352 21.630 C 7.947 19.214,7.331 15.582,8.809 12.539 C 9.391 11.340,10.092 10.466,11.094 9.692 C 12.159 8.869,13.675 8.229,14.931 8.072 C 15.642 7.983,20.290 7.982,21.012 8.071 " fill="#2B2C30" stroke="none" fill-rule="evenodd"></path></svg>