<svg width="48" height="44" viewBox="0 0 48 44" fill="none" xmlns="http://www.w3.org/2000/svg"><path d="M11.540 0.090 C 9.025 0.354,6.525 1.434,4.506 3.129 C 2.325 4.960,0.805 7.548,0.222 10.422 C 0.068 11.184,0.041 11.556,0.046 12.880 C 0.052 14.251,0.079 14.564,0.268 15.468 C 0.387 16.033,0.610 16.884,0.763 17.359 C 1.129 18.491,2.028 20.268,2.665 21.120 C 3.193 21.825,23.868 43.920,24.000 43.920 C 24.068 43.920,43.795 22.710,44.787 21.570 C 46.166 19.985,47.238 17.731,47.737 15.365 C 47.921 14.495,47.950 14.161,47.955 12.880 C 47.961 11.161,47.839 10.344,47.356 8.864 C 45.959 4.582,42.326 1.320,37.839 0.320 C 34.914 -0.333,31.404 0.093,28.760 1.420 C 26.977 2.315,25.395 3.658,24.333 5.179 C 24.172 5.410,24.022 5.598,24.000 5.598 C 23.978 5.598,23.828 5.410,23.667 5.179 C 21.142 1.563,16.415 -0.420,11.540 0.090 " fill="#2B2C30" stroke="none" fill-rule="evenodd"></path></svg>