<svg width="48" height="56" viewBox="0 0 48 56" fill="none" xmlns="http://www.w3.org/2000/svg"><path d="M22.400 0.051 C 18.833 0.317,15.209 1.394,12.287 3.056 C 4.864 7.281,0.298 14.798,0.027 23.240 C -0.262 32.233,4.451 40.548,12.356 44.989 C 13.620 45.699,15.031 46.300,16.827 46.892 C 17.744 47.194,18.658 47.537,18.857 47.654 C 19.388 47.965,20.083 48.642,20.376 49.132 C 20.516 49.367,21.171 50.844,21.831 52.414 C 22.490 53.984,23.085 55.374,23.152 55.504 C 23.280 55.751,23.705 56.000,24.000 56.000 C 24.295 56.000,24.720 55.751,24.848 55.504 C 24.915 55.374,25.504 53.998,26.158 52.445 C 26.811 50.892,27.420 49.476,27.511 49.297 C 27.752 48.824,28.506 48.044,29.028 47.727 C 29.290 47.568,30.189 47.217,31.160 46.895 C 32.084 46.588,33.218 46.169,33.680 45.965 C 42.643 41.991,48.287 33.017,47.973 23.240 C 47.764 16.711,44.913 10.538,40.123 6.242 C 36.344 2.853,32.024 0.864,27.000 0.199 C 26.063 0.075,23.280 -0.015,22.400 0.051 M25.964 10.460 C 25.967 12.693,25.984 12.996,26.145 13.739 C 26.577 15.733,27.179 16.848,29.156 19.320 C 30.400 20.875,30.877 21.570,31.286 22.426 C 31.806 23.514,31.944 24.170,31.944 25.560 C 31.945 27.234,31.733 28.118,30.925 29.808 C 30.021 31.700,28.360 33.882,26.645 35.430 L 26.040 35.977 26.036 33.528 C 26.033 31.307,26.016 31.004,25.855 30.261 C 25.423 28.268,24.813 27.137,22.852 24.693 C 21.188 22.619,20.587 21.609,20.229 20.280 C 20.005 19.448,19.983 17.558,20.188 16.651 C 20.608 14.794,21.659 12.789,23.254 10.800 C 23.671 10.280,25.862 8.000,25.945 8.000 C 25.953 8.000,25.962 9.107,25.964 10.460 M19.197 23.840 C 19.410 24.579,19.906 25.526,20.566 26.455 C 21.547 27.833,21.890 28.632,21.972 29.720 C 22.104 31.487,21.149 33.678,19.431 35.553 L 19.061 35.956 19.019 34.358 C 18.984 33.045,18.946 32.653,18.803 32.160 C 18.588 31.416,18.090 30.467,17.431 29.545 C 16.689 28.508,16.201 27.515,16.080 26.798 C 15.754 24.870,16.593 22.694,18.501 20.522 L 18.920 20.045 18.972 21.642 C 19.014 22.928,19.058 23.357,19.197 23.840 " fill="#2B2C30" stroke="none" fill-rule="evenodd"></path></svg>