<svg width="56" height="56" viewBox="0 0 56 56" fill="none" xmlns="http://www.w3.org/2000/svg"><path d="M26.133 0.059 C 17.918 0.672,10.533 4.677,5.619 11.185 C 2.799 14.920,1.083 19.058,0.253 24.124 C 0.056 25.325,0.053 25.532,0.024 40.673 L -0.006 56.006 15.327 55.976 C 30.468 55.947,30.675 55.944,31.876 55.747 C 35.366 55.175,38.418 54.181,41.134 52.731 C 46.004 50.132,50.132 46.004,52.731 41.134 C 54.198 38.387,55.210 35.261,55.745 31.828 C 56.030 29.999,56.030 26.001,55.745 24.172 C 54.968 19.185,53.197 14.901,50.377 11.183 C 45.748 5.083,39.127 1.241,31.500 0.232 C 30.407 0.087,27.159 -0.017,26.133 0.059 M30.443 12.305 C 33.535 13.128,36.047 15.307,37.240 18.200 C 37.793 19.541,37.936 20.337,37.929 22.027 C 37.923 23.375,37.892 23.680,37.681 24.473 C 37.072 26.757,35.655 28.818,33.786 30.137 C 32.872 30.782,32.395 31.018,30.279 31.876 C 28.841 32.458,28.417 32.592,27.992 32.598 C 26.953 32.611,26.134 31.855,26.059 30.810 C 25.966 29.528,26.365 29.120,28.573 28.243 C 30.698 27.398,31.326 27.066,32.050 26.401 C 33.221 25.329,33.871 23.939,33.950 22.341 C 34.077 19.782,32.782 17.630,30.473 16.563 C 29.639 16.178,29.037 16.053,28.000 16.053 C 26.963 16.053,26.361 16.178,25.527 16.563 C 24.637 16.975,23.802 17.628,23.282 18.320 C 22.469 19.401,22.167 20.210,22.024 21.690 C 21.955 22.405,21.881 22.706,21.696 23.022 C 21.031 24.157,19.428 24.319,18.544 23.340 C 18.072 22.818,17.977 22.436,18.045 21.332 C 18.287 17.405,20.889 13.951,24.622 12.600 C 25.868 12.149,26.635 12.040,28.280 12.080 C 29.353 12.105,29.912 12.163,30.443 12.305 M29.060 37.203 C 29.660 37.408,30.439 38.137,30.716 38.755 C 31.042 39.478,31.029 40.646,30.688 41.300 C 30.126 42.380,29.173 42.973,28.000 42.973 C 26.829 42.973,25.882 42.385,25.308 41.300 C 25.092 40.893,25.061 40.726,25.064 39.993 C 25.067 39.271,25.103 39.087,25.315 38.677 C 25.618 38.094,26.374 37.396,26.906 37.208 C 27.437 37.019,28.514 37.017,29.060 37.203 " fill="#2B2C30" stroke="none" fill-rule="evenodd"></path></svg>