<svg width="60" height="60" viewBox="0 0 60 60" fill="none" xmlns="http://www.w3.org/2000/svg"><path d="M27.550 0.109 C 19.035 0.801,11.200 5.126,6.011 12.000 C 2.985 16.008,1.100 20.553,0.286 25.800 C 0.093 27.042,0.061 27.645,0.061 30.000 C 0.061 33.032,0.204 34.358,0.807 36.900 C 2.630 44.585,7.397 51.230,14.121 55.457 C 15.383 56.250,18.019 57.562,19.300 58.034 C 21.602 58.883,24.230 59.525,26.600 59.820 C 27.964 59.989,32.036 59.989,33.400 59.820 C 35.770 59.525,38.398 58.883,40.700 58.034 C 41.981 57.562,44.617 56.250,45.879 55.457 C 52.601 51.231,57.371 44.582,59.193 36.900 C 59.796 34.358,59.939 33.032,59.939 30.000 C 59.939 26.968,59.796 25.642,59.193 23.100 C 56.640 12.336,48.383 3.860,37.664 0.999 C 34.582 0.177,30.806 -0.155,27.550 0.109 M32.396 14.300 C 34.053 14.705,35.823 15.708,37.057 16.943 C 38.301 18.187,39.290 19.939,39.717 21.656 C 40.033 22.928,40.033 25.072,39.717 26.344 C 39.070 28.949,37.359 31.245,35.029 32.638 C 34.026 33.238,30.534 34.599,29.996 34.599 C 28.223 34.602,27.355 32.377,28.659 31.168 C 28.819 31.020,29.765 30.569,30.837 30.132 C 32.944 29.273,33.611 28.886,34.357 28.090 C 36.598 25.699,36.534 22.120,34.208 19.791 C 31.894 17.473,28.288 17.411,25.917 19.648 C 24.754 20.745,24.171 22.003,24.003 23.776 C 23.901 24.850,23.697 25.267,23.070 25.682 C 22.732 25.905,22.554 25.950,22.000 25.950 C 21.446 25.950,21.268 25.905,20.930 25.682 C 20.707 25.534,20.418 25.242,20.287 25.032 C 20.074 24.689,20.051 24.542,20.061 23.600 C 20.085 21.197,21.152 18.734,22.943 16.943 C 24.437 15.449,26.433 14.443,28.581 14.101 C 29.459 13.961,31.429 14.064,32.396 14.300 M31.344 39.343 C 32.388 39.853,32.945 40.775,32.948 42.000 C 32.950 42.622,32.902 42.847,32.669 43.322 C 32.332 44.009,31.757 44.527,31.029 44.799 C 28.824 45.624,26.546 43.608,27.096 41.317 C 27.548 39.434,29.590 38.485,31.344 39.343 " fill="#2B2C30" stroke="none" fill-rule="evenodd"></path></svg>