<svg width="63" height="56" viewBox="0 0 63 56" fill="none" xmlns="http://www.w3.org/2000/svg"><path d="M16.688 0.143 C 16.049 0.316,15.371 0.724,14.857 1.244 C 14.571 1.535,12.244 5.502,7.540 13.724 C 3.746 20.353,0.509 26.061,0.347 26.407 C 0.093 26.951,0.052 27.167,0.052 27.982 C 0.052 28.798,0.093 29.014,0.347 29.557 C 0.509 29.904,3.746 35.613,7.540 42.244 C 12.537 50.978,14.563 54.428,14.891 54.762 C 15.141 55.016,15.660 55.379,16.044 55.568 L 16.743 55.913 31.395 55.913 L 46.047 55.913 46.727 55.577 C 47.101 55.392,47.629 55.014,47.900 54.737 C 48.277 54.351,49.995 51.429,55.237 42.262 C 59.002 35.679,62.229 29.985,62.409 29.610 C 62.702 29.000,62.736 28.827,62.734 27.982 C 62.732 27.231,62.683 26.932,62.496 26.520 C 62.366 26.235,59.131 20.527,55.306 13.834 C 50.012 4.570,48.240 1.554,47.881 1.195 C 47.622 0.936,47.103 0.572,46.728 0.388 L 46.047 0.052 31.607 0.032 C 20.386 0.017,17.061 0.041,16.688 0.143 " fill="#2B2C30" stroke="none" fill-rule="evenodd"></path></svg>