<svg width="56" height="55" viewBox="0 0 56 55" fill="none" xmlns="http://www.w3.org/2000/svg"><path d="M27.580 0.107 C 27.477 0.163,21.251 6.346,13.743 13.847 C -0.575 28.154,-0.138 27.693,0.051 28.295 C 0.149 28.610,1.670 30.146,2.040 30.304 C 2.212 30.377,2.466 30.412,2.603 30.382 C 2.769 30.346,3.712 29.469,5.370 27.810 L 7.887 25.292 7.933 39.524 L 7.980 53.756 8.285 54.062 L 8.590 54.367 15.752 54.395 C 20.777 54.414,23.019 54.392,23.268 54.320 C 23.503 54.251,23.684 54.116,23.804 53.918 C 23.980 53.629,23.986 53.388,23.986 45.990 L 23.987 38.360 28.000 38.360 L 32.013 38.360 32.013 46.059 L 32.013 53.757 32.286 54.062 L 32.558 54.367 39.822 54.392 C 45.148 54.410,47.156 54.388,47.346 54.309 C 47.489 54.250,47.689 54.096,47.790 53.968 C 47.970 53.738,47.973 53.512,47.973 39.495 L 47.973 25.254 50.517 27.783 C 53.192 30.443,53.331 30.548,53.907 30.332 C 54.221 30.215,55.668 28.823,55.867 28.448 C 55.940 28.309,56.000 28.058,56.000 27.889 C 56.000 27.605,54.957 26.538,42.350 13.925 C 34.843 6.413,28.587 0.208,28.448 0.134 C 28.151 -0.024,27.839 -0.034,27.580 0.107 " fill="#2B2C30" stroke="none" fill-rule="evenodd"></path></svg>