<svg width="57" height="56" viewBox="0 0 57 56" fill="none" xmlns="http://www.w3.org/2000/svg"><path d="M0.323 0.323 L 0.000 0.646 0.000 8.303 L 0.000 15.960 1.995 15.960 L 3.990 15.960 3.990 17.955 L 3.990 19.950 1.995 19.950 L 0.000 19.950 0.001 27.574 C 0.002 33.478,0.030 35.251,0.121 35.435 C 0.187 35.566,0.389 35.747,0.571 35.839 C 0.881 35.994,1.597 36.005,11.424 36.005 L 21.945 36.005 21.945 38.184 C 21.945 40.361,21.945 40.362,21.731 40.426 C 21.251 40.570,20.126 41.363,19.588 41.938 C 19.246 42.304,18.872 42.841,18.660 43.268 L 18.306 43.985 9.153 43.985 L 0.000 43.985 0.000 45.980 L 0.000 47.975 9.163 47.975 L 18.326 47.975 18.520 48.414 C 19.497 50.622,21.908 52.085,24.320 51.933 C 25.043 51.887,26.168 51.617,26.479 51.415 C 26.565 51.359,26.424 50.997,25.951 50.061 C 23.855 45.907,23.444 41.107,24.807 36.680 C 25.676 33.856,27.079 31.544,29.268 29.331 L 30.559 28.025 23.307 28.025 L 16.055 28.025 16.055 26.027 L 16.055 24.029 30.234 24.062 C 43.149 24.092,44.484 24.109,45.220 24.257 C 45.951 24.404,47.427 24.795,47.819 24.945 C 47.961 25.000,47.975 24.782,47.975 22.478 L 47.975 19.950 45.980 19.950 L 43.985 19.950 43.985 17.955 L 43.985 15.960 45.980 15.960 L 47.975 15.960 47.975 8.364 C 47.975 3.106,47.943 0.699,47.872 0.543 C 47.815 0.418,47.648 0.245,47.501 0.158 C 47.253 0.012,45.502 0.000,23.940 0.000 L 0.646 0.000 0.323 0.323 M11.970 9.975 L 11.970 11.970 9.975 11.970 L 7.980 11.970 7.980 9.975 L 7.980 7.980 9.975 7.980 L 11.970 7.980 11.970 9.975 M39.995 9.975 L 39.995 11.970 28.025 11.970 L 16.055 11.970 16.055 9.975 L 16.055 7.980 28.025 7.980 L 39.995 7.980 39.995 9.975 M11.970 26.032 L 11.970 28.029 9.999 28.003 L 8.027 27.977 8.002 26.006 L 7.976 24.035 9.973 24.035 L 11.970 24.035 11.970 26.032 M40.144 28.174 C 40.020 28.299,39.995 28.604,39.995 30.019 C 39.995 31.695,39.992 31.719,39.755 32.001 C 39.593 32.193,39.306 32.355,38.876 32.497 C 38.525 32.612,37.950 32.850,37.599 33.026 C 36.523 33.563,36.477 33.547,35.004 32.110 C 34.144 31.271,33.670 30.875,33.525 30.875 C 33.380 30.875,32.935 31.249,32.129 32.048 C 31.190 32.979,30.946 33.274,30.946 33.480 C 30.946 33.685,31.198 33.995,32.132 34.944 C 32.861 35.684,33.343 36.251,33.382 36.415 C 33.432 36.619,33.348 36.901,33.028 37.603 C 32.798 38.109,32.539 38.741,32.452 39.008 C 32.365 39.274,32.185 39.595,32.052 39.720 C 31.817 39.941,31.757 39.948,30.039 39.977 C 28.978 39.995,28.219 40.048,28.146 40.108 C 28.056 40.183,28.025 40.654,28.025 41.949 C 28.025 43.640,28.031 43.693,28.236 43.837 C 28.408 43.957,28.760 43.985,30.123 43.985 C 32.126 43.985,32.165 44.002,32.496 45.007 C 32.613 45.359,32.874 46.009,33.077 46.451 C 33.358 47.064,33.431 47.322,33.384 47.538 C 33.343 47.727,32.915 48.239,32.098 49.076 C 31.426 49.766,30.875 50.384,30.875 50.451 C 30.875 50.517,31.418 51.120,32.082 51.791 C 33.004 52.723,33.346 53.010,33.532 53.010 C 33.717 53.010,34.050 52.735,34.914 51.868 C 36.408 50.370,36.441 50.361,37.905 51.044 C 38.297 51.226,38.801 51.430,39.026 51.497 C 39.268 51.568,39.548 51.748,39.715 51.937 L 39.995 52.257 39.995 53.949 C 39.995 55.467,40.013 55.657,40.169 55.798 C 40.421 56.026,43.608 56.033,43.836 55.806 C 43.960 55.681,43.985 55.379,43.985 53.996 C 43.985 51.853,44.017 51.787,45.267 51.393 C 45.477 51.327,46.011 51.105,46.455 50.900 C 47.052 50.625,47.336 50.542,47.545 50.583 C 47.740 50.622,48.197 51.005,49.026 51.824 C 50.000 52.788,50.275 53.010,50.496 53.010 C 50.719 53.010,50.986 52.793,51.937 51.842 C 52.766 51.014,53.105 50.610,53.105 50.452 C 53.105 50.295,52.743 49.861,51.870 48.973 C 50.432 47.509,50.415 47.461,50.954 46.381 C 51.130 46.030,51.368 45.455,51.483 45.104 C 51.625 44.674,51.787 44.387,51.979 44.225 C 52.261 43.988,52.285 43.985,53.961 43.985 C 55.376 43.985,55.681 43.960,55.806 43.836 C 55.931 43.711,55.955 43.402,55.955 41.955 C 55.955 40.734,55.921 40.189,55.841 40.109 C 55.761 40.029,55.228 39.995,54.050 39.995 C 51.952 39.995,51.877 39.961,51.478 38.823 C 51.334 38.413,51.086 37.807,50.926 37.475 C 50.418 36.422,50.441 36.359,51.870 34.916 C 52.568 34.212,53.105 33.592,53.105 33.491 C 53.105 33.248,50.746 30.875,50.504 30.875 C 50.391 30.875,49.816 31.368,49.060 32.110 C 47.596 33.550,47.567 33.560,46.429 33.020 C 46.051 32.841,45.457 32.600,45.107 32.486 C 44.045 32.137,44.038 32.121,44.003 30.039 C 43.985 28.978,43.932 28.219,43.872 28.146 C 43.797 28.056,43.326 28.025,42.033 28.025 C 40.578 28.025,40.269 28.049,40.144 28.174 M43.712 38.360 C 44.528 38.753,45.395 39.658,45.707 40.440 C 45.886 40.892,45.927 41.174,45.929 41.990 C 45.932 42.914,45.911 43.033,45.637 43.605 C 44.289 46.421,40.549 46.793,38.755 44.288 C 37.214 42.135,38.136 39.190,40.660 38.204 C 41.095 38.033,41.341 38.004,42.133 38.028 C 42.974 38.053,43.154 38.091,43.712 38.360 " fill="#2B2C30" stroke="none" fill-rule="evenodd"></path></svg>