<svg width="55" height="54" viewBox="0 0 55 54" fill="none" xmlns="http://www.w3.org/2000/svg"><path d="M0.479 0.184 C 0.314 0.284,0.139 0.473,0.089 0.602 C 0.034 0.748,-0.000 3.722,-0.000 8.439 L 0.000 16.042 2.017 16.042 L 4.033 16.042 4.033 18.012 L 4.033 19.983 2.017 19.983 L 0.000 19.983 0.000 27.596 C 0.000 36.040,-0.029 35.632,0.599 35.895 C 0.862 36.005,2.550 36.025,11.455 36.025 L 22.000 36.025 22.000 38.171 L 22.000 40.317 21.290 40.667 C 20.284 41.161,19.137 42.303,18.653 43.290 L 18.305 44.000 9.153 44.000 L 0.000 44.000 0.000 46.017 L 0.000 48.033 9.164 48.033 L 18.328 48.033 18.612 48.606 C 19.713 50.826,21.852 52.078,24.325 51.950 C 25.166 51.906,26.279 51.642,26.517 51.429 C 26.556 51.394,26.301 50.797,25.951 50.102 C 23.262 44.761,23.372 38.597,26.251 33.315 C 27.155 31.656,28.696 29.707,29.973 28.608 L 30.621 28.050 23.332 28.050 L 16.042 28.050 16.042 26.030 L 16.042 24.009 30.090 24.039 C 44.117 24.069,44.139 24.070,45.152 24.270 C 46.049 24.448,47.418 24.806,47.873 24.982 C 48.023 25.041,48.033 24.887,48.033 22.514 L 48.033 19.983 46.017 19.983 L 44.000 19.983 44.000 18.014 L 44.000 16.045 45.994 16.021 L 47.987 15.996 48.014 8.525 C 48.033 3.299,48.011 0.950,47.941 0.706 C 47.874 0.475,47.742 0.298,47.547 0.179 C 47.259 0.004,46.888 0.001,24.017 0.001 C 0.953 0.001,0.777 0.002,0.479 0.184 M12.008 9.992 L 12.008 12.008 9.992 12.008 L 7.975 12.008 7.975 9.992 L 7.975 7.975 9.992 7.975 L 12.008 7.975 12.008 9.992 M39.967 9.992 L 39.967 12.008 28.004 12.008 L 16.042 12.008 16.042 9.992 L 16.042 7.975 28.004 7.975 L 39.967 7.975 39.967 9.992 M12.008 26.035 L 12.008 28.054 10.015 28.029 L 8.021 28.004 7.996 26.010 L 7.971 24.017 9.990 24.017 L 12.008 24.017 12.008 26.035 M45.762 29.064 C 44.934 29.165,43.588 29.608,42.837 30.027 C 39.556 31.859,37.949 35.690,38.925 39.352 L 39.090 39.972 34.866 44.209 C 32.543 46.539,30.553 48.598,30.443 48.783 C 30.333 48.969,30.182 49.413,30.107 49.771 C 29.771 51.383,30.557 52.941,32.065 53.654 C 32.615 53.914,32.766 53.945,33.504 53.943 C 34.215 53.942,34.412 53.904,34.925 53.675 C 35.475 53.429,35.852 53.079,39.787 49.162 L 44.054 44.915 44.783 45.112 C 45.743 45.373,47.674 45.398,48.617 45.163 C 52.208 44.267,54.687 41.363,54.967 37.726 C 55.028 36.922,54.880 35.529,54.682 35.055 C 54.531 34.693,54.268 34.596,53.927 34.777 C 53.786 34.852,52.599 35.988,51.288 37.302 C 49.433 39.162,48.854 39.692,48.675 39.692 C 48.344 39.692,44.275 35.624,44.275 35.293 C 44.275 35.119,44.859 34.481,46.796 32.540 C 49.410 29.919,49.504 29.796,49.148 29.440 C 48.831 29.123,46.973 28.917,45.762 29.064 " fill="#2B2C30" stroke="none" fill-rule="evenodd"></path></svg>