<svg width="56" height="56" viewBox="0 0 56 56" fill="none" xmlns="http://www.w3.org/2000/svg"><path d="M0.607 0.088 C 0.504 0.130,0.336 0.258,0.233 0.372 C 0.050 0.576,0.046 0.729,0.022 8.268 L -0.003 15.956 1.982 15.981 L 3.967 16.007 3.992 17.990 L 4.017 19.973 2.009 19.973 L 0.000 19.973 0.000 27.603 C 0.001 34.996,0.006 35.243,0.182 35.531 C 0.304 35.731,0.480 35.861,0.718 35.927 C 0.958 35.994,4.484 36.026,11.550 36.026 L 22.027 36.027 22.027 38.178 L 22.027 40.330 21.687 40.471 C 20.485 40.974,19.316 42.070,18.681 43.289 L 18.284 44.053 9.142 44.053 L 0.000 44.053 0.000 46.013 L 0.000 47.973 9.170 47.979 L 18.340 47.985 18.706 48.748 C 19.218 49.813,20.185 50.779,21.283 51.321 C 22.317 51.830,23.222 52.020,24.313 51.956 C 25.057 51.912,26.165 51.652,26.477 51.449 C 26.556 51.397,26.391 50.983,25.909 50.021 C 24.518 47.242,23.894 44.378,24.018 41.347 C 24.128 38.672,24.700 36.411,25.859 34.081 C 26.907 31.975,27.948 30.560,29.636 28.948 L 30.629 28.000 23.293 28.000 L 15.956 28.000 15.981 26.017 L 16.007 24.033 29.307 24.009 C 38.019 23.993,42.974 24.018,43.672 24.082 C 44.801 24.186,46.423 24.503,47.390 24.809 L 47.973 24.994 47.973 22.484 L 47.973 19.973 45.965 19.973 L 43.956 19.973 43.981 17.990 L 44.007 16.007 45.990 15.981 L 47.973 15.956 47.973 8.306 L 47.973 0.656 47.701 0.351 L 47.429 0.047 24.111 0.029 C 11.286 0.019,0.709 0.046,0.607 0.088 M12.019 10.010 L 11.993 11.993 10.010 12.019 L 8.027 12.044 8.027 10.035 L 8.027 8.027 10.035 8.027 L 12.044 8.027 12.019 10.010 M40.019 10.010 L 39.993 11.993 28.000 11.993 L 16.007 11.993 15.981 10.010 L 15.956 8.027 28.000 8.027 L 40.044 8.027 40.019 10.010 M12.019 26.017 L 12.044 28.000 10.035 28.000 L 8.027 28.000 8.027 25.991 L 8.027 23.983 10.010 24.008 L 11.993 24.033 12.019 26.017 M40.133 28.134 C 38.349 28.393,37.081 28.802,35.478 29.637 C 31.780 31.564,29.206 35.001,28.257 39.277 C 27.966 40.589,27.967 43.415,28.259 44.731 C 29.520 50.422,33.581 54.484,39.262 55.737 C 40.593 56.030,43.407 56.030,44.738 55.737 C 50.413 54.485,54.485 50.413,55.737 44.738 C 56.030 43.407,56.030 40.593,55.737 39.262 C 54.463 33.485,50.107 29.234,44.428 28.225 C 43.289 28.023,41.206 27.979,40.133 28.134 M43.288 31.459 C 44.281 31.955,44.837 32.875,44.840 34.023 C 44.845 36.489,41.912 37.772,40.087 36.104 C 39.440 35.513,39.167 34.896,39.164 34.020 C 39.160 32.878,39.717 31.956,40.712 31.459 C 41.200 31.215,41.387 31.173,42.000 31.173 C 42.613 31.173,42.800 31.215,43.288 31.459 M43.960 46.013 L 43.960 51.987 42.000 51.987 L 40.040 51.987 40.040 46.013 L 40.040 40.040 42.000 40.040 L 43.960 40.040 43.960 46.013 " fill="#2B2C30" stroke="none" fill-rule="evenodd"></path></svg>