<svg width="56" height="57" viewBox="0 0 56 57" fill="none" xmlns="http://www.w3.org/2000/svg"><path d="M0.607 0.088 C 0.504 0.130,0.336 0.258,0.233 0.372 C 0.050 0.576,0.046 0.729,0.022 8.316 L -0.003 16.053 2.005 16.053 L 4.013 16.053 4.013 18.060 L 4.013 20.067 2.007 20.067 L 0.000 20.067 0.000 27.729 L 0.000 35.392 0.317 35.709 L 0.635 36.027 11.331 36.027 L 22.027 36.027 22.026 38.197 L 22.026 40.367 21.346 40.716 C 20.149 41.330,19.168 42.323,18.622 43.473 L 18.346 44.053 9.173 44.053 L 0.000 44.053 0.000 46.060 L 0.000 48.067 9.043 48.067 L 18.085 48.067 23.929 38.131 C 27.143 32.667,29.773 28.173,29.773 28.145 C 29.773 28.116,26.686 28.093,22.913 28.093 L 16.053 28.093 16.053 26.087 L 16.053 24.080 24.111 24.080 L 32.169 24.080 32.527 23.561 C 33.290 22.453,34.611 21.483,35.980 21.026 C 36.647 20.804,36.866 20.777,38.033 20.777 C 39.200 20.777,39.420 20.804,40.087 21.026 C 41.167 21.387,41.945 21.876,42.793 22.728 C 43.489 23.428,43.692 23.737,45.767 27.279 C 46.992 29.370,48.010 31.080,48.030 31.080 C 48.050 31.080,48.067 28.602,48.067 25.573 L 48.067 20.067 46.060 20.067 L 44.053 20.067 44.053 18.060 L 44.053 16.053 46.060 16.053 L 48.067 16.053 48.067 8.442 C 48.067 0.088,48.090 0.442,47.510 0.142 C 47.267 0.016,44.596 0.001,24.015 0.006 C 11.243 0.009,0.709 0.046,0.607 0.088 M12.040 10.033 L 12.040 12.040 10.033 12.040 L 8.027 12.040 8.027 10.033 L 8.027 8.027 10.033 8.027 L 12.040 8.027 12.040 10.033 M40.040 10.033 L 40.040 12.040 28.047 12.040 L 16.053 12.040 16.053 10.033 L 16.053 8.027 28.047 8.027 L 40.040 8.027 40.040 10.033 M12.019 26.063 L 11.993 28.047 10.010 28.072 L 8.027 28.097 8.027 26.089 L 8.027 24.080 10.035 24.080 L 12.044 24.080 12.019 26.063 M37.128 24.881 C 36.160 25.179,36.387 24.826,28.078 38.967 C 23.855 46.153,20.321 52.264,20.224 52.547 C 19.790 53.809,20.454 55.254,21.742 55.850 L 22.167 56.047 38.033 56.047 L 53.900 56.047 54.325 55.850 C 55.617 55.252,56.278 53.816,55.844 52.547 C 55.748 52.264,52.215 46.153,47.992 38.967 C 39.623 24.722,39.918 25.178,38.899 24.876 C 38.311 24.701,37.708 24.703,37.128 24.881 M40.017 38.057 L 40.041 44.053 38.034 44.053 L 36.027 44.053 36.027 38.031 L 36.027 32.010 38.010 32.035 L 39.993 32.060 40.017 38.057 M39.246 47.735 C 41.267 48.724,41.212 51.627,39.153 52.604 C 38.538 52.895,37.570 52.908,36.960 52.633 C 35.811 52.114,35.123 50.811,35.370 49.621 C 35.736 47.859,37.622 46.941,39.246 47.735 " fill="#2B2C30" stroke="none" fill-rule="evenodd"></path></svg>