<svg width="48" height="52" viewBox="0 0 48 52" fill="none" xmlns="http://www.w3.org/2000/svg"><path d="M0.504 0.157 C -0.029 0.482,0.000 0.002,0.000 8.396 L 0.000 16.000 2.000 16.000 L 4.000 16.000 4.000 18.000 L 4.000 20.000 2.000 20.000 L 0.000 20.000 0.000 27.620 C 0.001 35.037,0.005 35.247,0.157 35.496 C 0.486 36.036,-0.314 36.000,11.396 36.000 L 22.000 36.000 21.995 38.180 L 21.990 40.360 21.255 40.714 C 20.635 41.012,20.407 41.181,19.794 41.794 C 19.181 42.407,19.012 42.635,18.714 43.255 L 18.360 43.990 9.180 43.995 L 0.000 44.000 0.000 46.000 L 0.000 48.000 9.180 48.005 L 18.360 48.010 18.714 48.745 C 19.012 49.365,19.181 49.594,19.794 50.207 C 20.406 50.820,20.639 50.992,21.280 51.307 C 22.326 51.820,22.882 51.952,24.000 51.952 C 25.118 51.952,25.674 51.820,26.720 51.307 C 27.361 50.992,27.594 50.820,28.206 50.207 C 28.819 49.594,28.988 49.365,29.286 48.745 L 29.640 48.010 38.820 48.005 L 48.000 48.000 48.000 46.000 L 48.000 44.000 38.820 43.995 L 29.640 43.990 29.286 43.255 C 28.988 42.635,28.819 42.407,28.206 41.794 C 27.593 41.181,27.365 41.012,26.745 40.714 L 26.010 40.360 26.005 38.180 L 26.000 36.000 36.620 36.000 C 47.012 35.999,47.245 35.996,47.496 35.843 C 48.029 35.518,48.000 35.998,48.000 27.604 L 48.000 20.000 46.000 20.000 L 44.000 20.000 44.000 18.000 L 44.000 16.000 46.000 16.000 L 48.000 16.000 48.000 8.396 C 48.000 0.002,48.029 0.482,47.496 0.157 C 47.244 0.003,46.909 0.001,24.000 0.001 C 1.091 0.001,0.756 0.003,0.504 0.157 M12.000 10.000 L 12.000 12.000 10.000 12.000 L 8.000 12.000 8.000 10.000 L 8.000 8.000 10.000 8.000 L 12.000 8.000 12.000 10.000 M40.000 10.000 L 40.000 12.000 28.000 12.000 L 16.000 12.000 16.000 10.000 L 16.000 8.000 28.000 8.000 L 40.000 8.000 40.000 10.000 M12.000 26.000 L 12.000 28.000 10.000 28.000 L 8.000 28.000 8.000 26.000 L 8.000 24.000 10.000 24.000 L 12.000 24.000 12.000 26.000 M40.000 26.000 L 40.000 28.000 28.000 28.000 L 16.000 28.000 16.000 26.000 L 16.000 24.000 28.000 24.000 L 40.000 24.000 40.000 26.000 " fill="#2B2C30" stroke="none" fill-rule="evenodd"></path></svg>