<svg width="56" height="56" viewBox="0 0 56 56" fill="none" xmlns="http://www.w3.org/2000/svg"><path d="M0.607 0.088 C 0.504 0.130,0.336 0.258,0.233 0.372 C 0.050 0.576,0.046 0.729,0.022 8.316 L -0.003 16.053 2.005 16.053 L 4.013 16.053 4.013 18.013 L 4.013 19.973 2.007 19.973 L 0.000 19.973 0.000 27.574 C 0.000 32.286,0.035 35.265,0.091 35.414 C 0.141 35.546,0.320 35.737,0.488 35.840 C 0.788 36.023,0.964 36.026,11.410 36.026 L 22.027 36.027 22.027 38.169 L 22.027 40.311 21.267 40.706 C 20.053 41.338,19.198 42.220,18.565 43.495 L 18.288 44.053 9.144 44.053 L 0.000 44.053 0.000 46.060 L 0.000 48.067 9.170 48.067 L 18.340 48.067 18.695 48.759 C 19.374 50.082,20.549 51.107,22.029 51.667 C 22.661 51.906,22.841 51.931,23.940 51.935 C 24.974 51.939,25.254 51.907,25.832 51.718 C 26.206 51.595,26.530 51.464,26.554 51.426 C 26.577 51.389,26.368 50.922,26.090 50.389 C 23.825 46.052,23.402 41.011,24.916 36.400 C 25.838 33.592,27.272 31.306,29.466 29.143 L 30.626 28.000 23.340 28.000 L 16.053 28.000 16.053 25.987 L 16.053 23.974 29.937 24.010 L 43.820 24.045 44.984 24.258 C 45.625 24.376,46.507 24.577,46.944 24.706 C 47.382 24.836,47.814 24.963,47.905 24.989 C 48.060 25.033,48.068 24.888,48.045 22.528 L 48.020 20.020 46.037 19.995 L 44.053 19.970 44.053 18.013 L 44.053 16.057 46.037 16.032 L 48.020 16.007 48.020 8.391 C 48.020 0.140,48.041 0.470,47.508 0.156 C 47.264 0.011,45.550 0.000,24.019 0.006 C 11.245 0.009,0.709 0.046,0.607 0.088 M11.947 10.033 L 11.947 12.040 9.987 12.040 L 8.027 12.040 8.027 10.033 L 8.027 8.027 9.987 8.027 L 11.947 8.027 11.947 10.033 M40.019 10.010 L 39.993 11.993 28.023 12.017 L 16.053 12.041 16.053 10.034 L 16.053 8.027 28.049 8.027 L 40.044 8.027 40.019 10.010 M11.947 25.993 L 11.947 28.000 9.987 28.000 L 8.027 28.000 8.027 25.993 L 8.027 23.987 9.987 23.987 L 11.947 23.987 11.947 25.993 M41.067 28.056 C 38.451 28.361,36.761 28.878,35.022 29.905 C 28.688 33.648,26.284 41.325,29.368 47.966 C 30.666 50.763,33.204 53.304,36.031 54.636 C 39.935 56.477,44.437 56.424,48.279 54.494 C 54.545 51.346,57.503 44.038,55.196 37.410 C 53.527 32.615,49.368 29.096,44.355 28.239 C 43.507 28.094,41.633 27.990,41.067 28.056 M36.848 34.107 C 36.987 34.181,38.212 35.356,39.572 36.720 L 42.044 39.199 44.662 36.586 L 47.281 33.973 47.687 33.973 C 48.075 33.973,48.134 34.014,49.011 34.875 C 49.999 35.847,50.195 36.187,50.025 36.643 C 49.970 36.792,48.783 38.057,47.387 39.456 L 44.850 41.998 47.386 44.543 C 48.791 45.952,49.969 47.210,50.026 47.363 C 50.084 47.515,50.105 47.746,50.073 47.876 C 50.041 48.007,49.588 48.544,49.066 49.070 C 48.066 50.078,47.749 50.250,47.306 50.025 C 47.186 49.964,45.942 48.774,44.543 47.381 L 42.000 44.848 39.386 47.461 L 36.772 50.073 36.349 50.073 C 35.936 50.073,35.905 50.051,34.950 49.085 C 34.010 48.133,33.973 48.081,33.973 47.689 L 33.973 47.281 36.540 44.708 C 37.952 43.293,39.107 42.094,39.107 42.044 C 39.107 41.993,37.972 40.818,36.584 39.433 C 34.028 36.880,33.858 36.665,33.957 36.120 C 33.982 35.984,34.395 35.489,34.952 34.930 C 35.818 34.061,35.937 33.973,36.251 33.973 C 36.441 33.973,36.709 34.034,36.848 34.107 " fill="#2B2C30" stroke="none" fill-rule="evenodd"></path></svg>