<svg width="56" height="56" viewBox="0 0 56 56" fill="none" xmlns="http://www.w3.org/2000/svg"><path d="M0.607 0.088 C 0.504 0.130,0.336 0.258,0.233 0.372 C 0.050 0.576,0.046 0.729,0.022 8.316 L -0.003 16.053 2.005 16.053 L 4.013 16.053 4.013 18.013 L 4.013 19.973 2.007 19.973 L 0.000 19.973 0.000 27.585 C 0.000 36.026,-0.029 35.627,0.610 35.894 C 0.878 36.006,2.571 36.027,11.477 36.027 L 22.027 36.027 22.027 38.165 L 22.027 40.304 21.303 40.659 C 20.291 41.155,19.136 42.314,18.641 43.330 L 18.289 44.053 9.145 44.053 L 0.000 44.053 0.000 46.013 L 0.000 47.973 9.142 47.973 L 18.284 47.973 18.683 48.743 C 19.771 50.844,21.968 52.092,24.348 51.961 C 25.143 51.917,26.297 51.640,26.525 51.438 C 26.561 51.406,26.300 50.799,25.945 50.090 C 22.321 42.853,23.909 34.210,29.873 28.722 L 30.658 28.000 23.356 28.000 L 16.053 28.000 16.053 25.990 L 16.053 23.980 29.330 23.990 C 36.859 23.995,43.031 24.038,43.587 24.088 C 45.059 24.221,46.831 24.591,47.810 24.970 C 47.963 25.029,47.973 24.875,47.973 22.503 L 47.973 19.973 46.013 19.973 L 44.053 19.973 44.053 18.013 L 44.053 16.053 46.013 16.053 L 47.973 16.053 47.973 8.344 L 47.973 0.635 47.656 0.317 L 47.339 0.000 24.066 0.006 C 11.266 0.009,0.709 0.046,0.607 0.088 M11.947 10.033 L 11.947 12.040 9.987 12.040 L 8.027 12.040 8.027 10.033 L 8.027 8.027 9.987 8.027 L 11.947 8.027 11.947 10.033 M39.947 10.033 L 39.947 12.040 28.000 12.040 L 16.053 12.040 16.053 10.033 L 16.053 8.027 28.000 8.027 L 39.947 8.027 39.947 10.033 M11.947 25.993 L 11.947 28.000 9.987 28.000 L 8.027 28.000 8.027 25.993 L 8.027 23.987 9.987 23.987 L 11.947 23.987 11.947 25.993 M40.367 28.107 C 38.278 28.338,36.035 29.169,34.207 30.391 C 29.989 33.209,27.609 38.193,28.080 43.222 C 28.641 49.206,32.729 54.031,38.514 55.535 C 42.955 56.689,47.790 55.539,51.223 52.510 C 54.576 49.552,56.331 45.168,55.920 40.778 C 55.180 32.873,48.259 27.235,40.367 28.107 M50.475 35.692 C 50.824 35.874,52.319 37.425,52.403 37.691 C 52.587 38.279,52.629 38.231,46.387 44.473 L 40.413 50.447 39.993 50.447 L 39.574 50.447 35.910 46.783 L 32.247 43.120 32.247 42.697 C 32.247 42.283,32.268 42.252,33.235 41.297 C 34.187 40.357,34.239 40.320,34.631 40.320 L 35.039 40.320 37.494 42.769 L 39.949 45.217 44.638 40.533 C 47.217 37.956,49.453 35.784,49.607 35.705 C 49.955 35.526,50.152 35.523,50.475 35.692 " fill="#2B2C30" stroke="none" fill-rule="evenodd"></path></svg>