<svg width="40" height="56" viewBox="0 0 40 56" fill="none" xmlns="http://www.w3.org/2000/svg"><path d="M0.507 0.151 C 0.034 0.422,-0.007 0.582,0.014 2.067 C 0.032 3.288,0.042 3.379,0.182 3.575 C 0.465 3.972,0.613 4.000,2.393 4.000 L 4.000 4.000 4.000 6.620 C 4.000 9.244,4.050 10.339,4.240 11.833 C 4.769 16.002,6.179 19.922,8.271 23.040 C 9.563 24.966,11.367 26.818,12.992 27.888 L 13.345 28.121 12.933 28.400 C 11.756 29.200,10.244 30.621,9.246 31.867 C 6.869 34.833,5.123 38.957,4.405 43.300 C 4.094 45.177,4.052 45.803,4.018 48.950 L 3.985 52.000 2.376 52.001 C 0.834 52.002,0.756 52.008,0.507 52.151 C 0.034 52.422,-0.007 52.582,0.014 54.067 C 0.032 55.288,0.042 55.379,0.182 55.575 C 0.264 55.690,0.433 55.832,0.559 55.892 C 0.768 55.991,2.411 56.000,20.000 56.000 C 37.589 56.000,39.232 55.991,39.441 55.892 C 39.567 55.832,39.736 55.690,39.818 55.575 C 39.957 55.380,39.968 55.286,39.987 54.085 C 40.011 52.598,39.971 52.439,39.502 52.164 C 39.225 52.002,39.202 52.000,37.618 52.000 L 36.015 52.000 35.982 48.950 C 35.948 45.803,35.906 45.177,35.595 43.300 C 34.877 38.957,33.131 34.833,30.754 31.867 C 29.756 30.621,28.244 29.200,27.067 28.400 L 26.655 28.121 27.008 27.888 C 28.639 26.815,30.436 24.966,31.739 23.024 C 33.819 19.925,35.228 16.000,35.762 11.819 C 35.945 10.385,35.999 9.192,36.000 6.583 L 36.000 4.000 37.607 4.000 C 39.387 4.000,39.535 3.972,39.818 3.575 C 39.957 3.380,39.968 3.286,39.987 2.085 C 40.011 0.598,39.971 0.439,39.502 0.164 L 39.222 0.000 19.994 0.001 L 0.767 0.002 0.507 0.151 " fill="#2B2C30" stroke="none" fill-rule="evenodd"></path></svg>