<svg width="32" height="56" viewBox="0 0 32 56" fill="none" xmlns="http://www.w3.org/2000/svg"><path d="M15.027 0.058 C 13.232 0.279,11.527 1.146,10.231 2.496 C 7.188 5.667,7.282 10.643,10.442 13.715 C 11.721 14.959,13.429 15.780,15.056 15.932 C 15.359 15.961,14.781 15.983,13.173 16.004 C 10.691 16.037,10.286 16.072,9.120 16.356 C 8.308 16.553,7.595 16.815,6.747 17.226 C 2.994 19.046,0.461 22.701,0.054 26.880 C 0.014 27.284,-0.001 28.685,0.010 30.987 L 0.027 34.480 0.192 34.827 C 0.401 35.267,0.733 35.599,1.173 35.808 C 1.481 35.955,1.574 35.973,2.000 35.973 C 2.426 35.973,2.519 35.955,2.827 35.808 C 3.267 35.599,3.599 35.267,3.808 34.827 L 3.973 34.480 4.008 31.733 C 4.027 30.223,4.067 28.867,4.097 28.720 C 4.331 27.570,4.597 26.834,5.074 26.012 C 5.558 25.179,6.219 24.400,6.918 23.838 C 7.392 23.457,7.590 23.422,7.844 23.676 L 8.000 23.832 8.000 39.476 C 8.000 49.594,8.019 55.185,8.053 55.304 C 8.122 55.546,8.455 55.881,8.691 55.947 C 8.795 55.976,9.420 55.999,10.080 55.999 C 11.137 55.998,11.306 55.986,11.500 55.898 C 11.788 55.767,11.990 55.493,12.058 55.140 C 12.089 54.982,12.508 51.001,12.990 46.293 C 13.471 41.585,13.888 37.656,13.915 37.562 C 14.066 37.040,14.569 36.453,15.063 36.220 C 16.239 35.668,17.615 36.252,18.051 37.488 C 18.103 37.633,18.455 40.866,19.010 46.286 C 19.492 50.998,19.911 54.982,19.942 55.140 C 20.011 55.500,20.214 55.769,20.516 55.903 C 20.732 55.998,20.858 56.005,22.052 55.990 C 23.506 55.971,23.462 55.982,23.810 55.552 L 23.973 55.350 24.000 39.564 L 24.027 23.777 24.176 23.649 C 24.430 23.431,24.627 23.472,25.082 23.838 C 26.540 25.010,27.486 26.648,27.903 28.720 C 27.933 28.867,27.973 30.223,27.992 31.733 L 28.027 34.480 28.192 34.827 C 28.401 35.267,28.733 35.599,29.173 35.808 C 29.481 35.955,29.574 35.973,30.000 35.973 C 30.426 35.973,30.519 35.955,30.827 35.808 C 31.267 35.599,31.599 35.267,31.808 34.827 L 31.973 34.480 31.990 30.987 C 32.007 27.264,31.985 26.761,31.756 25.612 C 30.861 21.125,27.324 17.437,22.880 16.356 C 21.718 16.073,21.306 16.037,18.827 16.001 C 17.551 15.983,16.623 15.963,16.765 15.957 C 17.118 15.943,17.971 15.764,18.483 15.598 C 20.498 14.942,22.308 13.342,23.221 11.411 C 24.650 8.389,24.063 4.872,21.725 2.452 C 20.584 1.271,19.182 0.497,17.569 0.156 C 16.956 0.027,15.679 -0.023,15.027 0.058 " fill="#2B2C30" stroke="none" fill-rule="evenodd"></path></svg>