<svg width="32" height="56" viewBox="0 0 32 56" fill="none" xmlns="http://www.w3.org/2000/svg"><path d="M15.067 0.061 C 13.873 0.193,12.591 0.668,11.547 1.366 C 9.136 2.977,7.777 5.824,8.046 8.699 C 8.334 11.776,10.243 14.314,13.132 15.461 C 13.637 15.661,14.529 15.880,15.067 15.936 L 15.493 15.980 15.200 16.014 C 15.039 16.032,14.643 16.073,14.320 16.106 C 9.627 16.577,5.322 19.181,2.697 23.137 C 1.241 25.332,0.463 27.466,0.096 30.267 C 0.043 30.678,0.027 32.136,0.027 36.641 L 0.027 42.482 0.200 42.833 C 0.408 43.256,0.789 43.631,1.215 43.830 L 1.520 43.973 3.747 43.989 L 5.973 44.005 5.973 42.003 L 5.973 40.000 4.987 40.000 L 4.000 40.000 4.000 35.336 C 4.000 32.178,4.019 30.581,4.058 30.389 C 4.090 30.234,4.208 29.915,4.321 29.680 C 4.790 28.701,5.879 28.000,6.932 28.000 C 7.264 28.000,7.448 28.070,7.673 28.283 C 8.026 28.617,8.000 27.650,8.000 40.587 C 8.000 50.992,8.010 52.425,8.082 52.775 C 8.412 54.374,9.626 55.588,11.225 55.918 C 11.819 56.041,20.181 56.041,20.775 55.918 C 21.851 55.696,22.748 55.084,23.358 54.156 C 23.583 53.813,23.697 53.557,23.902 52.933 C 23.959 52.761,23.977 50.428,23.999 40.689 L 24.027 28.659 24.155 28.471 C 24.546 27.901,25.336 27.845,26.320 28.320 C 27.113 28.702,27.766 29.535,27.942 30.389 C 27.981 30.581,28.000 32.178,28.000 35.336 L 28.000 40.000 27.013 40.000 L 26.027 40.000 26.027 42.003 L 26.027 44.005 28.253 43.989 L 30.480 43.973 30.785 43.830 C 31.211 43.631,31.592 43.256,31.800 42.833 L 31.973 42.482 31.973 36.668 C 31.973 32.221,31.957 30.722,31.904 30.293 C 31.563 27.538,30.764 25.340,29.303 23.137 C 26.678 19.181,22.373 16.577,17.680 16.106 C 17.357 16.073,16.961 16.032,16.800 16.014 L 16.507 15.980 16.933 15.936 C 17.168 15.912,17.612 15.829,17.920 15.753 C 21.737 14.809,24.319 11.192,23.954 7.301 C 23.531 2.786,19.575 -0.437,15.067 0.061 " fill="#2B2C30" stroke="none" fill-rule="evenodd"></path></svg>