<svg width="60" height="60" viewBox="0 0 60 60" fill="none" xmlns="http://www.w3.org/2000/svg"><path d="M27.550 0.109 C 19.035 0.801,11.200 5.126,6.011 12.000 C 2.985 16.008,1.100 20.553,0.286 25.800 C 0.093 27.042,0.061 27.645,0.061 30.000 C 0.061 33.032,0.204 34.358,0.807 36.900 C 2.630 44.585,7.397 51.230,14.121 55.457 C 15.383 56.250,18.019 57.562,19.300 58.034 C 21.602 58.883,24.230 59.525,26.600 59.820 C 27.964 59.989,32.036 59.989,33.400 59.820 C 35.770 59.525,38.398 58.883,40.700 58.034 C 41.981 57.562,44.617 56.250,45.879 55.457 C 52.601 51.231,57.371 44.582,59.193 36.900 C 59.796 34.358,59.939 33.032,59.939 30.000 C 59.939 26.968,59.796 25.642,59.193 23.100 C 56.640 12.336,48.383 3.860,37.664 0.999 C 34.582 0.177,30.806 -0.155,27.550 0.109 M31.643 14.382 C 32.545 14.804,33.129 15.378,33.577 16.284 C 33.929 16.998,33.950 17.092,33.950 18.000 C 33.950 18.909,33.930 19.001,33.573 19.722 C 32.586 21.720,30.322 22.538,28.342 21.611 C 27.454 21.196,26.869 20.617,26.423 19.716 C 26.071 19.003,26.050 18.907,26.050 18.005 C 26.050 17.140,26.080 16.987,26.366 16.382 C 26.768 15.534,27.340 14.913,28.087 14.515 C 28.874 14.095,29.305 14.000,30.225 14.044 C 30.825 14.073,31.145 14.149,31.643 14.382 M31.344 26.343 C 31.963 26.646,32.435 27.136,32.739 27.795 C 32.948 28.245,32.950 28.331,32.950 36.000 L 32.950 43.750 32.669 44.322 C 31.996 45.693,30.396 46.332,28.971 45.799 C 28.243 45.527,27.668 45.009,27.331 44.322 L 27.050 43.750 27.019 36.300 C 26.997 31.120,27.021 28.694,27.098 28.338 C 27.504 26.458,29.582 25.481,31.344 26.343 " fill="#2B2C30" stroke="none" fill-rule="evenodd"></path></svg>