<svg width="48" height="48" viewBox="0 0 48 48" fill="none" xmlns="http://www.w3.org/2000/svg"><path d="M9.000 0.050 C 6.701 0.300,4.594 1.311,2.953 2.953 C 0.409 5.496,-0.555 9.085,0.360 12.600 C 0.782 14.221,1.699 15.794,2.953 17.047 C 4.009 18.104,5.315 18.943,6.615 19.402 L 7.031 19.548 7.061 25.474 C 7.091 31.222,7.097 31.423,7.267 32.176 C 7.778 34.444,8.700 36.142,10.278 37.725 C 11.849 39.300,13.522 40.225,15.801 40.775 C 16.291 40.894,17.106 40.916,22.392 40.955 L 28.424 41.000 28.759 41.800 C 29.909 44.549,32.127 46.600,34.931 47.508 C 36.054 47.872,36.650 47.960,38.000 47.960 C 39.353 47.960,39.945 47.872,41.079 47.505 C 43.604 46.687,45.807 44.790,46.952 42.447 C 47.699 40.918,47.961 39.735,47.956 37.920 C 47.953 36.763,47.926 36.494,47.737 35.738 C 46.965 32.644,45.071 30.320,42.207 28.953 C 38.586 27.224,34.138 27.932,31.187 30.707 C 30.066 31.761,29.346 32.797,28.759 34.200 L 28.424 35.000 22.912 35.000 C 16.799 35.000,17.011 35.016,15.840 34.462 C 14.536 33.844,13.458 32.480,13.159 31.070 C 13.064 30.619,13.043 29.526,13.041 25.026 L 13.040 19.531 13.479 19.367 C 14.804 18.871,16.002 18.093,17.047 17.047 C 18.486 15.609,19.370 13.964,19.807 11.917 C 20.007 10.980,20.007 9.020,19.807 8.083 C 19.370 6.036,18.486 4.391,17.047 2.953 C 15.638 1.543,14.047 0.672,12.080 0.234 C 11.410 0.084,9.652 -0.021,9.000 0.050 " fill="#2B2C30" stroke="none" fill-rule="evenodd"></path></svg>