<svg width="49" height="56" viewBox="0 0 49 56" fill="none" xmlns="http://www.w3.org/2000/svg"><path d="M14.373 0.091 C 8.254 0.704,2.906 4.927,0.907 10.724 C -1.742 18.407,1.633 26.694,8.894 30.335 C 14.130 32.961,20.459 32.464,25.267 29.048 L 25.830 28.648 30.474 33.291 C 33.027 35.844,35.117 37.971,35.117 38.016 C 35.117 38.061,33.536 39.678,31.605 41.609 C 27.911 45.302,27.907 45.307,28.050 45.873 C 28.112 46.121,29.640 47.722,29.988 47.905 C 30.270 48.052,30.574 48.051,30.854 47.903 C 30.975 47.838,32.618 46.240,34.504 44.350 C 36.390 42.461,37.971 40.915,38.016 40.915 C 38.122 40.915,43.120 45.912,43.120 46.018 C 43.120 46.062,41.516 47.704,39.556 49.665 L 35.993 53.232 36.034 53.660 C 36.074 54.080,36.091 54.104,37.011 55.015 L 37.948 55.942 38.429 55.942 L 38.911 55.942 43.547 51.308 C 46.097 48.760,48.242 46.551,48.313 46.400 C 48.619 45.756,49.240 46.434,38.495 35.683 L 28.654 25.836 29.275 24.918 C 33.149 19.185,32.858 11.606,28.551 6.084 C 27.993 5.368,26.680 4.061,25.929 3.473 C 22.611 0.874,18.518 -0.324,14.373 0.091 " fill="#2B2C30" stroke="none" fill-rule="evenodd"></path></svg>