<svg width="56" height="36" viewBox="0 0 56 36" fill="none" xmlns="http://www.w3.org/2000/svg"><path d="M3.010 0.144 C 1.598 0.524,0.504 1.617,0.130 3.019 C 0.024 3.417,0.002 6.019,0.001 18.028 C 0.000 31.998,0.007 32.578,0.176 33.122 C 0.519 34.225,1.235 35.087,2.251 35.622 L 2.753 35.887 27.953 35.887 L 53.153 35.887 53.687 35.637 C 54.316 35.342,55.080 34.657,55.412 34.090 C 55.542 33.868,55.727 33.432,55.824 33.122 C 55.993 32.578,56.000 31.996,56.000 18.013 C 56.000 4.031,55.993 3.448,55.824 2.905 C 55.586 2.139,55.264 1.616,54.714 1.102 C 54.174 0.596,53.690 0.332,52.950 0.140 C 52.164 -0.065,3.770 -0.061,3.010 0.144 M15.643 8.344 L 15.960 8.661 15.960 9.935 C 15.960 10.909,15.926 11.276,15.814 11.492 C 15.545 12.011,15.344 12.040,11.987 12.040 C 8.591 12.040,8.450 12.018,8.174 11.435 C 7.979 11.024,7.967 9.097,8.157 8.643 C 8.418 8.018,8.362 8.027,12.023 8.027 L 15.325 8.027 15.643 8.344 M23.669 8.344 L 23.987 8.661 23.987 9.935 C 23.987 11.887,23.841 12.040,21.974 12.040 C 20.205 12.040,20.044 11.893,19.989 10.228 C 19.948 8.969,20.045 8.504,20.408 8.218 C 20.628 8.045,20.781 8.027,22.002 8.027 L 23.352 8.027 23.669 8.344 M31.526 8.172 C 31.929 8.454,32.013 8.777,32.013 10.033 C 32.013 11.873,31.846 12.040,30.007 12.040 C 28.147 12.040,28.000 11.886,28.000 9.935 L 28.000 8.661 28.317 8.344 L 28.635 8.027 29.977 8.027 C 31.042 8.027,31.361 8.057,31.526 8.172 M39.674 8.299 L 39.947 8.572 39.947 9.978 L 39.947 11.384 39.675 11.689 L 39.402 11.993 38.172 12.024 C 36.834 12.058,36.520 11.989,36.210 11.595 C 36.047 11.387,36.027 11.216,36.030 10.044 C 36.035 8.075,36.076 8.035,38.064 8.030 L 39.401 8.027 39.674 8.299 M47.463 8.138 C 47.978 8.373,47.973 8.315,47.973 14.051 C 47.973 19.225,47.969 19.344,47.783 19.606 C 47.672 19.761,47.446 19.914,47.246 19.970 C 46.787 20.097,41.227 20.097,40.768 19.970 C 40.118 19.789,40.040 19.578,40.040 18.006 C 40.040 16.680,40.049 16.613,40.265 16.362 L 40.490 16.100 42.248 16.053 L 44.007 16.007 44.053 12.242 L 44.100 8.477 44.362 8.252 C 44.611 8.037,44.684 8.027,45.921 8.027 C 46.728 8.027,47.310 8.069,47.463 8.138 M11.674 16.326 L 11.947 16.599 11.947 17.994 C 11.947 19.580,11.870 19.789,11.219 19.970 C 10.772 20.094,9.201 20.094,8.754 19.970 C 8.104 19.789,8.027 19.580,8.027 17.994 L 8.027 16.599 8.299 16.326 L 8.572 16.053 9.987 16.053 L 11.401 16.053 11.674 16.326 M19.703 16.343 L 19.973 16.633 19.973 17.985 C 19.973 19.537,19.879 19.794,19.246 19.970 C 18.799 20.094,17.228 20.094,16.781 19.970 C 16.130 19.789,16.053 19.580,16.053 17.994 L 16.053 16.599 16.326 16.326 L 16.599 16.053 18.015 16.053 L 19.432 16.053 19.703 16.343 M27.467 16.155 C 27.908 16.356,28.000 16.676,28.000 18.013 C 28.000 19.916,27.893 20.020,25.933 20.020 L 24.643 20.020 24.338 19.715 L 24.033 19.410 24.033 18.004 L 24.033 16.598 24.338 16.326 L 24.643 16.053 25.944 16.053 C 26.680 16.053,27.341 16.097,27.467 16.155 M35.549 16.206 C 35.914 16.461,36.027 16.888,36.027 18.013 C 36.027 19.770,35.820 20.002,34.209 20.053 C 32.207 20.116,32.014 19.939,32.014 18.032 C 32.013 16.738,32.102 16.361,32.457 16.154 C 32.547 16.102,33.230 16.058,33.976 16.056 C 35.082 16.054,35.372 16.081,35.549 16.206 M11.674 24.338 L 11.947 24.643 11.947 26.049 L 11.947 27.454 11.674 27.727 L 11.401 28.000 10.083 28.000 C 8.082 28.000,8.027 27.945,8.027 25.955 C 8.027 24.793,8.046 24.641,8.219 24.420 C 8.498 24.066,8.860 23.992,10.204 24.014 L 11.402 24.033 11.674 24.338 M39.674 24.338 L 39.947 24.643 39.947 26.049 L 39.947 27.454 39.674 27.727 L 39.401 28.000 28.000 28.000 L 16.599 28.000 16.326 27.727 L 16.053 27.454 16.053 26.054 C 16.053 24.692,16.060 24.647,16.290 24.373 C 16.420 24.219,16.619 24.074,16.733 24.051 C 16.847 24.029,21.994 24.016,28.171 24.022 L 39.402 24.033 39.674 24.338 M47.246 24.084 C 47.887 24.262,47.973 24.484,47.973 25.964 C 47.973 27.946,47.918 28.000,45.908 28.000 L 44.599 28.000 44.326 27.727 L 44.053 27.454 44.053 26.054 C 44.053 24.692,44.060 24.647,44.290 24.373 C 44.420 24.219,44.619 24.074,44.733 24.052 C 45.161 23.969,46.913 23.991,47.246 24.084 " fill="#2B2C30" stroke="none" fill-rule="evenodd"></path></svg>