<svg width="48" height="48" viewBox="0 0 48 48" fill="none" xmlns="http://www.w3.org/2000/svg"><path d="M28.000 6.000 L 28.000 12.000 24.356 12.000 C 20.307 12.000,20.333 11.997,20.114 12.523 C 19.962 12.885,19.970 13.189,20.140 13.497 C 20.384 13.939,29.589 23.900,29.804 23.954 C 29.912 23.981,30.088 23.981,30.196 23.954 C 30.411 23.900,39.616 13.939,39.860 13.497 C 39.937 13.357,40.000 13.134,40.000 13.001 C 40.000 12.670,39.761 12.223,39.520 12.102 C 39.369 12.027,38.425 12.002,35.660 12.001 L 32.000 12.000 32.000 6.000 L 32.000 0.000 30.000 0.000 L 28.000 0.000 28.000 6.000 M4.582 12.119 C 4.439 12.180,4.251 12.350,4.162 12.495 C 4.002 12.758,4.001 12.866,4.001 26.000 C 4.001 38.991,4.004 39.245,4.157 39.496 C 4.491 40.044,2.772 40.000,24.016 40.000 C 42.941 39.999,43.244 39.997,43.496 39.843 C 44.038 39.513,44.003 40.321,43.980 28.606 L 43.960 18.004 39.322 23.056 C 36.770 25.834,34.451 28.298,34.168 28.532 C 33.552 29.040,32.596 29.526,31.720 29.776 C 30.803 30.037,29.197 30.037,28.280 29.776 C 27.405 29.526,26.448 29.040,25.833 28.532 C 25.288 28.083,15.959 17.978,15.380 17.211 C 15.193 16.963,14.895 16.464,14.718 16.102 C 14.241 15.132,14.070 14.393,14.021 13.100 L 13.979 12.000 9.410 12.003 C 5.667 12.006,4.793 12.027,4.582 12.119 M0.504 44.157 C 0.061 44.427,0.000 44.650,-0.000 46.000 C -0.000 47.350,0.061 47.573,0.504 47.843 C 0.756 47.997,1.091 47.999,24.000 47.999 C 46.909 47.999,47.244 47.997,47.496 47.843 C 47.939 47.573,48.000 47.350,48.000 46.000 C 48.000 44.650,47.939 44.427,47.496 44.157 C 47.244 44.003,46.909 44.001,24.000 44.001 C 1.091 44.001,0.756 44.003,0.504 44.157 " fill="#2B2C30" stroke="none" fill-rule="evenodd"></path></svg>