<svg width="48" height="48" viewBox="0 0 48 48" fill="none" xmlns="http://www.w3.org/2000/svg"><path d="M3.240 0.083 C 1.797 0.381,0.668 1.386,0.189 2.800 C 0.048 3.216,0.040 3.618,0.040 10.040 C 0.040 16.802,0.041 16.842,0.212 17.288 C 0.663 18.468,1.531 19.338,2.700 19.784 L 3.160 19.960 24.000 19.960 L 44.840 19.960 45.288 19.788 C 46.468 19.337,47.338 18.469,47.784 17.300 L 47.960 16.840 47.960 10.040 L 47.960 3.240 47.770 2.720 C 47.331 1.523,46.493 0.669,45.320 0.223 L 44.840 0.040 24.200 0.028 C 12.848 0.022,3.416 0.046,3.240 0.083 M3.161 28.094 C 1.719 28.369,0.399 29.697,0.088 31.184 C -0.035 31.775,-0.035 44.225,0.088 44.816 C 0.401 46.315,1.685 47.599,3.184 47.912 C 3.785 48.037,44.215 48.037,44.816 47.912 C 46.315 47.599,47.599 46.315,47.912 44.816 C 48.035 44.225,48.035 31.775,47.912 31.184 C 47.594 29.659,46.277 28.363,44.765 28.087 C 44.149 27.974,3.752 27.981,3.161 28.094 " fill="#2B2C30" stroke="none" fill-rule="evenodd"></path></svg>