<svg width="48" height="48" viewBox="0 0 48 48" fill="none" xmlns="http://www.w3.org/2000/svg"><path d="M3.161 0.094 C 1.719 0.369,0.399 1.697,0.088 3.184 C -0.037 3.785,-0.037 44.215,0.088 44.816 C 0.401 46.315,1.685 47.599,3.184 47.912 C 3.775 48.035,16.225 48.035,16.816 47.912 C 18.315 47.599,19.599 46.315,19.912 44.816 C 20.037 44.215,20.037 3.785,19.912 3.184 C 19.594 1.659,18.277 0.363,16.765 0.087 C 16.162 -0.023,3.742 -0.017,3.161 0.094 M31.240 0.082 C 29.836 0.375,28.743 1.325,28.212 2.712 L 28.040 3.160 28.040 24.000 L 28.040 44.840 28.212 45.288 C 28.663 46.468,29.531 47.338,30.700 47.784 L 31.160 47.960 38.000 47.960 L 44.840 47.960 45.300 47.784 C 46.469 47.338,47.337 46.468,47.788 45.288 L 47.960 44.840 47.960 24.000 L 47.960 3.160 47.784 2.700 C 47.338 1.530,46.466 0.662,45.288 0.212 C 44.844 0.043,44.776 0.041,38.200 0.028 C 34.548 0.021,31.416 0.045,31.240 0.082 " fill="#2B2C30" stroke="none" fill-rule="evenodd"></path></svg>