<svg width="55" height="56" viewBox="0 0 55 56" fill="none" xmlns="http://www.w3.org/2000/svg"><path d="M24.750 0.102 C 16.514 0.760,8.950 5.073,4.146 11.851 C 3.402 12.900,2.656 14.125,2.162 15.110 C 1.931 15.570,1.742 15.967,1.742 15.993 C 1.742 16.018,3.127 16.050,4.821 16.063 L 7.900 16.087 11.740 27.271 C 13.852 33.422,15.702 38.794,15.849 39.210 L 16.118 39.967 13.398 39.967 L 10.678 39.967 9.808 37.264 L 8.938 34.560 4.624 34.559 L 0.310 34.558 0.159 35.031 L 0.008 35.503 0.334 36.520 C 2.636 43.691,7.730 49.642,14.461 53.021 C 17.036 54.314,19.535 55.124,22.621 55.664 C 23.677 55.849,24.091 55.868,26.996 55.869 C 30.105 55.871,30.249 55.863,31.647 55.615 C 34.521 55.105,36.909 54.325,39.420 53.076 C 42.352 51.617,44.420 50.115,46.846 47.678 C 48.881 45.633,50.355 43.661,51.654 41.240 L 52.127 40.360 50.882 40.302 C 46.947 40.118,43.876 38.338,42.003 35.154 C 40.224 32.132,39.766 27.333,40.894 23.538 C 42.314 18.758,46.185 15.804,51.119 15.735 C 51.690 15.727,52.147 15.700,52.134 15.675 C 50.693 12.809,49.092 10.587,46.846 8.331 C 44.970 6.447,43.545 5.307,41.525 4.076 C 36.558 1.050,30.590 -0.364,24.750 0.102 M30.204 16.143 C 31.437 16.294,32.306 16.542,33.275 17.017 C 34.909 17.819,35.990 19.183,36.355 20.903 C 36.548 21.812,36.487 23.120,36.215 23.915 C 35.683 25.469,34.408 26.656,32.702 27.186 C 32.412 27.276,32.175 27.395,32.175 27.450 C 32.175 27.505,32.491 27.601,32.878 27.662 C 34.516 27.923,36.009 29.034,36.754 30.545 C 37.204 31.457,37.396 32.309,37.398 33.394 C 37.404 36.338,35.675 38.576,32.680 39.501 C 31.244 39.945,30.874 39.967,24.738 39.967 L 18.975 39.967 18.975 28.004 L 18.975 16.042 24.177 16.042 C 27.407 16.042,29.692 16.081,30.204 16.143 M24.017 23.107 L 24.017 26.047 26.469 26.014 C 28.797 25.984,28.949 25.971,29.470 25.764 C 30.220 25.465,30.985 24.701,31.209 24.027 C 31.425 23.375,31.371 22.297,31.094 21.759 C 30.705 21.004,29.958 20.476,28.985 20.270 C 28.701 20.209,27.568 20.167,26.258 20.167 L 24.017 20.167 24.017 23.107 M51.104 20.235 C 49.417 20.340,47.941 21.107,46.990 22.371 C 45.528 24.316,45.007 27.696,45.697 30.752 C 46.274 33.305,47.623 34.932,49.705 35.587 C 50.260 35.761,50.569 35.795,51.562 35.792 C 52.593 35.788,52.841 35.756,53.394 35.559 L 54.034 35.331 54.241 34.463 C 55.242 30.259,55.248 25.919,54.257 21.605 L 54.056 20.731 53.680 20.589 C 52.993 20.329,51.933 20.184,51.104 20.235 M3.123 25.873 C 2.350 28.255,1.697 30.276,1.673 30.365 C 1.631 30.515,1.816 30.525,4.628 30.525 C 6.989 30.525,7.619 30.501,7.587 30.410 C 7.564 30.347,6.910 28.326,6.134 25.919 C 5.357 23.511,4.679 21.542,4.626 21.542 C 4.573 21.542,3.897 23.491,3.123 25.873 M24.017 32.679 L 24.017 35.842 26.423 35.841 C 29.260 35.840,29.782 35.776,30.708 35.314 C 31.805 34.767,32.232 33.971,32.155 32.621 C 32.066 31.075,30.988 29.922,29.337 29.609 C 29.069 29.558,27.762 29.517,26.433 29.517 L 24.017 29.517 24.017 32.679 " fill="#2B2C30" stroke="none" fill-rule="evenodd"></path></svg>