<svg width="48" height="44" viewBox="0 0 48 44" fill="none" xmlns="http://www.w3.org/2000/svg"><path d="M26.444 0.085 C 25.726 0.264,25.010 0.938,24.654 1.767 C 24.571 1.961,24.406 2.462,24.286 2.880 C 23.795 4.606,22.453 7.583,20.327 11.663 C 18.252 15.646,18.425 15.376,15.088 19.847 L 11.990 23.997 6.276 24.018 L 0.563 24.040 0.302 24.302 L 0.040 24.563 0.020 32.742 C -0.000 40.833,0.001 40.923,0.161 41.185 C 0.477 41.700,0.164 41.680,7.879 41.680 L 14.883 41.680 15.600 42.040 C 17.667 43.078,19.924 43.719,22.200 43.916 C 22.785 43.966,26.506 43.999,31.723 43.999 C 39.160 44.000,40.348 43.984,40.757 43.877 C 42.111 43.525,43.161 42.432,43.440 41.084 C 43.694 39.853,43.112 38.374,42.047 37.545 L 41.665 37.247 42.064 37.157 C 44.330 36.646,45.612 34.140,44.683 32.040 C 44.479 31.578,43.627 30.605,43.349 30.517 C 43.101 30.438,43.179 30.363,43.620 30.258 C 44.599 30.026,45.601 29.266,46.022 28.436 C 46.569 27.355,46.628 26.175,46.184 25.200 C 45.938 24.660,45.290 23.878,44.928 23.685 C 44.814 23.623,44.720 23.550,44.720 23.523 C 44.720 23.496,44.915 23.432,45.153 23.382 C 47.149 22.964,48.390 21.031,47.884 19.130 C 47.498 17.681,46.211 16.412,44.798 16.086 C 44.565 16.033,41.569 16.003,36.215 16.002 C 28.419 16.000,27.991 15.993,28.030 15.860 C 28.094 15.641,29.599 9.477,29.768 8.744 C 30.293 6.458,30.362 4.120,29.949 2.520 C 29.662 1.404,29.054 0.564,28.297 0.236 C 27.825 0.032,26.947 -0.040,26.444 0.085 " fill="#2B2C30" stroke="none" fill-rule="evenodd"></path></svg>