<svg width="48" height="48" viewBox="0 0 48 48" fill="none" xmlns="http://www.w3.org/2000/svg"><path d="M0.504 0.157 C -0.001 0.465,-0.000 0.457,0.000 4.016 C 0.001 7.073,0.009 7.253,0.157 7.496 C 0.464 8.001,0.458 8.000,4.000 8.000 C 7.542 8.000,7.536 8.001,7.843 7.496 C 7.991 7.253,7.999 7.073,8.000 4.016 C 8.000 0.457,8.001 0.465,7.496 0.157 C 7.253 0.009,7.073 0.001,4.000 0.001 C 0.927 0.001,0.747 0.009,0.504 0.157 M16.504 0.157 C 15.999 0.465,16.000 0.457,16.000 4.016 C 16.001 7.073,16.009 7.253,16.157 7.496 C 16.489 8.041,15.197 8.000,32.016 8.000 C 46.974 7.999,47.244 7.997,47.496 7.843 C 48.001 7.536,48.000 7.542,48.000 4.000 C 48.000 0.458,48.001 0.464,47.496 0.157 C 47.244 0.003,46.974 0.001,32.000 0.001 C 17.026 0.001,16.756 0.003,16.504 0.157 M0.504 20.157 C -0.001 20.465,-0.000 20.457,0.000 24.016 C 0.001 27.073,0.009 27.253,0.157 27.496 C 0.464 28.001,0.458 28.000,4.000 28.000 C 7.542 28.000,7.536 28.001,7.843 27.496 C 7.991 27.253,7.999 27.073,8.000 24.016 C 8.000 20.457,8.001 20.465,7.496 20.157 C 7.253 20.009,7.073 20.001,4.000 20.001 C 0.927 20.001,0.747 20.009,0.504 20.157 M16.504 20.157 C 15.999 20.465,16.000 20.457,16.000 24.016 C 16.001 27.073,16.009 27.253,16.157 27.496 C 16.489 28.041,15.197 28.000,32.016 28.000 C 46.974 27.999,47.244 27.997,47.496 27.843 C 48.001 27.536,48.000 27.542,48.000 24.000 C 48.000 20.458,48.001 20.464,47.496 20.157 C 47.244 20.003,46.974 20.001,32.000 20.001 C 17.026 20.001,16.756 20.003,16.504 20.157 M0.504 40.157 C -0.001 40.465,-0.000 40.457,0.000 44.016 C 0.001 47.073,0.009 47.253,0.157 47.496 C 0.464 48.001,0.458 48.000,4.000 48.000 C 7.542 48.000,7.536 48.001,7.843 47.496 C 7.991 47.253,7.999 47.073,8.000 44.016 C 8.000 40.457,8.001 40.465,7.496 40.157 C 7.253 40.009,7.073 40.001,4.000 40.001 C 0.927 40.001,0.747 40.009,0.504 40.157 M16.504 40.157 C 15.999 40.465,16.000 40.457,16.000 44.016 C 16.001 47.073,16.009 47.253,16.157 47.496 C 16.489 48.041,15.197 48.000,32.016 48.000 C 46.974 47.999,47.244 47.997,47.496 47.843 C 48.001 47.536,48.000 47.542,48.000 44.000 C 48.000 40.458,48.001 40.464,47.496 40.157 C 47.244 40.003,46.974 40.001,32.000 40.001 C 17.026 40.001,16.756 40.003,16.504 40.157 " fill="#2B2C30" stroke="none" fill-rule="evenodd"></path></svg>