<svg width="40" height="57" viewBox="0 0 40 57" fill="none" xmlns="http://www.w3.org/2000/svg"><path d="M18.667 0.042 C 17.926 0.097,16.678 0.276,15.867 0.442 C 8.308 1.992,2.197 8.009,0.501 15.569 C 0.130 17.225,0.044 18.028,0.041 19.867 C 0.039 21.694,0.112 22.360,0.506 24.123 C 2.037 30.974,7.532 40.681,15.867 51.260 C 16.719 52.341,19.103 55.230,19.751 55.967 L 19.985 56.233 20.134 56.100 C 20.594 55.689,23.249 52.688,24.705 50.933 C 31.449 42.807,36.265 34.862,38.503 28.167 C 40.326 22.713,40.470 18.221,38.968 13.700 C 38.255 11.554,37.293 9.715,35.979 7.983 C 32.674 3.626,27.952 0.887,22.500 0.165 C 21.720 0.062,19.400 -0.012,18.667 0.042 M21.589 12.164 C 24.005 12.673,26.048 14.245,27.157 16.448 C 27.742 17.609,27.953 18.553,27.953 20.000 C 27.953 21.170,27.885 21.625,27.566 22.575 C 26.184 26.690,21.615 28.971,17.508 27.595 C 14.773 26.679,12.815 24.482,12.156 21.589 C 12.002 20.916,12.003 19.095,12.157 18.411 C 12.521 16.792,13.228 15.494,14.361 14.361 C 15.705 13.017,17.165 12.321,19.233 12.038 C 19.629 11.984,21.110 12.063,21.589 12.164 " fill="#2B2C30" stroke="none" fill-rule="evenodd"></path></svg>