<svg width="56" height="52" viewBox="0 0 56 52" fill="none" xmlns="http://www.w3.org/2000/svg"><path d="M24.152 0.104 C 21.674 0.343,18.910 1.262,16.753 2.565 C 12.032 5.418,8.959 10.073,8.160 15.587 C 7.928 17.188,8.015 19.979,8.346 21.538 C 8.825 23.798,9.704 25.949,10.881 27.746 C 11.519 28.719,12.382 29.824,12.826 30.236 L 13.073 30.465 14.773 28.769 C 15.847 27.699,16.601 27.021,16.820 26.930 C 17.287 26.737,17.978 26.752,18.433 26.966 C 18.952 27.209,24.860 33.145,25.057 33.620 C 25.343 34.314,25.202 35.181,24.714 35.715 L 24.531 35.916 25.239 35.982 C 26.441 36.095,28.761 35.858,30.344 35.461 C 32.617 34.890,35.000 33.747,36.940 32.296 L 37.246 32.067 45.201 40.020 L 53.156 47.973 53.565 47.973 C 53.958 47.973,54.011 47.936,54.939 47.023 C 55.934 46.044,56.102 45.751,55.953 45.251 C 55.917 45.131,52.334 41.475,47.991 37.126 L 40.094 29.219 40.316 28.919 C 42.215 26.350,43.380 23.537,43.827 20.440 C 44.059 18.834,43.972 15.941,43.647 14.444 C 42.701 10.087,40.446 6.454,37.042 3.808 C 33.385 0.964,28.823 -0.347,24.152 0.104 M1.061 32.963 C 0.033 33.975,-0.107 34.236,0.092 34.768 C 0.153 34.929,1.661 36.513,3.667 38.523 L 7.137 42.000 3.621 45.523 C 1.296 47.853,0.084 49.134,0.043 49.303 C -0.073 49.775,0.091 50.057,1.010 50.977 C 1.930 51.896,2.212 52.059,2.683 51.944 C 2.853 51.903,4.132 50.692,6.457 48.372 L 9.975 44.862 13.499 48.340 C 15.437 50.253,17.129 51.859,17.260 51.909 C 17.746 52.093,18.030 51.936,19.023 50.926 C 19.935 49.999,19.973 49.944,19.973 49.553 L 19.973 49.146 16.404 45.572 L 12.835 41.999 16.301 38.523 C 18.207 36.611,19.814 34.955,19.870 34.843 C 20.131 34.326,19.989 33.984,19.143 33.099 C 18.174 32.085,17.683 31.844,17.144 32.116 C 17.032 32.173,15.376 33.779,13.464 35.685 L 9.988 39.151 6.414 35.582 L 2.841 32.013 2.434 32.013 C 2.043 32.013,1.988 32.051,1.061 32.963 " fill="#2B2C30" stroke="none" fill-rule="evenodd"></path></svg>