<svg width="57" height="57" viewBox="0 0 57 57" fill="none" xmlns="http://www.w3.org/2000/svg"><path d="M-0.000 2.044 L -0.000 4.089 2.019 4.063 L 4.037 4.037 4.063 2.019 L 4.089 -0.000 2.044 -0.000 L 0.000 0.000 -0.000 2.044 M8.170 2.042 L 8.170 4.085 10.165 4.085 L 12.160 4.085 12.160 2.042 L 12.160 0.000 10.165 0.000 L 8.170 0.000 8.170 2.042 M16.340 2.042 L 16.340 4.085 18.335 4.085 L 20.330 4.085 20.330 2.042 L 20.330 0.000 18.335 0.000 L 16.340 0.000 16.340 2.042 M24.415 2.042 L 24.415 4.085 26.457 4.085 L 28.500 4.085 28.500 2.042 L 28.500 0.000 26.457 0.000 L 24.415 0.000 24.415 2.042 M32.585 2.042 L 32.585 4.085 34.627 4.085 L 36.670 4.085 36.670 2.042 L 36.670 0.000 34.627 0.000 L 32.585 0.000 32.585 2.042 M0.000 10.165 L 0.000 12.160 2.042 12.160 L 4.085 12.160 4.085 10.165 L 4.085 8.170 2.042 8.170 L 0.000 8.170 0.000 10.165 M32.585 10.165 L 32.585 12.160 34.627 12.160 L 36.670 12.160 36.670 10.165 L 36.670 8.170 34.627 8.170 L 32.585 8.170 32.585 10.165 M0.000 18.335 L 0.000 20.330 2.042 20.330 L 4.085 20.330 4.085 18.335 L 4.085 16.340 2.042 16.340 L 0.000 16.340 0.000 18.335 M32.585 18.335 L 32.585 20.330 34.627 20.330 L 36.670 20.330 36.670 18.335 L 36.670 16.340 34.627 16.340 L 32.585 16.340 32.585 18.335 M0.000 26.457 L 0.000 28.500 2.042 28.500 L 4.085 28.500 4.085 26.457 L 4.085 24.415 2.042 24.415 L 0.000 24.415 0.000 26.457 M34.960 24.554 C 30.842 25.160,27.377 27.716,25.609 31.454 C 24.065 34.720,24.058 38.403,25.589 41.833 C 25.990 42.730,27.010 44.204,27.806 45.037 C 29.539 46.851,31.641 48.022,34.208 48.606 C 35.240 48.841,37.955 48.839,39.045 48.603 C 40.504 48.287,42.208 47.595,43.195 46.917 C 43.413 46.768,43.626 46.645,43.668 46.645 C 43.711 46.645,46.054 48.951,48.876 51.769 C 52.322 55.210,54.093 56.914,54.269 56.957 C 54.749 57.074,55.036 56.908,55.972 55.972 C 56.908 55.036,57.074 54.749,56.957 54.269 C 56.914 54.093,55.210 52.322,51.769 48.876 C 48.951 46.054,46.645 43.711,46.645 43.668 C 46.645 43.626,46.768 43.413,46.917 43.195 C 47.595 42.208,48.287 40.504,48.603 39.045 C 48.737 38.425,48.777 37.852,48.772 36.575 C 48.766 34.768,48.675 34.188,48.157 32.641 C 46.807 28.610,43.159 25.458,38.910 24.650 C 37.799 24.439,36.033 24.396,34.960 24.554 M-0.000 34.629 L -0.000 36.674 2.019 36.648 L 4.037 36.623 4.063 34.604 L 4.089 32.585 2.044 32.585 L 0.000 32.585 -0.000 34.629 M8.170 34.627 L 8.170 36.670 10.165 36.670 L 12.160 36.670 12.160 34.627 L 12.160 32.585 10.165 32.585 L 8.170 32.585 8.170 34.627 M16.340 34.627 L 16.340 36.670 18.335 36.670 L 20.330 36.670 20.330 34.627 L 20.330 32.585 18.335 32.585 L 16.340 32.585 16.340 34.627 " fill="#2B2C30" stroke="none" fill-rule="evenodd"></path></svg>