<svg width="50" height="50" viewBox="0 0 50 50" fill="none" xmlns="http://www.w3.org/2000/svg"><path d="M18.583 0.049 C 18.423 0.067,17.943 0.123,17.516 0.173 C 16.395 0.303,15.016 0.606,13.917 0.961 C 6.588 3.333,1.384 9.479,0.194 17.167 C -0.013 18.505,-0.013 21.495,0.194 22.833 C 0.875 27.232,2.793 31.048,5.872 34.128 C 8.953 37.208,12.775 39.131,17.167 39.808 C 18.652 40.037,21.673 40.012,23.162 39.758 C 25.744 39.317,27.908 38.536,30.133 37.240 C 30.595 36.970,31.008 36.750,31.050 36.750 C 31.091 36.750,34.087 39.711,37.706 43.331 C 42.355 47.980,44.354 49.926,44.518 49.962 C 45.075 50.085,45.196 49.992,47.518 47.684 C 48.743 46.466,49.807 45.340,49.882 45.182 C 50.195 44.522,50.534 44.909,43.336 37.711 C 39.714 34.088,36.750 31.091,36.750 31.049 C 36.750 31.008,36.970 30.595,37.240 30.133 C 38.536 27.908,39.317 25.744,39.758 23.162 C 40.012 21.672,40.037 18.651,39.808 17.167 C 38.830 10.841,35.152 5.534,29.637 2.492 C 27.527 1.328,25.332 0.592,22.833 0.211 C 21.999 0.084,19.200 -0.023,18.583 0.049 M29.686 18.314 L 29.958 18.587 29.958 20.000 L 29.958 21.413 29.686 21.686 L 29.413 21.958 20.000 21.958 L 10.587 21.958 10.314 21.686 L 10.042 21.413 10.042 20.005 C 10.042 18.618,10.045 18.593,10.250 18.373 C 10.365 18.249,10.533 18.117,10.625 18.079 C 10.717 18.041,14.982 18.017,20.103 18.026 L 29.413 18.042 29.686 18.314 " fill="#2B2C30" stroke="none" fill-rule="evenodd"></path></svg>