<svg width="56" height="56" viewBox="0 0 56 56" fill="none" xmlns="http://www.w3.org/2000/svg"><path d="M0.607 0.088 C 0.504 0.130,0.336 0.258,0.233 0.372 C 0.064 0.561,0.047 0.711,0.047 2.014 L 0.047 3.449 0.305 3.708 L 0.564 3.967 28.000 3.967 L 55.436 3.967 55.695 3.708 L 55.953 3.449 55.953 2.007 L 55.953 0.564 55.695 0.305 L 55.436 0.047 28.115 0.029 C 13.088 0.019,0.709 0.046,0.607 0.088 M12.214 8.168 C 12.079 8.241,11.938 8.376,11.900 8.467 C 11.862 8.559,9.176 17.474,5.932 28.280 L 0.033 47.927 3.858 47.951 C 7.973 47.977,7.961 47.979,8.220 47.495 C 8.278 47.386,8.926 45.275,9.659 42.805 L 10.992 38.313 16.039 38.289 L 21.086 38.265 21.218 38.709 C 23.479 46.312,23.848 47.469,24.092 47.717 L 24.346 47.973 28.143 47.973 C 31.142 47.973,31.931 47.949,31.895 47.857 C 31.871 47.793,29.220 38.920,26.005 28.140 C 20.570 9.917,20.139 8.522,19.878 8.283 L 19.597 8.027 16.029 8.030 C 13.116 8.033,12.415 8.059,12.214 8.168 M32.519 8.133 C 32.412 8.185,32.255 8.346,32.169 8.492 C 32.025 8.736,32.013 10.193,32.013 28.047 L 32.013 47.339 32.331 47.656 L 32.648 47.973 36.025 47.973 L 39.401 47.973 39.659 47.716 C 39.800 47.574,39.934 47.403,39.957 47.336 C 39.988 47.241,40.156 47.267,40.702 47.450 C 42.140 47.933,43.962 48.095,45.500 47.877 C 48.309 47.478,51.149 45.721,52.986 43.243 C 54.453 41.264,55.304 39.239,55.781 36.587 C 56.008 35.326,56.006 32.672,55.777 31.360 C 54.749 25.475,50.797 21.066,45.733 20.154 C 44.278 19.892,41.999 20.079,40.641 20.572 C 40.314 20.691,40.024 20.766,39.996 20.738 C 39.969 20.711,39.947 17.963,39.947 14.631 L 39.947 8.572 39.674 8.299 L 39.401 8.027 36.057 8.033 C 34.012 8.037,32.638 8.076,32.519 8.133 M17.630 26.755 L 19.194 31.967 16.069 31.991 C 14.351 32.005,12.930 32.002,12.913 31.984 C 12.895 31.967,13.581 29.593,14.437 26.710 C 15.292 23.827,16.009 21.485,16.030 21.505 C 16.050 21.526,16.770 23.888,17.630 26.755 M45.095 28.264 C 46.256 28.827,47.182 30.088,47.712 31.827 C 47.973 32.685,48.042 34.519,47.851 35.530 C 47.494 37.415,46.392 39.098,45.103 39.729 C 42.699 40.905,40.021 37.902,40.027 34.039 C 40.031 31.816,40.767 29.975,42.133 28.772 C 43.013 27.998,44.146 27.804,45.095 28.264 M0.506 52.163 C 0.055 52.438,-0.019 52.739,0.016 54.169 C 0.046 55.411,0.052 55.441,0.305 55.695 L 0.564 55.953 28.000 55.953 L 55.436 55.953 55.695 55.695 C 55.949 55.441,55.954 55.414,55.984 54.140 C 56.008 53.094,55.985 52.789,55.865 52.557 C 55.545 51.938,57.936 51.987,27.981 51.987 C 1.547 51.987,0.785 51.992,0.506 52.163 " fill="#2B2C30" stroke="none" fill-rule="evenodd"></path></svg>