<svg width="48" height="44" viewBox="0 0 48 44" fill="none" xmlns="http://www.w3.org/2000/svg"><path d="M13.327 0.126 C 12.872 0.293,12.514 0.594,12.262 1.023 L 12.040 1.400 12.018 6.698 L 11.996 11.997 6.736 12.018 L 1.476 12.040 1.079 12.244 C 0.626 12.477,0.203 12.982,0.081 13.435 C 0.025 13.644,0.005 18.388,0.019 28.172 L 0.040 42.600 0.262 42.977 C 0.384 43.185,0.602 43.445,0.747 43.556 C 1.369 44.030,0.213 44.000,17.996 44.000 C 36.288 44.000,34.751 44.053,35.402 43.402 C 36.016 42.788,36.000 42.954,36.000 37.146 L 36.000 32.000 41.146 32.000 C 46.954 32.000,46.788 32.016,47.402 31.402 C 48.050 30.754,48.000 32.046,48.000 16.000 C 48.000 -0.046,48.050 1.246,47.402 0.598 C 46.751 -0.053,48.293 -0.001,29.966 0.006 C 16.006 0.010,13.595 0.028,13.327 0.126 M40.000 16.000 L 40.000 24.000 38.000 24.000 L 36.000 24.000 36.000 18.854 C 36.000 13.046,36.016 13.212,35.402 12.598 C 34.774 11.970,35.190 12.000,27.146 12.000 L 20.000 12.000 20.000 10.000 L 20.000 8.000 30.000 8.000 L 40.000 8.000 40.000 16.000 M28.000 28.000 L 28.000 36.000 18.000 36.000 L 8.000 36.000 8.000 28.000 L 8.000 20.000 18.000 20.000 L 28.000 20.000 28.000 28.000 " fill="#2B2C30" stroke="none" fill-rule="evenodd"></path></svg>