<svg width="59" height="48" viewBox="0 0 59 48" fill="none" xmlns="http://www.w3.org/2000/svg"><path d="M36.906 0.099 C 36.477 0.272,1.220 22.448,0.920 22.733 C 0.448 23.183,0.086 23.929,0.027 24.569 C -0.015 25.041,0.137 25.839,0.978 29.549 C 1.529 31.979,2.070 34.178,2.181 34.435 C 2.292 34.693,2.572 35.079,2.804 35.293 C 3.532 35.964,3.731 35.990,8.130 35.990 L 11.997 35.990 11.997 40.257 C 11.997 44.234,12.010 44.567,12.192 45.155 C 12.579 46.411,13.573 47.401,14.841 47.795 C 15.430 47.979,15.811 47.987,23.992 47.987 C 32.215 47.987,32.551 47.980,33.157 47.792 C 34.328 47.430,35.128 46.723,35.668 45.571 L 35.941 44.987 35.970 40.489 L 35.999 35.990 41.378 35.988 C 46.470 35.986,46.780 35.976,47.173 35.797 C 47.773 35.525,48.012 35.100,47.950 34.417 C 47.886 33.723,38.823 1.188,38.575 0.763 C 38.210 0.138,37.505 -0.142,36.906 0.099 M46.595 4.007 C 44.617 5.987,43.552 7.124,43.508 7.301 C 43.390 7.782,43.561 8.091,44.429 8.971 C 45.322 9.876,45.653 10.056,46.167 9.919 C 46.565 9.812,52.370 4.000,52.465 3.614 C 52.586 3.122,52.414 2.819,51.489 1.893 C 50.590 0.993,50.576 0.983,50.099 0.983 L 49.616 0.983 46.595 4.007 M53.936 12.169 C 52.528 12.500,46.015 14.306,45.857 14.408 C 45.416 14.695,45.399 15.080,45.766 16.421 C 46.133 17.759,46.360 18.093,46.905 18.093 C 47.062 18.093,48.995 17.609,51.202 17.017 C 55.641 15.827,55.660 15.818,55.653 15.064 C 55.647 14.441,55.115 12.687,54.856 12.439 C 54.606 12.200,54.250 12.095,53.936 12.169 M48.924 22.051 C 48.733 22.218,48.600 22.537,48.380 23.354 C 48.220 23.949,48.088 24.574,48.087 24.742 C 48.084 25.232,48.402 25.536,49.147 25.754 C 51.306 26.384,56.554 27.730,56.851 27.730 C 57.261 27.730,57.663 27.391,57.757 26.967 C 57.790 26.819,57.928 26.279,58.065 25.766 C 58.340 24.734,58.298 24.333,57.889 24.064 C 57.595 23.872,49.946 21.830,49.518 21.830 C 49.306 21.830,49.082 21.913,48.924 22.051 M31.958 39.972 L 31.958 43.955 23.993 43.955 L 16.028 43.955 16.028 39.972 L 16.028 35.990 23.993 35.990 L 31.958 35.990 31.958 39.972 " fill="#2B2C30" stroke="none" fill-rule="evenodd"></path></svg>