<svg width="44" height="56" viewBox="0 0 44 56" fill="none" xmlns="http://www.w3.org/2000/svg"><path d="M3.109 0.108 C 2.025 0.346,1.010 1.127,0.479 2.134 C -0.038 3.113,0.002 0.952,0.002 28.013 C 0.002 55.100,-0.039 52.910,0.484 53.905 C 0.858 54.616,1.500 55.230,2.266 55.609 L 2.886 55.917 21.078 55.917 L 39.270 55.917 40.053 55.646 C 41.904 55.005,43.273 54.011,43.774 52.947 L 43.963 52.543 43.982 40.278 L 44.001 28.013 40.004 28.013 L 36.007 28.013 36.007 24.017 L 36.007 20.020 40.003 20.020 L 44.000 20.020 44.000 18.273 C 44.000 16.362,43.951 16.036,43.579 15.497 C 43.468 15.336,40.108 11.972,36.113 8.023 C 31.007 2.976,28.730 0.772,28.445 0.604 C 28.222 0.473,27.844 0.291,27.605 0.201 L 27.170 0.037 15.363 0.024 C 5.748 0.013,3.474 0.029,3.109 0.108 M11.438 36.135 C 11.577 36.206,11.759 36.379,11.841 36.520 C 11.987 36.772,11.990 36.880,11.990 42.020 C 11.990 47.160,11.987 47.268,11.841 47.520 C 11.571 47.985,11.354 48.041,9.923 48.017 C 8.515 47.994,8.383 47.952,8.121 47.441 C 8.001 47.207,7.993 46.828,8.011 41.934 C 8.030 36.748,8.032 36.675,8.182 36.470 C 8.477 36.067,8.716 36.007,10.010 36.007 C 10.981 36.007,11.227 36.029,11.438 36.135 M19.428 36.135 C 19.566 36.206,19.748 36.357,19.831 36.470 C 19.982 36.675,19.983 36.732,19.983 42.020 C 19.983 47.308,19.982 47.365,19.831 47.570 C 19.523 47.990,19.309 48.040,17.917 48.017 C 16.509 47.994,16.376 47.952,16.114 47.441 C 15.994 47.207,15.987 46.828,16.004 41.934 C 16.023 36.748,16.025 36.675,16.175 36.470 C 16.471 36.067,16.710 36.007,18.003 36.007 C 18.976 36.007,19.220 36.029,19.428 36.135 M27.421 36.135 C 27.560 36.206,27.741 36.357,27.825 36.470 C 27.975 36.675,27.977 36.732,27.977 42.020 C 27.977 47.308,27.975 47.365,27.825 47.570 C 27.529 47.973,27.290 48.033,25.997 48.033 C 24.703 48.033,24.464 47.973,24.169 47.570 C 24.018 47.365,24.017 47.308,24.017 42.020 C 24.017 36.732,24.018 36.675,24.169 36.470 C 24.464 36.067,24.703 36.007,25.997 36.007 C 26.969 36.007,27.213 36.029,27.421 36.135 M35.543 36.195 C 36.026 36.550,36.006 36.309,36.006 42.020 C 36.006 47.731,36.026 47.490,35.543 47.845 C 35.358 47.981,35.213 47.999,34.150 48.021 C 32.761 48.049,32.503 47.995,32.214 47.615 L 32.010 47.348 32.010 42.026 L 32.010 36.703 32.186 36.457 C 32.478 36.048,32.663 36.005,34.077 36.025 C 35.219 36.042,35.356 36.057,35.543 36.195 " fill="#2B2C30" stroke="none" fill-rule="evenodd"></path></svg>