<svg width="48" height="40" viewBox="0 0 48 40" fill="none" xmlns="http://www.w3.org/2000/svg"><path d="M0.504 0.157 C -0.001 0.465,-0.000 0.457,0.000 4.016 C 0.001 7.073,0.009 7.253,0.157 7.496 C 0.492 8.045,-1.652 8.000,24.016 8.000 C 46.909 7.999,47.244 7.997,47.496 7.843 C 48.001 7.536,48.000 7.542,48.000 4.000 C 48.000 0.458,48.001 0.464,47.496 0.157 C 47.244 0.003,46.909 0.001,24.000 0.001 C 1.091 0.001,0.756 0.003,0.504 0.157 M0.504 16.157 C -0.001 16.465,-0.000 16.457,0.000 20.016 C 0.001 23.073,0.009 23.253,0.157 23.496 C 0.492 24.045,-1.652 24.000,24.016 24.000 C 46.909 23.999,47.244 23.997,47.496 23.843 C 48.001 23.536,48.000 23.542,48.000 20.000 C 48.000 16.458,48.001 16.464,47.496 16.157 C 47.244 16.003,46.909 16.001,24.000 16.001 C 1.091 16.001,0.756 16.003,0.504 16.157 M0.504 32.157 C -0.001 32.465,-0.000 32.457,0.000 36.016 C 0.001 39.073,0.009 39.253,0.157 39.496 C 0.492 40.045,-1.652 40.000,24.016 40.000 C 46.909 39.999,47.244 39.997,47.496 39.843 C 48.001 39.536,48.000 39.542,48.000 36.000 C 48.000 32.458,48.001 32.464,47.496 32.157 C 47.244 32.003,46.909 32.001,24.000 32.001 C 1.091 32.001,0.756 32.003,0.504 32.157 " fill="#2B2C30" stroke="none" fill-rule="evenodd"></path></svg>