<svg width="59" height="40" viewBox="0 0 59 40" fill="none" xmlns="http://www.w3.org/2000/svg"><path d="M0.334 0.334 L 0.000 0.669 0.000 19.993 L 0.000 39.318 0.255 39.621 L 0.509 39.923 4.025 39.923 C 7.474 39.923,7.545 39.919,7.729 39.716 C 7.908 39.519,7.918 39.226,7.965 33.054 L 8.014 26.599 10.022 33.261 L 12.030 39.923 15.929 39.923 L 19.829 39.923 20.031 39.702 C 20.168 39.552,20.833 37.464,22.089 33.243 L 23.944 27.006 23.993 33.211 L 24.043 39.416 24.282 39.671 L 24.522 39.926 28.057 39.900 L 31.593 39.874 31.800 39.597 L 32.008 39.319 32.033 20.239 C 32.051 7.022,32.027 1.040,31.954 0.772 C 31.882 0.504,31.753 0.325,31.535 0.193 C 31.240 0.012,31.019 0.001,27.908 0.000 C 26.040 0.000,24.488 0.041,24.349 0.094 C 24.213 0.146,24.036 0.289,23.955 0.414 C 23.873 0.538,22.079 6.436,19.967 13.521 C 17.854 20.606,16.099 26.469,16.067 26.550 C 16.034 26.631,14.244 20.812,12.088 13.619 C 8.439 1.442,8.148 0.522,7.869 0.270 L 7.569 0.000 4.119 0.000 L 0.669 0.000 0.334 0.334 M42.904 0.095 C 38.854 0.720,35.640 4.252,34.856 8.939 C 34.614 10.388,34.696 12.649,35.041 14.012 C 35.312 15.084,35.731 16.166,36.202 17.012 C 36.637 17.792,37.504 18.924,37.880 19.202 C 38.057 19.334,41.035 21.070,44.496 23.060 C 47.957 25.050,50.868 26.771,50.965 26.885 C 51.061 26.998,51.260 27.312,51.407 27.582 C 51.644 28.021,51.673 28.175,51.670 29.008 C 51.665 30.137,51.467 30.655,50.785 31.318 C 50.075 32.008,49.799 32.057,46.610 32.057 C 43.546 32.057,43.188 32.001,42.506 31.417 C 41.973 30.961,41.618 30.217,41.506 29.324 C 41.419 28.634,41.323 28.409,41.005 28.151 C 40.772 27.962,35.484 27.977,35.114 28.168 C 34.688 28.388,34.579 28.772,34.658 29.770 C 34.996 34.060,37.092 37.489,40.382 39.133 C 41.891 39.887,42.179 39.923,46.595 39.923 C 50.945 39.923,51.137 39.901,52.571 39.237 C 53.666 38.729,54.498 38.149,55.315 37.326 C 58.500 34.113,59.459 28.777,57.656 24.304 C 57.184 23.132,56.220 21.575,55.694 21.134 C 55.593 21.049,52.655 19.326,49.167 17.307 C 45.678 15.288,42.656 13.477,42.451 13.284 C 42.246 13.090,41.960 12.688,41.816 12.390 C 41.458 11.653,41.440 10.427,41.775 9.686 C 42.039 9.103,42.574 8.522,43.119 8.227 C 43.499 8.021,43.619 8.014,46.659 8.014 C 49.698 8.014,49.819 8.021,50.199 8.227 C 51.064 8.694,51.658 9.663,51.780 10.805 C 51.836 11.329,51.901 11.501,52.127 11.727 L 52.405 12.005 55.269 11.976 L 58.132 11.947 58.383 11.656 C 58.627 11.372,58.632 11.335,58.578 10.328 C 58.316 5.450,55.478 1.527,51.313 0.281 C 50.637 0.079,50.372 0.064,47.003 0.041 C 45.029 0.027,43.185 0.052,42.904 0.095 " fill="#2B2C30" stroke="none" fill-rule="evenodd"></path></svg>