<svg width="60" height="60" viewBox="0 0 60 60" fill="none" xmlns="http://www.w3.org/2000/svg"><path d="M27.550 0.109 C 19.035 0.801,11.200 5.126,6.011 12.000 C 2.985 16.008,1.100 20.553,0.286 25.800 C 0.093 27.042,0.061 27.645,0.061 30.000 C 0.061 33.032,0.204 34.358,0.807 36.900 C 2.630 44.585,7.397 51.230,14.121 55.457 C 15.383 56.250,18.019 57.562,19.300 58.034 C 21.602 58.883,24.230 59.525,26.600 59.820 C 27.964 59.989,32.036 59.989,33.400 59.820 C 35.770 59.525,38.398 58.883,40.700 58.034 C 41.981 57.562,44.617 56.250,45.879 55.457 C 52.601 51.231,57.371 44.582,59.193 36.900 C 59.796 34.358,59.939 33.032,59.939 30.000 C 59.939 26.968,59.796 25.642,59.193 23.100 C 56.640 12.336,48.383 3.860,37.664 0.999 C 34.582 0.177,30.806 -0.155,27.550 0.109 M49.453 27.119 C 49.953 27.347,50.000 27.597,50.000 30.000 C 50.000 32.403,49.953 32.653,49.453 32.881 C 49.073 33.054,10.927 33.054,10.547 32.881 C 10.046 32.652,10.000 32.405,10.004 29.980 C 10.007 27.599,10.043 27.399,10.511 27.140 C 10.845 26.954,49.047 26.935,49.453 27.119 " fill="#2B2C30" stroke="none" fill-rule="evenodd"></path></svg>