<svg width="48" height="52" viewBox="0 0 48 52" fill="none" xmlns="http://www.w3.org/2000/svg"><path d="M8.504 0.157 C 7.967 0.484,8.000 -0.167,8.000 10.000 C 8.000 20.167,7.967 19.516,8.504 19.843 C 8.756 19.997,9.026 19.999,24.000 19.999 C 38.974 19.999,39.244 19.997,39.496 19.843 C 40.033 19.516,40.000 20.167,40.000 10.000 C 40.000 -0.167,40.033 0.484,39.496 0.157 C 39.244 0.003,38.974 0.001,24.000 0.001 C 9.026 0.001,8.756 0.003,8.504 0.157 M0.471 24.040 C 0.085 24.250,-0.000 24.581,0.000 25.880 C 0.000 27.187,0.073 27.467,0.474 27.704 C 0.690 27.831,2.188 27.840,24.034 27.840 L 47.362 27.840 47.661 27.566 L 47.960 27.293 47.985 26.010 C 48.014 24.576,47.937 24.256,47.513 24.036 C 47.177 23.863,0.790 23.866,0.471 24.040 M8.471 32.040 C 8.009 32.291,8.000 32.368,8.000 36.272 L 8.000 39.840 10.000 39.840 L 12.000 39.840 12.000 37.840 L 12.000 35.840 14.000 35.840 L 16.000 35.840 16.000 33.880 L 16.000 31.920 12.340 31.923 C 9.331 31.926,8.643 31.947,8.471 32.040 M20.000 33.880 L 20.000 35.840 24.000 35.840 L 28.000 35.840 28.000 33.880 L 28.000 31.920 24.000 31.920 L 20.000 31.920 20.000 33.880 M32.000 33.880 L 32.000 35.840 34.000 35.840 L 36.000 35.840 36.000 37.840 L 36.000 39.840 38.000 39.840 L 40.000 39.840 40.000 36.272 C 40.000 33.136,39.984 32.671,39.869 32.429 C 39.625 31.914,39.676 31.920,35.644 31.920 L 32.000 31.920 32.000 33.880 M8.000 47.488 C 8.000 51.399,8.003 51.426,8.474 51.704 C 8.682 51.827,9.058 51.840,12.352 51.840 L 16.000 51.840 16.000 49.880 L 16.000 47.920 14.000 47.920 L 12.000 47.920 12.000 45.920 L 12.000 43.920 10.000 43.920 L 8.000 43.920 8.000 47.488 M36.000 45.920 L 36.000 47.920 34.000 47.920 L 32.000 47.920 32.000 49.880 L 32.000 51.840 35.681 51.840 L 39.362 51.840 39.661 51.566 L 39.960 51.292 39.982 47.606 L 40.005 43.920 38.002 43.920 L 36.000 43.920 36.000 45.920 M20.000 49.880 L 20.000 51.840 24.000 51.840 L 28.000 51.840 28.000 49.880 L 28.000 47.920 24.000 47.920 L 20.000 47.920 20.000 49.880 " fill="#2B2C30" stroke="none" fill-rule="evenodd"></path></svg>