<svg width="40" height="56" viewBox="0 0 40 56" fill="none" xmlns="http://www.w3.org/2000/svg"><path d="M17.633 0.045 C 13.903 0.508,10.470 1.945,7.513 4.281 C 6.479 5.099,4.876 6.748,4.062 7.833 C 1.578 11.143,0.207 14.937,0.021 19.017 L -0.021 19.933 8.990 19.933 L 18.000 19.933 18.000 9.967 C 18.000 2.032,17.983 0.002,17.917 0.010 C 17.871 0.015,17.743 0.031,17.633 0.045 M22.000 9.933 L 22.000 19.867 31.000 19.867 L 40.000 19.867 40.000 19.576 C 40.000 17.988,39.584 15.499,39.031 13.779 C 38.052 10.733,36.419 8.075,34.105 5.762 C 32.716 4.374,31.534 3.469,29.900 2.541 C 27.519 1.190,25.267 0.450,22.283 0.038 L 22.000 -0.002 22.000 9.933 M0.019 30.783 C 0.047 38.224,0.043 38.137,0.440 40.020 C 1.075 43.024,2.455 45.948,4.397 48.400 C 5.085 49.269,6.622 50.809,7.475 51.484 C 9.962 53.454,12.750 54.785,15.733 55.427 C 17.327 55.770,17.970 55.831,20.000 55.831 C 22.030 55.831,22.673 55.770,24.267 55.427 C 27.250 54.785,30.038 53.454,32.525 51.484 C 33.377 50.810,34.916 49.267,35.594 48.409 C 37.575 45.901,38.965 42.944,39.573 39.942 C 39.960 38.034,39.953 38.187,39.981 30.783 L 40.007 23.933 20.000 23.933 L -0.007 23.933 0.019 30.783 " fill="#2B2C30" stroke="none" fill-rule="evenodd"></path></svg>