<svg width="40" height="56" viewBox="0 0 40 56" fill="none" xmlns="http://www.w3.org/2000/svg"><path d="M18.433 0.064 C 14.196 0.448,10.475 1.957,7.271 4.590 C 4.916 6.525,2.888 9.207,1.693 11.967 C 0.697 14.267,0.166 16.549,0.028 19.117 L -0.019 20.000 9.991 20.000 L 20.000 20.000 20.000 11.990 L 20.000 3.980 20.807 4.023 C 24.822 4.239,28.466 5.862,31.302 8.698 C 34.138 11.534,35.761 15.178,35.977 19.193 L 36.020 20.000 38.020 20.000 L 40.020 20.000 39.975 19.183 C 39.760 15.296,38.700 12.044,36.628 8.922 C 33.413 4.075,28.376 0.960,22.467 0.164 C 21.565 0.043,19.290 -0.014,18.433 0.064 M0.017 30.950 C 0.043 38.633,0.027 38.319,0.501 40.432 C 1.526 45.001,4.177 49.092,7.988 51.983 C 10.643 53.998,13.704 55.263,17.266 55.818 C 18.572 56.022,21.428 56.022,22.734 55.818 C 25.186 55.436,27.419 54.713,29.382 53.665 C 32.863 51.807,35.807 48.863,37.665 45.382 C 38.702 43.439,39.416 41.247,39.818 38.769 C 39.954 37.932,39.960 37.647,39.983 30.950 L 40.007 24.000 20.000 24.000 L -0.007 24.000 0.017 30.950 " fill="#2B2C30" stroke="none" fill-rule="evenodd"></path></svg>