<svg width="55" height="55" viewBox="0 0 55 55" fill="none" xmlns="http://www.w3.org/2000/svg"><path d="M0.000 2.017 L 0.000 4.033 2.017 4.033 L 4.033 4.033 4.033 2.017 L 4.033 0.000 2.017 0.000 L 0.000 0.000 0.000 2.017 M8.158 2.017 L 8.158 4.033 10.175 4.033 L 12.192 4.033 12.192 2.017 L 12.192 0.000 10.175 0.000 L 8.158 0.000 8.158 2.017 M16.225 2.017 L 16.225 4.033 18.242 4.033 L 20.258 4.033 20.258 2.017 L 20.258 0.000 18.242 0.000 L 16.225 0.000 16.225 2.017 M24.383 2.017 L 24.383 4.033 26.400 4.033 L 28.417 4.033 28.417 2.017 L 28.417 0.000 26.400 0.000 L 24.383 0.000 24.383 2.017 M32.450 2.017 L 32.450 4.033 34.467 4.033 L 36.483 4.033 36.483 2.017 L 36.483 0.000 34.467 0.000 L 32.450 0.000 32.450 2.017 M40.608 2.017 L 40.608 4.033 42.625 4.033 L 44.642 4.033 44.642 2.017 L 44.642 0.000 42.625 0.000 L 40.608 0.000 40.608 2.017 M0.000 10.175 L 0.000 12.192 2.017 12.192 L 4.033 12.192 4.033 10.175 L 4.033 8.158 2.017 8.158 L 0.000 8.158 0.000 10.175 M9.304 8.310 C 8.902 8.522,8.532 8.890,8.333 9.278 C 8.164 9.607,8.158 10.000,8.158 22.274 C 8.158 33.509,8.174 34.969,8.301 35.272 C 8.489 35.724,8.855 36.102,9.304 36.310 C 9.649 36.469,10.030 36.479,15.826 36.481 L 21.981 36.483 19.393 30.044 C 17.970 26.502,16.706 23.315,16.585 22.962 C 16.300 22.129,16.277 20.750,16.536 19.983 C 17.113 18.270,18.270 17.113,19.983 16.536 C 20.750 16.277,22.130 16.300,22.962 16.586 C 23.315 16.706,26.502 17.971,30.044 19.395 L 36.483 21.985 36.481 15.828 C 36.479 10.030,36.469 9.649,36.310 9.304 C 36.102 8.855,35.724 8.489,35.272 8.301 C 34.969 8.174,33.513 8.159,22.255 8.162 C 10.888 8.165,9.551 8.181,9.304 8.310 M40.608 10.177 L 40.608 12.195 42.602 12.171 L 44.596 12.146 44.621 10.152 L 44.645 8.158 42.627 8.158 L 40.608 8.158 40.608 10.177 M0.000 18.242 L 0.000 20.258 2.017 20.258 L 4.033 20.258 4.033 18.242 L 4.033 16.225 2.017 16.225 L 0.000 16.225 0.000 18.242 M40.608 18.242 L 40.608 20.258 42.625 20.258 L 44.642 20.258 44.642 18.242 L 44.642 16.225 42.625 16.225 L 40.608 16.225 40.608 18.242 M20.781 20.626 C 20.652 20.728,20.499 20.956,20.440 21.133 C 20.338 21.443,20.562 22.024,26.946 37.986 C 31.409 49.145,33.627 54.582,33.770 54.717 C 34.226 55.145,35.048 55.015,35.324 54.471 C 35.394 54.334,36.579 51.210,37.958 47.529 C 39.422 43.619,40.542 40.760,40.651 40.651 C 40.760 40.542,43.619 39.422,47.529 37.958 C 51.210 36.579,54.336 35.392,54.476 35.321 C 55.023 35.044,55.148 34.170,54.701 33.756 C 54.588 33.652,47.126 30.614,38.118 27.004 C 26.111 22.193,21.643 20.442,21.378 20.442 C 21.154 20.442,20.927 20.512,20.781 20.626 M0.000 26.400 L 0.000 28.417 2.017 28.417 L 4.033 28.417 4.033 26.400 L 4.033 24.383 2.017 24.383 L 0.000 24.383 0.000 26.400 M0.000 34.467 L 0.000 36.483 2.017 36.483 L 4.033 36.483 4.033 34.467 L 4.033 32.450 2.017 32.450 L 0.000 32.450 0.000 34.467 M0.000 42.625 L 0.000 44.642 2.017 44.642 L 4.033 44.642 4.033 42.625 L 4.033 40.608 2.017 40.608 L 0.000 40.608 0.000 42.625 M8.158 42.627 L 8.158 44.645 10.152 44.621 L 12.146 44.596 12.171 42.602 L 12.195 40.608 10.177 40.608 L 8.158 40.608 8.158 42.627 M16.225 42.625 L 16.225 44.642 18.242 44.642 L 20.258 44.642 20.258 42.625 L 20.258 40.608 18.242 40.608 L 16.225 40.608 16.225 42.625 " fill="#2B2C30" stroke="none" fill-rule="evenodd"></path></svg>