<svg width="56" height="56" viewBox="0 0 56 56" fill="none" xmlns="http://www.w3.org/2000/svg"><path d="M16.613 0.150 C 16.331 0.225,15.882 0.419,15.616 0.580 C 14.959 0.977,0.745 15.208,0.486 15.727 C -0.021 16.745,-0.000 16.224,-0.000 28.007 C -0.000 38.593,0.005 38.917,0.184 39.497 C 0.286 39.826,0.494 40.282,0.647 40.511 C 1.098 41.186,15.289 55.295,15.747 55.524 C 16.726 56.013,16.393 56.000,28.000 56.000 C 39.606 56.000,39.272 56.013,40.253 55.525 C 40.802 55.252,55.252 40.802,55.525 40.253 C 56.013 39.272,56.000 39.606,56.000 28.000 C 56.000 16.393,56.013 16.726,55.524 15.747 C 55.255 15.208,41.062 0.989,40.384 0.580 C 39.383 -0.024,39.896 -0.001,27.957 0.006 C 18.732 0.011,17.051 0.033,16.613 0.150 " fill="#2B2C30" stroke="none" fill-rule="evenodd"></path></svg>