<svg width="56" height="58" viewBox="0 0 56 58" fill="none" xmlns="http://www.w3.org/2000/svg"><path d="M24.474 0.187 C 24.306 0.290,24.127 0.482,24.077 0.615 C 24.018 0.771,23.994 6.631,24.009 17.133 L 24.033 33.409 24.292 33.668 L 24.551 33.927 28.000 33.927 L 31.449 33.927 31.708 33.668 L 31.967 33.409 31.991 17.133 C 32.006 6.631,31.982 0.771,31.923 0.615 C 31.873 0.482,31.694 0.290,31.526 0.187 C 31.236 0.010,31.054 0.001,28.000 0.001 C 24.946 0.001,24.764 0.010,24.474 0.187 M18.760 3.449 C 18.632 3.489,18.149 3.670,17.687 3.851 C 10.675 6.601,4.840 12.390,2.071 19.343 C 0.645 22.925,0.067 25.899,0.055 29.727 C 0.046 32.444,0.269 34.346,0.878 36.758 C 1.823 40.496,3.636 44.151,6.083 47.250 C 7.048 48.472,9.493 50.912,10.640 51.798 C 15.388 55.465,20.786 57.487,26.552 57.759 C 33.510 58.087,39.758 56.106,45.360 51.796 C 46.502 50.917,48.948 48.477,49.917 47.250 C 52.020 44.586,53.800 41.216,54.743 38.109 C 57.769 28.142,55.128 17.443,47.836 10.130 C 44.896 7.182,41.058 4.747,37.400 3.511 C 37.011 3.379,36.914 3.377,36.642 3.490 C 36.014 3.753,36.027 3.671,36.027 7.585 C 36.027 10.480,36.051 11.163,36.161 11.377 C 36.256 11.559,36.586 11.789,37.258 12.142 C 43.048 15.182,46.991 20.828,47.830 27.281 C 47.994 28.544,48.018 30.949,47.878 32.109 C 47.601 34.398,46.931 36.651,45.923 38.687 C 44.842 40.869,43.632 42.518,41.841 44.247 C 34.117 51.706,21.883 51.706,14.159 44.247 C 10.723 40.929,8.660 36.745,8.110 31.979 C 7.953 30.625,8.051 27.653,8.295 26.361 C 9.072 22.235,10.945 18.657,13.844 15.758 C 15.363 14.239,16.877 13.121,18.742 12.142 C 19.414 11.789,19.744 11.559,19.839 11.377 C 19.949 11.163,19.973 10.480,19.973 7.585 C 19.973 3.671,19.986 3.753,19.357 3.490 C 19.186 3.419,19.034 3.364,19.020 3.368 C 19.005 3.372,18.888 3.409,18.760 3.449 " fill="#2B2C30" stroke="none" fill-rule="evenodd"></path></svg>