<svg width="64" height="40" viewBox="0 0 64 40" fill="none" xmlns="http://www.w3.org/2000/svg"><path d="M14.617 0.170 C 13.583 0.449,12.633 1.203,12.173 2.110 C 12.063 2.328,9.291 10.235,6.014 19.680 C 0.490 35.601,0.055 36.905,0.055 37.555 C 0.054 38.151,0.103 38.337,0.376 38.779 C 0.576 39.103,0.898 39.424,1.221 39.624 L 1.743 39.947 25.432 39.947 L 49.120 39.947 49.725 39.663 C 50.439 39.328,51.221 38.639,51.574 38.033 C 51.713 37.795,54.520 29.824,57.811 20.320 C 62.637 6.387,63.797 2.934,63.799 2.495 C 63.804 1.535,63.331 0.757,62.453 0.284 L 62.027 0.053 38.613 0.033 C 18.278 0.016,15.123 0.034,14.617 0.170 " fill="#2B2C30" stroke="none" fill-rule="evenodd"></path></svg>