<svg width="40" height="56" viewBox="0 0 40 56" fill="none" xmlns="http://www.w3.org/2000/svg"><path d="M3.133 0.104 C 2.406 0.261,1.767 0.621,1.198 1.194 C 0.621 1.776,0.323 2.290,0.132 3.040 C 0.002 3.548,-0.000 3.874,-0.000 28.000 C -0.000 52.126,0.002 52.452,0.132 52.960 C 0.324 53.713,0.620 54.225,1.198 54.802 C 1.775 55.380,2.287 55.676,3.040 55.868 C 3.527 55.993,3.791 56.000,8.000 56.000 C 12.209 56.000,12.473 55.993,12.960 55.868 C 13.713 55.676,14.225 55.380,14.802 54.802 C 15.380 54.225,15.676 53.713,15.868 52.960 C 15.998 52.452,16.000 52.126,16.000 28.000 C 16.000 3.874,15.998 3.548,15.868 3.040 C 15.677 2.290,15.379 1.776,14.802 1.194 C 14.224 0.611,13.590 0.259,12.833 0.100 C 12.164 -0.040,3.787 -0.037,3.133 0.104 M27.133 0.104 C 25.667 0.420,24.410 1.689,24.100 3.167 C 23.952 3.872,23.952 52.128,24.100 52.833 C 24.412 54.319,25.683 55.590,27.167 55.900 C 27.855 56.044,36.145 56.044,36.833 55.900 C 38.310 55.591,39.591 54.310,39.900 52.833 C 40.047 52.128,40.047 3.872,39.900 3.167 C 39.590 1.683,38.319 0.412,36.833 0.100 C 36.164 -0.040,27.787 -0.037,27.133 0.104 " fill="#2B2C30" stroke="none" fill-rule="evenodd"></path></svg>