<svg width="48" height="48" viewBox="0 0 48 48" fill="none" xmlns="http://www.w3.org/2000/svg"><path d="M35.712 0.232 C 35.540 0.360,28.533 7.335,20.140 15.732 L 4.880 31.000 10.940 37.060 L 17.001 43.120 32.453 27.660 C 44.982 15.125,47.915 12.151,47.959 11.940 C 48.086 11.326,48.216 11.474,42.572 5.811 C 39.639 2.869,37.100 0.358,36.928 0.231 C 36.510 -0.078,36.129 -0.078,35.712 0.232 M1.063 34.820 C 0.571 35.315,0.130 35.821,0.084 35.945 C 0.028 36.095,0.000 38.034,0.000 41.705 C 0.001 47.054,0.006 47.249,0.157 47.496 C 0.477 48.021,0.219 48.000,6.319 48.000 C 10.871 48.000,11.891 47.980,12.103 47.888 C 12.244 47.827,12.756 47.377,13.239 46.888 L 14.118 45.999 8.079 39.959 C 4.758 36.638,2.022 33.920,1.999 33.920 C 1.976 33.920,1.555 34.325,1.063 34.820 " fill="#2B2C30" stroke="none" fill-rule="evenodd"></path></svg>