<svg width="60" height="58" viewBox="0 0 60 58" fill="none" xmlns="http://www.w3.org/2000/svg"><path d="M28.998 0.129 C 28.749 0.200,28.344 0.370,28.098 0.508 C 27.660 0.753,2.373 19.083,1.515 19.777 C 0.515 20.587,-0.057 21.847,0.020 23.072 C 0.055 23.627,0.973 26.556,5.078 39.200 C 7.836 47.698,10.233 54.928,10.404 55.268 C 10.953 56.361,12.038 57.161,13.296 57.399 C 14.025 57.538,45.975 57.538,46.704 57.399 C 47.962 57.161,49.047 56.361,49.596 55.268 C 49.767 54.928,52.164 47.698,54.922 39.200 C 59.027 26.556,59.945 23.627,59.980 23.072 C 60.057 21.847,59.485 20.587,58.485 19.777 C 57.112 18.666,32.238 0.693,31.690 0.417 C 31.150 0.144,30.886 0.076,30.240 0.042 C 29.769 0.017,29.267 0.053,28.998 0.129 " fill="#2B2C30" stroke="none" fill-rule="evenodd"></path></svg>