<svg width="48" height="40" viewBox="0 0 48 40" fill="none" xmlns="http://www.w3.org/2000/svg"><path d="M3.161 0.094 C 1.719 0.369,0.399 1.697,0.088 3.184 C -0.037 3.784,-0.037 36.216,0.088 36.816 C 0.401 38.315,1.685 39.599,3.184 39.912 C 3.785 40.037,44.215 40.037,44.816 39.912 C 46.315 39.599,47.599 38.315,47.912 36.816 C 48.037 36.216,48.037 3.784,47.912 3.184 C 47.594 1.659,46.277 0.363,44.765 0.087 C 44.149 -0.026,3.752 -0.019,3.161 0.094 M32.765 8.087 C 34.370 8.380,35.678 9.744,35.934 11.391 C 36.307 13.788,34.419 16.000,32.000 16.000 C 30.064 16.000,28.366 14.536,28.066 12.609 C 27.867 11.327,28.264 10.122,29.193 9.193 C 30.170 8.216,31.396 7.837,32.765 8.087 M18.428 16.120 C 18.567 16.185,20.318 17.877,22.319 19.879 L 25.958 23.519 28.762 20.719 L 31.565 17.920 32.001 17.920 L 32.436 17.920 36.218 21.699 L 40.000 25.478 40.000 28.319 L 40.000 31.159 36.000 27.160 L 32.000 23.161 30.400 24.760 L 28.800 26.358 29.829 27.399 C 30.395 27.972,30.917 28.529,30.989 28.638 C 31.150 28.882,31.159 29.375,31.006 29.664 C 30.832 29.992,29.353 31.420,29.081 31.521 C 28.490 31.742,28.665 31.894,23.140 26.375 L 17.999 21.241 13.000 26.240 L 8.000 31.240 8.000 28.400 L 8.000 25.559 12.660 20.903 C 15.223 18.342,17.428 16.192,17.560 16.124 C 17.863 15.969,18.108 15.968,18.428 16.120 " fill="#2B2C30" stroke="none" fill-rule="evenodd"></path></svg>