<svg width="40" height="64" viewBox="0 0 40 64" fill="none" xmlns="http://www.w3.org/2000/svg"><path d="M18.667 0.042 C 12.795 0.480,7.559 3.319,4.021 7.983 C 2.000 10.647,0.759 13.644,0.178 17.266 L 0.033 18.167 0.033 32.000 L 0.033 45.833 0.178 46.734 C 1.066 52.269,3.690 56.722,7.983 59.979 C 10.644 61.998,13.701 63.262,17.266 63.818 C 18.572 64.022,21.428 64.022,22.734 63.818 C 26.299 63.262,29.356 61.998,32.017 59.979 C 36.413 56.645,39.134 51.909,39.878 46.300 C 40.008 45.320,40.008 18.680,39.878 17.700 C 39.393 14.044,38.085 10.773,36.012 8.028 C 32.696 3.640,27.970 0.890,22.500 0.165 C 21.720 0.062,19.400 -0.012,18.667 0.042 " fill="#2B2C30" stroke="none" fill-rule="evenodd"></path></svg>