<svg width="48" height="48" viewBox="0 0 48 48" fill="none" xmlns="http://www.w3.org/2000/svg"><path d="M32.540 0.082 C 31.672 0.301,31.716 0.261,23.679 8.288 L 15.957 16.000 11.795 16.000 C 7.310 16.000,7.166 16.011,6.334 16.433 C 5.086 17.065,4.154 18.341,4.032 19.582 L 3.987 20.040 9.274 25.320 L 14.560 30.599 7.324 37.840 C 2.387 42.781,0.072 45.150,0.036 45.301 C -0.083 45.792,0.041 46.003,1.027 46.987 C 1.854 47.812,2.015 47.937,2.294 47.975 C 2.502 48.003,2.695 47.974,2.847 47.894 C 2.975 47.826,6.302 44.546,10.240 40.605 L 17.400 33.440 22.697 38.737 L 27.994 44.034 28.532 43.941 C 30.080 43.676,31.475 42.381,31.878 40.837 C 31.980 40.443,32.000 39.679,32.000 36.164 L 32.000 31.962 39.791 24.161 C 47.229 16.713,47.590 16.338,47.768 15.880 C 47.909 15.515,47.954 15.237,47.955 14.720 C 47.957 14.117,47.928 13.977,47.695 13.480 C 47.445 12.947,47.130 12.618,41.256 6.744 C 35.465 0.952,35.047 0.552,34.543 0.318 C 33.952 0.043,33.095 -0.058,32.540 0.082 " fill="#2B2C30" stroke="none" fill-rule="evenodd"></path></svg>