<svg width="44" height="56" viewBox="0 0 44 56" fill="none" xmlns="http://www.w3.org/2000/svg"><path d="M1.854 0.102 C 1.069 0.359,0.411 0.960,0.149 1.661 L -0.001 2.061 0.018 28.145 L 0.037 54.230 0.202 54.566 C 0.454 55.076,0.823 55.463,1.306 55.720 C 1.703 55.931,1.805 55.953,2.389 55.953 C 2.888 55.953,3.101 55.920,3.332 55.806 C 3.496 55.724,5.511 54.428,7.810 52.925 L 11.990 50.193 12.027 39.776 L 12.063 29.358 12.285 28.998 C 12.531 28.599,13.055 28.205,13.498 28.085 C 13.685 28.035,15.287 28.016,18.166 28.029 L 22.550 28.050 22.949 28.270 C 23.392 28.514,23.727 28.928,23.919 29.466 C 24.002 29.697,24.044 29.755,24.048 29.643 C 24.057 29.355,24.401 28.775,24.726 28.497 C 25.290 28.013,25.288 28.013,29.993 28.013 C 34.911 28.013,34.773 27.997,35.397 28.637 C 35.986 29.241,36.007 29.361,36.007 32.133 C 36.007 33.417,36.025 34.467,36.047 34.467 C 36.069 34.467,37.690 33.421,39.649 32.144 C 43.506 29.628,43.658 29.506,43.889 28.729 C 44.147 27.857,43.875 26.844,43.220 26.244 C 42.996 26.039,3.730 0.404,3.303 0.184 C 2.973 0.014,2.248 -0.027,1.854 0.102 M16.452 32.197 C 15.957 32.515,15.987 31.751,15.987 43.983 C 15.987 51.296,16.013 55.128,16.063 55.307 C 16.104 55.456,16.238 55.662,16.361 55.765 C 16.584 55.953,16.587 55.953,18.016 55.953 L 19.448 55.953 19.690 55.711 C 19.884 55.517,19.942 55.389,19.980 55.069 C 20.006 54.850,20.017 49.736,20.005 43.707 C 19.984 33.116,19.979 32.736,19.845 32.515 C 19.583 32.083,19.440 32.047,17.992 32.048 C 16.805 32.049,16.662 32.063,16.452 32.197 M28.475 32.190 C 27.978 32.493,28.013 31.599,28.013 44.004 C 28.013 56.392,27.983 55.600,28.460 55.847 C 28.779 56.012,31.320 56.000,31.576 55.832 C 31.998 55.556,31.973 56.278,31.973 44.022 C 31.973 32.965,31.970 32.739,31.830 32.509 C 31.576 32.093,31.392 32.047,29.979 32.047 C 28.850 32.047,28.684 32.063,28.475 32.190 " fill="#2B2C30" stroke="none" fill-rule="evenodd"></path></svg>