<svg width="56" height="40" viewBox="0 0 56 40" fill="none" xmlns="http://www.w3.org/2000/svg"><path d="M8.346 0.316 L 8.027 0.635 8.027 4.331 L 8.027 8.027 4.331 8.027 L 0.635 8.027 0.317 8.345 L -0.002 8.663 0.023 24.064 L 0.047 39.465 0.273 39.706 L 0.499 39.947 28.000 39.947 L 55.501 39.947 55.727 39.706 L 55.953 39.465 55.977 24.064 L 56.002 8.663 55.683 8.345 L 55.365 8.027 51.669 8.027 L 47.973 8.027 47.973 4.331 L 47.973 0.635 47.654 0.316 L 47.335 -0.003 39.947 0.022 L 32.558 0.047 32.286 0.351 L 32.013 0.656 32.013 4.341 L 32.013 8.027 28.000 8.027 L 23.987 8.027 23.987 4.341 L 23.987 0.656 23.714 0.351 L 23.442 0.047 16.053 0.022 L 8.665 -0.003 8.346 0.316 " fill="#2B2C30" stroke="none" fill-rule="evenodd"></path></svg>