<svg width="60" height="60" viewBox="0 0 60 60" fill="none" xmlns="http://www.w3.org/2000/svg"><path d="M27.550 0.109 C 19.035 0.801,11.200 5.126,6.011 12.000 C 2.985 16.008,1.100 20.553,0.286 25.800 C 0.093 27.042,0.061 27.645,0.061 30.000 C 0.061 33.032,0.204 34.358,0.807 36.900 C 2.630 44.585,7.397 51.230,14.121 55.457 C 15.383 56.250,18.019 57.562,19.300 58.034 C 21.602 58.883,24.230 59.525,26.600 59.820 C 27.964 59.989,32.036 59.989,33.400 59.820 C 35.770 59.525,38.398 58.883,40.700 58.034 C 41.981 57.562,44.617 56.250,45.879 55.457 C 52.601 51.231,57.371 44.582,59.193 36.900 C 59.796 34.358,59.939 33.032,59.939 30.000 C 59.939 26.968,59.796 25.642,59.193 23.100 C 56.640 12.336,48.383 3.860,37.664 0.999 C 34.582 0.177,30.806 -0.155,27.550 0.109 M32.485 10.143 C 32.637 10.221,32.815 10.403,32.881 10.547 C 32.970 10.744,33.000 12.841,33.000 18.905 L 33.000 27.000 41.105 27.000 C 49.905 27.000,49.623 26.982,49.881 27.547 C 50.046 27.911,50.046 32.089,49.881 32.453 C 49.623 33.018,49.905 33.000,41.105 33.000 L 33.000 33.000 33.000 41.095 C 33.000 47.159,32.970 49.256,32.881 49.453 C 32.653 49.953,32.403 50.000,30.000 50.000 C 27.597 50.000,27.347 49.953,27.119 49.453 C 27.030 49.256,27.000 47.159,27.000 41.095 L 27.000 33.000 18.905 33.000 C 12.841 33.000,10.744 32.970,10.547 32.881 C 10.048 32.653,10.000 32.402,10.000 30.010 C 10.000 28.517,10.038 27.725,10.119 27.547 C 10.377 26.982,10.095 27.000,18.895 27.000 L 27.000 27.000 27.004 18.875 C 27.007 10.161,26.992 10.427,27.511 10.140 C 27.868 9.942,32.102 9.944,32.485 10.143 " fill="#2B2C30" stroke="none" fill-rule="evenodd"></path></svg>