<svg width="48" height="48" viewBox="0 0 48 48" fill="none" xmlns="http://www.w3.org/2000/svg"><path d="M20.504 0.157 C 19.966 0.485,20.000 -0.209,20.000 10.396 L 20.000 20.000 10.380 20.000 C 0.980 20.001,0.754 20.004,0.504 20.157 C -0.001 20.465,-0.000 20.456,0.001 24.016 C 0.002 27.537,-0.002 27.497,0.473 27.818 L 0.744 28.000 10.372 28.000 L 20.000 28.000 20.000 37.620 C 20.001 47.020,20.004 47.246,20.157 47.496 C 20.464 48.001,20.458 48.000,24.000 48.000 C 27.542 48.000,27.536 48.001,27.843 47.496 C 27.996 47.246,27.999 47.020,28.000 37.620 L 28.000 28.000 37.620 28.000 C 47.020 27.999,47.246 27.996,47.496 27.843 C 48.001 27.535,48.000 27.543,48.000 23.984 C 47.999 20.927,47.991 20.747,47.843 20.504 C 47.515 19.966,48.209 20.000,37.604 20.000 L 28.000 20.000 28.000 10.396 C 28.000 -0.209,28.034 0.485,27.496 0.157 C 27.253 0.009,27.073 0.001,24.000 0.001 C 20.927 0.001,20.747 0.009,20.504 0.157 " fill="#2B2C30" stroke="none" fill-rule="evenodd"></path></svg>