<svg width="55" height="55" viewBox="0 0 55 55" fill="none" xmlns="http://www.w3.org/2000/svg"><path d="M17.659 0.089 C 15.933 0.642,15.745 3.013,17.365 3.805 C 17.812 4.024,17.957 4.051,18.435 4.008 C 19.470 3.914,20.151 3.221,20.232 2.180 C 20.271 1.674,20.244 1.543,20.011 1.101 C 19.674 0.461,19.125 0.098,18.415 0.043 C 18.143 0.022,17.803 0.043,17.659 0.089 M25.736 0.130 C 24.902 0.428,24.462 0.993,24.400 1.845 C 24.350 2.538,24.555 3.098,25.001 3.491 C 25.906 4.285,27.114 4.208,27.885 3.307 C 29.194 1.778,27.623 -0.543,25.736 0.130 M9.304 8.305 C 8.556 8.713,8.158 9.350,8.158 10.142 C 8.158 11.104,8.668 11.784,9.597 12.064 C 10.179 12.239,10.721 12.150,11.258 11.791 C 12.422 11.010,12.437 9.290,11.287 8.481 C 10.955 8.248,10.798 8.203,10.238 8.181 C 9.763 8.163,9.503 8.197,9.304 8.305 M25.529 8.305 C 25.116 8.530,24.755 8.895,24.549 9.296 C 24.262 9.853,24.341 10.768,24.720 11.293 C 25.451 12.305,27.023 12.428,27.833 11.536 C 28.653 10.634,28.499 9.175,27.512 8.481 C 27.180 8.248,27.023 8.203,26.463 8.181 C 25.988 8.163,25.728 8.197,25.529 8.305 M1.434 16.314 C -0.292 16.867,-0.480 19.238,1.140 20.030 C 1.587 20.249,1.732 20.276,2.210 20.233 C 3.245 20.139,3.926 19.446,4.007 18.405 C 4.046 17.899,4.019 17.768,3.786 17.326 C 3.449 16.686,2.900 16.323,2.190 16.268 C 1.918 16.247,1.578 16.268,1.434 16.314 M20.710 20.710 C 20.502 20.918,20.442 21.061,20.442 21.349 C 20.442 21.626,22.094 25.846,27.005 38.108 C 30.616 47.121,33.654 54.588,33.758 54.701 C 34.129 55.105,34.956 55.047,35.246 54.596 C 35.314 54.491,36.489 51.417,37.857 47.767 C 39.225 44.116,40.404 41.013,40.478 40.870 C 40.551 40.728,40.728 40.551,40.870 40.478 C 41.013 40.404,44.116 39.225,47.767 37.857 C 51.417 36.489,54.491 35.314,54.596 35.246 C 55.047 34.956,55.105 34.130,54.701 33.756 C 54.374 33.454,21.766 20.442,21.335 20.442 C 21.062 20.442,20.914 20.505,20.710 20.710 M1.286 24.485 C 0.042 24.982,-0.374 26.598,0.476 27.630 C 1.418 28.773,3.249 28.531,3.860 27.184 C 4.301 26.213,3.851 24.992,2.891 24.556 C 2.488 24.372,1.660 24.336,1.286 24.485 M1.329 32.582 C 0.831 32.766,0.224 33.423,0.089 33.926 C -0.159 34.846,0.255 35.790,1.101 36.236 C 1.543 36.469,1.674 36.496,2.180 36.457 C 3.237 36.375,3.925 35.687,4.007 34.630 C 4.046 34.124,4.019 33.993,3.786 33.551 C 3.319 32.665,2.249 32.243,1.329 32.582 M9.304 40.755 C 8.891 40.980,8.530 41.345,8.324 41.746 C 8.043 42.293,8.116 43.218,8.483 43.739 C 9.194 44.751,10.798 44.878,11.608 43.986 C 12.428 43.084,12.279 41.658,11.291 40.944 C 10.948 40.696,10.805 40.654,10.237 40.631 C 9.763 40.613,9.502 40.648,9.304 40.755 M17.511 40.710 C 16.588 41.079,16.047 42.167,16.314 43.120 C 16.724 44.583,18.594 45.081,19.672 44.014 C 20.641 43.056,20.346 41.339,19.116 40.781 C 18.713 40.597,17.885 40.561,17.511 40.710 " fill="#2B2C30" stroke="none" fill-rule="evenodd"></path></svg>