<svg width="32" height="32" viewBox="0 0 32 32" fill="none" xmlns="http://www.w3.org/2000/svg"><path d="M1.384 0.069 C 1.052 0.163,0.808 0.323,0.511 0.641 C 0.136 1.042,0.027 1.318,0.029 1.867 L 0.031 2.320 2.090 7.733 C 7.557 22.101,10.372 29.358,11.039 30.800 C 11.272 31.304,11.581 31.637,12.000 31.835 C 12.245 31.950,12.369 31.973,12.747 31.973 C 13.132 31.972,13.245 31.950,13.500 31.825 C 14.072 31.546,14.079 31.533,16.689 26.569 L 19.110 21.966 24.075 26.925 C 29.347 32.191,29.137 31.999,29.623 32.000 C 29.928 32.000,30.213 31.792,31.026 30.973 C 32.004 29.987,32.094 29.817,31.942 29.253 C 31.892 29.069,31.207 28.363,26.926 24.076 L 21.968 19.112 26.570 16.691 C 31.536 14.080,31.544 14.075,31.826 13.500 C 32.022 13.100,32.036 12.433,31.857 12.042 C 31.677 11.650,31.297 11.282,30.861 11.076 C 29.406 10.388,21.108 7.169,6.747 1.724 C 1.970 -0.087,1.954 -0.092,1.384 0.069 " fill="#2B2C30" stroke="none" fill-rule="evenodd"></path></svg>