<svg width="56" height="56" viewBox="0 0 56 56" fill="none" xmlns="http://www.w3.org/2000/svg"><path d="M12.490 0.160 C 11.997 0.466,11.993 0.494,11.993 4.377 L 11.993 7.980 28.000 7.980 L 44.007 7.980 44.007 4.377 C 44.007 0.476,44.004 0.457,43.495 0.156 C 43.251 0.012,42.060 0.000,27.986 0.002 C 13.929 0.005,12.720 0.017,12.490 0.160 M2.733 12.214 C 1.640 12.592,0.695 13.491,0.250 14.577 L 0.047 15.073 0.022 27.138 C -0.001 37.998,0.011 39.231,0.144 39.489 C 0.423 40.027,0.566 40.045,4.456 40.018 L 7.980 39.993 8.004 33.997 L 8.028 28.000 28.000 28.000 L 47.972 28.000 47.996 33.997 L 48.020 39.993 51.544 40.018 C 55.434 40.045,55.577 40.027,55.856 39.489 C 55.989 39.231,56.001 37.998,55.978 27.138 L 55.953 15.073 55.750 14.577 C 55.446 13.836,54.844 13.099,54.201 12.684 C 53.116 11.983,55.445 12.040,27.960 12.043 C 4.377 12.046,3.197 12.054,2.733 12.214 M11.674 20.325 L 11.947 20.630 11.947 22.023 C 11.947 23.361,11.938 23.427,11.722 23.678 C 11.497 23.939,11.492 23.940,10.172 23.971 C 8.098 24.018,8.027 23.952,8.027 21.959 C 8.027 20.064,8.143 19.956,10.158 19.996 L 11.402 20.020 11.674 20.325 M11.968 43.657 C 11.992 54.603,12.003 55.315,12.158 55.542 C 12.249 55.676,12.429 55.833,12.559 55.892 C 12.899 56.047,43.101 56.047,43.441 55.892 C 43.571 55.833,43.751 55.676,43.842 55.542 C 43.997 55.315,44.008 54.603,44.032 43.657 L 44.057 32.013 28.000 32.013 L 11.943 32.013 11.968 43.657 M35.523 48.150 C 35.904 48.404,35.973 48.635,36.011 49.785 C 36.052 51.044,35.955 51.509,35.592 51.795 C 35.351 51.985,35.271 51.987,28.008 51.987 C 19.864 51.987,20.378 52.027,20.103 51.371 C 19.968 51.047,19.921 49.379,20.031 48.826 C 20.099 48.490,20.458 48.096,20.751 48.037 C 20.862 48.015,24.187 48.002,28.140 48.008 C 34.125 48.018,35.359 48.042,35.523 48.150 " fill="#2B2C30" stroke="none" fill-rule="evenodd"></path></svg>