<svg width="56" height="53" viewBox="0 0 56 53" fill="none" xmlns="http://www.w3.org/2000/svg"><path d="M31.756 0.125 C 31.316 0.284,30.851 0.683,30.676 1.053 C 30.592 1.229,28.506 8.905,26.041 18.110 C 23.575 27.316,21.542 34.862,21.523 34.881 C 21.505 34.900,19.969 32.278,18.110 29.054 C 16.252 25.831,14.619 23.074,14.482 22.928 C 14.345 22.782,14.078 22.583,13.887 22.485 C 13.556 22.314,13.249 22.307,6.770 22.307 L 0.000 22.307 0.000 26.273 L 0.000 30.240 4.749 30.240 C 8.435 30.240,9.518 30.266,9.591 30.357 C 9.642 30.421,12.361 35.114,15.632 40.787 C 18.903 46.459,21.706 51.301,21.861 51.546 C 22.656 52.804,24.468 52.840,25.215 51.613 C 25.411 51.292,26.500 47.348,29.867 34.767 C 32.284 25.732,34.306 18.177,34.358 17.978 C 34.411 17.779,34.488 17.653,34.531 17.698 C 34.573 17.743,36.108 20.384,37.942 23.567 C 39.776 26.749,41.387 29.474,41.522 29.622 C 41.656 29.769,41.935 29.968,42.140 30.063 C 42.492 30.226,42.892 30.236,49.257 30.238 L 56.000 30.240 56.000 26.274 L 56.000 22.308 51.218 22.284 L 46.436 22.260 40.216 11.483 C 36.049 4.263,33.899 0.625,33.701 0.460 C 33.184 0.029,32.395 -0.107,31.756 0.125 " fill="#2B2C30" stroke="none" fill-rule="evenodd"></path></svg>