<svg width="52" height="52" viewBox="0 0 52 52" fill="none" xmlns="http://www.w3.org/2000/svg"><path d="M23.487 0.055 C 23.367 0.072,22.919 0.129,22.490 0.181 C 18.976 0.607,15.151 2.005,11.989 4.018 C 9.087 5.866,6.409 8.468,4.396 11.397 C 2.199 14.593,0.641 18.725,0.136 22.693 C 0.061 23.281,-0.000 23.817,-0.000 23.885 C -0.000 23.989,1.739 24.007,12.003 24.007 L 24.007 24.007 24.007 12.003 C 24.007 0.625,23.999 0.001,23.855 0.012 C 23.772 0.018,23.606 0.038,23.487 0.055 M28.015 11.979 L 28.037 23.963 40.021 23.985 L 52.006 24.007 51.954 23.552 C 51.421 18.905,50.155 15.326,47.748 11.660 C 45.876 8.810,43.394 6.292,40.622 4.432 C 36.846 1.899,33.223 0.594,28.448 0.046 L 27.993 -0.006 28.015 11.979 M0.046 28.448 C 0.594 33.223,1.899 36.846,4.432 40.622 C 6.215 43.279,8.721 45.785,11.378 47.568 C 15.139 50.091,18.803 51.411,23.552 51.954 L 24.007 52.006 23.985 40.021 L 23.963 28.037 11.979 28.015 L -0.006 27.993 0.046 28.448 M28.051 28.051 C 28.019 28.083,27.993 33.486,27.993 40.057 L 27.993 52.006 28.448 51.954 C 30.246 51.748,31.146 51.584,32.760 51.165 C 38.660 49.636,44.135 45.738,47.568 40.622 C 50.090 36.862,51.411 33.197,51.954 28.448 L 52.006 27.993 40.057 27.993 C 33.486 27.993,28.083 28.019,28.051 28.051 " fill="#2B2C30" stroke="none" fill-rule="evenodd"></path></svg>