<svg width="64" height="56" viewBox="0 0 64 56" fill="none" xmlns="http://www.w3.org/2000/svg"><path d="M12.348 0.311 L 12.000 0.622 11.971 8.365 L 11.943 16.107 13.971 16.107 L 16.000 16.107 16.000 18.133 L 16.000 20.160 13.973 20.160 L 11.947 20.160 11.947 26.080 L 11.947 32.000 13.973 32.000 L 16.000 32.000 16.000 34.027 L 16.000 36.053 13.972 36.053 L 11.943 36.053 11.972 45.715 L 12.000 55.378 12.348 55.689 L 12.697 56.000 18.348 56.000 L 24.000 56.000 24.000 54.027 L 24.000 52.053 32.000 52.053 L 40.000 52.053 40.000 54.027 L 40.000 56.000 45.652 56.000 L 51.303 56.000 51.652 55.689 L 52.000 55.378 52.029 45.715 L 52.058 36.053 50.029 36.053 L 48.000 36.053 48.000 34.027 L 48.000 32.000 50.027 32.000 L 52.053 32.000 52.053 26.080 L 52.053 20.160 50.027 20.160 L 48.000 20.160 48.000 18.133 L 48.000 16.107 50.029 16.107 L 52.059 16.107 52.029 8.365 L 52.000 0.622 51.652 0.311 L 51.303 0.000 32.000 -0.000 L 12.697 -0.000 12.348 0.311 M0.535 8.135 C 0.390 8.210,0.210 8.390,0.137 8.535 C 0.030 8.746,0.007 12.760,0.028 28.130 L 0.053 47.461 0.296 47.704 C 0.539 47.947,0.541 47.947,4.000 47.947 C 7.459 47.947,7.461 47.947,7.704 47.704 C 7.946 47.462,7.947 47.451,7.977 43.730 L 8.008 40.000 6.084 40.000 L 4.160 40.000 4.160 33.973 L 4.160 27.947 6.080 27.947 L 8.000 27.947 8.000 25.973 L 8.000 24.000 6.080 24.000 L 4.160 24.000 4.160 17.973 L 4.160 11.947 6.087 11.947 L 8.015 11.947 7.981 10.243 C 7.933 7.844,8.309 8.060,4.131 8.026 C 1.593 8.005,0.737 8.031,0.535 8.135 M24.000 10.027 L 24.000 12.053 22.027 12.053 L 20.053 12.053 20.053 10.027 L 20.053 8.000 22.027 8.000 L 24.000 8.000 24.000 10.027 M43.947 10.027 L 43.947 12.053 36.000 12.053 L 28.053 12.053 28.053 10.027 L 28.053 8.000 36.000 8.000 L 43.947 8.000 43.947 10.027 M56.535 8.135 C 56.077 8.371,56.003 8.680,56.002 10.373 L 56.000 11.947 57.920 11.947 L 59.840 11.947 59.840 17.973 L 59.840 24.000 57.920 24.000 L 56.000 24.000 56.000 25.973 L 56.000 27.947 57.920 27.947 L 59.840 27.947 59.840 33.973 L 59.840 40.000 57.916 40.000 L 55.992 40.000 56.023 43.730 C 56.053 47.451,56.054 47.462,56.296 47.704 C 56.539 47.947,56.541 47.947,60.000 47.947 C 63.459 47.947,63.461 47.947,63.704 47.704 L 63.947 47.461 63.947 28.000 L 63.947 8.539 63.704 8.296 C 63.463 8.055,63.437 8.053,60.131 8.026 C 57.593 8.005,56.737 8.031,56.535 8.135 M24.000 26.027 L 24.000 28.053 22.027 28.053 L 20.053 28.053 20.053 26.027 L 20.053 24.000 22.027 24.000 L 24.000 24.000 24.000 26.027 M43.947 26.027 L 43.947 28.053 36.000 28.053 L 28.053 28.053 28.053 26.027 L 28.053 24.000 36.000 24.000 L 43.947 24.000 43.947 26.027 M24.000 42.027 L 24.000 44.053 22.027 44.053 L 20.053 44.053 20.053 42.027 L 20.053 40.000 22.027 40.000 L 24.000 40.000 24.000 42.027 M43.947 42.027 L 43.947 44.053 36.000 44.053 L 28.053 44.053 28.053 42.027 L 28.053 40.000 36.000 40.000 L 43.947 40.000 43.947 42.027 " fill="#2B2C30" stroke="none" fill-rule="evenodd"></path></svg>