<svg width="48" height="48" viewBox="0 0 48 48" fill="none" xmlns="http://www.w3.org/2000/svg"><path d="M22.400 0.051 C 15.354 0.576,9.071 3.982,4.825 9.579 C 2.397 12.779,0.887 16.432,0.218 20.719 C -0.026 22.287,-0.026 25.713,0.218 27.281 C 1.244 33.864,4.427 39.266,9.586 43.180 C 12.772 45.597,16.444 47.115,20.719 47.782 C 22.287 48.026,25.713 48.026,27.281 47.782 C 33.113 46.873,38.071 44.243,41.791 40.086 C 45.089 36.400,46.995 32.326,47.782 27.281 C 48.026 25.713,48.026 22.287,47.782 20.719 C 47.115 16.444,45.597 12.772,43.180 9.586 C 39.211 4.355,33.539 1.064,27.000 0.199 C 26.063 0.075,23.280 -0.015,22.400 0.051 M25.202 14.083 C 26.737 14.271,28.307 14.864,29.647 15.762 C 29.995 15.995,30.625 16.531,31.047 16.953 C 35.374 21.280,34.850 28.350,29.928 32.044 C 28.811 32.882,27.262 33.559,25.800 33.849 C 25.063 33.995,22.937 33.995,22.200 33.849 C 20.738 33.559,19.189 32.882,18.072 32.044 C 14.753 29.553,13.295 25.356,14.361 21.360 C 14.619 20.393,15.365 18.867,15.989 18.032 C 18.122 15.176,21.680 13.651,25.202 14.083 " fill="#2B2C30" stroke="none" fill-rule="evenodd"></path></svg>