<svg width="53" height="49" viewBox="0 0 53 49" fill="none" xmlns="http://www.w3.org/2000/svg"><path d="M41.209 0.191 C 40.749 0.553,40.722 0.740,40.722 3.575 L 40.722 6.183 36.892 6.183 L 33.063 6.183 32.719 6.437 C 32.529 6.577,25.113 13.963,16.237 22.849 C 5.425 33.676,0.081 39.086,0.041 39.247 C -0.109 39.842,-0.029 39.947,2.499 42.469 L 4.910 44.873 5.347 44.873 L 5.785 44.873 21.067 29.592 L 36.350 14.310 38.531 14.310 L 40.712 14.310 40.739 17.055 L 40.766 19.800 41.096 20.103 C 41.445 20.423,41.876 20.502,42.230 20.313 C 42.520 20.158,52.589 11.063,52.801 10.765 C 53.039 10.431,53.056 10.024,52.845 9.702 C 52.720 9.511,43.437 1.093,42.414 0.243 C 42.045 -0.064,41.559 -0.084,41.209 0.191 M4.814 4.319 C 4.668 4.411,3.549 5.494,2.325 6.726 C -0.085 9.154,-0.182 9.292,0.119 9.861 C 0.193 10.000,2.572 12.430,5.406 15.260 C 10.502 20.348,10.563 20.405,10.913 20.405 C 11.108 20.405,11.366 20.340,11.486 20.260 C 11.805 20.049,15.696 16.181,15.997 15.776 C 16.193 15.514,16.253 15.336,16.253 15.026 L 16.253 14.621 11.019 9.386 C 5.845 4.213,5.780 4.152,5.432 4.152 C 5.238 4.152,4.960 4.227,4.814 4.319 M29.371 28.788 C 28.863 29.108,24.649 33.421,24.571 33.700 C 24.399 34.315,24.439 34.362,28.561 38.498 C 30.707 40.651,32.582 42.500,32.727 42.605 C 32.988 42.794,33.063 42.798,36.879 42.842 L 40.766 42.886 40.810 45.698 L 40.854 48.511 41.102 48.724 C 41.292 48.887,41.452 48.937,41.789 48.937 C 42.173 48.937,42.274 48.895,42.601 48.599 C 42.806 48.414,45.189 46.267,47.896 43.829 C 50.603 41.391,52.858 39.319,52.909 39.226 C 53.030 38.999,53.024 38.663,52.894 38.377 C 52.835 38.248,50.819 36.368,48.413 34.199 C 41.540 28.000,42.277 28.620,41.780 28.620 C 41.422 28.620,41.310 28.663,41.082 28.892 L 40.810 29.164 40.810 31.939 L 40.810 34.715 38.579 34.715 L 36.348 34.715 33.434 31.791 C 31.825 30.178,30.392 28.812,30.235 28.744 C 29.857 28.579,29.688 28.588,29.371 28.788 " fill="#2B2C30" stroke="none" fill-rule="evenodd"></path></svg>