<svg width="40" height="56" viewBox="0 0 40 56" fill="none" xmlns="http://www.w3.org/2000/svg"><path d="M3.133 0.104 C 2.406 0.261,1.767 0.621,1.198 1.194 C 0.621 1.776,0.323 2.290,0.132 3.040 C 0.002 3.548,-0.000 3.874,-0.000 28.000 C -0.000 52.126,0.002 52.452,0.132 52.960 C 0.324 53.713,0.620 54.225,1.198 54.802 C 1.775 55.380,2.287 55.676,3.040 55.868 C 3.546 55.998,3.841 56.000,20.000 56.000 C 36.159 56.000,36.454 55.998,36.960 55.868 C 37.713 55.676,38.225 55.380,38.802 54.802 C 39.380 54.225,39.676 53.713,39.868 52.960 C 39.998 52.452,40.000 52.126,40.000 28.000 C 40.000 3.874,39.998 3.548,39.868 3.040 C 39.677 2.290,39.379 1.776,38.802 1.194 C 38.224 0.611,37.590 0.259,36.833 0.100 C 36.149 -0.043,3.800 -0.040,3.133 0.104 " fill="#2B2C30" stroke="none" fill-rule="evenodd"></path></svg>