<svg width="56" height="54" viewBox="0 0 56 54" fill="none" xmlns="http://www.w3.org/2000/svg"><path d="M27.312 0.137 C 27.113 0.208,26.807 0.405,26.632 0.574 C 26.224 0.969,18.985 13.237,19.097 13.343 C 19.306 13.540,25.865 17.270,25.932 17.229 C 25.973 17.204,26.439 16.446,26.968 15.545 C 27.497 14.644,27.956 13.907,27.988 13.908 C 28.052 13.910,33.537 23.191,33.580 23.370 C 33.594 23.430,32.643 24.038,31.466 24.720 C 30.289 25.402,29.232 26.060,29.117 26.183 C 28.970 26.340,28.908 26.520,28.908 26.792 C 28.908 27.546,28.745 27.477,36.013 29.826 C 43.195 32.147,43.003 32.103,43.424 31.535 C 43.654 31.225,46.504 17.917,46.425 17.526 C 46.396 17.386,46.247 17.166,46.093 17.036 C 45.566 16.593,45.361 16.661,42.851 18.113 C 41.604 18.836,40.573 19.413,40.561 19.397 C 40.550 19.380,38.093 15.209,35.101 10.127 C 32.109 5.045,29.571 0.787,29.461 0.664 C 29.184 0.358,28.394 0.001,28.000 0.005 C 27.820 0.007,27.511 0.066,27.312 0.137 M13.164 20.488 C 9.650 21.636,6.683 22.625,6.571 22.685 C 6.098 22.938,6.011 23.763,6.417 24.158 C 6.558 24.295,7.629 24.954,8.796 25.621 C 9.964 26.288,10.919 26.866,10.919 26.905 C 10.920 26.945,8.478 31.116,5.494 36.175 C 1.223 43.416,0.060 45.457,0.025 45.764 C -0.038 46.325,0.133 46.850,0.530 47.314 C 1.170 48.062,0.659 48.017,8.750 48.047 L 15.960 48.073 15.960 44.059 L 15.960 40.044 14.237 40.019 L 12.513 39.993 15.181 35.467 C 16.649 32.977,17.865 30.923,17.884 30.902 C 17.902 30.882,18.874 31.414,20.042 32.086 C 22.549 33.527,22.597 33.549,23.027 33.407 C 23.357 33.298,23.706 32.856,23.706 32.546 C 23.707 32.302,20.916 19.226,20.800 18.928 C 20.666 18.586,20.331 18.385,19.907 18.393 C 19.712 18.397,16.678 19.339,13.164 20.488 M45.221 35.096 C 43.374 36.168,41.849 37.087,41.831 37.139 C 41.814 37.190,42.160 37.841,42.600 38.585 C 43.040 39.329,43.400 39.960,43.400 39.989 C 43.400 40.017,40.840 40.040,37.711 40.040 L 32.021 40.040 31.994 37.326 L 31.967 34.611 31.662 34.339 C 31.228 33.951,30.741 33.962,30.268 34.370 C 28.967 35.491,20.333 43.341,20.214 43.511 C 19.977 43.850,20.025 44.379,20.323 44.701 C 20.465 44.854,22.827 46.998,25.573 49.466 L 30.567 53.953 31.077 53.927 C 31.540 53.902,31.607 53.871,31.800 53.583 C 32.009 53.271,32.013 53.219,32.013 50.666 L 32.013 48.067 43.190 48.065 C 54.024 48.063,54.378 48.057,54.740 47.883 C 55.198 47.663,55.341 47.544,55.608 47.163 C 55.895 46.754,56.007 46.092,55.873 45.586 C 55.777 45.220,48.738 33.133,48.627 33.142 C 48.601 33.144,47.069 34.023,45.221 35.096 " fill="#2B2C30" stroke="none" fill-rule="evenodd"></path></svg>