<svg width="56" height="56" viewBox="0 0 56 56" fill="none" xmlns="http://www.w3.org/2000/svg"><path d="M0.607 0.088 C 0.504 0.130,0.336 0.258,0.233 0.372 C 0.055 0.570,0.045 0.731,0.020 3.881 C -0.009 7.447,0.007 7.584,0.491 7.861 C 0.647 7.950,1.656 7.992,4.499 8.027 L 8.298 8.073 7.409 9.053 C 5.588 11.060,4.122 13.199,2.913 15.614 C 2.182 17.072,2.037 17.588,2.247 17.980 C 2.417 18.298,2.444 18.310,5.737 19.553 C 8.826 20.719,9.003 20.756,9.402 20.322 C 9.507 20.207,9.812 19.676,10.079 19.141 C 11.071 17.153,12.075 15.745,13.669 14.108 C 14.613 13.139,15.848 12.040,15.994 12.040 C 16.027 12.040,16.053 14.584,16.053 17.693 C 16.053 21.391,16.087 23.408,16.149 23.525 C 16.384 23.964,16.580 23.987,20.071 23.987 L 23.352 23.987 23.669 23.669 L 23.987 23.352 23.987 11.676 L 23.987 0.000 12.390 0.006 C 6.012 0.009,0.709 0.046,0.607 0.088 M37.916 2.393 C 37.688 2.607,37.415 3.233,36.540 5.553 C 35.940 7.145,35.449 8.584,35.449 8.752 C 35.448 9.269,35.680 9.479,36.982 10.141 C 38.409 10.867,39.785 11.764,40.791 12.624 C 41.648 13.357,41.797 13.440,42.249 13.440 C 42.587 13.440,42.708 13.334,45.008 11.035 C 47.241 8.801,47.413 8.606,47.410 8.305 C 47.406 7.865,47.282 7.679,46.573 7.049 C 44.733 5.413,42.524 3.941,40.231 2.824 C 38.711 2.085,38.321 2.012,37.916 2.393 M52.733 16.867 C 52.535 16.942,48.034 18.970,47.384 19.277 C 46.837 19.536,46.573 19.854,46.573 20.255 C 46.573 20.363,46.740 20.943,46.944 21.543 C 47.407 22.907,47.746 24.462,47.883 25.853 C 48.027 27.329,48.107 27.597,48.468 27.817 C 48.749 27.989,48.960 27.999,52.050 28.000 L 55.332 28.000 55.613 27.764 C 55.767 27.634,55.919 27.409,55.951 27.263 C 56.098 26.593,55.648 23.146,55.157 21.187 C 54.878 20.072,54.136 17.816,53.895 17.350 C 53.680 16.935,53.146 16.713,52.733 16.867 M0.538 28.146 C 0.052 28.410,-0.010 28.681,0.100 30.070 C 0.327 32.956,0.890 35.493,1.879 38.083 C 2.183 38.879,2.494 39.199,2.963 39.200 C 3.079 39.200,4.503 38.602,6.128 37.870 C 9.887 36.178,9.711 36.399,9.013 34.261 C 8.529 32.778,8.258 31.488,8.089 29.867 C 7.956 28.582,7.872 28.350,7.469 28.141 C 7.068 27.934,0.921 27.938,0.538 28.146 M46.897 35.462 C 46.617 35.576,46.523 35.716,45.883 36.984 C 45.193 38.350,44.323 39.675,43.355 40.833 C 42.648 41.680,42.479 42.053,42.608 42.482 C 42.686 42.739,46.971 47.086,47.339 47.280 C 47.912 47.583,48.237 47.421,49.114 46.399 C 50.773 44.465,52.009 42.599,53.135 40.325 C 53.986 38.607,54.061 38.245,53.649 37.834 C 53.398 37.582,47.673 35.369,47.301 35.379 C 47.183 35.383,47.001 35.420,46.897 35.462 M10.992 44.965 C 8.759 47.199,8.587 47.394,8.590 47.695 C 8.592 47.874,8.644 48.111,8.707 48.222 C 8.979 48.709,11.303 50.559,13.047 51.678 C 14.221 52.431,16.939 53.818,17.419 53.908 C 17.790 53.978,18.247 53.750,18.419 53.408 C 18.733 52.786,20.658 47.535,20.658 47.300 C 20.658 46.784,20.456 46.600,19.189 45.960 C 17.765 45.242,16.207 44.230,15.209 43.376 C 14.353 42.643,14.204 42.560,13.751 42.560 C 13.413 42.560,13.292 42.666,10.992 44.965 M34.253 46.999 C 32.955 47.445,31.005 47.850,29.727 47.938 C 29.265 47.970,28.753 48.058,28.591 48.132 C 28.009 48.399,27.990 48.532,28.020 52.169 L 28.047 55.436 28.307 55.695 C 28.560 55.947,28.589 55.953,29.520 55.931 C 31.973 55.874,35.442 55.163,37.847 54.222 C 38.920 53.803,39.200 53.560,39.200 53.049 C 39.200 52.599,36.744 47.169,36.387 46.830 C 36.019 46.480,35.685 46.507,34.253 46.999 " fill="#2B2C30" stroke="none" fill-rule="evenodd"></path></svg>