<svg width="40" height="48" viewBox="0 0 40 48" fill="none" xmlns="http://www.w3.org/2000/svg"><path d="M16.569 0.152 C 16.423 0.235,16.236 0.404,16.152 0.528 L 16.000 0.753 16.000 4.377 L 16.000 8.000 9.817 8.001 C 2.950 8.002,3.120 7.993,2.200 8.443 C 1.833 8.623,1.567 8.822,1.198 9.194 C 0.621 9.776,0.323 10.290,0.132 11.040 C 0.002 11.546,0.000 11.841,0.000 28.000 C 0.000 44.159,0.002 44.454,0.132 44.960 C 0.324 45.713,0.620 46.225,1.198 46.802 C 1.775 47.380,2.287 47.676,3.040 47.868 C 3.546 47.998,3.841 48.000,20.000 48.000 C 36.159 48.000,36.454 47.998,36.960 47.868 C 37.713 47.676,38.225 47.380,38.802 46.802 C 39.380 46.225,39.676 45.713,39.868 44.960 C 39.998 44.454,40.000 44.159,40.000 28.000 C 40.000 11.841,39.998 11.546,39.868 11.040 C 39.677 10.290,39.379 9.776,38.802 9.194 C 38.433 8.822,38.167 8.623,37.800 8.443 C 37.008 8.055,36.619 8.002,34.567 8.002 C 32.826 8.002,32.758 8.007,32.507 8.151 C 32.364 8.233,32.192 8.405,32.124 8.532 C 32.004 8.757,32.000 9.302,32.000 24.382 L 32.000 40.000 20.000 40.000 L 8.000 40.000 8.000 28.000 L 8.000 16.000 12.000 16.000 L 16.000 16.000 16.000 19.623 L 16.000 23.247 16.150 23.467 C 16.477 23.948,17.023 24.124,17.450 23.887 C 17.569 23.821,19.960 21.238,22.764 18.148 C 26.785 13.716,27.879 12.473,27.942 12.264 C 28.100 11.737,28.082 11.712,25.183 8.518 C 23.710 6.895,21.430 4.382,20.117 2.933 C 18.804 1.485,17.636 0.233,17.522 0.150 C 17.255 -0.042,16.911 -0.042,16.569 0.152 " fill="#2B2C30" stroke="none" fill-rule="evenodd"></path></svg>