<svg width="56" height="56" viewBox="0 0 56 56" fill="none" xmlns="http://www.w3.org/2000/svg"><path d="M28.364 0.261 L 28.047 0.545 28.020 3.864 C 27.991 7.441,28.009 7.595,28.484 7.849 C 28.596 7.909,29.236 8.017,29.907 8.090 C 31.434 8.256,32.646 8.499,34.020 8.915 C 35.343 9.316,35.652 9.327,35.981 8.983 C 36.300 8.649,38.655 3.146,38.657 2.728 C 38.660 2.228,38.435 2.002,37.623 1.689 C 35.418 0.839,32.448 0.227,29.624 0.040 L 28.681 -0.022 28.364 0.261 M15.701 2.841 C 13.376 3.982,10.790 5.745,9.176 7.291 C 8.254 8.174,8.288 8.239,11.083 11.036 C 13.486 13.441,13.655 13.568,14.188 13.363 C 14.315 13.314,14.756 12.992,15.167 12.648 C 16.140 11.833,17.730 10.779,18.897 10.177 C 20.031 9.590,20.040 9.583,20.172 9.144 C 20.274 8.804,20.231 8.673,19.087 5.819 C 17.798 2.600,17.642 2.333,17.046 2.333 C 16.858 2.333,16.325 2.534,15.701 2.841 M47.413 8.690 C 47.285 8.741,46.165 9.799,44.925 11.041 C 42.094 13.876,42.146 13.735,43.395 15.213 C 44.250 16.226,45.091 17.493,45.812 18.853 C 46.124 19.444,46.473 19.984,46.586 20.054 C 46.699 20.124,46.942 20.179,47.126 20.176 C 47.623 20.167,53.189 17.892,53.457 17.588 C 53.802 17.196,53.732 16.848,53.021 15.429 C 51.993 13.378,50.702 11.451,49.108 9.594 C 48.293 8.644,47.969 8.472,47.413 8.690 M2.122 17.596 C 1.966 17.753,1.742 18.266,1.460 19.114 C 0.720 21.336,0.274 23.567,0.097 25.931 C 0.018 26.984,0.025 27.217,0.143 27.446 C 0.422 27.986,0.523 28.000,4.013 28.000 C 7.507 28.000,7.604 27.986,7.885 27.443 C 7.963 27.292,8.027 26.989,8.027 26.768 C 8.028 25.685,8.515 23.178,9.005 21.736 C 9.324 20.796,9.318 20.301,8.983 20.002 C 8.602 19.659,3.139 17.360,2.707 17.360 C 2.459 17.360,2.291 17.428,2.122 17.596 M48.476 28.178 C 48.152 28.376,47.973 28.780,47.973 29.317 C 47.973 29.513,47.910 30.131,47.832 30.689 C 46.581 39.657,39.536 46.656,30.576 47.830 C 29.330 47.993,27.045 48.016,25.807 47.878 C 21.385 47.384,17.296 45.446,14.108 42.333 C 13.138 41.386,12.040 40.151,12.040 40.006 C 12.040 39.973,14.584 39.947,17.693 39.947 C 21.391 39.947,23.408 39.913,23.525 39.851 C 23.964 39.616,23.987 39.420,23.987 35.929 L 23.987 32.648 23.669 32.331 L 23.352 32.013 11.675 32.013 L -0.002 32.013 0.022 43.725 L 0.047 55.436 0.305 55.695 L 0.564 55.953 3.873 55.980 C 7.447 56.009,7.584 55.993,7.861 55.509 C 7.950 55.353,7.992 54.344,8.027 51.501 L 8.073 47.702 9.053 48.591 C 13.128 52.289,17.909 54.642,23.240 55.573 C 25.651 55.995,29.222 56.084,31.453 55.778 C 37.869 54.900,43.345 52.221,47.789 47.787 C 52.510 43.076,55.331 36.978,55.907 30.240 C 56.041 28.670,56.042 28.676,55.683 28.317 L 55.365 28.000 52.066 28.000 C 48.988 28.001,48.747 28.013,48.476 28.178 " fill="#2B2C30" stroke="none" fill-rule="evenodd"></path></svg>