<svg width="56" height="56" viewBox="0 0 56 56" fill="none" xmlns="http://www.w3.org/2000/svg"><path d="M0.607 0.088 C 0.504 0.130,0.336 0.258,0.233 0.372 C 0.055 0.570,0.045 0.731,0.020 3.881 C -0.003 6.762,0.012 7.220,0.143 7.472 C 0.421 8.011,0.551 8.027,4.622 8.027 L 8.316 8.027 7.371 9.077 C 3.432 13.454,1.181 18.230,0.255 24.172 C -0.030 26.001,-0.030 29.999,0.255 31.828 C 1.452 39.508,5.165 45.810,11.183 50.377 C 14.901 53.197,19.185 54.968,24.172 55.745 C 26.001 56.030,29.999 56.030,31.828 55.745 C 38.632 54.685,44.416 51.617,48.757 46.767 C 52.604 42.467,54.828 37.714,55.745 31.828 C 56.036 29.962,56.030 26.011,55.734 24.080 C 54.371 15.197,49.314 7.867,41.539 3.503 C 38.138 1.594,34.135 0.403,30.106 0.100 C 28.919 0.011,28.781 0.017,28.520 0.170 C 28.010 0.468,28.003 0.520,28.001 3.995 C 28.000 7.491,28.016 7.606,28.538 7.874 C 28.679 7.946,29.304 8.054,29.929 8.114 C 33.660 8.471,37.210 9.878,40.273 12.213 C 41.058 12.811,42.845 14.566,43.519 15.400 C 45.701 18.100,47.162 21.362,47.740 24.828 C 47.949 26.083,48.021 28.561,47.888 29.929 C 47.217 36.818,43.072 42.821,36.848 45.916 C 34.844 46.913,32.526 47.601,30.242 47.878 C 29.225 48.001,26.775 48.001,25.758 47.878 C 21.900 47.411,18.080 45.783,15.260 43.404 C 11.157 39.942,8.657 35.249,8.114 29.987 C 7.976 28.656,8.049 26.095,8.259 24.827 C 8.832 21.373,10.266 18.161,12.446 15.447 C 13.066 14.675,14.866 12.878,15.563 12.334 L 15.960 12.024 15.960 17.562 C 15.960 22.648,15.974 23.127,16.123 23.425 C 16.402 23.980,16.427 23.984,20.053 23.985 L 23.352 23.987 23.669 23.669 L 23.987 23.352 23.987 11.676 L 23.987 0.000 12.390 0.006 C 6.012 0.009,0.709 0.046,0.607 0.088 " fill="#2B2C30" stroke="none" fill-rule="evenodd"></path></svg>