<svg width="56" height="56" viewBox="0 0 56 56" fill="none" xmlns="http://www.w3.org/2000/svg"><path d="M26.227 0.054 C 26.047 0.075,25.438 0.138,24.873 0.194 C 21.901 0.490,18.654 1.425,15.820 2.800 C 7.048 7.056,1.168 15.420,0.136 25.107 C -0.075 27.092,-0.060 27.305,0.317 27.683 L 0.635 28.000 3.934 28.000 C 7.040 27.999,7.251 27.989,7.532 27.817 C 7.900 27.593,7.965 27.362,8.166 25.579 C 9.022 17.985,14.393 11.428,21.726 9.023 C 28.281 6.874,35.537 8.254,40.776 12.648 C 41.218 13.019,41.695 13.445,41.835 13.594 L 42.090 13.866 40.872 15.077 C 39.335 16.603,39.206 16.833,39.528 17.456 C 39.823 18.026,39.684 18.013,45.705 18.013 C 51.026 18.013,51.203 18.007,51.499 17.826 C 51.667 17.724,51.847 17.530,51.898 17.395 C 51.957 17.239,51.982 15.119,51.965 11.569 L 51.940 5.988 51.715 5.749 C 51.445 5.461,50.959 5.352,50.603 5.500 C 50.460 5.559,49.779 6.173,49.090 6.864 C 48.400 7.555,47.804 8.120,47.765 8.120 C 47.726 8.120,47.306 7.759,46.831 7.317 C 42.726 3.503,37.328 1.009,31.500 0.234 C 30.439 0.093,26.929 -0.027,26.227 0.054 M21.115 16.251 C 20.635 16.488,20.225 16.962,20.080 17.446 C 19.921 17.976,19.929 38.050,20.088 38.583 C 20.230 39.059,20.850 39.696,21.321 39.852 C 21.516 39.916,21.927 39.950,22.246 39.928 L 22.820 39.889 31.110 34.723 C 37.572 30.696,39.450 29.484,39.624 29.227 C 39.747 29.046,39.896 28.682,39.955 28.418 C 40.099 27.775,39.888 27.012,39.445 26.577 C 39.178 26.315,24.067 16.833,23.016 16.268 C 22.496 15.988,21.661 15.981,21.115 16.251 M48.511 28.146 C 48.148 28.343,48.006 28.686,47.933 29.540 C 47.310 36.805,42.996 43.026,36.437 46.120 C 34.608 46.983,32.355 47.622,30.242 47.878 C 29.088 48.017,26.682 47.995,25.415 47.832 C 21.972 47.391,18.473 45.941,15.773 43.838 C 14.903 43.160,13.907 42.258,13.907 42.148 C 13.907 42.097,14.495 41.462,15.213 40.737 C 16.508 39.431,16.520 39.415,16.520 38.995 C 16.520 38.496,16.214 38.117,15.740 38.032 C 15.578 38.002,12.997 37.991,10.002 38.006 L 4.558 38.033 4.286 38.338 L 4.013 38.643 4.013 44.287 L 4.013 49.930 4.286 50.235 C 4.518 50.495,4.621 50.540,4.985 50.540 C 5.409 50.540,5.418 50.533,6.789 49.170 L 8.167 47.801 8.820 48.409 C 15.531 54.658,24.786 57.250,33.727 55.385 C 36.221 54.865,38.315 54.120,40.717 52.900 C 46.002 50.213,50.346 45.837,53.007 40.518 C 54.730 37.074,55.907 32.570,55.907 29.420 C 55.907 27.962,56.010 27.999,51.968 28.004 C 49.318 28.007,48.723 28.031,48.511 28.146 " fill="#2B2C30" stroke="none" fill-rule="evenodd"></path></svg>