<svg width="56" height="56" viewBox="0 0 56 56" fill="none" xmlns="http://www.w3.org/2000/svg"><path d="M25.672 0.099 C 17.623 0.815,10.429 4.794,5.612 11.195 C 2.408 15.452,0.552 20.361,0.092 25.796 C -0.023 27.166,0.009 27.422,0.339 27.732 L 0.575 27.953 3.879 27.980 C 7.554 28.010,7.590 28.005,7.874 27.407 C 7.958 27.230,8.027 26.887,8.027 26.645 C 8.027 25.967,8.286 24.337,8.585 23.134 C 9.235 20.525,10.338 18.223,12.013 15.983 C 15.157 11.777,19.870 8.983,25.123 8.211 C 26.521 8.005,28.929 7.963,30.242 8.122 C 34.454 8.632,38.434 10.443,41.421 13.209 L 42.102 13.839 40.798 15.161 C 39.367 16.614,39.224 16.868,39.520 17.440 C 39.824 18.028,39.666 18.013,45.687 18.013 C 50.393 18.013,51.194 17.994,51.430 17.872 C 51.999 17.577,51.987 17.716,51.987 11.685 L 51.987 6.188 51.775 5.873 C 51.539 5.523,51.113 5.355,50.717 5.454 C 50.564 5.492,49.927 6.044,49.141 6.819 C 48.414 7.535,47.788 8.120,47.747 8.120 C 47.707 8.120,47.296 7.764,46.834 7.328 C 43.292 3.994,38.283 1.478,33.273 0.515 C 31.117 0.101,27.735 -0.084,25.672 0.099 M48.461 28.187 C 48.066 28.428,48.000 28.621,47.877 29.889 C 47.436 34.428,45.549 38.550,42.423 41.804 C 39.372 44.979,35.719 46.916,31.220 47.743 C 30.093 47.950,27.106 48.030,25.846 47.886 C 22.434 47.497,19.073 46.215,16.366 44.273 C 15.448 43.614,13.907 42.281,13.907 42.146 C 13.907 42.093,14.499 41.456,15.222 40.731 C 16.407 39.544,16.539 39.380,16.547 39.078 C 16.560 38.630,16.372 38.306,15.998 38.129 C 15.726 38.000,15.021 37.985,10.124 38.008 L 4.558 38.033 4.286 38.338 L 4.013 38.643 4.013 44.237 C 4.013 48.061,4.045 49.902,4.115 50.054 C 4.248 50.347,4.668 50.587,5.048 50.587 C 5.316 50.587,5.523 50.418,6.760 49.195 L 8.167 47.802 8.773 48.366 C 13.098 52.388,18.174 54.831,24.080 55.735 C 26.013 56.030,29.964 56.036,31.828 55.745 C 36.967 54.944,41.333 53.089,45.220 50.053 C 46.710 48.889,48.578 47.053,49.759 45.591 C 53.322 41.182,55.445 35.836,55.903 30.119 C 55.981 29.138,55.975 28.867,55.867 28.608 C 55.618 28.013,55.532 28.000,51.968 28.000 C 48.933 28.001,48.751 28.010,48.461 28.187 " fill="#2B2C30" stroke="none" fill-rule="evenodd"></path></svg>