<svg width="56" height="56" viewBox="0 0 56 56" fill="none" xmlns="http://www.w3.org/2000/svg"><path d="M10.827 0.150 C 9.719 0.446,8.889 1.151,8.365 2.240 L 8.073 2.847 8.047 7.439 L 8.020 12.031 4.733 12.059 L 1.447 12.087 1.031 12.320 C -0.113 12.962,-0.330 14.458,0.585 15.398 C 1.168 15.997,1.205 16.002,4.782 16.036 L 8.025 16.066 8.049 34.610 L 8.073 53.153 8.333 53.707 C 8.845 54.800,9.604 55.472,10.716 55.816 C 11.301 55.996,11.644 56.000,28.000 56.000 C 44.356 56.000,44.699 55.996,45.284 55.816 C 46.396 55.472,47.155 54.800,47.667 53.707 L 47.927 53.153 47.951 34.603 L 47.975 16.053 50.910 16.053 C 52.645 16.053,54.035 16.012,54.311 15.953 C 55.226 15.757,55.796 15.110,55.888 14.162 C 55.975 13.255,55.347 12.366,54.460 12.143 C 54.203 12.078,52.920 12.040,51.015 12.040 L 47.980 12.040 47.953 7.443 L 47.927 2.847 47.635 2.240 C 47.266 1.473,46.824 0.968,46.187 0.587 C 45.142 -0.038,46.303 -0.001,27.957 0.006 C 13.638 0.011,11.269 0.031,10.827 0.150 M19.353 34.140 C 25.080 37.360,26.216 38.031,26.073 38.110 C 25.978 38.162,22.838 39.924,19.095 42.025 C 15.352 44.125,12.234 45.866,12.165 45.892 C 12.061 45.932,12.040 44.596,12.040 37.993 L 12.040 30.047 12.250 30.156 C 12.366 30.216,15.562 32.009,19.353 34.140 " fill="#2B2C30" stroke="none" fill-rule="evenodd"></path></svg>