<svg width="56" height="56" viewBox="0 0 56 56" fill="none" xmlns="http://www.w3.org/2000/svg"><path d="M26.133 0.059 C 17.913 0.672,10.583 4.646,5.629 11.176 C 2.796 14.909,1.034 19.171,0.255 24.172 C -0.030 26.001,-0.030 29.999,0.255 31.828 C 1.452 39.508,5.165 45.810,11.183 50.377 C 14.901 53.197,19.185 54.968,24.172 55.745 C 26.038 56.036,29.989 56.030,31.920 55.734 C 36.153 55.084,40.063 53.596,43.433 51.354 C 50.658 46.545,55.139 38.963,55.910 30.244 C 56.030 28.891,55.991 28.579,55.664 28.272 L 55.425 28.047 52.121 28.020 C 48.501 27.991,48.401 28.004,48.125 28.538 C 48.052 28.679,47.964 29.129,47.929 29.540 C 47.577 33.658,46.066 37.449,43.519 40.600 C 42.769 41.528,41.022 43.218,40.061 43.947 C 37.260 46.069,33.826 47.444,30.242 47.878 C 29.807 47.930,28.798 47.973,28.000 47.973 C 25.685 47.973,23.916 47.692,21.719 46.973 C 16.650 45.316,12.404 41.594,10.024 36.722 C 7.354 31.258,7.355 24.748,10.026 19.272 C 14.055 11.009,23.077 6.590,32.128 8.446 C 35.552 9.147,39.191 11.033,41.555 13.331 L 42.090 13.851 40.797 15.162 C 39.391 16.589,39.268 16.803,39.514 17.391 C 39.785 18.040,39.580 18.021,45.834 17.992 L 51.442 17.967 51.714 17.662 L 51.987 17.357 51.987 11.719 L 51.987 6.081 51.748 5.797 C 51.491 5.491,51.029 5.350,50.665 5.465 C 50.545 5.502,49.850 6.121,49.122 6.838 L 47.796 8.144 47.426 7.828 C 47.223 7.655,46.748 7.237,46.371 6.898 C 42.418 3.347,37.131 0.977,31.500 0.232 C 30.407 0.087,27.159 -0.017,26.133 0.059 M21.283 16.152 C 20.864 16.328,20.441 16.712,20.229 17.109 L 20.020 17.500 20.020 28.000 L 20.020 38.500 20.282 38.945 C 20.426 39.190,20.717 39.505,20.928 39.645 C 21.267 39.870,21.402 39.900,22.067 39.900 L 22.820 39.900 30.893 34.872 C 35.334 32.107,39.104 29.742,39.271 29.617 C 40.240 28.892,40.240 27.104,39.271 26.385 C 39.104 26.261,35.334 23.897,30.893 21.133 L 22.820 16.106 22.167 16.081 C 21.807 16.067,21.410 16.099,21.283 16.152 " fill="#2B2C30" stroke="none" fill-rule="evenodd"></path></svg>