<svg width="61" height="61" viewBox="0 0 61 61" fill="none" xmlns="http://www.w3.org/2000/svg"><path d="M29.559 0.104 C 28.441 0.387,28.714 0.128,14.457 14.370 C 1.309 27.504,0.790 28.037,0.427 28.766 C 0.072 29.481,0.051 29.579,0.051 30.495 C 0.051 31.348,0.087 31.546,0.347 32.127 C 0.628 32.753,1.359 33.504,14.326 46.492 C 27.509 59.696,28.037 60.210,28.766 60.573 C 29.481 60.928,29.579 60.949,30.495 60.949 C 31.381 60.949,31.528 60.920,32.178 60.614 C 32.861 60.293,33.438 59.731,46.584 46.584 C 59.731 33.438,60.293 32.861,60.614 32.178 C 60.920 31.529,60.949 31.380,60.949 30.500 C 60.949 29.620,60.920 29.471,60.614 28.823 C 60.293 28.139,59.731 27.562,46.584 14.416 C 33.563 1.395,32.855 0.705,32.203 0.401 C 31.447 0.050,30.288 -0.080,29.559 0.104 " fill="#2B2C30" stroke="none" fill-rule="evenodd"></path></svg>