<svg width="56" height="52" viewBox="0 0 56 52" fill="none" xmlns="http://www.w3.org/2000/svg"><path d="M27.312 0.137 C 26.878 0.292,26.389 0.745,26.160 1.205 C 26.011 1.504,25.990 1.892,25.964 4.783 L 25.934 8.027 15.342 8.027 C 3.833 8.027,4.369 8.002,4.125 8.537 C 4.043 8.717,4.013 10.015,4.013 13.386 L 4.013 17.989 3.468 18.051 C 2.725 18.135,1.736 18.625,1.172 19.189 C 0.895 19.467,0.585 19.920,0.381 20.346 L 0.047 21.047 0.017 23.726 C -0.016 26.668,0.044 27.161,0.534 27.997 C 1.126 29.007,2.380 29.838,3.461 29.936 L 4.008 29.985 4.034 34.723 C 4.059 39.226,4.069 39.470,4.237 39.656 C 4.335 39.764,4.566 39.894,4.751 39.946 C 5.231 40.079,50.787 40.074,51.268 39.940 C 51.507 39.874,51.683 39.744,51.805 39.544 C 51.978 39.260,51.986 39.038,51.986 34.616 L 51.987 29.986 52.536 29.936 C 53.620 29.838,54.873 29.008,55.466 27.997 C 55.956 27.161,56.016 26.668,55.983 23.726 L 55.953 21.047 55.615 20.347 C 55.413 19.927,55.095 19.464,54.822 19.192 C 54.256 18.627,53.268 18.134,52.532 18.051 L 51.987 17.989 51.987 13.386 C 51.987 10.015,51.957 8.717,51.875 8.537 C 51.631 8.002,52.167 8.027,40.658 8.027 L 30.066 8.027 30.036 4.783 C 30.003 1.146,30.005 1.155,29.304 0.522 C 28.748 0.020,28.030 -0.119,27.312 0.137 M21.035 18.154 C 22.432 18.518,23.561 19.685,23.888 21.104 C 23.940 21.332,23.983 22.805,23.984 24.429 L 23.987 27.344 23.714 27.649 L 23.442 27.953 20.149 27.980 C 17.842 27.999,16.779 27.975,16.599 27.901 C 16.047 27.672,16.044 27.651,16.073 24.143 L 16.100 20.943 16.451 20.232 C 17.305 18.506,19.159 17.666,21.035 18.154 M37.007 18.140 C 38.148 18.445,39.020 19.162,39.549 20.232 L 39.900 20.943 39.927 24.143 C 39.956 27.651,39.953 27.672,39.401 27.901 C 39.221 27.975,38.158 27.999,35.851 27.980 L 32.558 27.953 32.286 27.649 L 32.013 27.344 32.016 24.429 C 32.017 22.805,32.060 21.332,32.112 21.104 C 32.346 20.089,33.092 19.065,33.976 18.548 C 34.821 18.052,36.056 17.886,37.007 18.140 M16.499 42.145 C 16.359 42.221,16.202 42.364,16.149 42.462 C 16.096 42.561,16.053 43.250,16.053 43.999 L 16.053 45.357 16.326 45.662 L 16.598 45.967 28.000 45.967 L 39.402 45.967 39.674 45.662 L 39.947 45.357 39.947 43.999 C 39.947 43.246,39.904 42.561,39.851 42.461 C 39.594 41.981,40.070 42.000,27.981 42.004 C 18.254 42.007,16.719 42.026,16.499 42.145 M18.501 48.160 C 18.333 48.263,18.154 48.454,18.104 48.586 C 18.054 48.718,18.013 49.389,18.013 50.078 C 18.013 51.330,18.013 51.331,18.286 51.635 L 18.558 51.940 28.000 51.940 L 37.442 51.940 37.714 51.635 C 37.987 51.331,37.987 51.330,37.987 50.078 C 37.987 49.389,37.946 48.718,37.896 48.586 C 37.846 48.454,37.667 48.263,37.499 48.160 C 37.199 47.977,37.024 47.974,28.000 47.974 C 18.976 47.974,18.801 47.977,18.501 48.160 " fill="#2B2C30" stroke="none" fill-rule="evenodd"></path></svg>