<svg width="56" height="45" viewBox="0 0 56 45" fill="none" xmlns="http://www.w3.org/2000/svg"><path d="M23.753 0.096 C 15.925 0.478,9.196 1.863,4.703 4.017 C 2.511 5.067,1.023 6.791,0.314 9.100 C 0.070 9.898,0.056 10.036,0.052 11.853 C 0.047 13.761,0.047 13.768,0.306 14.295 C 0.764 15.228,1.579 15.799,2.679 15.958 C 3.503 16.077,8.425 16.078,9.764 15.960 C 11.489 15.807,13.017 15.260,14.327 14.325 C 15.077 13.790,17.789 11.015,18.248 10.313 C 19.311 8.689,19.973 6.664,19.973 5.040 L 19.973 4.403 20.323 4.350 C 22.874 3.961,33.126 3.961,35.677 4.350 L 36.027 4.403 36.030 5.025 C 36.039 6.700,36.683 8.680,37.752 10.313 C 38.211 11.015,40.923 13.790,41.673 14.325 C 42.983 15.260,44.511 15.807,46.236 15.960 C 47.575 16.078,52.497 16.077,53.321 15.958 C 54.421 15.799,55.236 15.228,55.694 14.295 C 55.953 13.768,55.953 13.763,55.947 11.853 C 55.940 10.045,55.926 9.894,55.685 9.100 C 54.898 6.513,53.297 4.836,50.475 3.643 C 46.124 1.802,40.657 0.667,33.833 0.186 C 31.910 0.051,25.798 -0.004,23.753 0.096 M20.685 12.225 C 19.522 12.597,19.728 12.364,11.922 22.113 C 6.505 28.878,4.567 31.363,4.351 31.819 L 4.060 32.433 4.031 37.333 C 4.011 40.723,4.034 42.342,4.105 42.585 C 4.242 43.050,4.718 43.579,5.180 43.780 C 5.530 43.932,6.933 43.944,28.047 43.974 L 50.540 44.007 50.981 43.748 C 51.267 43.579,51.513 43.333,51.681 43.048 L 51.940 42.607 51.967 37.854 C 51.995 32.862,51.974 32.537,51.576 31.677 C 51.442 31.389,48.482 27.613,44.076 22.111 C 36.241 12.325,36.479 12.593,35.285 12.221 C 34.731 12.049,34.378 12.040,27.968 12.045 C 21.644 12.050,21.200 12.061,20.685 12.225 M29.349 20.115 C 32.558 20.675,35.148 23.166,35.850 26.367 C 36.046 27.260,36.006 29.027,35.770 29.913 C 35.137 32.288,33.613 34.147,31.453 35.179 C 30.223 35.767,29.379 35.957,28.000 35.957 C 26.621 35.957,25.777 35.767,24.547 35.179 C 22.387 34.147,20.863 32.288,20.230 29.913 C 19.994 29.027,19.954 27.260,20.150 26.367 C 21.075 22.147,25.144 19.382,29.349 20.115 M26.969 24.157 C 25.460 24.551,24.354 25.776,24.068 27.370 C 23.607 29.933,25.988 32.341,28.572 31.925 C 30.329 31.642,31.660 30.300,31.935 28.533 C 32.245 26.538,30.924 24.602,28.932 24.132 C 28.166 23.952,27.735 23.957,26.969 24.157 " fill="#2B2C30" stroke="none" fill-rule="evenodd"></path></svg>