<svg width="57" height="56" viewBox="0 0 57 56" fill="none" xmlns="http://www.w3.org/2000/svg"><path d="M43.035 0.066 C 40.232 0.366,37.769 1.550,35.767 3.559 C 33.731 5.603,32.625 7.948,32.295 10.925 C 32.072 12.939,32.536 15.389,33.512 17.337 C 33.930 18.175,34.844 19.516,35.287 19.945 C 35.473 20.125,35.623 20.317,35.621 20.372 C 35.619 20.427,35.099 20.873,34.465 21.364 C 33.389 22.196,33.299 22.246,33.105 22.124 C 32.990 22.051,29.403 18.979,25.132 15.295 C 20.861 11.611,17.182 8.482,16.957 8.341 C 16.051 7.775,16.245 7.787,7.884 7.813 L 0.242 7.838 13.065 17.846 C 20.117 23.350,25.899 27.886,25.914 27.924 C 25.929 27.963,20.127 32.522,13.022 38.056 C 5.917 43.590,0.101 48.150,0.099 48.189 C 0.093 48.302,14.391 48.274,15.105 48.160 C 15.445 48.105,15.991 47.924,16.318 47.756 C 16.749 47.537,19.155 45.543,24.996 40.565 C 29.442 36.777,33.128 33.666,33.188 33.653 C 33.248 33.639,33.845 34.060,34.514 34.589 L 35.730 35.549 35.268 36.038 C 33.959 37.425,32.906 39.536,32.500 41.588 C 32.061 43.801,32.169 45.551,32.879 47.742 C 33.836 50.693,36.096 53.296,38.934 54.715 C 43.711 57.103,49.767 55.902,53.263 51.873 C 55.335 49.485,56.327 46.666,56.207 43.510 C 56.134 41.599,55.760 40.159,54.900 38.475 C 53.050 34.854,49.359 32.378,45.300 32.037 L 44.478 31.968 42.184 29.988 C 40.922 28.900,39.903 27.970,39.918 27.922 C 39.934 27.875,40.974 26.961,42.227 25.891 L 44.508 23.946 45.043 23.943 C 46.236 23.936,48.144 23.429,49.499 22.759 C 52.852 21.101,55.084 18.246,56.005 14.440 C 56.236 13.483,56.290 11.255,56.108 10.150 C 55.599 7.055,53.911 4.251,51.442 2.399 C 49.097 0.641,45.915 -0.242,43.035 0.066 M45.049 8.087 C 47.109 8.524,48.522 10.556,48.185 12.594 C 47.964 13.924,47.198 14.963,46.001 15.555 C 45.303 15.900,45.243 15.912,44.275 15.912 C 43.008 15.912,42.425 15.701,41.613 14.950 C 40.622 14.032,40.228 13.071,40.298 11.737 C 40.425 9.330,42.694 7.587,45.049 8.087 M45.924 40.357 C 48.425 41.527,49.009 44.807,47.066 46.770 C 45.515 48.338,43.009 48.338,41.440 46.772 C 40.726 46.058,40.351 45.220,40.298 44.218 C 40.234 42.994,40.552 42.106,41.363 41.244 C 42.216 40.338,43.137 39.971,44.426 40.026 C 45.152 40.056,45.398 40.111,45.924 40.357 " fill="#2B2C30" stroke="none" fill-rule="evenodd"></path></svg>