<svg width="56" height="40" viewBox="0 0 56 40" fill="none" xmlns="http://www.w3.org/2000/svg"><path d="M0.607 0.088 C 0.504 0.130,0.336 0.258,0.233 0.372 C 0.048 0.578,0.047 0.711,0.047 20.022 L 0.047 39.465 0.273 39.706 L 0.499 39.947 3.942 39.947 C 6.230 39.947,7.449 39.913,7.574 39.846 C 8.048 39.592,8.027 40.519,8.027 20.020 C 8.027 3.730,8.007 0.881,7.894 0.610 C 7.644 0.012,7.562 -0.001,3.995 0.006 C 2.234 0.009,0.709 0.046,0.607 0.088 M48.469 0.180 C 48.270 0.303,48.139 0.481,48.073 0.718 C 47.937 1.209,47.935 38.824,48.071 39.314 C 48.250 39.958,48.178 39.947,52.038 39.947 L 55.501 39.947 55.727 39.706 L 55.953 39.465 55.953 20.015 L 55.953 0.564 55.695 0.305 L 55.436 0.047 52.101 0.022 C 48.926 -0.002,48.752 0.006,48.469 0.180 M18.515 9.920 C 18.309 10.037,17.810 10.625,13.131 16.266 C 10.418 19.536,10.360 19.614,10.360 20.020 C 10.360 20.428,10.415 20.499,14.335 25.220 C 16.521 27.853,18.401 30.058,18.512 30.120 C 18.927 30.353,19.662 30.177,19.845 29.800 C 19.890 29.708,19.948 28.373,19.973 26.833 L 20.020 24.033 28.000 24.033 L 35.980 24.033 36.027 26.833 C 36.052 28.373,36.110 29.708,36.155 29.800 C 36.338 30.177,37.073 30.353,37.488 30.120 C 37.599 30.058,39.479 27.853,41.665 25.220 C 45.582 20.503,45.640 20.427,45.640 20.020 C 45.640 19.614,45.582 19.538,41.665 14.821 C 39.478 12.188,37.599 9.982,37.488 9.920 C 37.073 9.686,36.338 9.863,36.155 10.240 C 36.110 10.332,36.052 11.667,36.027 13.207 L 35.980 16.007 28.000 16.007 L 20.020 16.007 19.973 13.207 C 19.948 11.667,19.890 10.332,19.845 10.240 C 19.662 9.863,18.925 9.686,18.515 9.920 " fill="#2B2C30" stroke="none" fill-rule="evenodd"></path></svg>