<svg width="58" height="61" viewBox="0 0 58 61" fill="none" xmlns="http://www.w3.org/2000/svg"><path d="M27.315 0.144 C 27.107 0.218,26.795 0.423,26.623 0.599 C 26.188 1.044,14.043 23.341,13.963 23.841 C 13.876 24.381,14.068 24.985,14.463 25.423 C 15.124 26.155,14.143 26.108,28.187 26.078 L 40.762 26.052 41.161 25.775 C 41.645 25.439,42.050 24.686,42.049 24.124 C 42.049 23.908,41.946 23.514,41.822 23.248 C 41.495 22.550,29.894 1.277,29.606 0.849 C 29.319 0.422,28.533 -0.002,28.039 0.004 C 27.850 0.007,27.524 0.069,27.315 0.144 M42.582 32.191 C 40.541 32.408,38.443 33.106,36.782 34.121 C 33.267 36.269,30.847 39.855,30.200 43.874 C 30.028 44.941,30.009 47.110,30.162 48.140 C 30.603 51.115,31.978 53.835,34.120 55.971 C 36.812 58.656,40.185 60.053,43.983 60.057 C 47.843 60.060,51.119 58.705,53.850 55.976 C 55.922 53.906,57.103 51.719,57.720 48.817 C 58.007 47.464,58.029 44.971,57.766 43.597 C 56.589 37.447,51.634 32.861,45.454 32.200 C 44.366 32.083,43.619 32.081,42.582 32.191 M0.494 34.258 C -0.015 34.540,0.007 34.016,0.003 46.144 L -0.000 57.439 0.329 57.768 L 0.657 58.097 11.933 58.097 C 24.070 58.097,23.608 58.115,23.874 57.619 C 23.940 57.494,23.973 53.675,23.973 46.058 L 23.973 34.684 23.673 34.404 L 23.373 34.123 12.049 34.127 C 2.835 34.130,0.682 34.154,0.494 34.258 " fill="#2B2C30" stroke="none" fill-rule="evenodd"></path></svg>