<svg width="48" height="56" viewBox="0 0 48 56" fill="none" xmlns="http://www.w3.org/2000/svg"><path d="M23.337 0.082 C 22.791 0.220,22.538 0.409,21.449 1.498 C 19.284 3.662,16.770 5.561,14.240 6.943 C 13.910 7.123,13.064 7.466,12.360 7.705 C 9.647 8.624,6.892 9.190,3.743 9.473 C 2.640 9.573,2.436 9.614,2.075 9.811 C 1.501 10.123,1.072 10.637,0.888 11.232 C 0.582 12.223,0.240 14.861,0.072 17.520 C -0.032 19.160,0.019 23.412,0.158 24.800 C 1.015 33.342,3.466 39.863,7.903 45.409 C 9.276 47.125,11.675 49.434,13.560 50.852 C 15.771 52.515,18.786 54.213,21.535 55.344 C 23.675 56.223,24.350 56.226,26.396 55.364 C 38.319 50.340,45.564 40.706,47.515 27.280 C 47.875 24.799,47.954 23.534,47.955 20.240 C 47.956 16.942,47.878 15.690,47.514 13.207 C 47.228 11.248,47.061 10.755,46.507 10.228 C 45.957 9.706,45.631 9.597,44.249 9.473 C 40.057 9.095,35.594 7.977,33.410 6.756 C 30.970 5.393,27.880 2.980,26.121 1.064 C 25.464 0.348,24.971 0.086,24.192 0.039 C 23.888 0.021,23.504 0.040,23.337 0.082 " fill="#2B2C30" stroke="none" fill-rule="evenodd"></path></svg>