<svg width="48" height="56" viewBox="0 0 48 56" fill="none" xmlns="http://www.w3.org/2000/svg"><path d="M23.337 0.082 C 22.791 0.220,22.538 0.409,21.449 1.498 C 19.284 3.662,16.770 5.561,14.240 6.943 C 13.910 7.123,13.064 7.466,12.360 7.705 C 9.647 8.624,6.892 9.190,3.743 9.473 C 2.640 9.573,2.436 9.614,2.075 9.811 C 1.501 10.123,1.072 10.637,0.888 11.232 C 0.582 12.223,0.240 14.861,0.072 17.520 C -0.032 19.160,0.019 23.412,0.158 24.800 C 1.015 33.342,3.466 39.863,7.903 45.409 C 9.276 47.125,11.675 49.434,13.560 50.852 C 15.771 52.515,18.786 54.213,21.535 55.344 C 23.675 56.223,24.350 56.226,26.396 55.364 C 38.319 50.340,45.564 40.705,47.515 27.280 C 47.869 24.842,47.953 23.521,47.957 20.360 C 47.961 16.823,47.815 14.866,47.354 12.243 C 47.165 11.171,46.984 10.716,46.576 10.293 C 46.038 9.735,45.651 9.599,44.248 9.473 C 40.057 9.095,35.594 7.977,33.410 6.756 C 30.970 5.393,27.880 2.980,26.121 1.064 C 25.464 0.348,24.971 0.086,24.192 0.039 C 23.888 0.021,23.504 0.040,23.337 0.082 M16.318 17.599 C 16.383 17.600,18.129 19.292,20.199 21.360 L 23.961 25.119 27.681 21.398 C 31.741 17.335,31.680 17.385,32.297 17.641 C 32.615 17.773,33.694 18.779,34.089 19.312 C 34.357 19.674,34.399 20.164,34.189 20.482 C 34.117 20.591,32.425 22.318,30.429 24.320 L 26.800 27.961 30.445 31.600 C 32.450 33.602,34.142 35.337,34.205 35.456 C 34.268 35.575,34.320 35.824,34.320 36.009 C 34.320 36.331,34.280 36.385,33.382 37.295 C 32.784 37.901,32.358 38.267,32.206 38.306 C 31.624 38.457,31.700 38.521,27.720 34.553 L 23.960 30.803 20.240 34.514 C 16.330 38.415,16.293 38.446,15.710 38.340 C 15.553 38.311,15.186 38.004,14.551 37.369 C 13.557 36.375,13.419 36.123,13.602 35.630 C 13.650 35.501,15.313 33.772,17.404 31.680 L 21.120 27.959 17.399 24.240 C 14.512 21.354,13.660 20.458,13.600 20.243 C 13.459 19.734,13.603 19.473,14.542 18.537 C 15.384 17.699,15.702 17.492,16.040 17.564 C 16.128 17.583,16.253 17.598,16.318 17.599 " fill="#2B2C30" stroke="none" fill-rule="evenodd"></path></svg>