<svg width="56" height="48" viewBox="0 0 56 48" fill="none" xmlns="http://www.w3.org/2000/svg"><path d="M0.596 0.091 C 0.069 0.305,-0.158 1.037,0.160 1.496 C 0.389 1.828,8.916 11.281,9.312 11.643 C 9.640 11.943,10.031 12.031,10.399 11.890 C 10.565 11.826,19.677 1.776,19.853 1.462 C 20.054 1.104,19.997 0.682,19.701 0.351 L 19.429 0.047 10.111 0.029 C 4.986 0.019,0.705 0.047,0.596 0.091 M20.325 8.299 L 20.020 8.571 20.020 11.993 L 20.020 15.415 20.325 15.688 L 20.630 15.960 37.937 15.960 C 50.183 15.960,55.310 15.930,55.467 15.859 C 55.986 15.622,56.000 15.518,56.000 11.946 L 56.000 8.661 55.683 8.344 L 55.365 8.027 37.997 8.027 L 20.630 8.027 20.325 8.299 M20.468 24.169 C 19.994 24.458,19.961 24.743,19.992 28.214 C 20.022 31.497,20.027 31.537,20.477 31.836 C 20.641 31.945,22.149 31.971,29.633 31.994 C 34.561 32.010,38.779 31.996,39.005 31.963 C 39.280 31.924,39.505 31.816,39.682 31.639 L 39.947 31.374 39.945 27.984 C 39.942 24.302,39.951 24.364,39.416 24.091 C 39.270 24.016,36.599 23.987,29.989 23.987 C 21.009 23.987,20.759 23.992,20.468 24.169 M20.751 40.012 C 20.458 40.069,20.099 40.462,20.031 40.800 C 19.931 41.302,19.967 46.872,20.073 47.255 C 20.139 47.493,20.269 47.670,20.469 47.792 C 20.761 47.970,21.042 47.973,36.104 47.950 L 51.442 47.927 51.714 47.622 L 51.987 47.317 51.986 44.029 C 51.986 40.936,51.975 40.722,51.805 40.442 C 51.683 40.242,51.507 40.112,51.268 40.046 C 50.925 39.951,21.234 39.917,20.751 40.012 " fill="#2B2C30" stroke="none" fill-rule="evenodd"></path></svg>