<svg width="40" height="40" viewBox="0 0 40 40" fill="none" xmlns="http://www.w3.org/2000/svg"><path d="M0.605 0.117 C 0.169 0.339,-0.052 0.847,0.098 1.283 C 0.142 1.411,2.705 5.661,5.793 10.727 L 11.408 19.938 5.728 29.285 C -0.515 39.558,-0.178 38.941,0.147 39.493 C 0.231 39.636,0.405 39.809,0.533 39.877 C 0.759 39.997,1.354 40.000,19.711 39.984 L 38.657 39.967 38.841 39.829 C 38.942 39.754,39.087 39.609,39.163 39.508 C 39.299 39.325,39.300 39.274,39.300 33.900 C 39.300 28.526,39.299 28.475,39.163 28.292 C 39.087 28.191,38.942 28.046,38.841 27.971 C 38.661 27.836,38.587 27.833,35.245 27.833 L 31.833 27.833 31.616 27.989 C 31.188 28.293,31.169 28.386,31.146 30.239 L 31.125 31.912 27.118 31.956 C 22.234 32.010,11.400 32.014,11.400 31.962 C 11.400 31.942,12.950 29.624,14.844 26.812 C 16.738 24.001,18.555 21.303,18.882 20.818 L 19.475 19.936 15.438 14.004 C 13.217 10.741,11.400 8.055,11.400 8.036 C 11.400 8.016,15.838 8.000,21.262 8.000 L 31.125 8.000 31.146 9.662 C 31.169 11.490,31.168 11.488,31.626 11.829 C 31.806 11.964,31.880 11.967,35.233 11.967 C 38.587 11.967,38.661 11.964,38.841 11.829 C 38.942 11.754,39.087 11.609,39.163 11.508 C 39.299 11.325,39.300 11.273,39.300 6.000 C 39.300 0.727,39.299 0.675,39.163 0.492 C 39.087 0.391,38.942 0.246,38.841 0.171 L 38.657 0.033 19.745 0.017 C 1.841 0.001,0.821 0.006,0.605 0.117 " fill="#2B2C30" stroke="none" fill-rule="evenodd"></path></svg>