<svg width="46" height="33" viewBox="0 0 46 33" fill="none" xmlns="http://www.w3.org/2000/svg"><path d="M21.428 0.046 C 17.502 0.347,14.550 1.078,11.308 2.551 C 9.016 3.593,6.926 4.920,4.907 6.613 C 2.769 8.406,-0.000 11.565,-0.000 12.211 C -0.000 12.757,0.101 12.844,2.957 14.747 C 5.354 16.345,5.712 16.560,5.978 16.560 C 6.448 16.560,6.642 16.426,7.191 15.721 C 7.920 14.786,9.409 13.276,10.350 12.519 C 14.025 9.559,18.297 8.050,23.000 8.050 C 27.703 8.050,31.975 9.559,35.650 12.519 C 36.591 13.276,38.080 14.786,38.809 15.721 C 39.358 16.426,39.552 16.560,40.022 16.560 C 40.288 16.560,40.646 16.345,43.043 14.747 C 45.899 12.844,46.000 12.757,46.000 12.211 C 46.000 11.743,44.669 10.079,42.824 8.240 C 41.045 6.467,39.510 5.250,37.567 4.074 C 34.079 1.963,30.312 0.678,26.182 0.190 C 25.220 0.076,22.216 -0.015,21.428 0.046 M21.658 12.084 C 20.830 12.170,19.656 12.379,18.881 12.579 C 15.767 13.379,12.719 15.324,10.662 17.825 C 10.128 18.474,10.043 18.626,10.043 18.935 C 10.043 19.449,10.173 19.559,12.978 21.430 C 16.346 23.675,16.093 23.620,17.365 22.390 C 18.462 21.328,19.422 20.761,20.793 20.364 C 22.255 19.940,23.745 19.940,25.207 20.364 C 26.578 20.761,27.538 21.328,28.635 22.390 C 29.433 23.161,29.543 23.230,29.991 23.230 C 30.295 23.230,30.541 23.084,33.022 21.430 C 35.827 19.559,35.957 19.449,35.957 18.935 C 35.957 18.626,35.872 18.474,35.338 17.825 C 34.007 16.206,32.123 14.710,30.217 13.757 C 27.968 12.632,25.893 12.125,23.345 12.077 C 22.586 12.063,21.827 12.066,21.658 12.084 M22.100 24.189 C 20.366 24.566,19.013 26.250,19.013 28.034 C 19.013 29.165,19.386 30.057,20.195 30.864 C 21.442 32.109,23.151 32.401,24.763 31.643 C 25.393 31.347,26.261 30.501,26.549 29.900 C 27.329 28.277,27.036 26.490,25.786 25.248 C 24.810 24.277,23.468 23.892,22.100 24.189 " fill="#2B2C30" stroke="none" fill-rule="evenodd"></path></svg>