<svg width="48" height="44" viewBox="0 0 48 44" fill="none" xmlns="http://www.w3.org/2000/svg"><path d="M0.504 0.157 C -0.045 0.491,-0.000 -1.440,0.000 22.016 C 0.001 42.925,0.003 43.244,0.157 43.496 C 0.488 44.039,-0.590 44.000,14.000 44.000 C 28.590 44.000,27.512 44.039,27.843 43.496 C 27.995 43.247,27.999 43.037,28.000 35.620 L 28.000 28.000 22.396 28.000 C 16.211 28.000,16.477 28.021,16.157 27.496 C 16.006 27.249,16.001 27.056,16.000 22.016 C 16.000 16.251,15.981 16.476,16.504 16.157 C 16.751 16.006,16.947 16.001,22.380 16.000 L 28.000 16.000 28.000 8.396 C 28.000 0.002,28.029 0.482,27.496 0.157 C 27.245 0.004,26.991 0.001,14.000 0.001 C 1.009 0.001,0.755 0.004,0.504 0.157 M36.593 12.078 C 36.502 12.115,36.331 12.259,36.213 12.399 L 36.000 12.652 36.000 16.326 L 36.000 20.000 28.396 20.000 C 20.002 20.000,20.482 19.971,20.157 20.504 C 20.020 20.729,20.001 20.911,20.001 22.000 C 20.001 23.089,20.020 23.271,20.157 23.496 C 20.482 24.029,20.002 24.000,28.394 24.000 L 35.995 24.000 36.018 27.719 L 36.040 31.437 36.284 31.681 C 36.581 31.978,37.008 32.067,37.341 31.901 C 37.559 31.793,47.312 23.089,47.760 22.604 C 47.916 22.435,47.960 22.302,47.960 22.000 C 47.960 21.698,47.916 21.565,47.760 21.396 C 47.355 20.956,37.583 12.221,37.375 12.113 C 37.136 11.989,36.846 11.975,36.593 12.078 " fill="#2B2C30" stroke="none" fill-rule="evenodd"></path></svg>