<svg width="56" height="39" viewBox="0 0 56 39" fill="none" xmlns="http://www.w3.org/2000/svg"><path d="M47.171 0.269 C 46.970 0.417,45.876 1.477,44.739 2.625 C 42.180 5.209,42.184 5.199,43.213 6.393 C 45.473 9.013,47.018 12.292,47.717 15.949 C 47.896 16.889,47.924 17.344,47.924 19.367 C 47.924 21.850,47.856 22.456,47.366 24.372 C 46.647 27.181,45.215 29.973,43.362 32.179 C 42.522 33.179,42.398 33.550,42.729 34.084 C 42.834 34.254,43.905 35.370,45.109 36.563 L 47.297 38.733 47.716 38.733 C 48.241 38.733,48.412 38.602,49.355 37.473 C 52.909 33.214,54.998 28.464,55.778 22.867 C 56.003 21.249,56.005 17.584,55.781 15.960 C 55.312 12.557,54.517 9.911,53.104 7.047 C 52.000 4.810,50.645 2.754,49.113 0.992 C 48.174 -0.087,47.827 -0.216,47.171 0.269 M7.296 0.537 C 5.862 2.060,4.099 4.621,3.038 6.720 C 1.566 9.634,0.734 12.319,0.218 15.820 C -0.034 17.529,-0.015 21.532,0.253 23.241 C 0.673 25.915,1.342 28.279,2.326 30.567 C 3.468 33.222,5.438 36.253,7.280 38.188 C 7.822 38.758,7.824 38.759,8.264 38.710 C 8.696 38.661,8.751 38.615,10.939 36.433 C 12.167 35.209,13.237 34.085,13.316 33.936 C 13.551 33.493,13.422 33.110,12.783 32.350 C 9.518 28.468,7.899 23.817,8.055 18.760 C 8.201 13.984,9.815 9.889,13.056 6.067 C 13.398 5.664,13.477 5.305,13.309 4.918 C 13.238 4.754,12.155 3.602,10.902 2.357 L 8.625 0.093 8.169 0.093 C 7.746 0.093,7.683 0.125,7.296 0.537 M16.375 8.600 C 16.186 8.650,15.928 8.875,15.616 9.261 C 13.954 11.317,12.836 13.705,12.303 16.340 C 12.114 17.270,12.087 17.670,12.092 19.460 C 12.098 21.759,12.221 22.579,12.842 24.453 C 13.456 26.306,14.749 28.592,15.842 29.756 C 16.339 30.285,16.657 30.370,17.155 30.106 C 17.547 29.898,21.725 25.653,21.839 25.347 C 21.980 24.970,21.875 24.589,21.467 23.987 C 20.946 23.218,20.564 22.410,20.288 21.494 C 19.951 20.377,19.930 18.549,20.240 17.407 C 20.482 16.516,20.938 15.525,21.459 14.757 C 21.773 14.296,21.840 14.119,21.840 13.752 L 21.840 13.308 19.530 10.993 C 17.137 8.596,16.943 8.449,16.375 8.600 M38.677 8.762 C 38.477 8.910,37.383 9.970,36.245 11.119 C 33.702 13.686,33.741 13.594,34.649 14.942 C 35.568 16.306,35.974 17.699,35.964 19.460 C 35.959 20.490,35.921 20.797,35.711 21.494 C 35.433 22.421,35.054 23.218,34.510 24.020 C 34.050 24.698,33.969 25.161,34.235 25.590 C 34.341 25.761,35.412 26.877,36.615 28.070 L 38.804 30.240 39.254 30.240 C 39.675 30.240,39.733 30.209,40.158 29.756 C 41.251 28.592,42.544 26.306,43.158 24.453 C 43.779 22.579,43.902 21.759,43.908 19.460 C 43.913 17.670,43.886 17.270,43.697 16.340 C 43.168 13.725,42.042 11.318,40.395 9.275 C 39.705 8.420,39.303 8.300,38.677 8.762 M27.031 15.498 C 26.411 15.653,25.599 16.148,25.104 16.671 C 23.262 18.619,23.861 21.787,26.296 22.978 C 26.898 23.273,26.975 23.287,28.000 23.287 C 29.025 23.287,29.102 23.273,29.704 22.978 C 30.871 22.408,31.704 21.289,31.933 19.985 C 32.230 18.291,31.267 16.524,29.627 15.757 C 29.119 15.519,28.872 15.464,28.203 15.438 C 27.758 15.421,27.230 15.448,27.031 15.498 " fill="#2B2C30" stroke="none" fill-rule="evenodd"></path></svg>