<svg width="48" height="45" viewBox="0 0 48 45" fill="none" xmlns="http://www.w3.org/2000/svg"><path d="M20.504 0.157 C 19.989 0.471,20.000 0.366,20.000 4.905 L 20.000 9.018 26.882 15.197 C 30.667 18.595,33.817 21.478,33.882 21.604 C 34.021 21.872,34.030 22.051,33.919 22.368 C 33.864 22.527,31.653 24.559,26.923 28.800 L 20.007 35.000 20.004 39.108 C 20.000 43.611,19.997 43.582,20.474 43.864 C 20.689 43.991,21.612 44.000,34.000 44.000 C 46.388 44.000,47.311 43.991,47.526 43.864 C 48.038 43.561,48.000 45.310,48.000 22.004 C 48.000 -1.438,48.045 0.491,47.496 0.157 C 47.245 0.004,46.991 0.001,34.000 0.001 C 21.009 0.001,20.755 0.004,20.504 0.157 M16.509 12.153 C 15.978 12.477,16.000 12.299,16.000 16.338 L 16.000 20.000 8.460 20.005 C 2.837 20.008,0.850 20.033,0.643 20.105 C 0.482 20.160,0.287 20.317,0.178 20.479 C -0.004 20.749,-0.009 20.804,0.015 22.106 L 0.040 23.453 0.339 23.726 L 0.638 24.000 8.319 24.000 L 16.000 24.000 16.000 27.644 C 16.000 31.642,15.999 31.631,16.477 31.879 C 16.606 31.945,16.858 32.000,17.037 32.000 C 17.344 32.000,17.442 31.928,18.781 30.731 C 25.713 24.534,27.740 22.689,27.864 22.463 C 28.025 22.170,28.007 21.681,27.827 21.464 C 27.603 21.191,17.678 12.316,17.425 12.162 C 17.093 11.960,16.831 11.957,16.509 12.153 " fill="#2B2C30" stroke="none" fill-rule="evenodd"></path></svg>