<svg width="52" height="40" viewBox="0 0 52 40" fill="none" xmlns="http://www.w3.org/2000/svg"><path d="M0.379 0.200 C 0.277 0.305,0.150 0.475,0.097 0.579 C 0.026 0.717,0.000 5.985,0.000 20.019 C 0.000 40.808,-0.026 39.621,0.429 39.864 C 0.535 39.921,1.840 39.953,4.031 39.953 L 7.467 39.953 7.720 39.700 L 7.973 39.447 7.973 31.734 L 7.973 24.021 10.855 23.983 C 13.968 23.942,14.253 23.908,15.792 23.397 C 17.515 22.824,18.979 21.926,20.321 20.621 C 21.746 19.234,22.711 17.726,23.338 15.903 C 23.832 14.466,23.959 13.672,23.960 12.003 C 23.961 10.369,23.805 9.423,23.297 7.984 C 21.980 4.250,18.814 1.369,14.950 0.389 C 13.533 0.029,12.899 0.000,6.587 0.005 L 0.563 0.010 0.379 0.200 M36.227 0.098 C 33.342 0.527,30.610 2.724,29.210 5.743 C 27.927 8.507,27.710 12.004,28.644 14.863 C 29.130 16.348,30.205 18.232,31.000 18.992 C 31.184 19.167,34.112 20.908,37.613 22.924 C 41.069 24.914,44.016 26.631,44.162 26.739 C 44.308 26.848,44.549 27.166,44.699 27.446 C 45.544 29.033,44.994 31.059,43.522 31.782 L 43.030 32.023 39.953 32.023 C 36.472 32.023,36.559 32.038,35.796 31.324 C 35.274 30.835,34.939 30.112,34.868 29.319 C 34.810 28.670,34.666 28.305,34.411 28.169 C 34.307 28.113,33.182 28.080,31.391 28.080 L 28.537 28.080 28.311 28.306 C 28.001 28.616,27.956 28.962,28.069 30.144 C 28.461 34.243,30.550 37.545,33.757 39.132 C 35.368 39.930,35.538 39.952,40.004 39.953 C 43.514 39.953,43.880 39.940,44.488 39.784 C 46.085 39.375,47.325 38.654,48.586 37.401 C 50.202 35.793,51.183 33.955,51.708 31.547 C 51.939 30.490,51.939 27.575,51.708 26.520 C 51.319 24.740,50.532 22.972,49.592 21.761 C 49.112 21.144,49.040 21.091,47.277 20.066 C 38.010 14.676,35.979 13.479,35.779 13.288 C 35.412 12.939,35.021 12.121,34.941 11.537 C 34.747 10.118,35.360 8.804,36.471 8.258 L 36.963 8.017 40.040 8.017 C 43.506 8.017,43.426 8.004,44.164 8.682 C 44.656 9.133,45.037 9.891,45.111 10.564 C 45.198 11.358,45.241 11.502,45.458 11.736 L 45.665 11.960 48.532 11.960 C 51.683 11.960,51.699 11.957,51.917 11.432 C 52.147 10.875,51.844 8.523,51.351 7.049 C 50.403 4.213,48.628 2.081,46.237 0.906 C 44.579 0.091,44.377 0.062,40.300 0.037 C 38.360 0.024,36.538 0.052,36.227 0.098 M13.699 8.416 C 14.551 8.823,15.141 9.411,15.571 10.283 C 15.874 10.895,15.903 11.017,15.932 11.822 C 15.969 12.834,15.795 13.501,15.296 14.252 C 14.922 14.815,14.636 15.083,14.010 15.459 C 13.193 15.950,12.629 16.033,10.145 16.033 L 7.973 16.033 7.973 12.042 L 7.973 8.050 10.508 8.077 L 13.043 8.103 13.699 8.416 " fill="#2B2C30" stroke="none" fill-rule="evenodd"></path></svg>