<svg width="56" height="56" viewBox="0 0 56 56" fill="none" xmlns="http://www.w3.org/2000/svg"><path d="M0.607 0.088 C 0.504 0.130,0.336 0.258,0.233 0.372 C 0.048 0.579,0.047 0.711,0.047 28.008 L 0.047 55.436 0.305 55.695 L 0.564 55.953 2.007 55.953 L 3.449 55.953 3.708 55.695 L 3.967 55.436 3.990 28.145 C 4.006 10.488,3.982 0.770,3.923 0.614 C 3.736 0.123,3.349 0.000,2.007 0.006 C 1.339 0.009,0.709 0.046,0.607 0.088 M52.811 0.121 C 52.368 0.322,12.949 26.079,12.691 26.337 C 12.316 26.711,12.102 27.233,12.058 27.874 C 12.011 28.580,12.135 28.980,12.558 29.473 C 12.789 29.743,18.671 33.629,32.739 42.805 C 43.659 49.928,52.740 55.809,52.920 55.874 C 53.694 56.153,54.602 55.913,55.259 55.256 C 56.075 54.441,56.004 57.122,55.977 27.811 L 55.953 1.820 55.747 1.435 C 55.180 0.375,53.707 -0.284,52.811 0.121 " fill="#2B2C30" stroke="none" fill-rule="evenodd"></path></svg>