<svg width="56" height="56" viewBox="0 0 56 56" fill="none" xmlns="http://www.w3.org/2000/svg"><path d="M1.747 0.143 C 1.267 0.319,0.717 0.727,0.467 1.092 C -0.019 1.801,0.008 0.206,0.004 27.960 C -0.001 57.114,-0.073 54.443,0.742 55.258 C 1.398 55.913,2.307 56.153,3.080 55.874 C 3.260 55.809,12.342 49.928,23.262 42.804 C 37.316 33.637,43.212 29.742,43.442 29.473 C 43.865 28.980,43.989 28.580,43.942 27.874 C 43.898 27.233,43.684 26.711,43.309 26.337 C 43.051 26.079,3.632 0.322,3.188 0.121 C 2.859 -0.028,2.185 -0.018,1.747 0.143 M52.474 0.183 C 52.306 0.288,52.128 0.482,52.077 0.614 C 52.018 0.770,51.994 10.488,52.010 28.145 L 52.033 55.436 52.292 55.695 L 52.551 55.953 53.993 55.953 L 55.436 55.953 55.695 55.695 L 55.953 55.436 55.953 28.000 L 55.953 0.564 55.695 0.305 C 55.440 0.050,55.420 0.046,54.108 0.020 C 52.907 -0.004,52.751 0.011,52.474 0.183 " fill="#2B2C30" stroke="none" fill-rule="evenodd"></path></svg>