<svg width="56" height="56" viewBox="0 0 56 56" fill="none" xmlns="http://www.w3.org/2000/svg"><path d="M20.476 0.176 C 20.315 0.275,20.137 0.492,20.079 0.658 C 19.921 1.111,19.933 15.083,20.091 15.391 C 20.155 15.514,20.325 15.703,20.470 15.811 C 20.726 16.001,20.830 16.007,23.979 16.007 C 27.514 16.007,27.601 15.995,27.868 15.478 C 27.967 15.287,28.000 14.821,28.000 13.631 L 28.000 12.040 41.536 12.040 C 53.024 12.040,55.121 12.020,55.390 11.907 C 55.988 11.657,56.000 11.582,56.000 7.929 L 56.000 4.648 55.683 4.331 L 55.365 4.013 41.688 4.013 L 28.012 4.013 27.982 2.289 L 27.953 0.564 27.695 0.305 L 27.436 0.047 24.101 0.022 C 20.950 -0.002,20.751 0.007,20.476 0.176 M0.351 4.286 L 0.047 4.558 0.019 7.809 C 0.004 9.597,0.017 11.158,0.047 11.278 C 0.076 11.398,0.210 11.597,0.344 11.721 L 0.587 11.947 8.274 11.947 L 15.960 11.947 15.960 7.980 L 15.960 4.013 8.308 4.013 L 0.656 4.013 0.351 4.286 M40.635 20.107 C 40.003 20.383,40.040 19.891,40.040 28.000 C 40.040 36.135,40.000 35.622,40.656 35.897 C 41.109 36.086,46.904 36.086,47.357 35.897 C 47.936 35.655,47.973 35.519,47.973 33.673 L 47.973 32.013 51.571 32.013 C 55.519 32.013,55.574 32.006,55.858 31.456 C 56.069 31.049,56.069 24.951,55.858 24.544 C 55.574 23.994,55.519 23.987,51.571 23.987 L 47.973 23.987 47.973 22.327 C 47.973 20.481,47.936 20.345,47.357 20.103 C 46.911 19.917,41.065 19.921,40.635 20.107 M0.538 24.133 C 0.015 24.416,-0.000 24.526,-0.000 28.000 C -0.000 31.494,0.014 31.591,0.557 31.872 C 0.800 31.998,2.836 32.011,18.406 31.990 L 35.980 31.967 35.980 28.000 L 35.980 24.033 18.387 24.014 C 2.969 23.996,0.762 24.011,0.538 24.133 M12.313 40.313 L 12.040 40.586 12.040 47.915 C 12.040 53.117,12.070 55.311,12.144 55.473 C 12.202 55.599,12.380 55.772,12.541 55.857 C 12.800 55.994,13.205 56.008,16.131 55.982 L 19.429 55.953 19.701 55.649 L 19.973 55.344 19.973 53.665 L 19.973 51.987 37.659 51.987 L 55.344 51.987 55.649 51.714 L 55.953 51.442 55.980 48.149 C 55.999 45.842,55.975 44.779,55.901 44.599 C 55.657 44.012,57.079 44.056,37.687 44.030 L 20.020 44.007 19.972 42.327 C 19.946 41.403,19.890 40.576,19.848 40.489 C 19.635 40.052,19.531 40.040,15.956 40.040 L 12.586 40.040 12.313 40.313 M0.344 44.279 C 0.210 44.403,0.076 44.602,0.047 44.722 C 0.017 44.842,0.004 46.403,0.019 48.191 L 0.047 51.442 0.351 51.714 L 0.656 51.987 4.341 51.987 L 8.027 51.987 8.027 48.020 L 8.027 44.053 4.307 44.053 L 0.587 44.053 0.344 44.279 " fill="#2B2C30" stroke="none" fill-rule="evenodd"></path></svg>