<svg width="57" height="53" viewBox="0 0 57 53" fill="none" xmlns="http://www.w3.org/2000/svg"><path d="M40.924 0.148 C 40.781 0.225,40.614 0.383,40.552 0.499 C 40.437 0.714,32.585 24.214,32.585 24.343 C 32.585 24.383,34.289 24.415,36.371 24.415 C 40.923 24.415,40.618 24.497,41.065 23.155 L 41.342 22.323 44.730 22.348 L 48.117 22.372 48.383 23.133 C 48.528 23.550,48.754 23.999,48.883 24.130 L 49.119 24.367 53.023 24.394 C 56.168 24.416,56.919 24.397,56.883 24.299 C 56.858 24.232,55.053 18.820,52.871 12.271 C 49.034 0.754,48.894 0.358,48.606 0.183 C 48.326 0.012,48.091 0.001,44.745 0.004 C 41.786 0.007,41.139 0.031,40.924 0.148 M8.787 0.226 C 8.631 0.296,8.417 0.450,8.313 0.567 C 8.124 0.778,8.122 0.932,8.098 20.716 L 8.073 40.652 4.376 40.680 C 0.813 40.706,0.669 40.715,0.417 40.903 C 0.272 41.011,0.115 41.216,0.068 41.360 C -0.155 42.028,-0.285 41.890,5.763 47.410 C 8.879 50.255,11.572 52.662,11.748 52.759 C 11.968 52.880,12.165 52.917,12.376 52.877 C 12.612 52.832,13.989 51.618,18.383 47.585 C 21.586 44.643,24.161 42.207,24.261 42.023 C 24.485 41.611,24.389 41.195,24.004 40.907 C 23.744 40.713,23.627 40.707,19.991 40.681 L 16.245 40.654 16.245 20.808 C 16.245 8.426,16.211 0.873,16.154 0.724 C 16.104 0.592,15.946 0.408,15.802 0.314 C 15.566 0.158,15.240 0.140,12.307 0.120 C 9.757 0.102,9.012 0.125,8.787 0.226 M45.080 13.205 C 45.224 13.649,45.363 14.066,45.387 14.131 C 45.419 14.219,45.255 14.250,44.755 14.250 C 44.384 14.250,44.080 14.220,44.080 14.184 C 44.080 13.979,44.700 12.268,44.753 12.327 C 44.788 12.366,44.935 12.761,45.080 13.205 M32.975 28.633 C 32.507 28.892,32.497 28.978,32.493 32.618 L 32.490 36.024 32.813 36.347 L 33.136 36.670 38.276 36.670 L 43.416 36.670 38.089 44.660 C 35.159 49.054,32.739 52.709,32.711 52.782 C 32.634 52.981,55.802 52.981,56.278 52.783 C 56.915 52.517,56.905 52.577,56.905 48.810 L 56.905 45.413 56.628 45.103 L 56.351 44.793 51.260 44.766 C 48.461 44.752,46.170 44.717,46.170 44.689 C 46.170 44.662,48.585 41.032,51.538 36.624 C 54.490 32.215,56.905 28.584,56.905 28.554 C 56.905 28.524,51.572 28.502,45.054 28.503 C 35.399 28.506,33.160 28.530,32.975 28.633 " fill="#2B2C30" stroke="none" fill-rule="evenodd"></path></svg>