<svg width="24" height="40" viewBox="0 0 24 40" fill="none" xmlns="http://www.w3.org/2000/svg"><path d="M20.337 0.041 C 20.042 0.100,19.533 0.320,19.180 0.541 C 18.216 1.146,17.766 1.593,14.477 5.208 L 11.941 7.997 7.620 8.010 C 3.414 8.024,3.291 8.026,2.940 8.107 C 2.173 8.284,1.601 8.572,1.126 9.020 C 0.652 9.468,0.380 9.923,0.186 10.600 C -0.007 11.273,-0.005 11.172,0.009 20.200 L 0.022 28.700 0.128 29.125 C 0.261 29.662,0.437 30.084,0.678 30.452 C 1.099 31.092,1.737 31.563,2.500 31.798 C 3.140 31.995,3.249 31.999,7.740 32.000 L 11.940 32.001 14.020 34.327 C 15.164 35.606,16.375 36.960,16.711 37.336 C 18.025 38.808,19.177 39.667,20.176 39.920 C 20.736 40.062,21.523 40.013,22.172 39.797 C 23.152 39.471,23.667 38.765,23.910 37.409 C 23.976 37.043,23.980 36.033,23.980 20.000 C 23.980 3.839,23.976 2.960,23.909 2.582 C 23.822 2.098,23.639 1.539,23.470 1.241 C 23.401 1.119,23.227 0.901,23.082 0.756 C 22.673 0.345,22.166 0.132,21.380 0.042 C 20.967 -0.005,20.573 -0.006,20.337 0.041 " fill="#2B2C30" stroke="none" fill-rule="evenodd"></path></svg>