<svg width="44" height="40" viewBox="0 0 44 40" fill="none" xmlns="http://www.w3.org/2000/svg"><path d="M20.130 0.103 C 19.364 0.346,18.514 0.924,17.616 1.813 C 17.298 2.127,15.891 3.646,14.487 5.188 L 11.936 7.993 7.771 7.993 C 3.120 7.993,2.856 8.015,1.938 8.467 C 0.978 8.939,0.346 9.782,0.107 10.909 C -0.052 11.661,-0.051 28.101,0.109 28.942 C 0.330 30.108,1.018 31.084,1.937 31.535 C 2.793 31.955,2.994 31.971,7.673 31.972 L 11.936 31.973 14.657 35.010 C 17.520 38.204,17.970 38.660,18.824 39.233 C 19.824 39.903,20.776 40.105,21.800 39.864 C 22.712 39.651,23.226 39.252,23.575 38.489 C 23.999 37.559,23.980 38.448,23.980 19.983 C 23.980 1.580,23.997 2.402,23.587 1.506 C 23.347 0.982,22.968 0.580,22.492 0.347 C 21.833 0.024,20.735 -0.089,20.130 0.103 M29.810 12.229 C 29.260 12.635,28.108 13.891,28.052 14.146 C 27.920 14.745,27.915 14.739,30.622 17.455 L 33.145 19.986 30.791 22.331 C 29.497 23.621,28.342 24.823,28.225 25.003 C 27.836 25.601,27.927 25.871,28.837 26.816 C 29.766 27.780,29.996 27.940,30.454 27.940 C 30.815 27.940,30.828 27.932,31.525 27.264 C 31.913 26.892,33.080 25.745,34.118 24.716 L 36.007 22.844 38.408 25.234 C 39.729 26.549,40.905 27.695,41.022 27.782 C 41.168 27.891,41.339 27.940,41.579 27.940 C 42.017 27.940,42.256 27.771,43.207 26.786 C 43.744 26.230,43.928 25.989,43.965 25.792 C 44.074 25.211,44.066 25.201,41.389 22.512 L 38.869 19.980 41.223 17.635 C 43.565 15.301,44.000 14.803,44.000 14.455 C 44.000 14.086,43.692 13.645,42.900 12.880 C 42.288 12.289,42.040 12.097,41.841 12.059 C 41.261 11.950,41.259 11.951,38.537 14.627 L 35.970 17.150 33.428 14.613 L 30.886 12.076 30.494 12.045 C 30.150 12.017,30.068 12.039,29.810 12.229 " fill="#2B2C30" stroke="none" fill-rule="evenodd"></path></svg>