<svg width="48" height="40" viewBox="0 0 48 40" fill="none" xmlns="http://www.w3.org/2000/svg"><path d="M3.161 0.094 C 1.719 0.369,0.399 1.697,0.088 3.184 C 0.030 3.462,-0.000 5.050,-0.000 7.804 L 0.000 12.000 24.000 12.000 L 48.000 12.000 48.000 7.804 C 48.000 5.050,47.970 3.462,47.912 3.184 C 47.594 1.659,46.277 0.363,44.765 0.087 C 44.149 -0.026,3.752 -0.019,3.161 0.094 M28.000 6.000 L 28.000 8.000 26.000 8.000 L 24.000 8.000 24.000 6.000 L 24.000 4.000 26.000 4.000 L 28.000 4.000 28.000 6.000 M36.000 6.000 L 36.000 8.000 34.000 8.000 L 32.000 8.000 32.000 6.000 L 32.000 4.000 34.000 4.000 L 36.000 4.000 36.000 6.000 M44.000 6.000 L 44.000 8.000 42.000 8.000 L 40.000 8.000 40.000 6.000 L 40.000 4.000 42.000 4.000 L 44.000 4.000 44.000 6.000 M0.018 26.420 L 0.040 36.840 0.216 37.300 C 0.662 38.469,1.532 39.337,2.712 39.788 L 3.160 39.960 24.000 39.960 L 44.840 39.960 45.288 39.788 C 46.468 39.337,47.338 38.469,47.784 37.300 L 47.960 36.840 47.982 26.420 L 48.003 16.000 24.000 16.000 L -0.003 16.000 0.018 26.420 M13.064 20.119 C 14.642 20.530,15.829 21.821,16.080 23.400 C 16.345 25.063,15.457 26.785,13.941 27.550 C 12.382 28.337,10.566 28.056,9.326 26.835 C 7.738 25.272,7.738 22.728,9.326 21.165 C 10.316 20.191,11.773 19.783,13.064 20.119 M44.000 30.839 L 44.000 33.639 40.000 29.640 L 36.000 25.640 33.420 28.220 L 30.841 30.800 33.440 33.400 L 36.039 36.000 33.240 36.000 L 30.441 36.000 27.260 32.820 L 24.080 29.641 20.900 32.820 L 17.719 36.000 14.880 36.000 L 12.040 36.000 18.040 30.000 L 24.039 24.000 26.020 25.980 L 28.000 27.959 31.980 23.980 L 35.960 20.000 39.980 24.020 L 44.000 28.039 44.000 30.839 " fill="#2B2C30" stroke="none" fill-rule="evenodd"></path></svg>