<svg width="64" height="64" viewBox="0 0 64 64" fill="none" xmlns="http://www.w3.org/2000/svg"><path d="M11.066 8.113 C 9.951 8.384,8.866 9.299,8.352 10.400 C 8.061 11.024,8.052 11.093,8.019 13.200 L 7.984 15.361 8.304 15.680 L 8.624 16.000 12.000 16.000 L 15.376 16.000 15.688 15.688 L 16.000 15.376 16.000 12.014 L 16.000 8.652 15.743 8.353 L 15.486 8.053 13.476 8.034 C 12.371 8.024,11.286 8.059,11.066 8.113 M20.032 12.400 C 19.997 16.614,19.986 16.824,19.766 17.366 C 19.323 18.456,18.456 19.323,17.366 19.766 C 16.824 19.986,16.614 19.997,12.400 20.032 L 8.000 20.068 8.000 32.000 L 8.000 43.932 12.400 43.968 C 16.614 44.003,16.824 44.014,17.366 44.234 C 18.456 44.677,19.323 45.544,19.766 46.634 C 19.986 47.176,19.997 47.386,20.032 51.600 L 20.068 56.000 32.000 56.000 L 43.932 56.000 43.968 51.600 C 44.003 47.386,44.014 47.176,44.234 46.634 C 44.677 45.544,45.544 44.677,46.634 44.234 C 47.176 44.014,47.386 44.003,51.600 43.968 L 56.000 43.932 56.000 32.000 L 56.000 20.068 51.600 20.032 C 47.386 19.997,47.176 19.986,46.634 19.766 C 45.544 19.323,44.677 18.456,44.234 17.366 C 44.014 16.824,44.003 16.614,43.968 12.400 L 43.932 8.000 32.000 8.000 L 20.068 8.000 20.032 12.400 M48.535 8.132 C 48.016 8.405,47.996 8.556,48.026 12.131 C 48.053 15.437,48.055 15.463,48.296 15.704 C 48.539 15.947,48.541 15.947,52.000 15.947 C 55.460 15.947,55.461 15.947,55.704 15.703 C 55.941 15.466,55.947 15.408,55.947 13.250 C 55.947 11.076,55.942 11.030,55.661 10.430 C 55.262 9.579,54.513 8.815,53.667 8.399 L 52.965 8.053 50.883 8.023 C 49.328 8.001,48.733 8.028,48.535 8.132 M8.535 48.135 C 8.036 48.392,7.990 48.637,8.023 50.880 C 8.052 52.881,8.064 52.983,8.339 53.570 C 8.738 54.421,9.487 55.184,10.333 55.601 L 11.035 55.947 13.248 55.947 C 15.408 55.947,15.466 55.941,15.703 55.704 C 15.947 55.461,15.947 55.460,15.947 52.000 C 15.947 48.541,15.947 48.539,15.704 48.296 C 15.463 48.055,15.437 48.053,12.131 48.026 C 9.593 48.005,8.737 48.031,8.535 48.135 M48.535 48.135 C 48.016 48.402,47.996 48.556,48.026 52.131 C 48.053 55.438,48.055 55.463,48.297 55.704 C 48.534 55.941,48.592 55.947,50.752 55.947 L 52.965 55.947 53.667 55.601 C 54.513 55.185,55.262 54.421,55.661 53.570 C 55.942 52.970,55.947 52.924,55.947 50.750 C 55.947 48.593,55.941 48.534,55.704 48.297 C 55.463 48.055,55.438 48.053,52.131 48.026 C 49.593 48.005,48.737 48.031,48.535 48.135 " fill="#2B2C30" stroke="none" fill-rule="evenodd"></path></svg>