<svg width="56" height="56" viewBox="0 0 56 56" fill="none" xmlns="http://www.w3.org/2000/svg"><path d="M18.927 0.172 C 17.807 0.468,16.885 1.264,16.359 2.387 C 16.102 2.936,16.100 2.958,16.071 5.148 L 16.041 7.357 16.320 7.668 L 16.598 7.980 19.728 8.008 C 23.233 8.039,23.515 8.006,23.804 7.532 C 23.975 7.251,23.986 7.041,23.986 3.945 L 23.987 0.656 23.715 0.351 L 23.442 0.047 21.498 0.026 C 19.884 0.009,19.447 0.034,18.927 0.172 M28.000 5.965 L 28.000 11.930 32.550 11.971 C 36.813 12.009,37.148 12.025,37.868 12.211 C 40.830 12.977,43.023 15.170,43.789 18.132 C 43.975 18.852,43.991 19.187,44.029 23.450 L 44.070 28.000 50.035 28.000 L 56.000 28.000 56.000 20.020 L 56.000 12.040 51.917 12.038 C 47.460 12.037,46.981 11.993,46.101 11.514 C 45.097 10.968,44.265 9.820,44.054 8.691 C 44.000 8.402,43.960 6.442,43.960 4.094 L 43.960 0.000 35.980 0.000 L 28.000 0.000 28.000 5.965 M48.468 0.183 C 47.994 0.472,47.961 0.756,47.992 4.227 C 48.014 6.690,48.047 7.367,48.150 7.523 C 48.450 7.973,48.489 7.978,51.773 8.008 C 55.244 8.039,55.528 8.006,55.817 7.532 C 55.981 7.263,55.999 7.053,56.000 5.410 C 56.000 2.882,55.771 2.104,54.741 1.129 C 53.742 0.184,53.064 -0.000,50.590 0.000 C 48.947 0.001,48.737 0.019,48.468 0.183 M2.847 16.184 C 1.923 16.476,1.212 17.013,0.667 17.828 C 0.096 18.683,-0.018 19.345,0.018 21.598 L 0.047 23.442 0.351 23.715 L 0.656 23.987 3.945 23.986 C 7.041 23.986,7.251 23.975,7.532 23.804 C 8.006 23.515,8.039 23.233,8.008 19.728 L 7.980 16.598 7.675 16.326 L 7.370 16.053 5.295 16.060 C 3.897 16.064,3.098 16.104,2.847 16.184 M12.040 20.101 C 12.040 22.463,12.000 24.357,11.945 24.650 C 11.655 26.179,10.604 27.367,9.138 27.823 C 8.615 27.986,8.228 28.000,4.285 28.000 L 0.000 28.000 0.000 35.980 L 0.000 43.960 4.094 43.960 C 6.442 43.960,8.402 44.000,8.691 44.054 C 9.820 44.265,10.968 45.097,11.514 46.101 C 11.993 46.981,12.037 47.460,12.038 51.917 L 12.040 56.000 20.020 56.000 L 28.000 56.000 28.000 51.716 C 28.000 47.714,28.012 47.394,28.184 46.836 C 28.628 45.400,29.827 44.336,31.311 44.062 C 31.653 43.998,33.389 43.960,35.904 43.960 L 39.947 43.960 39.947 35.984 L 39.947 28.008 35.490 27.981 L 31.033 27.953 30.403 27.655 C 29.527 27.240,28.823 26.548,28.394 25.679 L 28.047 24.977 28.019 20.515 L 27.992 16.053 20.016 16.053 L 12.040 16.053 12.040 20.101 M32.457 16.151 C 32.036 16.404,32.013 16.606,32.013 20.071 L 32.013 23.352 32.331 23.669 L 32.648 23.987 35.947 23.986 C 39.063 23.986,39.263 23.976,39.547 23.803 C 39.713 23.702,39.873 23.519,39.904 23.398 C 39.935 23.276,39.946 22.214,39.930 21.038 L 39.900 18.900 39.626 18.340 C 39.247 17.564,38.492 16.799,37.726 16.414 L 37.100 16.100 34.860 16.076 C 33.413 16.061,32.562 16.087,32.457 16.151 M48.562 32.108 C 48.450 32.153,48.282 32.306,48.189 32.448 C 48.034 32.684,48.020 32.981,48.020 36.054 L 48.020 39.402 48.332 39.680 L 48.643 39.959 50.852 39.929 C 53.042 39.900,53.064 39.898,53.613 39.641 C 54.372 39.286,54.890 38.839,55.338 38.153 C 55.909 37.279,56.018 36.645,55.982 34.402 L 55.953 32.558 55.649 32.285 L 55.344 32.013 52.055 32.019 C 50.247 32.023,48.675 32.062,48.562 32.108 M0.673 48.076 C 0.487 48.131,0.294 48.285,0.183 48.467 C 0.018 48.737,0.001 48.944,0.000 50.590 C -0.000 53.064,0.184 53.742,1.129 54.741 C 2.104 55.771,2.882 56.000,5.410 56.000 C 7.053 55.999,7.263 55.981,7.532 55.817 C 8.006 55.528,8.039 55.244,8.008 51.773 C 7.986 49.310,7.953 48.633,7.850 48.477 C 7.549 48.025,7.520 48.021,4.153 48.003 C 2.314 47.993,0.851 48.024,0.673 48.076 M32.609 48.105 C 32.005 48.373,32.013 48.320,32.013 52.017 L 32.013 55.365 32.331 55.683 L 32.648 56.000 34.551 56.000 C 36.693 56.000,37.237 55.909,38.067 55.413 C 39.014 54.846,39.737 53.771,39.952 52.608 C 40.007 52.307,40.039 51.309,40.022 50.350 L 39.993 48.630 39.688 48.325 L 39.383 48.020 36.142 47.998 C 33.546 47.980,32.842 48.002,32.609 48.105 " fill="#2B2C30" stroke="none" fill-rule="evenodd"></path></svg>