<svg width="56" height="55" viewBox="0 0 56 55" fill="none" xmlns="http://www.w3.org/2000/svg"><path d="M33.667 0.784 C 31.120 2.644,28.862 4.382,28.806 4.526 C 28.729 4.727,28.730 5.260,28.807 5.461 C 28.862 5.606,34.149 9.638,34.600 9.879 C 34.952 10.067,35.348 10.007,35.675 9.715 L 35.980 9.442 36.011 8.221 L 36.042 7.000 38.531 7.002 C 41.259 7.003,41.716 7.060,42.982 7.549 C 44.909 8.294,46.594 9.947,47.399 11.880 C 47.902 13.088,47.977 13.621,48.037 16.403 L 48.092 18.947 46.997 18.947 C 45.469 18.947,45.080 19.165,45.080 20.021 C 45.080 20.292,45.404 20.774,47.203 23.186 C 49.528 26.302,49.660 26.432,50.310 26.237 C 50.622 26.143,50.885 25.830,52.825 23.242 C 55.130 20.166,55.195 20.048,54.885 19.469 C 54.670 19.068,54.262 18.947,53.126 18.947 L 52.101 18.947 52.056 16.310 C 52.007 13.413,51.916 12.678,51.418 11.185 C 50.238 7.642,47.384 4.787,43.831 3.594 C 42.360 3.100,42.035 3.062,38.951 3.014 L 36.041 2.969 36.011 1.757 L 35.980 0.544 35.675 0.272 C 35.163 -0.185,34.906 -0.120,33.667 0.784 M3.440 15.022 C 2.238 15.185,0.963 16.098,0.439 17.173 C 0.064 17.942,-0.014 18.574,0.018 20.582 L 0.047 22.396 0.305 22.655 L 0.564 22.913 3.873 22.940 C 6.762 22.963,7.220 22.948,7.472 22.817 C 8.000 22.544,8.027 22.356,8.027 18.940 C 8.027 14.740,8.175 14.987,5.647 14.965 C 4.723 14.957,3.730 14.983,3.440 15.022 M12.040 19.082 C 12.040 21.774,12.003 23.404,11.936 23.725 C 11.617 25.243,10.480 26.449,9.010 26.829 C 8.549 26.949,7.733 26.973,4.227 26.973 L 0.000 26.973 0.000 34.953 L 0.000 42.933 4.094 42.933 C 6.488 42.933,8.396 42.973,8.690 43.029 C 10.332 43.340,11.633 44.642,11.945 46.283 C 12.000 46.577,12.040 48.485,12.040 50.879 L 12.040 54.973 20.020 54.973 L 28.000 54.973 28.000 50.825 C 28.000 48.085,28.036 46.508,28.106 46.181 C 28.450 44.573,29.721 43.337,31.350 43.029 C 31.644 42.973,33.552 42.933,35.946 42.933 L 40.040 42.933 40.040 34.958 L 40.040 26.982 35.583 26.954 C 31.168 26.927,31.122 26.925,30.590 26.710 C 29.565 26.296,28.693 25.418,28.258 24.360 C 28.050 23.855,28.046 23.775,28.019 19.390 L 27.992 14.933 20.016 14.933 L 12.040 14.933 12.040 19.082 M32.853 14.994 C 32.017 15.270,32.013 15.290,32.014 19.014 C 32.014 22.000,32.024 22.183,32.200 22.472 C 32.303 22.640,32.494 22.819,32.626 22.869 C 32.943 22.989,39.110 22.989,39.427 22.869 C 39.559 22.819,39.750 22.640,39.853 22.472 C 40.021 22.197,40.039 22.001,40.040 20.480 C 40.040 19.553,39.994 18.547,39.938 18.245 C 39.627 16.558,38.276 15.281,36.540 15.031 C 35.881 14.936,33.113 14.909,32.853 14.994 M0.589 47.081 C 0.059 47.316,0.000 47.566,0.000 49.582 C 0.000 52.036,0.186 52.717,1.129 53.714 C 1.659 54.275,2.265 54.629,3.037 54.830 C 3.831 55.037,7.077 55.035,7.479 54.827 C 7.999 54.558,8.027 54.361,8.027 50.954 C 8.027 47.631,8.002 47.441,7.537 47.132 C 7.231 46.930,1.035 46.884,0.589 47.081 M32.686 47.052 C 32.498 47.106,32.309 47.257,32.197 47.440 C 32.025 47.722,32.014 47.927,32.014 50.941 C 32.013 54.376,32.028 54.497,32.500 54.828 C 32.800 55.038,36.205 55.038,37.010 54.828 C 38.012 54.568,38.813 53.980,39.397 53.079 C 39.915 52.279,40.040 51.589,40.040 49.542 C 40.040 47.567,39.960 47.264,39.387 47.069 C 38.986 46.932,33.153 46.917,32.686 47.052 " fill="#2B2C30" stroke="none" fill-rule="evenodd"></path></svg>