<svg width="57" height="58" viewBox="0 0 57 58" fill="none" xmlns="http://www.w3.org/2000/svg"><path d="M27.929 0.121 C 26.542 0.874,0.468 16.032,0.310 16.176 C 0.041 16.422,-0.056 16.924,0.094 17.288 C 0.159 17.445,0.404 17.691,0.651 17.846 C 1.917 18.644,27.929 33.582,28.193 33.663 C 28.433 33.736,28.576 33.724,28.820 33.608 C 29.607 33.232,56.313 17.908,56.512 17.717 C 56.787 17.453,56.889 16.759,56.714 16.337 C 56.569 15.987,58.183 16.941,41.848 7.553 C 33.319 2.652,28.718 0.059,28.500 0.032 C 28.317 0.009,28.060 0.049,27.929 0.121 M54.578 26.297 C 54.473 26.319,48.638 29.660,41.610 33.721 C 34.582 37.781,28.734 41.156,28.614 41.220 C 28.413 41.327,27.350 40.732,15.396 33.826 C 1.769 25.952,2.073 26.114,1.516 26.412 C 1.417 26.465,1.048 26.989,0.697 27.576 C -0.045 28.818,-0.133 29.268,0.285 29.679 C 0.416 29.807,6.721 33.493,14.297 37.871 C 25.336 44.248,28.139 45.829,28.405 45.830 C 28.674 45.832,31.361 44.317,42.465 37.904 C 50.015 33.544,56.331 29.841,56.501 29.676 C 56.963 29.225,56.922 28.931,56.233 27.740 C 55.916 27.191,55.583 26.667,55.494 26.575 C 55.301 26.378,54.845 26.239,54.578 26.297 M1.519 38.612 C 1.374 38.691,1.026 39.192,0.630 39.892 C 0.065 40.890,-0.013 41.084,0.040 41.366 C 0.074 41.545,0.196 41.782,0.312 41.894 C 0.429 42.006,6.697 45.665,14.241 50.024 C 27.185 57.503,27.984 57.950,28.412 57.950 C 28.839 57.950,29.644 57.499,42.699 49.957 C 57.187 41.587,56.810 41.821,56.810 41.184 C 56.810 40.865,55.621 38.795,55.328 38.603 C 55.191 38.512,54.963 38.469,54.745 38.490 C 54.481 38.517,50.996 40.486,41.446 46.005 C 34.328 50.119,28.462 53.485,28.411 53.485 C 28.359 53.485,22.472 50.108,15.327 45.980 C 5.681 40.406,2.263 38.476,2.048 38.479 C 1.888 38.481,1.650 38.541,1.519 38.612 " fill="#2B2C30" stroke="none" fill-rule="evenodd"></path></svg>