<svg width="63" height="60" viewBox="0 0 63 60" fill="none" xmlns="http://www.w3.org/2000/svg"><path d="M30.607 0.199 C 29.701 0.619,29.776 0.440,27.230 8.263 C 25.936 12.237,24.453 16.799,23.932 18.401 L 22.986 21.315 12.330 21.315 C 2.949 21.315,1.627 21.334,1.284 21.478 C -0.115 22.062,-0.432 23.809,0.671 24.862 C 0.975 25.153,16.542 36.532,17.670 37.289 C 17.725 37.326,16.336 41.760,14.502 47.401 C 12.089 54.822,11.235 57.577,11.237 57.940 C 11.241 59.293,12.769 60.326,14.003 59.810 C 14.222 59.719,17.930 57.080,22.242 53.947 C 26.554 50.814,30.291 48.143,30.547 48.013 C 31.077 47.741,31.663 47.709,32.176 47.923 C 32.371 48.004,36.090 50.657,40.441 53.818 C 44.793 56.979,48.561 59.658,48.816 59.773 C 50.146 60.368,51.755 59.242,51.632 57.802 C 51.606 57.506,50.185 52.970,48.363 47.373 C 46.589 41.925,45.153 37.426,45.170 37.375 C 45.188 37.324,48.959 34.560,53.550 31.233 C 58.141 27.906,62.071 25.004,62.284 24.784 C 63.175 23.862,63.025 22.436,61.958 21.682 L 61.512 21.367 50.689 21.315 L 39.867 21.262 36.637 11.325 C 34.860 5.859,33.334 1.246,33.245 1.073 C 32.772 0.160,31.560 -0.242,30.607 0.199 " fill="#2B2C30" stroke="none" fill-rule="evenodd"></path></svg>