<svg width="56" height="57" viewBox="0 0 56 57" fill="none" xmlns="http://www.w3.org/2000/svg"><path d="M26.983 0.148 C 25.007 0.679,23.716 2.654,24.054 4.628 C 24.199 5.474,24.579 6.204,25.194 6.820 C 26.763 8.389,29.237 8.389,30.806 6.820 C 32.409 5.216,32.378 2.621,30.739 1.123 C 30.131 0.568,29.709 0.334,28.963 0.140 C 28.303 -0.033,27.643 -0.030,26.983 0.148 M10.407 7.111 C 8.305 7.389,6.793 9.451,7.100 11.621 C 7.406 13.778,9.505 15.323,11.634 14.958 C 14.301 14.501,15.774 11.667,14.597 9.257 C 14.144 8.331,13.167 7.518,12.133 7.207 C 11.649 7.062,11.037 7.028,10.407 7.111 M43.820 7.219 C 41.888 7.858,40.714 9.723,41.042 11.634 C 41.585 14.808,45.292 16.095,47.686 13.942 C 48.284 13.404,48.803 12.393,48.899 11.577 C 49.107 9.818,48.253 8.218,46.698 7.452 C 46.131 7.173,45.980 7.141,45.132 7.120 C 44.541 7.105,44.055 7.141,43.820 7.219 M26.040 12.142 C 23.552 12.462,21.175 13.353,19.123 14.736 C 15.574 17.127,13.233 20.624,12.306 24.920 C 12.123 25.767,12.094 26.180,12.090 27.953 C 12.087 29.731,12.115 30.148,12.299 31.055 C 13.747 38.199,19.667 43.450,26.836 43.949 C 32.471 44.342,37.709 41.875,41.044 37.256 C 41.743 36.288,42.811 34.168,43.205 32.968 C 43.774 31.233,43.914 30.233,43.908 27.953 C 43.904 26.190,43.873 25.762,43.693 24.920 C 42.209 17.999,36.803 13.000,29.869 12.138 C 28.960 12.025,26.930 12.027,26.040 12.142 M3.373 24.082 C 3.097 24.122,2.565 24.307,2.190 24.493 C -0.244 25.696,-0.727 29.006,1.258 30.883 C 3.207 32.726,6.347 32.199,7.516 29.833 C 8.805 27.224,7.204 24.352,4.293 24.051 C 4.062 24.028,3.648 24.041,3.373 24.082 M51.333 24.092 C 50.127 24.287,48.992 25.131,48.458 26.230 C 47.272 28.672,48.708 31.490,51.372 31.946 C 53.976 32.392,56.337 30.055,55.931 27.433 C 55.588 25.218,53.545 23.733,51.333 24.092 M10.277 41.074 C 9.090 41.307,7.957 42.183,7.455 43.256 C 6.355 45.607,7.657 48.313,10.157 48.870 C 11.524 49.175,12.822 48.788,13.840 47.774 C 16.101 45.518,14.879 41.657,11.720 41.075 C 11.093 40.960,10.860 40.960,10.277 41.074 M44.147 41.100 C 43.371 41.269,42.756 41.607,42.181 42.182 C 39.865 44.494,41.128 48.388,44.368 48.925 C 46.508 49.280,48.594 47.732,48.889 45.569 C 49.188 43.389,47.741 41.418,45.583 41.064 C 44.917 40.955,44.801 40.958,44.147 41.100 M26.685 48.281 C 24.879 48.897,23.732 50.832,24.072 52.691 C 24.424 54.620,26.063 56.000,28.000 56.000 C 30.415 56.000,32.324 53.790,31.935 51.443 C 31.524 48.961,29.054 47.474,26.685 48.281 " fill="#2B2C30" stroke="none" fill-rule="evenodd"></path></svg>