<svg width="56" height="36" viewBox="0 0 56 36" fill="none" xmlns="http://www.w3.org/2000/svg"><path d="M0.607 0.088 C 0.504 0.130,0.336 0.258,0.233 0.372 C 0.050 0.576,0.046 0.729,0.022 8.317 L -0.003 16.054 8.002 16.031 L 16.007 16.007 16.031 8.003 L 16.054 0.000 8.424 0.006 C 4.227 0.009,0.709 0.046,0.607 0.088 M19.973 7.980 L 19.973 15.960 28.000 15.960 L 36.027 15.960 36.027 7.980 L 36.027 0.000 28.000 0.000 L 19.973 0.000 19.973 7.980 M40.040 7.978 L 40.040 15.960 48.022 15.960 L 56.003 15.960 55.978 8.262 L 55.953 0.564 55.695 0.305 L 55.436 0.047 47.738 0.022 L 40.040 -0.003 40.040 7.978 M0.022 27.759 L 0.047 35.452 0.273 35.693 L 0.499 35.933 8.230 35.933 L 15.960 35.933 15.960 28.000 L 15.960 20.067 7.978 20.067 L -0.003 20.067 0.022 27.759 M19.973 28.000 L 19.973 35.933 28.000 35.933 L 36.027 35.933 36.027 28.000 L 36.027 20.067 28.000 20.067 L 19.973 20.067 19.973 28.000 M40.040 28.000 L 40.040 35.933 47.770 35.933 L 55.501 35.933 55.727 35.693 L 55.953 35.452 55.978 27.759 L 56.003 20.067 48.022 20.067 L 40.040 20.067 40.040 28.000 " fill="#2B2C30" stroke="none" fill-rule="evenodd"></path></svg>