<svg width="60" height="60" viewBox="0 0 60 60" fill="none" xmlns="http://www.w3.org/2000/svg"><path d="M24.546 0.142 C 20.211 0.830,16.809 4.255,16.146 8.600 C 15.926 10.043,15.935 20.189,16.157 21.279 C 16.374 22.340,16.865 23.313,17.632 24.200 C 17.988 24.613,21.000 27.665,24.323 30.983 L 30.367 37.016 31.028 36.032 C 33.856 31.826,38.142 29.084,43.300 28.184 C 44.412 27.990,47.709 28.016,48.900 28.229 L 49.850 28.398 52.257 25.974 C 54.774 23.439,55.178 22.925,55.614 21.700 C 55.809 21.149,55.844 20.859,55.841 19.800 C 55.837 18.708,55.805 18.465,55.581 17.876 C 55.440 17.505,55.179 16.960,55.000 16.665 C 54.786 16.311,52.151 13.592,47.262 8.680 C 39.320 0.698,39.422 0.790,37.900 0.275 C 37.262 0.059,37.140 0.054,31.300 0.035 C 26.880 0.020,25.143 0.048,24.546 0.142 M27.308 5.183 C 28.986 5.621,30.405 7.058,30.851 8.769 C 31.274 10.395,30.831 12.109,29.663 13.366 C 27.691 15.489,24.533 15.551,22.491 13.509 C 21.263 12.281,20.764 10.643,21.111 8.980 C 21.490 7.158,23.020 5.582,24.835 5.142 C 25.561 4.966,26.538 4.982,27.308 5.183 M11.186 10.779 C 9.485 12.394,8.390 14.568,8.103 16.900 C 8.021 17.558,7.996 19.600,8.020 23.550 L 8.054 29.250 8.320 29.983 C 8.466 30.387,8.734 30.972,8.916 31.283 C 9.398 32.111,23.805 46.527,24.650 47.027 C 25.469 47.512,26.404 47.811,27.300 47.873 L 28.050 47.925 28.052 45.988 C 28.054 44.026,28.136 43.276,28.515 41.758 L 28.713 40.966 21.416 33.658 C 13.761 25.991,13.603 25.817,12.879 24.219 C 12.712 23.852,12.460 23.124,12.317 22.601 L 12.057 21.650 12.004 15.851 L 11.950 10.053 11.186 10.779 M2.995 19.000 C 1.484 20.503,0.609 22.117,0.184 24.186 C 0.004 25.060,-0.007 25.524,0.022 31.186 C 0.052 37.137,0.057 37.262,0.274 37.900 C 0.780 39.390,0.748 39.353,8.597 47.216 C 13.829 52.458,16.132 54.699,16.581 54.985 C 17.640 55.661,18.345 55.850,19.800 55.850 C 21.916 55.850,22.795 55.412,24.973 53.270 C 25.703 52.553,26.300 51.939,26.300 51.907 C 26.300 51.874,25.892 51.748,25.393 51.625 C 24.402 51.382,23.139 50.830,22.231 50.243 C 21.593 49.830,6.901 35.258,6.147 34.290 C 5.247 33.134,4.580 31.735,4.241 30.291 C 4.090 29.649,4.059 28.779,4.008 23.800 L 3.950 18.050 2.995 19.000 M44.550 32.110 C 39.128 32.674,34.498 36.405,32.755 41.616 C 32.255 43.109,32.068 44.296,32.066 46.000 C 32.060 49.674,33.370 52.977,35.875 55.609 C 39.587 59.510,45.129 60.946,50.242 59.331 C 54.464 57.997,57.998 54.462,59.333 50.236 C 59.793 48.780,59.938 47.779,59.940 46.050 C 59.943 43.057,59.241 40.682,57.641 38.280 C 55.312 34.781,51.625 32.563,47.379 32.105 C 46.291 31.987,45.717 31.988,44.550 32.110 M47.502 36.151 C 47.663 36.234,47.840 36.389,47.897 36.494 C 47.962 36.616,48.000 38.027,48.000 40.343 L 48.000 44.000 51.605 44.000 C 55.442 44.000,55.645 44.023,55.897 44.494 C 55.954 44.600,56.000 45.295,56.000 46.038 C 56.000 47.322,55.988 47.403,55.759 47.669 L 55.518 47.950 51.784 48.000 L 48.050 48.050 48.000 51.784 L 47.950 55.518 47.669 55.759 C 47.402 55.989,47.324 56.000,46.019 55.998 C 44.556 55.995,44.372 55.941,44.112 55.432 C 44.036 55.283,44.000 54.066,44.000 51.607 L 44.000 48.000 40.315 48.000 L 36.629 48.000 36.369 47.759 C 36.017 47.432,35.977 47.215,36.016 45.811 C 36.049 44.646,36.060 44.594,36.327 44.327 L 36.604 44.050 40.299 44.021 L 43.993 43.993 44.021 40.307 C 44.057 35.726,43.921 36.018,46.030 36.006 C 46.897 36.002,47.287 36.040,47.502 36.151 " fill="#2B2C30" stroke="none" fill-rule="evenodd"></path></svg>