<svg width="49" height="49" viewBox="0 0 49 49" fill="none" xmlns="http://www.w3.org/2000/svg"><path d="M10.331 0.052 C 8.847 0.239,7.751 0.539,6.615 1.072 C 4.662 1.987,3.096 3.330,1.883 5.134 C 1.387 5.871,0.700 7.346,0.455 8.202 C -0.000 9.791,-0.008 9.983,0.018 18.253 L 0.042 25.848 0.234 26.419 C 0.485 27.162,0.754 27.692,1.187 28.297 C 1.720 29.041,20.256 47.509,20.907 47.944 C 23.000 49.345,25.636 49.334,27.767 47.917 C 28.210 47.622,47.331 28.555,47.773 27.966 C 48.182 27.422,48.533 26.716,48.766 25.967 C 49.013 25.174,49.034 23.607,48.809 22.785 C 48.563 21.884,48.074 21.004,47.381 20.209 C 46.216 18.875,28.535 1.374,27.987 1.014 C 27.459 0.666,26.866 0.391,26.174 0.175 C 25.817 0.063,24.807 0.046,18.171 0.035 C 13.994 0.027,10.466 0.036,10.331 0.052 M13.516 6.249 C 14.688 6.497,16.032 7.319,16.818 8.268 C 18.395 10.173,18.655 12.992,17.451 15.122 C 16.598 16.632,15.125 17.723,13.443 18.092 C 12.577 18.282,11.133 18.223,10.372 17.967 C 8.666 17.393,7.452 16.330,6.685 14.741 C 6.288 13.918,6.128 13.169,6.126 12.120 C 6.122 9.363,7.958 6.991,10.642 6.288 C 11.370 6.097,12.712 6.079,13.516 6.249 M18.849 22.738 C 18.970 22.803,21.537 25.329,24.552 28.353 C 30.490 34.307,30.234 34.009,30.003 34.682 C 29.878 35.045,27.069 37.900,26.634 38.106 C 25.997 38.409,26.284 38.655,20.193 32.567 C 16.231 28.607,14.595 26.920,14.549 26.746 C 14.400 26.189,14.514 26.027,16.276 24.276 C 17.912 22.651,17.947 22.622,18.285 22.622 C 18.474 22.622,18.727 22.674,18.849 22.738 " fill="#2B2C30" stroke="none" fill-rule="evenodd"></path></svg>