<svg width="56" height="56" viewBox="0 0 56 56" fill="none" xmlns="http://www.w3.org/2000/svg"><path d="M24.531 0.142 C 21.195 0.671,18.213 2.983,16.880 6.073 C 16.687 6.523,16.432 7.241,16.314 7.669 C 16.100 8.445,16.100 8.461,16.100 14.887 C 16.100 22.034,16.059 21.513,16.737 22.960 C 17.000 23.521,17.598 24.144,24.727 31.274 C 33.116 39.664,32.744 39.334,34.254 39.755 C 35.111 39.995,36.470 40.018,37.287 39.808 C 38.160 39.583,39.097 39.078,39.857 38.422 C 40.240 38.091,43.749 34.614,47.656 30.694 C 55.248 23.075,55.195 23.134,55.673 21.709 C 56.177 20.210,56.068 18.690,55.350 17.193 C 54.994 16.453,54.843 16.282,51.764 13.133 C 47.643 8.921,40.292 1.609,39.807 1.241 C 39.341 0.888,38.474 0.448,37.800 0.223 C 37.327 0.066,36.822 0.051,31.313 0.033 C 26.626 0.018,25.166 0.041,24.531 0.142 M27.296 5.183 C 28.986 5.623,30.322 6.940,30.836 8.674 C 31.052 9.400,31.035 10.743,30.801 11.500 C 29.981 14.156,27.100 15.628,24.448 14.748 C 21.368 13.725,20.080 9.961,21.881 7.248 C 22.525 6.278,23.620 5.490,24.744 5.188 C 25.411 5.008,26.616 5.006,27.296 5.183 M11.016 10.990 C 9.376 12.641,8.416 14.573,8.119 16.820 C 8.052 17.331,8.027 19.577,8.046 23.427 L 8.074 29.260 8.327 30.007 C 8.818 31.455,8.926 31.574,16.910 39.534 C 24.292 46.894,24.316 46.916,25.107 47.307 C 26.126 47.810,27.042 48.004,28.140 47.949 C 29.164 47.898,30.315 47.528,31.130 46.988 C 31.644 46.647,34.347 44.108,34.347 43.965 C 34.347 43.930,34.013 43.826,33.605 43.734 C 32.639 43.514,31.548 43.070,30.590 42.505 C 29.893 42.094,29.092 41.325,22.183 34.442 C 17.983 30.257,14.306 26.517,14.013 26.131 C 13.428 25.360,12.811 24.175,12.514 23.253 C 12.061 21.843,12.040 21.515,12.040 15.670 C 12.040 11.631,12.012 10.173,11.934 10.173 C 11.876 10.173,11.463 10.541,11.016 10.990 M3.071 18.947 C 2.579 19.434,1.996 20.101,1.776 20.429 C 0.917 21.710,0.323 23.281,0.097 24.873 C 0.044 25.246,0.003 27.900,0.002 31.061 C -0.000 37.282,0.014 37.455,0.651 38.780 C 0.861 39.217,1.261 39.817,1.615 40.227 C 2.788 41.584,15.986 54.648,16.561 55.021 C 18.116 56.029,20.291 56.258,21.948 55.588 C 22.956 55.181,23.539 54.751,24.993 53.341 L 26.437 51.942 25.795 51.794 C 24.405 51.476,23.127 50.916,22.027 50.144 C 21.296 49.632,7.077 35.485,6.195 34.393 C 5.440 33.457,4.654 31.893,4.319 30.660 L 4.066 29.727 4.016 23.893 L 3.967 18.060 3.071 18.947 " fill="#2B2C30" stroke="none" fill-rule="evenodd"></path></svg>