<svg width="49" height="49" viewBox="0 0 49 49" fill="none" xmlns="http://www.w3.org/2000/svg"><path d="M10.331 0.052 C 8.847 0.239,7.751 0.539,6.615 1.072 C 4.662 1.987,3.096 3.330,1.883 5.134 C 1.387 5.871,0.700 7.346,0.455 8.202 C -0.000 9.791,-0.008 9.983,0.018 18.253 L 0.042 25.848 0.234 26.419 C 0.485 27.162,0.754 27.692,1.187 28.297 C 1.720 29.041,20.256 47.509,20.907 47.944 C 23.000 49.345,25.636 49.334,27.767 47.917 C 28.210 47.622,47.331 28.555,47.773 27.966 C 48.182 27.422,48.533 26.716,48.766 25.967 C 49.013 25.174,49.034 23.607,48.809 22.785 C 48.563 21.884,48.074 21.004,47.381 20.209 C 46.216 18.875,28.535 1.374,27.987 1.014 C 27.459 0.666,26.866 0.391,26.174 0.175 C 25.817 0.063,24.807 0.046,18.171 0.035 C 13.994 0.027,10.466 0.036,10.331 0.052 M13.516 6.249 C 14.688 6.497,16.032 7.319,16.818 8.268 C 18.395 10.173,18.655 12.992,17.451 15.122 C 16.598 16.632,15.125 17.723,13.443 18.092 C 12.577 18.282,11.133 18.223,10.372 17.967 C 8.666 17.393,7.452 16.330,6.685 14.741 C 6.288 13.918,6.128 13.169,6.126 12.120 C 6.122 9.363,7.958 6.991,10.642 6.288 C 11.370 6.097,12.712 6.079,13.516 6.249 M35.533 23.161 C 36.918 24.545,38.093 25.779,38.145 25.904 C 38.200 26.038,38.215 26.256,38.181 26.437 C 38.133 26.695,37.878 26.992,36.567 28.313 C 35.711 29.177,34.883 29.943,34.729 30.017 C 34.123 30.304,34.089 30.279,31.337 27.536 C 28.703 24.911,28.568 24.739,28.701 24.201 C 28.761 23.958,31.589 21.030,32.054 20.730 C 32.234 20.613,32.395 20.581,32.657 20.608 C 33.004 20.643,33.096 20.724,35.533 23.161 M24.850 28.778 C 24.996 28.841,26.203 29.991,27.573 31.371 C 30.233 34.052,30.223 34.039,30.003 34.682 C 29.878 35.045,27.069 37.900,26.634 38.106 C 26.028 38.394,26.008 38.379,23.216 35.589 C 20.534 32.907,20.479 32.838,20.618 32.279 C 20.677 32.039,23.528 29.096,23.969 28.819 C 24.261 28.636,24.495 28.625,24.850 28.778 " fill="#2B2C30" stroke="none" fill-rule="evenodd"></path></svg>