<svg width="61" height="59" viewBox="0 0 61 59" fill="none" xmlns="http://www.w3.org/2000/svg"><path d="M26.383 0.060 C 26.159 0.082,25.541 0.149,25.010 0.209 C 14.593 1.379,5.581 8.380,1.848 18.203 C 0.503 21.740,-0.094 25.339,0.033 29.128 C 0.173 33.271,1.079 36.908,2.897 40.616 C 4.304 43.486,5.737 45.540,7.898 47.783 C 13.063 53.144,19.619 56.080,27.297 56.471 C 28.434 56.529,31.386 56.386,31.504 56.268 C 31.533 56.239,29.995 54.650,28.085 52.736 C 24.577 49.222,24.418 49.033,24.067 47.980 C 24.035 47.883,23.780 47.768,23.419 47.687 C 22.493 47.480,20.579 46.795,19.571 46.309 C 14.193 43.717,10.200 38.786,8.786 32.991 C 7.872 29.241,8.111 24.890,9.427 21.350 C 12.076 14.221,18.466 9.198,25.976 8.341 C 28.928 8.004,32.464 8.421,35.177 9.425 C 43.318 12.440,48.576 20.297,48.260 28.975 C 48.094 33.554,46.535 37.608,43.580 41.146 C 42.280 42.703,40.959 43.870,39.174 45.038 L 38.138 45.715 39.276 46.850 L 40.414 47.985 47.784 40.605 C 51.838 36.545,55.388 33.071,55.674 32.885 L 56.194 32.545 56.316 31.599 C 57.157 25.076,55.433 17.977,51.668 12.457 C 47.030 5.656,40.101 1.382,31.873 0.245 C 30.799 0.097,27.227 -0.024,26.383 0.060 M26.535 14.235 C 23.248 14.692,20.584 16.004,18.294 18.294 C 16.259 20.330,15.034 22.590,14.418 25.448 C 14.103 26.909,14.102 29.597,14.415 31.027 C 14.707 32.360,15.068 33.404,15.618 34.500 C 17.665 38.582,21.467 41.396,25.956 42.151 L 26.952 42.319 27.749 41.543 C 28.605 40.710,29.266 40.336,30.202 40.155 C 31.197 39.963,32.441 40.273,33.298 40.928 L 33.751 41.274 34.591 40.839 C 38.641 38.744,41.365 35.094,42.153 30.703 C 42.393 29.365,42.390 26.997,42.146 25.722 C 41.041 19.941,36.640 15.505,30.899 14.386 C 29.887 14.189,27.471 14.105,26.535 14.235 M30.160 22.518 C 32.632 23.336,34.275 25.604,34.287 28.213 C 34.295 29.938,33.747 31.243,32.493 32.487 C 31.240 33.730,29.974 34.262,28.263 34.262 C 25.511 34.262,23.215 32.526,22.406 29.834 C 22.282 29.423,22.225 28.904,22.227 28.213 C 22.230 27.352,22.277 27.063,22.533 26.327 C 22.899 25.280,23.414 24.477,24.154 23.800 C 25.810 22.286,28.030 21.812,30.160 22.518 M57.797 36.442 C 57.630 36.518,53.650 40.427,48.954 45.129 L 40.415 53.678 35.783 49.053 L 31.151 44.428 30.722 44.428 C 30.322 44.428,30.231 44.487,29.421 45.265 C 28.942 45.724,28.481 46.233,28.398 46.395 C 28.063 47.042,27.972 46.936,34.202 53.162 L 40.039 58.996 40.473 58.938 C 40.892 58.881,41.264 58.522,50.750 49.035 L 60.593 39.190 60.593 38.747 C 60.593 38.329,60.545 38.253,59.755 37.439 C 59.029 36.691,58.469 36.285,58.182 36.299 C 58.138 36.301,57.965 36.365,57.797 36.442 " fill="#2B2C30" stroke="none" fill-rule="evenodd"></path></svg>