<svg width="56" height="56" viewBox="0 0 56 56" fill="none" xmlns="http://www.w3.org/2000/svg"><path d="M25.807 0.089 C 18.969 0.709,12.934 3.496,8.215 8.215 C 3.793 12.637,1.104 18.133,0.221 24.547 C 0.022 25.995,-0.006 29.757,0.173 31.080 C 0.710 35.062,1.775 38.449,3.416 41.393 C 9.973 53.159,23.428 58.627,36.254 54.740 C 42.315 52.903,47.736 48.851,51.280 43.510 C 53.837 39.655,55.245 35.780,55.830 30.987 C 55.985 29.724,55.985 26.276,55.830 25.013 C 55.361 21.170,54.294 17.733,52.628 14.700 C 48.207 6.651,40.528 1.410,31.422 0.227 C 30.159 0.063,26.962 -0.016,25.807 0.089 M30.576 8.170 C 32.808 8.462,34.718 9.045,36.820 10.075 C 38.844 11.066,40.278 12.077,41.894 13.652 C 43.672 15.384,44.872 17.030,45.925 19.180 C 47.342 22.072,47.973 24.792,47.973 28.000 C 47.973 31.208,47.342 33.928,45.925 36.820 C 43.970 40.811,40.811 43.970,36.820 45.925 C 33.918 47.347,31.219 47.973,28.000 47.973 C 24.781 47.973,22.082 47.347,19.180 45.925 C 13.171 42.982,9.041 37.225,8.170 30.576 C 7.889 28.430,8.026 25.548,8.509 23.473 C 9.162 20.671,10.680 17.584,12.491 15.375 C 15.705 11.456,20.370 8.841,25.340 8.172 C 26.642 7.996,29.245 7.995,30.576 8.170 M26.133 14.134 C 24.460 14.377,23.177 14.774,21.747 15.493 C 17.868 17.442,15.230 20.887,14.259 25.269 C 13.966 26.589,13.966 29.411,14.259 30.731 C 15.520 36.419,19.583 40.484,25.262 41.737 C 26.593 42.030,29.407 42.030,30.738 41.737 C 36.413 40.485,40.485 36.413,41.737 30.738 C 42.030 29.407,42.030 26.593,41.737 25.262 C 40.463 19.485,36.107 15.234,30.428 14.225 C 29.289 14.023,27.206 13.979,26.133 14.134 M29.323 22.162 C 30.417 22.394,31.304 22.898,32.201 23.797 C 33.417 25.016,33.970 26.329,33.970 28.000 C 33.970 29.670,33.417 30.983,32.201 32.203 C 30.974 33.434,29.699 33.971,28.000 33.971 C 26.302 33.971,25.028 33.435,23.797 32.203 C 23.177 31.583,22.923 31.245,22.647 30.676 C 21.817 28.960,21.817 27.040,22.647 25.324 C 22.923 24.755,23.177 24.417,23.797 23.797 C 25.018 22.576,26.262 22.049,27.953 22.036 C 28.364 22.033,28.980 22.089,29.323 22.162 " fill="#2B2C30" stroke="none" fill-rule="evenodd"></path></svg>