<svg width="56" height="40" viewBox="0 0 56 40" fill="none" xmlns="http://www.w3.org/2000/svg"><path d="M0.607 0.088 C 0.504 0.130,0.336 0.258,0.233 0.372 C 0.048 0.578,0.047 0.711,0.047 20.022 L 0.047 39.465 0.273 39.706 L 0.499 39.947 3.942 39.947 C 6.230 39.947,7.449 39.913,7.574 39.846 C 8.048 39.592,8.027 40.519,8.027 20.020 C 8.027 3.730,8.007 0.881,7.894 0.610 C 7.644 0.012,7.562 -0.001,3.995 0.006 C 2.234 0.009,0.709 0.046,0.607 0.088 M48.476 0.176 C 48.315 0.275,48.137 0.492,48.079 0.658 C 48.002 0.880,47.973 6.091,47.973 20.037 C 47.973 40.517,47.952 39.592,48.426 39.846 C 48.551 39.913,49.770 39.947,52.058 39.947 L 55.501 39.947 55.727 39.706 L 55.953 39.465 55.953 20.015 L 55.953 0.564 55.695 0.305 L 55.436 0.047 52.101 0.022 C 48.950 -0.002,48.751 0.007,48.476 0.176 M12.442 4.195 C 12.242 4.317,12.112 4.493,12.046 4.732 C 11.911 5.218,11.909 26.787,12.044 27.272 C 12.097 27.463,12.249 27.704,12.382 27.809 C 12.625 28.000,12.652 28.000,28.020 28.000 L 43.414 28.000 43.679 27.735 C 43.856 27.559,43.964 27.333,44.003 27.059 C 44.036 26.832,44.050 21.712,44.034 15.680 C 44.012 6.983,43.982 4.670,43.887 4.504 C 43.590 3.984,44.526 4.013,27.981 4.014 C 13.050 4.014,12.734 4.018,12.442 4.195 M36.004 15.890 L 35.980 19.647 28.000 19.647 L 20.020 19.647 19.996 15.890 L 19.971 12.133 28.000 12.133 L 36.029 12.133 36.004 15.890 " fill="#2B2C30" stroke="none" fill-rule="evenodd"></path></svg>