<svg width="56" height="56" viewBox="0 0 56 56" fill="none" xmlns="http://www.w3.org/2000/svg"><path d="M26.133 0.059 C 17.913 0.672,10.583 4.646,5.629 11.176 C 2.796 14.909,1.034 19.171,0.255 24.172 C -0.030 26.001,-0.030 29.999,0.255 31.828 C 1.452 39.508,5.165 45.810,11.183 50.377 C 14.901 53.197,19.185 54.968,24.172 55.745 C 26.001 56.030,29.999 56.030,31.828 55.745 C 38.632 54.685,44.416 51.617,48.757 46.767 C 52.604 42.467,54.828 37.714,55.745 31.828 C 56.030 29.999,56.030 26.001,55.745 24.172 C 54.968 19.185,53.197 14.901,50.377 11.183 C 45.747 5.081,39.129 1.242,31.500 0.232 C 30.407 0.087,27.159 -0.017,26.133 0.059 M29.163 15.543 C 29.963 15.751,30.586 16.117,31.221 16.752 C 32.130 17.662,32.573 18.717,32.573 19.973 C 32.573 21.154,32.165 22.201,31.364 23.078 C 30.434 24.095,29.367 24.568,28.000 24.567 C 26.300 24.567,24.819 23.720,23.999 22.280 C 23.546 21.482,23.401 20.828,23.442 19.751 C 23.473 18.893,23.508 18.740,23.822 18.079 C 24.795 16.032,27.008 14.982,29.163 15.543 M17.673 16.378 C 19.966 17.494,20.685 20.346,19.185 22.384 C 17.386 24.827,13.638 24.397,12.350 21.600 C 11.989 20.815,11.936 19.619,12.225 18.764 C 12.633 17.555,13.494 16.670,14.697 16.224 C 15.072 16.085,15.364 16.056,16.147 16.081 C 16.996 16.109,17.199 16.148,17.673 16.378 M41.638 16.363 C 42.665 16.858,43.417 17.704,43.777 18.768 C 44.064 19.619,44.011 20.816,43.650 21.600 C 42.559 23.970,39.621 24.727,37.568 23.168 C 36.090 22.045,35.605 19.932,36.438 18.246 C 36.929 17.252,37.808 16.505,38.920 16.137 C 39.048 16.094,39.594 16.071,40.133 16.084 C 40.977 16.106,41.186 16.144,41.638 16.363 M15.243 28.104 C 15.588 28.281,15.769 28.584,15.771 28.991 C 15.773 29.317,15.697 29.471,15.267 30.010 C 14.703 30.718,14.334 31.410,14.192 32.024 C 14.140 32.249,14.097 33.572,14.096 34.964 C 14.093 37.370,14.084 37.507,13.902 37.738 C 13.619 38.098,13.189 38.172,11.387 38.172 C 9.627 38.172,9.180 38.099,8.693 37.732 C 8.112 37.293,8.031 36.954,8.029 34.945 C 8.027 33.270,8.039 33.140,8.237 32.780 C 8.549 32.210,11.990 28.418,12.345 28.252 C 12.511 28.175,12.731 28.091,12.833 28.067 C 13.217 27.974,15.044 28.003,15.243 28.104 M33.389 28.258 C 33.883 28.522,37.429 32.663,37.763 33.367 C 37.978 33.819,37.985 33.904,37.986 36.168 C 37.987 38.363,37.975 38.525,37.790 38.875 C 37.516 39.394,37.281 39.627,36.806 39.850 C 36.400 40.041,36.318 40.043,27.874 40.018 L 19.353 39.993 18.964 39.736 C 18.750 39.594,18.459 39.303,18.317 39.090 L 18.060 38.701 18.032 36.314 C 18.012 34.693,18.038 33.801,18.112 33.535 C 18.192 33.251,18.721 32.525,20.038 30.898 C 21.847 28.661,22.195 28.300,22.727 28.111 C 22.914 28.044,24.659 28.017,28.000 28.029 C 32.992 28.047,32.993 28.047,33.389 28.258 M43.608 28.222 C 44.010 28.419,47.428 32.168,47.763 32.780 C 47.961 33.140,47.973 33.270,47.971 34.945 C 47.969 36.954,47.888 37.293,47.307 37.732 C 46.820 38.099,46.373 38.172,44.613 38.172 C 42.811 38.172,42.381 38.098,42.098 37.738 C 41.916 37.507,41.907 37.370,41.904 34.964 C 41.903 33.572,41.860 32.249,41.808 32.024 C 41.666 31.410,41.297 30.718,40.733 30.010 C 40.303 29.471,40.227 29.317,40.229 28.991 C 40.231 28.595,40.402 28.298,40.740 28.103 C 41.050 27.925,43.182 28.013,43.608 28.222 " fill="#2B2C30" stroke="none" fill-rule="evenodd"></path></svg>