<svg width="52" height="52" viewBox="0 0 52 52" fill="none" xmlns="http://www.w3.org/2000/svg"><path d="M0.499 0.136 C -0.011 0.412,-0.000 0.288,0.001 5.997 C 0.003 11.617,-0.009 11.473,0.461 11.822 C 0.703 12.001,0.761 12.003,5.973 12.003 C 11.674 12.003,11.524 12.015,11.851 11.534 C 11.991 11.328,12.005 10.906,12.028 6.192 C 12.056 0.532,12.057 0.549,11.536 0.198 L 11.241 0.000 5.989 0.003 C 1.512 0.006,0.702 0.026,0.499 0.136 M20.519 0.136 C 20.009 0.413,20.020 0.282,20.020 6.071 L 20.020 11.371 20.315 11.665 L 20.609 11.960 26.000 11.960 L 31.391 11.960 31.685 11.665 L 31.980 11.371 31.980 6.071 C 31.980 0.257,31.993 0.406,31.463 0.131 C 31.085 -0.064,20.880 -0.060,20.519 0.136 M40.501 0.169 C 40.349 0.262,40.183 0.415,40.132 0.510 C 40.002 0.752,40.004 11.180,40.134 11.465 C 40.186 11.578,40.338 11.736,40.472 11.816 C 40.693 11.946,41.229 11.960,46.036 11.960 C 51.873 11.960,51.588 11.985,51.870 11.439 C 52.071 11.052,52.064 0.984,51.863 0.561 C 51.591 -0.012,51.719 -0.000,45.964 0.000 C 40.980 0.001,40.766 0.007,40.501 0.169 M0.499 20.156 C -0.010 20.432,-0.000 20.310,0.000 26.000 C 0.000 30.486,0.018 31.244,0.131 31.463 C 0.406 31.993,0.257 31.980,6.071 31.980 L 11.371 31.980 11.665 31.685 L 11.960 31.391 11.960 26.000 L 11.960 20.609 11.665 20.315 L 11.371 20.020 6.054 20.023 C 1.520 20.026,0.702 20.046,0.499 20.156 M20.583 20.101 C 20.488 20.140,20.332 20.260,20.237 20.366 C 20.067 20.554,20.063 20.680,20.063 26.007 L 20.063 31.456 20.304 31.696 L 20.544 31.937 26.000 31.937 L 31.456 31.937 31.696 31.696 L 31.937 31.456 31.937 26.000 L 31.937 20.544 31.696 20.304 L 31.456 20.063 26.106 20.046 C 23.164 20.037,20.679 20.061,20.583 20.101 M40.335 20.315 L 40.040 20.609 40.040 26.000 L 40.040 31.391 40.335 31.685 L 40.629 31.980 45.929 31.980 C 51.743 31.980,51.594 31.993,51.869 31.463 C 52.066 31.080,52.066 20.920,51.869 20.537 C 51.594 20.007,51.743 20.020,45.929 20.020 L 40.629 20.020 40.335 20.315 M0.452 40.175 C -0.007 40.497,-0.000 40.409,-0.000 45.981 C -0.000 51.717,-0.012 51.591,0.561 51.863 C 0.984 52.064,11.052 52.071,11.439 51.870 C 11.986 51.588,11.960 51.878,11.960 45.992 L 11.960 40.629 11.665 40.335 L 11.371 40.040 6.008 40.040 C 1.289 40.040,0.622 40.056,0.452 40.175 M20.315 40.335 L 20.020 40.629 20.020 45.929 C 20.020 51.743,20.007 51.594,20.537 51.869 C 20.756 51.982,21.514 52.000,26.000 52.000 C 30.486 52.000,31.244 51.982,31.463 51.869 C 31.993 51.594,31.980 51.743,31.980 45.929 L 31.980 40.629 31.685 40.335 L 31.391 40.040 26.000 40.040 L 20.609 40.040 20.315 40.335 M40.483 40.161 C 40.039 40.407,40.046 40.310,40.043 46.022 C 40.040 51.876,40.014 51.588,40.561 51.870 C 40.948 52.071,51.016 52.064,51.439 51.863 C 52.012 51.591,52.000 51.717,52.000 45.981 C 52.000 41.564,51.981 40.775,51.870 40.561 C 51.588 40.014,51.876 40.040,46.022 40.043 C 41.763 40.046,40.648 40.069,40.483 40.161 " fill="#2B2C30" stroke="none" fill-rule="evenodd"></path></svg>