<svg width="56" height="56" viewBox="0 0 56 56" fill="none" xmlns="http://www.w3.org/2000/svg"><path d="M26.133 0.059 C 17.918 0.672,10.533 4.677,5.619 11.185 C 2.783 14.941,1.033 19.178,0.255 24.172 C -0.030 26.001,-0.030 29.999,0.255 31.828 C 0.790 35.261,1.802 38.387,3.269 41.134 C 5.870 46.008,9.992 50.130,14.866 52.731 C 17.613 54.198,20.739 55.210,24.172 55.745 C 26.001 56.030,29.999 56.030,31.828 55.745 C 38.614 54.688,44.394 51.630,48.716 46.811 C 52.598 42.483,54.824 37.738,55.745 31.828 C 56.030 29.999,56.030 26.001,55.745 24.172 C 54.968 19.185,53.197 14.901,50.377 11.183 C 45.748 5.083,39.127 1.241,31.500 0.232 C 30.407 0.087,27.159 -0.017,26.133 0.059 M29.429 8.131 C 29.542 8.188,29.706 8.325,29.795 8.434 C 29.945 8.620,29.956 9.259,29.958 17.871 L 29.960 27.109 34.953 32.108 L 39.947 37.107 39.947 37.560 C 39.947 38.007,39.935 38.025,39.045 38.931 C 38.033 39.961,37.721 40.129,37.225 39.914 C 37.038 39.833,34.741 37.602,31.477 34.331 L 26.040 28.883 26.042 18.758 C 26.044 9.305,26.055 8.620,26.205 8.435 C 26.294 8.327,26.451 8.191,26.553 8.135 C 26.803 7.997,29.162 7.994,29.429 8.131 " fill="#2B2C30" stroke="none" fill-rule="evenodd"></path></svg>