<svg width="64" height="40" viewBox="0 0 64 40" fill="none" xmlns="http://www.w3.org/2000/svg"><path d="M14.617 0.170 C 13.582 0.449,12.633 1.203,12.173 2.110 C 12.063 2.328,9.291 10.235,6.014 19.680 C 0.490 35.601,0.055 36.905,0.055 37.555 C 0.054 38.151,0.103 38.337,0.376 38.779 C 0.576 39.103,0.898 39.424,1.221 39.624 L 1.743 39.947 31.704 39.974 L 61.665 40.001 62.197 39.772 C 62.793 39.516,63.396 38.883,63.582 38.320 C 63.649 38.117,63.682 37.680,63.656 37.349 C 63.621 36.909,61.976 32.118,57.555 19.573 C 54.226 10.128,51.390 2.205,51.252 1.967 C 50.902 1.363,50.120 0.672,49.405 0.337 L 48.800 0.053 32.000 0.033 C 17.472 0.015,15.121 0.034,14.617 0.170 " fill="#2B2C30" stroke="none" fill-rule="evenodd"></path></svg>