<svg width="44" height="48" viewBox="0 0 44 48" fill="none" xmlns="http://www.w3.org/2000/svg"><path d="M12.564 0.107 C 12.097 0.310,12.067 0.433,12.027 2.306 L 11.990 3.997 6.303 4.033 C 0.954 4.068,0.605 4.078,0.412 4.204 C 0.062 4.433,0.000 4.709,-0.000 6.030 C -0.000 7.383,0.066 7.617,0.518 7.859 C 0.738 7.977,0.958 7.993,2.363 7.993 L 3.957 7.993 3.977 26.345 L 3.997 44.697 4.159 45.173 C 4.591 46.441,5.468 47.360,6.657 47.792 L 7.120 47.960 22.000 47.960 L 36.880 47.960 37.343 47.792 C 38.531 47.361,39.399 46.450,39.839 45.173 L 40.003 44.697 40.023 26.345 L 40.043 7.993 41.637 7.993 C 43.042 7.993,43.262 7.977,43.482 7.859 C 43.934 7.617,44.000 7.383,44.000 6.030 C 44.000 4.709,43.938 4.433,43.588 4.204 C 43.395 4.078,43.046 4.068,37.697 4.033 L 32.010 3.997 31.973 2.306 C 31.932 0.422,31.903 0.306,31.420 0.104 C 31.053 -0.049,12.916 -0.046,12.564 0.107 M15.525 12.170 C 16.026 12.476,15.990 11.346,15.969 26.098 L 15.950 39.442 15.767 39.640 C 15.446 39.988,15.212 40.040,13.965 40.040 C 12.673 40.040,12.428 39.975,12.174 39.565 C 12.028 39.328,12.027 39.233,12.027 26.039 C 12.027 11.361,11.990 12.475,12.489 12.170 C 12.698 12.043,12.863 12.027,14.007 12.027 C 15.150 12.027,15.316 12.043,15.525 12.170 M23.474 12.140 C 23.594 12.203,23.758 12.359,23.836 12.489 C 23.977 12.719,23.979 12.961,23.980 25.986 C 23.980 40.523,24.011 39.522,23.556 39.857 C 23.378 39.987,23.220 40.006,22.094 40.026 C 20.670 40.052,20.434 39.996,20.168 39.565 C 20.021 39.328,20.020 39.233,20.020 26.039 C 20.020 11.361,19.983 12.475,20.482 12.170 C 20.691 12.043,20.856 12.027,21.985 12.027 C 22.988 12.027,23.300 12.051,23.474 12.140 M31.467 12.140 C 31.588 12.203,31.751 12.359,31.830 12.489 C 31.970 12.719,31.973 12.962,31.973 26.025 C 31.973 39.233,31.972 39.328,31.826 39.565 C 31.571 39.978,31.330 40.040,29.997 40.040 C 28.723 40.040,28.578 40.007,28.233 39.638 L 28.050 39.442 28.031 26.098 C 28.010 11.346,27.974 12.476,28.475 12.170 C 28.684 12.043,28.850 12.027,29.979 12.027 C 30.981 12.027,31.293 12.051,31.467 12.140 " fill="#2B2C30" stroke="none" fill-rule="evenodd"></path></svg>