<svg width="61" height="53" viewBox="0 0 61 53" fill="none" xmlns="http://www.w3.org/2000/svg"><path d="M29.827 0.135 C 29.652 0.200,29.369 0.369,29.198 0.508 C 28.994 0.674,23.925 9.134,14.585 24.895 C 6.720 38.169,0.220 49.181,0.142 49.368 C -0.259 50.329,0.241 51.477,1.244 51.896 C 1.580 52.037,4.663 52.053,30.500 52.053 C 56.337 52.053,59.420 52.037,59.756 51.896 C 60.259 51.686,60.581 51.376,60.808 50.884 C 61.059 50.341,61.046 49.765,60.770 49.190 C 60.250 48.105,32.150 0.857,31.848 0.560 C 31.328 0.048,30.514 -0.123,29.827 0.135 " fill="#2B2C30" stroke="none" fill-rule="evenodd"></path></svg>