<svg width="56" height="56" viewBox="0 0 56 56" fill="none" xmlns="http://www.w3.org/2000/svg"><path d="M25.947 0.064 C 23.466 0.248,20.417 0.903,18.377 1.689 C 17.565 2.002,17.340 2.229,17.343 2.728 C 17.346 3.151,19.698 8.651,20.018 8.983 C 20.349 9.327,20.658 9.316,21.980 8.915 C 23.354 8.499,24.566 8.256,26.093 8.090 C 26.764 8.017,27.404 7.909,27.516 7.849 C 27.991 7.595,28.009 7.441,27.980 3.864 L 27.953 0.545 27.649 0.272 C 27.329 -0.013,27.198 -0.029,25.947 0.064 M38.373 2.590 C 38.171 2.782,37.801 3.601,36.913 5.819 C 35.769 8.673,35.726 8.804,35.828 9.144 C 35.960 9.583,35.969 9.590,37.103 10.177 C 38.270 10.779,39.860 11.833,40.833 12.648 C 41.244 12.992,41.685 13.314,41.812 13.363 C 42.345 13.568,42.514 13.441,44.917 11.036 C 47.712 8.239,47.746 8.174,46.824 7.291 C 45.210 5.745,42.624 3.982,40.299 2.841 C 39.102 2.253,38.773 2.210,38.373 2.590 M7.833 8.686 C 7.576 8.784,6.562 9.919,5.619 11.163 C 4.201 13.034,2.333 16.371,2.333 17.034 C 2.333 17.616,2.550 17.744,5.647 18.998 C 8.567 20.181,9.009 20.305,9.414 20.054 C 9.527 19.984,9.876 19.444,10.188 18.853 C 10.909 17.493,11.750 16.226,12.605 15.213 C 13.838 13.754,13.871 13.855,11.309 11.266 C 10.197 10.142,9.133 9.100,8.946 8.951 C 8.559 8.642,8.183 8.553,7.833 8.686 M50.073 18.573 C 48.533 19.232,47.158 19.875,47.017 20.002 C 46.681 20.303,46.676 20.798,47.000 21.747 C 47.481 23.155,47.973 25.735,47.973 26.843 C 47.973 27.022,48.037 27.292,48.115 27.443 C 48.396 27.986,48.493 28.000,51.987 28.000 C 55.522 28.000,55.619 27.985,55.863 27.401 C 56.096 26.842,55.740 23.619,55.196 21.373 C 54.805 19.757,54.144 17.862,53.878 17.596 C 53.457 17.176,53.154 17.254,50.073 18.573 M0.317 28.317 C -0.042 28.676,-0.041 28.670,0.093 30.240 C 0.669 36.986,3.488 43.077,8.212 47.787 C 12.689 52.249,18.088 54.890,24.547 55.778 C 26.775 56.084,30.347 55.995,32.760 55.573 C 38.091 54.642,42.872 52.289,46.947 48.591 L 47.927 47.702 47.973 51.501 C 48.008 54.344,48.050 55.353,48.139 55.509 C 48.416 55.993,48.553 56.009,52.127 55.980 L 55.436 55.953 55.695 55.695 L 55.953 55.436 55.978 43.725 L 56.002 32.013 44.376 32.013 C 31.741 32.013,32.369 31.987,32.125 32.524 C 32.045 32.699,32.013 33.691,32.013 35.989 C 32.013 39.415,32.037 39.616,32.475 39.851 C 32.592 39.913,34.609 39.947,38.307 39.947 C 41.416 39.947,43.960 39.973,43.960 40.006 C 43.960 40.151,42.862 41.386,41.892 42.333 C 38.704 45.446,34.615 47.384,30.193 47.878 C 28.955 48.016,26.670 47.993,25.424 47.830 C 17.290 46.764,10.586 40.813,8.595 32.891 C 8.309 31.755,8.027 29.969,8.027 29.300 C 8.027 29.095,7.967 28.784,7.894 28.610 C 7.644 28.012,7.568 28.000,3.915 28.000 L 0.635 28.000 0.317 28.317 " fill="#2B2C30" stroke="none" fill-rule="evenodd"></path></svg>