<svg width="56" height="56" viewBox="0 0 56 56" fill="none" xmlns="http://www.w3.org/2000/svg"><path d="M25.760 0.101 C 19.206 0.602,12.923 3.509,8.211 8.221 C 3.899 12.533,1.217 17.887,0.266 24.080 C -0.030 26.011,-0.036 29.962,0.255 31.828 C 1.452 39.508,5.165 45.810,11.183 50.377 C 14.901 53.197,19.185 54.968,24.172 55.745 C 25.228 55.910,25.852 55.942,28.000 55.942 C 30.148 55.942,30.772 55.910,31.828 55.745 C 38.632 54.685,44.416 51.617,48.757 46.767 C 52.604 42.467,54.828 37.714,55.745 31.828 C 56.030 29.999,56.030 26.001,55.745 24.172 C 54.820 18.239,52.551 13.420,48.645 9.100 L 47.717 8.073 51.509 8.027 C 54.345 7.992,55.353 7.950,55.509 7.861 C 55.993 7.584,56.009 7.447,55.980 3.873 L 55.953 0.564 55.695 0.305 L 55.436 0.047 43.725 0.022 L 32.013 -0.002 32.013 11.675 L 32.013 23.352 32.331 23.669 L 32.648 23.987 35.947 23.985 C 39.573 23.984,39.598 23.980,39.877 23.425 C 40.026 23.127,40.040 22.648,40.040 17.564 L 40.040 12.028 40.717 12.583 C 42.299 13.881,44.098 15.970,45.160 17.745 C 47.714 22.012,48.577 27.206,47.553 32.145 C 46.326 38.061,42.345 43.183,36.848 45.916 C 34.844 46.913,32.526 47.601,30.242 47.878 C 29.225 48.001,26.775 48.001,25.758 47.878 C 21.900 47.411,18.080 45.783,15.260 43.404 C 10.611 39.482,8.028 33.981,8.028 28.000 C 8.028 23.397,9.591 18.976,12.481 15.400 C 13.155 14.566,14.942 12.811,15.727 12.213 C 18.788 9.879,22.320 8.479,26.070 8.112 C 26.695 8.051,27.321 7.943,27.462 7.872 C 27.983 7.609,28.000 7.488,28.000 4.024 C 28.000 2.189,27.962 0.751,27.909 0.613 C 27.798 0.321,27.291 -0.004,26.973 0.014 C 26.845 0.021,26.299 0.060,25.760 0.101 " fill="#2B2C30" stroke="none" fill-rule="evenodd"></path></svg>