<svg width="40" height="48" viewBox="0 0 40 48" fill="none" xmlns="http://www.w3.org/2000/svg"><path d="M22.478 0.150 C 22.181 0.363,12.184 11.395,12.083 11.620 C 11.980 11.850,11.978 12.050,12.075 12.327 C 12.169 12.597,22.247 23.719,22.550 23.887 C 22.977 24.124,23.523 23.948,23.850 23.467 L 24.000 23.247 24.000 19.623 L 24.000 16.000 28.000 16.000 L 32.000 16.000 32.000 28.000 L 32.000 40.000 20.000 40.000 L 8.000 40.000 8.000 24.382 C 8.000 9.302,7.996 8.757,7.876 8.532 C 7.808 8.405,7.636 8.233,7.493 8.151 C 7.242 8.007,7.174 8.002,5.433 8.002 C 3.381 8.002,2.992 8.055,2.200 8.443 C 1.833 8.623,1.567 8.822,1.198 9.194 C 0.621 9.776,0.323 10.290,0.132 11.040 C 0.002 11.546,0.000 11.841,0.000 28.000 C 0.000 44.159,0.002 44.454,0.132 44.960 C 0.324 45.713,0.620 46.225,1.198 46.802 C 1.775 47.380,2.287 47.676,3.040 47.868 C 3.546 47.998,3.841 48.000,20.000 48.000 C 36.159 48.000,36.454 47.998,36.960 47.868 C 37.713 47.676,38.225 47.380,38.802 46.802 C 39.380 46.225,39.676 45.713,39.868 44.960 C 39.998 44.454,40.000 44.159,40.000 28.000 C 40.000 11.841,39.998 11.546,39.868 11.040 C 39.677 10.290,39.379 9.776,38.802 9.194 C 38.433 8.822,38.167 8.623,37.800 8.443 C 36.880 7.993,37.050 8.002,30.183 8.001 L 24.000 8.000 24.000 4.377 L 24.000 0.753 23.848 0.528 C 23.521 0.043,22.875 -0.136,22.478 0.150 " fill="#2B2C30" stroke="none" fill-rule="evenodd"></path></svg>