<svg width="56" height="56" viewBox="0 0 56 56" fill="none" xmlns="http://www.w3.org/2000/svg"><path d="M32.013 11.675 L 32.013 23.352 32.331 23.669 L 32.648 23.987 35.929 23.987 C 39.420 23.987,39.616 23.964,39.851 23.525 C 39.913 23.408,39.947 21.391,39.947 17.693 C 39.947 14.584,39.973 12.040,40.006 12.040 C 40.152 12.040,41.387 13.139,42.331 14.108 C 43.925 15.745,44.929 17.153,45.921 19.141 C 46.188 19.676,46.493 20.207,46.598 20.322 C 46.997 20.756,47.174 20.719,50.263 19.553 C 53.556 18.310,53.583 18.298,53.753 17.980 C 53.957 17.599,53.824 17.093,53.177 15.793 C 51.818 13.061,50.493 11.150,48.197 8.610 L 47.669 8.027 51.371 8.027 C 55.450 8.027,55.579 8.011,55.857 7.472 C 55.988 7.220,56.003 6.762,55.980 3.873 L 55.953 0.564 55.695 0.305 L 55.436 0.047 43.725 0.022 L 32.013 -0.002 32.013 11.675 M16.147 2.643 C 13.802 3.726,11.370 5.321,9.427 7.049 C 8.718 7.679,8.594 7.865,8.590 8.305 C 8.587 8.606,8.759 8.801,10.992 11.035 C 13.292 13.334,13.413 13.440,13.751 13.440 C 14.203 13.440,14.352 13.357,15.209 12.624 C 16.221 11.758,17.678 10.809,19.048 10.122 C 19.703 9.794,20.305 9.431,20.386 9.316 C 20.669 8.911,20.563 8.481,19.451 5.532 C 18.276 2.415,18.123 2.147,17.522 2.147 C 17.354 2.147,16.743 2.367,16.147 2.643 M2.498 16.941 C 2.170 17.125,2.059 17.349,1.539 18.866 C 0.771 21.106,0.295 23.367,0.097 25.713 C -0.041 27.339,-0.043 27.323,0.317 27.683 L 0.635 28.000 3.934 28.000 C 7.022 27.999,7.252 27.988,7.527 27.820 C 7.890 27.599,7.993 27.283,8.074 26.146 C 8.159 24.944,8.594 22.899,9.048 21.564 C 9.256 20.952,9.427 20.363,9.427 20.255 C 9.427 19.854,9.163 19.536,8.616 19.277 C 6.646 18.344,3.271 16.868,3.036 16.837 C 2.880 16.815,2.638 16.863,2.498 16.941 M48.479 28.176 C 48.100 28.407,48.013 28.674,47.887 29.993 C 47.750 31.431,47.416 32.998,46.948 34.389 C 46.285 36.364,46.138 36.189,49.872 37.870 C 51.497 38.602,52.913 39.200,53.018 39.200 C 53.323 39.200,53.746 38.938,53.887 38.662 C 54.145 38.157,54.873 35.931,55.151 34.800 C 55.734 32.426,56.106 29.182,55.863 28.599 C 55.619 28.015,55.524 28.000,51.968 28.000 C 49.001 28.001,48.746 28.014,48.479 28.176 M5.512 36.489 C 3.522 37.247,2.502 37.683,2.341 37.843 C 1.935 38.249,2.009 38.597,2.865 40.325 C 3.991 42.599,5.227 44.465,6.886 46.399 C 7.763 47.421,8.088 47.583,8.661 47.280 C 9.029 47.086,13.314 42.739,13.392 42.482 C 13.521 42.053,13.352 41.680,12.644 40.833 C 11.665 39.663,10.730 38.233,10.072 36.901 C 9.764 36.278,9.433 35.697,9.337 35.610 C 8.923 35.236,8.614 35.307,5.512 36.489 M41.615 42.724 C 41.481 42.813,40.956 43.223,40.449 43.633 C 39.274 44.585,38.325 45.191,36.804 45.962 C 35.517 46.614,35.325 46.796,35.350 47.348 C 35.364 47.666,37.422 53.177,37.666 53.549 C 37.848 53.827,38.230 53.974,38.592 53.906 C 39.062 53.818,41.792 52.423,42.953 51.678 C 44.697 50.559,47.021 48.709,47.293 48.222 C 47.356 48.111,47.408 47.874,47.410 47.695 C 47.413 47.394,47.241 47.199,45.008 44.965 C 42.668 42.625,42.593 42.560,42.231 42.560 C 42.027 42.561,41.750 42.634,41.615 42.724 M19.613 46.830 C 19.256 47.169,16.800 52.599,16.800 53.049 C 16.800 53.558,17.081 53.803,18.132 54.212 C 20.398 55.094,23.009 55.672,25.796 55.908 C 27.166 56.023,27.422 55.991,27.732 55.661 L 27.953 55.425 27.980 52.164 C 28.010 48.533,27.991 48.399,27.409 48.132 C 27.247 48.057,26.714 47.968,26.227 47.933 C 24.934 47.841,23.090 47.458,21.676 46.986 C 20.215 46.499,19.980 46.481,19.613 46.830 " fill="#2B2C30" stroke="none" fill-rule="evenodd"></path></svg>