<svg width="56" height="56" viewBox="0 0 56 56" fill="none" xmlns="http://www.w3.org/2000/svg"><path d="M26.180 0.055 C 23.641 0.313,22.498 0.501,20.847 0.936 C 11.283 3.456,3.709 10.914,1.038 20.440 C 0.317 23.010,-0.191 26.754,0.089 27.430 C 0.321 27.990,0.393 28.000,4.063 28.000 L 7.388 28.000 7.656 27.732 C 7.966 27.422,7.978 27.375,8.118 25.947 C 9.034 16.569,16.538 9.092,26.013 8.114 C 27.453 7.965,29.952 8.050,31.360 8.296 C 35.234 8.972,38.955 10.828,41.650 13.430 L 42.187 13.948 39.854 16.288 C 37.762 18.386,37.520 18.660,37.520 18.932 C 37.520 19.340,37.732 19.726,38.031 19.862 C 38.214 19.945,40.172 19.973,45.830 19.973 L 53.384 19.973 53.689 19.701 L 53.993 19.429 53.993 11.760 L 53.993 4.091 53.689 3.819 C 53.455 3.610,53.293 3.547,52.993 3.547 C 52.606 3.547,52.574 3.575,50.262 5.880 C 48.975 7.163,47.891 8.213,47.854 8.213 C 47.817 8.213,47.377 7.831,46.876 7.363 C 42.765 3.521,37.356 1.013,31.500 0.234 C 30.432 0.092,26.969 -0.024,26.180 0.055 M29.892 25.409 L 25.853 29.444 24.009 27.602 C 22.103 25.698,21.872 25.533,21.327 25.679 C 20.960 25.778,19.346 27.395,19.242 27.769 C 19.081 28.344,19.204 28.497,22.333 31.617 L 25.352 34.627 25.812 34.627 L 26.271 34.627 31.476 29.422 L 36.680 24.218 36.680 23.772 C 36.680 23.339,36.658 23.304,35.865 22.481 C 34.977 21.561,34.702 21.373,34.237 21.373 C 33.959 21.373,33.569 21.735,29.892 25.409 M48.511 28.146 C 48.148 28.343,48.006 28.686,47.933 29.540 C 47.310 36.805,42.996 43.026,36.437 46.120 C 34.608 46.983,32.355 47.622,30.242 47.878 C 29.088 48.017,26.682 47.995,25.415 47.832 C 21.316 47.306,17.491 45.507,14.327 42.616 L 13.767 42.105 16.083 39.782 C 18.228 37.631,18.404 37.430,18.452 37.072 C 18.499 36.722,18.473 36.654,18.175 36.356 L 17.845 36.027 10.242 36.027 C 2.714 36.027,2.636 36.029,2.395 36.218 C 2.261 36.324,2.106 36.565,2.051 36.755 C 1.982 36.992,1.959 39.414,1.978 44.504 L 2.007 51.909 2.311 52.181 C 2.545 52.390,2.707 52.453,3.007 52.453 C 3.394 52.453,3.426 52.425,5.750 50.108 L 8.101 47.764 9.067 48.630 C 13.566 52.665,18.510 54.948,24.547 55.779 C 26.159 56.001,29.739 56.002,31.391 55.782 C 34.856 55.321,37.657 54.455,40.717 52.900 C 46.002 50.213,50.346 45.837,53.007 40.518 C 54.730 37.074,55.907 32.570,55.907 29.420 C 55.907 27.962,56.010 27.999,51.968 28.004 C 49.318 28.007,48.723 28.031,48.511 28.146 " fill="#2B2C30" stroke="none" fill-rule="evenodd"></path></svg>