<svg width="52" height="52" viewBox="0 0 52 52" fill="none" xmlns="http://www.w3.org/2000/svg"><path d="M25.523 0.160 C 25.223 0.344,14.422 10.127,14.186 10.428 C 13.997 10.670,13.974 11.070,14.126 11.438 C 14.345 11.968,14.266 11.960,19.365 11.960 L 24.005 11.960 24.027 23.710 L 24.050 35.461 24.333 35.714 L 24.616 35.967 26.000 35.967 L 27.384 35.967 27.667 35.714 L 27.950 35.461 27.973 23.710 L 27.995 11.960 32.639 11.960 C 36.844 11.960,37.307 11.946,37.531 11.813 C 37.975 11.551,38.124 10.824,37.814 10.428 C 37.578 10.127,26.777 0.344,26.477 0.160 C 26.334 0.072,26.119 0.001,26.000 0.001 C 25.881 0.001,25.666 0.072,25.523 0.160 M3.073 28.114 C 2.341 28.292,1.804 28.605,1.207 29.201 C 0.595 29.812,0.259 30.412,0.097 31.183 C 0.029 31.502,0.000 34.194,0.000 40.026 C 0.000 49.246,-0.019 48.896,0.534 49.932 C 1.048 50.898,2.161 51.699,3.284 51.912 C 3.930 52.034,48.070 52.034,48.716 51.912 C 50.296 51.612,51.622 50.287,51.913 48.717 C 52.041 48.029,52.030 31.782,51.902 31.183 C 51.737 30.415,51.399 29.811,50.791 29.200 C 50.182 28.588,49.582 28.252,48.811 28.090 C 48.121 27.945,32.879 27.957,32.595 28.103 C 32.480 28.162,32.305 28.320,32.205 28.455 C 32.026 28.695,32.023 28.787,31.980 34.059 L 31.937 39.420 31.726 39.643 C 31.611 39.766,31.377 39.906,31.206 39.953 C 31.018 40.005,28.975 40.039,26.000 40.039 C 23.025 40.039,20.982 40.005,20.794 39.953 C 20.623 39.906,20.389 39.766,20.274 39.643 L 20.063 39.420 20.020 34.059 C 19.977 28.787,19.974 28.695,19.795 28.455 C 19.695 28.320,19.520 28.162,19.405 28.103 C 19.106 27.949,3.709 27.960,3.073 28.114 " fill="#2B2C30" stroke="none" fill-rule="evenodd"></path></svg>