<svg width="56" height="40" viewBox="0 0 56 40" fill="none" xmlns="http://www.w3.org/2000/svg"><path d="M18.558 0.140 C 15.045 0.807,12.403 3.677,12.051 7.209 C 11.720 10.534,13.460 13.675,16.473 15.190 C 20.247 17.088,24.949 15.596,27.008 11.847 C 29.242 7.780,27.559 2.720,23.319 0.755 C 22.890 0.557,22.267 0.325,21.933 0.240 C 21.076 0.020,19.441 -0.028,18.558 0.140 M40.693 8.172 C 38.567 8.628,36.766 10.393,36.211 12.564 C 35.532 15.218,36.734 17.924,39.207 19.308 C 40.770 20.183,43.230 20.183,44.793 19.308 C 48.383 17.298,49.066 12.674,46.199 9.791 C 44.754 8.338,42.713 7.738,40.693 8.172 M10.650 20.214 C 9.961 20.400,9.145 20.850,8.752 21.263 C 8.301 21.736,0.984 31.560,0.645 32.146 C 0.049 33.178,0.000 33.517,0.000 36.589 L 0.000 39.372 0.242 39.660 L 0.483 39.947 19.986 39.947 L 39.489 39.947 39.718 39.700 L 39.947 39.453 39.947 36.483 C 39.947 33.045,39.953 33.079,39.015 31.651 C 38.287 30.541,31.565 21.593,31.179 21.218 C 30.776 20.827,29.936 20.387,29.256 20.210 C 28.457 20.001,11.426 20.006,10.650 20.214 M38.360 24.116 C 38.360 24.136,39.472 25.617,40.831 27.406 C 42.190 29.196,43.429 30.912,43.584 31.220 C 43.739 31.528,43.908 32.006,43.960 32.283 C 44.012 32.563,44.053 34.372,44.053 36.366 L 44.053 39.947 49.881 39.947 L 55.709 39.947 55.855 39.739 C 55.977 39.565,56.000 39.152,56.000 37.124 C 56.000 34.405,55.948 34.116,55.289 33.199 C 54.663 32.326,48.426 24.919,48.123 24.688 C 47.961 24.564,47.640 24.378,47.411 24.273 C 47.011 24.092,46.812 24.084,42.677 24.082 C 40.303 24.081,38.360 24.096,38.360 24.116 " fill="#2B2C30" stroke="none" fill-rule="evenodd"></path></svg>