<svg width="57" height="57" viewBox="0 0 57 57" fill="none" xmlns="http://www.w3.org/2000/svg"><path d="M26.600 0.060 C 18.234 0.684,10.724 4.757,5.720 11.385 C 2.833 15.208,1.052 19.520,0.259 24.604 C -0.031 26.466,-0.031 30.534,0.259 32.396 C 1.478 40.216,5.255 46.627,11.383 51.276 C 15.167 54.147,19.528 55.950,24.604 56.741 C 26.466 57.031,30.534 57.031,32.396 56.741 C 39.322 55.661,45.209 52.539,49.627 47.602 C 53.544 43.226,55.807 38.388,56.741 32.396 C 57.031 30.534,57.031 26.466,56.741 24.604 C 55.950 19.528,54.147 15.167,51.276 11.383 C 46.564 5.172,39.828 1.264,32.063 0.236 C 30.950 0.089,27.644 -0.018,26.600 0.060 M30.426 14.522 C 32.353 15.206,33.759 16.616,34.349 18.457 C 34.659 19.422,34.705 20.883,34.457 21.823 C 33.253 26.374,27.618 27.924,24.312 24.614 C 23.072 23.373,22.515 22.031,22.515 20.287 C 22.515 17.516,24.324 15.162,27.014 14.432 C 27.917 14.187,29.609 14.231,30.426 14.522 M37.623 31.499 L 40.565 34.450 40.565 37.221 L 40.565 39.992 40.288 40.302 L 40.011 40.612 28.596 40.637 C 18.572 40.659,17.144 40.645,16.878 40.519 C 16.309 40.249,16.301 40.201,16.329 37.440 C 16.344 36.060,16.397 34.821,16.447 34.685 C 16.549 34.411,21.920 28.967,22.372 28.680 C 22.646 28.506,22.895 28.499,28.669 28.523 L 34.680 28.547 37.623 31.499 " fill="#2B2C30" stroke="none" fill-rule="evenodd"></path></svg>