<svg width="57" height="54" viewBox="0 0 57 54" fill="none" xmlns="http://www.w3.org/2000/svg"><path d="M26.125 0.110 C 16.761 0.894,8.421 6.218,3.731 14.407 C 2.118 17.223,0.913 20.613,0.384 23.819 C -1.289 33.956,2.668 44.272,10.678 50.660 C 11.561 51.364,13.438 52.675,13.717 52.782 C 13.795 52.812,13.614 52.150,13.242 51.044 C 11.831 46.853,11.009 42.160,11.285 39.882 C 11.373 39.159,11.465 38.854,11.792 38.207 C 13.300 35.218,15.614 32.941,18.799 31.312 C 21.072 30.150,23.078 29.525,27.676 28.550 C 29.966 28.064,31.177 27.737,31.725 27.457 C 32.193 27.219,32.799 26.526,33.130 25.852 C 33.358 25.389,33.392 25.204,33.392 24.462 C 33.392 23.692,33.361 23.542,33.078 22.944 C 32.721 22.190,32.334 21.655,31.358 20.567 C 30.631 19.758,29.031 17.585,27.987 15.990 C 25.753 12.575,25.651 10.190,27.599 6.888 C 28.973 4.559,30.892 2.855,33.865 1.323 L 34.950 0.765 34.599 0.670 C 33.945 0.495,31.879 0.196,30.647 0.098 C 29.238 -0.015,27.558 -0.010,26.125 0.110 M37.607 2.771 C 32.443 6.224,30.801 9.317,32.394 12.593 C 33.128 14.103,34.484 15.424,38.027 18.083 C 41.424 20.632,42.620 21.697,43.763 23.187 C 45.048 24.861,45.686 27.105,45.419 29.009 C 45.079 31.428,43.681 32.923,38.523 36.379 C 35.546 38.373,34.762 38.955,33.786 39.894 C 31.989 41.623,31.323 43.197,31.669 44.895 C 32.156 47.285,34.353 49.832,37.790 51.992 C 38.782 52.615,41.106 53.770,41.369 53.770 C 41.805 53.770,44.956 51.744,46.550 50.439 C 51.796 46.144,55.354 40.042,56.518 33.345 C 57.131 29.817,57.041 25.749,56.275 22.325 C 55.047 16.834,52.396 12.073,48.390 8.165 C 46.115 5.945,43.987 4.422,41.233 3.042 C 40.163 2.505,38.998 1.995,38.843 1.995 C 38.802 1.995,38.246 2.344,37.607 2.771 " fill="#2B2C30" stroke="none" fill-rule="evenodd"></path></svg>