<svg width="53" height="48" viewBox="0 0 53 48" fill="none" xmlns="http://www.w3.org/2000/svg"><path d="M0.509 0.138 C -0.013 0.421,-0.000 0.267,-0.000 6.400 L 0.000 12.013 24.027 12.013 L 48.053 12.013 48.053 6.400 C 48.053 0.241,48.068 0.414,47.526 0.134 C 47.296 0.015,44.630 0.000,24.009 0.004 C 3.609 0.007,0.721 0.023,0.509 0.138 M28.002 6.007 L 28.002 8.038 26.014 8.038 L 24.027 8.038 24.027 6.007 L 24.027 3.975 26.014 3.975 L 28.002 3.975 28.002 6.007 M36.040 6.007 L 36.040 8.038 34.053 8.038 L 32.065 8.038 32.065 6.007 L 32.065 3.975 34.053 3.975 L 36.040 3.975 36.040 6.007 M44.058 5.985 L 44.034 7.994 42.069 8.018 L 40.103 8.042 40.103 6.008 L 40.103 3.975 42.092 3.975 L 44.082 3.975 44.058 5.985 M0.000 27.609 C 0.000 40.373,-0.034 39.591,0.527 39.881 C 0.751 39.997,1.555 40.015,6.400 40.015 L 12.013 40.015 12.013 34.008 L 12.013 28.002 17.004 28.002 L 21.995 28.002 21.995 26.011 L 21.995 24.021 31.425 24.048 L 40.854 24.075 41.645 24.312 C 44.631 25.209,46.844 27.285,47.839 30.122 L 48.040 30.696 48.047 23.342 L 48.053 15.988 24.027 15.988 L 0.000 15.988 0.000 27.609 M26.058 29.989 L 26.058 31.977 21.873 31.977 L 17.687 31.977 17.214 32.223 C 16.344 32.678,15.940 33.747,16.291 34.666 C 16.474 35.145,17.091 35.729,17.547 35.856 C 17.766 35.917,19.343 35.951,21.975 35.951 L 26.062 35.952 26.038 37.961 L 26.014 39.971 21.730 40.015 L 17.446 40.059 17.113 40.266 C 15.798 41.084,15.877 43.012,17.256 43.750 C 17.618 43.943,17.677 43.946,21.840 43.973 L 26.058 43.999 26.058 45.987 L 26.058 47.976 31.778 47.940 C 37.903 47.902,37.809 47.908,39.239 47.430 C 41.643 46.626,43.841 44.714,44.996 42.422 L 45.230 41.958 47.900 41.956 C 50.397 41.955,50.597 41.943,50.968 41.774 C 51.463 41.550,51.726 41.308,51.971 40.854 C 52.149 40.522,52.163 40.359,52.188 38.179 C 52.220 35.531,52.161 35.146,51.643 34.613 C 51.061 34.014,51.028 34.008,47.988 34.008 L 45.255 34.008 44.913 33.343 C 43.527 30.649,40.814 28.656,37.817 28.131 C 37.219 28.027,36.016 28.002,31.568 28.002 L 26.058 28.002 26.058 29.989 " fill="#2B2C30" stroke="none" fill-rule="evenodd"></path></svg>