<svg width="48" height="49" viewBox="0 0 48 49" fill="none" xmlns="http://www.w3.org/2000/svg"><path d="M32.520 0.083 C 27.762 0.624,23.625 3.481,21.520 7.679 C 19.888 10.933,19.555 14.757,20.613 18.105 L 20.814 18.743 10.985 28.592 C 3.584 36.007,1.090 38.553,0.890 38.898 C -0.591 41.441,-0.161 44.519,1.945 46.448 C 3.863 48.206,6.665 48.530,8.960 47.260 C 9.509 46.956,10.408 46.082,19.440 37.075 L 29.320 27.222 29.800 27.378 C 30.982 27.763,32.072 27.932,33.640 27.976 C 34.964 28.012,35.293 27.995,36.191 27.843 C 39.311 27.312,41.956 25.930,44.059 23.729 C 47.344 20.291,48.650 15.712,47.677 11.045 C 47.494 10.172,47.373 9.951,46.990 9.791 C 46.404 9.546,46.472 9.488,41.919 14.041 C 37.410 18.550,37.539 18.440,36.904 18.285 C 36.657 18.224,29.998 11.649,29.794 11.264 C 29.648 10.988,29.648 10.612,29.795 10.336 C 29.858 10.217,31.766 8.266,34.035 6.000 C 36.907 3.132,38.187 1.801,38.247 1.620 C 38.347 1.314,38.240 0.897,38.005 0.685 C 37.509 0.236,34.284 -0.118,32.520 0.083 " fill="#2B2C30" stroke="none" fill-rule="evenodd"></path></svg>