<svg width="56" height="56" viewBox="0 0 56 56" fill="none" xmlns="http://www.w3.org/2000/svg"><path d="M0.607 0.088 C 0.504 0.130,0.336 0.258,0.233 0.372 C 0.051 0.575,0.046 0.729,0.022 7.251 L -0.004 13.922 0.316 14.241 C 0.580 14.505,0.704 14.560,1.036 14.560 C 1.436 14.560,1.449 14.549,3.660 12.345 L 5.882 10.130 8.868 13.114 L 11.854 16.099 13.976 13.976 L 16.099 11.854 13.114 8.868 L 10.130 5.882 12.345 3.660 C 14.549 1.449,14.560 1.436,14.560 1.036 C 14.560 0.704,14.505 0.580,14.243 0.317 L 13.925 0.000 7.359 0.006 C 3.748 0.009,0.709 0.046,0.607 0.088 M42.036 0.091 C 41.698 0.229,41.440 0.645,41.440 1.054 C 41.440 1.420,41.499 1.490,43.654 3.657 L 45.868 5.884 42.885 8.869 L 39.901 11.854 42.024 13.976 L 44.146 16.099 47.131 13.115 L 50.116 10.132 52.343 12.346 C 54.531 14.522,54.576 14.560,54.957 14.560 C 55.252 14.560,55.416 14.496,55.649 14.288 L 55.953 14.015 55.953 7.290 L 55.953 0.564 55.695 0.305 L 55.436 0.047 48.835 0.028 C 45.204 0.018,42.145 0.046,42.036 0.091 M17.127 16.208 C 16.717 16.425,16.432 16.708,16.231 17.100 C 16.059 17.434,16.053 17.809,16.053 28.001 C 16.053 37.537,16.068 38.585,16.204 38.855 C 16.417 39.276,16.698 39.563,17.100 39.769 C 17.434 39.941,17.809 39.947,28.000 39.947 C 38.191 39.947,38.566 39.941,38.900 39.769 C 39.302 39.563,39.583 39.276,39.796 38.855 C 39.932 38.585,39.947 37.537,39.947 28.001 C 39.947 17.809,39.941 17.434,39.769 17.100 C 39.563 16.698,39.276 16.417,38.855 16.204 C 38.585 16.068,37.540 16.054,27.981 16.057 C 18.524 16.060,17.377 16.076,17.127 16.208 M8.845 42.908 L 5.884 45.869 3.657 43.654 C 1.469 41.478,1.424 41.440,1.043 41.440 C 0.748 41.440,0.584 41.504,0.351 41.712 L 0.047 41.985 0.047 48.710 L 0.047 55.436 0.305 55.695 L 0.564 55.953 7.290 55.953 L 14.015 55.953 14.288 55.649 C 14.496 55.416,14.560 55.252,14.560 54.957 C 14.560 54.576,14.522 54.531,12.346 52.343 L 10.132 50.116 13.092 47.154 C 14.721 45.525,16.053 44.150,16.053 44.099 C 16.053 43.977,12.021 39.947,11.899 39.947 C 11.848 39.947,10.474 41.279,8.845 42.908 M41.976 41.977 C 40.860 43.094,39.947 44.050,39.947 44.100 C 39.947 44.151,41.279 45.525,42.908 47.154 L 45.868 50.116 43.654 52.343 C 41.478 54.531,41.440 54.576,41.440 54.957 C 41.440 55.252,41.504 55.416,41.712 55.649 L 41.985 55.953 48.710 55.953 L 55.436 55.953 55.695 55.695 L 55.953 55.436 55.953 48.710 L 55.953 41.985 55.649 41.712 C 55.416 41.504,55.252 41.440,54.957 41.440 C 54.576 41.440,54.531 41.478,52.343 43.654 L 50.116 45.868 47.154 42.908 C 45.525 41.279,44.150 39.947,44.099 39.947 C 44.047 39.947,43.092 40.861,41.976 41.977 " fill="#2B2C30" stroke="none" fill-rule="evenodd"></path></svg>