<svg width="61" height="61" viewBox="0 0 61 61" fill="none" xmlns="http://www.w3.org/2000/svg"><path d="M2.160 2.160 L 0.000 4.320 4.040 8.360 L 8.079 12.401 5.877 14.613 C 4.499 15.997,3.649 16.929,3.606 17.101 C 3.513 17.480,3.670 17.892,4.004 18.141 C 4.281 18.348,4.378 18.351,10.921 18.351 C 17.986 18.351,17.874 18.358,18.203 17.862 C 18.411 17.549,18.480 4.931,18.277 4.312 C 18.114 3.815,17.583 3.487,17.125 3.601 C 16.922 3.651,16.112 4.385,14.613 5.877 L 12.401 8.079 8.360 4.040 L 4.320 0.000 2.160 2.160 M52.639 4.040 L 48.600 8.079 46.387 5.881 C 45.170 4.672,44.071 3.652,43.944 3.613 C 43.817 3.575,43.554 3.596,43.360 3.660 C 42.664 3.890,42.700 3.493,42.700 10.989 L 42.700 17.764 42.968 18.032 L 43.236 18.300 50.011 18.300 C 57.492 18.300,57.111 18.334,57.335 17.653 C 57.416 17.408,57.417 17.230,57.338 17.018 C 57.278 16.857,56.259 15.752,55.074 14.564 L 52.919 12.403 56.960 8.361 L 61.000 4.319 58.839 2.160 L 56.678 0.001 52.639 4.040 M19.343 18.662 C 19.100 18.808,18.802 19.109,18.657 19.356 L 18.402 19.792 18.402 30.500 L 18.402 41.208 18.659 41.646 C 18.809 41.903,19.097 42.191,19.354 42.341 L 19.792 42.598 30.500 42.598 L 41.208 42.598 41.646 42.341 C 41.903 42.191,42.191 41.903,42.341 41.646 L 42.598 41.208 42.598 30.500 L 42.598 19.792 42.341 19.354 C 42.191 19.097,41.903 18.809,41.646 18.659 L 41.208 18.402 30.491 18.403 L 19.774 18.404 19.343 18.662 M3.995 42.853 C 3.727 43.041,3.519 43.633,3.613 43.944 C 3.652 44.071,4.672 45.170,5.881 46.387 L 8.079 48.599 4.040 52.640 L 0.000 56.680 2.160 58.840 L 4.320 61.000 8.360 56.960 L 12.401 52.921 14.613 55.119 C 15.830 56.328,16.929 57.348,17.056 57.387 C 17.183 57.425,17.446 57.404,17.640 57.340 C 18.336 57.110,18.300 57.507,18.300 50.011 L 18.300 43.236 18.032 42.968 L 17.764 42.700 10.989 42.700 C 5.125 42.700,4.184 42.721,3.995 42.853 M42.968 42.968 L 42.700 43.236 42.700 50.011 C 42.700 57.507,42.664 57.110,43.360 57.340 C 43.554 57.404,43.817 57.425,43.944 57.387 C 44.071 57.348,45.170 56.328,46.387 55.119 L 48.599 52.921 52.640 56.960 L 56.680 61.000 58.840 58.840 L 61.000 56.680 56.959 52.639 L 52.919 48.597 55.074 46.436 C 56.259 45.248,57.278 44.143,57.338 43.982 C 57.417 43.770,57.416 43.592,57.335 43.347 C 57.111 42.666,57.492 42.700,50.011 42.700 L 43.236 42.700 42.968 42.968 " fill="#2B2C30" stroke="none" fill-rule="evenodd"></path></svg>