<svg width="52" height="56" viewBox="0 0 52 56" fill="none" xmlns="http://www.w3.org/2000/svg"><path d="M22.533 0.097 C 19.209 0.477,16.001 2.436,14.114 5.238 C 13.208 6.583,12.728 7.666,12.325 9.270 C 12.116 10.103,12.096 10.335,12.093 11.917 C 12.091 13.270,12.124 13.812,12.247 14.387 C 13.156 18.650,16.122 21.986,20.224 23.358 C 21.516 23.791,22.539 23.951,24.007 23.951 C 25.475 23.951,26.497 23.791,27.791 23.358 C 31.379 22.157,34.143 19.398,35.366 15.797 C 35.827 14.437,35.922 13.794,35.922 12.003 C 35.922 10.723,35.886 10.193,35.761 9.622 C 34.866 5.524,32.137 2.311,28.250 0.779 C 26.649 0.148,24.417 -0.119,22.533 0.097 M25.785 6.276 C 26.758 6.585,27.497 7.043,28.269 7.817 C 30.012 9.564,30.485 12.251,29.443 14.487 C 28.116 17.333,24.957 18.672,21.996 17.642 C 21.110 17.334,20.494 16.938,19.758 16.202 C 16.648 13.092,17.893 7.763,22.065 6.323 C 22.839 6.056,23.361 5.985,24.269 6.023 C 24.832 6.046,25.313 6.127,25.785 6.276 M13.260 28.053 C 12.360 28.204,11.339 28.736,10.601 29.439 C 10.309 29.716,8.440 31.640,6.447 33.713 C 4.454 35.787,2.392 37.932,1.864 38.481 C 1.336 39.030,0.763 39.712,0.591 39.998 C -0.007 40.987,-0.000 40.911,-0.000 46.304 C -0.000 50.538,0.017 51.187,0.137 51.439 C 0.423 52.041,-0.623 52.000,14.421 52.000 L 27.993 52.000 27.993 49.010 L 27.993 46.020 16.987 46.020 L 5.980 46.020 5.980 44.434 L 5.980 42.848 10.248 38.414 L 14.517 33.979 23.972 33.976 L 33.428 33.973 34.510 35.082 L 35.591 36.192 37.751 34.093 L 39.910 31.995 38.307 30.396 C 36.975 29.068,36.608 28.751,36.140 28.525 C 35.011 27.979,35.405 27.995,23.920 28.007 C 18.176 28.012,13.379 28.033,13.260 28.053 M40.011 36.024 C 39.979 36.056,39.953 37.870,39.953 40.054 L 39.953 44.027 35.967 44.027 L 31.980 44.027 31.980 46.020 L 31.980 48.013 35.967 48.013 L 39.953 48.013 39.953 52.000 L 39.953 55.987 41.990 55.987 L 44.027 55.987 44.027 52.000 L 44.027 48.013 48.013 48.013 L 52.000 48.013 52.000 46.020 L 52.000 44.027 48.013 44.027 L 44.027 44.027 44.027 39.997 L 44.027 35.967 42.048 35.967 C 40.959 35.967,40.043 35.993,40.011 36.024 " fill="#2B2C30" stroke="none" fill-rule="evenodd"></path></svg>