<svg width="8" height="40" viewBox="0 0 8 40" fill="none" xmlns="http://www.w3.org/2000/svg"><path d="M3.713 0.014 C 2.581 0.130,1.626 0.852,1.208 1.907 C 1.137 2.086,1.065 2.357,1.031 2.574 C 1.008 2.721,1.007 3.172,1.007 14.000 C 1.007 24.828,1.008 25.279,1.031 25.426 C 1.204 26.517,1.898 27.392,2.907 27.792 C 3.254 27.929,3.597 27.992,4.000 27.992 C 4.403 27.992,4.746 27.929,5.093 27.792 C 6.102 27.392,6.796 26.517,6.969 25.426 C 6.992 25.279,6.993 24.828,6.993 14.000 C 6.993 3.172,6.992 2.721,6.969 2.574 C 6.935 2.357,6.863 2.086,6.792 1.907 C 6.394 0.904,5.507 0.197,4.440 0.034 C 4.270 0.008,3.877 -0.003,3.713 0.014 M3.733 32.008 C 2.559 32.096,1.505 32.668,0.803 33.598 C 0.398 34.134,0.148 34.740,0.036 35.453 C -0.004 35.714,-0.004 36.286,0.036 36.547 C 0.207 37.644,0.738 38.544,1.598 39.197 C 2.129 39.600,2.741 39.853,3.453 39.964 C 3.604 39.987,3.693 39.992,4.000 39.992 C 4.307 39.992,4.396 39.987,4.547 39.964 C 5.037 39.887,5.484 39.743,5.876 39.533 C 6.573 39.161,7.161 38.573,7.533 37.876 C 7.743 37.484,7.887 37.037,7.964 36.547 C 8.004 36.286,8.004 35.714,7.964 35.453 C 7.796 34.376,7.278 33.484,6.447 32.837 C 5.893 32.406,5.210 32.124,4.500 32.032 C 4.352 32.013,3.870 31.998,3.733 32.008 " fill="#2B2C30" stroke="none" fill-rule="evenodd"></path></svg>