<svg width="64" height="60" viewBox="0 0 64 60" fill="none" xmlns="http://www.w3.org/2000/svg"><path d="M30.851 0.165 C 29.233 0.601,28.436 1.375,27.175 3.733 C 26.909 4.232,20.775 15.584,13.545 28.960 C 6.314 42.336,0.333 53.467,0.252 53.695 C -0.005 54.424,-0.045 55.466,0.150 56.346 C 0.479 57.823,1.346 58.931,2.667 59.562 L 3.360 59.893 31.784 59.921 C 63.483 59.951,60.707 60.020,61.973 59.172 C 62.746 58.654,63.328 57.912,63.699 56.971 C 64.036 56.116,64.034 54.494,63.696 53.634 C 63.483 53.096,36.864 3.677,36.019 2.255 C 35.008 0.551,32.774 -0.352,30.851 0.165 M44.587 30.676 C 51.480 43.441,57.136 53.929,57.156 53.983 C 57.177 54.041,47.149 54.080,32.009 54.080 C 18.159 54.080,6.827 54.057,6.827 54.028 C 6.827 54.000,12.076 44.268,18.491 32.402 C 24.907 20.535,30.559 10.072,31.051 9.150 C 31.544 8.228,31.971 7.472,32.000 7.470 C 32.029 7.468,37.693 17.911,44.587 30.676 M30.827 20.275 C 30.243 20.539,29.608 21.133,29.298 21.707 C 29.067 22.133,29.067 22.135,29.067 30.027 C 29.067 37.918,29.067 37.920,29.298 38.347 C 29.857 39.380,30.865 39.995,32.000 39.995 C 33.135 39.995,34.143 39.380,34.702 38.347 C 34.933 37.920,34.933 37.918,34.933 30.027 C 34.933 22.135,34.933 22.133,34.702 21.707 C 34.143 20.673,33.135 20.058,32.000 20.058 C 31.531 20.058,31.151 20.128,30.827 20.275 M31.012 44.163 C 29.940 44.433,28.966 45.237,28.457 46.270 C 28.132 46.932,28.107 47.058,28.107 48.051 C 28.107 48.988,28.142 49.195,28.393 49.732 C 29.133 51.311,30.965 52.283,32.619 51.976 C 33.957 51.727,35.060 50.899,35.607 49.732 C 35.858 49.195,35.893 48.988,35.893 48.051 C 35.893 47.058,35.868 46.932,35.543 46.270 C 34.894 44.952,33.701 44.170,32.234 44.100 C 31.783 44.079,31.233 44.107,31.012 44.163 " fill="#2B2C30" stroke="none" fill-rule="evenodd"></path></svg>