<svg width="60" height="60" viewBox="0 0 60 60" fill="none" xmlns="http://www.w3.org/2000/svg"><path d="M27.550 0.110 C 19.501 0.769,11.886 4.763,6.821 10.982 C -0.333 19.767,-1.971 31.518,2.501 41.965 C 3.147 43.473,3.992 45.011,5.058 46.618 C 12.500 57.836,26.598 62.702,39.400 58.470 C 49.033 55.285,56.454 47.389,59.010 37.603 C 61.177 29.306,59.710 20.568,54.942 13.382 C 48.934 4.325,38.401 -0.778,27.550 0.110 M33.550 6.245 C 43.184 7.755,50.997 14.862,53.288 24.200 C 53.830 26.411,53.943 27.410,53.942 30.000 C 53.942 32.642,53.820 33.685,53.248 35.937 C 51.031 44.662,43.988 51.490,35.200 53.436 C 32.543 54.024,29.022 54.152,26.450 53.753 C 17.694 52.396,10.483 46.476,7.414 38.125 C 6.949 36.860,6.476 34.990,6.230 33.450 C 5.984 31.906,5.984 28.094,6.230 26.550 C 7.266 20.048,10.573 14.550,15.779 10.676 C 19.158 8.160,23.166 6.607,27.576 6.102 C 28.705 5.973,32.372 6.061,33.550 6.245 M29.049 14.174 C 28.054 14.530,27.311 15.353,27.099 16.335 C 27.021 16.697,26.997 19.365,27.019 25.300 C 27.050 33.702,27.051 33.753,27.265 34.215 C 27.540 34.811,28.192 35.462,28.785 35.733 C 29.431 36.029,30.569 36.029,31.215 35.733 C 31.808 35.462,32.460 34.811,32.735 34.215 C 32.950 33.750,32.950 33.742,32.950 25.000 C 32.950 16.258,32.950 16.250,32.735 15.785 C 32.459 15.187,31.804 14.535,31.221 14.277 C 30.578 13.993,29.675 13.950,29.049 14.174 M29.033 39.179 C 26.923 39.933,26.323 42.532,27.895 44.105 C 30.137 46.347,33.909 43.936,32.799 40.971 C 32.234 39.460,30.524 38.646,29.033 39.179 " fill="#2B2C30" stroke="none" fill-rule="evenodd"></path></svg>