<svg width="48" height="30" viewBox="0 0 48 30" fill="none" xmlns="http://www.w3.org/2000/svg"><path d="M8.504 0.157 C 8.018 0.453,8.000 0.556,8.000 3.016 C 8.001 5.081,8.012 5.258,8.157 5.496 C 8.491 6.044,6.772 6.000,28.016 6.000 C 46.941 5.999,47.244 5.997,47.496 5.843 C 47.981 5.547,48.000 5.442,48.000 3.000 C 48.000 0.558,47.981 0.453,47.496 0.157 C 47.244 0.003,46.942 0.001,28.000 0.001 C 9.058 0.001,8.756 0.003,8.504 0.157 M20.504 12.157 C 20.018 12.453,20.000 12.556,20.000 15.016 C 20.001 17.081,20.012 17.258,20.157 17.496 C 20.488 18.039,19.408 18.000,34.016 18.000 C 46.991 17.999,47.245 17.996,47.496 17.843 C 47.981 17.547,48.000 17.442,48.000 15.000 C 48.000 12.558,47.981 12.453,47.496 12.157 C 47.245 12.004,46.991 12.001,34.000 12.001 C 21.009 12.001,20.755 12.004,20.504 12.157 M0.504 24.157 C 0.018 24.453,-0.000 24.556,0.000 27.016 C 0.001 29.081,0.012 29.258,0.157 29.496 C 0.492 30.045,-1.652 30.000,24.016 30.000 C 46.909 29.999,47.244 29.997,47.496 29.843 C 47.981 29.547,48.000 29.442,48.000 27.000 C 48.000 24.558,47.981 24.453,47.496 24.157 C 47.244 24.003,46.909 24.001,24.000 24.001 C 1.091 24.001,0.756 24.003,0.504 24.157 " fill="#2B2C30" stroke="none" fill-rule="evenodd"></path></svg>