<svg width="48" height="30" viewBox="0 0 48 30" fill="none" xmlns="http://www.w3.org/2000/svg"><path d="M0.504 0.157 C 0.018 0.453,-0.000 0.556,0.001 3.016 C 0.002 5.452,0.012 5.507,0.473 5.818 L 0.744 6.000 19.992 6.000 C 38.941 5.999,39.244 5.997,39.496 5.843 C 39.981 5.547,40.000 5.442,40.000 3.000 C 40.000 0.558,39.981 0.453,39.496 0.157 C 39.244 0.003,38.942 0.001,20.000 0.001 C 1.058 0.001,0.756 0.003,0.504 0.157 M0.504 12.157 C 0.018 12.453,-0.000 12.556,0.000 15.016 C 0.001 17.081,0.012 17.258,0.157 17.496 C 0.488 18.039,-0.592 18.000,14.016 18.000 C 26.991 17.999,27.245 17.996,27.496 17.843 C 27.981 17.547,28.000 17.442,28.000 15.000 C 28.000 12.558,27.981 12.453,27.496 12.157 C 27.245 12.004,26.991 12.001,14.000 12.001 C 1.009 12.001,0.755 12.004,0.504 12.157 M0.504 24.157 C 0.018 24.453,-0.000 24.556,0.000 27.016 C 0.001 29.081,0.012 29.258,0.157 29.496 C 0.492 30.045,-1.652 30.000,24.016 30.000 C 46.909 29.999,47.244 29.997,47.496 29.843 C 47.981 29.547,48.000 29.442,48.000 27.000 C 48.000 24.558,47.981 24.453,47.496 24.157 C 47.244 24.003,46.909 24.001,24.000 24.001 C 1.091 24.001,0.756 24.003,0.504 24.157 " fill="#2B2C30" stroke="none" fill-rule="evenodd"></path></svg>