<svg width="48" height="30" viewBox="0 0 48 30" fill="none" xmlns="http://www.w3.org/2000/svg"><path d="M4.504 0.157 C 4.018 0.453,4.000 0.556,4.000 3.016 C 4.001 5.081,4.012 5.258,4.157 5.496 C 4.491 6.044,2.772 6.000,24.016 6.000 C 42.941 5.999,43.244 5.997,43.496 5.843 C 43.981 5.547,44.000 5.442,44.000 3.000 C 44.000 0.558,43.981 0.453,43.496 0.157 C 43.244 0.003,42.942 0.001,24.000 0.001 C 5.058 0.001,4.756 0.003,4.504 0.157 M10.504 12.157 C 10.018 12.453,10.000 12.556,10.000 15.016 C 10.001 17.081,10.012 17.258,10.157 17.496 C 10.488 18.039,9.408 18.000,24.016 18.000 C 36.991 17.999,37.245 17.996,37.496 17.843 C 37.981 17.547,38.000 17.442,38.000 15.000 C 38.000 12.558,37.981 12.453,37.496 12.157 C 37.245 12.004,36.991 12.001,24.000 12.001 C 11.009 12.001,10.755 12.004,10.504 12.157 M0.504 24.157 C 0.018 24.453,-0.000 24.556,0.000 27.016 C 0.001 29.081,0.012 29.258,0.157 29.496 C 0.492 30.045,-1.652 30.000,24.016 30.000 C 46.909 29.999,47.244 29.997,47.496 29.843 C 47.981 29.547,48.000 29.442,48.000 27.000 C 48.000 24.558,47.981 24.453,47.496 24.157 C 47.244 24.003,46.909 24.001,24.000 24.001 C 1.091 24.001,0.756 24.003,0.504 24.157 " fill="#2B2C30" stroke="none" fill-rule="evenodd"></path></svg>