<svg width="48" height="40" viewBox="0 0 48 40" fill="none" xmlns="http://www.w3.org/2000/svg"><path d="M3.161 0.094 C 1.719 0.369,0.399 1.697,0.088 3.184 C -0.037 3.784,-0.037 36.216,0.088 36.816 C 0.401 38.315,1.685 39.599,3.184 39.912 C 3.785 40.037,44.215 40.037,44.816 39.912 C 46.315 39.599,47.599 38.315,47.912 36.816 C 48.037 36.216,48.037 3.784,47.912 3.184 C 47.594 1.659,46.277 0.363,44.765 0.087 C 44.149 -0.026,3.752 -0.019,3.161 0.094 M28.000 6.000 L 28.000 8.000 26.000 8.000 L 24.000 8.000 24.000 6.000 L 24.000 4.000 26.000 4.000 L 28.000 4.000 28.000 6.000 M36.000 6.000 L 36.000 8.000 34.000 8.000 L 32.000 8.000 32.000 6.000 L 32.000 4.000 34.000 4.000 L 36.000 4.000 36.000 6.000 M44.000 6.000 L 44.000 8.000 42.000 8.000 L 40.000 8.000 40.000 6.000 L 40.000 4.000 42.000 4.000 L 44.000 4.000 44.000 6.000 M42.000 23.000 L 42.000 34.000 24.000 34.000 L 6.000 34.000 6.000 23.000 L 6.000 12.000 24.000 12.000 L 42.000 12.000 42.000 23.000 " fill="#2B2C30" stroke="none" fill-rule="evenodd"></path></svg>