<svg width="48" height="52" viewBox="0 0 48 52" fill="none" xmlns="http://www.w3.org/2000/svg"><path d="M9.553 0.825 C 8.765 1.278,7.882 1.787,7.591 1.956 C 7.000 2.297,6.800 2.562,6.800 3.004 C 6.800 3.309,6.943 3.578,8.821 6.811 L 9.502 7.983 8.771 8.571 C 7.771 9.376,6.180 10.981,5.343 12.029 C 2.243 15.912,0.475 20.375,0.082 25.312 C 0.031 25.955,0.000 30.849,0.000 38.312 C 0.000 49.546,0.009 50.297,0.140 50.560 C 0.220 50.720,0.400 50.900,0.560 50.980 C 0.825 51.112,2.111 51.120,24.000 51.120 C 45.889 51.120,47.175 51.112,47.440 50.980 C 47.600 50.900,47.780 50.720,47.860 50.560 C 47.991 50.297,48.000 49.546,48.000 38.312 C 48.000 30.849,47.969 25.955,47.918 25.312 C 47.525 20.376,45.739 15.875,42.636 12.000 C 41.821 10.982,40.220 9.372,39.228 8.572 L 38.499 7.984 39.339 6.532 C 41.217 3.285,41.200 3.316,41.200 3.004 C 41.200 2.562,41.000 2.297,40.409 1.956 C 37.420 0.227,36.997 0.000,36.767 0.000 C 36.235 0.001,36.093 0.181,34.679 2.632 C 33.941 3.913,33.309 4.960,33.276 4.960 C 33.243 4.960,32.896 4.836,32.505 4.686 C 30.842 4.043,28.612 3.501,26.680 3.269 C 25.545 3.132,22.455 3.132,21.320 3.269 C 19.388 3.501,17.158 4.043,15.495 4.686 C 15.104 4.836,14.757 4.960,14.724 4.960 C 14.691 4.960,14.059 3.913,13.321 2.632 C 11.907 0.181,11.765 0.001,11.233 0.000 C 11.065 0.000,10.526 0.265,9.553 0.825 M25.823 9.203 C 31.204 9.775,35.999 12.675,39.009 17.177 C 39.661 18.152,40.622 20.091,40.999 21.194 C 41.572 22.867,41.880 24.440,41.972 26.151 L 42.025 27.120 24.000 27.120 L 5.975 27.120 6.028 26.151 C 6.229 22.405,7.666 18.667,10.016 15.777 C 12.945 12.176,17.216 9.815,21.840 9.242 C 22.885 9.112,24.796 9.093,25.823 9.203 M15.068 15.234 C 13.616 15.586,12.392 16.847,12.088 18.304 C 11.811 19.635,12.211 20.946,13.193 21.926 C 13.759 22.490,14.300 22.798,15.077 22.998 C 16.400 23.337,17.794 22.937,18.807 21.926 C 20.399 20.337,20.399 17.905,18.807 16.313 C 17.802 15.308,16.414 14.907,15.068 15.234 M31.161 15.214 C 30.237 15.390,29.179 16.120,28.648 16.947 C 28.204 17.639,28.056 18.181,28.054 19.120 C 28.052 20.069,28.201 20.583,28.699 21.340 C 29.512 22.576,31.146 23.297,32.580 23.054 C 34.064 22.803,35.218 21.854,35.762 20.440 C 36.008 19.800,36.031 18.575,35.809 17.920 C 35.139 15.941,33.217 14.822,31.161 15.214 M42.000 38.120 L 42.000 45.120 24.000 45.120 L 6.000 45.120 6.000 38.120 L 6.000 31.120 24.000 31.120 L 42.000 31.120 42.000 38.120 " fill="#2B2C30" stroke="none" fill-rule="evenodd"></path></svg>