<svg width="20" height="24" viewBox="0 0 20 24" fill="none" xmlns="http://www.w3.org/2000/svg"><path d="M8.678 0.060 C 8.367 0.171,8.163 0.377,8.051 0.696 C 8.006 0.824,8.000 1.333,8.000 4.904 L 8.000 8.966 4.358 8.974 L 0.717 8.983 0.538 9.082 C 0.316 9.206,0.154 9.391,0.067 9.624 C 0.002 9.796,0.000 9.881,0.000 11.967 C 0.000 14.052,0.002 14.137,0.067 14.310 C 0.158 14.552,0.330 14.744,0.559 14.856 L 0.750 14.950 4.375 14.959 L 8.000 14.968 8.000 19.033 C 8.000 23.056,8.001 23.099,8.069 23.281 C 8.293 23.880,9.056 24.115,9.561 23.740 C 9.707 23.631,19.516 12.875,19.791 12.521 C 20.009 12.241,20.051 11.916,19.911 11.600 C 19.864 11.493,18.372 9.830,14.733 5.824 C 10.179 0.813,9.601 0.189,9.444 0.112 C 9.208 -0.003,8.911 -0.024,8.678 0.060 " fill="#2B2C30" stroke="none" fill-rule="evenodd"></path></svg>