<svg width="40" height="48" viewBox="0 0 40 48" fill="none" xmlns="http://www.w3.org/2000/svg"><path d="M10.524 0.150 C 10.288 0.296,0.381 11.170,0.123 11.567 C -0.028 11.799,-0.014 12.237,0.152 12.482 C 0.418 12.874,10.314 23.718,10.526 23.850 C 10.831 24.039,11.095 24.040,11.464 23.850 C 12.026 23.562,12.000 23.792,12.000 19.118 L 12.000 15.000 21.607 15.000 C 32.241 15.000,31.493 15.031,31.818 14.575 C 31.964 14.371,31.967 14.323,31.986 12.082 C 32.008 9.482,32.004 9.458,31.502 9.164 L 31.222 9.000 21.611 9.000 L 12.000 9.000 12.000 4.882 C 12.000 0.246,12.022 0.455,11.493 0.151 C 11.162 -0.039,10.831 -0.039,10.524 0.150 M28.542 24.144 C 28.328 24.250,28.217 24.362,28.127 24.561 C 28.011 24.817,28.003 25.084,28.001 28.917 L 28.000 33.000 18.421 33.000 C 8.885 33.000,8.841 33.001,8.558 33.137 C 8.352 33.237,8.237 33.352,8.137 33.558 C 8.007 33.827,8.000 33.957,8.000 36.000 C 8.000 38.043,8.007 38.173,8.137 38.442 C 8.237 38.648,8.352 38.763,8.558 38.863 C 8.841 38.999,8.885 39.000,18.421 39.000 L 28.000 39.000 28.000 43.079 C 28.000 47.061,28.003 47.165,28.137 47.442 C 28.237 47.648,28.352 47.763,28.558 47.863 C 28.922 48.039,29.115 48.036,29.449 47.850 C 29.631 47.749,31.323 45.927,34.667 42.233 C 37.388 39.227,39.694 36.664,39.791 36.539 C 40.035 36.222,40.035 35.779,39.791 35.461 C 39.694 35.336,37.389 32.773,34.667 29.767 C 31.307 26.053,29.633 24.252,29.449 24.150 C 29.111 23.962,28.912 23.961,28.542 24.144 " fill="#2B2C30" stroke="none" fill-rule="evenodd"></path></svg>