<svg width="54" height="52" viewBox="0 0 54 52" fill="none" xmlns="http://www.w3.org/2000/svg"><path d="M25.146 0.261 C 24.839 0.489,13.532 11.795,3.397 22.008 C 0.318 25.110,0.000 25.458,0.000 25.725 C -0.000 25.887,0.058 26.128,0.129 26.262 C 0.200 26.396,5.901 32.145,12.797 39.038 L 25.337 51.570 25.780 51.570 L 26.224 51.570 27.871 49.931 C 29.595 48.217,29.713 48.045,29.570 47.453 C 29.529 47.283,26.604 44.298,20.313 38.002 L 11.116 28.800 32.158 28.800 C 50.789 28.800,53.229 28.784,53.463 28.663 C 53.964 28.404,54.000 28.216,54.000 25.832 C 54.000 23.380,53.959 23.169,53.435 22.921 C 53.141 22.781,51.560 22.770,32.117 22.770 L 11.116 22.770 20.363 13.521 C 29.377 4.506,29.610 4.264,29.610 3.932 C 29.610 3.744,29.552 3.482,29.481 3.348 C 29.342 3.085,26.647 0.389,26.282 0.147 C 25.946 -0.076,25.545 -0.036,25.146 0.261 " fill="#2B2C30" stroke="none" fill-rule="evenodd"></path></svg>