<svg width="40" height="40" viewBox="0 0 40 40" fill="none" xmlns="http://www.w3.org/2000/svg"><path d="M10.485 0.183 C 10.176 0.390,0.263 11.285,0.103 11.595 C -0.055 11.900,-0.023 12.152,0.217 12.494 C 0.336 12.664,2.653 15.246,5.367 18.231 C 10.357 23.722,10.567 23.933,11.000 23.933 C 11.290 23.933,11.701 23.681,11.854 23.408 C 12.000 23.149,12.000 23.139,12.000 19.077 L 12.000 15.005 15.617 14.986 C 19.095 14.967,19.242 14.962,19.460 14.833 C 19.584 14.760,19.749 14.615,19.826 14.512 C 19.962 14.330,19.967 14.243,19.985 12.045 C 20.005 9.498,19.998 9.457,19.540 9.151 L 19.314 9.000 15.657 9.000 L 12.000 9.000 12.000 4.882 C 12.000 0.216,12.026 0.448,11.466 0.152 C 11.087 -0.049,10.820 -0.040,10.485 0.183 M28.460 16.218 C 27.983 16.536,28.000 16.365,28.000 20.917 L 28.000 25.000 24.421 25.000 C 20.944 25.000,20.834 25.004,20.558 25.137 C 20.352 25.237,20.237 25.352,20.137 25.558 C 20.007 25.827,20.000 25.957,20.000 28.000 C 20.000 30.043,20.007 30.173,20.137 30.442 C 20.237 30.648,20.352 30.763,20.558 30.863 C 20.834 30.996,20.944 31.000,24.421 31.000 L 28.000 31.000 28.000 35.083 C 28.000 39.635,27.983 39.464,28.460 39.782 C 28.713 39.951,29.150 39.984,29.432 39.855 C 29.632 39.764,39.710 28.702,39.883 28.383 C 39.947 28.265,40.000 28.093,40.000 28.000 C 40.000 27.907,39.947 27.735,39.883 27.617 C 39.710 27.298,29.632 16.236,29.432 16.145 C 29.150 16.016,28.713 16.049,28.460 16.218 " fill="#2B2C30" stroke="none" fill-rule="evenodd"></path></svg>