<svg width="24" height="32" viewBox="0 0 24 32" fill="none" xmlns="http://www.w3.org/2000/svg"><path d="M9.664 0.063 C 9.436 0.146,9.257 0.297,9.131 0.511 L 9.020 0.700 9.010 10.350 L 8.999 20.000 4.910 20.002 C 1.598 20.003,0.791 20.014,0.670 20.057 C -0.016 20.302,-0.214 21.159,0.292 21.689 C 0.562 21.972,11.353 31.729,11.525 31.847 C 11.812 32.042,12.188 32.042,12.475 31.847 C 12.561 31.788,15.144 29.463,18.216 26.680 C 22.705 22.614,23.818 21.585,23.887 21.444 C 24.078 21.053,24.005 20.603,23.702 20.300 C 23.385 19.982,23.656 20.000,19.073 20.000 L 15.000 20.000 15.000 10.427 C 15.000 -0.316,15.028 0.626,14.701 0.299 C 14.398 -0.004,14.430 -0.000,11.983 0.003 C 10.210 0.005,9.792 0.016,9.664 0.063 " fill="#2B2C30" stroke="none" fill-rule="evenodd"></path></svg>