<svg width="48" height="24" viewBox="0 0 48 24" fill="none" xmlns="http://www.w3.org/2000/svg"><path d="M10.573 0.101 C 10.370 0.198,0.397 11.163,0.150 11.560 C -0.024 11.839,-0.037 12.123,0.110 12.388 C 0.296 12.723,10.350 23.771,10.574 23.887 C 11.022 24.119,11.566 23.951,11.843 23.496 C 11.993 23.251,11.999 23.065,12.000 19.141 L 12.000 15.041 29.620 15.021 C 46.054 15.001,47.257 14.991,47.489 14.864 C 47.967 14.602,48.000 14.417,48.000 12.000 C 48.000 10.152,47.980 9.783,47.869 9.549 C 47.608 8.998,49.112 9.040,29.644 9.040 L 12.000 9.040 11.999 4.900 C 11.998 1.749,11.974 0.713,11.898 0.562 C 11.668 0.109,11.023 -0.116,10.573 0.101 " fill="#2B2C30" stroke="none" fill-rule="evenodd"></path></svg>