<svg width="48" height="48" viewBox="0 0 48 48" fill="none" xmlns="http://www.w3.org/2000/svg"><path d="M9.536 0.134 C 9.000 0.398,9.040 -1.067,9.040 18.356 L 9.040 36.000 4.916 36.000 C 0.365 36.000,0.471 35.989,0.157 36.504 C -0.027 36.806,-0.043 37.125,0.112 37.424 C 0.227 37.647,11.282 47.707,11.614 47.891 C 11.849 48.021,12.148 48.023,12.378 47.895 C 12.476 47.841,15.095 45.498,18.198 42.689 C 24.383 37.089,24.160 37.324,23.909 36.664 C 23.844 36.493,23.678 36.284,23.525 36.181 L 23.256 36.000 19.108 36.000 L 14.960 36.000 14.960 18.352 C 14.960 1.862,14.951 0.690,14.824 0.474 C 14.560 0.028,14.392 -0.000,11.988 0.002 C 10.131 0.003,9.760 0.023,9.536 0.134 M35.614 0.109 C 35.282 0.293,24.227 10.353,24.112 10.576 C 23.957 10.875,23.973 11.194,24.157 11.496 C 24.471 12.011,24.369 12.000,28.875 12.000 L 32.959 12.000 32.979 29.620 C 32.999 46.054,33.009 47.257,33.136 47.489 C 33.398 47.967,33.583 48.000,36.000 48.000 C 38.417 48.000,38.602 47.967,38.864 47.489 C 38.991 47.257,39.001 46.054,39.021 29.620 L 39.041 12.000 43.141 12.000 C 47.065 11.999,47.251 11.993,47.496 11.843 C 47.951 11.566,48.119 11.022,47.888 10.575 C 47.774 10.354,36.712 0.290,36.382 0.107 C 36.149 -0.023,35.850 -0.022,35.614 0.109 " fill="#2B2C30" stroke="none" fill-rule="evenodd"></path></svg>