<svg width="38" height="38" viewBox="0 0 38 38" fill="none" xmlns="http://www.w3.org/2000/svg"><path d="M0.602 0.099 C 0.308 0.253,0.131 0.446,0.060 0.693 C 0.016 0.845,0.001 6.771,0.013 18.980 L 0.032 37.041 0.164 37.220 C 0.237 37.318,0.392 37.463,0.509 37.543 L 0.722 37.688 3.111 37.670 C 5.822 37.649,5.716 37.670,6.001 37.112 L 6.143 36.833 6.143 23.657 L 6.143 10.482 19.808 24.140 C 27.323 31.652,33.563 37.843,33.674 37.899 C 33.924 38.023,34.203 38.028,34.471 37.912 C 34.583 37.863,35.407 37.087,36.301 36.186 C 37.714 34.763,37.933 34.516,37.972 34.305 C 38.081 33.707,39.040 34.712,24.173 19.839 L 10.482 6.143 23.658 6.143 L 36.833 6.143 37.112 6.001 C 37.670 5.716,37.649 5.822,37.670 3.111 L 37.688 0.722 37.543 0.509 C 37.463 0.392,37.318 0.237,37.220 0.164 L 37.041 0.032 18.916 0.016 C 2.584 0.002,0.773 0.010,0.602 0.099 " fill="#2B2C30" stroke="none" fill-rule="evenodd"></path></svg>