<svg width="50" height="56" viewBox="0 0 50 56" fill="none" xmlns="http://www.w3.org/2000/svg"><path d="M38.042 0.075 C 37.950 0.115,37.795 0.237,37.698 0.345 C 37.601 0.453,30.626 12.485,22.198 27.083 C 7.703 52.191,6.875 53.646,6.876 54.020 C 6.876 54.527,7.009 54.659,8.250 55.387 C 9.325 56.017,9.714 56.100,10.131 55.789 C 10.277 55.680,15.809 46.183,25.736 28.998 C 40.057 4.207,41.116 2.348,41.120 1.986 C 41.127 1.471,40.979 1.323,39.765 0.622 C 38.803 0.067,38.372 -0.070,38.042 0.075 M28.480 4.146 C 28.035 4.422,28.000 4.622,28.000 6.908 L 28.000 9.000 14.367 9.000 C 1.667 9.000,0.718 9.010,0.493 9.142 C 0.032 9.415,-0.000 9.600,0.000 12.013 C 0.001 14.068,0.011 14.226,0.169 14.484 C 0.503 15.033,-0.314 15.000,13.070 15.000 L 25.228 15.000 28.033 10.146 L 30.839 5.292 30.399 4.889 C 29.395 3.971,29.005 3.821,28.480 4.146 M40.480 20.146 C 40.035 20.422,40.000 20.622,40.000 22.908 L 40.000 24.998 35.984 25.020 L 31.968 25.042 30.278 27.958 C 29.349 29.563,28.587 30.903,28.586 30.938 C 28.584 30.972,31.152 31.000,34.292 31.000 L 40.000 31.000 40.000 33.104 C 40.001 35.068,40.012 35.227,40.169 35.484 C 40.398 35.860,40.852 36.046,41.246 35.926 C 41.609 35.815,49.633 28.792,49.854 28.391 C 50.027 28.079,50.036 27.919,49.897 27.615 C 49.809 27.422,42.083 20.544,41.502 20.143 C 41.241 19.962,40.775 19.963,40.480 20.146 M0.480 25.146 C 0.032 25.424,-0.000 25.613,0.000 28.013 C 0.001 30.068,0.011 30.226,0.169 30.484 C 0.498 31.025,0.139 31.003,8.463 30.980 L 16.012 30.958 17.714 28.014 C 18.651 26.395,19.417 25.054,19.417 25.035 C 19.417 25.016,15.207 25.001,10.063 25.002 C 1.403 25.004,0.691 25.015,0.480 25.146 M28.480 36.146 C 28.035 36.422,28.000 36.622,28.000 38.907 L 28.000 40.998 25.364 41.020 L 22.728 41.042 21.064 43.917 C 20.149 45.498,19.382 46.839,19.358 46.896 C 19.324 46.978,20.217 47.000,23.658 47.000 L 28.000 47.000 28.000 49.113 C 28.000 51.173,28.005 51.232,28.190 51.509 C 28.450 51.896,28.949 52.060,29.345 51.888 C 29.726 51.723,37.671 44.723,37.854 44.392 C 38.027 44.079,38.036 43.919,37.897 43.615 C 37.809 43.422,30.083 36.544,29.502 36.143 C 29.241 35.962,28.775 35.963,28.480 36.146 M0.480 41.146 C 0.031 41.424,0.000 41.612,-0.000 44.021 C -0.000 46.179,0.004 46.231,0.191 46.509 C 0.510 46.983,0.682 47.005,3.897 46.980 L 6.775 46.958 8.438 44.083 C 9.353 42.502,10.120 41.161,10.143 41.104 C 10.176 41.022,9.204 41.000,5.446 41.002 C 1.133 41.004,0.688 41.017,0.480 41.146 " fill="#2B2C30" stroke="none" fill-rule="evenodd"></path></svg>