<svg width="40" height="40" viewBox="0 0 40 40" fill="none" xmlns="http://www.w3.org/2000/svg"><path d="M27.579 0.107 C 27.277 0.271,16.245 10.323,16.113 10.555 C 15.957 10.827,15.993 11.309,16.188 11.583 C 16.493 12.011,16.368 12.000,20.858 12.000 L 24.929 12.000 24.948 15.662 C 24.966 19.241,24.970 19.328,25.104 19.508 C 25.180 19.609,25.324 19.754,25.426 19.829 C 25.603 19.962,25.690 19.967,27.967 19.967 C 30.259 19.967,30.329 19.963,30.512 19.826 C 30.615 19.749,30.760 19.584,30.833 19.460 C 30.962 19.242,30.967 19.095,30.986 15.617 L 31.005 12.000 35.077 12.000 C 39.139 12.000,39.149 12.000,39.408 11.854 C 39.681 11.701,39.933 11.290,39.933 11.000 C 39.933 10.565,39.726 10.360,34.226 5.367 C 31.238 2.653,28.657 0.336,28.489 0.217 C 28.152 -0.024,27.880 -0.056,27.579 0.107 M9.535 20.117 C 9.407 20.181,9.235 20.335,9.151 20.460 L 9.000 20.686 9.000 24.343 L 9.000 28.000 4.917 28.001 C 1.076 28.003,0.817 28.010,0.560 28.127 C 0.356 28.220,0.249 28.327,0.143 28.547 C -0.039 28.922,-0.037 29.112,0.150 29.449 C 0.330 29.774,11.332 39.795,11.656 39.929 C 11.956 40.053,12.277 39.969,12.647 39.669 C 13.224 39.200,23.623 29.704,23.748 29.532 C 24.078 29.076,23.894 28.389,23.375 28.137 C 23.098 28.003,22.995 28.000,19.012 28.000 L 14.933 28.000 14.933 24.343 L 14.933 20.686 14.782 20.460 C 14.481 20.010,14.422 20.000,11.967 20.000 C 10.005 20.000,9.742 20.013,9.535 20.117 " fill="#2B2C30" stroke="none" fill-rule="evenodd"></path></svg>