<svg width="50" height="48" viewBox="0 0 50 48" fill="none" xmlns="http://www.w3.org/2000/svg"><path d="M20.447 0.188 C 19.713 0.734,12.180 7.446,12.097 7.628 C 11.952 7.946,11.978 8.195,12.188 8.492 C 12.501 8.937,20.499 15.903,20.764 15.961 C 21.123 16.040,21.451 15.935,21.717 15.657 L 21.958 15.406 21.983 13.204 L 22.008 11.001 35.711 10.980 L 49.413 10.958 49.686 10.686 L 49.958 10.413 49.958 8.000 L 49.958 5.587 49.686 5.314 L 49.413 5.042 35.711 5.020 L 22.008 4.999 21.983 2.784 L 21.958 0.570 21.647 0.285 C 21.264 -0.066,20.834 -0.101,20.447 0.188 M8.625 16.075 C 8.369 16.187,0.400 23.208,0.187 23.509 C -0.050 23.846,-0.050 24.154,0.187 24.490 C 0.291 24.636,2.212 26.367,4.458 28.336 C 7.540 31.039,8.608 31.929,8.814 31.968 C 9.140 32.029,9.496 31.896,9.763 31.612 C 9.956 31.406,9.959 31.382,9.983 29.202 L 10.008 27.000 29.617 27.000 L 49.225 27.000 49.507 26.810 C 49.997 26.480,50.004 26.438,49.980 23.897 L 49.958 21.586 49.686 21.314 L 49.413 21.042 29.711 21.020 L 10.008 20.999 9.983 18.793 L 9.958 16.586 9.701 16.329 C 9.426 16.054,8.937 15.939,8.625 16.075 M20.625 32.075 C 20.367 32.188,12.399 39.207,12.188 39.508 C 12.084 39.655,12.000 39.876,12.000 40.000 C 12.000 40.124,12.084 40.344,12.188 40.489 C 12.412 40.805,20.269 47.712,20.597 47.882 C 20.921 48.049,21.183 48.029,21.507 47.810 C 21.983 47.489,21.997 47.412,21.999 45.104 L 22.000 43.000 35.604 43.000 C 48.950 42.999,49.213 42.996,49.475 42.837 C 49.992 42.522,50.010 42.413,49.983 39.873 L 49.958 37.586 49.686 37.314 L 49.413 37.042 35.711 37.020 L 22.008 36.999 21.983 34.792 L 21.958 32.586 21.701 32.329 C 21.426 32.054,20.937 31.938,20.625 32.075 " fill="#2B2C30" stroke="none" fill-rule="evenodd"></path></svg>