<svg width="52" height="54" viewBox="0 0 52 54" fill="none" xmlns="http://www.w3.org/2000/svg"><path d="M23.293 0.136 C 22.755 0.428,22.793 -1.253,22.793 21.857 L 22.793 42.943 13.585 33.744 C 8.520 28.684,4.285 24.498,4.173 24.441 C 4.050 24.379,3.843 24.361,3.653 24.396 C 3.391 24.444,3.069 24.720,1.792 25.985 C 0.942 26.828,0.191 27.622,0.123 27.751 C -0.034 28.049,-0.033 28.372,0.124 28.669 C 0.275 28.953,25.097 53.762,25.366 53.898 C 25.608 54.020,25.959 54.020,26.201 53.898 C 26.469 53.762,51.291 28.953,51.442 28.669 C 51.600 28.372,51.601 28.049,51.443 27.751 C 51.376 27.622,50.625 26.828,49.775 25.985 C 48.498 24.720,48.175 24.444,47.914 24.396 C 47.724 24.361,47.517 24.379,47.394 24.441 C 47.282 24.498,43.046 28.684,37.982 33.744 L 28.773 42.943 28.773 21.857 C 28.773 -1.325,28.815 0.420,28.256 0.131 C 27.887 -0.060,23.646 -0.056,23.293 0.136 " fill="#2B2C30" stroke="none" fill-rule="evenodd"></path></svg>