<svg width="20" height="24" viewBox="0 0 20 24" fill="none" xmlns="http://www.w3.org/2000/svg"><path d="M10.673 0.061 C 10.576 0.096,10.445 0.167,10.382 0.220 C 10.318 0.273,7.987 2.826,5.201 5.894 C 0.634 10.924,0.129 11.490,0.065 11.661 C -0.022 11.891,-0.012 12.119,0.095 12.339 C 0.187 12.530,10.238 23.601,10.463 23.759 C 10.979 24.122,11.730 23.859,11.949 23.237 C 11.994 23.109,12.000 22.603,12.000 19.029 L 12.000 14.967 15.561 14.967 C 19.531 14.967,19.319 14.979,19.628 14.735 C 19.739 14.647,19.825 14.540,19.888 14.410 L 19.983 14.217 19.992 12.011 C 20.001 9.866,20.000 9.801,19.934 9.625 C 19.846 9.391,19.685 9.206,19.462 9.082 L 19.283 8.983 15.642 8.974 L 12.000 8.966 12.000 4.901 C 12.000 0.912,11.999 0.832,11.933 0.657 C 11.744 0.151,11.175 -0.118,10.673 0.061 " fill="#2B2C30" stroke="none" fill-rule="evenodd"></path></svg>