<svg width="48" height="24" viewBox="0 0 48 24" fill="none" xmlns="http://www.w3.org/2000/svg"><path d="M10.573 0.101 C 10.370 0.198,0.397 11.163,0.150 11.560 C -0.024 11.839,-0.037 12.123,0.110 12.388 C 0.296 12.723,10.350 23.771,10.574 23.887 C 11.022 24.119,11.566 23.951,11.843 23.496 C 11.993 23.251,11.999 23.065,12.000 19.140 L 12.000 15.040 24.000 15.040 L 36.000 15.040 36.000 19.140 C 36.001 23.065,36.007 23.251,36.157 23.496 C 36.434 23.951,36.978 24.119,37.426 23.887 C 37.650 23.771,47.704 12.723,47.890 12.388 C 48.037 12.123,48.024 11.839,47.850 11.560 C 47.578 11.122,37.621 0.195,37.405 0.097 C 37.288 0.044,37.091 0.000,36.968 0.000 C 36.693 0.000,36.237 0.296,36.102 0.562 C 36.026 0.713,36.002 1.749,36.001 4.900 L 36.000 9.040 24.000 9.040 L 12.000 9.040 11.999 4.900 C 11.998 1.749,11.974 0.713,11.898 0.562 C 11.668 0.109,11.023 -0.116,10.573 0.101 " fill="#2B2C30" stroke="none" fill-rule="evenodd"></path></svg>