<svg width="56" height="36" viewBox="0 0 56 36" fill="none" xmlns="http://www.w3.org/2000/svg"><path d="M10.500 0.177 C 10.083 0.440,0.252 9.321,0.120 9.553 C -0.103 9.946,-0.026 10.340,0.350 10.733 C 1.213 11.636,10.579 19.958,10.774 19.995 C 11.107 20.059,11.581 19.862,11.798 19.570 C 11.986 19.317,11.994 19.185,12.021 16.140 L 12.049 12.973 18.531 12.973 L 25.013 12.973 25.013 24.166 L 25.013 35.359 25.255 35.646 L 25.497 35.933 28.000 35.933 L 30.503 35.933 30.745 35.646 L 30.987 35.359 30.987 24.166 L 30.987 12.973 37.470 12.973 L 43.953 12.973 43.980 16.140 C 44.006 19.186,44.014 19.317,44.202 19.570 C 44.419 19.862,44.893 20.059,45.227 19.995 C 45.346 19.972,47.797 17.836,50.672 15.248 C 55.333 11.053,55.906 10.507,55.962 10.209 C 56.002 9.994,55.978 9.780,55.896 9.612 C 55.766 9.349,46.026 0.509,45.500 0.177 C 44.939 -0.177,44.235 0.088,44.060 0.718 C 44.000 0.933,43.961 2.244,43.961 4.034 L 43.960 6.994 35.980 7.020 C 31.591 7.035,24.409 7.035,20.020 7.020 L 12.040 6.994 12.039 4.034 C 12.039 2.244,12.000 0.933,11.940 0.718 C 11.765 0.088,11.061 -0.177,10.500 0.177 " fill="#2B2C30" stroke="none" fill-rule="evenodd"></path></svg>