<svg width="48" height="40" viewBox="0 0 48 40" fill="none" xmlns="http://www.w3.org/2000/svg"><path d="M35.560 0.150 C 35.124 0.421,24.194 10.381,24.096 10.596 C 23.958 10.901,23.978 11.203,24.157 11.496 C 24.471 12.011,24.369 12.000,28.876 12.000 L 32.960 12.000 32.962 21.540 C 32.963 30.652,32.970 31.095,33.112 31.406 C 33.369 31.974,33.497 32.000,36.000 32.000 C 38.417 32.000,38.602 31.967,38.864 31.489 C 38.990 31.259,39.002 30.512,39.021 21.620 L 39.043 12.000 43.141 12.000 C 47.065 11.999,47.251 11.993,47.496 11.843 C 47.951 11.566,48.119 11.022,47.888 10.575 C 47.774 10.354,36.712 0.290,36.382 0.107 C 36.122 -0.037,35.837 -0.022,35.560 0.150 M9.556 8.124 C 9.002 8.397,9.040 7.650,9.040 18.352 L 9.040 28.000 4.900 28.000 C 0.935 28.001,0.749 28.007,0.504 28.157 C 0.049 28.434,-0.119 28.978,0.112 29.424 C 0.227 29.647,11.282 39.707,11.614 39.891 C 11.849 40.022,12.149 40.023,12.380 39.894 C 12.480 39.839,15.098 37.497,18.200 34.689 C 24.384 29.089,24.161 29.325,23.909 28.664 C 23.844 28.493,23.678 28.284,23.525 28.181 L 23.256 28.000 19.108 28.000 L 14.960 28.000 14.960 18.352 C 14.960 7.627,14.999 8.391,14.431 8.121 C 14.057 7.943,9.917 7.946,9.556 8.124 " fill="#2B2C30" stroke="none" fill-rule="evenodd"></path></svg>