<svg width="24" height="48" viewBox="0 0 24 48" fill="none" xmlns="http://www.w3.org/2000/svg"><path d="M11.740 0.047 C 11.674 0.072,11.564 0.130,11.496 0.176 C 11.347 0.277,0.533 10.059,0.292 10.311 C -0.214 10.840,-0.016 11.698,0.670 11.943 C 0.791 11.986,1.598 11.997,4.910 11.998 L 9.000 12.000 9.000 29.570 C 9.000 41.550,9.014 47.187,9.042 47.289 C 9.104 47.512,9.316 47.763,9.539 47.878 L 9.738 47.980 11.936 47.991 C 13.895 48.001,14.155 47.995,14.333 47.936 C 14.592 47.850,14.846 47.598,14.934 47.340 C 14.995 47.160,15.000 45.825,15.000 29.573 L 15.000 12.000 19.070 12.000 C 21.750 12.000,23.191 11.985,23.289 11.958 C 23.856 11.801,24.159 11.077,23.880 10.549 C 23.786 10.370,21.837 8.588,13.135 0.721 C 12.802 0.420,12.460 0.141,12.375 0.100 C 12.186 0.010,11.901 -0.014,11.740 0.047 " fill="#2B2C30" stroke="none" fill-rule="evenodd"></path></svg>