<svg width="32" height="24" viewBox="0 0 32 24" fill="none" xmlns="http://www.w3.org/2000/svg"><path d="M10.603 0.087 C 10.452 0.150,9.238 1.459,5.376 5.721 C 2.610 8.774,0.278 11.366,0.193 11.479 C 0.006 11.731,-0.043 12.062,0.067 12.322 C 0.155 12.527,10.188 23.637,10.456 23.825 C 10.815 24.077,11.342 24.030,11.673 23.717 C 12.015 23.393,12.000 23.603,12.000 19.095 L 12.000 14.987 21.610 14.987 L 31.220 14.987 31.453 14.874 C 31.594 14.805,31.744 14.674,31.830 14.544 L 31.973 14.328 31.973 12.000 L 31.973 9.672 31.830 9.456 C 31.744 9.326,31.594 9.195,31.453 9.126 L 31.220 9.013 21.610 9.013 L 12.000 9.013 12.000 4.947 C 12.000 2.442,11.979 0.807,11.947 0.691 C 11.849 0.339,11.366 -0.003,10.975 0.003 C 10.879 0.004,10.711 0.042,10.603 0.087 " fill="#2B2C30" stroke="none" fill-rule="evenodd"></path></svg>