<svg width="32" height="24" viewBox="0 0 32 24" fill="none" xmlns="http://www.w3.org/2000/svg"><path d="M20.613 0.101 C 20.365 0.216,20.137 0.443,20.057 0.657 C 20.018 0.758,20.000 2.141,20.000 4.910 L 20.000 9.013 10.390 9.013 L 0.780 9.013 0.547 9.126 C 0.406 9.195,0.256 9.326,0.170 9.456 L 0.027 9.672 0.027 12.000 L 0.027 14.328 0.170 14.544 C 0.256 14.674,0.406 14.805,0.547 14.874 L 0.780 14.987 10.390 14.987 L 20.000 14.987 20.000 19.095 C 20.000 23.603,19.985 23.393,20.327 23.717 C 20.658 24.030,21.185 24.077,21.544 23.825 C 21.813 23.636,31.845 12.527,31.933 12.322 C 32.024 12.107,31.999 11.741,31.881 11.561 C 31.837 11.494,29.505 8.904,26.698 5.805 C 21.309 -0.146,21.450 -0.002,20.999 0.001 C 20.904 0.002,20.731 0.047,20.613 0.101 " fill="#2B2C30" stroke="none" fill-rule="evenodd"></path></svg>