<svg width="24" height="32" viewBox="0 0 24 32" fill="none" xmlns="http://www.w3.org/2000/svg"><path d="M11.740 0.047 C 11.674 0.072,11.564 0.130,11.496 0.176 C 11.347 0.277,0.533 10.059,0.292 10.311 C -0.214 10.840,-0.016 11.698,0.670 11.943 C 0.791 11.986,1.598 11.997,4.910 11.998 L 9.000 12.000 9.000 21.570 C 9.000 28.039,9.014 31.188,9.042 31.289 C 9.104 31.512,9.316 31.763,9.539 31.878 L 9.738 31.980 11.936 31.991 C 14.429 32.003,14.395 32.007,14.700 31.702 C 15.028 31.374,15.000 32.318,15.000 21.573 L 15.000 12.000 19.070 12.000 C 21.750 12.000,23.191 11.985,23.289 11.958 C 23.856 11.801,24.159 11.077,23.880 10.549 C 23.786 10.370,21.837 8.588,13.135 0.721 C 12.802 0.420,12.460 0.141,12.375 0.100 C 12.186 0.010,11.901 -0.014,11.740 0.047 " fill="#2B2C30" stroke="none" fill-rule="evenodd"></path></svg>