<svg width="24" height="48" viewBox="0 0 24 48" fill="none" xmlns="http://www.w3.org/2000/svg"><path d="M11.740 0.047 C 11.674 0.072,11.564 0.130,11.496 0.176 C 11.347 0.277,0.533 10.059,0.292 10.311 C -0.214 10.840,-0.016 11.698,0.670 11.943 C 0.791 11.986,1.598 11.997,4.910 11.998 L 9.000 12.000 9.000 24.000 L 9.000 36.000 4.930 36.000 C 2.250 36.000,0.809 36.015,0.711 36.042 C 0.488 36.104,0.237 36.316,0.122 36.540 C -0.019 36.814,-0.022 37.225,0.115 37.465 C 0.180 37.578,1.979 39.234,5.789 42.685 C 8.858 45.465,11.439 47.788,11.526 47.847 C 11.812 48.042,12.188 48.042,12.475 47.847 C 12.561 47.788,15.144 45.463,18.216 42.680 C 22.705 38.614,23.818 37.585,23.887 37.444 C 24.078 37.053,24.005 36.603,23.702 36.300 C 23.385 35.982,23.656 36.000,19.073 36.000 L 15.000 36.000 15.000 24.000 L 15.000 12.000 19.070 12.000 C 21.750 12.000,23.191 11.985,23.289 11.958 C 23.856 11.801,24.159 11.077,23.880 10.549 C 23.786 10.370,21.837 8.588,13.135 0.721 C 12.802 0.420,12.460 0.141,12.375 0.100 C 12.186 0.010,11.901 -0.014,11.740 0.047 " fill="#2B2C30" stroke="none" fill-rule="evenodd"></path></svg>