<svg width="24" height="20" viewBox="0 0 24 20" fill="none" xmlns="http://www.w3.org/2000/svg"><path d="M9.627 0.064 C 9.375 0.143,9.115 0.401,9.026 0.660 C 8.967 0.835,8.960 1.206,8.960 4.427 L 8.960 8.000 4.890 8.002 C 1.595 8.003,0.791 8.014,0.670 8.057 C 0.012 8.292,-0.208 9.126,0.251 9.647 C 0.322 9.728,2.878 12.062,5.931 14.834 C 11.837 20.195,11.608 20.000,12.003 20.000 C 12.089 20.000,12.235 19.954,12.353 19.890 C 12.478 19.822,14.672 17.854,18.138 14.703 C 24.376 9.030,23.951 9.454,23.910 8.940 C 23.876 8.521,23.631 8.193,23.250 8.057 C 23.129 8.014,22.325 8.003,19.030 8.002 L 14.960 8.000 14.958 4.410 C 14.957 1.516,14.946 0.791,14.903 0.670 C 14.824 0.449,14.662 0.256,14.449 0.131 L 14.260 0.020 12.040 0.012 C 10.163 0.005,9.790 0.014,9.627 0.064 " fill="#2B2C30" stroke="none" fill-rule="evenodd"></path></svg>