<svg width="54" height="52" viewBox="0 0 54 52" fill="none" xmlns="http://www.w3.org/2000/svg"><path d="M27.718 0.147 C 27.353 0.389,24.658 3.085,24.519 3.348 C 24.448 3.482,24.390 3.744,24.390 3.932 C 24.390 4.264,24.623 4.506,33.637 13.521 L 42.884 22.770 21.883 22.770 C 2.632 22.770,0.856 22.782,0.572 22.917 C 0.028 23.175,0.000 23.318,0.000 25.785 C 0.000 28.220,0.034 28.403,0.537 28.663 C 0.771 28.784,3.211 28.800,21.842 28.800 L 42.884 28.800 33.687 38.002 C 27.396 44.298,24.471 47.283,24.430 47.453 C 24.287 48.045,24.405 48.217,26.129 49.931 L 27.776 51.570 28.220 51.570 L 28.663 51.570 41.203 39.038 C 48.099 32.145,53.800 26.396,53.871 26.262 C 53.942 26.128,54.000 25.886,54.000 25.724 C 54.000 25.456,53.624 25.052,49.793 21.197 C 36.852 8.179,29.164 0.492,28.854 0.261 C 28.455 -0.036,28.054 -0.076,27.718 0.147 " fill="#2B2C30" stroke="none" fill-rule="evenodd"></path></svg>