<svg width="50" height="56" viewBox="0 0 50 56" fill="none" xmlns="http://www.w3.org/2000/svg"><path d="M40.042 0.075 C 39.950 0.115,39.795 0.237,39.698 0.345 C 39.601 0.453,32.626 12.485,24.198 27.083 C 9.703 52.191,8.875 53.646,8.876 54.020 C 8.876 54.527,9.009 54.659,10.250 55.387 C 11.325 56.017,11.714 56.100,12.131 55.789 C 12.277 55.680,17.809 46.183,27.736 28.998 C 42.057 4.207,43.116 2.348,43.120 1.986 C 43.127 1.471,42.979 1.323,41.765 0.622 C 40.803 0.067,40.372 -0.070,40.042 0.075 M20.498 4.143 C 19.917 4.544,12.191 11.422,12.103 11.615 C 11.964 11.919,11.973 12.079,12.146 12.392 C 12.366 12.792,20.390 19.814,20.754 19.926 C 21.148 20.046,21.602 19.860,21.831 19.484 C 21.988 19.227,21.999 19.068,22.000 17.104 L 22.000 15.000 24.614 15.000 L 27.228 15.000 28.948 12.021 L 30.668 9.042 26.334 9.020 L 22.000 8.999 22.000 6.908 C 22.000 4.609,21.965 4.413,21.507 4.142 C 21.199 3.960,20.761 3.960,20.498 4.143 M41.565 11.864 C 40.662 13.435,39.898 14.784,39.869 14.860 C 39.819 14.990,40.150 15.000,44.452 15.000 C 49.568 15.000,49.514 15.005,49.831 14.484 C 49.989 14.226,49.999 14.068,50.000 12.013 C 50.000 9.600,49.968 9.415,49.507 9.142 C 49.291 9.015,48.946 9.000,46.237 9.003 L 43.208 9.006 41.565 11.864 M8.498 20.143 C 7.917 20.544,0.191 27.422,0.103 27.615 C -0.039 27.926,-0.025 28.168,0.148 28.431 C 0.229 28.554,2.132 30.270,4.377 32.245 C 7.177 34.708,8.551 35.864,8.754 35.926 C 9.148 36.046,9.602 35.860,9.831 35.484 C 9.988 35.227,9.999 35.068,10.000 33.105 L 10.000 31.002 14.006 30.980 L 18.012 30.958 19.714 28.014 C 20.651 26.395,21.417 25.054,21.417 25.035 C 21.417 25.016,18.848 25.000,15.708 25.000 L 10.000 25.000 10.000 22.908 C 10.000 20.609,9.965 20.413,9.507 20.142 C 9.199 19.960,8.761 19.960,8.498 20.143 M33.885 25.188 C 33.663 25.538,30.650 30.781,30.607 30.891 C 30.573 30.980,32.226 31.000,39.827 31.000 C 50.024 31.000,49.500 31.027,49.831 30.484 C 49.989 30.226,49.999 30.068,50.000 28.013 C 50.000 25.600,49.968 25.415,49.507 25.142 C 49.284 25.011,48.678 25.000,41.635 25.000 L 34.004 25.000 33.885 25.188 M24.599 41.271 C 24.508 41.420,23.248 43.598,21.799 46.111 L 19.163 50.679 19.561 51.036 C 20.277 51.679,20.484 51.836,20.729 51.922 C 21.085 52.046,21.573 51.860,21.809 51.509 C 21.996 51.232,22.000 51.175,22.000 49.113 L 22.000 47.000 35.521 46.995 C 45.769 46.992,49.112 46.967,49.330 46.891 C 49.495 46.834,49.701 46.670,49.810 46.509 C 49.996 46.231,50.000 46.179,50.000 44.021 C 50.000 41.599,49.968 41.415,49.507 41.142 C 49.283 41.010,48.413 41.000,37.015 41.000 L 24.764 41.000 24.599 41.271 " fill="#2B2C30" stroke="none" fill-rule="evenodd"></path></svg>