<svg width="64" height="24" viewBox="0 0 64 24" fill="none" xmlns="http://www.w3.org/2000/svg"><path d="M10.583 0.072 C 10.379 0.154,0.218 11.394,0.086 11.683 C 0.024 11.819,0.003 12.050,0.039 12.196 C 0.099 12.435,8.885 22.266,10.135 23.493 C 10.764 24.111,11.127 24.158,11.652 23.689 L 12.000 23.378 12.031 19.209 L 12.063 15.040 32.000 15.040 L 51.937 15.040 51.969 19.209 L 52.000 23.378 52.348 23.689 C 52.687 23.991,53.025 24.071,53.385 23.933 C 53.596 23.852,63.631 12.796,63.868 12.383 C 63.971 12.204,64.007 11.989,63.964 11.817 C 63.889 11.518,53.683 0.182,53.386 0.068 C 53.025 -0.071,52.687 0.009,52.348 0.311 L 52.000 0.622 51.970 4.844 L 51.940 9.067 32.000 9.067 L 12.060 9.067 12.030 4.844 L 12.000 0.622 11.652 0.311 C 11.322 0.017,10.935 -0.070,10.583 0.072 " fill="#2B2C30" stroke="none" fill-rule="evenodd"></path></svg>