<svg width="48" height="48" viewBox="0 0 48 48" fill="none" xmlns="http://www.w3.org/2000/svg"><path d="M10.573 0.101 C 10.370 0.198,0.397 11.163,0.150 11.560 C -0.024 11.839,-0.037 12.123,0.110 12.388 C 0.296 12.723,10.350 23.771,10.574 23.887 C 11.022 24.119,11.566 23.951,11.843 23.496 C 11.993 23.251,11.999 23.065,12.000 19.141 L 12.000 15.041 29.620 15.021 C 46.054 15.001,47.257 14.991,47.489 14.864 C 47.967 14.602,48.000 14.417,48.000 12.000 C 48.000 10.152,47.980 9.783,47.869 9.549 C 47.608 8.998,49.112 9.040,29.644 9.040 L 12.000 9.040 11.999 4.900 C 11.998 1.749,11.974 0.713,11.898 0.562 C 11.668 0.109,11.023 -0.116,10.573 0.101 M36.582 24.119 C 36.439 24.180,36.251 24.350,36.162 24.495 C 36.006 24.752,36.001 24.890,36.000 28.900 L 36.000 33.040 18.352 33.040 C 1.862 33.040,0.690 33.049,0.474 33.176 C 0.029 33.439,-0.000 33.610,-0.000 36.000 C 0.000 38.390,0.029 38.561,0.474 38.824 C 0.690 38.951,1.862 38.960,18.352 38.960 L 36.000 38.960 36.000 43.108 L 36.000 47.256 36.181 47.525 C 36.284 47.678,36.493 47.844,36.664 47.909 C 37.325 48.161,37.090 48.383,42.687 42.202 C 45.495 39.101,47.838 36.482,47.893 36.382 C 48.022 36.150,48.022 35.850,47.893 35.618 C 47.710 35.288,37.646 24.226,37.425 24.112 C 37.154 23.972,36.914 23.974,36.582 24.119 " fill="#2B2C30" stroke="none" fill-rule="evenodd"></path></svg>