<svg width="38" height="38" viewBox="0 0 38 38" fill="none" xmlns="http://www.w3.org/2000/svg"><path d="M33.693 0.100 C 33.547 0.162,28.823 4.842,19.808 13.856 L 6.143 27.518 6.143 14.343 L 6.143 1.167 6.001 0.888 C 5.716 0.330,5.822 0.351,3.111 0.330 L 0.722 0.312 0.509 0.457 C 0.392 0.537,0.237 0.682,0.164 0.780 L 0.032 0.959 0.032 19.158 L 0.032 37.357 0.162 37.532 C 0.234 37.628,0.372 37.766,0.468 37.838 L 0.643 37.968 18.842 37.968 L 37.041 37.968 37.220 37.836 C 37.318 37.763,37.463 37.608,37.543 37.491 L 37.688 37.278 37.670 34.889 C 37.652 32.573,37.648 32.494,37.518 32.320 C 37.445 32.222,37.288 32.085,37.170 32.015 C 36.957 31.890,36.826 31.888,23.719 31.872 L 10.484 31.855 24.174 18.160 C 39.040 3.288,38.081 4.293,37.972 3.695 C 37.933 3.484,37.714 3.237,36.301 1.814 C 35.407 0.913,34.583 0.137,34.471 0.088 C 34.212 -0.024,33.974 -0.020,33.693 0.100 " fill="#2B2C30" stroke="none" fill-rule="evenodd"></path></svg>