<svg width="24" height="20" viewBox="0 0 24 20" fill="none" xmlns="http://www.w3.org/2000/svg"><path d="M11.700 0.053 C 11.634 0.079,11.538 0.124,11.487 0.153 C 11.370 0.219,0.426 10.154,0.251 10.353 C -0.208 10.873,0.012 11.708,0.670 11.943 C 0.791 11.986,1.595 11.997,4.890 11.998 L 8.960 12.000 8.960 15.573 C 8.960 19.596,8.945 19.387,9.260 19.702 C 9.566 20.008,9.530 20.004,12.044 19.991 L 14.260 19.980 14.449 19.869 C 14.662 19.744,14.824 19.551,14.903 19.330 C 14.946 19.209,14.957 18.484,14.958 15.591 L 14.960 12.001 19.090 11.991 L 23.220 11.980 23.398 11.880 C 23.861 11.620,24.050 11.036,23.820 10.574 C 23.733 10.401,22.987 9.708,18.573 5.696 C 11.898 -0.369,12.466 0.136,12.249 0.062 C 12.036 -0.010,11.869 -0.013,11.700 0.053 " fill="#2B2C30" stroke="none" fill-rule="evenodd"></path></svg>