<svg width="52" height="54" viewBox="0 0 52 54" fill="none" xmlns="http://www.w3.org/2000/svg"><path d="M25.350 0.099 C 25.080 0.246,0.265 25.060,0.124 25.324 C -0.033 25.621,-0.034 25.944,0.123 26.243 C 0.191 26.371,0.942 27.165,1.792 28.005 C 3.378 29.575,3.612 29.737,4.093 29.595 C 4.201 29.563,8.453 25.377,13.542 20.294 L 22.793 11.050 22.793 32.136 C 22.793 55.519,22.744 53.613,23.360 53.870 C 23.802 54.055,27.896 54.048,28.256 53.862 C 28.815 53.573,28.773 55.318,28.773 32.136 L 28.773 11.050 38.025 20.294 C 43.113 25.377,47.365 29.563,47.474 29.595 C 47.955 29.737,48.189 29.575,49.775 28.005 C 50.625 27.165,51.376 26.371,51.443 26.243 C 51.601 25.944,51.600 25.621,51.442 25.324 C 51.291 25.041,26.469 0.231,26.201 0.096 C 25.962 -0.025,25.576 -0.023,25.350 0.099 " fill="#2B2C30" stroke="none" fill-rule="evenodd"></path></svg>