<svg width="24" height="48" viewBox="0 0 24 48" fill="none" xmlns="http://www.w3.org/2000/svg"><path d="M9.664 0.063 C 9.436 0.146,9.257 0.297,9.131 0.511 L 9.020 0.700 9.010 18.350 L 9.000 36.000 4.910 36.002 C 1.598 36.003,0.791 36.014,0.670 36.057 C -0.016 36.302,-0.214 37.159,0.292 37.689 C 0.562 37.972,11.353 47.729,11.525 47.847 C 11.612 47.905,11.754 47.965,11.841 47.980 C 12.066 48.018,12.293 47.970,12.475 47.847 C 12.561 47.788,15.144 45.463,18.216 42.680 C 22.705 38.614,23.818 37.585,23.887 37.444 C 24.078 37.053,24.005 36.603,23.702 36.300 C 23.385 35.982,23.656 36.000,19.073 36.000 L 15.000 36.000 15.000 18.427 C 15.000 2.175,14.995 0.840,14.934 0.660 C 14.847 0.407,14.593 0.153,14.340 0.066 C 14.168 0.008,13.896 0.000,11.983 0.003 C 10.210 0.005,9.792 0.016,9.664 0.063 " fill="#2B2C30" stroke="none" fill-rule="evenodd"></path></svg>