<svg width="38" height="38" viewBox="0 0 38 38" fill="none" xmlns="http://www.w3.org/2000/svg"><path d="M0.915 0.089 C 0.694 0.185,0.396 0.514,0.346 0.717 C 0.327 0.793,0.320 1.900,0.330 3.178 C 0.351 5.813,0.332 5.717,0.888 6.001 L 1.167 6.143 14.343 6.143 L 27.518 6.143 13.860 19.808 C 6.348 27.323,0.157 33.563,0.101 33.674 C -0.023 33.924,-0.028 34.203,0.088 34.471 C 0.137 34.583,0.913 35.407,1.814 36.301 C 3.237 37.714,3.484 37.933,3.695 37.972 C 4.293 38.081,3.288 39.040,18.161 24.173 L 31.857 10.482 31.857 23.658 L 31.857 36.833 31.999 37.112 C 32.284 37.670,32.178 37.649,34.889 37.670 L 37.278 37.688 37.491 37.543 C 37.608 37.463,37.763 37.318,37.836 37.220 L 37.968 37.041 37.984 18.931 C 38.002 -1.078,38.037 0.560,37.584 0.214 L 37.345 0.032 19.227 0.018 C 4.260 0.007,1.075 0.019,0.915 0.089 " fill="#2B2C30" stroke="none" fill-rule="evenodd"></path></svg>