<svg width="52" height="48" viewBox="0 0 52 48" fill="none" xmlns="http://www.w3.org/2000/svg"><path d="M0.548 0.140 C -0.017 0.419,-0.000 0.200,-0.000 7.016 C -0.000 12.317,0.018 13.217,0.130 13.432 C 0.397 13.949,0.422 13.953,3.018 13.953 L 5.391 13.953 5.685 13.659 L 5.980 13.364 5.980 11.709 L 5.980 10.053 26.000 10.053 L 46.020 10.053 46.020 11.709 L 46.020 13.364 46.315 13.659 L 46.609 13.953 48.982 13.953 C 51.578 13.953,51.603 13.949,51.870 13.432 C 51.982 13.217,52.000 12.317,52.000 7.016 C 52.000 0.177,52.019 0.412,51.439 0.137 C 51.200 0.023,50.776 0.000,48.971 0.000 C 45.904 -0.000,46.020 -0.093,46.020 2.379 L 46.020 3.987 26.000 3.987 L 5.980 3.987 5.980 2.379 C 5.980 -0.095,6.098 -0.001,3.016 0.002 C 1.203 0.004,0.776 0.027,0.548 0.140 M6.497 18.153 C 6.050 18.396,6.023 18.559,6.023 21.023 C 6.023 23.200,6.031 23.311,6.205 23.545 C 6.305 23.680,6.480 23.838,6.595 23.897 C 6.758 23.981,10.111 24.004,21.996 24.005 C 35.307 24.007,37.220 23.991,37.439 23.877 C 37.955 23.610,37.960 23.585,37.960 20.989 L 37.960 18.616 37.665 18.321 L 37.371 18.027 22.044 18.030 C 9.174 18.033,6.681 18.053,6.497 18.153 M6.587 30.138 C 6.024 30.420,5.980 30.626,5.980 33.001 C 5.980 35.284,6.023 35.544,6.442 35.819 C 6.650 35.955,7.238 35.967,14.018 35.967 C 20.673 35.967,21.387 35.953,21.570 35.825 C 21.970 35.545,22.013 35.263,22.013 32.958 C 22.013 30.956,22.001 30.790,21.838 30.523 C 21.499 29.967,21.786 29.987,13.978 29.987 C 7.404 29.987,6.868 29.998,6.587 30.138 M6.521 42.148 C 6.048 42.411,6.025 42.522,5.996 44.762 C 5.981 45.905,5.992 46.967,6.021 47.121 C 6.050 47.275,6.173 47.520,6.294 47.664 L 6.515 47.927 15.981 47.927 L 25.447 47.927 25.642 47.745 C 25.750 47.645,25.874 47.467,25.919 47.349 C 25.963 47.232,26.000 46.161,26.000 44.970 C 26.000 43.204,25.976 42.758,25.869 42.550 C 25.586 42.004,26.137 42.033,15.973 42.036 C 8.717 42.039,6.674 42.063,6.521 42.148 " fill="#2B2C30" stroke="none" fill-rule="evenodd"></path></svg>