<svg width="32" height="36" viewBox="0 0 32 36" fill="none" xmlns="http://www.w3.org/2000/svg"><path d="M10.573 0.120 C 10.299 0.271,0.402 9.156,0.191 9.440 C -0.026 9.733,-0.056 10.127,0.116 10.439 C 0.205 10.602,1.481 11.781,4.640 14.620 C 10.858 20.210,10.486 19.883,10.718 19.952 C 11.189 20.093,11.688 19.855,11.901 19.387 C 11.991 19.188,11.998 18.957,11.999 16.093 L 12.000 13.013 18.987 13.013 L 25.973 13.013 25.973 24.017 C 25.973 36.051,25.956 35.383,26.279 35.693 C 26.596 35.996,26.630 36.000,28.998 35.999 C 30.993 35.998,31.191 35.990,31.389 35.900 C 31.650 35.781,31.871 35.531,31.948 35.264 C 31.988 35.125,32.000 31.392,31.988 22.667 L 31.972 10.267 31.847 9.893 C 31.380 8.496,30.379 7.516,29.022 7.130 L 28.613 7.014 20.307 6.999 L 12.000 6.984 11.999 3.905 C 11.998 1.026,11.991 0.813,11.899 0.613 C 11.652 0.078,11.053 -0.145,10.573 0.120 " fill="#2B2C30" stroke="none" fill-rule="evenodd"></path></svg>