<svg width="40" height="56" viewBox="0 0 40 56" fill="none" xmlns="http://www.w3.org/2000/svg"><path d="M15.133 0.104 C 14.895 0.155,14.475 0.308,14.200 0.443 C 13.577 0.748,12.798 1.504,12.479 2.112 C 12.247 2.555,12.000 3.415,12.000 3.777 L 12.000 4.000 7.817 4.001 C 3.155 4.002,3.089 4.008,2.200 4.443 C 1.833 4.623,1.567 4.822,1.198 5.194 C 0.621 5.776,0.323 6.290,0.132 7.040 C 0.002 7.548,0.000 7.866,0.000 30.000 C -0.000 52.134,0.002 52.452,0.132 52.960 C 0.324 53.713,0.620 54.225,1.198 54.802 C 1.775 55.380,2.287 55.676,3.040 55.868 C 3.546 55.998,3.841 56.000,20.000 56.000 C 36.159 56.000,36.454 55.998,36.960 55.868 C 37.713 55.676,38.225 55.380,38.802 54.802 C 39.380 54.225,39.676 53.713,39.868 52.960 C 39.998 52.452,40.000 52.134,40.000 30.000 C 40.000 7.866,39.998 7.548,39.868 7.040 C 39.677 6.290,39.379 5.776,38.802 5.194 C 38.433 4.822,38.167 4.623,37.800 4.443 C 36.911 4.008,36.845 4.002,32.183 4.001 L 28.000 4.000 28.000 3.777 C 28.000 3.415,27.753 2.555,27.521 2.112 C 27.201 1.503,26.423 0.748,25.800 0.443 C 24.904 0.004,24.870 0.002,19.967 0.006 C 16.457 0.010,15.479 0.029,15.133 0.104 M34.000 30.000 L 34.000 50.000 20.000 50.000 L 6.000 50.000 6.000 30.000 L 6.000 10.000 20.000 10.000 L 34.000 10.000 34.000 30.000 " fill="#2B2C30" stroke="none" fill-rule="evenodd"></path></svg>