<svg width="48" height="56" viewBox="0 0 48 56" fill="none" xmlns="http://www.w3.org/2000/svg"><path d="M22.200 0.095 C 19.301 0.358,16.458 1.429,14.154 3.126 C 13.288 3.764,11.763 5.289,11.124 6.156 C 9.660 8.145,8.727 10.363,8.230 13.040 L 8.045 14.040 8.019 22.999 L 7.993 31.958 4.373 35.599 C 0.489 39.505,0.407 39.604,0.127 40.692 C 0.043 41.016,0.000 41.532,0.000 42.212 C 0.001 43.090,0.023 43.277,0.157 43.496 C 0.492 44.045,-1.650 44.000,24.000 44.000 C 49.650 44.000,47.508 44.045,47.843 43.496 C 47.976 43.278,47.999 43.092,47.999 42.240 C 47.998 41.631,47.950 41.040,47.877 40.727 C 47.619 39.633,47.533 39.529,43.626 35.598 L 40.007 31.957 39.976 22.998 C 39.944 13.340,39.956 13.625,39.513 11.853 C 39.130 10.320,38.357 8.430,37.659 7.320 C 34.425 2.176,28.708 -0.496,22.200 0.095 M26.308 6.238 C 27.311 6.442,28.069 6.709,28.999 7.187 C 31.493 8.467,33.075 10.620,33.782 13.698 C 33.950 14.431,33.953 14.567,33.978 24.480 L 34.004 34.520 35.742 36.260 L 37.479 38.000 24.000 38.000 L 10.521 38.000 12.261 36.259 L 14.000 34.519 14.001 24.959 C 14.001 19.010,14.032 15.128,14.083 14.680 C 14.621 9.915,17.832 6.659,22.560 6.082 C 23.488 5.969,25.375 6.047,26.308 6.238 M23.240 48.078 C 21.811 48.394,20.718 49.347,20.220 50.712 C 19.986 51.351,19.988 52.654,20.223 53.300 C 20.645 54.455,21.548 55.355,22.712 55.780 C 23.057 55.907,23.353 55.944,24.000 55.944 C 24.647 55.944,24.943 55.907,25.288 55.780 C 26.452 55.355,27.355 54.455,27.777 53.300 C 27.907 52.942,27.944 52.654,27.944 52.000 C 27.944 51.346,27.907 51.058,27.777 50.700 C 27.353 49.540,26.432 48.625,25.288 48.228 C 24.778 48.050,23.715 47.973,23.240 48.078 " fill="#2B2C30" stroke="none" fill-rule="evenodd"></path></svg>