<svg width="60" height="60" viewBox="0 0 60 60" fill="none" xmlns="http://www.w3.org/2000/svg"><path d="M28.100 0.058 C 27.907 0.080,27.255 0.147,26.650 0.207 C 22.960 0.574,18.647 1.953,15.365 3.815 C 8.005 7.993,2.852 14.779,0.857 22.922 C 0.213 25.553,0.062 26.892,0.062 30.000 C 0.062 32.965,0.206 34.344,0.758 36.700 C 2.391 43.667,6.312 49.688,12.030 54.008 C 16.063 57.055,20.756 58.968,26.150 59.765 C 27.846 60.015,32.154 60.015,33.850 59.765 C 37.363 59.246,40.237 58.371,43.250 56.901 C 51.412 52.921,57.459 45.155,59.336 36.246 C 59.845 33.827,59.942 32.830,59.942 30.000 C 59.942 27.170,59.845 26.173,59.336 23.754 C 57.570 15.370,52.228 8.125,44.635 3.815 C 41.469 2.019,37.576 0.740,33.750 0.240 C 32.684 0.101,28.810 -0.024,28.100 0.058 M33.400 6.253 C 39.281 7.151,44.594 10.071,48.224 14.400 C 51.765 18.624,53.665 23.432,53.960 28.917 C 54.027 30.161,54.024 30.192,53.767 30.630 C 52.583 32.650,47.749 34.803,41.850 35.939 C 37.819 36.715,35.139 36.941,30.000 36.941 C 24.861 36.941,22.181 36.715,18.150 35.939 C 12.250 34.803,7.417 32.650,6.233 30.629 C 5.975 30.190,5.972 30.159,6.038 28.916 C 6.327 23.455,8.239 18.620,11.776 14.400 C 15.488 9.972,21.241 6.880,27.020 6.207 C 27.531 6.148,28.108 6.081,28.300 6.058 C 29.040 5.972,32.399 6.100,33.400 6.253 M34.175 14.108 C 34.076 14.165,34.000 14.328,34.000 14.481 C 34.000 14.699,34.343 15.095,35.750 16.500 L 37.500 18.247 33.005 22.749 C 30.442 25.316,28.464 27.376,28.401 27.542 C 28.341 27.703,28.318 27.953,28.349 28.097 C 28.385 28.259,29.034 28.985,30.052 30.002 C 31.635 31.582,31.713 31.645,32.101 31.645 C 32.499 31.645,32.559 31.590,37.102 27.048 L 41.699 22.451 43.476 24.226 C 44.901 25.650,45.305 26.000,45.522 26.000 C 45.688 26.000,45.833 25.925,45.896 25.807 C 45.964 25.680,46.000 23.724,46.000 20.147 L 46.000 14.680 45.660 14.340 L 45.320 14.000 39.835 14.003 C 36.296 14.005,34.288 14.042,34.175 14.108 M11.298 40.346 C 15.004 41.557,19.656 42.405,24.850 42.817 C 26.915 42.980,33.085 42.980,35.150 42.817 C 41.513 42.313,47.062 41.146,51.164 39.451 C 52.393 38.943,52.371 38.867,51.503 40.600 C 50.785 42.033,50.445 42.611,49.649 43.750 C 45.857 49.176,40.089 52.732,33.400 53.767 C 32.552 53.899,31.660 53.945,30.000 53.945 C 28.340 53.945,27.448 53.899,26.600 53.767 C 19.076 52.603,12.717 48.229,9.070 41.709 C 8.561 40.799,7.800 39.218,7.800 39.070 C 7.800 39.044,8.268 39.216,8.840 39.453 C 9.411 39.689,10.518 40.091,11.298 40.346 " fill="#2B2C30" stroke="none" fill-rule="evenodd"></path></svg>