<svg width="56" height="54" viewBox="0 0 56 54" fill="none" xmlns="http://www.w3.org/2000/svg"><path d="M16.462 0.178 C 16.302 0.276,16.124 0.492,16.066 0.658 C 15.988 0.880,15.960 6.607,15.960 22.050 C 15.960 45.428,15.909 43.595,16.565 43.906 C 17.003 44.114,20.933 44.123,21.426 43.917 C 22.074 43.646,22.027 45.375,22.027 22.027 C 22.027 4.003,22.007 0.881,21.894 0.610 C 21.656 0.040,21.463 -0.000,18.975 0.000 C 16.956 0.001,16.727 0.017,16.462 0.178 M28.351 8.299 L 28.047 8.571 28.023 25.896 C 27.996 45.120,27.948 43.644,28.610 43.921 C 29.061 44.109,32.907 44.111,33.357 43.923 C 34.030 43.642,33.973 45.276,33.973 26.070 C 33.973 12.865,33.947 8.724,33.862 8.537 C 33.646 8.064,33.434 8.027,30.946 8.027 L 28.656 8.027 28.351 8.299 M4.421 16.219 C 4.311 16.307,4.175 16.472,4.118 16.584 C 3.958 16.895,3.973 43.174,4.133 43.493 C 4.381 43.990,4.703 44.053,7.000 44.053 C 9.297 44.053,9.619 43.990,9.867 43.493 C 10.027 43.174,10.042 16.895,9.882 16.584 C 9.618 16.066,9.572 16.057,7.000 16.057 C 4.884 16.057,4.598 16.075,4.421 16.219 M39.853 22.109 C 37.843 23.274,37.579 23.503,37.635 24.033 C 37.676 24.422,48.781 43.655,49.077 43.848 C 49.530 44.145,49.821 44.049,51.704 42.975 C 52.690 42.413,53.619 41.835,53.769 41.689 C 54.085 41.382,54.128 40.948,53.889 40.485 C 53.204 39.161,42.867 21.372,42.688 21.210 C 42.238 20.802,41.948 20.894,39.853 22.109 M0.351 48.339 L 0.047 48.611 0.047 51.038 L 0.047 53.465 0.273 53.706 L 0.499 53.947 28.000 53.947 L 55.501 53.947 55.727 53.706 L 55.953 53.465 55.953 51.038 L 55.953 48.611 55.649 48.339 L 55.344 48.067 28.000 48.067 L 0.656 48.067 0.351 48.339 " fill="#2B2C30" stroke="none" fill-rule="evenodd"></path></svg>