<svg width="32" height="59" viewBox="0 0 32 59" fill="none" xmlns="http://www.w3.org/2000/svg"><path d="M0.613 0.101 C 0.342 0.227,0.119 0.463,0.052 0.697 C 0.018 0.815,0.000 10.900,0.000 29.321 C 0.000 54.796,0.009 57.784,0.082 57.960 C 0.193 58.224,0.306 58.343,0.560 58.460 C 0.799 58.569,1.143 58.588,1.370 58.504 C 1.455 58.473,4.641 55.329,8.760 51.211 L 16.000 43.973 23.240 51.211 C 27.359 55.329,30.545 58.473,30.630 58.504 C 30.857 58.588,31.201 58.569,31.440 58.460 C 31.694 58.343,31.807 58.224,31.918 57.960 C 31.991 57.784,32.000 54.796,32.000 29.322 C 32.000 10.821,31.981 0.814,31.947 0.691 C 31.884 0.464,31.620 0.196,31.348 0.083 C 31.171 0.009,29.567 0.000,15.988 0.001 C 1.344 0.002,0.819 0.006,0.613 0.101 M25.867 26.359 L 25.867 46.585 25.632 46.346 C 25.504 46.214,23.293 43.827,20.720 41.040 C 18.147 38.253,16.027 35.968,16.008 35.961 C 15.989 35.955,13.657 38.337,10.827 41.255 L 5.680 46.560 5.664 45.907 C 5.645 45.148,6.010 9.753,6.059 7.587 L 6.092 6.133 15.979 6.133 L 25.867 6.133 25.867 26.359 " fill="#2B2C30" stroke="none" fill-rule="evenodd"></path></svg>