<svg width="56" height="56" viewBox="0 0 56 56" fill="none" xmlns="http://www.w3.org/2000/svg"><path d="M0.607 0.087 C 0.504 0.130,0.336 0.258,0.233 0.372 C 0.051 0.575,0.047 0.711,0.047 6.084 L 0.047 11.589 0.351 11.861 L 0.656 12.133 6.077 12.133 L 11.499 12.133 11.816 11.816 L 12.133 11.499 12.133 6.077 L 12.133 0.656 11.861 0.351 L 11.589 0.047 6.191 0.028 C 3.222 0.018,0.709 0.044,0.607 0.087 M20.662 7.881 C 20.039 8.152,20.067 7.879,20.067 13.794 C 20.067 17.552,20.098 19.206,20.171 19.349 C 20.228 19.462,20.365 19.626,20.474 19.715 C 20.658 19.863,21.100 19.876,26.109 19.878 L 31.544 19.880 31.849 19.608 L 32.153 19.335 32.179 13.961 C 32.207 7.982,32.223 8.144,31.590 7.879 C 31.132 7.688,21.102 7.689,20.662 7.881 M40.298 16.232 L 39.993 16.505 40.028 22.203 L 40.063 27.901 34.313 27.927 L 28.563 27.953 28.258 28.258 L 27.953 28.563 27.927 34.253 L 27.901 39.942 22.203 39.968 L 16.505 39.993 16.232 40.298 L 15.960 40.603 15.962 47.998 C 15.964 54.864,15.976 55.408,16.125 55.592 C 16.214 55.702,16.378 55.838,16.491 55.896 C 16.639 55.972,21.947 56.000,35.932 56.000 C 57.077 56.000,55.548 56.043,55.858 55.443 C 55.984 55.201,56.000 52.945,56.000 35.932 C 56.000 21.947,55.972 16.639,55.896 16.491 C 55.838 16.378,55.702 16.214,55.592 16.125 C 55.408 15.976,54.864 15.964,47.998 15.962 L 40.603 15.960 40.298 16.232 M0.488 19.972 C 0.320 20.076,0.141 20.268,0.091 20.399 C 0.036 20.545,-0.000 22.730,0.000 25.962 L 0.000 31.285 0.317 31.603 L 0.635 31.920 6.015 31.920 C 11.853 31.920,11.787 31.926,12.022 31.409 C 12.104 31.229,12.133 29.761,12.133 25.804 L 12.133 20.443 11.861 20.138 L 11.589 19.833 6.191 19.809 C 0.926 19.785,0.786 19.789,0.488 19.972 M50.004 35.957 L 49.980 49.980 35.957 50.004 L 21.933 50.027 21.933 47.974 L 21.933 45.920 27.953 45.920 L 33.973 45.920 33.973 39.947 L 33.973 33.973 39.993 33.973 L 46.013 33.973 46.013 27.953 L 46.013 21.933 48.020 21.933 L 50.027 21.933 50.004 35.957 " fill="#2B2C30" stroke="none" fill-rule="evenodd"></path></svg>