<svg width="52" height="56" viewBox="0 0 52 56" fill="none" xmlns="http://www.w3.org/2000/svg"><path d="M15.191 0.120 C 14.317 0.407,13.577 1.047,13.243 1.805 C 13.116 2.093,13.052 2.466,13.021 3.098 L 12.977 3.987 8.364 3.987 C 5.661 3.987,3.557 4.023,3.283 4.073 C 1.783 4.351,0.525 5.534,0.123 7.042 C 0.021 7.426,0.002 11.015,0.001 29.974 C -0.000 54.733,-0.039 52.967,0.525 53.956 C 0.841 54.512,1.653 55.287,2.189 55.545 C 3.158 56.010,1.760 55.985,26.000 55.985 C 50.494 55.985,48.866 56.018,49.887 55.501 C 50.450 55.216,51.287 54.363,51.558 53.798 C 52.024 52.827,51.998 54.225,51.998 29.987 C 51.998 5.778,52.023 7.139,51.563 6.190 C 51.458 5.971,51.157 5.562,50.896 5.280 C 50.359 4.699,49.486 4.216,48.717 4.073 C 48.443 4.023,46.335 3.987,43.625 3.987 L 39.000 3.987 39.000 3.309 C 39.000 1.828,38.413 0.845,37.184 0.269 C 36.781 0.080,36.584 0.044,35.967 0.047 C 35.044 0.052,34.461 0.305,33.825 0.978 C 33.233 1.604,33.020 2.195,33.020 3.210 L 33.020 3.987 26.000 3.987 L 18.980 3.987 18.980 3.210 C 18.980 2.627,18.933 2.309,18.793 1.934 C 18.554 1.295,17.904 0.598,17.268 0.296 C 16.685 0.021,15.739 -0.060,15.191 0.120 M45.999 12.978 L 45.977 15.990 26.000 15.990 L 6.023 15.990 6.001 12.978 L 5.978 9.967 26.000 9.967 L 46.022 9.967 45.999 12.978 M46.020 36.010 L 46.020 50.007 26.000 50.007 L 5.980 50.007 5.980 36.010 L 5.980 22.013 26.000 22.013 L 46.020 22.013 46.020 36.010 M10.607 26.085 C 10.506 26.126,10.341 26.265,10.239 26.394 C 10.057 26.626,10.053 26.689,10.053 30.007 L 10.053 33.384 10.348 33.679 L 10.643 33.973 13.953 33.973 C 16.889 33.973,17.291 33.957,17.508 33.829 C 17.980 33.550,17.983 33.526,17.983 29.980 C 17.983 26.791,17.979 26.700,17.802 26.461 C 17.462 26.004,17.446 26.002,13.997 26.007 C 12.233 26.009,10.708 26.044,10.607 26.085 M22.513 26.136 C 22.023 26.401,22.013 26.477,22.013 29.987 C 22.013 33.515,22.022 33.579,22.530 33.842 C 22.909 34.038,29.091 34.038,29.470 33.842 C 29.978 33.579,29.987 33.515,29.987 29.987 C 29.987 26.458,29.978 26.394,29.470 26.131 C 29.096 25.938,22.870 25.942,22.513 26.136 M34.588 26.108 C 34.474 26.168,34.298 26.327,34.198 26.461 C 34.021 26.700,34.017 26.791,34.017 29.980 C 34.017 33.525,34.020 33.550,34.492 33.829 C 34.709 33.957,35.111 33.973,38.047 33.973 L 41.357 33.973 41.652 33.679 L 41.947 33.384 41.947 29.997 L 41.947 26.609 41.694 26.326 L 41.441 26.043 38.119 26.021 C 35.589 26.005,34.747 26.025,34.588 26.108 M10.748 38.046 C 10.582 38.087,10.358 38.222,10.250 38.348 L 10.053 38.576 10.053 42.001 L 10.053 45.427 10.299 45.672 C 10.638 46.012,10.960 46.038,14.402 46.005 C 17.206 45.978,17.331 45.970,17.565 45.795 C 17.992 45.479,18.017 45.271,18.017 41.990 C 18.017 38.709,17.992 38.501,17.565 38.185 C 17.329 38.009,17.220 38.003,14.185 37.988 C 12.461 37.980,10.914 38.006,10.748 38.046 M22.736 38.055 C 22.585 38.099,22.360 38.254,22.237 38.401 L 22.013 38.667 22.013 41.990 L 22.013 45.313 22.236 45.577 C 22.358 45.723,22.602 45.882,22.777 45.930 C 23.194 46.046,28.797 46.049,29.213 45.933 C 29.383 45.886,29.617 45.746,29.733 45.623 L 29.943 45.399 29.943 41.990 L 29.943 38.581 29.733 38.357 C 29.617 38.234,29.383 38.094,29.213 38.047 C 28.823 37.939,23.113 37.946,22.736 38.055 " fill="#2B2C30" stroke="none" fill-rule="evenodd"></path></svg>