<svg width="56" height="48" viewBox="0 0 56 48" fill="none" xmlns="http://www.w3.org/2000/svg"><path d="M16.462 0.178 C 16.302 0.276,16.124 0.492,16.066 0.658 C 15.903 1.123,15.924 4.959,16.090 5.357 C 16.368 6.023,15.403 5.973,28.000 5.973 C 40.597 5.973,39.632 6.023,39.910 5.357 C 40.098 4.907,40.096 1.061,39.907 0.610 C 39.636 -0.041,40.431 -0.000,27.981 0.000 C 17.111 0.001,16.744 0.006,16.462 0.178 M2.762 8.213 C 1.417 8.642,0.403 9.774,0.105 11.181 C 0.030 11.537,-0.000 16.277,0.000 28.032 C 0.000 45.906,-0.030 44.906,0.532 45.937 C 0.824 46.475,1.589 47.222,2.127 47.497 C 3.116 48.001,1.592 47.973,28.000 47.973 C 54.717 47.973,52.919 48.010,53.964 47.442 C 54.502 47.149,55.249 46.384,55.523 45.846 C 56.022 44.869,56.000 45.687,56.000 28.032 C 56.000 16.287,55.970 11.536,55.895 11.181 C 55.598 9.780,54.546 8.625,53.178 8.199 C 52.644 8.033,51.701 8.027,27.968 8.032 C 4.078 8.037,3.296 8.042,2.762 8.213 M50.027 28.000 L 50.027 42.000 28.000 42.000 L 5.973 42.000 5.973 28.000 L 5.973 14.000 28.000 14.000 L 50.027 14.000 50.027 28.000 M26.960 16.065 C 21.640 16.479,17.116 20.614,16.200 25.900 C 16.013 26.976,16.012 28.947,16.196 30.018 C 17.026 34.824,20.580 38.548,25.433 39.694 C 26.649 39.982,29.351 39.982,30.567 39.694 C 33.652 38.966,36.246 37.197,37.934 34.673 C 39.318 32.603,39.947 30.505,39.946 27.960 C 39.946 24.671,38.786 21.875,36.455 19.545 C 33.893 16.983,30.614 15.781,26.960 16.065 M29.447 22.175 C 31.522 22.669,33.256 24.384,33.789 26.469 C 34.150 27.880,33.995 29.350,33.345 30.690 C 32.881 31.646,31.786 32.763,30.828 33.258 C 28.396 34.515,25.677 34.092,23.751 32.159 C 22.481 30.883,21.969 29.545,22.053 27.720 C 22.128 26.083,22.636 24.915,23.771 23.770 C 25.268 22.259,27.347 21.675,29.447 22.175 " fill="#2B2C30" stroke="none" fill-rule="evenodd"></path></svg>