<svg width="57" height="53" viewBox="0 0 57 53" fill="none" xmlns="http://www.w3.org/2000/svg"><path d="M16.957 0.091 C 16.853 0.134,16.661 0.284,16.530 0.425 L 16.293 0.680 16.293 3.041 C 16.293 5.287,16.302 5.414,16.491 5.669 C 16.601 5.817,16.836 5.989,17.014 6.051 C 17.521 6.229,39.601 6.224,40.022 6.046 C 40.700 5.758,40.704 5.742,40.736 3.221 C 40.760 1.281,40.742 0.904,40.610 0.626 C 40.294 -0.041,41.076 -0.001,28.486 0.006 C 22.250 0.009,17.062 0.047,16.957 0.091 M48.393 0.275 C 48.189 0.427,46.313 2.265,44.223 4.360 L 40.423 8.170 22.037 8.170 C 1.932 8.170,3.126 8.138,2.071 8.712 C 1.537 9.003,0.905 9.646,0.537 10.275 C -0.025 11.234,-0.005 10.513,0.022 28.810 C 0.050 47.511,-0.009 45.953,0.714 47.027 C 0.896 47.298,1.045 47.543,1.045 47.572 C 1.045 47.601,0.810 47.872,0.522 48.173 C 0.077 48.640,0.000 48.774,0.000 49.081 C 0.000 49.422,0.095 49.537,1.737 51.178 C 4.093 53.535,3.619 53.585,6.591 50.663 C 7.851 49.425,14.440 42.845,21.233 36.041 C 28.025 29.237,37.932 19.314,43.249 13.989 L 52.915 4.307 52.915 3.890 C 52.915 3.476,52.903 3.461,51.178 1.737 C 49.575 0.133,49.416 0.000,49.103 0.000 C 48.877 0.000,48.640 0.092,48.393 0.275 M53.508 12.374 L 50.920 14.964 50.920 28.857 L 50.920 42.750 37.029 42.750 L 23.139 42.750 20.096 45.790 L 17.052 48.829 35.306 48.830 C 53.238 48.830,53.571 48.827,54.170 48.642 C 55.547 48.216,56.587 47.062,56.893 45.619 C 56.970 45.257,57.000 40.432,57.000 28.468 C 57.000 13.817,56.983 11.753,56.854 11.261 C 56.714 10.720,56.269 9.785,56.153 9.785 C 56.122 9.785,54.932 10.950,53.508 12.374 M33.094 15.498 L 31.845 16.746 31.051 16.579 C 29.889 16.334,27.809 16.282,26.632 16.468 C 22.048 17.194,18.256 20.462,16.870 24.880 C 16.305 26.680,16.186 29.189,16.579 31.051 L 16.746 31.844 11.484 37.128 C 8.590 40.034,6.190 42.428,6.151 42.446 C 6.063 42.489,6.055 14.401,6.143 14.313 C 6.178 14.279,12.537 14.250,20.274 14.250 L 34.342 14.250 33.094 15.498 M25.080 23.491 C 25.080 23.505,24.710 23.879,24.258 24.322 C 23.806 24.765,23.527 24.994,23.638 24.831 C 23.910 24.432,25.080 23.344,25.080 23.491 M32.881 33.002 L 25.529 40.354 26.041 40.465 C 27.584 40.801,29.843 40.749,31.453 40.340 C 33.796 39.745,35.595 38.697,37.296 36.936 C 39.031 35.141,40.100 33.029,40.529 30.555 C 40.766 29.189,40.598 25.650,40.296 25.650 C 40.261 25.650,36.924 28.958,32.881 33.002 " fill="#2B2C30" stroke="none" fill-rule="evenodd"></path></svg>