<svg width="16" height="32" viewBox="0 0 16 32" fill="none" xmlns="http://www.w3.org/2000/svg"><path d="M14.891 0.047 C 14.647 0.134,14.485 0.266,13.990 0.783 C 12.259 2.588,0.323 15.182,0.251 15.280 C 0.202 15.346,0.129 15.478,0.089 15.573 C 0.027 15.721,0.016 15.784,0.016 16.000 C 0.016 16.216,0.027 16.279,0.089 16.427 C 0.129 16.522,0.202 16.654,0.251 16.720 C 0.350 16.854,13.840 31.079,14.288 31.522 C 14.662 31.891,14.843 31.988,15.160 31.985 C 15.491 31.982,15.715 31.843,15.866 31.549 C 16.010 31.266,16.000 32.392,16.000 16.000 C 16.000 -0.392,16.010 0.734,15.866 0.451 C 15.682 0.092,15.257 -0.084,14.891 0.047 " fill="#2B2C30" stroke="none" fill-rule="evenodd"></path></svg>