<svg width="16" height="32" viewBox="0 0 16 32" fill="none" xmlns="http://www.w3.org/2000/svg"><path d="M0.591 0.049 C 0.512 0.077,0.416 0.124,0.377 0.153 C 0.269 0.233,0.144 0.409,0.076 0.579 L 0.013 0.733 0.006 15.920 C 0.002 26.278,0.008 31.149,0.027 31.240 C 0.090 31.547,0.275 31.813,0.501 31.922 C 0.598 31.970,0.675 31.984,0.840 31.985 C 1.153 31.987,1.339 31.890,1.699 31.535 C 2.132 31.108,15.651 16.853,15.749 16.720 C 15.798 16.654,15.871 16.522,15.911 16.427 C 15.973 16.279,15.984 16.216,15.984 16.000 C 15.984 15.784,15.973 15.721,15.911 15.573 C 15.871 15.478,15.798 15.346,15.749 15.280 C 15.651 15.147,2.132 0.892,1.699 0.465 C 1.498 0.267,1.380 0.173,1.248 0.108 C 1.018 -0.004,0.797 -0.024,0.591 0.049 " fill="#2B2C30" stroke="none" fill-rule="evenodd"></path></svg>