<svg width="32" height="16" viewBox="0 0 32 16" fill="none" xmlns="http://www.w3.org/2000/svg"><path d="M15.622 0.070 C 15.518 0.109,15.381 0.177,15.318 0.221 C 15.256 0.264,11.832 3.501,7.709 7.414 C 1.939 12.890,0.186 14.582,0.100 14.761 C -0.109 15.191,0.048 15.666,0.466 15.873 C 0.661 15.970,1.119 15.973,16.000 15.973 C 30.881 15.973,31.339 15.970,31.534 15.873 C 31.838 15.723,31.973 15.498,31.973 15.147 C 31.973 14.923,31.942 14.806,31.840 14.654 C 31.667 14.395,16.856 0.332,16.586 0.170 C 16.332 0.018,15.886 -0.029,15.622 0.070 " fill="#2B2C30" stroke="none" fill-rule="evenodd"></path></svg>