<svg width="6" height="12" viewBox="0 0 6 12" fill="none" xmlns="http://www.w3.org/2000/svg"><path d="M0.858 0.011 C 0.715 0.032,0.556 0.094,0.433 0.178 C 0.239 0.310,0.099 0.508,0.032 0.747 L 0.005 0.845 0.005 6.000 L 0.005 11.155 0.033 11.254 C 0.138 11.632,0.427 11.902,0.807 11.979 C 0.909 12.000,0.916 12.000,3.032 11.998 L 5.155 11.995 5.253 11.968 C 5.629 11.864,5.902 11.573,5.979 11.193 L 6.000 11.091 5.998 5.968 L 5.995 0.845 5.968 0.749 C 5.903 0.511,5.761 0.310,5.567 0.178 C 5.482 0.120,5.338 0.054,5.240 0.028 L 5.155 0.005 3.035 0.004 C 1.869 0.003,0.889 0.006,0.858 0.011 " fill="#2B2C30" stroke="none" fill-rule="evenodd"></path></svg>