<svg width="30" height="24" viewBox="0 0 30 24" fill="none" xmlns="http://www.w3.org/2000/svg"><path d="M24.684 0.050 C 24.456 0.120,24.218 0.332,24.105 0.564 L 24.000 0.782 24.000 12.008 L 24.000 23.234 24.116 23.455 C 24.180 23.576,24.329 23.743,24.446 23.825 L 24.659 23.975 26.995 23.975 L 29.332 23.975 29.535 23.841 C 29.646 23.767,29.791 23.621,29.856 23.516 L 29.975 23.325 29.975 11.996 L 29.975 0.668 29.841 0.465 C 29.767 0.354,29.621 0.209,29.516 0.144 L 29.325 0.025 27.075 0.016 C 25.838 0.011,24.762 0.026,24.684 0.050 M12.652 8.065 C 12.417 8.140,12.136 8.434,12.061 8.682 C 11.972 8.979,11.972 23.021,12.061 23.318 C 12.140 23.580,12.420 23.860,12.682 23.939 C 12.830 23.983,13.484 24.000,15.038 24.000 L 17.189 24.000 17.455 23.861 C 17.671 23.748,17.748 23.671,17.861 23.455 L 18.000 23.189 18.000 16.038 C 18.000 10.699,17.985 8.837,17.941 8.690 C 17.864 8.431,17.572 8.137,17.318 8.061 C 17.047 7.980,12.908 7.984,12.652 8.065 M0.652 12.065 C 0.417 12.140,0.136 12.434,0.061 12.682 C -0.027 12.978,-0.027 23.022,0.061 23.318 C 0.140 23.580,0.420 23.860,0.682 23.939 C 0.830 23.983,1.484 24.000,3.038 24.000 L 5.189 24.000 5.455 23.861 C 5.671 23.748,5.748 23.671,5.861 23.455 L 6.000 23.189 6.000 18.038 C 6.000 14.232,5.985 12.835,5.941 12.690 C 5.864 12.431,5.572 12.137,5.318 12.061 C 5.047 11.980,0.908 11.984,0.652 12.065 " fill="#2B2C30" stroke="none" fill-rule="evenodd"></path></svg>