<svg width="18" height="16" viewBox="0 0 18 16" fill="none" xmlns="http://www.w3.org/2000/svg"><path d="M12.699 0.055 C 12.480 0.132,12.317 0.248,12.197 0.413 C 11.983 0.708,11.998 0.067,12.007 8.055 L 12.015 15.255 12.089 15.405 C 12.184 15.597,12.393 15.806,12.585 15.901 L 12.735 15.975 15.000 15.975 L 17.265 15.975 17.415 15.901 C 17.607 15.806,17.816 15.597,17.911 15.405 L 17.985 15.255 17.985 7.995 L 17.985 0.735 17.916 0.596 C 17.804 0.371,17.655 0.221,17.437 0.114 L 17.236 0.015 15.046 0.008 C 13.001 0.002,12.845 0.005,12.699 0.055 M0.814 4.022 C 0.497 4.085,0.232 4.292,0.094 4.586 L 0.015 4.755 0.015 9.990 L 0.015 15.225 0.093 15.391 C 0.204 15.629,0.336 15.764,0.564 15.877 L 0.764 15.975 3.000 15.975 L 5.236 15.975 5.436 15.877 C 5.664 15.764,5.796 15.629,5.907 15.391 L 5.985 15.225 5.985 9.990 L 5.985 4.755 5.906 4.586 C 5.763 4.281,5.505 4.086,5.162 4.020 C 4.965 3.983,1.005 3.985,0.814 4.022 " fill="#2B2C30" stroke="none" fill-rule="evenodd"></path></svg>