<svg width="42" height="36" viewBox="0 0 42 36" fill="none" xmlns="http://www.w3.org/2000/svg"><path d="M36.555 0.115 C 36.429 0.178,36.256 0.328,36.170 0.447 L 36.015 0.665 36.015 17.995 L 36.015 35.326 36.209 35.581 C 36.330 35.739,36.502 35.864,36.664 35.912 C 36.836 35.963,37.680 35.981,39.142 35.967 C 41.257 35.946,41.369 35.938,41.557 35.800 C 41.666 35.720,41.810 35.547,41.877 35.415 C 41.993 35.188,42.000 34.213,42.000 17.990 C 42.000 1.767,41.993 0.792,41.877 0.565 C 41.810 0.433,41.666 0.260,41.557 0.180 C 41.368 0.041,41.261 0.034,39.072 0.018 C 37.070 0.002,36.756 0.015,36.555 0.115 M24.799 12.038 C 24.467 12.117,24.256 12.279,24.125 12.553 C 24.020 12.776,24.010 13.734,24.010 23.986 C 24.010 34.500,24.018 35.189,24.133 35.415 C 24.200 35.547,24.344 35.720,24.453 35.800 C 24.641 35.939,24.751 35.946,26.923 35.965 C 29.147 35.985,29.202 35.982,29.467 35.833 C 30.011 35.527,29.969 36.583,29.946 23.889 L 29.925 12.533 29.709 12.317 C 29.590 12.198,29.369 12.072,29.219 12.037 C 28.890 11.961,25.121 11.962,24.799 12.038 M12.481 20.157 C 12.013 20.443,12.040 19.955,12.040 28.003 C 12.040 36.149,12.001 35.534,12.538 35.836 C 12.797 35.981,12.867 35.985,15.077 35.965 C 17.249 35.946,17.359 35.939,17.547 35.800 C 17.656 35.720,17.800 35.547,17.867 35.415 C 17.982 35.191,17.990 34.691,17.990 27.976 C 17.990 19.999,18.017 20.458,17.537 20.161 C 17.320 20.027,17.193 20.020,15.007 20.020 C 12.847 20.021,12.691 20.029,12.481 20.157 M0.483 24.169 C -0.024 24.507,0.000 24.219,0.000 29.995 C 0.000 34.788,0.009 35.193,0.123 35.415 C 0.190 35.547,0.334 35.720,0.443 35.800 C 0.631 35.939,0.740 35.946,2.928 35.964 C 5.058 35.982,5.232 35.974,5.460 35.851 C 5.595 35.779,5.768 35.612,5.845 35.482 C 5.982 35.251,5.985 35.119,5.985 29.960 L 5.985 24.675 5.822 24.446 C 5.513 24.014,5.489 24.010,2.989 24.010 C 0.747 24.010,0.718 24.012,0.483 24.169 " fill="#2B2C30" stroke="none" fill-rule="evenodd"></path></svg>