<svg width="54" height="48" viewBox="0 0 54 48" fill="none" xmlns="http://www.w3.org/2000/svg"><path d="M48.488 0.158 C 47.930 0.504,47.970 -1.328,47.970 23.985 C 47.970 45.181,47.982 47.113,48.117 47.398 C 48.375 47.942,48.518 47.970,50.985 47.970 C 53.420 47.970,53.603 47.936,53.863 47.433 C 53.984 47.199,54.000 44.532,54.000 23.985 C 54.000 3.438,53.984 0.771,53.863 0.537 C 53.603 0.033,53.423 -0.000,50.967 0.002 C 49.025 0.004,48.703 0.025,48.488 0.158 M36.810 12.026 C 36.446 12.152,36.243 12.300,36.127 12.525 C 36.019 12.735,36.000 15.319,36.000 29.970 C 36.000 48.873,35.960 47.535,36.537 47.833 C 36.922 48.033,41.013 48.034,41.432 47.835 C 42.030 47.551,41.983 49.016,42.009 30.183 C 42.027 16.591,42.009 13.001,41.919 12.732 C 41.856 12.545,41.691 12.307,41.551 12.204 C 41.312 12.026,41.175 12.014,39.121 11.997 C 37.924 11.988,36.884 12.001,36.810 12.026 M24.423 24.190 C 24.317 24.275,24.186 24.433,24.131 24.542 C 24.058 24.683,24.030 27.893,24.030 36.038 L 24.030 47.337 24.293 47.631 L 24.555 47.925 27.000 47.925 L 29.445 47.925 29.707 47.631 L 29.970 47.337 29.970 36.038 C 29.970 27.893,29.942 24.683,29.869 24.542 C 29.613 24.040,29.579 24.034,27.000 24.034 C 24.874 24.034,24.594 24.051,24.423 24.190 M12.698 32.064 C 12.530 32.125,12.307 32.289,12.203 32.429 C 12.016 32.682,12.015 32.716,12.015 39.953 C 12.015 47.929,11.990 47.561,12.559 47.831 C 12.986 48.034,17.072 48.036,17.463 47.833 C 18.022 47.544,18.000 47.868,18.000 40.001 C 18.000 32.253,18.012 32.450,17.528 32.129 C 17.254 31.948,13.171 31.893,12.698 32.064 M0.470 36.140 C -0.006 36.474,-0.000 36.399,-0.000 41.985 C -0.000 47.672,-0.011 47.550,0.537 47.833 C 0.922 48.033,5.013 48.034,5.432 47.835 C 6.006 47.563,5.982 47.795,6.011 42.188 C 6.029 38.706,6.006 36.964,5.939 36.716 C 5.870 36.461,5.754 36.299,5.553 36.176 C 5.287 36.014,5.087 36.001,2.968 36.000 C 1.031 36.000,0.639 36.022,0.470 36.140 " fill="#2B2C30" stroke="none" fill-rule="evenodd"></path></svg>