<svg width="56" height="28" viewBox="0 0 56 28" fill="none" xmlns="http://www.w3.org/2000/svg"><path d="M12.133 0.140 C 10.488 0.368,9.186 0.769,7.747 1.493 C 3.868 3.442,1.230 6.887,0.259 11.269 C -0.034 12.589,-0.034 15.411,0.259 16.731 C 1.520 22.420,5.561 26.463,11.262 27.740 C 12.142 27.937,12.413 27.947,17.761 27.978 L 23.341 28.011 23.664 27.688 L 23.987 27.365 23.987 25.065 C 23.987 22.545,23.948 22.332,23.454 22.135 C 23.277 22.065,21.521 22.021,17.967 21.998 C 12.908 21.967,12.717 21.959,12.011 21.759 C 9.018 20.911,6.899 18.721,6.204 15.755 C 5.991 14.845,5.991 13.155,6.204 12.245 C 6.813 9.645,8.612 7.541,11.052 6.576 C 12.403 6.041,12.419 6.040,18.013 6.002 C 21.506 5.979,23.278 5.934,23.454 5.864 C 23.948 5.668,23.987 5.455,23.987 2.946 L 23.987 0.656 23.714 0.351 L 23.442 0.047 18.231 0.032 C 14.362 0.021,12.792 0.049,12.133 0.140 M32.596 0.120 C 32.095 0.407,32.062 0.553,32.030 2.660 C 31.995 4.917,32.036 5.321,32.338 5.672 L 32.557 5.927 37.862 5.982 C 43.579 6.042,43.606 6.045,44.948 6.576 C 46.959 7.371,48.593 8.997,49.414 11.017 C 50.150 12.829,50.150 15.171,49.414 16.983 C 48.608 18.966,46.828 20.753,44.987 21.426 C 43.476 21.978,43.690 21.960,37.908 22.019 L 32.557 22.073 32.338 22.328 C 32.036 22.679,31.995 23.083,32.030 25.340 C 32.063 27.492,32.108 27.675,32.657 27.903 C 32.849 27.982,34.380 28.002,38.369 27.978 C 43.581 27.947,43.860 27.936,44.738 27.740 C 50.434 26.465,54.485 22.413,55.737 16.738 C 56.030 15.407,56.030 12.593,55.737 11.262 C 54.466 5.499,50.260 1.375,44.473 0.216 C 43.453 0.012,32.933 -0.073,32.596 0.120 " fill="#2B2C30" stroke="none" fill-rule="evenodd"></path></svg>