<svg width="54" height="36" viewBox="0 0 54 36" fill="none" xmlns="http://www.w3.org/2000/svg"><path d="M48.488 0.158 C 47.934 0.502,47.970 -0.746,47.970 18.000 C 47.970 33.657,47.983 35.144,48.117 35.428 C 48.375 35.972,48.518 36.000,50.985 36.000 C 52.788 36.000,53.248 35.975,53.463 35.863 C 54.040 35.565,54.000 36.903,54.000 18.000 C 54.000 -0.903,54.040 0.435,53.463 0.137 C 53.247 0.025,52.789 0.000,50.967 0.002 C 49.025 0.004,48.703 0.025,48.488 0.158 M12.698 12.084 C 12.530 12.145,12.307 12.309,12.203 12.449 L 12.015 12.703 12.015 23.978 C 12.015 36.344,11.980 35.586,12.559 35.861 C 12.986 36.064,17.072 36.066,17.463 35.863 C 18.033 35.569,18.000 36.298,18.000 24.026 C 18.000 11.920,18.022 12.477,17.528 12.149 C 17.254 11.968,13.171 11.913,12.698 12.084 M36.855 12.027 C 36.491 12.112,36.275 12.273,36.139 12.559 C 36.016 12.819,36.000 14.135,36.000 24.026 C 36.000 36.298,35.967 35.569,36.537 35.863 C 36.922 36.063,41.013 36.064,41.432 35.865 C 42.025 35.584,41.983 36.435,42.009 24.200 C 42.035 12.168,42.051 12.575,41.551 12.204 C 41.312 12.026,41.176 12.014,39.166 12.000 C 37.994 11.992,36.954 12.004,36.855 12.027 M0.558 20.128 C -0.026 20.421,-0.000 20.053,0.000 27.990 C 0.000 35.902,-0.022 35.574,0.537 35.863 C 0.922 36.063,5.013 36.064,5.432 35.865 C 6.016 35.588,5.983 36.028,6.010 28.207 C 6.037 20.495,6.042 20.578,5.551 20.214 C 5.312 20.036,5.171 20.024,3.076 20.002 C 1.159 19.983,0.814 20.000,0.558 20.128 M24.604 20.109 C 23.993 20.375,24.030 19.869,24.030 28.009 L 24.030 35.367 24.293 35.661 L 24.555 35.955 27.000 35.955 L 29.445 35.955 29.707 35.661 L 29.970 35.367 29.970 28.009 C 29.970 19.843,30.010 20.370,29.376 20.105 C 28.952 19.928,25.013 19.931,24.604 20.109 " fill="#2B2C30" stroke="none" fill-rule="evenodd"></path></svg>