<svg width="48" height="48" viewBox="0 0 48 48" fill="none" xmlns="http://www.w3.org/2000/svg"><path d="M3.161 0.094 C 1.719 0.369,0.399 1.697,0.088 3.184 C -0.037 3.785,-0.037 44.215,0.088 44.816 C 0.401 46.315,1.685 47.599,3.184 47.912 C 3.785 48.037,44.215 48.037,44.816 47.912 C 46.315 47.599,47.599 46.315,47.912 44.816 C 48.037 44.215,48.037 3.785,47.912 3.184 C 47.594 1.659,46.277 0.363,44.765 0.087 C 44.149 -0.026,3.752 -0.019,3.161 0.094 M42.000 24.000 L 42.000 42.000 24.000 42.000 L 6.000 42.000 6.000 24.000 L 6.000 6.000 24.000 6.000 L 42.000 6.000 42.000 24.000 " fill="#2B2C30" stroke="none" fill-rule="evenodd"></path></svg>