<svg width="48" height="36" viewBox="0 0 48 36" fill="none" xmlns="http://www.w3.org/2000/svg"><path d="M43.760 0.089 C 43.650 0.132,37.359 6.366,29.781 13.942 L 16.001 27.718 10.181 21.907 C 4.013 15.750,4.195 15.912,3.580 16.043 C 3.244 16.114,0.118 19.199,0.036 19.541 C 0.006 19.662,0.007 19.896,0.036 20.061 C 0.084 20.327,0.942 21.211,7.785 28.051 C 16.228 36.489,15.685 36.005,16.376 35.720 C 16.597 35.629,20.893 31.384,32.108 20.177 C 40.593 11.698,47.640 4.620,47.768 4.448 C 48.028 4.099,48.069 3.722,47.885 3.376 C 47.748 3.117,44.835 0.215,44.585 0.089 C 44.375 -0.018,44.032 -0.018,43.760 0.089 " fill="#2B2C30" stroke="none" fill-rule="evenodd"></path></svg>