<svg width="60" height="60" viewBox="0 0 60 60" fill="none" xmlns="http://www.w3.org/2000/svg"><path d="M27.650 0.095 C 23.111 0.507,18.902 1.797,15.240 3.899 C 8.010 8.050,2.891 14.784,0.910 22.750 C 0.273 25.311,0.058 27.143,0.058 30.000 C 0.058 32.857,0.273 34.689,0.910 37.250 C 3.367 47.129,10.791 55.188,20.400 58.407 C 23.622 59.486,26.495 59.947,30.000 59.947 C 36.118 59.947,41.532 58.316,46.618 54.942 C 57.153 47.953,62.145 35.068,59.089 22.750 C 57.296 15.520,52.822 9.174,46.618 5.058 C 42.612 2.400,38.601 0.906,33.700 0.246 C 32.348 0.064,28.935 -0.021,27.650 0.095 M33.500 6.248 C 38.663 7.037,43.272 9.366,46.953 13.047 C 50.654 16.748,52.952 21.307,53.760 26.550 C 54.019 28.232,54.019 31.768,53.760 33.450 C 52.952 38.693,50.654 43.252,46.953 46.953 C 43.252 50.654,38.693 52.952,33.450 53.760 C 31.768 54.019,28.232 54.019,26.550 53.760 C 21.307 52.952,16.748 50.654,13.047 46.953 C 9.346 43.252,7.048 38.693,6.240 33.450 C 5.982 31.777,5.981 28.237,6.238 26.550 C 7.571 17.787,13.434 10.567,21.746 7.454 C 23.480 6.805,25.504 6.360,28.100 6.059 C 28.875 5.969,32.505 6.096,33.500 6.248 M41.750 18.110 C 41.640 18.172,38.052 21.716,33.776 25.986 L 26.002 33.748 22.176 29.930 C 19.710 27.470,18.255 26.090,18.082 26.047 C 17.935 26.011,17.710 26.014,17.582 26.053 C 17.299 26.140,14.343 29.038,14.136 29.432 C 13.811 30.050,13.758 29.988,19.685 35.932 C 22.746 39.002,25.372 41.578,25.520 41.657 C 25.669 41.736,25.938 41.800,26.119 41.800 C 26.423 41.800,27.214 41.035,36.224 32.024 C 45.880 22.369,46.000 22.244,46.000 21.855 C 46.000 21.480,45.923 21.384,44.325 19.779 C 42.921 18.368,42.593 18.087,42.300 18.046 C 42.108 18.018,41.860 18.047,41.750 18.110 " fill="#2B2C30" stroke="none" fill-rule="evenodd"></path></svg>