<svg width="48" height="48" viewBox="0 0 48 48" fill="none" xmlns="http://www.w3.org/2000/svg"><path d="M3.240 0.083 C 1.841 0.371,0.743 1.325,0.212 2.712 L 0.040 3.160 0.040 24.000 L 0.040 44.840 0.212 45.288 C 0.663 46.468,1.531 47.338,2.700 47.784 L 3.160 47.960 24.000 47.960 L 44.840 47.960 45.300 47.784 C 46.469 47.338,47.337 46.468,47.788 45.288 L 47.960 44.840 47.960 24.000 L 47.960 3.160 47.784 2.700 C 47.338 1.531,46.468 0.663,45.288 0.212 L 44.840 0.040 24.200 0.028 C 12.848 0.022,3.416 0.046,3.240 0.083 M42.000 24.000 L 42.000 42.000 24.000 42.000 L 6.000 42.000 6.000 24.000 L 6.000 6.000 24.000 6.000 L 42.000 6.000 42.000 24.000 M35.840 10.808 C 35.730 10.851,31.626 14.899,26.720 19.803 L 17.799 28.720 15.120 26.035 C 13.646 24.558,12.343 23.298,12.224 23.235 C 11.950 23.089,11.651 23.089,11.376 23.234 C 11.257 23.297,10.449 24.064,9.580 24.938 C 8.025 26.504,8.000 26.534,8.000 26.869 C 8.000 27.055,8.051 27.305,8.114 27.424 C 8.177 27.543,10.274 29.679,12.774 32.172 C 17.615 36.998,17.521 36.918,18.100 36.727 C 18.285 36.665,21.476 33.525,29.160 25.840 L 39.960 15.040 39.960 14.561 L 39.960 14.082 38.400 12.513 C 36.639 10.741,36.407 10.587,35.840 10.808 " fill="#2B2C30" stroke="none" fill-rule="evenodd"></path></svg>