<svg width="48" height="48" viewBox="0 0 48 48" fill="none" xmlns="http://www.w3.org/2000/svg"><path d="M3.240 0.083 C 1.841 0.371,0.743 1.325,0.212 2.712 L 0.040 3.160 0.040 24.000 L 0.040 44.840 0.212 45.288 C 0.663 46.468,1.531 47.338,2.700 47.784 L 3.160 47.960 24.000 47.960 L 44.840 47.960 45.300 47.784 C 46.469 47.338,47.337 46.468,47.788 45.288 L 47.960 44.840 47.960 24.000 L 47.960 3.160 47.784 2.700 C 47.338 1.531,46.468 0.663,45.288 0.212 L 44.840 0.040 24.200 0.028 C 12.848 0.022,3.416 0.046,3.240 0.083 M42.000 24.000 L 42.000 42.000 24.000 42.000 L 6.000 42.000 6.000 24.000 L 6.000 6.000 24.000 6.000 L 42.000 6.000 42.000 24.000 M12.471 21.160 C 12.037 21.396,12.000 21.619,12.000 24.000 C 12.000 26.417,12.033 26.602,12.511 26.864 C 12.742 26.990,13.557 27.000,24.000 27.000 C 34.443 27.000,35.258 26.990,35.489 26.864 C 35.967 26.602,36.000 26.417,36.000 24.000 C 36.000 21.603,35.963 21.389,35.513 21.156 C 35.178 20.983,12.789 20.987,12.471 21.160 " fill="#2B2C30" stroke="none" fill-rule="evenodd"></path></svg>