<svg width="32" height="20" viewBox="0 0 32 20" fill="none" xmlns="http://www.w3.org/2000/svg"><path d="M15.627 0.084 C 15.388 0.186,0.251 15.301,0.103 15.585 C -0.028 15.837,-0.028 16.163,0.103 16.415 C 0.255 16.708,3.233 19.657,3.478 19.758 C 3.716 19.856,3.837 19.860,4.127 19.778 C 4.318 19.724,5.098 18.966,10.173 13.899 L 16.000 8.081 21.827 13.899 C 26.902 18.966,27.682 19.724,27.873 19.778 C 28.142 19.854,28.185 19.854,28.453 19.782 C 28.631 19.733,28.927 19.465,30.232 18.169 C 31.252 17.156,31.833 16.539,31.898 16.400 C 32.025 16.129,32.025 15.871,31.898 15.600 C 31.755 15.295,16.638 0.196,16.362 0.082 C 16.115 -0.020,15.869 -0.019,15.627 0.084 " fill="#2B2C30" stroke="none" fill-rule="evenodd"></path></svg>