<svg width="44" height="48" viewBox="0 0 44 48" fill="none" xmlns="http://www.w3.org/2000/svg"><path d="M3.337 0.139 C 3.216 0.215,2.435 0.965,1.601 1.807 C -0.004 3.427,-0.095 3.559,0.033 4.088 C 0.066 4.225,1.858 6.073,5.596 9.827 C 8.628 12.872,13.057 17.319,15.436 19.708 L 19.763 24.053 9.925 33.898 C 1.970 41.859,0.077 43.789,0.038 43.982 C -0.071 44.508,0.002 44.610,1.716 46.328 L 3.344 47.960 3.820 47.960 L 4.297 47.960 15.990 36.265 C 24.890 27.363,27.705 24.506,27.776 24.303 C 27.979 23.717,28.643 24.422,16.043 11.833 C 9.619 5.414,4.291 0.125,4.203 0.081 C 3.961 -0.041,3.583 -0.016,3.337 0.139 M19.397 0.114 C 19.276 0.176,18.508 0.894,17.691 1.708 C 16.056 3.339,15.910 3.550,16.053 4.077 C 16.119 4.322,17.554 5.786,25.958 14.190 L 35.786 24.016 25.923 33.881 C 17.402 42.403,16.059 43.775,16.052 43.965 C 16.039 44.313,16.069 44.539,16.150 44.697 C 16.253 44.897,18.813 47.485,19.169 47.748 C 19.572 48.046,20.099 48.047,20.504 47.751 C 20.661 47.636,25.945 42.373,32.245 36.056 C 44.580 23.688,43.951 24.358,43.781 23.765 C 43.728 23.579,40.963 20.766,32.143 11.925 C 25.780 5.548,20.458 0.256,20.316 0.165 C 20.013 -0.027,19.705 -0.044,19.397 0.114 " fill="#2B2C30" stroke="none" fill-rule="evenodd"></path></svg>