<svg width="36" height="32" viewBox="0 0 36 32" fill="none" xmlns="http://www.w3.org/2000/svg"><path d="M15.600 0.095 C 15.332 0.210,0.282 15.234,0.116 15.553 C 0.052 15.675,0.000 15.872,0.000 15.990 C 0.000 16.108,0.052 16.305,0.116 16.427 C 0.292 16.766,15.334 31.773,15.613 31.888 C 15.890 32.002,16.146 32.005,16.397 31.896 C 16.503 31.850,17.296 31.101,18.160 30.231 C 19.472 28.910,19.740 28.611,19.793 28.410 C 19.867 28.124,19.806 27.799,19.631 27.560 C 19.563 27.466,16.941 24.825,13.804 21.690 L 8.101 15.991 13.913 10.170 C 19.256 4.819,19.730 4.329,19.788 4.088 C 19.822 3.944,19.842 3.795,19.830 3.758 C 19.819 3.721,19.792 3.609,19.771 3.510 C 19.718 3.268,16.757 0.277,16.410 0.115 C 16.121 -0.020,15.882 -0.026,15.600 0.095 M31.590 0.115 C 31.290 0.256,16.177 15.365,16.083 15.619 C 16.003 15.835,16.003 16.145,16.083 16.361 C 16.177 16.615,31.289 31.724,31.590 31.865 C 31.883 32.002,32.095 32.009,32.387 31.888 C 32.662 31.774,35.534 28.934,35.704 28.607 C 35.841 28.345,35.853 28.031,35.736 27.763 C 35.687 27.651,33.246 25.166,29.886 21.810 C 26.715 18.642,24.120 16.023,24.120 15.990 C 24.120 15.957,26.715 13.338,29.886 10.170 C 33.246 6.814,35.687 4.329,35.736 4.217 C 35.853 3.949,35.841 3.636,35.705 3.373 C 35.536 3.048,32.663 0.208,32.387 0.093 C 32.095 -0.029,31.884 -0.023,31.590 0.115 " fill="#2B2C30" stroke="none" fill-rule="evenodd"></path></svg>