<svg width="32" height="20" viewBox="0 0 32 20" fill="none" xmlns="http://www.w3.org/2000/svg"><path d="M3.440 0.102 C 3.301 0.167,2.676 0.756,1.644 1.794 C 0.093 3.355,0.061 3.392,0.024 3.645 C -0.059 4.216,-0.608 3.623,7.751 11.992 C 13.049 17.297,15.452 19.668,15.600 19.738 C 15.871 19.865,16.129 19.865,16.400 19.738 C 16.548 19.668,18.951 17.297,24.249 11.992 C 32.608 3.623,32.059 4.216,31.976 3.645 C 31.939 3.392,31.907 3.355,30.356 1.794 C 29.324 0.756,28.699 0.167,28.560 0.102 C 28.299 -0.020,28.060 -0.026,27.798 0.082 C 27.658 0.140,25.905 1.858,21.800 5.962 L 16.000 11.760 10.200 5.962 C 6.095 1.858,4.342 0.140,4.202 0.082 C 3.940 -0.026,3.701 -0.020,3.440 0.102 " fill="#2B2C30" stroke="none" fill-rule="evenodd"></path></svg>