<svg width="48" height="44" viewBox="0 0 48 44" fill="none" xmlns="http://www.w3.org/2000/svg"><path d="M3.391 0.127 C 3.254 0.194,2.457 0.940,1.621 1.785 C 0.022 3.399,-0.075 3.541,0.041 4.100 C 0.085 4.310,2.303 6.571,11.588 15.869 C 17.908 22.199,23.240 27.482,23.436 27.609 C 23.883 27.900,24.117 27.900,24.564 27.609 C 24.760 27.482,30.092 22.199,36.412 15.869 C 48.616 3.648,48.090 4.207,47.958 3.580 C 47.879 3.205,44.795 0.121,44.420 0.042 C 43.795 -0.090,44.244 -0.508,33.820 9.907 L 24.000 19.718 14.220 9.943 C 8.693 4.419,4.342 0.132,4.215 0.084 C 3.908 -0.030,3.686 -0.019,3.391 0.127 M3.391 16.127 C 3.254 16.194,2.457 16.940,1.621 17.785 C 0.022 19.399,-0.075 19.540,0.041 20.100 C 0.120 20.484,23.356 43.720,23.740 43.799 C 24.370 43.929,23.794 44.472,36.213 32.053 C 45.679 22.586,47.916 20.310,47.959 20.100 C 48.076 19.532,47.988 19.406,46.292 17.706 C 44.938 16.351,44.633 16.084,44.387 16.039 C 44.226 16.009,44.010 16.010,43.907 16.040 C 43.804 16.071,39.283 20.529,33.860 25.948 L 24.000 35.799 14.180 25.988 C 8.779 20.592,4.281 16.137,4.185 16.088 C 3.947 15.968,3.687 15.980,3.391 16.127 " fill="#2B2C30" stroke="none" fill-rule="evenodd"></path></svg>