<svg width="36" height="32" viewBox="0 0 36 32" fill="none" xmlns="http://www.w3.org/2000/svg"><path d="M3.420 0.095 C 3.293 0.149,2.599 0.798,1.673 1.728 C 0.005 3.401,-0.049 3.476,0.028 4.009 C 0.068 4.287,0.123 4.345,5.914 10.140 L 11.759 15.991 5.964 21.780 C 2.586 25.154,0.133 27.651,0.084 27.763 C -0.032 28.030,-0.021 28.299,0.118 28.586 C 0.281 28.922,3.133 31.762,3.433 31.887 C 3.710 32.002,3.966 32.005,4.217 31.896 C 4.330 31.847,7.572 28.646,12.071 24.141 C 18.788 17.415,19.739 16.440,19.795 16.228 C 19.938 15.677,20.421 16.200,12.070 7.845 C 7.857 3.629,4.325 0.139,4.221 0.090 C 3.983 -0.023,3.690 -0.021,3.420 0.095 M19.409 0.119 C 19.074 0.285,16.236 3.139,16.113 3.433 C 15.998 3.710,15.995 3.966,16.104 4.217 C 16.153 4.329,18.594 6.814,21.954 10.170 C 25.125 13.338,27.720 15.957,27.720 15.990 C 27.720 16.023,25.125 18.642,21.954 21.810 C 18.594 25.166,16.153 27.651,16.104 27.763 C 15.987 28.031,15.999 28.344,16.135 28.607 C 16.304 28.932,19.177 31.772,19.453 31.887 C 19.745 32.009,19.956 32.003,20.250 31.865 C 20.551 31.724,35.663 16.615,35.757 16.361 C 35.837 16.145,35.837 15.835,35.757 15.619 C 35.663 15.365,20.550 0.256,20.250 0.115 C 19.941 -0.030,19.708 -0.029,19.409 0.119 " fill="#2B2C30" stroke="none" fill-rule="evenodd"></path></svg>