<svg width="32" height="36" viewBox="0 0 32 36" fill="none" xmlns="http://www.w3.org/2000/svg"><path d="M3.440 0.102 C 3.301 0.167,2.676 0.756,1.644 1.794 C 0.093 3.355,0.061 3.392,0.024 3.645 C -0.059 4.216,-0.608 3.623,7.751 11.992 C 13.049 17.297,15.452 19.668,15.600 19.738 C 15.871 19.865,16.129 19.865,16.400 19.738 C 16.548 19.668,18.951 17.297,24.249 11.992 C 32.608 3.623,32.059 4.216,31.976 3.645 C 31.939 3.392,31.907 3.355,30.356 1.794 C 29.324 0.756,28.699 0.167,28.560 0.102 C 28.299 -0.020,28.060 -0.026,27.798 0.082 C 27.658 0.140,25.905 1.858,21.800 5.962 L 16.000 11.760 10.200 5.962 C 6.095 1.858,4.342 0.140,4.202 0.082 C 3.940 -0.026,3.701 -0.020,3.440 0.102 M3.440 16.102 C 3.145 16.241,0.194 19.208,0.082 19.478 C -0.026 19.740,-0.020 19.979,0.102 20.240 C 0.172 20.388,2.543 22.791,7.848 28.089 C 15.813 36.044,15.598 35.839,16.000 35.839 C 16.402 35.839,16.187 36.044,24.152 28.089 C 29.457 22.791,31.828 20.388,31.898 20.240 C 32.025 19.969,32.025 19.711,31.898 19.440 C 31.759 19.145,28.792 16.194,28.522 16.082 C 28.288 15.985,28.155 15.980,27.867 16.058 C 27.682 16.108,26.874 16.894,21.827 21.937 L 16.000 27.759 10.173 21.937 C 5.126 16.894,4.318 16.108,4.133 16.058 C 3.835 15.978,3.686 15.987,3.440 16.102 " fill="#2B2C30" stroke="none" fill-rule="evenodd"></path></svg>