<svg width="20" height="32" viewBox="0 0 20 32" fill="none" xmlns="http://www.w3.org/2000/svg"><path d="M3.467 0.072 C 3.300 0.135,3.147 0.278,1.740 1.679 C 0.009 3.405,0.017 3.395,0.017 3.817 C 0.017 4.297,-0.502 3.740,5.945 10.192 L 11.749 16.000 5.945 21.808 C 0.292 27.465,0.139 27.622,0.067 27.817 C 0.013 27.964,-0.003 28.069,0.006 28.218 C 0.031 28.614,0.049 28.636,1.740 30.321 C 3.204 31.779,3.294 31.862,3.483 31.932 C 3.747 32.030,4.017 32.016,4.268 31.892 C 4.422 31.816,5.644 30.607,12.071 24.176 C 19.510 16.733,19.695 16.545,19.766 16.350 C 19.863 16.086,19.849 15.816,19.725 15.565 C 19.649 15.412,18.441 14.189,12.009 7.762 C 4.655 0.412,4.376 0.138,4.190 0.070 C 3.949 -0.018,3.705 -0.017,3.467 0.072 " fill="#2B2C30" stroke="none" fill-rule="evenodd"></path></svg>