<svg width="32" height="36" viewBox="0 0 32 36" fill="none" xmlns="http://www.w3.org/2000/svg"><path d="M15.627 0.084 C 15.388 0.186,0.251 15.301,0.103 15.585 C -0.028 15.837,-0.028 16.163,0.103 16.415 C 0.255 16.708,3.233 19.657,3.478 19.758 C 3.716 19.856,3.837 19.860,4.127 19.778 C 4.318 19.724,5.098 18.966,10.173 13.899 L 16.000 8.081 21.827 13.899 C 26.902 18.966,27.682 19.724,27.873 19.778 C 28.142 19.854,28.185 19.854,28.453 19.782 C 28.631 19.733,28.927 19.465,30.232 18.169 C 31.252 17.156,31.833 16.539,31.898 16.400 C 32.025 16.129,32.025 15.871,31.898 15.600 C 31.755 15.295,16.638 0.196,16.362 0.082 C 16.115 -0.020,15.869 -0.019,15.627 0.084 M15.600 16.102 C 15.295 16.245,0.196 31.362,0.082 31.638 C -0.022 31.890,-0.022 32.110,0.082 32.362 C 0.174 32.586,3.118 35.576,3.385 35.718 C 3.601 35.832,4.036 35.829,4.267 35.712 C 4.369 35.659,7.051 33.021,10.227 29.848 L 16.000 24.080 21.773 29.848 C 24.949 33.021,27.631 35.659,27.733 35.711 C 27.964 35.829,28.399 35.832,28.615 35.718 C 28.882 35.576,31.826 32.586,31.918 32.362 C 32.026 32.100,32.020 31.861,31.898 31.600 C 31.828 31.452,29.457 29.049,24.152 23.751 C 17.506 17.113,16.479 16.108,16.293 16.058 C 15.994 15.978,15.846 15.987,15.600 16.102 " fill="#2B2C30" stroke="none" fill-rule="evenodd"></path></svg>