<svg width="20" height="32" viewBox="0 0 20 32" fill="none" xmlns="http://www.w3.org/2000/svg"><path d="M15.633 0.072 C 15.461 0.136,14.989 0.601,7.824 7.762 C 1.373 14.209,0.184 15.412,0.107 15.567 C 0.031 15.720,0.017 15.794,0.017 16.017 C 0.017 16.246,0.030 16.307,0.110 16.452 C 0.179 16.576,2.231 18.647,7.827 24.240 C 15.260 31.669,15.455 31.861,15.650 31.933 C 15.912 32.030,16.211 32.014,16.450 31.891 C 16.677 31.774,19.624 28.821,19.735 28.600 C 19.847 28.377,19.859 28.068,19.766 27.817 C 19.695 27.622,19.536 27.460,13.888 21.808 L 8.084 16.000 13.888 10.192 C 20.335 3.740,19.817 4.297,19.817 3.817 C 19.817 3.395,19.824 3.405,18.093 1.679 C 16.647 0.238,16.538 0.137,16.357 0.071 C 16.116 -0.018,15.872 -0.017,15.633 0.072 " fill="#2B2C30" stroke="none" fill-rule="evenodd"></path></svg>