<svg width="48" height="28" viewBox="0 0 48 28" fill="none" xmlns="http://www.w3.org/2000/svg"><path d="M23.560 0.092 C 23.311 0.227,0.244 23.293,0.115 23.536 C -0.068 23.881,-0.028 24.258,0.230 24.608 C 0.356 24.780,1.104 25.556,1.892 26.333 C 3.388 27.809,3.595 27.947,4.093 27.800 C 4.196 27.769,8.717 23.311,14.140 17.892 L 24.000 8.041 33.860 17.893 C 39.283 23.311,43.804 27.770,43.907 27.800 C 44.412 27.949,44.606 27.817,46.226 26.213 C 47.077 25.370,47.825 24.583,47.887 24.464 C 48.038 24.176,48.030 23.761,47.869 23.518 C 47.682 23.234,24.982 0.510,24.608 0.232 C 24.276 -0.015,23.859 -0.071,23.560 0.092 " fill="#2B2C30" stroke="none" fill-rule="evenodd"></path></svg>