<svg width="44" height="48" viewBox="0 0 44 48" fill="none" xmlns="http://www.w3.org/2000/svg"><path d="M23.613 0.081 C 23.363 0.179,0.247 23.298,0.110 23.588 C -0.062 23.950,-0.028 24.286,0.213 24.611 C 0.330 24.768,5.618 30.086,11.965 36.428 L 23.504 47.960 23.983 47.960 L 24.461 47.960 26.127 46.288 L 27.793 44.616 27.793 44.268 C 27.793 44.076,27.746 43.830,27.688 43.721 C 27.630 43.612,23.192 39.134,17.825 33.770 L 8.067 24.017 17.854 14.227 C 24.916 7.163,27.674 4.359,27.756 4.159 C 27.975 3.628,27.890 3.503,26.127 1.749 C 25.248 0.876,24.458 0.126,24.370 0.081 C 24.177 -0.017,23.863 -0.017,23.613 0.081 M39.449 0.210 C 38.970 0.520,16.146 23.482,16.053 23.749 C 16.000 23.902,16.002 24.057,16.061 24.275 C 16.135 24.551,17.394 25.837,27.817 36.274 L 39.490 47.964 39.993 47.962 L 40.496 47.960 41.996 46.475 C 43.525 44.962,43.755 44.691,43.781 44.367 C 43.830 43.761,44.387 44.353,33.953 33.917 C 28.549 28.512,24.127 24.056,24.127 24.016 C 24.127 23.976,28.533 19.538,33.918 14.153 C 41.811 6.262,43.723 4.313,43.780 4.104 C 43.929 3.557,43.816 3.389,42.184 1.744 C 41.355 0.909,40.570 0.175,40.439 0.113 C 40.090 -0.053,39.816 -0.026,39.449 0.210 " fill="#2B2C30" stroke="none" fill-rule="evenodd"></path></svg>