<svg width="28" height="48" viewBox="0 0 28 48" fill="none" xmlns="http://www.w3.org/2000/svg"><path d="M23.590 0.112 C 23.400 0.203,21.218 2.364,11.752 11.837 C 3.097 20.498,0.128 23.496,0.074 23.631 C -0.014 23.845,-0.020 24.068,0.054 24.331 C 0.101 24.500,1.528 25.945,11.756 36.181 C 18.162 42.593,23.460 47.870,23.529 47.906 C 23.606 47.947,23.790 47.973,24.000 47.973 C 24.303 47.973,24.369 47.957,24.550 47.836 C 24.664 47.760,25.401 47.052,26.189 46.261 C 27.693 44.750,27.810 44.603,27.812 44.217 C 27.814 43.727,28.493 44.438,17.893 33.833 L 8.074 24.010 17.851 14.233 C 24.548 7.537,27.658 4.397,27.721 4.267 C 27.833 4.037,27.842 3.659,27.741 3.418 C 27.633 3.158,24.736 0.266,24.433 0.115 C 24.141 -0.030,23.890 -0.031,23.590 0.112 " fill="#2B2C30" stroke="none" fill-rule="evenodd"></path></svg>