<svg width="54" height="56" viewBox="0 0 54 56" fill="none" xmlns="http://www.w3.org/2000/svg"><path d="M18.045 0.060 C 14.599 0.523,11.816 3.107,11.158 6.456 L 11.048 7.014 6.626 7.039 C 2.313 7.064,2.195 7.070,1.784 7.259 C 1.188 7.535,0.585 8.125,0.294 8.717 C -0.037 9.392,-0.062 10.520,0.240 11.176 C 0.499 11.737,1.111 12.387,1.629 12.649 C 2.322 13.001,2.974 13.049,7.087 13.049 L 10.980 13.050 10.980 16.017 L 10.980 18.983 6.635 19.009 L 2.291 19.035 1.689 19.331 C 1.034 19.654,0.585 20.106,0.255 20.778 C -0.056 21.409,-0.042 22.539,0.285 23.237 C 0.590 23.888,1.239 24.511,1.883 24.772 C 2.376 24.971,2.460 24.975,6.683 25.001 L 10.980 25.027 10.980 27.993 L 10.980 30.960 7.042 30.961 C 4.877 30.961,2.867 31.000,2.577 31.047 C 1.532 31.219,0.717 31.822,0.284 32.746 C -0.042 33.441,-0.056 34.572,0.255 35.202 C 0.585 35.874,1.034 36.326,1.689 36.649 L 2.291 36.945 6.635 36.971 L 10.980 36.997 10.980 40.005 L 10.980 43.014 6.547 43.039 L 2.115 43.065 1.661 43.304 C 1.109 43.596,0.501 44.238,0.240 44.804 C 0.091 45.129,0.047 45.399,0.046 45.990 C 0.045 46.647,0.081 46.828,0.297 47.268 C 0.613 47.911,1.290 48.531,1.943 48.775 C 2.416 48.952,2.620 48.960,6.738 48.960 L 11.038 48.960 11.183 49.628 C 11.868 52.785,14.379 55.239,17.537 55.837 C 18.192 55.961,19.427 55.980,27.000 55.980 C 34.573 55.980,35.808 55.961,36.463 55.837 C 39.621 55.239,42.132 52.785,42.817 49.628 L 42.962 48.960 47.262 48.960 C 51.380 48.960,51.584 48.952,52.057 48.775 C 52.710 48.531,53.387 47.911,53.703 47.268 C 53.919 46.828,53.955 46.647,53.954 45.990 C 53.953 45.399,53.909 45.129,53.760 44.804 C 53.499 44.238,52.891 43.596,52.339 43.304 L 51.885 43.065 47.453 43.039 L 43.020 43.014 43.020 40.002 L 43.020 36.990 47.189 36.990 C 50.588 36.990,51.439 36.966,51.801 36.858 C 53.596 36.325,54.475 34.415,53.703 32.729 C 53.290 31.827,52.464 31.218,51.423 31.047 C 51.133 31.000,49.123 30.961,46.957 30.961 L 43.020 30.960 43.020 27.990 L 43.020 25.020 47.144 25.020 C 51.738 25.020,51.845 25.008,52.715 24.420 C 54.776 23.024,54.228 19.843,51.801 19.122 C 51.439 19.014,50.588 18.990,47.189 18.990 L 43.020 18.990 43.020 16.020 L 43.020 13.050 46.913 13.049 C 51.026 13.049,51.678 13.001,52.371 12.649 C 52.889 12.387,53.501 11.737,53.760 11.176 C 54.062 10.520,54.037 9.392,53.706 8.717 C 53.415 8.125,52.812 7.535,52.216 7.259 C 51.805 7.070,51.687 7.064,47.378 7.039 L 42.960 7.014 42.816 6.349 C 42.176 3.398,39.974 1.091,36.990 0.245 C 36.324 0.056,36.201 0.053,27.315 0.039 C 22.365 0.030,18.194 0.040,18.045 0.060 M36.105 6.346 C 36.360 6.523,36.580 6.785,36.742 7.104 L 36.990 7.592 36.990 27.990 L 36.990 48.388 36.742 48.876 C 36.580 49.195,36.360 49.457,36.105 49.634 L 35.714 49.905 27.000 49.905 L 18.286 49.905 17.895 49.634 C 17.640 49.457,17.420 49.195,17.258 48.876 L 17.010 48.388 17.011 27.996 L 17.012 7.605 17.226 7.144 C 17.437 6.691,17.835 6.305,18.273 6.129 C 18.416 6.072,21.569 6.046,27.105 6.058 L 35.715 6.075 36.105 6.346 " fill="#2B2C30" stroke="none" fill-rule="evenodd"></path></svg>