<svg width="56" height="56" viewBox="0 0 56 56" fill="none" xmlns="http://www.w3.org/2000/svg"><path d="M26.133 0.059 C 17.913 0.672,10.583 4.646,5.629 11.176 C 2.802 14.901,1.033 19.181,0.255 24.172 C -0.030 26.001,-0.030 29.999,0.255 31.828 C 0.790 35.261,1.802 38.387,3.269 41.134 C 5.870 46.008,9.992 50.130,14.866 52.731 C 17.613 54.198,20.739 55.210,24.172 55.745 C 26.001 56.030,29.999 56.030,31.828 55.745 C 38.632 54.685,44.416 51.617,48.757 46.767 C 52.604 42.467,54.828 37.714,55.745 31.828 C 56.030 29.999,56.030 26.001,55.745 24.172 C 54.968 19.185,53.197 14.901,50.377 11.183 C 45.747 5.081,39.129 1.242,31.500 0.232 C 30.407 0.087,27.159 -0.017,26.133 0.059 M30.567 6.169 C 39.434 7.132,47.033 13.748,49.284 22.466 C 49.746 24.252,49.949 25.943,49.949 28.000 C 49.949 32.976,48.505 37.302,45.520 41.276 C 43.480 43.992,40.759 46.231,37.660 47.745 C 36.074 48.519,34.886 48.952,33.214 49.364 C 31.308 49.834,30.136 49.970,28.000 49.970 C 25.864 49.970,24.692 49.834,22.786 49.364 C 21.114 48.952,19.926 48.519,18.340 47.745 C 13.912 45.582,10.463 42.132,8.258 37.660 C 7.174 35.462,6.473 33.094,6.156 30.567 C 6.021 29.485,6.021 26.515,6.156 25.433 C 6.473 22.907,7.173 20.543,8.260 18.333 C 9.381 16.054,10.681 14.233,12.457 12.455 C 17.225 7.679,23.717 5.426,30.567 6.169 " fill="#2B2C30" stroke="none" fill-rule="evenodd"></path></svg>