<svg width="56" height="56" viewBox="0 0 56 56" fill="none" xmlns="http://www.w3.org/2000/svg"><path d="M26.133 0.066 C 25.189 0.124,23.391 0.377,22.213 0.619 C 15.695 1.955,9.757 5.735,5.629 11.176 C 2.802 14.901,1.033 19.181,0.255 24.172 C -0.030 26.001,-0.030 29.999,0.255 31.828 C 0.790 35.261,1.802 38.387,3.269 41.134 C 5.870 46.008,9.992 50.130,14.866 52.731 C 17.613 54.198,20.739 55.210,24.172 55.745 C 26.001 56.030,29.999 56.030,31.828 55.745 C 36.821 54.967,41.098 53.198,44.828 50.368 C 50.793 45.843,54.580 39.436,55.734 31.920 C 55.911 30.767,55.942 30.186,55.942 28.000 C 55.942 25.814,55.911 25.233,55.734 24.080 C 54.793 17.951,52.095 12.531,47.880 8.306 C 42.109 2.521,34.309 -0.435,26.133 0.066 M28.000 16.964 L 28.000 27.954 35.747 35.700 C 40.007 39.960,43.493 43.496,43.493 43.556 C 43.493 43.686,42.143 44.885,41.176 45.613 C 38.863 47.355,36.117 48.649,33.214 49.364 C 31.308 49.834,30.136 49.970,28.000 49.970 C 25.864 49.970,24.692 49.834,22.786 49.364 C 21.114 48.952,19.926 48.519,18.340 47.745 C 13.912 45.582,10.463 42.132,8.258 37.660 C 7.174 35.462,6.473 33.094,6.156 30.567 C 6.021 29.485,6.021 26.515,6.156 25.433 C 6.678 21.265,8.347 17.311,10.928 14.124 C 14.726 9.435,20.531 6.435,26.507 6.072 C 27.148 6.033,27.747 5.995,27.837 5.987 C 27.991 5.974,28.000 6.554,28.000 16.964 " fill="#2B2C30" stroke="none" fill-rule="evenodd"></path></svg>