<svg width="56" height="56" viewBox="0 0 56 56" fill="none" xmlns="http://www.w3.org/2000/svg"><path d="M25.725 0.095 C 18.969 0.702,12.921 3.506,8.213 8.213 C 3.893 12.533,1.233 17.843,0.266 24.080 C -0.032 26.001,-0.037 29.948,0.255 31.828 C 1.031 36.815,2.802 41.098,5.629 44.824 C 10.183 50.827,16.518 54.557,24.172 55.744 C 25.206 55.904,25.880 55.941,27.907 55.945 C 30.490 55.951,31.176 55.892,33.330 55.478 C 40.085 54.179,46.150 50.387,50.371 44.824 C 53.198 41.099,54.967 36.819,55.745 31.828 C 56.030 29.999,56.030 26.001,55.745 24.172 C 54.967 19.178,53.217 14.941,50.381 11.185 C 45.792 5.107,39.129 1.242,31.500 0.232 C 30.160 0.054,27.009 -0.020,25.725 0.095 M30.520 6.169 C 34.574 6.612,38.644 8.317,41.876 10.926 C 43.673 12.377,45.674 14.695,46.884 16.728 C 48.446 19.352,49.454 22.317,49.844 25.433 C 49.902 25.895,49.949 27.050,49.949 28.000 C 49.949 28.950,49.902 30.105,49.844 30.567 C 49.527 33.093,48.827 35.457,47.740 37.667 C 45.550 42.119,42.084 45.584,37.660 47.745 C 34.925 49.080,32.232 49.785,29.097 49.985 L 28.093 50.049 28.093 28.027 L 28.093 6.004 28.863 6.038 C 29.287 6.056,30.032 6.115,30.520 6.169 " fill="#2B2C30" stroke="none" fill-rule="evenodd"></path></svg>