<svg width="55" height="40" viewBox="0 0 55 40" fill="none" xmlns="http://www.w3.org/2000/svg"><path d="M7.492 0.145 C 7.284 0.258,6.587 1.585,3.619 7.520 C 1.329 12.101,-0.000 14.856,-0.000 15.026 C -0.000 15.387,0.390 15.831,0.808 15.947 C 1.269 16.075,53.446 16.078,53.907 15.950 C 54.325 15.833,54.627 15.512,54.692 15.112 C 54.737 14.835,54.321 13.954,51.167 7.643 C 48.447 2.202,47.521 0.429,47.301 0.244 L 47.011 -0.000 27.378 0.004 C 10.092 0.007,7.715 0.024,7.492 0.145 M44.595 7.974 C 45.125 9.032,45.558 9.919,45.558 9.945 C 45.558 9.971,37.349 9.992,27.316 9.992 L 9.074 9.992 9.772 8.594 C 10.156 7.825,10.614 6.938,10.789 6.623 L 11.107 6.050 27.370 6.050 L 43.632 6.050 44.595 7.974 M11.871 22.106 C 11.377 22.378,11.371 22.416,11.371 24.979 C 11.371 27.555,11.378 27.595,11.888 27.856 C 12.173 28.002,42.460 28.002,42.746 27.856 C 43.255 27.595,43.263 27.555,43.263 24.979 C 43.263 22.403,43.255 22.363,42.746 22.102 C 42.463 21.958,12.134 21.962,11.871 22.106 M19.810 34.136 C 19.374 34.378,19.348 34.539,19.345 37.009 L 19.342 39.322 19.609 39.621 L 19.877 39.921 27.317 39.921 L 34.757 39.921 35.024 39.621 L 35.292 39.322 35.292 37.026 C 35.292 34.643,35.268 34.476,34.891 34.171 C 34.710 34.024,34.175 34.012,27.362 34.014 C 21.449 34.015,19.987 34.038,19.810 34.136 " fill="#2B2C30" stroke="none" fill-rule="evenodd"></path></svg>