<svg width="48" height="54" viewBox="0 0 48 54" fill="none" xmlns="http://www.w3.org/2000/svg"><path d="M9.854 0.080 C 7.579 0.401,5.530 1.462,3.612 3.314 C 1.242 5.602,0.001 8.285,0.001 11.120 C 0.001 13.430,1.003 16.173,2.550 18.092 C 2.810 18.416,8.742 24.391,15.731 31.371 C 27.429 43.052,28.491 44.092,29.080 44.433 C 30.540 45.279,32.289 45.566,33.800 45.207 C 35.996 44.686,38.137 42.839,39.027 40.698 C 39.400 39.801,39.549 38.920,39.496 37.924 C 39.427 36.613,39.058 35.503,38.323 34.393 C 37.749 33.526,16.855 12.664,16.300 12.404 C 15.092 11.838,13.766 12.064,12.837 12.996 C 12.373 13.461,12.135 13.921,11.998 14.620 C 11.916 15.034,11.921 15.202,12.031 15.687 C 12.102 16.003,12.238 16.392,12.332 16.551 C 12.426 16.710,17.214 21.557,22.972 27.322 C 33.373 37.736,33.440 37.805,33.439 38.122 C 33.439 38.703,32.942 39.199,32.361 39.199 C 32.043 39.200,31.986 39.145,19.816 26.980 C 13.092 20.259,7.427 14.544,7.226 14.280 C 6.773 13.683,6.355 12.862,6.199 12.263 C 5.703 10.357,6.969 7.827,8.920 6.828 C 9.272 6.647,9.740 6.442,9.960 6.370 C 10.583 6.168,11.519 6.075,12.051 6.162 C 12.630 6.256,13.647 6.740,14.280 7.223 C 14.544 7.425,20.416 13.253,27.328 20.175 C 40.906 33.770,40.353 33.183,41.115 34.809 C 41.288 35.179,41.528 35.805,41.649 36.200 C 41.850 36.859,41.868 37.031,41.869 38.240 C 41.870 39.349,41.843 39.659,41.698 40.183 C 41.265 41.745,40.367 43.160,38.843 44.682 C 37.380 46.145,36.196 46.911,34.657 47.392 C 32.454 48.081,29.894 47.638,27.640 46.178 C 27.211 45.900,24.583 43.324,16.400 35.161 C 6.291 25.077,5.692 24.495,5.200 24.274 C 4.743 24.068,4.588 24.040,3.920 24.040 C 3.241 24.040,3.109 24.065,2.681 24.275 C 2.070 24.575,1.489 25.156,1.215 25.741 C 1.027 26.143,1.000 26.299,1.000 27.000 C 1.000 28.412,0.068 27.365,11.670 38.989 C 17.286 44.614,22.204 49.490,22.600 49.823 C 25.449 52.220,29.278 53.685,32.678 53.678 C 36.471 53.671,40.102 52.007,43.233 48.841 C 45.635 46.412,47.170 43.635,47.775 40.627 C 48.015 39.432,48.035 37.005,47.815 35.880 C 47.475 34.146,46.935 32.718,46.054 31.219 C 44.920 29.291,45.168 29.553,31.488 15.854 C 21.487 5.838,18.496 2.888,17.840 2.391 C 16.477 1.358,14.601 0.504,13.020 0.199 C 12.224 0.045,10.551 -0.018,9.854 0.080 " fill="#2B2C30" stroke="none" fill-rule="evenodd"></path></svg>