<svg width="48" height="56" viewBox="0 0 48 56" fill="none" xmlns="http://www.w3.org/2000/svg"><path d="M12.504 0.157 C 12.039 0.440,12.000 0.615,12.000 2.396 L 12.000 4.000 6.380 4.000 C 0.947 4.001,0.751 4.006,0.504 4.157 C -0.048 4.493,-0.004 2.247,0.019 28.818 L 0.040 52.840 0.212 53.288 C 0.663 54.468,1.531 55.338,2.700 55.784 L 3.160 55.960 24.000 55.960 L 44.840 55.960 45.300 55.784 C 46.469 55.338,47.337 54.468,47.788 53.288 L 47.960 52.840 47.981 28.818 C 48.004 2.247,48.048 4.493,47.496 4.157 C 47.249 4.006,47.053 4.001,41.620 4.000 L 36.000 4.000 36.000 2.396 C 36.000 0.615,35.961 0.440,35.496 0.157 C 35.245 0.004,35.007 0.001,24.000 0.001 C 12.993 0.001,12.755 0.004,12.504 0.157 M32.000 7.000 L 32.000 10.000 24.000 10.000 L 16.000 10.000 16.000 7.000 L 16.000 4.000 24.000 4.000 L 32.000 4.000 32.000 7.000 M12.000 11.604 C 12.000 13.385,12.039 13.560,12.504 13.843 C 12.755 13.996,12.993 13.999,24.000 13.999 C 35.007 13.999,35.245 13.996,35.496 13.843 C 35.961 13.560,36.000 13.385,36.000 11.604 L 36.000 10.000 39.000 10.000 L 42.000 10.000 42.000 30.000 L 42.000 50.000 24.000 50.000 L 6.000 50.000 6.000 30.000 L 6.000 10.000 9.000 10.000 L 12.000 10.000 12.000 11.604 M12.504 20.157 C 12.061 20.427,12.000 20.650,12.000 22.000 C 12.000 23.350,12.061 23.573,12.504 23.843 C 12.755 23.996,12.993 23.999,24.000 23.999 C 35.007 23.999,35.245 23.996,35.496 23.843 C 35.939 23.573,36.000 23.350,36.000 22.000 C 36.000 20.650,35.939 20.427,35.496 20.157 C 35.245 20.004,35.007 20.001,24.000 20.001 C 12.993 20.001,12.755 20.004,12.504 20.157 M12.504 28.157 C 12.061 28.427,12.000 28.650,12.000 30.000 C 12.000 31.350,12.061 31.573,12.504 31.843 C 12.755 31.996,12.993 31.999,24.000 31.999 C 35.007 31.999,35.245 31.996,35.496 31.843 C 35.939 31.573,36.000 31.350,36.000 30.000 C 36.000 28.650,35.939 28.427,35.496 28.157 C 35.245 28.004,35.007 28.001,24.000 28.001 C 12.993 28.001,12.755 28.004,12.504 28.157 M12.504 36.157 C 12.061 36.427,12.000 36.650,12.000 38.000 C 12.000 39.350,12.061 39.573,12.504 39.843 C 12.755 39.996,12.993 39.999,24.000 39.999 C 35.007 39.999,35.245 39.996,35.496 39.843 C 35.939 39.573,36.000 39.350,36.000 38.000 C 36.000 36.650,35.939 36.427,35.496 36.157 C 35.245 36.004,35.007 36.001,24.000 36.001 C 12.993 36.001,12.755 36.004,12.504 36.157 " fill="#2B2C30" stroke="none" fill-rule="evenodd"></path></svg>