<svg width="48" height="56" viewBox="0 0 48 56" fill="none" xmlns="http://www.w3.org/2000/svg"><path d="M12.504 0.157 C 12.039 0.440,12.000 0.615,12.000 2.396 L 12.000 4.000 6.396 4.000 C 0.211 4.000,0.477 3.979,0.157 4.504 C 0.003 4.756,0.001 5.096,0.000 28.576 C 0.000 45.655,0.025 52.512,0.088 52.816 C 0.401 54.315,1.685 55.599,3.184 55.912 C 3.785 56.037,44.215 56.037,44.816 55.912 C 46.315 55.599,47.599 54.315,47.912 52.816 C 47.975 52.512,48.000 45.658,48.000 28.592 C 48.000 2.287,48.045 4.492,47.496 4.157 C 47.249 4.006,47.053 4.001,41.620 4.000 L 36.000 4.000 36.000 2.396 C 36.000 0.615,35.961 0.440,35.496 0.157 C 35.245 0.004,35.007 0.001,24.000 0.001 C 12.993 0.001,12.755 0.004,12.504 0.157 M32.000 7.000 L 32.000 10.000 24.000 10.000 L 16.000 10.000 16.000 7.000 L 16.000 4.000 24.000 4.000 L 32.000 4.000 32.000 7.000 M12.000 11.604 C 12.000 13.385,12.039 13.560,12.504 13.843 C 12.755 13.996,12.993 13.999,24.000 13.999 C 35.007 13.999,35.245 13.996,35.496 13.843 C 35.961 13.560,36.000 13.385,36.000 11.604 L 36.000 10.000 39.000 10.000 L 42.000 10.000 42.000 19.520 L 42.000 29.040 37.000 29.040 L 32.000 29.040 32.000 25.374 C 32.000 21.291,31.992 21.224,31.470 20.686 C 30.903 20.102,30.038 19.863,29.348 20.098 C 28.853 20.268,12.814 30.293,12.503 30.627 C 11.802 31.383,11.843 32.727,12.588 33.445 C 13.002 33.843,28.841 43.729,29.336 43.898 C 30.048 44.140,30.873 43.910,31.457 43.307 C 31.997 42.747,32.000 42.725,32.000 38.670 L 32.000 35.040 37.000 35.040 L 42.000 35.040 42.000 42.520 L 42.000 50.000 24.000 50.000 L 6.000 50.000 6.000 30.000 L 6.000 10.000 9.000 10.000 L 12.000 10.000 12.000 11.604 M26.000 32.000 C 26.000 33.540,25.986 34.800,25.970 34.800 C 25.902 34.800,21.559 32.072,21.540 32.018 C 21.521 31.963,25.812 29.222,25.940 29.207 C 25.973 29.203,26.000 30.460,26.000 32.000 " fill="#2B2C30" stroke="none" fill-rule="evenodd"></path></svg>