<svg width="48" height="56" viewBox="0 0 48 56" fill="none" xmlns="http://www.w3.org/2000/svg"><path d="M12.504 0.157 C 12.039 0.440,12.000 0.615,12.000 2.396 L 12.000 4.000 6.396 4.000 C 0.211 4.000,0.477 3.979,0.157 4.504 C 0.003 4.756,0.001 5.096,0.000 28.576 C 0.000 45.655,0.025 52.512,0.088 52.816 C 0.401 54.315,1.685 55.599,3.184 55.912 C 3.785 56.037,44.215 56.037,44.816 55.912 C 46.315 55.599,47.599 54.315,47.912 52.816 C 47.975 52.512,48.000 45.658,48.000 28.592 C 48.000 2.287,48.045 4.492,47.496 4.157 C 47.249 4.006,47.053 4.001,41.620 4.000 L 36.000 4.000 36.000 2.396 C 36.000 0.615,35.961 0.440,35.496 0.157 C 35.245 0.004,35.007 0.001,24.000 0.001 C 12.993 0.001,12.755 0.004,12.504 0.157 M32.000 7.000 L 32.000 10.000 24.000 10.000 L 16.000 10.000 16.000 7.000 L 16.000 4.000 24.000 4.000 L 32.000 4.000 32.000 7.000 M12.000 11.604 C 12.000 13.385,12.039 13.560,12.504 13.843 C 12.755 13.996,12.993 13.999,24.000 13.999 C 35.007 13.999,35.245 13.996,35.496 13.843 C 35.961 13.560,36.000 13.385,36.000 11.604 L 36.000 10.000 39.000 10.000 L 42.000 10.000 42.000 30.000 L 42.000 50.000 30.000 50.000 L 18.000 50.000 18.000 41.520 L 18.000 33.040 21.000 33.040 L 24.000 33.040 24.000 36.201 L 24.000 39.362 24.260 39.646 C 24.564 39.978,25.041 40.089,25.381 39.909 C 25.570 39.809,34.002 32.273,35.336 31.012 C 35.986 30.397,36.093 30.138,35.895 29.663 C 35.808 29.455,34.437 28.170,30.748 24.838 C 27.983 22.340,25.612 20.228,25.480 20.144 C 25.200 19.966,24.750 19.990,24.430 20.199 C 24.017 20.470,24.000 20.621,24.000 23.957 L 24.000 27.040 19.655 27.040 C 15.914 27.040,15.249 27.058,14.875 27.167 C 13.548 27.557,12.479 28.674,12.122 30.043 C 12.016 30.453,12.000 31.766,12.000 40.257 L 12.000 50.000 9.000 50.000 L 6.000 50.000 6.000 30.000 L 6.000 10.000 9.000 10.000 L 12.000 10.000 12.000 11.604 " fill="#2B2C30" stroke="none" fill-rule="evenodd"></path></svg>