<svg width="48" height="56" viewBox="0 0 48 56" fill="none" xmlns="http://www.w3.org/2000/svg"><path d="M12.504 0.157 C 12.039 0.440,12.000 0.615,12.000 2.396 L 12.000 4.000 6.396 4.000 C 0.211 4.000,0.477 3.979,0.157 4.504 C 0.003 4.756,0.001 5.096,0.000 28.576 C 0.000 45.655,0.025 52.512,0.088 52.816 C 0.401 54.315,1.685 55.599,3.184 55.912 C 3.785 56.037,44.215 56.037,44.816 55.912 C 46.315 55.599,47.599 54.315,47.912 52.816 C 47.975 52.512,48.000 45.658,48.000 28.592 C 48.000 2.287,48.045 4.492,47.496 4.157 C 47.249 4.006,47.053 4.001,41.620 4.000 L 36.000 4.000 36.000 2.396 C 36.000 0.615,35.961 0.440,35.496 0.157 C 35.245 0.004,35.007 0.001,24.000 0.001 C 12.993 0.001,12.755 0.004,12.504 0.157 M32.000 7.000 L 32.000 10.000 24.000 10.000 L 16.000 10.000 16.000 7.000 L 16.000 4.000 24.000 4.000 L 32.000 4.000 32.000 7.000 M12.000 11.604 C 12.000 13.385,12.039 13.560,12.504 13.843 C 12.755 13.996,12.993 13.999,24.000 13.999 C 35.007 13.999,35.245 13.996,35.496 13.843 C 35.961 13.560,36.000 13.385,36.000 11.604 L 36.000 10.000 39.000 10.000 L 42.000 10.000 42.000 30.000 L 42.000 50.000 39.000 50.000 L 36.000 50.000 36.000 40.257 C 36.000 29.519,36.025 30.080,35.499 29.093 C 35.033 28.219,34.271 27.578,33.280 27.227 C 32.762 27.044,32.745 27.043,28.380 27.042 L 24.000 27.040 24.000 23.957 C 24.000 20.621,23.983 20.470,23.570 20.199 C 23.250 19.990,22.800 19.966,22.520 20.144 C 21.991 20.480,12.228 29.380,12.105 29.637 C 11.886 30.096,12.006 30.389,12.664 31.012 C 14.017 32.290,22.429 39.809,22.618 39.909 C 22.959 40.089,23.436 39.978,23.740 39.646 L 24.000 39.362 24.000 36.201 L 24.000 33.040 27.000 33.040 L 30.000 33.040 30.000 41.520 L 30.000 50.000 18.000 50.000 L 6.000 50.000 6.000 30.000 L 6.000 10.000 9.000 10.000 L 12.000 10.000 12.000 11.604 " fill="#2B2C30" stroke="none" fill-rule="evenodd"></path></svg>