<svg width="48" height="56" viewBox="0 0 48 56" fill="none" xmlns="http://www.w3.org/2000/svg"><path d="M12.504 0.157 C 12.039 0.440,12.000 0.615,12.000 2.396 L 12.000 4.000 6.380 4.000 C 0.947 4.001,0.751 4.006,0.504 4.157 C -0.048 4.493,-0.004 2.247,0.019 28.818 L 0.040 52.840 0.212 53.288 C 0.663 54.468,1.531 55.338,2.700 55.784 L 3.160 55.960 24.000 55.960 L 44.840 55.960 45.300 55.784 C 46.469 55.338,47.337 54.468,47.788 53.288 L 47.960 52.840 47.981 28.818 C 48.004 2.247,48.048 4.493,47.496 4.157 C 47.249 4.006,47.053 4.001,41.620 4.000 L 36.000 4.000 36.000 2.396 C 36.000 0.615,35.961 0.440,35.496 0.157 C 35.245 0.004,35.007 0.001,24.000 0.001 C 12.993 0.001,12.755 0.004,12.504 0.157 M32.000 7.000 L 32.000 10.000 24.000 10.000 L 16.000 10.000 16.000 7.000 L 16.000 4.000 24.000 4.000 L 32.000 4.000 32.000 7.000 M12.000 11.604 C 12.000 13.385,12.039 13.560,12.504 13.843 C 12.755 13.996,12.993 13.999,24.000 13.999 C 35.007 13.999,35.245 13.996,35.496 13.843 C 35.961 13.560,36.000 13.385,36.000 11.604 L 36.000 10.000 39.000 10.000 L 42.000 10.000 42.000 30.000 L 42.000 50.000 24.000 50.000 L 6.000 50.000 6.000 30.000 L 6.000 10.000 9.000 10.000 L 12.000 10.000 12.000 11.604 M17.519 20.075 C 17.151 20.187,16.810 20.398,16.529 20.687 C 15.968 21.265,16.000 20.580,16.000 32.004 C 16.000 43.450,15.964 42.708,16.543 43.307 C 17.126 43.910,17.952 44.140,18.663 43.898 C 19.156 43.730,34.999 33.842,35.412 33.445 C 36.157 32.727,36.198 31.382,35.497 30.628 C 35.205 30.314,19.172 20.279,18.691 20.110 C 18.356 19.992,17.843 19.976,17.519 20.075 M24.307 30.600 C 25.502 31.347,26.471 31.986,26.460 32.018 C 26.441 32.072,22.098 34.800,22.030 34.800 C 22.014 34.800,22.000 33.537,22.000 31.993 C 22.000 30.450,22.030 29.199,22.067 29.213 C 22.104 29.228,23.112 29.852,24.307 30.600 " fill="#2B2C30" stroke="none" fill-rule="evenodd"></path></svg>