<svg width="60" height="44" viewBox="0 0 60 44" fill="none" xmlns="http://www.w3.org/2000/svg"><path d="M24.750 0.059 C 22.625 0.364,21.307 0.739,19.854 1.451 C 16.430 3.127,13.805 6.104,12.671 9.596 L 12.430 10.339 11.634 10.510 C 7.912 11.311,4.528 13.688,2.356 17.026 C -0.952 22.111,-0.728 29.067,2.901 33.912 C 5.145 36.908,8.139 38.838,11.915 39.721 C 12.834 39.936,13.005 39.940,21.936 39.974 L 31.021 40.008 30.707 39.479 C 29.786 37.928,28.997 36.113,28.643 34.729 L 28.458 34.008 20.904 33.976 C 13.408 33.944,13.344 33.942,12.617 33.719 C 9.396 32.733,7.126 30.419,6.279 27.257 C 5.974 26.119,5.976 23.999,6.282 22.850 C 6.582 21.724,7.379 20.192,8.124 19.307 C 9.304 17.906,11.068 16.817,12.850 16.391 C 14.429 16.014,16.705 16.136,17.976 16.667 C 18.166 16.747,18.336 16.798,18.353 16.781 C 18.370 16.764,18.314 16.502,18.230 16.200 C 18.145 15.897,18.054 15.065,18.028 14.350 C 17.987 13.264,18.014 12.906,18.187 12.178 C 19.124 8.246,22.906 5.601,26.921 6.071 C 29.696 6.396,31.945 7.941,33.153 10.350 C 33.595 11.233,34.000 12.554,34.000 13.116 C 34.000 13.272,34.034 13.400,34.075 13.400 C 34.117 13.400,34.367 13.246,34.631 13.058 C 35.295 12.587,36.286 12.209,37.216 12.073 C 38.187 11.932,39.294 12.071,40.256 12.456 C 40.908 12.717,40.924 12.718,41.541 12.563 C 43.324 12.115,45.873 11.909,47.500 12.081 C 48.023 12.136,48.461 12.171,48.474 12.159 C 48.486 12.146,48.264 11.779,47.979 11.343 C 47.326 10.342,45.789 8.797,44.759 8.104 C 42.806 6.791,40.280 6.000,38.040 6.000 C 37.529 6.000,37.520 5.995,37.093 5.425 C 35.208 2.913,32.040 0.960,28.772 0.294 C 27.798 0.096,25.449 -0.042,24.750 0.059 M44.555 16.110 C 41.479 16.434,38.534 17.813,36.264 19.992 C 34.257 21.918,32.744 24.784,32.233 27.628 C 32.013 28.854,32.013 31.146,32.233 32.372 C 32.731 35.140,33.975 37.613,35.875 39.609 C 40.811 44.796,48.721 45.446,54.461 41.137 C 54.853 40.843,55.595 40.162,56.111 39.622 C 60.622 34.912,61.272 27.780,57.687 22.351 C 55.344 18.804,51.638 16.558,47.379 16.104 C 46.289 15.987,45.710 15.989,44.555 16.110 M43.452 24.612 L 46.055 27.197 48.647 24.603 C 50.073 23.176,51.332 21.994,51.445 21.975 C 51.884 21.904,52.267 22.121,53.029 22.874 C 53.461 23.301,53.883 23.780,53.967 23.939 C 54.278 24.528,54.171 24.675,51.424 27.425 L 48.851 30.000 51.365 32.525 C 52.748 33.914,53.933 35.156,53.999 35.286 C 54.240 35.761,54.054 36.110,53.013 37.133 C 51.541 38.579,51.859 38.699,48.629 35.478 L 46.000 32.855 43.371 35.478 C 40.135 38.705,40.460 38.585,38.962 37.106 C 37.448 35.612,37.341 35.911,40.527 32.723 C 41.942 31.307,43.100 30.104,43.100 30.049 C 43.100 29.994,41.977 28.826,40.604 27.454 C 39.231 26.081,38.056 24.836,37.994 24.685 C 37.798 24.213,38.024 23.802,38.992 22.869 C 39.857 22.035,40.094 21.905,40.600 21.987 C 40.765 22.013,41.739 22.910,43.452 24.612 " fill="#2B2C30" stroke="none" fill-rule="evenodd"></path></svg>