<svg width="56" height="41" viewBox="0 0 56 41" fill="none" xmlns="http://www.w3.org/2000/svg"><path d="M24.733 0.063 C 23.723 0.165,22.505 0.426,21.550 0.744 C 19.366 1.471,17.777 2.463,16.097 4.147 C 14.462 5.786,13.443 7.383,12.728 9.427 L 12.417 10.313 11.599 10.506 C 8.631 11.204,6.249 12.573,4.096 14.817 C 2.114 16.882,0.762 19.545,0.221 22.447 C -0.040 23.845,-0.016 26.572,0.268 27.907 C 1.165 32.115,3.549 35.542,7.127 37.767 C 8.689 38.738,10.556 39.435,12.476 39.763 C 13.518 39.941,14.056 39.947,29.350 39.947 C 43.121 39.947,45.255 39.928,45.978 39.804 C 48.510 39.367,50.590 38.278,52.465 36.409 C 54.690 34.191,55.848 31.551,55.971 28.420 C 56.129 24.366,54.149 20.407,50.842 18.160 L 50.037 17.613 49.979 17.090 C 49.603 13.702,48.235 11.015,45.818 8.918 C 43.856 7.216,41.555 6.277,38.791 6.051 L 37.473 5.943 37.104 5.438 C 36.150 4.136,33.968 2.336,32.360 1.526 C 30.055 0.366,27.184 -0.185,24.733 0.063 M28.000 6.263 C 29.583 6.659,31.260 7.741,32.276 9.023 C 33.177 10.159,33.973 12.035,33.973 13.022 C 33.973 13.183,33.998 13.341,34.029 13.371 C 34.060 13.402,34.280 13.288,34.519 13.118 C 35.547 12.387,36.653 12.040,37.957 12.040 C 39.023 12.040,39.620 12.162,40.460 12.550 C 42.645 13.560,43.963 15.614,43.959 18.005 C 43.956 19.506,43.436 20.897,42.475 21.970 L 42.233 22.240 42.467 22.173 C 42.935 22.040,44.501 22.004,45.137 22.113 C 45.992 22.259,47.315 22.909,47.991 23.515 C 49.025 24.443,49.769 25.878,49.921 27.241 C 50.267 30.333,48.412 33.028,45.415 33.786 C 44.691 33.970,44.376 33.973,29.362 33.972 C 14.774 33.971,14.007 33.963,13.207 33.797 C 10.877 33.313,8.784 31.923,7.528 30.024 C 7.072 29.336,6.510 28.116,6.315 27.393 C 5.923 25.943,5.938 24.118,6.355 22.587 C 7.054 20.016,9.176 17.711,11.760 16.713 C 13.600 16.002,15.981 15.962,17.864 16.610 C 18.151 16.709,18.387 16.778,18.387 16.763 C 18.387 16.749,18.299 16.404,18.191 15.998 C 17.913 14.949,17.913 13.130,18.191 12.087 C 18.803 9.790,20.336 7.899,22.450 6.835 C 24.086 6.011,26.143 5.799,28.000 6.263 M23.326 12.313 L 23.053 12.586 23.053 16.275 L 23.053 19.965 20.386 19.993 L 17.718 20.020 17.446 20.325 C 17.018 20.803,17.063 21.230,17.611 21.906 C 18.948 23.556,25.161 30.972,25.355 31.150 C 25.697 31.464,26.324 31.442,26.681 31.103 C 26.963 30.836,34.373 21.968,34.654 21.563 C 35.013 21.043,34.779 20.284,34.192 20.061 C 34.065 20.013,32.851 19.973,31.494 19.973 L 29.027 19.973 29.027 16.470 C 29.027 12.712,29.004 12.511,28.549 12.192 C 28.362 12.061,28.002 12.040,25.965 12.040 L 23.599 12.040 23.326 12.313 " fill="#2B2C30" stroke="none" fill-rule="evenodd"></path></svg>