<svg width="60" height="45" viewBox="0 0 60 45" fill="none" xmlns="http://www.w3.org/2000/svg"><path d="M24.700 0.062 C 20.276 0.626,16.579 2.853,14.283 6.337 C 13.601 7.372,13.188 8.207,12.748 9.437 L 12.431 10.324 11.340 10.601 C 9.361 11.104,7.881 11.788,6.250 12.952 C 2.135 15.890,-0.194 20.682,0.030 25.750 C 0.206 29.719,1.813 33.200,4.757 35.986 C 6.755 37.877,9.106 39.117,11.811 39.708 C 13.258 40.023,15.142 40.098,21.675 40.099 L 27.900 40.100 27.900 37.050 L 27.900 34.000 20.896 34.000 C 13.133 34.000,13.071 33.996,11.568 33.351 C 10.398 32.849,9.757 32.432,8.852 31.580 C 7.552 30.356,6.748 29.013,6.287 27.291 C 5.977 26.131,5.974 24.017,6.281 22.880 C 7.188 19.526,9.818 17.030,13.178 16.335 C 14.353 16.092,16.491 16.189,17.546 16.532 C 17.983 16.675,18.357 16.776,18.377 16.757 C 18.396 16.737,18.330 16.458,18.231 16.136 C 18.090 15.681,18.050 15.215,18.050 14.050 C 18.050 12.757,18.082 12.446,18.284 11.800 C 19.152 9.019,21.246 7.018,24.100 6.240 C 25.055 5.980,27.084 6.003,28.138 6.286 C 30.759 6.992,32.793 8.886,33.639 11.409 C 33.775 11.816,33.916 12.398,33.952 12.700 C 34.050 13.542,34.059 13.552,34.415 13.253 C 35.321 12.491,36.664 12.057,38.100 12.063 C 38.996 12.067,39.260 12.108,39.900 12.346 C 40.823 12.689,41.088 12.697,42.350 12.420 C 43.833 12.095,45.906 11.951,47.300 12.074 C 47.933 12.130,48.466 12.162,48.486 12.144 C 48.581 12.058,47.467 10.560,46.752 9.809 C 44.519 7.467,41.835 6.235,38.530 6.033 L 37.507 5.970 37.267 5.608 C 36.818 4.930,35.473 3.593,34.507 2.865 C 32.132 1.076,29.404 0.129,26.403 0.052 C 25.659 0.033,24.893 0.038,24.700 0.062 M44.487 16.101 C 41.149 16.484,38.226 17.940,35.876 20.388 C 34.005 22.337,32.737 24.762,32.253 27.318 C 32.168 27.765,32.110 28.141,32.124 28.153 C 32.138 28.165,33.502 28.206,35.154 28.245 L 38.158 28.315 38.293 27.790 C 38.626 26.491,39.682 24.897,40.893 23.866 C 42.248 22.713,44.220 22.000,46.050 22.002 C 47.638 22.004,49.960 22.855,51.050 23.835 L 51.550 24.285 50.486 25.368 C 49.901 25.963,49.368 26.556,49.302 26.686 C 49.131 27.020,49.259 27.553,49.567 27.796 C 49.821 27.995,49.945 28.000,54.621 28.000 L 59.415 28.000 59.710 27.705 L 60.006 27.410 59.978 22.615 C 59.951 18.050,59.941 17.811,59.758 17.609 C 59.514 17.339,59.023 17.205,58.700 17.320 C 58.563 17.370,57.857 18.000,57.131 18.722 L 55.813 20.035 55.402 19.664 C 53.532 17.975,50.892 16.679,48.455 16.254 C 47.360 16.063,45.456 15.989,44.487 16.101 M32.642 32.106 C 32.472 32.156,32.247 32.292,32.142 32.409 C 31.960 32.610,31.949 32.847,31.922 37.183 C 31.892 42.100,31.900 42.192,32.409 42.455 C 33.056 42.789,33.325 42.641,34.839 41.116 L 36.029 39.918 36.773 40.567 C 38.544 42.112,40.636 43.169,43.000 43.715 C 44.263 44.006,46.737 44.075,48.122 43.857 C 53.241 43.052,57.467 39.552,59.176 34.700 C 59.510 33.754,59.853 32.320,59.767 32.233 C 59.736 32.203,58.365 32.153,56.720 32.124 L 53.729 32.071 53.659 32.360 C 53.513 32.967,52.693 34.477,52.165 35.114 C 50.612 36.986,48.444 38.000,46.000 37.998 C 44.764 37.996,43.905 37.833,42.867 37.401 C 42.089 37.077,40.935 36.324,40.507 35.861 L 40.264 35.598 41.274 34.571 C 41.830 34.006,42.315 33.424,42.352 33.276 C 42.445 32.907,42.290 32.501,41.961 32.256 C 41.694 32.056,41.558 32.049,37.318 32.032 C 34.915 32.023,32.811 32.056,32.642 32.106 " fill="#2B2C30" stroke="none" fill-rule="evenodd"></path></svg>