<svg width="60" height="45" viewBox="0 0 60 45" fill="none" xmlns="http://www.w3.org/2000/svg"><path d="M24.700 0.062 C 21.704 0.444,19.237 1.466,17.050 3.230 C 15.121 4.785,13.420 7.258,12.669 9.594 L 12.431 10.337 11.740 10.475 C 8.783 11.066,5.537 13.016,3.563 15.385 C 1.850 17.443,0.768 19.707,0.233 22.354 C -0.039 23.704,-0.016 26.597,0.278 27.950 C 0.744 30.092,1.574 32.032,2.715 33.650 C 3.500 34.763,5.184 36.459,6.264 37.226 C 7.884 38.376,9.851 39.234,11.984 39.720 C 12.934 39.936,13.097 39.940,21.983 39.974 L 31.016 40.008 30.753 39.579 C 29.907 38.200,28.981 36.072,28.640 34.729 L 28.458 34.007 20.954 33.976 C 13.491 33.946,13.446 33.944,12.663 33.718 C 9.458 32.793,7.131 30.438,6.279 27.257 C 6.105 26.608,6.063 26.176,6.066 25.050 C 6.069 23.349,6.260 22.528,6.994 21.050 C 8.148 18.726,10.307 17.007,12.850 16.387 C 14.136 16.073,15.903 16.088,17.150 16.425 C 17.645 16.558,18.137 16.705,18.242 16.751 C 18.405 16.822,18.423 16.805,18.359 16.642 C 18.013 15.766,17.885 13.690,18.103 12.478 C 18.529 10.106,20.263 7.893,22.550 6.801 C 23.772 6.218,24.532 6.057,26.050 6.061 C 27.437 6.065,28.117 6.194,29.245 6.669 C 31.661 7.686,33.501 10.046,33.911 12.656 L 34.037 13.457 34.662 13.038 C 36.315 11.930,38.399 11.713,40.256 12.456 C 40.908 12.717,40.924 12.718,41.541 12.563 C 43.345 12.110,45.962 11.900,47.550 12.080 C 48.045 12.137,48.460 12.172,48.473 12.160 C 48.573 12.061,47.271 10.366,46.502 9.595 C 44.231 7.317,41.131 6.000,38.040 6.000 C 37.529 6.000,37.520 5.994,37.092 5.428 C 36.464 4.596,35.155 3.337,34.229 2.674 C 31.895 1.003,29.278 0.126,26.403 0.052 C 25.659 0.033,24.893 0.038,24.700 0.062 M44.300 16.106 C 41.932 16.402,39.582 17.363,37.504 18.886 C 36.118 19.902,34.337 22.044,33.502 23.700 C 33.036 24.625,32.524 26.105,32.290 27.204 C 31.996 28.585,31.969 31.195,32.235 32.537 C 32.810 35.435,34.064 37.790,36.137 39.863 C 38.211 41.937,40.569 43.193,43.463 43.764 C 44.686 44.006,47.314 44.006,48.537 43.764 C 51.431 43.193,53.789 41.937,55.863 39.863 C 57.936 37.790,59.190 35.435,59.765 32.537 C 60.031 31.195,60.004 28.585,59.710 27.204 C 59.121 24.436,57.878 22.153,55.863 20.137 C 53.792 18.066,51.285 16.738,48.509 16.242 C 47.440 16.051,45.295 15.981,44.300 16.106 M55.325 24.475 C 56.380 25.501,56.571 25.842,56.361 26.325 C 56.279 26.513,53.738 29.127,50.312 32.548 C 44.446 38.403,44.401 38.445,43.999 38.445 C 43.599 38.445,43.544 38.396,39.897 34.745 C 36.476 31.321,36.200 31.019,36.200 30.702 C 36.200 30.402,36.325 30.236,37.230 29.330 C 38.751 27.810,38.447 27.707,41.521 30.773 L 44.001 33.246 48.828 28.423 C 54.561 22.694,53.905 23.093,55.325 24.475 " fill="#2B2C30" stroke="none" fill-rule="evenodd"></path></svg>