<svg width="56" height="52" viewBox="0 0 56 52" fill="none" xmlns="http://www.w3.org/2000/svg"><path d="M47.507 0.147 C 47.378 0.234,45.100 2.472,42.445 5.120 C 39.582 7.973,37.584 9.897,37.538 9.843 C 37.495 9.794,37.244 9.476,36.980 9.137 C 36.716 8.799,36.103 8.142,35.619 7.679 C 31.381 3.628,25.043 2.696,19.740 5.344 C 18.302 6.062,17.240 6.833,16.050 8.023 C 14.461 9.613,13.413 11.264,12.735 13.247 L 12.434 14.128 11.417 14.378 C 7.779 15.272,4.581 17.519,2.454 20.675 C 1.473 22.131,0.572 24.389,0.221 26.273 C -0.022 27.575,-0.022 30.198,0.221 31.500 C 0.570 33.370,1.481 35.653,2.456 37.100 C 3.302 38.357,4.545 39.699,5.740 40.647 C 6.048 40.891,6.319 41.108,6.342 41.129 C 6.365 41.149,5.034 42.519,3.385 44.173 C 1.419 46.144,0.364 47.268,0.323 47.437 C 0.288 47.578,0.289 47.809,0.324 47.950 C 0.401 48.262,3.360 51.272,3.746 51.432 C 4.395 51.701,3.018 53.029,28.210 27.836 L 51.800 4.246 51.800 3.831 C 51.800 3.419,51.792 3.409,50.139 1.749 C 48.643 0.247,48.441 0.076,48.109 0.034 C 47.853 0.002,47.669 0.036,47.507 0.147 M26.779 9.897 C 28.287 10.052,29.458 10.487,30.660 11.339 C 31.413 11.873,32.447 12.985,32.877 13.723 L 33.228 14.325 21.985 25.569 L 10.741 36.812 9.954 36.278 C 9.134 35.721,8.089 34.696,7.566 33.936 C 7.139 33.315,6.482 31.889,6.305 31.199 C 5.945 29.795,5.947 27.972,6.311 26.553 C 6.503 25.800,7.184 24.378,7.688 23.674 C 8.521 22.511,9.899 21.380,11.238 20.762 C 13.154 19.877,15.653 19.732,17.670 20.391 C 18.038 20.511,18.351 20.600,18.363 20.587 C 18.376 20.574,18.299 20.232,18.191 19.825 C 17.913 18.776,17.913 16.957,18.191 15.913 C 19.053 12.675,21.778 10.275,25.013 9.904 C 25.398 9.860,25.740 9.819,25.773 9.812 C 25.807 9.805,26.259 9.844,26.779 9.897 M46.274 18.453 L 43.967 20.767 43.967 21.747 C 43.968 23.274,43.574 24.449,42.703 25.518 C 42.320 25.988,42.287 26.058,42.477 26.000 C 42.919 25.865,44.609 25.828,45.196 25.940 C 46.010 26.096,47.353 26.769,47.992 27.343 C 48.717 27.993,49.404 29.049,49.713 29.987 C 50.033 30.960,50.074 32.470,49.804 33.367 C 49.154 35.524,47.570 37.084,45.491 37.616 C 44.798 37.793,44.428 37.800,35.848 37.800 L 26.926 37.800 23.940 40.787 L 20.954 43.773 33.047 43.773 C 46.340 43.773,45.927 43.789,47.726 43.202 C 51.283 42.042,54.174 39.185,55.343 35.674 C 55.810 34.272,55.944 33.417,55.947 31.827 C 55.951 29.230,55.310 27.153,53.842 25.005 C 52.953 23.704,51.975 22.780,50.143 21.510 C 49.975 21.393,49.933 21.276,49.933 20.913 C 49.933 19.930,49.405 17.898,48.833 16.680 L 48.580 16.140 46.274 18.453 " fill="#2B2C30" stroke="none" fill-rule="evenodd"></path></svg>