<svg width="56" height="56" viewBox="0 0 56 56" fill="none" xmlns="http://www.w3.org/2000/svg"><path d="M19.138 0.102 C 18.040 0.317,16.916 1.212,16.425 2.262 C 16.064 3.031,15.960 3.627,15.960 4.913 L 15.960 5.973 32.993 5.973 L 50.027 5.973 50.027 22.913 L 50.027 39.853 51.324 39.853 C 52.360 39.853,52.743 39.816,53.229 39.665 C 54.514 39.268,55.593 38.098,55.900 36.769 C 55.963 36.493,55.996 30.823,55.998 19.912 C 56.000 4.066,55.994 3.449,55.824 2.905 C 55.727 2.594,55.542 2.159,55.412 1.937 C 55.119 1.436,54.378 0.734,53.869 0.475 C 52.895 -0.022,53.720 -0.001,35.984 0.010 C 26.947 0.016,19.366 0.057,19.138 0.102 M10.905 8.156 C 9.851 8.441,8.878 9.285,8.364 10.360 C 8.081 10.950,8.072 11.009,8.042 12.483 L 8.011 14.000 25.005 14.000 L 42.000 14.000 42.000 30.940 L 42.000 47.880 43.237 47.879 C 44.579 47.878,45.127 47.775,45.873 47.384 C 46.802 46.897,47.491 46.074,47.787 45.097 C 47.974 44.479,47.976 44.311,47.951 27.720 L 47.927 10.967 47.627 10.334 C 47.237 9.512,46.531 8.805,45.684 8.391 L 45.033 8.073 28.187 8.056 C 14.876 8.042,11.249 8.063,10.905 8.156 M2.847 16.184 C 1.890 16.488,1.073 17.121,0.587 17.933 C -0.037 18.977,0.000 17.834,0.000 36.029 C 0.000 50.911,0.015 52.562,0.150 53.020 C 0.368 53.755,0.614 54.193,1.102 54.714 C 1.616 55.264,2.139 55.586,2.905 55.824 C 3.449 55.994,4.071 56.000,19.962 56.000 C 38.167 56.000,37.023 56.037,38.067 55.413 C 39.001 54.854,39.730 53.781,39.945 52.650 C 40.007 52.320,40.039 46.597,40.038 35.991 C 40.037 18.411,40.057 19.097,39.518 18.108 C 39.162 17.453,38.413 16.745,37.709 16.398 L 37.104 16.100 20.162 16.082 C 6.658 16.068,3.144 16.089,2.847 16.184 M33.973 36.027 L 33.973 50.027 19.973 50.027 L 5.973 50.027 5.973 36.027 L 5.973 22.027 19.973 22.027 L 33.973 22.027 33.973 36.027 M9.987 36.027 L 9.987 39.014 19.997 38.990 L 30.007 38.967 30.031 36.003 L 30.056 33.040 20.021 33.040 L 9.987 33.040 9.987 36.027 " fill="#2B2C30" stroke="none" fill-rule="evenodd"></path></svg>