<svg width="48" height="48" viewBox="0 0 48 48" fill="none" xmlns="http://www.w3.org/2000/svg"><path d="M0.504 0.157 C -0.045 0.492,-0.000 -1.652,0.000 24.016 C 0.001 46.909,0.003 47.244,0.157 47.496 C 0.453 47.981,0.558 48.000,3.000 48.000 C 5.442 48.000,5.547 47.981,5.843 47.496 C 5.997 47.244,5.999 46.909,5.999 24.000 C 5.999 1.091,5.997 0.756,5.843 0.504 C 5.547 0.018,5.444 -0.000,2.984 0.000 C 0.919 0.001,0.742 0.012,0.504 0.157 M21.536 0.134 C 21.391 0.205,21.211 0.376,21.136 0.512 C 21.009 0.744,21.000 2.288,21.000 24.000 C 21.000 45.754,21.009 47.256,21.136 47.489 C 21.398 47.967,21.583 48.000,24.000 48.000 C 26.417 48.000,26.602 47.967,26.864 47.489 C 26.991 47.256,27.000 45.754,27.000 24.000 C 27.000 2.246,26.991 0.744,26.864 0.511 C 26.601 0.032,26.419 -0.000,23.988 0.002 C 22.131 0.003,21.760 0.023,21.536 0.134 M42.504 0.157 C 41.955 0.492,42.000 -1.652,42.000 24.016 C 42.001 46.909,42.003 47.244,42.157 47.496 C 42.453 47.981,42.558 48.000,45.000 48.000 C 47.442 48.000,47.547 47.981,47.843 47.496 C 47.997 47.244,47.999 46.909,47.999 24.000 C 47.999 1.091,47.997 0.756,47.843 0.504 C 47.547 0.018,47.444 -0.000,44.984 0.000 C 42.919 0.001,42.742 0.012,42.504 0.157 " fill="#2B2C30" stroke="none" fill-rule="evenodd"></path></svg>