<svg width="48" height="48" viewBox="0 0 48 48" fill="none" xmlns="http://www.w3.org/2000/svg"><path d="M3.161 0.094 C 1.719 0.369,0.399 1.697,0.088 3.184 C -0.037 3.783,-0.037 32.217,0.088 32.816 C 0.401 34.315,1.685 35.599,3.184 35.912 C 3.481 35.973,6.675 36.000,13.824 36.000 L 24.040 36.000 30.020 41.980 L 36.000 47.960 36.000 41.980 L 36.000 36.000 40.196 36.000 C 42.950 36.000,44.538 35.970,44.816 35.912 C 46.315 35.599,47.599 34.315,47.912 32.816 C 48.037 32.217,48.037 3.783,47.912 3.184 C 47.594 1.659,46.277 0.363,44.765 0.087 C 44.149 -0.026,3.752 -0.019,3.161 0.094 M42.000 18.000 L 42.000 30.000 36.000 30.000 L 30.000 30.000 30.000 31.739 L 30.000 33.479 28.259 31.739 L 26.519 30.000 16.259 30.000 L 6.000 30.000 6.000 18.000 L 6.000 6.000 24.000 6.000 L 42.000 6.000 42.000 18.000 " fill="#2B2C30" stroke="none" fill-rule="evenodd"></path></svg>