<svg width="48" height="48" viewBox="0 0 48 48" fill="none" xmlns="http://www.w3.org/2000/svg"><path d="M3.161 0.094 C 1.719 0.369,0.399 1.697,0.088 3.184 C -0.037 3.783,-0.037 32.217,0.088 32.816 C 0.401 34.315,1.685 35.599,3.184 35.912 C 3.482 35.974,6.945 36.000,14.824 36.000 L 26.040 36.000 32.020 41.980 L 38.000 47.960 38.000 41.980 L 38.000 36.000 41.196 36.000 C 43.220 36.000,44.548 35.968,44.816 35.912 C 46.315 35.599,47.599 34.315,47.912 32.816 C 48.037 32.217,48.037 3.783,47.912 3.184 C 47.594 1.659,46.277 0.363,44.765 0.087 C 44.149 -0.026,3.752 -0.019,3.161 0.094 M42.000 18.000 L 42.000 30.000 37.000 30.000 L 32.000 30.000 32.000 31.739 L 32.000 33.479 30.259 31.739 L 28.519 30.000 17.259 30.000 L 6.000 30.000 6.000 18.000 L 6.000 6.000 24.000 6.000 L 42.000 6.000 42.000 18.000 M11.203 22.128 C 10.300 22.371,9.539 23.074,9.199 23.980 C 8.954 24.634,8.995 25.613,9.296 26.259 C 10.168 28.129,12.643 28.563,14.105 27.102 C 14.664 26.544,14.911 25.962,14.946 25.120 C 14.968 24.571,14.940 24.351,14.801 23.980 C 14.455 23.057,13.698 22.368,12.762 22.124 C 12.182 21.973,11.777 21.974,11.203 22.128 M19.203 22.128 C 18.300 22.371,17.539 23.074,17.199 23.980 C 16.954 24.634,16.995 25.613,17.296 26.259 C 18.168 28.129,20.643 28.563,22.105 27.102 C 22.664 26.544,22.911 25.962,22.946 25.120 C 22.968 24.571,22.940 24.351,22.801 23.980 C 22.455 23.057,21.698 22.368,20.762 22.124 C 20.182 21.973,19.777 21.974,19.203 22.128 " fill="#2B2C30" stroke="none" fill-rule="evenodd"></path></svg>