<svg width="45" height="48" viewBox="0 0 45 48" fill="none" xmlns="http://www.w3.org/2000/svg"><path d="M3.450 0.084 C 3.347 0.125,2.565 0.857,1.713 1.710 C 0.033 3.393,-0.065 3.538,0.087 4.106 C 0.150 4.342,1.737 5.964,9.962 14.194 L 19.761 24.000 9.922 33.844 C 3.165 40.605,0.068 43.752,0.033 43.894 C -0.097 44.436,-0.005 44.570,1.637 46.224 C 2.490 47.083,3.279 47.834,3.390 47.893 C 3.649 48.030,4.002 48.029,4.260 47.892 C 4.505 47.762,27.625 24.631,27.742 24.399 C 27.846 24.192,27.848 23.847,27.746 23.574 C 27.667 23.359,5.229 0.841,4.550 0.293 C 4.167 -0.016,3.852 -0.076,3.450 0.084 M20.549 42.138 C 20.047 42.402,20.025 42.519,20.025 45.000 C 20.025 47.481,20.047 47.598,20.549 47.862 C 20.799 47.994,21.292 48.000,32.031 48.000 L 43.253 48.000 43.508 47.830 C 44.005 47.498,44.025 47.388,44.025 45.000 C 44.025 42.612,44.005 42.502,43.508 42.170 L 43.253 42.000 32.031 42.000 C 21.292 42.000,20.799 42.006,20.549 42.138 " fill="#2B2C30" stroke="none" fill-rule="evenodd"></path></svg>