<svg width="60" height="60" viewBox="0 0 60 60" fill="none" xmlns="http://www.w3.org/2000/svg"><path d="M27.650 0.095 C 20.324 0.759,13.858 3.746,8.802 8.802 C 4.064 13.540,1.182 19.428,0.237 26.300 C 0.024 27.851,-0.006 31.883,0.185 33.300 C 0.761 37.566,1.902 41.195,3.660 44.350 C 10.685 56.956,25.102 62.815,38.844 58.650 C 45.338 56.681,51.146 52.340,54.942 46.618 C 57.682 42.487,59.191 38.336,59.818 33.200 C 59.984 31.847,59.984 28.153,59.818 26.800 C 59.315 22.682,58.172 18.999,56.387 15.750 C 51.651 7.126,43.423 1.510,33.666 0.243 C 32.313 0.067,28.888 -0.017,27.650 0.095 M33.500 6.248 C 38.663 7.037,43.272 9.366,46.953 13.047 C 50.654 16.748,52.952 21.307,53.760 26.550 C 54.019 28.232,54.019 31.768,53.760 33.450 C 52.952 38.693,50.654 43.252,46.953 46.953 C 43.252 50.654,38.693 52.952,33.450 53.760 C 31.768 54.019,28.232 54.019,26.550 53.760 C 21.307 52.952,16.748 50.654,13.047 46.953 C 9.412 43.318,7.169 38.939,6.283 33.750 C 5.961 31.862,5.961 28.138,6.283 26.250 C 6.827 23.066,7.837 20.292,9.396 17.700 C 11.810 13.690,15.540 10.286,19.650 8.345 C 22.361 7.065,24.562 6.469,28.100 6.059 C 28.875 5.969,32.505 6.096,33.500 6.248 M43.150 14.473 C 42.928 14.529,22.273 22.194,22.230 22.236 C 22.149 22.318,14.473 43.101,14.431 43.354 C 14.255 44.420,15.330 45.597,16.483 45.599 C 16.611 45.600,21.455 43.840,27.247 41.689 L 37.778 37.778 41.689 27.247 C 43.840 21.455,45.600 16.611,45.599 16.483 C 45.596 15.223,44.324 14.179,43.150 14.473 M36.700 23.370 C 36.700 23.506,33.151 33.000,33.100 33.000 C 33.011 33.000,26.957 26.910,27.004 26.867 C 27.083 26.798,36.443 23.317,36.575 23.308 C 36.644 23.304,36.700 23.332,36.700 23.370 " fill="#2B2C30" stroke="none" fill-rule="evenodd"></path></svg>