<svg width="56" height="56" viewBox="0 0 56 56" fill="none" xmlns="http://www.w3.org/2000/svg"><path d="M3.313 0.177 C 3.159 0.274,2.367 1.025,1.553 1.845 C 0.131 3.277,0.071 3.353,0.023 3.777 L -0.026 4.217 6.589 10.835 L 13.205 17.454 10.639 20.021 L 8.073 22.588 8.073 23.015 C 8.073 23.379,8.118 23.482,8.378 23.714 L 8.683 23.987 16.017 23.987 L 23.352 23.987 23.669 23.669 L 23.987 23.352 23.987 16.037 C 23.987 7.977,24.023 8.475,23.408 8.157 C 22.833 7.859,22.725 7.938,19.996 10.665 L 17.453 13.206 10.943 6.706 C 7.363 3.131,4.342 0.160,4.229 0.103 C 3.932 -0.047,3.631 -0.023,3.313 0.177 M32.365 32.286 L 32.060 32.558 32.035 39.835 C 32.019 44.489,32.043 47.200,32.103 47.356 C 32.239 47.715,32.734 47.993,33.130 47.934 C 33.404 47.893,33.842 47.497,36.000 45.340 L 38.546 42.795 45.103 49.345 C 49.542 53.779,51.743 55.916,51.917 55.958 C 52.430 56.083,52.660 55.921,54.291 54.291 C 55.921 52.660,56.083 52.430,55.958 51.917 C 55.916 51.743,53.779 49.542,49.345 45.103 L 42.795 38.546 45.361 35.979 L 47.927 33.412 47.927 32.985 C 47.927 32.621,47.882 32.518,47.622 32.286 L 47.317 32.013 39.993 32.013 L 32.670 32.013 32.365 32.286 " fill="#2B2C30" stroke="none" fill-rule="evenodd"></path></svg>