<svg width="48" height="56" viewBox="0 0 48 56" fill="none" xmlns="http://www.w3.org/2000/svg"><path d="M0.000 18.196 C 0.000 31.171,0.025 36.514,0.088 36.816 C 0.401 38.315,1.685 39.599,3.184 39.912 C 3.459 39.969,4.943 40.000,7.408 40.000 C 11.602 40.000,11.531 40.008,11.843 39.496 C 11.988 39.258,11.999 39.081,11.999 37.000 C 11.999 34.919,11.988 34.742,11.843 34.504 C 11.542 34.009,11.481 34.000,8.604 34.000 L 6.000 34.000 6.000 20.000 L 6.000 6.000 13.000 6.000 L 20.000 6.000 20.000 8.620 C 20.001 11.077,20.010 11.256,20.157 11.496 C 20.477 12.021,20.211 12.000,26.396 12.000 L 32.000 12.000 32.000 9.980 L 32.000 7.959 28.020 3.980 L 24.039 0.000 12.020 0.000 L 0.000 0.000 0.000 18.196 M16.019 34.420 L 16.040 52.840 16.233 53.320 C 16.721 54.539,17.570 55.383,18.700 55.773 L 19.240 55.960 32.040 55.960 L 44.840 55.960 45.300 55.784 C 46.470 55.338,47.285 54.524,47.767 53.320 L 47.960 52.840 47.981 38.402 L 48.003 23.963 44.022 19.982 L 40.041 16.000 28.019 16.000 L 15.998 16.000 16.019 34.420 M36.000 24.604 C 36.000 27.481,36.009 27.542,36.504 27.843 C 36.744 27.990,36.923 27.999,39.380 28.000 L 42.000 28.000 42.000 39.000 L 42.000 50.000 32.000 50.000 L 22.000 50.000 22.000 36.000 L 22.000 22.000 29.000 22.000 L 36.000 22.000 36.000 24.604 " fill="#2B2C30" stroke="none" fill-rule="evenodd"></path></svg>