<svg width="54" height="58" viewBox="0 0 54 58" fill="none" xmlns="http://www.w3.org/2000/svg"><path d="M19.514 0.128 C 17.618 0.465,15.972 1.326,14.628 2.687 C 13.813 3.511,13.327 4.199,12.852 5.201 C 12.510 5.922,12.060 7.448,12.060 7.887 C 12.060 8.059,12.013 8.100,11.813 8.101 C 11.304 8.102,10.015 8.479,9.197 8.867 C 6.929 9.941,5.285 11.763,4.500 14.071 C 4.119 15.189,4.017 15.846,4.026 17.100 C 4.035 18.328,4.279 19.525,4.713 20.475 L 4.934 20.956 4.379 21.280 C 2.629 22.304,1.112 24.193,0.457 26.162 C -0.210 28.168,-0.110 30.531,0.725 32.490 C 1.461 34.216,2.904 35.852,4.465 36.733 L 4.936 36.999 4.714 37.483 C 4.279 38.435,4.035 39.631,4.026 40.860 C 4.017 42.088,4.117 42.750,4.471 43.811 C 5.160 45.875,6.492 47.528,8.398 48.686 C 9.345 49.261,10.339 49.614,11.857 49.913 C 11.980 49.938,12.060 50.019,12.060 50.120 C 12.060 50.212,12.161 50.684,12.284 51.170 C 12.912 53.644,14.662 55.834,16.920 56.969 C 20.337 58.687,24.352 58.118,27.131 55.521 C 27.975 54.733,28.556 53.940,29.074 52.875 C 29.597 51.799,29.870 50.816,29.943 49.745 L 29.997 48.954 30.996 48.980 L 31.995 49.005 32.061 49.606 C 32.331 52.049,34.489 53.948,36.990 53.944 C 39.386 53.940,41.388 52.290,41.894 49.902 C 42.060 49.117,42.061 48.805,41.895 48.015 C 41.595 46.586,40.596 45.225,39.375 44.580 C 37.778 43.737,35.726 43.823,34.261 44.796 L 33.885 45.045 31.927 45.016 L 29.970 44.987 29.970 42.969 L 29.970 40.950 35.084 40.950 L 40.198 40.950 40.303 41.630 C 40.603 43.556,42.061 45.141,43.942 45.584 C 46.626 46.217,49.297 44.357,49.703 41.572 C 50.032 39.310,48.549 37.084,46.266 36.414 C 45.574 36.210,44.352 36.226,43.637 36.447 C 43.322 36.544,42.829 36.766,42.540 36.940 C 42.040 37.241,42.001 37.250,41.757 37.123 C 41.537 37.010,40.648 36.990,35.734 36.990 L 29.970 36.990 29.970 33.974 L 29.970 30.959 37.186 30.982 L 44.402 31.005 44.684 31.484 C 45.914 33.580,48.463 34.492,50.731 33.647 C 52.130 33.126,53.252 31.965,53.746 30.527 C 54.039 29.673,54.039 28.287,53.746 27.433 C 53.200 25.845,51.847 24.581,50.247 24.164 C 49.610 23.998,48.345 23.992,47.745 24.152 C 46.438 24.500,45.145 25.518,44.610 26.617 L 44.424 27.000 37.197 27.000 L 29.970 27.000 29.970 23.987 L 29.970 20.975 35.932 20.950 L 41.895 20.925 42.401 21.246 C 42.679 21.422,43.222 21.660,43.607 21.775 C 44.534 22.050,45.817 22.007,46.723 21.671 C 48.682 20.944,49.978 19.088,49.978 17.010 C 49.978 14.763,48.518 12.838,46.310 12.173 C 45.713 11.993,44.287 11.993,43.690 12.173 C 41.981 12.687,40.657 14.012,40.200 15.665 C 40.125 15.934,40.038 16.347,40.007 16.582 L 39.949 17.010 34.959 17.010 L 29.970 17.010 29.970 14.990 L 29.970 12.970 31.927 12.942 C 33.828 12.916,33.893 12.921,34.160 13.115 C 34.529 13.383,35.371 13.749,35.891 13.867 C 36.521 14.010,37.730 13.983,38.320 13.813 C 40.120 13.293,41.507 11.793,41.895 9.945 C 42.061 9.155,42.060 8.843,41.894 8.058 C 41.510 6.244,40.277 4.853,38.525 4.256 C 37.802 4.009,36.494 3.978,35.689 4.188 C 33.776 4.686,32.276 6.408,32.061 8.354 L 31.995 8.955 30.996 8.980 L 29.997 9.006 29.943 8.215 C 29.870 7.144,29.597 6.161,29.074 5.085 C 27.897 2.664,25.819 0.965,23.221 0.300 C 22.149 0.025,20.520 -0.050,19.514 0.128 M22.086 6.214 C 22.743 6.460,23.410 7.097,23.732 7.785 L 23.985 8.325 23.985 28.982 L 23.985 49.639 23.689 50.240 C 23.332 50.966,22.771 51.489,22.063 51.756 C 21.653 51.910,21.416 51.940,20.835 51.909 C 19.957 51.862,19.388 51.602,18.821 50.986 C 18.234 50.350,18.052 49.872,18.048 48.960 C 18.045 48.289,18.077 48.131,18.309 47.674 C 18.765 46.774,19.612 46.152,20.557 46.022 L 20.970 45.966 20.970 42.952 L 20.970 39.939 20.363 40.001 C 18.757 40.166,17.525 40.566,16.295 41.323 C 15.474 41.829,14.317 42.876,13.795 43.587 L 13.468 44.033 12.921 43.980 C 12.621 43.952,12.181 43.861,11.944 43.779 C 11.359 43.578,10.601 42.867,10.287 42.227 C 9.793 41.220,10.001 39.848,10.783 38.958 C 11.154 38.535,11.994 38.097,12.580 38.019 L 13.052 37.956 13.029 34.976 L 13.005 31.995 10.575 31.950 C 8.251 31.907,8.126 31.896,7.719 31.693 C 7.175 31.423,6.620 30.868,6.315 30.289 C 6.105 29.890,6.076 29.732,6.076 28.980 C 6.076 28.223,6.104 28.072,6.322 27.658 C 6.625 27.082,7.104 26.606,7.695 26.293 C 8.142 26.057,8.161 26.055,10.575 26.010 L 13.005 25.965 13.029 22.985 L 13.052 20.005 12.612 19.953 C 11.639 19.838,10.787 19.217,10.331 18.291 C 10.069 17.758,10.035 17.606,10.039 16.967 C 10.043 16.100,10.235 15.609,10.814 14.978 C 11.379 14.363,12.106 14.040,12.925 14.040 L 13.566 14.040 13.807 14.389 C 14.162 14.901,15.350 16.021,16.009 16.465 C 17.197 17.266,18.805 17.829,20.290 17.963 L 20.970 18.025 20.970 14.997 L 20.970 11.970 20.703 11.970 C 19.873 11.970,18.770 11.196,18.312 10.291 C 18.077 9.828,18.045 9.673,18.048 9.000 C 18.051 8.417,18.097 8.135,18.243 7.814 C 18.591 7.048,19.374 6.354,20.160 6.114 C 20.617 5.975,21.579 6.025,22.086 6.214 " fill="#2B2C30" stroke="none" fill-rule="evenodd"></path></svg>