<svg width="62" height="62" viewBox="0 0 62 62" fill="none" xmlns="http://www.w3.org/2000/svg"><path d="M3.074 0.112 C 1.941 0.380,0.908 1.241,0.380 2.356 L 0.052 3.048 0.052 21.907 C 0.052 39.766,0.061 40.793,0.237 41.295 C 0.613 42.373,1.502 43.297,2.583 43.733 C 3.123 43.951,3.324 43.964,6.588 43.999 L 10.023 44.035 10.026 46.688 C 10.028 49.046,10.048 49.366,10.206 49.562 C 10.560 49.999,10.694 50.013,14.408 50.013 L 17.980 50.013 17.980 47.998 L 17.980 45.983 15.965 45.983 L 13.950 45.983 13.950 45.002 L 13.950 44.020 24.278 44.020 L 34.606 44.020 34.466 44.511 C 34.006 46.135,33.904 48.850,34.239 50.558 C 35.363 56.277,39.714 60.629,45.439 61.758 C 46.681 62.003,49.316 62.003,50.558 61.758 C 56.273 60.631,60.631 56.273,61.758 50.558 C 62.003 49.316,62.003 46.681,61.758 45.439 C 61.061 41.907,59.129 38.847,56.252 36.717 C 55.322 36.029,53.745 35.189,52.674 34.812 L 51.977 34.567 51.977 26.270 L 51.977 17.973 52.984 18.002 L 53.992 18.032 54.020 20.021 L 54.048 22.010 56.009 22.010 L 57.970 22.010 57.970 18.398 C 57.970 14.628,57.945 14.389,57.519 14.167 C 57.378 14.094,56.352 14.043,54.663 14.027 L 52.028 14.002 51.976 8.525 C 51.919 2.509,51.939 2.701,51.261 1.716 C 50.843 1.109,50.404 0.753,49.600 0.371 L 48.928 0.052 26.195 0.036 C 13.202 0.026,3.295 0.059,3.074 0.112 M45.983 20.077 L 45.983 34.161 45.274 34.283 C 43.166 34.644,40.768 35.813,38.876 37.401 L 38.132 38.027 22.063 38.027 L 5.993 38.027 5.993 22.010 L 5.993 5.993 25.988 5.993 L 45.983 5.993 45.983 20.077 M32.912 10.162 C 31.830 10.521,30.914 11.246,30.488 12.080 C 29.759 13.510,29.853 14.980,30.758 16.302 C 31.994 18.108,34.578 18.523,36.376 17.203 C 38.322 15.775,38.537 12.905,36.826 11.194 C 36.130 10.498,35.184 10.095,34.156 10.056 C 33.658 10.038,33.160 10.080,32.912 10.162 M19.582 18.140 C 19.411 18.228,17.191 20.378,14.647 22.918 L 10.023 27.537 10.023 30.379 L 10.023 33.221 15.010 28.235 L 19.996 23.250 25.007 28.268 C 27.763 31.028,30.152 33.358,30.315 33.444 C 30.843 33.724,31.178 33.566,32.154 32.576 C 32.645 32.078,33.078 31.564,33.117 31.432 C 33.254 30.973,33.046 30.638,31.924 29.500 L 30.798 28.358 32.397 26.761 L 33.997 25.163 37.975 29.140 L 41.953 33.117 41.953 30.274 L 41.953 27.431 38.204 23.687 L 34.455 19.943 33.998 19.943 L 33.540 19.943 30.744 22.732 L 27.949 25.521 24.334 21.895 C 21.179 18.731,20.339 17.978,19.972 17.981 C 19.928 17.981,19.752 18.053,19.582 18.140 M54.043 30.018 L 54.043 33.997 56.007 33.997 L 57.970 33.997 57.970 30.018 L 57.970 26.040 56.007 26.040 L 54.043 26.040 54.043 30.018 M49.672 38.276 L 49.962 38.525 49.991 42.251 L 50.021 45.976 53.746 46.005 L 57.471 46.035 57.721 46.325 C 57.957 46.600,57.970 46.685,57.970 47.998 C 57.970 49.312,57.957 49.397,57.721 49.672 L 57.471 49.962 53.746 49.991 L 50.021 50.021 49.991 53.746 L 49.962 57.471 49.672 57.721 C 49.397 57.957,49.312 57.970,47.998 57.970 C 46.685 57.970,46.600 57.957,46.325 57.721 L 46.035 57.471 46.005 53.746 L 45.976 50.021 42.251 49.991 L 38.525 49.962 38.276 49.672 C 38.039 49.397,38.027 49.312,38.027 47.998 C 38.027 46.685,38.039 46.600,38.276 46.325 L 38.525 46.035 42.251 46.005 L 45.976 45.976 46.005 42.251 L 46.035 38.525 46.325 38.276 C 46.600 38.039,46.685 38.027,47.998 38.027 C 49.312 38.027,49.397 38.039,49.672 38.276 M22.010 47.998 L 22.010 50.013 25.988 50.013 L 29.967 50.013 29.967 47.998 L 29.967 45.983 25.988 45.983 L 22.010 45.983 22.010 47.998 " fill="#2B2C30" stroke="none" fill-rule="evenodd"></path></svg>