<svg width="60" height="60" viewBox="0 0 60 60" fill="none" xmlns="http://www.w3.org/2000/svg"><path d="M27.550 0.110 C 19.501 0.769,11.886 4.763,6.821 10.982 C -0.333 19.767,-1.971 31.518,2.501 41.965 C 3.147 43.473,3.992 45.011,5.058 46.618 C 12.500 57.836,26.598 62.702,39.400 58.470 C 49.033 55.285,56.454 47.389,59.010 37.603 C 61.177 29.306,59.710 20.568,54.942 13.382 C 48.934 4.325,38.401 -0.778,27.550 0.110 M33.550 6.245 C 43.184 7.755,50.997 14.862,53.288 24.200 C 53.830 26.411,53.943 27.410,53.942 30.000 C 53.942 32.642,53.820 33.685,53.248 35.937 C 51.031 44.662,43.988 51.490,35.200 53.436 C 32.543 54.024,29.022 54.152,26.450 53.753 C 17.694 52.396,10.483 46.476,7.414 38.125 C 6.949 36.860,6.476 34.990,6.230 33.450 C 5.984 31.906,5.984 28.094,6.230 26.550 C 7.266 20.048,10.573 14.550,15.779 10.676 C 19.158 8.160,23.166 6.607,27.576 6.102 C 28.705 5.973,32.372 6.061,33.550 6.245 M21.450 18.115 C 21.340 18.175,20.541 18.927,19.675 19.786 C 18.022 21.425,17.842 21.703,18.101 22.214 C 18.167 22.344,19.915 24.149,21.985 26.225 L 25.749 30.000 21.900 33.850 L 18.050 37.701 18.050 38.150 C 18.050 38.598,18.056 38.605,19.725 40.275 C 21.395 41.944,21.402 41.950,21.850 41.950 L 22.299 41.950 26.150 38.100 L 30.000 34.251 33.775 38.015 C 35.851 40.085,37.656 41.833,37.786 41.899 C 38.298 42.159,38.572 41.980,40.270 40.275 C 41.889 38.649,42.092 38.361,41.948 37.882 C 41.910 37.754,40.163 35.928,38.066 33.824 L 34.252 29.999 38.101 26.149 L 41.950 22.299 41.950 21.851 C 41.950 21.404,41.942 21.395,40.301 19.751 C 38.571 18.019,38.299 17.840,37.786 18.101 C 37.656 18.167,35.851 19.915,33.775 21.985 L 30.000 25.749 26.225 21.985 C 24.149 19.915,22.352 18.171,22.232 18.110 C 21.959 17.973,21.709 17.974,21.450 18.115 " fill="#2B2C30" stroke="none" fill-rule="evenodd"></path></svg>