<svg width="40" height="40" viewBox="0 0 40 40" fill="none" xmlns="http://www.w3.org/2000/svg"><path d="M3.433 0.095 C 3.323 0.145,2.523 0.901,1.655 1.776 C 0.321 3.121,0.070 3.405,0.032 3.611 C -0.072 4.181,-0.470 3.751,7.922 12.150 L 15.766 20.000 7.921 27.850 C 1.000 34.775,0.070 35.729,0.031 35.945 C -0.064 36.472,-0.021 36.531,1.690 38.252 C 3.409 39.981,3.524 40.065,4.044 39.971 C 4.275 39.929,5.068 39.157,12.150 32.079 L 20.000 24.234 27.850 32.079 C 34.932 39.157,35.725 39.929,35.956 39.971 C 36.476 40.065,36.591 39.980,38.312 38.252 C 39.677 36.881,39.930 36.596,39.968 36.389 C 40.072 35.819,40.470 36.249,32.078 27.850 L 24.234 20.000 32.079 12.150 C 39.157 5.068,39.929 4.275,39.971 4.044 C 40.065 3.524,39.980 3.409,38.252 1.688 C 36.881 0.323,36.596 0.070,36.389 0.032 C 35.819 -0.072,36.249 -0.470,27.850 7.923 L 20.000 15.766 12.183 7.953 C 7.750 3.521,4.285 0.109,4.179 0.070 C 3.929 -0.023,3.677 -0.014,3.433 0.095 " fill="#2B2C30" stroke="none" fill-rule="evenodd"></path></svg>