<svg width="64" height="56" viewBox="0 0 64 56" fill="none" xmlns="http://www.w3.org/2000/svg"><path d="M24.075 0.170 C 23.911 0.259,23.731 0.452,23.675 0.600 C 23.619 0.747,23.573 1.584,23.573 2.460 L 23.573 4.053 19.849 4.053 L 16.126 4.053 15.849 4.382 L 15.573 4.710 15.573 12.007 L 15.573 19.303 15.884 19.652 L 16.196 20.000 19.884 20.032 L 23.573 20.064 23.573 24.059 L 23.573 28.053 15.548 28.053 L 7.523 28.053 3.762 31.815 C 0.087 35.490,-0.000 35.586,0.000 35.998 C 0.000 36.409,0.089 36.509,3.653 40.088 C 5.688 42.130,7.459 43.822,7.650 43.905 C 7.933 44.027,9.355 44.053,15.781 44.053 L 23.568 44.053 23.597 49.757 L 23.627 55.461 23.869 55.704 C 24.105 55.940,24.179 55.948,26.495 55.979 L 28.877 56.011 29.212 55.729 L 29.547 55.448 29.547 49.751 L 29.547 44.053 31.573 44.053 L 33.600 44.053 33.600 49.715 L 33.600 55.376 33.912 55.688 L 34.224 56.000 36.587 56.000 L 38.950 56.000 39.262 55.688 L 39.573 55.376 39.573 49.715 L 39.573 44.053 43.104 44.053 C 46.944 44.053,47.196 44.019,47.452 43.457 C 47.627 43.073,47.624 28.881,47.449 28.553 C 47.187 28.061,47.179 28.060,43.280 28.057 L 39.573 28.053 39.573 24.053 L 39.573 20.053 47.363 20.053 C 53.792 20.053,55.214 20.027,55.497 19.905 C 55.688 19.822,57.459 18.130,59.493 16.088 C 63.058 12.509,63.147 12.409,63.147 11.998 C 63.147 11.586,63.060 11.490,59.385 7.815 L 55.623 4.053 47.598 4.053 L 39.573 4.053 39.573 2.338 L 39.573 0.624 39.262 0.312 L 38.950 0.000 36.601 -0.000 C 34.272 -0.000,34.249 0.002,33.953 0.257 L 33.653 0.514 33.600 2.257 L 33.547 4.000 31.573 4.000 L 29.600 4.000 29.571 2.274 L 29.541 0.548 29.216 0.274 L 28.890 0.000 26.632 0.004 C 24.822 0.008,24.314 0.041,24.075 0.170 M54.105 10.958 C 54.619 11.470,55.040 11.939,55.040 12.000 C 55.040 12.061,54.619 12.530,54.105 13.042 L 53.169 13.973 37.358 13.973 L 21.547 13.973 21.547 12.000 L 21.547 10.027 37.358 10.027 L 53.169 10.027 54.105 10.958 M33.575 24.027 L 33.547 28.000 31.573 28.000 L 29.600 28.000 29.572 24.027 L 29.544 20.053 31.573 20.053 L 33.603 20.053 33.575 24.027 M41.600 36.000 L 41.600 37.973 25.842 37.973 L 10.084 37.973 9.095 36.989 L 8.107 36.004 9.091 35.015 L 10.076 34.027 25.838 34.027 L 41.600 34.027 41.600 36.000 " fill="#2B2C30" stroke="none" fill-rule="evenodd"></path></svg>