<svg width="56" height="62" viewBox="0 0 56 62" fill="none" xmlns="http://www.w3.org/2000/svg"><path d="M27.300 0.088 C 26.855 0.196,26.790 0.233,14.047 7.582 C 7.373 11.431,1.743 14.677,1.535 14.796 C 1.001 15.102,0.433 15.750,0.225 16.292 C 0.052 16.738,0.047 17.207,0.047 30.707 L 0.047 44.660 0.289 45.173 C 0.422 45.456,0.704 45.853,0.916 46.057 C 1.340 46.466,26.349 60.958,27.051 61.202 C 27.331 61.300,27.680 61.330,28.180 61.301 C 28.824 61.264,28.992 61.212,29.689 60.831 C 32.693 59.192,54.636 46.430,54.991 46.116 C 55.240 45.895,55.542 45.498,55.691 45.194 L 55.953 44.660 55.953 30.660 L 55.953 16.660 55.738 16.184 C 55.437 15.520,54.900 15.035,53.760 14.399 C 53.221 14.099,47.510 10.810,41.069 7.092 C 34.628 3.373,29.147 0.258,28.889 0.168 C 28.403 0.000,27.785 -0.031,27.300 0.088 M37.592 12.007 C 42.711 14.961,46.910 17.388,46.923 17.400 C 46.936 17.412,42.681 19.884,37.467 22.892 L 27.988 28.363 18.506 22.890 C 11.772 19.003,9.061 17.393,9.155 17.336 C 9.227 17.291,13.487 14.828,18.620 11.863 C 25.874 7.672,27.990 6.489,28.119 6.553 C 28.209 6.598,32.472 9.052,37.592 12.007 M15.680 28.186 C 20.685 31.072,24.832 33.476,24.897 33.528 C 24.989 33.603,25.013 35.684,25.013 43.365 C 25.013 48.723,24.982 53.107,24.943 53.106 C 24.905 53.106,20.631 50.658,15.447 47.666 L 6.020 42.226 5.996 32.398 L 5.972 22.571 6.276 22.755 C 6.443 22.856,10.675 25.300,15.680 28.186 M49.957 42.199 C 49.874 42.280,31.278 53.015,31.104 53.081 C 31.010 53.118,30.987 51.175,30.987 43.340 L 30.988 33.553 40.484 28.074 L 49.980 22.595 50.004 32.362 C 50.017 37.734,49.996 42.161,49.957 42.199 " fill="#2B2C30" stroke="none" fill-rule="evenodd"></path></svg>