<svg width="40" height="48" viewBox="0 0 40 48" fill="none" xmlns="http://www.w3.org/2000/svg"><path d="M18.267 0.038 C 16.836 0.132,15.764 0.228,14.911 0.340 C 9.311 1.077,4.698 2.957,2.097 5.562 C 1.138 6.523,0.532 7.487,0.188 8.600 L 0.034 9.100 0.015 23.767 C -0.005 39.844,-0.027 38.897,0.380 39.933 C 1.808 43.568,7.194 46.519,14.367 47.596 C 16.350 47.894,17.396 47.962,20.000 47.962 C 21.918 47.962,22.764 47.935,23.633 47.844 C 25.703 47.629,27.510 47.317,29.133 46.893 C 34.592 45.469,38.452 42.907,39.620 39.933 C 40.027 38.897,40.005 39.844,39.985 23.767 L 39.966 9.100 39.812 8.600 C 39.468 7.487,38.862 6.523,37.903 5.562 C 35.049 2.704,29.875 0.761,23.533 0.166 C 22.499 0.069,19.073 -0.014,18.267 0.038 M23.567 6.134 C 28.929 6.572,32.828 7.780,33.765 9.296 L 33.967 9.623 33.967 12.000 L 33.967 14.377 33.765 14.704 C 32.858 16.170,29.171 17.356,24.000 17.845 C 23.055 17.934,22.119 17.961,20.000 17.961 C 17.881 17.961,16.945 17.934,16.000 17.845 C 10.829 17.356,7.142 16.170,6.235 14.704 L 6.033 14.377 6.014 12.078 L 5.995 9.778 6.168 9.425 C 6.985 7.756,11.458 6.420,17.400 6.070 C 18.643 5.997,22.360 6.036,23.567 6.134 M7.339 21.733 C 9.812 22.749,12.770 23.453,16.088 23.814 C 17.236 23.939,17.810 23.960,20.000 23.960 C 22.848 23.960,24.104 23.864,26.446 23.466 C 29.009 23.029,32.117 22.091,33.738 21.264 L 34.000 21.131 33.999 23.749 C 33.997 26.748,34.010 26.673,33.399 27.268 C 31.120 29.487,22.558 30.696,15.033 29.862 C 10.907 29.404,7.819 28.454,6.601 27.268 C 5.990 26.673,6.003 26.748,6.001 23.749 L 6.000 21.131 6.262 21.264 C 6.406 21.338,6.891 21.549,7.339 21.733 M8.900 34.435 C 16.425 36.938,26.310 36.629,33.086 33.680 L 34.004 33.280 33.986 35.829 L 33.967 38.377 33.765 38.704 C 32.858 40.170,29.171 41.356,24.000 41.845 C 22.253 42.010,17.747 42.010,16.000 41.845 C 10.829 41.356,7.142 40.170,6.235 38.704 L 6.033 38.377 6.014 35.829 L 5.996 33.280 6.914 33.680 C 7.420 33.900,8.313 34.240,8.900 34.435 " fill="#2B2C30" stroke="none" fill-rule="evenodd"></path></svg>