<svg width="56" height="56" viewBox="0 0 56 56" fill="none" xmlns="http://www.w3.org/2000/svg"><path d="M40.413 0.102 C 37.736 0.401,35.220 1.473,33.040 3.244 C 32.655 3.556,29.563 6.598,26.169 10.003 C 19.479 16.713,19.118 17.122,18.110 19.128 C 17.334 20.670,16.839 22.518,16.720 24.313 C 16.465 28.158,17.624 31.650,20.123 34.567 C 21.122 35.733,21.752 36.073,22.913 36.073 C 23.808 36.073,24.361 35.844,24.995 35.210 C 25.746 34.459,26.030 33.322,25.727 32.280 C 25.574 31.754,25.481 31.613,24.471 30.375 C 23.784 29.533,23.234 28.489,22.938 27.467 C 22.633 26.413,22.633 24.267,22.938 23.212 C 23.184 22.360,23.662 21.358,24.143 20.685 C 24.560 20.100,36.112 8.491,36.960 7.804 C 38.476 6.576,40.109 6.014,42.093 6.037 C 43.440 6.053,44.327 6.272,45.593 6.901 C 47.626 7.909,49.171 9.834,49.757 12.087 C 50.015 13.081,50.037 14.693,49.805 15.709 C 49.366 17.630,48.786 18.511,46.301 21.037 C 44.560 22.807,44.342 23.063,44.153 23.567 C 43.745 24.649,44.011 25.909,44.818 26.717 C 45.467 27.366,46.002 27.581,46.947 27.575 C 48.196 27.566,48.335 27.474,50.727 25.070 C 51.930 23.860,53.004 22.690,53.322 22.242 C 56.857 17.255,56.860 10.773,53.328 5.818 C 52.993 5.347,52.270 4.526,51.723 3.993 C 48.690 1.043,44.598 -0.365,40.413 0.102 M32.237 20.006 C 30.987 20.417,30.147 21.591,30.147 22.927 C 30.147 23.706,30.430 24.306,31.266 25.294 C 32.089 26.267,32.817 27.599,33.102 28.653 C 33.334 29.509,33.333 31.815,33.101 32.667 C 32.848 33.594,32.171 34.909,31.555 35.669 C 31.251 36.045,28.320 39.024,25.044 42.288 C 18.718 48.591,18.435 48.841,17.026 49.388 C 15.883 49.832,15.180 49.962,13.953 49.957 C 11.826 49.948,9.966 49.190,8.460 47.716 C 6.850 46.141,6.059 44.259,6.056 41.998 C 6.055 40.848,6.219 39.969,6.623 38.960 C 7.101 37.767,7.657 37.045,9.711 34.953 C 11.913 32.710,11.995 32.580,11.991 31.313 C 11.988 30.407,11.778 29.880,11.182 29.283 C 10.536 28.638,9.999 28.421,9.053 28.426 C 7.808 28.432,7.668 28.525,5.272 30.930 C 4.142 32.065,3.029 33.256,2.799 33.576 C 1.637 35.193,0.880 36.797,0.426 38.604 C 0.089 39.945,-0.030 41.118,0.026 42.560 C 0.165 46.104,1.625 49.403,4.167 51.917 C 6.157 53.886,8.472 55.126,11.293 55.734 C 12.684 56.034,15.387 56.037,16.731 55.740 C 19.206 55.194,21.217 54.220,23.053 52.682 C 23.438 52.359,26.548 49.288,29.963 45.858 C 36.559 39.231,36.791 38.971,37.760 37.116 C 38.809 35.108,39.327 32.974,39.327 30.660 C 39.327 28.346,38.809 26.212,37.760 24.204 C 36.802 22.370,35.323 20.593,34.400 20.168 C 33.827 19.905,32.783 19.827,32.237 20.006 " fill="#2B2C30" stroke="none" fill-rule="evenodd"></path></svg>