<svg width="48" height="48" viewBox="0 0 48 48" fill="none" xmlns="http://www.w3.org/2000/svg"><path d="M3.161 0.094 C 1.719 0.369,0.399 1.697,0.088 3.184 C -0.037 3.785,-0.037 44.215,0.088 44.816 C 0.401 46.315,1.685 47.599,3.184 47.912 C 3.768 48.033,12.232 48.033,12.816 47.912 C 14.407 47.580,15.681 46.231,15.940 44.606 L 16.036 44.002 31.278 43.981 L 46.520 43.960 46.851 43.783 C 47.271 43.559,47.707 43.053,47.827 42.651 C 47.961 42.205,47.961 5.795,47.827 5.349 C 47.707 4.947,47.271 4.441,46.851 4.217 L 46.520 4.040 31.278 4.019 L 16.036 3.998 15.940 3.394 C 15.677 1.744,14.368 0.379,12.765 0.087 C 12.171 -0.022,3.735 -0.015,3.161 0.094 M10.000 24.000 L 10.000 42.000 8.000 42.000 L 6.000 42.000 6.000 24.000 L 6.000 6.000 8.000 6.000 L 10.000 6.000 10.000 24.000 M42.000 24.000 L 42.000 38.000 30.000 38.000 L 18.000 38.000 18.000 24.000 L 18.000 10.000 30.000 10.000 L 42.000 10.000 42.000 24.000 M20.504 12.157 C 19.999 12.465,20.000 12.457,20.000 16.016 C 20.001 19.073,20.009 19.253,20.157 19.496 C 20.484 20.033,19.833 20.000,30.000 20.000 C 40.167 20.000,39.516 20.033,39.843 19.496 C 39.991 19.253,39.999 19.073,39.999 16.000 C 39.999 12.927,39.991 12.747,39.843 12.504 C 39.516 11.967,40.169 12.000,29.984 12.000 C 20.977 12.001,20.754 12.004,20.504 12.157 M20.504 24.157 C 20.061 24.427,20.000 24.650,20.000 26.000 C 20.000 27.350,20.061 27.573,20.504 27.843 C 20.729 27.980,20.911 27.999,22.000 27.999 C 23.089 27.999,23.271 27.980,23.496 27.843 C 23.940 27.572,24.000 27.352,24.000 25.984 C 23.999 24.911,23.980 24.728,23.843 24.504 C 23.572 24.060,23.352 24.000,21.984 24.000 C 20.911 24.001,20.728 24.020,20.504 24.157 M28.504 24.157 C 28.061 24.427,28.000 24.650,28.000 26.000 C 28.000 27.350,28.061 27.573,28.504 27.843 C 28.729 27.980,28.911 27.999,30.000 27.999 C 31.089 27.999,31.271 27.980,31.496 27.843 C 31.940 27.572,32.000 27.352,32.000 25.984 C 31.999 24.911,31.980 24.728,31.843 24.504 C 31.572 24.060,31.352 24.000,29.984 24.000 C 28.911 24.001,28.728 24.020,28.504 24.157 M36.504 24.157 C 36.061 24.427,36.000 24.650,36.000 26.000 C 36.000 27.350,36.061 27.573,36.504 27.843 C 36.729 27.980,36.911 27.999,38.000 27.999 C 39.089 27.999,39.271 27.980,39.496 27.843 C 39.940 27.572,40.000 27.352,40.000 25.984 C 39.999 24.911,39.980 24.728,39.843 24.504 C 39.572 24.060,39.352 24.000,37.984 24.000 C 36.911 24.001,36.728 24.020,36.504 24.157 M20.504 32.157 C 20.061 32.427,20.000 32.650,20.000 34.000 C 20.000 35.350,20.061 35.573,20.504 35.843 C 20.729 35.980,20.911 35.999,22.000 35.999 C 23.089 35.999,23.271 35.980,23.496 35.843 C 23.940 35.572,24.000 35.352,24.000 33.984 C 23.999 32.911,23.980 32.728,23.843 32.504 C 23.572 32.060,23.352 32.000,21.984 32.000 C 20.911 32.001,20.728 32.020,20.504 32.157 M28.504 32.157 C 28.061 32.427,28.000 32.650,28.000 34.000 C 28.000 35.350,28.061 35.573,28.504 35.843 C 28.729 35.980,28.911 35.999,30.000 35.999 C 31.089 35.999,31.271 35.980,31.496 35.843 C 31.940 35.572,32.000 35.352,32.000 33.984 C 31.999 32.911,31.980 32.728,31.843 32.504 C 31.572 32.060,31.352 32.000,29.984 32.000 C 28.911 32.001,28.728 32.020,28.504 32.157 M36.504 32.157 C 36.061 32.427,36.000 32.650,36.000 34.000 C 36.000 35.350,36.061 35.573,36.504 35.843 C 36.729 35.980,36.911 35.999,38.000 35.999 C 39.089 35.999,39.271 35.980,39.496 35.843 C 39.940 35.572,40.000 35.352,40.000 33.984 C 39.999 32.911,39.980 32.728,39.843 32.504 C 39.572 32.060,39.352 32.000,37.984 32.000 C 36.911 32.001,36.728 32.020,36.504 32.157 " fill="#2B2C30" stroke="none" fill-rule="evenodd"></path></svg>