<svg width="56" height="48" viewBox="0 0 56 48" fill="none" xmlns="http://www.w3.org/2000/svg"><path d="M3.010 0.144 C 1.598 0.524,0.504 1.617,0.130 3.019 C 0.024 3.417,0.002 6.011,0.001 17.970 C -0.000 33.942,-0.034 33.015,0.587 34.054 C 1.172 35.032,2.249 35.737,3.453 35.929 C 3.844 35.991,7.603 36.026,14.023 36.026 L 23.987 36.027 23.987 39.013 L 23.987 42.000 18.778 42.000 L 13.570 42.000 13.095 42.237 C 12.790 42.389,12.525 42.614,12.354 42.867 L 12.087 43.260 12.059 45.617 L 12.031 47.973 28.000 47.973 L 43.969 47.973 43.941 45.617 L 43.913 43.260 43.646 42.867 C 43.475 42.614,43.210 42.389,42.905 42.237 L 42.430 42.000 37.222 42.000 L 32.013 42.000 32.013 39.013 L 32.013 36.027 41.977 36.026 C 48.397 36.026,52.156 35.991,52.547 35.929 C 53.751 35.737,54.828 35.032,55.413 34.054 C 56.034 33.016,56.000 33.943,56.000 17.955 C 56.000 4.029,55.993 3.448,55.824 2.905 C 55.586 2.139,55.264 1.616,54.714 1.102 C 54.174 0.596,53.690 0.332,52.950 0.140 C 52.164 -0.065,3.770 -0.061,3.010 0.144 M50.027 17.967 L 50.027 29.960 28.000 29.960 L 5.973 29.960 5.973 17.967 L 5.973 5.973 28.000 5.973 L 50.027 5.973 50.027 17.967 M18.331 11.331 L 18.013 11.648 18.013 13.989 L 18.013 16.330 18.286 16.635 L 18.558 16.940 23.862 16.968 C 28.644 16.994,29.195 16.982,29.459 16.843 C 29.620 16.758,29.798 16.586,29.856 16.460 C 29.924 16.311,29.959 15.430,29.958 13.926 C 29.956 11.436,29.945 11.381,29.429 11.118 C 29.286 11.044,27.648 11.013,23.937 11.013 L 18.648 11.013 18.331 11.331 M34.533 11.133 C 34.041 11.379,33.974 11.711,33.974 13.907 C 33.974 16.185,34.035 16.540,34.469 16.805 C 34.754 16.978,34.981 16.986,39.975 16.986 C 45.688 16.987,45.578 16.997,45.872 16.430 C 46.078 16.031,46.080 11.972,45.874 11.574 C 45.571 10.988,45.831 11.013,40.043 11.015 C 36.013 11.016,34.712 11.044,34.533 11.133 " fill="#2B2C30" stroke="none" fill-rule="evenodd"></path></svg>