<svg width="56" height="48" viewBox="0 0 56 48" fill="none" xmlns="http://www.w3.org/2000/svg"><path d="M3.010 0.144 C 1.598 0.524,0.504 1.617,0.130 3.019 C 0.024 3.417,0.002 6.011,0.001 17.970 C -0.000 33.942,-0.034 33.015,0.587 34.054 C 1.172 35.032,2.249 35.737,3.453 35.929 C 3.844 35.991,7.603 36.026,14.023 36.026 L 23.987 36.027 23.987 39.013 L 23.987 42.000 20.321 42.000 C 16.256 42.000,16.353 41.986,16.090 42.616 C 15.902 43.066,15.904 46.912,16.093 47.363 C 16.364 48.014,15.571 47.973,28.000 47.973 C 40.429 47.973,39.636 48.014,39.907 47.363 C 40.096 46.912,40.098 43.066,39.910 42.616 C 39.647 41.986,39.744 42.000,35.679 42.000 L 32.013 42.000 32.013 39.013 L 32.013 36.027 41.977 36.026 C 48.397 36.026,52.156 35.991,52.547 35.929 C 53.751 35.737,54.828 35.032,55.413 34.054 C 56.034 33.016,56.000 33.943,56.000 17.955 C 56.000 4.029,55.993 3.448,55.824 2.905 C 55.586 2.139,55.264 1.616,54.714 1.102 C 54.174 0.596,53.690 0.332,52.950 0.140 C 52.164 -0.065,3.770 -0.061,3.010 0.144 M50.027 17.967 L 50.027 29.960 28.000 29.960 L 5.973 29.960 5.973 17.967 L 5.973 5.973 28.000 5.973 L 50.027 5.973 50.027 17.967 " fill="#2B2C30" stroke="none" fill-rule="evenodd"></path></svg>