<svg width="40" height="40" viewBox="0 0 40 40" fill="none" xmlns="http://www.w3.org/2000/svg"><path d="M37.067 0.089 C 36.603 0.226,23.261 5.295,15.100 8.434 C 5.001 12.318,1.436 13.748,0.937 14.115 C 0.305 14.580,0.035 15.124,0.034 15.933 C 0.033 16.415,0.060 16.555,0.214 16.867 C 0.573 17.599,0.429 17.513,7.925 21.459 L 14.882 25.120 17.612 30.310 C 19.113 33.165,20.751 36.280,21.253 37.233 C 22.253 39.137,22.504 39.478,23.125 39.782 C 23.444 39.937,23.585 39.965,24.067 39.966 C 24.539 39.967,24.694 39.938,25.000 39.794 C 25.525 39.546,25.908 39.132,26.204 38.490 C 27.082 36.586,31.161 26.060,37.735 8.733 C 39.349 4.479,39.957 2.799,39.982 2.529 C 40.022 2.101,39.877 1.520,39.639 1.142 C 39.420 0.797,38.906 0.343,38.560 0.190 C 38.179 0.022,37.459 -0.027,37.067 0.089 M31.301 8.783 C 31.276 8.848,30.415 11.105,29.389 13.800 C 27.902 17.703,24.846 25.664,23.800 28.362 L 23.620 28.824 23.181 27.995 C 22.940 27.540,21.979 25.712,21.045 23.933 L 19.348 20.700 15.657 18.755 C 13.627 17.685,11.789 16.713,11.572 16.594 L 11.177 16.379 11.839 16.121 C 15.169 14.821,31.203 8.682,31.290 8.673 C 31.322 8.669,31.327 8.719,31.301 8.783 " fill="#2B2C30" stroke="none" fill-rule="evenodd"></path></svg>