<svg width="44" height="56" viewBox="0 0 44 56" fill="none" xmlns="http://www.w3.org/2000/svg"><path d="M0.531 0.146 C 0.400 0.226,0.226 0.400,0.146 0.531 C 0.001 0.769,-0.000 0.918,0.018 26.803 L 0.037 52.837 0.193 53.244 C 0.455 53.929,0.640 54.237,1.064 54.695 C 1.548 55.217,2.039 55.546,2.685 55.781 L 3.160 55.953 21.992 55.953 C 40.647 55.953,40.828 55.952,41.251 55.806 C 42.425 55.402,43.299 54.543,43.773 53.326 L 43.963 52.837 43.982 32.414 L 44.002 11.992 38.006 5.996 L 32.010 -0.000 16.390 0.000 C 0.933 0.001,0.768 0.002,0.531 0.146 M28.028 9.442 L 28.052 12.870 28.237 13.348 C 28.745 14.657,29.868 15.642,31.152 15.907 C 31.398 15.957,32.722 15.987,34.764 15.987 L 37.987 15.987 37.987 33.000 L 37.987 50.013 22.000 50.013 L 6.013 50.013 6.013 28.013 L 6.013 6.013 17.009 6.013 L 28.005 6.013 28.028 9.442 M20.570 22.145 C 20.135 22.361,20.062 22.521,20.020 23.350 L 19.983 24.076 19.360 24.242 C 18.574 24.452,17.639 24.843,16.936 25.257 L 16.390 25.579 15.866 25.073 L 15.342 24.567 14.918 24.567 L 14.494 24.567 13.549 25.504 C 12.701 26.345,12.599 26.474,12.563 26.747 C 12.500 27.218,12.585 27.412,13.087 27.933 L 13.552 28.417 13.229 28.965 C 12.821 29.659,12.527 30.363,12.263 31.285 L 12.055 32.010 11.326 32.047 C 10.491 32.089,10.331 32.162,10.118 32.601 C 9.993 32.859,9.973 33.054,9.973 34.031 C 9.974 35.310,10.040 35.547,10.479 35.840 C 10.693 35.983,10.824 36.007,11.400 36.007 L 12.072 36.007 12.197 36.528 C 12.375 37.269,12.851 38.443,13.235 39.087 L 13.563 39.637 13.083 40.121 C 12.574 40.633,12.455 40.936,12.573 41.409 C 12.630 41.636,14.140 43.215,14.461 43.383 C 14.699 43.507,15.128 43.518,15.350 43.405 C 15.438 43.360,15.708 43.130,15.951 42.893 L 16.391 42.463 16.902 42.769 C 17.543 43.153,18.787 43.663,19.479 43.826 L 20.007 43.950 20.032 44.704 C 20.056 45.423,20.067 45.468,20.272 45.682 C 20.569 45.992,20.853 46.053,22.000 46.053 C 23.147 46.053,23.431 45.992,23.728 45.682 C 23.933 45.468,23.944 45.423,23.968 44.704 L 23.993 43.950 24.521 43.826 C 25.213 43.663,26.457 43.153,27.098 42.769 L 27.609 42.463 28.049 42.893 C 28.292 43.130,28.562 43.360,28.650 43.405 C 28.872 43.518,29.301 43.507,29.539 43.383 C 29.860 43.215,31.370 41.636,31.427 41.409 C 31.545 40.936,31.426 40.633,30.917 40.121 L 30.437 39.637 30.765 39.087 C 31.149 38.443,31.625 37.269,31.803 36.528 L 31.928 36.007 32.600 36.007 C 33.176 36.007,33.307 35.983,33.521 35.840 C 33.960 35.547,34.026 35.310,34.027 34.031 C 34.027 33.054,34.007 32.859,33.882 32.601 C 33.669 32.162,33.509 32.089,32.674 32.047 L 31.945 32.010 31.737 31.285 C 31.473 30.363,31.179 29.659,30.771 28.965 L 30.448 28.417 30.913 27.933 C 31.415 27.412,31.500 27.218,31.437 26.747 C 31.401 26.474,31.299 26.345,30.451 25.504 L 29.506 24.567 29.082 24.567 L 28.658 24.567 28.134 25.073 L 27.610 25.579 27.064 25.257 C 26.361 24.843,25.426 24.452,24.640 24.242 L 24.017 24.076 23.980 23.350 C 23.938 22.518,23.864 22.358,23.425 22.145 C 23.168 22.020,22.972 22.000,21.995 22.000 C 21.015 22.000,20.824 22.020,20.570 22.145 M23.064 28.126 C 25.339 28.522,27.186 30.237,27.801 32.523 C 28.021 33.341,28.020 34.700,27.800 35.530 C 27.245 37.614,25.599 39.262,23.503 39.829 C 23.049 39.952,22.711 39.988,22.000 39.988 C 21.289 39.988,20.951 39.952,20.497 39.829 C 18.402 39.262,16.760 37.619,16.199 35.530 C 15.977 34.705,15.978 33.348,16.199 32.523 C 16.501 31.401,17.049 30.471,17.873 29.688 C 19.282 28.347,21.136 27.789,23.064 28.126 " fill="#2B2C30" stroke="none" fill-rule="evenodd"></path></svg>