<svg width="44" height="56" viewBox="0 0 44 56" fill="none" xmlns="http://www.w3.org/2000/svg"><path d="M0.531 0.146 C 0.400 0.226,0.226 0.400,0.146 0.531 C 0.001 0.769,-0.000 0.918,0.018 26.803 L 0.037 52.837 0.193 53.244 C 0.455 53.929,0.640 54.237,1.064 54.695 C 1.548 55.217,2.039 55.546,2.685 55.781 L 3.160 55.953 21.992 55.953 C 40.647 55.953,40.828 55.952,41.251 55.806 C 42.425 55.402,43.299 54.543,43.773 53.326 L 43.963 52.837 43.982 32.414 L 44.002 11.992 38.006 5.996 L 32.010 -0.000 16.390 0.000 C 0.933 0.001,0.768 0.002,0.531 0.146 M28.028 9.442 L 28.052 12.870 28.237 13.348 C 28.745 14.657,29.868 15.642,31.152 15.907 C 31.398 15.957,32.722 15.987,34.764 15.987 L 37.987 15.987 37.987 33.000 L 37.987 50.013 22.000 50.013 L 6.013 50.013 6.013 28.013 L 6.013 6.013 17.009 6.013 L 28.005 6.013 28.028 9.442 M31.277 23.551 C 31.196 23.595,29.522 25.235,27.556 27.196 L 23.982 30.761 21.318 28.104 L 18.655 25.447 18.252 25.447 C 17.946 25.447,17.796 25.487,17.633 25.612 C 17.514 25.703,15.772 27.432,13.762 29.455 C 9.807 33.434,9.888 33.336,10.089 33.920 C 10.224 34.312,11.744 35.834,12.111 35.945 C 12.737 36.134,12.709 36.155,15.585 33.288 L 18.226 30.655 20.791 33.226 C 22.202 34.640,23.446 35.844,23.555 35.901 C 23.808 36.036,24.153 36.036,24.405 35.901 C 24.514 35.844,26.728 33.669,29.325 31.070 L 34.047 26.343 34.082 25.973 C 34.110 25.684,34.085 25.549,33.967 25.360 C 33.750 25.008,32.331 23.634,32.093 23.544 C 31.834 23.445,31.465 23.449,31.277 23.551 M10.509 40.183 C 10.043 40.468,10.010 40.589,10.010 42.020 C 10.010 43.451,10.043 43.572,10.509 43.857 C 10.739 43.997,10.972 43.999,22.073 43.999 C 33.181 43.999,33.408 43.997,33.638 43.856 C 34.053 43.603,34.100 43.417,34.100 42.020 C 34.100 40.623,34.053 40.437,33.638 40.184 C 33.408 40.043,33.181 40.041,22.073 40.041 C 10.972 40.041,10.739 40.043,10.509 40.183 " fill="#2B2C30" stroke="none" fill-rule="evenodd"></path></svg>