<svg width="44" height="56" viewBox="0 0 44 56" fill="none" xmlns="http://www.w3.org/2000/svg"><path d="M0.531 0.146 C 0.400 0.226,0.226 0.400,0.146 0.531 C 0.001 0.769,-0.000 0.918,0.018 26.803 L 0.037 52.837 0.193 53.244 C 0.455 53.929,0.640 54.237,1.064 54.695 C 1.548 55.217,2.039 55.546,2.685 55.781 L 3.160 55.953 21.992 55.953 C 40.647 55.953,40.828 55.952,41.251 55.806 C 42.425 55.402,43.299 54.543,43.773 53.326 L 43.963 52.837 43.982 32.414 L 44.002 11.992 38.006 5.996 L 32.010 -0.000 16.390 0.000 C 0.933 0.001,0.768 0.002,0.531 0.146 M28.028 9.442 L 28.052 12.870 28.237 13.348 C 28.745 14.657,29.868 15.642,31.152 15.907 C 31.398 15.957,32.722 15.987,34.764 15.987 L 37.987 15.987 37.987 33.000 L 37.987 50.013 22.000 50.013 L 6.013 50.013 6.013 28.013 L 6.013 6.013 17.009 6.013 L 28.005 6.013 28.028 9.442 M20.387 20.126 C 16.401 20.703,13.070 23.091,11.265 26.668 C 10.882 27.427,10.405 28.801,10.237 29.633 C 9.604 32.747,10.252 36.026,12.021 38.662 C 13.778 41.282,16.299 43.004,19.471 43.752 C 20.299 43.948,20.445 43.960,22.000 43.960 C 23.555 43.960,23.701 43.948,24.529 43.752 C 26.657 43.250,28.460 42.335,29.919 41.017 C 31.807 39.312,33.042 37.297,33.620 34.982 C 34.349 32.062,34.030 29.245,32.663 26.550 C 31.000 23.272,27.732 20.842,24.127 20.205 C 23.183 20.038,21.274 19.998,20.387 20.126 M23.362 24.131 C 25.336 24.483,27.175 25.606,28.388 27.201 C 28.898 27.873,29.515 29.155,29.748 30.030 C 29.924 30.688,29.944 30.891,29.944 32.010 C 29.944 33.122,29.923 33.334,29.752 33.974 C 29.522 34.836,29.038 35.883,28.531 36.616 C 28.087 37.259,27.129 38.208,26.488 38.639 C 24.972 39.660,22.978 40.171,21.248 39.982 C 19.367 39.776,17.778 39.035,16.446 37.742 C 15.061 36.398,14.191 34.568,14.038 32.678 L 13.986 32.047 17.993 32.047 L 22.000 32.047 22.000 28.050 L 22.000 24.053 22.463 24.053 C 22.718 24.053,23.122 24.088,23.362 24.131 " fill="#2B2C30" stroke="none" fill-rule="evenodd"></path></svg>