<svg width="44" height="56" viewBox="0 0 44 56" fill="none" xmlns="http://www.w3.org/2000/svg"><path d="M0.550 0.136 C 0.429 0.211,0.264 0.347,0.183 0.437 C 0.037 0.601,0.037 0.719,0.018 26.523 C -0.003 55.261,-0.043 52.902,0.484 53.903 C 0.848 54.597,1.577 55.287,2.322 55.642 L 2.897 55.917 22.000 55.917 L 41.103 55.917 41.678 55.642 C 42.422 55.287,43.152 54.596,43.516 53.904 C 44.036 52.914,43.998 54.643,43.999 32.230 L 44.000 11.990 38.005 5.995 L 32.010 0.000 16.390 0.000 C 1.311 0.001,0.762 0.005,0.550 0.136 M28.013 9.236 C 28.013 11.290,28.043 12.600,28.094 12.848 C 28.386 14.258,29.584 15.507,30.994 15.870 C 31.372 15.968,31.969 15.987,34.716 15.987 L 37.987 15.987 37.987 33.000 L 37.987 50.013 22.000 50.013 L 6.013 50.013 6.013 28.013 L 6.013 6.013 17.013 6.013 L 28.013 6.013 28.013 9.236 M12.721 16.065 C 12.598 16.100,12.400 16.231,12.281 16.356 L 12.063 16.583 12.040 17.937 C 12.019 19.203,12.027 19.307,12.170 19.538 C 12.475 20.032,12.334 20.020,18.007 20.020 C 23.526 20.020,23.382 20.030,23.760 19.620 C 23.942 19.423,23.943 19.414,23.943 18.002 L 23.943 16.583 23.728 16.358 C 23.609 16.234,23.394 16.100,23.251 16.060 C 22.923 15.969,13.035 15.973,12.721 16.065 M12.337 24.304 L 12.063 24.555 12.043 25.936 C 12.024 27.189,12.035 27.338,12.162 27.543 C 12.474 28.044,11.824 28.013,22.000 28.013 C 32.176 28.013,31.526 28.044,31.838 27.543 C 31.965 27.338,31.976 27.189,31.957 25.936 L 31.937 24.555 31.663 24.304 L 31.389 24.053 22.000 24.053 L 12.611 24.053 12.337 24.304 M12.489 32.190 C 12.073 32.444,12.027 32.628,12.027 34.041 C 12.027 35.477,12.093 35.699,12.576 35.901 C 12.955 36.060,31.045 36.060,31.424 35.901 C 31.908 35.699,31.973 35.479,31.973 34.027 C 31.973 32.883,31.957 32.718,31.830 32.509 C 31.528 32.015,32.213 32.047,21.985 32.047 C 12.929 32.047,12.718 32.050,12.489 32.190 M12.489 40.184 C 12.074 40.437,12.027 40.623,12.027 42.020 C 12.027 43.417,12.074 43.603,12.489 43.856 C 12.718 43.996,12.929 43.999,21.985 44.000 C 32.213 44.000,31.528 44.032,31.830 43.538 C 31.957 43.329,31.973 43.164,31.973 42.020 C 31.973 40.876,31.957 40.711,31.830 40.502 C 31.528 40.008,32.213 40.040,21.985 40.040 C 12.929 40.041,12.718 40.044,12.489 40.184 " fill="#2B2C30" stroke="none" fill-rule="evenodd"></path></svg>