<svg width="60" height="56" viewBox="0 0 60 56" fill="none" xmlns="http://www.w3.org/2000/svg"><path d="M8.487 0.151 C 8.342 0.230,8.185 0.374,8.137 0.472 C 8.089 0.570,8.028 9.931,8.000 21.283 L 7.950 41.915 4.117 44.133 C 0.243 46.373,0.012 46.540,0.004 47.089 C -0.000 47.353,2.012 50.915,2.368 51.275 C 2.885 51.797,1.207 52.721,31.337 35.335 C 46.744 26.444,59.484 19.042,59.648 18.885 C 60.163 18.393,60.086 18.111,58.864 16.000 C 58.275 14.982,57.699 14.071,57.585 13.975 C 57.136 13.596,56.790 13.720,54.350 15.129 L 52.050 16.458 52.024 14.254 L 51.997 12.050 45.974 6.025 L 39.951 -0.000 24.350 0.004 C 11.019 0.007,8.712 0.029,8.487 0.151 M36.019 9.475 L 36.050 12.950 36.366 13.618 C 36.936 14.819,37.939 15.630,39.180 15.889 C 39.503 15.957,40.938 16.000,42.855 16.000 L 46.000 16.000 46.000 17.976 L 46.000 19.952 42.493 21.976 L 38.985 24.000 29.897 24.000 C 23.064 24.000,20.744 24.030,20.547 24.119 C 20.100 24.323,20.000 24.667,20.000 26.000 C 20.000 27.267,20.106 27.685,20.471 27.863 C 20.570 27.911,23.199 27.973,26.314 28.000 L 31.978 28.050 28.552 30.025 L 25.126 32.000 22.968 32.000 C 21.507 32.000,20.725 32.039,20.547 32.119 C 20.111 32.318,20.000 32.675,20.000 33.876 L 20.000 34.963 17.333 36.506 C 15.866 37.355,14.516 38.130,14.333 38.227 L 14.000 38.405 14.000 22.202 L 14.000 6.000 24.994 6.000 L 35.988 6.000 36.019 9.475 M20.511 16.140 C 20.087 16.374,20.007 16.663,20.004 17.970 C 20.001 18.711,20.047 19.294,20.119 19.453 C 20.370 20.002,20.344 20.000,26.043 20.000 L 31.297 20.000 31.623 19.708 L 31.950 19.416 31.950 18.000 L 31.950 16.584 31.623 16.292 L 31.297 16.000 26.023 16.004 C 21.838 16.006,20.701 16.034,20.511 16.140 M48.950 29.782 L 46.050 31.462 46.024 40.731 L 45.999 50.000 29.961 50.000 L 13.923 50.000 12.487 50.834 C 11.696 51.293,10.409 52.039,9.626 52.491 L 8.203 53.313 8.354 53.674 C 8.733 54.581,9.768 55.482,10.800 55.802 C 11.443 56.001,11.645 56.003,30.200 55.977 L 48.950 55.950 49.600 55.639 C 50.788 55.070,51.535 54.187,51.861 52.965 C 51.973 52.542,51.998 50.269,51.999 40.275 C 51.999 33.579,51.966 28.101,51.925 28.102 C 51.884 28.102,50.545 28.859,48.950 29.782 " fill="#2B2C30" stroke="none" fill-rule="evenodd"></path></svg>