<svg width="44" height="56" viewBox="0 0 44 56" fill="none" xmlns="http://www.w3.org/2000/svg"><path d="M0.550 0.136 C 0.429 0.211,0.264 0.347,0.183 0.437 C 0.037 0.601,0.037 0.719,0.018 26.523 C -0.003 55.261,-0.043 52.902,0.484 53.903 C 0.848 54.597,1.577 55.287,2.322 55.642 L 2.897 55.917 22.000 55.917 L 41.103 55.917 41.678 55.642 C 42.422 55.287,43.152 54.596,43.516 53.904 C 44.036 52.914,43.998 54.643,43.999 32.230 L 44.000 11.990 38.005 5.995 L 32.010 0.000 16.390 0.000 C 1.311 0.001,0.762 0.005,0.550 0.136 M28.013 9.236 C 28.013 11.290,28.043 12.600,28.094 12.848 C 28.386 14.258,29.584 15.507,30.994 15.870 C 31.372 15.968,31.969 15.987,34.716 15.987 L 37.987 15.987 37.987 33.000 L 37.987 50.013 22.000 50.013 L 6.013 50.013 6.013 28.013 L 6.013 6.013 17.013 6.013 L 28.013 6.013 28.013 9.236 " fill="#2B2C30" stroke="none" fill-rule="evenodd"></path></svg>