<svg width="44" height="56" viewBox="0 0 44 56" fill="none" xmlns="http://www.w3.org/2000/svg"><path d="M0.550 0.136 C 0.429 0.211,0.264 0.347,0.183 0.437 C 0.037 0.601,0.037 0.719,0.018 26.523 C -0.003 55.261,-0.043 52.902,0.484 53.903 C 0.848 54.597,1.577 55.287,2.322 55.642 L 2.897 55.917 22.000 55.917 L 41.103 55.917 41.678 55.642 C 42.422 55.287,43.152 54.596,43.516 53.904 C 44.036 52.914,43.998 54.643,43.999 32.230 L 44.000 11.990 38.005 5.995 L 32.010 0.000 16.390 0.000 C 1.311 0.001,0.762 0.005,0.550 0.136 M28.013 9.236 C 28.013 11.290,28.043 12.600,28.094 12.848 C 28.386 14.258,29.584 15.507,30.994 15.870 C 31.372 15.968,31.969 15.987,34.716 15.987 L 37.987 15.987 37.987 33.000 L 37.987 50.013 22.000 50.013 L 6.013 50.013 6.013 28.013 L 6.013 6.013 17.013 6.013 L 28.013 6.013 28.013 9.236 M12.560 20.129 C 12.093 20.332,12.027 20.559,12.027 21.985 C 12.027 23.398,12.073 23.583,12.489 23.836 C 12.698 23.964,12.863 23.979,14.007 23.979 C 15.150 23.979,15.316 23.964,15.525 23.836 C 15.939 23.584,15.987 23.395,15.987 22.021 C 15.987 20.100,15.906 20.018,14.008 20.023 C 13.135 20.025,12.731 20.054,12.560 20.129 M20.553 20.129 C 20.086 20.332,20.021 20.559,20.020 21.985 C 20.020 23.398,20.066 23.583,20.482 23.836 C 20.709 23.975,20.889 23.979,25.997 23.979 C 31.104 23.979,31.284 23.975,31.511 23.836 C 31.927 23.583,31.973 23.398,31.973 21.985 C 31.973 20.549,31.907 20.327,31.424 20.126 C 31.053 19.971,20.910 19.973,20.553 20.129 M12.549 28.139 C 12.061 28.379,12.020 28.538,12.043 30.091 L 12.063 31.472 12.337 31.722 L 12.611 31.973 13.996 31.973 C 15.289 31.973,15.393 31.963,15.575 31.820 C 15.946 31.529,15.987 31.350,15.987 30.026 C 15.987 28.612,15.925 28.390,15.466 28.156 C 15.222 28.032,15.033 28.014,13.991 28.015 C 13.028 28.016,12.749 28.040,12.549 28.139 M20.538 28.147 C 20.083 28.391,20.020 28.620,20.020 30.014 C 20.020 31.351,20.060 31.528,20.432 31.820 C 20.625 31.972,20.662 31.973,26.008 31.973 L 31.389 31.973 31.663 31.722 L 31.937 31.472 31.957 30.091 C 31.976 28.838,31.965 28.689,31.838 28.484 C 31.535 27.997,31.737 28.013,25.984 28.013 C 21.092 28.013,20.773 28.021,20.538 28.147 M12.576 36.143 C 12.062 36.377,12.011 36.564,12.039 38.110 L 12.063 39.444 12.280 39.670 C 12.590 39.994,12.923 40.056,14.188 40.028 C 15.414 40.001,15.571 39.951,15.843 39.504 C 15.970 39.296,15.986 39.130,15.986 38.016 C 15.987 36.834,15.977 36.747,15.820 36.513 C 15.526 36.072,15.291 36.007,14.007 36.008 C 13.066 36.010,12.819 36.033,12.576 36.143 M20.558 36.158 C 20.056 36.406,20.007 36.592,20.034 38.131 L 20.057 39.444 20.272 39.669 C 20.391 39.793,20.606 39.927,20.749 39.967 C 21.101 40.065,30.892 40.065,31.244 39.967 C 31.388 39.927,31.602 39.793,31.721 39.669 L 31.937 39.444 31.960 38.090 C 31.981 36.824,31.973 36.719,31.830 36.488 C 31.525 35.995,31.667 36.007,25.977 36.007 C 20.960 36.007,20.858 36.010,20.558 36.158 " fill="#2B2C30" stroke="none" fill-rule="evenodd"></path></svg>