<svg width="56" height="56" viewBox="0 0 56 56" fill="none" xmlns="http://www.w3.org/2000/svg"><path d="M25.610 0.089 C 25.501 0.134,25.323 0.285,25.213 0.425 L 25.013 0.679 25.013 12.330 L 25.013 23.981 20.806 24.007 L 16.598 24.033 16.326 24.338 C 15.917 24.796,15.943 25.281,16.403 25.754 C 16.596 25.951,18.937 28.100,21.607 30.528 C 24.276 32.956,26.700 35.162,26.993 35.430 C 27.626 36.008,27.966 36.114,28.414 35.871 C 28.678 35.728,38.313 27.015,39.550 25.801 C 39.889 25.467,39.947 25.356,39.947 25.027 C 39.947 24.735,39.882 24.570,39.674 24.338 L 39.402 24.033 35.194 24.007 L 30.987 23.981 30.987 12.319 L 30.987 0.656 30.714 0.351 L 30.442 0.047 28.124 0.027 C 26.850 0.016,25.718 0.044,25.610 0.089 M2.977 32.147 C 1.974 32.427,1.003 33.184,0.528 34.055 C -0.010 35.045,0.000 34.853,0.000 44.007 C 0.000 53.035,-0.005 52.929,0.477 53.873 C 0.751 54.411,1.498 55.176,2.036 55.468 C 3.081 56.037,1.283 56.000,28.000 56.000 C 54.717 56.000,52.919 56.037,53.964 55.468 C 54.502 55.176,55.249 54.411,55.523 53.873 C 56.005 52.929,56.000 53.035,56.000 44.007 C 56.000 34.846,56.011 35.046,55.468 34.049 C 55.161 33.484,54.400 32.757,53.799 32.454 C 52.949 32.025,52.601 31.999,48.137 32.031 L 43.961 32.060 41.767 34.253 C 39.361 36.657,39.253 36.811,39.543 37.403 C 39.636 37.595,39.818 37.804,39.947 37.868 C 40.124 37.956,41.369 37.984,45.103 37.985 L 50.027 37.987 50.027 44.007 L 50.027 50.027 28.000 50.027 L 5.973 50.027 5.973 44.007 L 5.973 37.987 10.897 37.985 C 14.631 37.984,15.876 37.956,16.053 37.868 C 16.182 37.804,16.364 37.595,16.457 37.403 C 16.747 36.811,16.639 36.657,14.233 34.253 L 12.039 32.060 7.723 32.044 C 4.450 32.031,3.303 32.056,2.977 32.147 " fill="#2B2C30" stroke="none" fill-rule="evenodd"></path></svg>