<svg width="22" height="54" viewBox="0 0 22 54" fill="none" xmlns="http://www.w3.org/2000/svg"><path d="M2.470 0.052 C 2.106 0.121,1.971 0.169,1.613 0.353 C 0.878 0.731,0.341 1.396,0.102 2.223 C -0.007 2.600,-0.014 3.369,0.088 3.740 C 0.395 4.858,1.278 5.699,2.402 5.944 C 2.720 6.013,3.375 6.003,3.679 5.924 C 4.990 5.584,5.873 4.550,5.997 3.208 C 6.027 2.875,5.962 2.405,5.832 2.027 C 5.511 1.085,4.705 0.341,3.740 0.095 C 3.411 0.010,2.795 -0.010,2.470 0.052 M18.462 0.052 C 17.274 0.285,16.342 1.182,16.081 2.343 C 15.994 2.728,16.001 3.347,16.095 3.722 C 16.247 4.323,16.640 4.949,17.096 5.316 C 17.392 5.554,17.907 5.811,18.278 5.905 C 18.869 6.055,19.659 5.987,20.219 5.738 C 21.339 5.241,22.075 4.027,21.986 2.823 C 21.953 2.367,21.874 2.080,21.670 1.668 C 21.365 1.056,20.944 0.635,20.332 0.330 C 20.130 0.230,19.858 0.123,19.727 0.091 C 19.385 0.010,18.773 -0.009,18.462 0.052 M2.273 16.097 C 1.218 16.381,0.437 17.133,0.125 18.168 C 0.037 18.458,0.025 18.559,0.025 18.993 C 0.026 19.574,0.093 19.879,0.323 20.337 C 1.127 21.935,3.129 22.484,4.626 21.517 C 5.093 21.215,5.521 20.717,5.741 20.220 C 5.984 19.669,6.052 18.864,5.905 18.278 C 5.650 17.270,4.874 16.452,3.868 16.132 C 3.489 16.011,2.659 15.993,2.273 16.097 M18.352 16.078 C 17.472 16.272,16.720 16.865,16.318 17.683 C 16.106 18.115,16.022 18.483,16.021 18.983 C 16.019 19.849,16.318 20.574,16.912 21.144 C 18.384 22.558,20.762 22.155,21.677 20.337 C 21.907 19.879,21.974 19.574,21.975 18.993 C 21.975 18.559,21.963 18.458,21.875 18.168 C 21.560 17.126,20.767 16.366,19.712 16.097 C 19.369 16.010,18.702 16.000,18.352 16.078 M2.499 32.051 C 1.573 32.205,0.755 32.815,0.323 33.673 C 0.093 34.131,0.026 34.436,0.025 35.017 C 0.025 35.451,0.037 35.552,0.125 35.842 C 0.442 36.893,1.235 37.646,2.308 37.917 C 2.722 38.022,3.473 38.003,3.868 37.877 C 4.873 37.559,5.650 36.741,5.905 35.732 C 6.051 35.150,5.984 34.341,5.744 33.798 C 5.198 32.562,3.835 31.829,2.499 32.051 M18.369 32.079 C 17.444 32.281,16.635 32.940,16.256 33.798 C 16.016 34.341,15.949 35.150,16.095 35.732 C 16.350 36.741,17.127 37.559,18.132 37.877 C 18.527 38.003,19.278 38.022,19.692 37.917 C 20.765 37.646,21.558 36.893,21.875 35.842 C 21.963 35.552,21.975 35.451,21.975 35.017 C 21.974 34.436,21.907 34.131,21.677 33.673 C 21.291 32.906,20.622 32.354,19.791 32.118 C 19.402 32.007,18.773 31.990,18.369 32.079 M2.695 48.035 C 1.953 48.112,1.302 48.439,0.795 48.988 C 0.264 49.565,0.021 50.199,0.022 51.003 C 0.023 51.574,0.087 51.852,0.330 52.342 C 0.635 52.954,1.056 53.375,1.668 53.680 C 2.187 53.938,2.420 53.983,3.117 53.964 C 3.635 53.950,3.711 53.939,3.983 53.840 C 4.972 53.477,5.695 52.666,5.919 51.667 C 6.006 51.282,5.999 50.663,5.905 50.288 C 5.811 49.918,5.555 49.402,5.316 49.106 C 4.716 48.360,3.673 47.934,2.695 48.035 M18.673 48.036 C 17.443 48.160,16.412 49.062,16.096 50.291 C 16.000 50.663,15.993 51.275,16.080 51.664 C 16.305 52.666,17.026 53.476,18.017 53.840 C 18.289 53.939,18.365 53.950,18.883 53.964 C 19.580 53.983,19.813 53.938,20.332 53.680 C 20.944 53.375,21.365 52.954,21.670 52.342 C 21.913 51.852,21.977 51.574,21.978 51.003 C 21.979 50.395,21.857 49.943,21.555 49.440 C 21.284 48.989,20.710 48.486,20.217 48.268 C 19.787 48.078,19.172 47.985,18.673 48.036 " fill="#2B2C30" stroke="none" fill-rule="evenodd"></path></svg>