<svg width="40" height="56" viewBox="0 0 40 56" fill="none" xmlns="http://www.w3.org/2000/svg"><path d="M18.100 0.073 C 13.060 0.486,8.264 2.854,4.922 6.579 C 2.859 8.880,1.460 11.358,0.572 14.286 C 0.273 15.272,-0.000 16.580,0.001 17.018 C 0.003 17.792,0.317 18.525,0.896 19.104 C 2.094 20.302,3.907 20.302,5.105 19.105 C 5.616 18.594,5.818 18.166,6.036 17.136 C 7.064 12.265,10.597 8.306,15.317 6.733 C 18.419 5.699,21.861 5.786,24.867 6.976 C 30.743 9.302,34.363 15.321,33.634 21.553 C 33.243 24.894,31.863 27.697,29.457 30.036 C 28.572 30.896,28.257 31.143,26.867 32.065 C 24.500 33.634,22.791 35.228,21.217 37.333 C 19.572 39.533,18.467 41.902,17.701 44.871 C 17.364 46.176,17.030 46.936,16.461 47.687 C 15.754 48.621,14.599 49.399,13.363 49.774 C 12.829 49.937,12.662 49.956,11.767 49.957 C 10.939 49.958,10.675 49.932,10.233 49.811 C 9.020 49.476,7.825 48.695,7.065 47.738 C 6.698 47.277,6.528 46.971,5.906 45.655 C 5.214 44.191,3.372 43.586,1.891 44.338 C 1.343 44.616,0.793 45.193,0.514 45.781 C 0.312 46.209,0.300 46.275,0.300 47.000 L 0.300 47.767 0.640 48.574 C 2.133 52.113,5.145 54.721,8.788 55.627 C 9.955 55.918,10.381 55.967,11.733 55.965 C 13.125 55.964,13.578 55.909,14.767 55.599 C 17.703 54.831,20.149 53.061,21.814 50.500 C 22.574 49.330,23.048 48.205,23.437 46.643 C 24.037 44.233,24.822 42.533,26.151 40.764 C 27.250 39.300,28.404 38.245,30.233 37.035 C 32.116 35.788,33.265 34.834,34.450 33.533 C 38.828 28.728,40.592 22.398,39.332 16.018 C 38.292 10.748,34.926 5.925,30.266 3.028 C 26.611 0.755,22.366 -0.276,18.100 0.073 M18.600 10.073 C 14.755 10.502,11.472 13.181,10.274 16.867 C 9.822 18.258,9.733 19.113,9.735 22.024 L 9.736 24.233 10.368 24.587 C 12.435 25.743,13.604 27.523,13.715 29.682 C 13.805 31.421,13.245 32.881,11.951 34.286 C 11.535 34.737,11.378 35.126,11.378 35.710 C 11.378 36.094,11.413 36.259,11.559 36.558 C 11.777 37.003,12.228 37.418,12.649 37.562 C 13.114 37.720,13.764 37.698,14.170 37.509 C 14.867 37.184,15.984 35.806,16.663 34.433 C 17.111 33.526,17.337 32.880,17.546 31.907 C 17.756 30.926,17.754 29.064,17.541 28.067 C 17.065 25.839,15.913 23.856,14.277 22.451 L 13.721 21.973 13.750 20.503 C 13.784 18.797,13.868 18.368,14.368 17.351 C 16.060 13.914,20.498 12.929,23.484 15.329 C 25.003 16.550,25.810 18.345,25.715 20.295 C 25.671 21.192,25.467 21.938,25.023 22.818 C 24.764 23.332,24.708 23.511,24.682 23.908 C 24.641 24.529,24.782 24.958,25.169 25.389 C 25.934 26.240,27.298 26.259,28.062 25.431 C 28.525 24.928,29.090 23.688,29.403 22.484 C 29.806 20.930,29.818 19.198,29.436 17.627 C 28.247 12.745,23.612 9.514,18.600 10.073 " fill="#2B2C30" stroke="none" fill-rule="evenodd"></path></svg>