<svg width="56" height="56" viewBox="0 0 56 56" fill="none" xmlns="http://www.w3.org/2000/svg"><path d="M43.820 0.178 C 43.666 0.275,37.377 6.523,29.843 14.061 L 16.147 27.768 16.147 33.526 L 16.147 39.283 16.372 39.545 L 16.597 39.807 22.412 39.832 L 28.228 39.858 42.067 26.019 C 56.578 11.509,56.134 11.978,55.953 11.371 C 55.877 11.117,45.156 0.332,44.781 0.134 C 44.441 -0.047,44.155 -0.034,43.820 0.178 M0.607 7.741 C 0.504 7.783,0.336 7.911,0.233 8.025 C 0.048 8.232,0.047 8.381,0.023 31.700 C -0.003 57.522,-0.047 55.546,0.558 55.859 C 0.802 55.985,3.437 55.998,24.308 55.977 L 47.782 55.953 48.041 55.695 L 48.300 55.436 48.300 43.913 L 48.300 32.391 48.041 32.132 L 47.783 31.873 45.428 31.848 C 43.223 31.824,43.054 31.834,42.776 32.006 C 42.577 32.129,42.445 32.308,42.380 32.545 C 42.314 32.782,42.281 35.727,42.281 41.417 L 42.280 49.933 24.173 49.933 L 6.067 49.933 6.067 31.829 L 6.067 13.725 14.770 13.699 C 21.631 13.679,23.518 13.648,23.682 13.554 C 24.148 13.288,24.185 13.056,24.155 10.544 L 24.127 8.217 23.868 7.959 L 23.609 7.700 12.201 7.682 C 5.927 7.672,0.709 7.699,0.607 7.741 M46.107 9.940 L 47.832 11.667 39.900 19.600 L 31.968 27.533 30.217 25.784 L 28.466 24.034 36.376 16.124 C 40.727 11.773,44.308 8.213,44.334 8.213 C 44.360 8.213,45.158 8.990,46.107 9.940 M25.946 30.100 L 27.671 31.826 26.647 32.853 L 25.623 33.880 23.918 33.880 L 22.213 33.880 22.213 32.085 L 22.213 30.290 23.168 29.332 C 23.694 28.805,24.146 28.373,24.173 28.373 C 24.200 28.373,24.998 29.150,25.946 30.100 " fill="#2B2C30" stroke="none" fill-rule="evenodd"></path></svg>