<svg width="40" height="8" viewBox="0 0 40 8" fill="none" xmlns="http://www.w3.org/2000/svg"><path d="M3.133 0.104 C 2.406 0.261,1.767 0.621,1.198 1.194 C 0.621 1.776,0.323 2.290,0.132 3.040 C -0.109 3.980,0.016 5.003,0.479 5.888 C 0.763 6.428,1.572 7.237,2.112 7.521 C 2.644 7.799,3.436 8.000,4.000 8.000 C 4.564 8.000,5.356 7.799,5.888 7.521 C 6.428 7.237,7.237 6.428,7.521 5.888 C 7.984 5.003,8.109 3.980,7.868 3.040 C 7.677 2.290,7.379 1.776,6.802 1.194 C 5.818 0.202,4.497 -0.190,3.133 0.104 M19.133 0.104 C 17.367 0.485,16.002 2.183,16.002 4.000 C 16.002 6.149,17.851 7.998,20.000 7.998 C 22.145 7.998,23.998 6.145,23.998 4.000 C 23.998 2.171,22.623 0.476,20.833 0.100 C 20.260 -0.020,19.703 -0.019,19.133 0.104 M35.133 0.104 C 33.367 0.485,32.002 2.183,32.002 4.000 C 32.002 6.149,33.851 7.998,36.000 7.998 C 38.145 7.998,39.998 6.145,39.998 4.000 C 39.998 2.171,38.623 0.476,36.833 0.100 C 36.260 -0.020,35.703 -0.019,35.133 0.104 " fill="#2B2C30" stroke="none" fill-rule="evenodd"></path></svg>