<svg width="48" height="64" viewBox="0 0 48 64" fill="none" xmlns="http://www.w3.org/2000/svg"><path d="M22.320 0.081 C 16.002 0.740,10.336 4.430,6.167 10.600 C 2.849 15.511,0.810 21.497,0.145 28.280 C 0.010 29.654,0.010 34.354,0.145 35.720 C 0.646 40.783,1.838 45.199,3.805 49.270 C 4.577 50.868,5.043 51.686,6.045 53.200 C 9.546 58.493,14.238 62.077,19.400 63.399 C 21.203 63.861,21.992 63.957,24.000 63.957 C 26.008 63.957,26.797 63.861,28.600 63.399 C 33.760 62.077,38.456 58.491,41.955 53.200 C 42.957 51.686,43.423 50.868,44.195 49.270 C 46.152 45.219,47.364 40.733,47.855 35.720 C 47.990 34.352,47.990 29.648,47.855 28.280 C 47.364 23.267,46.152 18.781,44.195 14.730 C 42.470 11.159,40.467 8.381,37.755 5.796 C 34.617 2.805,30.615 0.790,26.640 0.200 C 25.622 0.049,23.253 -0.016,22.320 0.081 M26.320 6.238 C 32.856 7.567,38.411 13.919,40.796 22.792 C 41.279 24.589,41.602 26.398,41.853 28.720 C 41.909 29.241,41.952 30.664,41.952 32.000 C 41.952 34.287,41.896 35.172,41.631 37.080 C 40.262 46.917,34.870 54.938,28.036 57.305 C 26.575 57.811,25.677 57.956,24.000 57.956 C 22.755 57.956,22.381 57.926,21.644 57.770 C 18.680 57.140,16.320 55.785,13.838 53.289 C 12.018 51.458,10.723 49.647,9.481 47.196 C 7.661 43.603,6.615 39.866,6.147 35.280 C 6.014 33.985,6.014 30.015,6.147 28.720 C 6.440 25.849,6.900 23.585,7.679 21.177 C 9.254 16.313,11.889 12.184,15.160 9.452 C 17.365 7.611,20.027 6.398,22.545 6.086 C 23.506 5.967,25.350 6.041,26.320 6.238 " fill="#2B2C30" stroke="none" fill-rule="evenodd"></path></svg>