<svg width="8" height="40" viewBox="0 0 8 40" fill="none" xmlns="http://www.w3.org/2000/svg"><path d="M3.660 0.014 C 2.515 0.119,1.490 0.687,0.803 1.598 C 0.149 2.464,-0.124 3.579,0.054 4.657 C 0.255 5.876,1.026 6.947,2.124 7.533 C 2.511 7.740,2.973 7.890,3.440 7.962 C 3.716 8.004,4.280 8.005,4.547 7.964 C 5.519 7.812,6.345 7.374,6.965 6.681 C 7.515 6.067,7.833 5.388,7.964 4.547 C 7.987 4.396,7.992 4.307,7.992 4.000 C 7.992 3.693,7.987 3.604,7.964 3.453 C 7.853 2.741,7.600 2.129,7.197 1.598 C 6.535 0.726,5.591 0.178,4.500 0.033 C 4.308 0.008,3.845 -0.003,3.660 0.014 M3.687 16.013 C 2.709 16.101,1.848 16.499,1.172 17.175 C 0.000 18.347,-0.326 20.127,0.353 21.641 C 0.572 22.128,0.938 22.630,1.319 22.967 C 1.958 23.530,2.663 23.853,3.507 23.968 C 3.713 23.997,4.236 24.001,4.433 23.976 C 5.124 23.888,5.667 23.690,6.216 23.326 C 7.620 22.394,8.286 20.676,7.879 19.033 C 7.639 18.069,7.043 17.223,6.216 16.674 C 5.682 16.320,5.147 16.121,4.493 16.033 C 4.313 16.009,3.858 15.997,3.687 16.013 M3.687 32.013 C 3.081 32.068,2.520 32.240,2.032 32.520 C 1.068 33.073,0.385 33.971,0.121 35.033 C 0.036 35.375,0.008 35.619,0.008 36.000 C 0.008 36.381,0.036 36.625,0.121 36.967 C 0.449 38.284,1.439 39.358,2.720 39.788 C 3.150 39.931,3.533 39.993,4.000 39.993 C 4.816 39.993,5.538 39.775,6.216 39.326 C 7.620 38.394,8.286 36.676,7.879 35.033 C 7.639 34.069,7.043 33.223,6.216 32.674 C 5.682 32.320,5.147 32.121,4.493 32.033 C 4.313 32.009,3.858 31.997,3.687 32.013 " fill="#2B2C30" stroke="none" fill-rule="evenodd"></path></svg>