<svg width="64" height="48" viewBox="0 0 64 48" fill="none" xmlns="http://www.w3.org/2000/svg"><path d="M28.960 0.119 C 15.540 1.052,4.235 8.358,0.964 18.212 C -0.597 22.914,-0.266 27.606,1.954 32.241 C 3.463 35.391,6.169 38.556,9.465 41.027 C 15.374 45.454,23.600 48.000,32.000 48.000 C 40.400 48.000,48.626 45.454,54.535 41.027 C 60.588 36.490,63.998 30.355,63.998 24.000 C 63.998 19.564,62.280 15.057,59.180 11.360 C 52.645 3.567,41.107 -0.725,28.960 0.119 M35.627 6.200 C 43.206 6.880,50.513 10.310,54.447 15.033 C 56.815 17.877,57.948 20.779,57.948 24.000 C 57.948 26.644,57.268 28.844,55.706 31.253 C 52.290 36.522,45.527 40.339,37.372 41.600 C 29.562 42.807,20.987 41.232,14.912 37.474 C 10.106 34.501,7.044 30.549,6.230 26.269 C 5.997 25.043,5.997 22.957,6.230 21.731 C 7.816 13.391,17.813 6.772,29.867 6.079 C 31.480 5.986,33.785 6.035,35.627 6.200 " fill="#2B2C30" stroke="none" fill-rule="evenodd"></path></svg>