<svg width="56" height="40" viewBox="0 0 56 40" fill="none" xmlns="http://www.w3.org/2000/svg"><path d="M3.010 0.144 C 2.309 0.333,1.814 0.608,1.286 1.102 C 0.736 1.616,0.414 2.139,0.176 2.905 C 0.006 3.449,-0.000 4.072,0.000 20.020 C 0.000 35.968,0.006 36.591,0.176 37.135 C 0.273 37.446,0.458 37.881,0.588 38.103 C 0.920 38.670,1.684 39.355,2.313 39.650 L 2.847 39.900 28.000 39.900 L 53.153 39.900 53.687 39.650 C 54.316 39.355,55.080 38.670,55.412 38.103 C 55.542 37.881,55.727 37.446,55.824 37.135 C 55.994 36.591,56.000 35.968,56.000 20.020 C 56.000 4.072,55.994 3.449,55.824 2.905 C 55.586 2.139,55.264 1.616,54.714 1.102 C 54.174 0.596,53.690 0.332,52.950 0.140 C 52.164 -0.065,3.770 -0.061,3.010 0.144 M36.890 14.863 L 28.000 23.753 19.110 14.863 L 10.220 5.973 28.000 5.973 L 45.780 5.973 36.890 14.863 M10.850 24.850 L 5.973 29.726 5.973 19.973 L 5.973 10.220 10.850 15.097 L 15.726 19.973 10.850 24.850 M50.027 19.997 L 50.027 29.726 45.150 24.850 L 40.274 19.974 45.127 15.120 C 47.796 12.451,49.990 10.267,50.003 10.267 C 50.016 10.267,50.027 14.645,50.027 19.997 M23.801 28.047 L 27.585 31.827 28.000 31.827 L 28.415 31.827 32.221 28.024 L 36.028 24.222 40.881 29.074 C 43.550 31.743,45.733 33.958,45.733 33.996 C 45.733 34.035,37.753 34.067,28.000 34.067 C 18.247 34.067,10.267 34.035,10.267 33.997 C 10.267 33.922,19.896 24.267,19.971 24.267 C 19.997 24.267,21.720 25.968,23.801 28.047 " fill="#2B2C30" stroke="none" fill-rule="evenodd"></path></svg>