<svg width="48" height="48" viewBox="0 0 48 48" fill="none" xmlns="http://www.w3.org/2000/svg"><path d="M32.577 0.121 C 32.391 0.201,32.267 0.340,32.157 0.589 C 31.864 1.251,31.835 1.212,34.650 4.040 L 37.198 6.600 31.779 12.020 L 26.360 17.440 26.360 17.882 L 26.360 18.323 28.044 20.002 C 29.709 21.661,29.732 21.680,30.069 21.680 C 30.257 21.680,30.489 21.640,30.585 21.592 C 30.681 21.543,33.162 19.105,36.099 16.173 L 41.437 10.843 43.979 13.371 C 46.786 16.163,46.749 16.136,47.412 15.843 C 48.035 15.567,48.000 16.038,48.000 7.943 C 47.999 0.960,47.995 0.753,47.843 0.504 C 47.519 -0.028,47.955 -0.000,40.024 0.003 C 33.974 0.006,32.798 0.024,32.577 0.121 M17.520 26.375 C 17.454 26.398,14.970 28.843,12.000 31.809 L 6.599 37.200 4.280 34.872 C 3.004 33.591,1.820 32.439,1.648 32.312 C 1.283 32.040,0.833 32.004,0.474 32.216 C -0.021 32.508,-0.000 32.169,0.000 40.052 C 0.001 47.040,0.005 47.247,0.157 47.496 C 0.481 48.028,0.047 48.000,7.964 48.000 C 15.863 48.000,15.541 48.020,15.804 47.513 C 15.942 47.246,15.955 46.779,15.832 46.535 C 15.783 46.439,14.640 45.253,13.293 43.900 L 10.842 41.441 16.216 36.060 C 19.906 32.365,21.607 30.610,21.645 30.456 C 21.787 29.873,21.698 29.740,20.062 28.098 C 19.214 27.246,18.423 26.498,18.304 26.435 C 18.089 26.320,17.748 26.294,17.520 26.375 " fill="#2B2C30" stroke="none" fill-rule="evenodd"></path></svg>