<svg width="56" height="56" viewBox="0 0 56 56" fill="none" xmlns="http://www.w3.org/2000/svg"><path d="M19.138 0.102 C 18.039 0.317,16.916 1.212,16.423 2.265 C 16.054 3.053,15.949 3.696,15.980 4.961 L 16.007 6.020 33.017 5.985 L 50.027 5.950 50.027 22.995 L 50.027 40.040 51.087 40.040 C 52.366 40.040,52.972 39.935,53.713 39.584 C 54.423 39.249,55.030 38.707,55.413 38.067 C 56.037 37.023,56.000 38.167,56.000 19.962 C 56.000 4.071,55.994 3.449,55.824 2.905 C 55.727 2.594,55.542 2.159,55.412 1.937 C 55.119 1.436,54.378 0.734,53.869 0.475 C 52.895 -0.022,53.720 -0.001,35.984 0.010 C 26.947 0.016,19.366 0.057,19.138 0.102 M10.776 8.216 C 9.672 8.566,8.723 9.455,8.287 10.547 C 8.115 10.979,8.077 11.291,8.046 12.530 L 8.010 14.000 25.005 14.000 L 42.000 14.000 42.000 30.995 L 42.000 47.990 43.470 47.954 C 44.709 47.923,45.021 47.885,45.453 47.713 C 46.567 47.268,47.447 46.314,47.792 45.175 C 47.973 44.578,47.976 44.266,47.951 27.813 L 47.927 11.060 47.717 10.547 C 47.262 9.431,46.320 8.560,45.191 8.211 C 44.605 8.030,44.275 8.027,27.967 8.032 C 11.852 8.037,11.323 8.043,10.776 8.216 M2.847 16.183 C 1.922 16.477,1.211 17.013,0.669 17.826 C -0.044 18.893,-0.000 17.701,0.000 36.049 C 0.000 53.934,-0.030 52.932,0.532 53.964 C 0.824 54.502,1.589 55.249,2.127 55.523 C 3.104 56.022,2.286 56.000,19.951 56.000 C 38.299 56.000,37.107 56.044,38.174 55.331 C 38.844 54.884,39.291 54.361,39.641 53.613 L 39.900 53.060 39.900 35.980 L 39.900 18.900 39.586 18.274 C 39.201 17.508,38.436 16.753,37.660 16.374 L 37.100 16.100 20.160 16.082 C 6.681 16.068,3.144 16.089,2.847 16.183 M33.973 36.027 L 33.973 50.027 19.973 50.027 L 5.973 50.027 5.973 36.027 L 5.973 22.027 19.973 22.027 L 33.973 22.027 33.973 36.027 M16.987 29.540 L 16.987 33.040 13.485 33.040 L 9.984 33.040 10.009 36.003 L 10.033 38.967 13.509 38.991 L 16.984 39.016 17.009 42.491 L 17.033 45.967 19.997 45.991 L 22.960 46.016 22.960 42.515 L 22.960 39.013 26.460 39.013 L 29.960 39.013 29.960 36.028 L 29.960 33.042 26.483 33.018 L 23.007 32.993 22.982 29.517 L 22.958 26.040 19.972 26.040 L 16.987 26.040 16.987 29.540 " fill="#2B2C30" stroke="none" fill-rule="evenodd"></path></svg>