<svg width="48" height="48" viewBox="0 0 48 48" fill="none" xmlns="http://www.w3.org/2000/svg"><path d="M30.983 0.130 C 30.825 0.208,30.664 0.385,30.565 0.591 C 30.250 1.240,30.238 1.223,33.486 4.481 L 36.399 7.402 25.399 18.401 C 13.762 30.037,14.214 29.557,14.356 30.139 C 14.430 30.440,17.560 33.570,17.861 33.644 C 17.982 33.673,18.216 33.673,18.381 33.644 C 18.647 33.595,19.872 32.398,29.660 22.615 L 40.640 11.641 43.500 14.492 C 45.073 16.060,46.445 17.387,46.550 17.440 C 47.015 17.676,47.652 17.469,47.869 17.011 C 47.988 16.762,48.000 15.976,48.000 8.748 C 47.999 0.967,47.995 0.753,47.843 0.504 C 47.517 -0.031,48.039 -0.000,39.224 0.002 C 32.103 0.003,31.212 0.017,30.983 0.130 M3.240 12.083 C 1.828 12.373,0.749 13.310,0.212 14.712 L 0.040 15.160 0.040 29.960 L 0.040 44.760 0.230 45.280 C 0.728 46.638,1.749 47.552,3.134 47.878 C 3.897 48.058,32.103 48.058,32.866 47.878 C 34.228 47.557,35.228 46.676,35.769 45.320 L 35.960 44.840 35.982 35.176 C 36.001 26.611,35.990 25.483,35.881 25.253 C 35.614 24.691,34.895 24.549,34.352 24.951 C 33.825 25.341,30.175 29.066,30.085 29.305 C 30.028 29.457,30.000 31.562,30.000 35.765 L 30.000 42.000 18.000 42.000 L 6.000 42.000 6.000 30.000 L 6.000 18.000 12.204 18.000 C 17.424 18.000,18.442 17.982,18.624 17.886 C 18.743 17.823,19.821 16.787,21.020 15.582 C 23.197 13.397,23.200 13.393,23.200 13.049 C 23.200 12.860,23.139 12.601,23.064 12.474 C 22.768 11.973,23.336 11.999,12.988 12.009 C 7.803 12.014,3.416 12.047,3.240 12.083 " fill="#2B2C30" stroke="none" fill-rule="evenodd"></path></svg>