<svg width="58" height="44" viewBox="0 0 58 44" fill="none" xmlns="http://www.w3.org/2000/svg"><path d="M42.976 3.474 L 39.470 6.975 37.932 6.590 C 36.370 6.199,34.794 5.911,32.963 5.684 C 31.606 5.516,26.491 5.516,25.133 5.684 C 18.034 6.565,12.049 9.041,6.622 13.343 C 5.220 14.454,2.199 17.419,1.258 18.608 C 0.117 20.050,-0.210 21.177,0.140 22.468 C 0.352 23.253,0.777 23.892,1.982 25.237 C 4.890 28.484,8.109 31.074,11.713 33.067 C 12.209 33.341,12.634 33.583,12.657 33.605 C 12.681 33.626,11.564 34.785,10.177 36.179 C 8.045 38.322,7.643 38.770,7.588 39.067 C 7.548 39.281,7.568 39.510,7.638 39.647 C 7.702 39.773,8.434 40.560,9.265 41.398 C 10.791 42.935,11.163 43.198,11.623 43.063 C 11.743 43.027,15.369 39.475,19.680 35.170 L 27.517 27.341 28.286 27.454 C 30.829 27.826,33.503 26.328,34.554 23.941 C 35.021 22.884,35.197 21.506,34.995 20.493 L 34.908 20.058 42.674 12.277 C 46.945 7.997,50.488 4.400,50.547 4.284 C 50.605 4.168,50.653 3.931,50.653 3.758 C 50.653 3.479,50.461 3.249,48.981 1.763 C 47.436 0.210,47.278 0.079,46.896 0.028 L 46.482 -0.027 42.976 3.474 M31.496 11.786 C 31.938 11.897,32.632 12.141,33.039 12.328 L 33.778 12.670 32.272 14.176 L 30.766 15.682 29.928 15.570 C 26.885 15.165,24.013 17.073,23.246 20.010 C 23.053 20.745,23.020 22.208,23.182 22.765 L 23.295 23.152 21.754 24.693 L 20.212 26.235 19.909 25.563 C 19.741 25.194,19.494 24.478,19.359 23.973 C 19.145 23.173,19.113 22.856,19.111 21.508 C 19.109 20.137,19.138 19.853,19.365 19.002 C 20.379 15.201,23.419 12.378,27.292 11.640 C 28.284 11.451,30.453 11.527,31.496 11.786 M46.875 13.686 C 45.688 14.874,44.737 15.866,44.761 15.889 C 44.785 15.913,45.197 16.192,45.675 16.508 C 47.398 17.646,49.717 19.606,50.841 20.874 L 51.423 21.530 49.951 22.973 C 49.141 23.767,48.065 24.737,47.560 25.129 C 46.677 25.814,44.114 27.550,43.987 27.550 C 43.953 27.550,44.070 27.117,44.246 26.588 C 44.892 24.654,44.992 23.975,44.992 21.508 C 44.992 19.182,44.869 18.223,44.397 16.854 L 44.225 16.355 41.639 18.905 L 39.053 21.454 39.052 22.061 C 39.050 22.911,38.748 24.282,38.344 25.274 C 37.044 28.462,34.166 30.773,30.752 31.371 C 30.306 31.449,29.718 31.513,29.446 31.513 L 28.950 31.513 26.200 34.265 C 24.688 35.778,23.470 37.034,23.494 37.055 C 23.580 37.132,25.010 37.305,26.487 37.418 C 28.277 37.555,31.528 37.485,33.253 37.273 C 40.065 36.437,46.155 33.896,51.492 29.665 C 52.897 28.552,56.066 25.424,56.814 24.414 C 58.061 22.728,58.295 21.325,57.584 19.788 C 56.777 18.043,52.954 14.267,49.671 11.972 L 49.034 11.526 46.875 13.686 M13.862 16.422 C 13.236 18.290,13.107 19.146,13.102 21.460 C 13.098 23.783,13.229 24.662,13.865 26.577 L 14.190 27.557 13.741 27.297 C 12.831 26.771,11.427 25.797,10.397 24.978 C 9.247 24.063,6.767 21.695,6.767 21.511 C 6.767 21.328,9.334 18.865,10.440 17.989 C 11.292 17.313,12.120 16.736,13.823 15.633 C 13.956 15.547,14.091 15.475,14.123 15.472 C 14.155 15.469,14.038 15.897,13.862 16.422 " fill="#2B2C30" stroke="none" fill-rule="evenodd"></path></svg>