<svg width="58" height="32" viewBox="0 0 58 32" fill="none" xmlns="http://www.w3.org/2000/svg"><path d="M26.403 0.107 C 18.998 0.639,12.105 3.398,6.187 8.197 C 4.848 9.283,1.957 12.198,1.135 13.292 C 0.281 14.427,0.065 14.981,0.055 16.052 C 0.049 16.817,0.075 16.932,0.406 17.602 C 0.850 18.501,1.628 19.425,3.620 21.419 C 7.425 25.228,11.596 27.918,16.558 29.761 C 26.180 33.335,37.167 32.541,46.158 27.623 C 47.672 26.795,50.065 25.194,51.501 24.049 C 52.896 22.937,55.862 20.012,56.626 18.995 C 57.617 17.676,57.945 16.664,57.786 15.418 C 57.628 14.182,56.838 13.050,54.472 10.673 C 52.279 8.469,50.373 6.939,47.898 5.396 C 41.542 1.431,33.952 -0.436,26.403 0.107 M30.655 6.135 C 35.133 6.919,38.530 10.579,38.946 15.066 C 39.428 20.268,35.828 24.956,30.655 25.861 C 26.331 26.619,21.840 24.271,19.958 20.270 C 18.708 17.613,18.708 14.384,19.958 11.727 C 21.840 7.727,26.333 5.378,30.655 6.135 M13.853 10.911 C 13.211 12.833,13.108 13.532,13.108 15.998 C 13.108 18.464,13.211 19.164,13.853 21.086 C 14.028 21.611,14.160 22.040,14.147 22.040 C 14.072 22.040,12.973 21.351,12.132 20.777 C 10.622 19.746,9.638 18.925,8.090 17.403 L 6.658 15.996 8.090 14.592 C 8.877 13.819,9.891 12.891,10.343 12.530 C 11.139 11.893,13.970 9.957,14.105 9.957 C 14.142 9.957,14.028 10.386,13.853 10.911 M44.390 10.258 C 46.269 11.366,48.035 12.752,49.907 14.588 L 51.335 15.990 50.149 17.186 C 48.916 18.429,47.129 19.933,45.903 20.760 C 45.208 21.228,43.910 22.040,43.856 22.040 C 43.841 22.040,43.972 21.611,44.147 21.086 C 44.789 19.164,44.892 18.464,44.892 15.998 C 44.892 13.532,44.789 12.833,44.147 10.911 C 43.972 10.386,43.840 9.957,43.853 9.957 C 43.867 9.957,44.108 10.092,44.390 10.258 M27.474 10.198 C 25.816 10.662,24.418 11.794,23.667 13.278 C 22.001 16.570,23.683 20.583,27.204 21.713 C 28.312 22.068,29.688 22.068,30.796 21.713 C 33.808 20.746,35.577 17.587,34.803 14.559 C 34.304 12.609,32.961 11.111,31.049 10.370 C 30.502 10.158,30.214 10.115,29.193 10.087 C 28.335 10.064,27.837 10.096,27.474 10.198 " fill="#2B2C30" stroke="none" fill-rule="evenodd"></path></svg>