<svg width="56" height="57" viewBox="0 0 56 57" fill="none" xmlns="http://www.w3.org/2000/svg"><path d="M1.156 0.224 C 0.183 0.677,-0.292 1.916,0.167 2.804 C 0.259 2.981,4.753 9.441,10.154 17.159 L 19.973 31.190 19.973 40.147 C 19.973 46.451,20.004 49.227,20.078 49.519 C 20.138 49.758,20.327 50.095,20.521 50.312 C 20.833 50.658,21.314 50.882,26.460 53.068 C 34.392 56.438,33.769 56.213,34.580 55.989 C 35.075 55.852,35.785 55.142,35.922 54.647 C 35.995 54.383,36.026 50.881,36.026 42.722 L 36.027 31.171 45.903 17.055 C 51.335 9.291,55.829 2.796,55.890 2.622 C 56.216 1.686,55.766 0.653,54.844 0.224 L 54.367 0.002 28.000 0.002 L 1.633 0.002 1.156 0.224 M46.239 6.079 C 46.203 6.137,42.525 11.396,38.067 17.766 L 29.960 29.346 29.960 38.660 C 29.960 43.782,29.933 47.973,29.899 47.973 C 29.866 47.973,28.984 47.610,27.939 47.166 L 26.040 46.359 26.037 37.856 L 26.034 29.353 17.871 17.688 C 13.380 11.272,9.707 6.011,9.707 5.998 C 9.707 5.984,17.941 5.973,28.006 5.973 C 41.628 5.973,46.288 6.000,46.239 6.079 " fill="#2B2C30" stroke="none" fill-rule="evenodd"></path></svg>