<svg width="40" height="48" viewBox="0 0 40 48" fill="none" xmlns="http://www.w3.org/2000/svg"><path d="M8.040 1.075 C 7.846 5.640,7.049 9.044,5.186 13.267 C 4.967 13.762,4.135 15.502,3.336 17.133 C 1.716 20.442,1.411 21.138,0.893 22.706 C 0.221 24.742,-0.045 26.564,0.021 28.667 C 0.118 31.725,0.760 34.309,2.103 37.042 C 6.065 45.109,15.127 49.426,24.186 47.562 C 28.086 46.759,31.743 44.739,34.488 41.871 C 37.486 38.738,39.302 34.873,39.877 30.400 C 40.014 29.333,39.993 26.572,39.841 25.567 C 39.444 22.942,38.650 20.921,36.459 16.953 C 33.581 11.742,32.653 9.092,32.033 4.317 L 31.992 4.001 31.779 4.110 C 31.223 4.394,30.303 5.097,29.697 5.700 C 28.528 6.863,27.679 8.126,26.470 10.501 C 26.097 11.234,25.766 11.859,25.735 11.890 C 25.704 11.922,25.470 11.637,25.214 11.257 C 23.350 8.488,20.564 5.577,17.951 3.666 C 15.966 2.214,13.565 1.008,11.645 0.499 C 10.814 0.278,9.646 0.086,8.793 0.030 L 8.086 -0.017 8.040 1.075 M13.838 8.109 C 15.907 9.491,18.329 11.909,19.991 14.255 C 20.243 14.610,21.732 16.919,23.301 19.387 C 24.869 21.855,26.175 23.850,26.203 23.820 C 26.231 23.791,27.040 22.288,28.001 20.481 L 29.749 17.195 30.615 18.781 C 32.684 22.569,33.105 23.428,33.486 24.635 C 34.401 27.532,34.042 31.266,32.562 34.259 C 31.696 36.011,30.546 37.497,29.146 38.674 C 24.056 42.954,16.601 43.122,11.300 39.076 C 10.735 38.645,9.591 37.523,9.120 36.939 C 7.517 34.949,6.552 32.734,6.156 30.133 C 6.075 29.598,6.040 28.974,6.041 28.067 C 6.042 26.915,6.062 26.670,6.220 25.921 C 6.551 24.353,6.942 23.407,8.967 19.267 C 10.436 16.263,10.833 15.400,11.410 13.953 C 11.943 12.615,12.627 10.486,12.975 9.083 C 13.151 8.377,13.312 7.800,13.335 7.800 C 13.357 7.800,13.583 7.939,13.838 8.109 " fill="#2B2C30" stroke="none" fill-rule="evenodd"></path></svg>