<svg width="56" height="48" viewBox="0 0 56 48" fill="none" xmlns="http://www.w3.org/2000/svg"><path d="M3.010 0.144 C 1.598 0.524,0.504 1.617,0.130 3.019 C -0.058 3.725,-0.061 44.237,0.127 44.940 C 0.308 45.619,0.613 46.164,1.102 46.688 C 1.616 47.237,2.139 47.559,2.905 47.797 C 3.452 47.968,4.236 47.973,28.000 47.973 C 51.764 47.973,52.548 47.968,53.095 47.797 C 53.861 47.559,54.384 47.237,54.898 46.688 C 55.386 46.166,55.632 45.728,55.850 44.993 C 55.986 44.534,56.000 42.560,56.000 23.978 C 56.000 4.153,55.994 3.451,55.824 2.905 C 55.586 2.139,55.264 1.616,54.714 1.102 C 54.174 0.596,53.690 0.332,52.950 0.140 C 52.164 -0.065,3.770 -0.061,3.010 0.144 M50.027 23.987 L 50.027 42.000 28.000 42.000 L 5.973 42.000 5.973 23.987 L 5.973 5.973 28.000 5.973 L 50.027 5.973 50.027 23.987 M8.027 14.000 L 8.027 19.973 10.967 19.973 L 13.907 19.973 13.907 16.987 L 13.907 14.000 16.940 14.000 L 19.973 14.000 19.973 11.013 L 19.973 8.027 14.000 8.027 L 8.027 8.027 8.027 14.000 M36.027 11.013 L 36.027 14.000 39.013 14.000 L 42.000 14.000 42.000 16.987 L 42.000 19.973 44.987 19.973 L 47.973 19.973 47.973 14.000 L 47.973 8.027 42.000 8.027 L 36.027 8.027 36.027 11.013 M8.027 33.973 L 8.027 39.947 14.000 39.947 L 19.973 39.947 19.973 36.960 L 19.973 33.973 16.940 33.973 L 13.907 33.973 13.907 30.987 L 13.907 28.000 10.967 28.000 L 8.027 28.000 8.027 33.973 M42.000 30.987 L 42.000 33.973 39.013 33.973 L 36.027 33.973 36.027 36.960 L 36.027 39.947 42.000 39.947 L 47.973 39.947 47.973 33.973 L 47.973 28.000 44.987 28.000 L 42.000 28.000 42.000 30.987 " fill="#2B2C30" stroke="none" fill-rule="evenodd"></path></svg>