<svg width="56" height="48" viewBox="0 0 56 48" fill="none" xmlns="http://www.w3.org/2000/svg"><path d="M3.010 0.144 C 1.598 0.524,0.504 1.617,0.130 3.019 C -0.061 3.736,-0.061 44.238,0.130 44.954 C 0.503 46.354,1.623 47.470,3.033 47.846 C 3.737 48.034,52.274 48.031,52.981 47.843 C 54.007 47.570,55.066 46.743,55.514 45.864 C 56.032 44.850,56.005 45.908,55.978 27.762 L 55.953 11.060 55.737 10.551 C 55.252 9.408,54.335 8.556,53.219 8.212 C 52.636 8.031,52.323 8.027,41.214 8.027 L 29.807 8.027 27.881 4.690 C 25.361 0.326,25.506 0.543,24.912 0.247 L 24.417 0.000 13.958 0.006 C 5.254 0.011,3.418 0.034,3.010 0.144 M23.753 9.538 C 24.883 11.497,25.887 13.203,25.986 13.328 C 26.085 13.454,26.379 13.656,26.639 13.777 L 27.113 13.998 38.570 13.999 L 50.027 14.000 50.027 28.000 L 50.027 42.000 28.000 42.000 L 5.973 42.000 5.973 36.493 L 5.973 30.987 14.980 30.987 L 23.987 30.987 23.987 34.071 C 23.987 37.458,24.003 37.565,24.544 37.845 C 24.870 38.014,25.175 38.021,25.443 37.867 C 25.906 37.599,35.829 28.532,35.932 28.282 C 36.045 28.010,35.996 27.689,35.805 27.447 C 35.707 27.322,26.665 19.130,25.779 18.363 C 25.252 17.907,24.790 17.882,24.338 18.286 L 24.033 18.558 24.007 21.786 L 23.980 25.013 14.977 25.013 L 5.973 25.013 5.973 15.493 L 5.973 5.973 13.837 5.974 L 21.700 5.976 23.753 9.538 " fill="#2B2C30" stroke="none" fill-rule="evenodd"></path></svg>