<svg width="56" height="48" viewBox="0 0 56 48" fill="none" xmlns="http://www.w3.org/2000/svg"><path d="M3.010 0.143 C 2.741 0.216,2.345 0.366,2.130 0.475 C 1.589 0.751,0.825 1.497,0.532 2.036 C -0.034 3.075,0.000 1.674,0.000 23.987 C 0.000 46.300,-0.034 44.898,0.532 45.937 C 0.824 46.475,1.589 47.222,2.127 47.497 C 3.116 48.001,1.592 47.973,28.000 47.973 C 54.717 47.973,52.919 48.010,53.964 47.442 C 54.502 47.149,55.249 46.384,55.523 45.846 C 56.022 44.869,56.000 45.687,56.000 28.032 C 56.000 16.287,55.970 11.536,55.895 11.181 C 55.599 9.782,54.555 8.628,53.207 8.208 C 52.642 8.033,52.255 8.027,41.208 8.027 L 29.792 8.027 27.724 4.441 C 26.587 2.469,25.544 0.743,25.407 0.606 C 24.807 0.006,25.649 0.048,14.047 0.029 C 5.179 0.014,3.422 0.032,3.010 0.143 M23.657 9.357 C 26.055 13.513,25.978 13.396,26.499 13.702 L 26.927 13.953 38.477 13.978 L 50.027 14.003 50.027 28.001 L 50.027 42.000 28.000 42.000 L 5.973 42.000 5.973 23.987 L 5.973 5.973 13.839 5.973 L 21.705 5.973 23.657 9.357 M26.969 20.144 C 25.463 20.537,24.323 21.799,24.054 23.372 C 23.609 25.969,26.017 28.378,28.615 27.933 C 30.786 27.561,32.307 25.479,31.946 23.372 C 31.671 21.765,30.471 20.469,28.934 20.120 C 28.130 19.937,27.743 19.942,26.969 20.144 M23.007 28.148 C 22.605 28.291,18.587 31.583,18.252 32.043 C 18.083 32.274,18.056 32.471,18.030 33.665 C 17.995 35.221,18.023 35.398,18.357 35.708 L 18.601 35.933 28.000 35.933 L 37.399 35.933 37.643 35.708 C 37.977 35.398,38.005 35.221,37.970 33.665 C 37.944 32.470,37.917 32.275,37.748 32.043 C 37.642 31.898,36.613 30.993,35.461 30.032 C 33.917 28.743,33.250 28.244,32.923 28.134 L 32.479 27.985 31.896 28.513 C 29.767 30.442,26.236 30.445,24.112 28.521 C 23.796 28.234,23.502 28.003,23.459 28.007 C 23.415 28.011,23.212 28.075,23.007 28.148 " fill="#2B2C30" stroke="none" fill-rule="evenodd"></path></svg>