<svg width="32" height="36" viewBox="0 0 32 36" fill="none" xmlns="http://www.w3.org/2000/svg"><path d="M20.611 0.100 C 20.348 0.220,20.129 0.470,20.056 0.735 C 20.021 0.861,20.000 2.042,20.000 3.959 L 20.000 6.984 11.667 6.999 L 3.333 7.015 2.933 7.138 C 1.740 7.504,0.759 8.381,0.301 9.493 C -0.015 10.260,0.002 9.486,0.001 22.853 C 0.001 30.720,0.019 35.188,0.053 35.309 C 0.119 35.545,0.454 35.878,0.696 35.947 C 0.803 35.978,1.776 36.000,3.040 35.999 C 5.034 35.998,5.217 35.990,5.420 35.898 C 5.691 35.775,5.897 35.513,5.969 35.199 C 6.006 35.039,6.024 31.336,6.025 23.987 L 6.027 13.013 13.012 13.013 L 19.998 13.013 20.012 16.204 L 20.027 19.395 20.181 19.597 C 20.492 20.005,21.120 20.117,21.513 19.834 C 21.779 19.644,31.578 10.820,31.746 10.620 C 32.035 10.276,32.065 9.846,31.824 9.486 C 31.627 9.192,21.608 0.175,21.375 0.081 C 21.107 -0.026,20.875 -0.020,20.611 0.100 " fill="#2B2C30" stroke="none" fill-rule="evenodd"></path></svg>