<svg width="52" height="48" viewBox="0 0 52 48" fill="none" xmlns="http://www.w3.org/2000/svg"><path d="M4.971 0.094 C 3.795 0.292,2.679 0.881,1.780 1.778 C 1.072 2.484,0.612 3.228,0.279 4.203 L 0.043 4.897 0.043 24.007 L 0.043 43.117 0.279 43.810 C 0.611 44.784,1.071 45.529,1.778 46.235 C 2.494 46.951,3.251 47.416,4.186 47.712 L 4.862 47.927 26.000 47.927 L 47.138 47.927 47.814 47.712 C 48.749 47.416,49.506 46.951,50.222 46.235 C 50.929 45.529,51.389 44.784,51.721 43.810 L 51.957 43.117 51.957 24.007 L 51.957 4.897 51.721 4.203 C 51.389 3.230,50.929 2.485,50.222 1.778 C 49.515 1.071,48.770 0.611,47.797 0.279 L 47.103 0.043 26.260 0.031 C 14.796 0.025,5.216 0.053,4.971 0.094 M46.020 24.007 L 46.020 42.033 26.000 42.033 L 5.980 42.033 5.980 24.007 L 5.980 5.980 26.000 5.980 L 46.020 5.980 46.020 24.007 M10.320 10.320 L 10.053 10.587 10.053 12.003 L 10.053 13.420 10.320 13.687 L 10.587 13.953 12.003 13.953 L 13.420 13.953 13.687 13.687 L 13.953 13.420 13.953 12.003 L 13.953 10.587 13.687 10.320 L 13.420 10.053 12.003 10.053 L 10.587 10.053 10.320 10.320 M18.321 10.348 L 18.027 10.643 18.027 15.942 C 18.027 21.824,18.010 21.646,18.593 21.890 C 19.032 22.074,32.968 22.074,33.407 21.890 C 33.990 21.646,33.973 21.824,33.973 15.942 L 33.973 10.643 33.679 10.348 L 33.384 10.053 26.000 10.053 L 18.616 10.053 18.321 10.348 M38.313 10.320 L 38.047 10.587 38.047 12.003 L 38.047 13.420 38.313 13.687 L 38.580 13.953 39.997 13.953 L 41.413 13.953 41.680 13.687 L 41.947 13.420 41.947 12.003 L 41.947 10.587 41.680 10.320 L 41.413 10.053 39.997 10.053 L 38.580 10.053 38.313 10.320 M10.348 18.321 L 10.053 18.616 10.053 19.992 C 10.053 21.948,10.117 22.013,12.003 22.013 C 13.890 22.013,13.953 21.948,13.953 19.992 L 13.953 18.616 13.659 18.321 L 13.364 18.027 12.003 18.027 L 10.643 18.027 10.348 18.321 M38.341 18.321 L 38.047 18.616 38.047 19.992 C 38.047 21.948,38.110 22.013,39.997 22.013 C 41.883 22.013,41.947 21.948,41.947 19.992 L 41.947 18.616 41.652 18.321 L 41.357 18.027 39.997 18.027 L 38.636 18.027 38.341 18.321 M10.514 26.169 C 10.362 26.262,10.196 26.415,10.146 26.510 C 10.092 26.610,10.053 27.246,10.053 28.040 L 10.053 29.397 10.348 29.692 L 10.643 29.987 12.003 29.987 L 13.364 29.987 13.659 29.692 L 13.953 29.397 13.953 28.021 C 13.953 26.062,13.893 26.000,11.986 26.000 C 10.955 26.001,10.752 26.024,10.514 26.169 M18.574 26.127 C 18.012 26.371,18.027 26.214,18.027 32.071 L 18.027 37.371 18.321 37.665 L 18.616 37.960 26.000 37.960 L 33.384 37.960 33.679 37.665 L 33.973 37.371 33.973 32.071 C 33.973 26.190,33.990 26.367,33.407 26.123 C 32.974 25.942,18.990 25.946,18.574 26.127 M38.507 26.169 C 38.355 26.262,38.190 26.415,38.139 26.510 C 38.085 26.610,38.047 27.246,38.047 28.040 L 38.047 29.397 38.341 29.692 L 38.636 29.987 39.997 29.987 L 41.357 29.987 41.652 29.692 L 41.947 29.397 41.947 28.021 C 41.947 26.062,41.886 26.000,39.979 26.000 C 38.948 26.001,38.745 26.024,38.507 26.169 M10.320 34.327 L 10.053 34.593 10.053 36.010 L 10.053 37.427 10.320 37.693 L 10.587 37.960 12.003 37.960 L 13.420 37.960 13.687 37.693 L 13.953 37.427 13.953 36.010 L 13.953 34.593 13.687 34.327 L 13.420 34.060 12.003 34.060 L 10.587 34.060 10.320 34.327 M38.313 34.327 L 38.047 34.593 38.047 36.010 L 38.047 37.427 38.313 37.693 L 38.580 37.960 39.997 37.960 L 41.413 37.960 41.680 37.693 L 41.947 37.427 41.947 36.010 L 41.947 34.593 41.680 34.327 L 41.413 34.060 39.997 34.060 L 38.580 34.060 38.313 34.327 " fill="#2B2C30" stroke="none" fill-rule="evenodd"></path></svg>