<svg width="56" height="48" viewBox="0 0 56 48" fill="none" xmlns="http://www.w3.org/2000/svg"><path d="M4.807 0.139 C 2.580 0.641,0.927 2.153,0.264 4.293 L 0.047 4.993 0.047 19.927 L 0.047 34.860 0.264 35.560 C 0.853 37.464,2.328 38.955,4.247 39.587 C 4.887 39.798,4.992 39.803,9.450 39.833 L 14.000 39.863 14.000 36.872 L 14.000 33.880 9.987 33.880 L 5.973 33.880 5.973 19.927 L 5.973 5.973 20.994 5.973 L 36.015 5.973 35.970 5.623 C 35.837 4.589,35.697 4.078,35.354 3.360 C 34.680 1.952,33.281 0.769,31.640 0.219 C 31.152 0.056,30.482 0.047,18.247 0.030 C 7.712 0.016,5.265 0.036,4.807 0.139 M20.639 8.170 C 18.671 8.597,17.099 10.032,16.300 12.129 C 16.108 12.632,16.101 12.820,16.054 18.807 L 16.007 24.967 13.268 25.013 L 10.530 25.060 10.305 25.322 L 10.080 25.584 10.080 28.004 L 10.080 30.424 10.352 30.729 L 10.624 31.033 13.339 31.062 L 16.053 31.091 16.053 36.990 C 16.053 42.664,16.061 42.917,16.246 43.589 C 16.780 45.522,18.391 47.141,20.393 47.755 C 20.927 47.919,21.655 47.927,35.980 47.927 L 51.007 47.927 51.707 47.710 C 53.610 47.120,55.095 45.652,55.736 43.727 L 55.953 43.073 55.979 28.327 C 56.009 11.767,56.048 12.776,55.322 11.293 C 54.587 9.793,53.146 8.641,51.463 8.211 C 50.761 8.031,50.381 8.027,35.988 8.034 C 23.803 8.040,21.130 8.064,20.639 8.170 M10.525 10.133 C 10.079 10.375,9.987 10.694,9.987 11.993 C 9.987 13.893,10.135 14.030,12.140 13.984 C 13.414 13.954,13.441 13.949,13.695 13.695 C 13.949 13.441,13.954 13.413,13.983 12.155 C 14.017 10.708,13.954 10.443,13.512 10.174 C 13.247 10.012,13.045 9.988,11.993 9.991 C 11.102 9.993,10.712 10.031,10.525 10.133 M50.027 28.000 L 50.027 42.000 36.027 42.000 L 22.027 42.000 22.027 36.540 L 22.027 31.080 24.033 31.080 L 26.040 31.080 26.040 34.261 L 26.040 37.441 26.313 37.714 C 26.533 37.934,26.666 37.987,27.005 37.987 C 27.375 37.987,27.484 37.934,27.922 37.538 C 28.196 37.292,30.529 35.170,33.106 32.823 C 37.319 28.987,37.799 28.522,37.857 28.211 C 37.906 27.952,37.878 27.793,37.744 27.572 C 37.581 27.302,28.049 18.441,27.533 18.079 C 27.108 17.782,26.389 17.950,26.153 18.402 C 26.071 18.559,26.032 19.513,26.016 21.793 L 25.993 24.967 24.010 24.992 L 22.027 25.017 22.027 19.509 L 22.027 14.000 36.027 14.000 L 50.027 14.000 50.027 28.000 M10.338 18.285 L 10.033 18.558 10.002 19.698 C 9.964 21.078,10.012 21.374,10.328 21.690 C 10.570 21.931,10.586 21.933,11.992 21.933 C 13.365 21.933,13.421 21.926,13.656 21.708 C 13.987 21.401,14.020 21.209,13.984 19.789 L 13.953 18.558 13.649 18.285 L 13.344 18.013 11.993 18.013 L 10.643 18.013 10.338 18.285 M42.351 18.285 L 42.047 18.558 42.016 19.789 C 41.980 21.209,42.013 21.401,42.344 21.708 C 42.579 21.926,42.635 21.933,44.008 21.933 C 45.414 21.933,45.430 21.931,45.672 21.690 C 45.988 21.374,46.036 21.078,45.998 19.698 L 45.967 18.558 45.662 18.285 L 45.357 18.013 44.007 18.013 L 42.656 18.013 42.351 18.285 M42.344 26.265 C 42.013 26.572,41.980 26.764,42.016 28.185 L 42.047 29.416 42.351 29.688 L 42.656 29.960 43.987 29.960 C 45.043 29.960,45.362 29.930,45.526 29.814 C 45.924 29.536,46.013 29.206,46.013 28.011 C 46.013 26.809,45.955 26.540,45.628 26.236 C 45.434 26.055,45.311 26.040,44.003 26.040 C 42.636 26.040,42.579 26.048,42.344 26.265 M42.538 34.119 C 42.092 34.361,42.000 34.681,42.000 35.980 C 42.000 37.293,42.093 37.605,42.557 37.845 C 42.759 37.950,43.138 37.987,44.007 37.987 C 44.875 37.987,45.254 37.950,45.456 37.845 C 45.920 37.605,46.013 37.293,46.013 35.980 C 46.013 34.115,45.868 33.971,43.988 33.977 C 43.114 33.980,42.725 34.018,42.538 34.119 " fill="#2B2C30" stroke="none" fill-rule="evenodd"></path></svg>