<svg width="53" height="53" viewBox="0 0 53 53" fill="none" xmlns="http://www.w3.org/2000/svg"><path d="M2.142 2.142 L 0.000 4.285 4.063 8.347 L 8.125 12.409 5.285 15.254 C 2.834 17.709,2.460 18.118,2.558 18.237 C 2.660 18.360,3.508 18.372,10.501 18.352 L 18.329 18.329 18.329 10.467 C 18.329 2.673,18.328 2.606,18.152 2.581 C 18.023 2.564,17.230 3.304,15.194 5.342 L 12.412 8.127 8.347 4.063 L 4.283 -0.000 2.142 2.142 M44.652 4.063 L 40.590 8.127 37.798 5.335 C 35.764 3.302,34.960 2.553,34.838 2.576 C 34.675 2.607,34.671 2.826,34.671 10.469 L 34.671 18.329 42.532 18.329 C 50.327 18.329,50.394 18.328,50.419 18.152 C 50.436 18.023,49.696 17.230,47.658 15.194 L 44.873 12.412 48.937 8.347 L 53.000 4.283 50.858 2.142 L 48.715 0.000 44.652 4.063 M2.621 34.685 C 2.588 34.718,2.562 34.808,2.562 34.885 C 2.562 34.962,3.814 36.277,5.344 37.807 L 8.127 40.588 4.063 44.653 L -0.000 48.717 2.142 50.858 L 4.285 53.000 8.348 48.937 L 12.410 44.873 15.202 47.665 C 17.236 49.698,18.040 50.447,18.162 50.424 C 18.325 50.393,18.329 50.174,18.329 42.531 L 18.329 34.671 10.505 34.648 C 6.201 34.636,2.654 34.652,2.621 34.685 M34.668 34.737 C 34.644 34.798,34.635 38.346,34.648 42.621 C 34.671 50.318,34.673 50.394,34.847 50.419 C 34.977 50.436,35.770 49.696,37.806 47.658 L 40.588 44.873 44.653 48.937 L 48.717 53.000 50.858 50.858 L 53.000 48.715 48.937 44.652 L 44.873 40.590 47.665 37.798 C 49.698 35.764,50.447 34.960,50.424 34.838 C 50.393 34.676,50.165 34.670,42.551 34.648 C 36.325 34.630,34.701 34.649,34.668 34.737 " fill="#2B2C30" stroke="none" fill-rule="evenodd"></path></svg>