<svg width="48" height="48" viewBox="0 0 48 48" fill="none" xmlns="http://www.w3.org/2000/svg"><path d="M0.504 0.157 C -0.031 0.483,-0.005 0.100,0.019 7.405 L 0.040 14.012 0.339 14.286 C 0.591 14.517,0.697 14.560,1.016 14.560 L 1.393 14.560 3.617 12.341 L 5.842 10.122 8.881 13.161 L 11.920 16.199 14.060 14.060 L 16.199 11.920 13.161 8.881 L 10.122 5.842 12.341 3.617 C 14.558 1.395,14.560 1.393,14.560 1.049 C 14.560 0.860,14.499 0.601,14.424 0.474 C 14.133 -0.018,14.404 -0.000,7.268 0.000 C 0.954 0.001,0.752 0.005,0.504 0.157 M34.033 0.078 C 33.699 0.213,33.440 0.625,33.440 1.023 L 33.440 1.393 35.659 3.617 L 37.878 5.842 34.939 8.781 C 33.322 10.398,32.000 11.757,32.000 11.801 C 32.000 11.905,36.096 16.000,36.200 16.000 C 36.244 16.000,37.602 14.678,39.219 13.061 L 42.158 10.122 44.383 12.341 L 46.607 14.560 46.984 14.560 C 47.303 14.560,47.409 14.517,47.661 14.286 L 47.960 14.012 47.981 7.405 C 48.005 0.100,48.031 0.483,47.496 0.157 C 47.247 0.005,47.050 0.001,40.720 0.005 C 37.134 0.008,34.125 0.040,34.033 0.078 M8.800 34.920 L 5.881 37.840 3.840 35.812 C 2.718 34.697,1.696 33.707,1.569 33.612 C 1.415 33.497,1.222 33.440,0.988 33.440 C 0.701 33.440,0.584 33.489,0.339 33.714 L 0.040 33.988 0.019 40.595 C -0.005 47.900,-0.031 47.516,0.504 47.844 C 0.754 47.997,0.925 48.000,7.386 47.980 L 14.012 47.960 14.286 47.661 C 14.511 47.416,14.560 47.299,14.560 47.012 C 14.560 46.778,14.503 46.585,14.388 46.431 C 14.293 46.304,13.303 45.282,12.188 44.160 L 10.160 42.119 13.080 39.200 C 14.686 37.594,16.000 36.244,16.000 36.200 C 16.000 36.095,11.904 32.000,11.799 32.000 C 11.755 32.000,10.406 33.314,8.800 34.920 M34.059 34.061 C 32.927 35.194,32.000 36.157,32.000 36.201 C 32.000 36.245,33.314 37.594,34.920 39.200 L 37.840 42.119 35.812 44.160 C 34.697 45.282,33.707 46.304,33.612 46.431 C 33.497 46.585,33.440 46.778,33.440 47.012 C 33.440 47.299,33.489 47.416,33.714 47.661 L 33.988 47.960 40.614 47.980 C 47.075 48.000,47.246 47.997,47.496 47.844 C 48.031 47.516,48.005 47.900,47.981 40.595 L 47.960 33.988 47.661 33.714 C 47.416 33.489,47.299 33.440,47.012 33.440 C 46.778 33.440,46.585 33.497,46.431 33.612 C 46.304 33.707,45.282 34.697,44.160 35.812 L 42.119 37.840 39.200 34.920 C 37.594 33.314,36.244 32.000,36.200 32.000 C 36.155 32.000,35.192 32.927,34.059 34.061 " fill="#2B2C30" stroke="none" fill-rule="evenodd"></path></svg>