<svg width="48" height="40" viewBox="0 0 48 40" fill="none" xmlns="http://www.w3.org/2000/svg"><path d="M14.049 0.085 C 10.280 0.522,6.918 2.887,5.200 6.308 C 4.483 7.736,4.099 9.236,4.025 10.900 L 3.976 12.000 2.368 12.000 C -0.091 12.001,0.000 11.885,-0.000 15.000 C -0.000 17.442,0.019 17.547,0.504 17.843 C 0.736 17.985,0.914 17.999,2.380 18.000 L 4.000 18.000 4.000 28.620 C 4.001 39.012,4.004 39.245,4.157 39.496 C 4.453 39.981,4.558 40.000,7.000 40.000 C 9.442 40.000,9.547 39.981,9.843 39.496 C 9.996 39.245,9.999 39.012,10.000 28.620 L 10.000 18.000 12.620 18.000 C 16.261 17.999,16.000 18.232,16.000 14.984 C 15.999 12.919,15.988 12.742,15.843 12.504 C 15.542 12.009,15.481 12.000,12.604 12.000 L 10.000 12.000 10.000 11.277 C 10.000 9.491,10.656 8.043,11.875 7.137 C 12.893 6.381,13.915 6.053,15.280 6.046 C 16.288 6.040,16.807 6.139,17.571 6.482 L 18.062 6.702 19.320 3.987 C 20.012 2.493,20.565 1.259,20.549 1.244 C 20.438 1.138,18.883 0.540,18.360 0.401 C 17.022 0.047,15.399 -0.072,14.049 0.085 M30.010 18.997 L 34.012 26.000 30.010 33.003 L 26.008 40.006 28.922 39.983 L 31.837 39.960 32.068 39.720 C 32.194 39.588,33.350 37.635,34.635 35.380 C 35.920 33.125,36.984 31.280,37.000 31.280 C 37.016 31.280,38.080 33.125,39.365 35.380 C 40.650 37.635,41.806 39.588,41.932 39.720 L 42.163 39.960 45.078 39.983 L 47.992 40.006 43.990 33.003 L 39.988 26.000 43.990 18.997 L 47.992 11.994 45.078 12.017 L 42.163 12.040 41.932 12.280 C 41.806 12.412,40.650 14.365,39.365 16.620 C 38.080 18.875,37.016 20.720,37.000 20.720 C 36.984 20.720,35.920 18.875,34.635 16.620 C 33.350 14.365,32.194 12.412,32.068 12.280 L 31.837 12.040 28.922 12.017 L 26.008 11.994 30.010 18.997 " fill="#2B2C30" stroke="none" fill-rule="evenodd"></path></svg>