<svg width="56" height="48" viewBox="0 0 56 48" fill="none" xmlns="http://www.w3.org/2000/svg"><path d="M26.273 0.054 C 23.829 0.289,22.653 0.487,20.743 0.985 C 11.887 3.290,4.529 10.137,1.545 18.848 C 0.004 23.347,-0.377 28.083,0.421 32.816 C 1.278 37.900,3.271 42.109,6.746 46.178 C 7.630 47.212,7.772 47.320,8.252 47.320 C 8.606 47.320,8.691 47.251,10.284 45.667 C 12.450 43.513,12.426 43.616,11.123 42.066 C 8.533 38.986,6.824 35.145,6.193 30.987 C 5.967 29.497,5.969 26.496,6.198 24.967 C 7.532 16.051,13.975 8.875,22.620 6.678 C 24.591 6.177,25.821 6.028,28.000 6.029 C 31.116 6.031,33.403 6.474,36.377 7.654 L 37.148 7.960 38.104 7.232 C 41.063 4.978,42.066 4.224,42.233 4.130 L 42.420 4.024 42.233 3.879 C 41.888 3.612,38.882 2.164,37.987 1.834 C 35.845 1.046,33.698 0.514,31.500 0.229 C 30.433 0.090,27.065 -0.023,26.273 0.054 M44.928 8.381 C 44.369 8.686,24.123 24.224,23.599 24.749 C 22.594 25.759,21.942 27.511,22.059 28.891 C 22.168 30.178,22.723 31.331,23.698 32.293 C 24.758 33.339,26.115 33.913,27.533 33.915 C 28.965 33.917,30.278 33.346,31.340 32.258 C 31.647 31.944,35.420 27.088,39.724 21.467 C 48.397 10.140,48.037 10.668,47.752 9.687 C 47.586 9.117,47.103 8.549,46.608 8.342 C 46.181 8.164,45.288 8.184,44.928 8.381 M51.790 13.837 C 51.634 14.137,49.468 17.106,49.316 17.229 C 49.125 17.384,48.067 18.772,48.067 18.868 C 48.067 18.915,48.168 19.193,48.291 19.486 C 50.421 24.556,50.559 30.382,48.672 35.516 C 47.850 37.751,46.399 40.256,44.877 42.066 C 43.574 43.616,43.550 43.513,45.716 45.667 C 47.363 47.304,47.382 47.320,47.787 47.320 C 48.159 47.320,48.240 47.275,48.678 46.822 C 49.874 45.588,51.565 43.231,52.575 41.393 C 56.732 33.826,57.100 24.391,53.546 16.536 C 52.958 15.236,52.089 13.627,51.975 13.627 C 51.934 13.627,51.851 13.721,51.790 13.837 " fill="#2B2C30" stroke="none" fill-rule="evenodd"></path></svg>