<svg width="60" height="60" viewBox="0 0 60 60" fill="none" xmlns="http://www.w3.org/2000/svg"><path d="M27.600 0.109 C 26.346 0.204,24.312 0.524,23.000 0.832 L 22.050 1.055 22.024 4.221 L 21.997 7.387 21.774 7.457 C 21.651 7.495,21.129 7.707,20.614 7.927 L 19.679 8.327 17.455 6.105 L 15.231 3.883 14.541 4.303 C 10.277 6.899,6.931 10.246,4.305 14.541 L 3.883 15.231 6.105 17.455 L 8.327 19.679 7.927 20.614 C 7.707 21.129,7.495 21.651,7.457 21.774 L 7.387 21.997 4.221 22.024 L 1.055 22.050 0.875 22.800 C 0.516 24.299,0.194 26.477,0.079 28.170 C -0.109 30.949,0.190 34.336,0.875 37.200 L 1.055 37.950 4.221 37.976 L 7.387 38.003 7.457 38.226 C 7.495 38.349,7.707 38.871,7.927 39.386 L 8.327 40.321 6.105 42.545 L 3.883 44.769 4.305 45.459 C 6.931 49.754,10.277 53.100,14.541 55.697 L 15.231 56.117 17.455 53.895 L 19.679 51.673 20.614 52.073 C 21.129 52.293,21.651 52.505,21.774 52.543 L 21.997 52.613 22.024 55.779 L 22.050 58.945 22.800 59.125 C 24.326 59.490,26.497 59.809,28.224 59.921 C 31.031 60.103,34.339 59.809,37.200 59.125 L 37.950 58.945 37.976 55.779 L 38.003 52.613 38.226 52.543 C 38.349 52.505,38.871 52.293,39.386 52.073 L 40.321 51.673 42.545 53.895 L 44.769 56.117 45.459 55.697 C 49.682 53.126,53.126 49.682,55.697 45.459 L 56.117 44.769 53.895 42.545 L 51.673 40.321 52.073 39.386 C 52.293 38.871,52.505 38.349,52.543 38.226 L 52.613 38.003 55.779 37.976 L 58.945 37.950 59.125 37.200 C 59.809 34.339,60.103 31.031,59.921 28.224 C 59.809 26.497,59.490 24.326,59.125 22.800 L 58.945 22.050 55.779 22.024 L 52.613 21.997 52.543 21.774 C 52.505 21.651,52.293 21.129,52.073 20.614 L 51.673 19.679 53.895 17.455 L 56.117 15.231 55.697 14.541 C 53.126 10.318,49.682 6.874,45.459 4.303 L 44.769 3.883 42.545 6.105 L 40.321 8.327 39.386 7.927 C 38.871 7.707,38.349 7.495,38.226 7.457 L 38.003 7.387 37.976 4.221 L 37.950 1.055 37.200 0.875 C 34.138 0.142,30.726 -0.130,27.600 0.109 M31.775 6.063 L 32.000 6.123 32.000 8.865 C 32.000 10.968,32.029 11.616,32.125 11.650 C 35.802 12.929,37.130 13.453,39.214 14.447 L 41.579 15.573 43.513 13.637 C 44.577 12.571,45.485 11.700,45.530 11.700 C 45.638 11.700,48.300 14.362,48.300 14.470 C 48.300 14.515,47.429 15.423,46.363 16.487 L 44.427 18.421 45.553 20.786 C 46.547 22.870,47.071 24.198,48.350 27.875 C 48.384 27.971,49.032 28.000,51.135 28.000 L 53.877 28.000 53.937 28.225 C 53.970 28.349,53.997 29.148,53.997 30.000 C 53.997 30.852,53.970 31.651,53.937 31.775 L 53.877 32.000 51.135 32.000 C 49.032 32.000,48.384 32.029,48.350 32.125 C 47.071 35.802,46.547 37.130,45.553 39.214 L 44.427 41.579 46.363 43.513 C 47.429 44.577,48.300 45.485,48.300 45.530 C 48.300 45.576,47.695 46.217,46.956 46.956 C 46.217 47.695,45.576 48.300,45.530 48.300 C 45.485 48.300,44.577 47.429,43.513 46.363 L 41.579 44.427 39.214 45.553 C 37.130 46.547,35.802 47.071,32.125 48.350 C 32.029 48.384,32.000 49.032,32.000 51.135 L 32.000 53.877 31.775 53.937 C 31.482 54.015,28.518 54.015,28.225 53.937 L 28.000 53.877 28.000 51.135 C 28.000 49.032,27.971 48.384,27.875 48.350 C 24.198 47.071,22.870 46.547,20.786 45.553 L 18.421 44.427 16.487 46.363 C 15.423 47.429,14.515 48.300,14.470 48.300 C 14.362 48.300,11.700 45.638,11.700 45.530 C 11.700 45.485,12.571 44.577,13.637 43.513 L 15.573 41.579 14.447 39.214 C 13.453 37.130,12.929 35.802,11.650 32.125 C 11.616 32.029,10.968 32.000,8.865 32.000 L 6.123 32.000 6.063 31.775 C 5.985 31.482,5.985 28.518,6.063 28.225 L 6.123 28.000 8.865 28.000 C 10.968 28.000,11.616 27.971,11.650 27.875 C 12.929 24.198,13.453 22.870,14.447 20.786 L 15.573 18.421 13.637 16.487 C 12.571 15.423,11.700 14.515,11.700 14.470 C 11.700 14.362,14.362 11.700,14.470 11.700 C 14.515 11.700,15.423 12.571,16.487 13.637 L 18.421 15.573 20.786 14.447 C 22.870 13.453,24.198 12.929,27.875 11.650 C 27.971 11.616,28.000 10.967,28.000 8.860 C 28.000 6.330,28.014 6.111,28.175 6.069 C 28.441 5.999,31.519 5.994,31.775 6.063 M28.850 18.057 C 25.878 18.463,23.692 19.468,21.732 21.330 C 16.372 26.422,16.881 35.119,22.802 39.588 C 28.685 44.030,37.247 42.078,40.632 35.525 C 44.293 28.435,40.218 19.897,32.384 18.246 C 31.665 18.095,29.443 17.976,28.850 18.057 M31.700 24.402 C 33.475 24.918,35.029 26.467,35.612 28.300 C 35.900 29.206,35.900 30.792,35.613 31.702 C 35.142 33.188,33.997 34.544,32.650 35.209 C 30.841 36.102,29.160 36.101,27.344 35.207 C 25.996 34.542,24.860 33.196,24.387 31.702 C 24.100 30.793,24.100 29.207,24.387 28.298 C 25.367 25.204,28.577 23.493,31.700 24.402 " fill="#2B2C30" stroke="none" fill-rule="evenodd"></path></svg>