<svg width="60" height="60" viewBox="0 0 60 60" fill="none" xmlns="http://www.w3.org/2000/svg"><path d="M22.250 0.060 C 20.489 0.242,18.777 0.540,17.575 0.873 L 17.000 1.033 17.000 3.150 L 17.000 5.266 16.327 5.534 L 15.653 5.801 14.185 4.335 L 12.716 2.869 12.406 2.997 C 11.968 3.179,9.875 4.569,9.100 5.193 C 7.070 6.828,5.417 8.632,4.053 10.700 C 3.600 11.388,3.138 12.108,3.027 12.300 L 2.824 12.650 4.312 14.152 L 5.801 15.653 5.534 16.327 L 5.266 17.000 3.149 17.000 L 1.031 17.000 0.821 17.775 C -0.258 21.757,-0.258 26.243,0.821 30.225 L 1.031 31.000 3.150 31.000 L 5.268 31.000 5.521 31.625 L 5.773 32.250 4.277 33.760 L 2.782 35.271 3.345 36.210 C 5.443 39.710,8.155 42.430,11.724 44.617 L 12.650 45.184 14.152 43.692 L 15.653 42.199 16.327 42.466 L 17.000 42.734 17.000 44.851 L 17.000 46.969 17.775 47.179 C 18.637 47.412,20.796 47.837,20.850 47.783 C 20.869 47.765,20.803 47.409,20.704 46.993 C 20.155 44.689,19.998 41.237,20.340 39.007 C 20.428 38.434,20.500 37.894,20.500 37.807 C 20.500 37.700,20.179 37.528,19.492 37.266 C 18.938 37.055,17.571 36.465,16.453 35.955 L 14.422 35.027 13.211 36.238 L 12.000 37.449 11.276 36.725 L 10.552 36.001 11.767 34.775 L 12.981 33.550 12.079 31.600 C 11.582 30.527,10.786 28.615,10.310 27.350 L 9.444 25.050 7.722 25.023 L 6.000 24.995 6.000 24.000 L 6.000 23.005 7.720 22.977 L 9.441 22.950 10.353 20.550 C 10.855 19.230,11.651 17.318,12.123 16.300 L 12.981 14.450 11.767 13.225 L 10.552 11.999 11.276 11.276 L 11.999 10.552 13.225 11.767 L 14.450 12.981 16.400 12.079 C 17.473 11.582,19.385 10.786,20.650 10.310 L 22.950 9.444 22.977 7.722 L 23.005 6.000 24.000 6.000 L 24.995 6.000 25.023 7.720 L 25.050 9.441 27.450 10.353 C 28.770 10.855,30.683 11.651,31.700 12.123 L 33.550 12.981 34.775 11.767 L 36.001 10.552 36.724 11.276 L 37.448 11.999 36.233 13.225 L 35.018 14.450 35.963 16.500 C 36.482 17.628,37.070 18.989,37.269 19.525 C 37.529 20.225,37.678 20.500,37.798 20.500 C 37.890 20.500,38.434 20.428,39.007 20.341 C 41.247 20.000,44.693 20.156,46.993 20.704 C 47.409 20.803,47.765 20.869,47.783 20.850 C 47.837 20.796,47.412 18.637,47.179 17.775 L 46.969 17.000 44.851 17.000 L 42.734 17.000 42.466 16.327 L 42.199 15.653 43.688 14.152 L 45.176 12.650 44.973 12.300 C 43.399 9.581,41.303 7.128,38.900 5.193 C 38.125 4.569,36.032 3.179,35.594 2.997 L 35.284 2.869 33.815 4.335 L 32.347 5.801 31.673 5.534 L 31.000 5.266 31.000 3.148 L 31.000 1.030 30.375 0.865 C 28.287 0.314,26.734 0.101,24.500 0.056 C 23.483 0.036,22.470 0.038,22.250 0.060 M22.550 14.103 C 20.498 14.419,18.416 15.475,16.945 16.945 C 14.954 18.937,13.854 21.810,14.033 24.550 C 14.306 28.743,17.022 32.240,20.992 33.512 C 21.627 33.716,21.740 33.729,21.783 33.600 C 21.810 33.518,22.115 32.885,22.461 32.195 C 23.121 30.874,23.931 29.584,24.779 28.502 C 25.058 28.145,25.276 27.842,25.262 27.828 C 25.248 27.815,25.083 27.848,24.894 27.902 C 23.943 28.174,22.513 27.871,21.642 27.213 C 19.471 25.573,19.471 22.427,21.642 20.787 C 23.368 19.482,25.871 19.866,27.213 21.642 C 27.871 22.513,28.174 23.943,27.902 24.894 C 27.848 25.083,27.815 25.248,27.828 25.262 C 27.842 25.276,28.145 25.058,28.502 24.779 C 29.584 23.931,30.874 23.121,32.195 22.461 C 32.885 22.115,33.518 21.810,33.600 21.783 C 33.729 21.740,33.716 21.627,33.512 20.992 C 32.412 17.557,29.709 15.095,26.100 14.239 C 25.308 14.051,23.369 13.977,22.550 14.103 M40.600 24.058 C 40.407 24.081,39.744 24.172,39.125 24.260 L 38.000 24.422 38.000 26.494 L 38.000 28.566 37.025 28.939 C 36.489 29.144,35.893 29.396,35.700 29.499 L 35.350 29.687 33.887 28.232 L 32.424 26.776 31.820 27.186 C 29.974 28.440,28.443 29.970,27.195 31.808 L 26.776 32.424 28.232 33.887 L 29.687 35.350 29.499 35.700 C 29.396 35.893,29.144 36.489,28.939 37.025 L 28.566 38.000 26.495 38.000 L 24.424 38.000 24.241 39.125 C 24.115 39.907,24.059 40.784,24.059 42.000 C 24.059 43.216,24.115 44.093,24.241 44.875 L 24.424 46.000 26.495 46.000 L 28.566 46.000 28.939 46.975 C 29.144 47.511,29.396 48.108,29.499 48.300 L 29.687 48.650 28.232 50.113 L 26.776 51.576 27.186 52.180 C 28.440 54.026,29.970 55.557,31.808 56.805 L 32.424 57.224 33.887 55.768 L 35.350 54.313 35.700 54.501 C 35.893 54.604,36.489 54.856,37.025 55.061 L 38.000 55.434 38.000 57.505 L 38.000 59.576 39.125 59.759 C 40.661 60.008,43.339 60.008,44.875 59.759 L 46.000 59.576 46.000 57.505 L 46.000 55.434 46.975 55.061 C 47.511 54.856,48.108 54.604,48.300 54.501 L 48.650 54.313 50.113 55.768 L 51.576 57.224 52.192 56.805 C 54.030 55.557,55.560 54.026,56.814 52.180 L 57.224 51.576 55.768 50.113 L 54.313 48.650 54.501 48.300 C 54.604 48.108,54.856 47.511,55.061 46.975 L 55.434 46.000 57.505 46.000 L 59.576 46.000 59.759 44.875 C 59.885 44.093,59.941 43.216,59.941 42.000 C 59.941 40.784,59.885 39.907,59.759 39.125 L 59.576 38.000 57.505 38.000 L 55.434 38.000 55.061 37.025 C 54.856 36.489,54.604 35.893,54.501 35.700 L 54.313 35.350 55.768 33.887 L 57.224 32.424 56.805 31.808 C 55.557 29.970,54.026 28.440,52.180 27.186 L 51.576 26.776 50.113 28.232 L 48.650 29.687 48.300 29.499 C 48.108 29.396,47.511 29.144,46.975 28.939 L 46.000 28.566 46.000 26.496 L 46.000 24.425 44.925 24.256 C 43.886 24.092,41.317 23.975,40.600 24.058 M44.050 34.252 C 46.284 34.870,48.202 36.467,49.194 38.533 C 49.807 39.808,49.944 40.442,49.944 42.000 C 49.944 43.555,49.807 44.192,49.199 45.458 C 48.199 47.539,46.262 49.144,44.000 49.765 C 43.094 50.014,40.906 50.014,40.000 49.765 C 37.732 49.142,35.714 47.460,34.764 45.399 C 34.277 44.344,34.098 43.610,34.031 42.395 C 33.817 38.480,36.468 35.025,40.350 34.160 C 41.230 33.963,43.184 34.012,44.050 34.252 M41.050 38.141 C 40.322 38.321,39.736 38.654,39.194 39.196 C 37.638 40.753,37.638 43.248,39.195 44.805 C 41.476 47.085,45.324 45.858,45.912 42.663 C 46.424 39.885,43.813 37.456,41.050 38.141 " fill="#2B2C30" stroke="none" fill-rule="evenodd"></path></svg>