<svg width="20" height="20" viewBox="0 0 20 20" fill="none" xmlns="http://www.w3.org/2000/svg"><path d="M6.616 0.615 C 6.016 0.754,5.011 1.283,4.190 1.892 C 2.755 2.956,1.647 4.394,0.959 6.083 C 0.077 8.246,0.039 10.874,0.857 13.067 C 1.787 15.559,3.694 17.586,6.083 18.620 C 7.833 19.378,9.692 19.612,11.583 19.314 C 14.488 18.855,17.075 17.022,18.542 14.383 C 19.671 12.352,20.014 9.881,19.495 7.533 C 19.225 6.316,18.631 5.016,17.856 3.950 C 17.157 2.988,16.167 2.072,15.142 1.439 C 14.728 1.183,14.538 1.132,14.291 1.210 C 13.891 1.338,13.687 1.727,13.802 2.143 C 13.854 2.329,13.998 2.472,14.360 2.695 C 15.649 3.489,16.674 4.610,17.369 5.988 C 17.821 6.884,18.073 7.710,18.205 8.733 C 18.267 9.209,18.257 10.335,18.188 10.817 C 17.983 12.240,17.431 13.566,16.561 14.723 C 16.278 15.100,15.528 15.870,15.172 16.149 C 14.324 16.814,13.284 17.355,12.319 17.634 C 9.338 18.496,6.153 17.638,4.023 15.399 C 2.058 13.334,1.293 10.403,1.998 7.642 C 2.487 5.724,3.743 3.954,5.400 2.845 C 5.731 2.623,6.326 2.292,6.635 2.158 C 6.867 2.057,6.907 2.050,7.250 2.053 C 7.672 2.056,7.822 2.103,8.296 2.384 C 8.801 2.685,9.030 2.972,9.174 3.489 C 9.247 3.749,9.247 3.759,9.259 7.633 L 9.270 11.517 8.060 10.310 C 7.164 9.417,6.811 9.086,6.700 9.036 C 6.243 8.829,5.721 9.132,5.676 9.632 C 5.642 9.999,5.566 9.907,7.646 11.993 C 8.912 13.262,9.595 13.924,9.686 13.968 C 9.864 14.054,10.136 14.054,10.314 13.968 C 10.405 13.924,11.089 13.262,12.355 11.993 C 14.400 9.944,14.334 10.021,14.332 9.683 C 14.331 9.312,13.979 8.968,13.600 8.968 C 13.301 8.968,13.225 9.029,11.943 10.308 L 10.737 11.511 10.724 7.547 C 10.710 3.253,10.718 3.442,10.529 2.868 C 10.248 2.014,9.659 1.397,8.650 0.899 C 8.173 0.664,7.887 0.596,7.300 0.581 C 6.966 0.573,6.755 0.583,6.616 0.615 " stroke="none" fill-rule="evenodd" fill="black"></path></svg>