<svg width="63" height="63" viewBox="0 0 63 63" fill="none" xmlns="http://www.w3.org/2000/svg"><path d="M27.877 0.121 C 22.090 0.626,16.799 2.672,11.992 6.263 C 10.523 7.361,7.613 10.222,6.510 11.655 C 2.438 16.941,0.243 22.990,0.035 29.505 C -0.267 38.893,3.729 47.833,10.905 53.825 C 19.066 60.640,29.945 62.728,40.050 59.419 C 40.738 59.193,41.319 58.991,41.341 58.969 C 41.363 58.947,40.973 57.872,40.474 56.581 C 39.975 55.289,38.998 52.744,38.304 50.925 C 37.610 49.106,36.999 47.503,36.945 47.364 C 36.856 47.134,36.773 47.247,36.052 48.571 C 34.601 51.239,32.162 54.668,31.605 54.822 C 31.208 54.931,29.763 54.928,29.470 54.817 C 29.328 54.763,28.907 54.326,28.533 53.846 C 24.011 48.028,21.348 41.407,20.634 34.204 L 20.563 33.495 30.556 33.495 L 40.550 33.495 40.479 34.007 L 40.409 34.519 41.126 34.683 C 41.520 34.773,42.820 35.221,44.015 35.677 L 46.187 36.508 46.247 36.130 C 46.310 35.737,46.510 33.856,46.513 33.626 C 46.515 33.524,47.404 33.495,50.607 33.495 L 54.700 33.495 54.639 33.836 C 54.353 35.453,54.038 36.819,53.703 37.893 C 53.484 38.593,53.325 39.184,53.349 39.207 C 53.440 39.293,58.932 41.378,58.969 41.341 C 58.991 41.319,59.193 40.738,59.419 40.050 C 61.768 32.876,61.423 25.282,58.434 18.324 C 57.354 15.810,55.703 13.153,53.829 10.911 C 47.494 3.330,37.709 -0.739,27.877 0.121 M32.605 7.271 C 35.849 11.441,38.155 16.110,39.436 21.105 C 39.826 22.627,40.262 25.004,40.369 26.197 C 40.406 26.602,40.458 27.039,40.485 27.169 L 40.534 27.405 30.556 27.405 L 20.578 27.405 20.642 26.801 C 21.407 19.518,24.113 12.843,28.602 7.167 L 29.453 6.091 30.569 6.091 L 31.686 6.090 32.605 7.271 M44.047 10.240 C 49.610 13.963,53.500 19.992,54.530 26.486 L 54.676 27.405 50.595 27.405 C 47.402 27.405,46.515 27.376,46.514 27.274 C 46.513 27.202,46.442 26.505,46.355 25.725 C 45.726 20.082,44.005 14.563,41.367 9.722 C 40.964 8.983,40.635 8.356,40.635 8.328 C 40.635 8.211,42.978 9.524,44.047 10.240 M19.786 9.101 C 16.938 14.194,14.972 20.405,14.475 25.880 C 14.412 26.574,14.344 27.202,14.324 27.274 C 14.295 27.376,13.398 27.405,10.293 27.405 C 8.097 27.405,6.300 27.366,6.300 27.318 C 6.300 26.993,6.769 24.742,7.032 23.809 C 8.796 17.539,13.273 12.001,19.026 8.974 C 19.621 8.661,20.123 8.403,20.143 8.402 C 20.162 8.401,20.002 8.715,19.786 9.101 M14.321 33.731 C 14.346 33.861,14.441 34.679,14.534 35.549 C 14.913 39.130,15.873 42.974,17.297 46.620 C 17.829 47.981,19.190 50.856,19.774 51.852 C 19.986 52.215,20.160 52.537,20.160 52.567 C 20.160 52.674,18.110 51.534,17.108 50.870 C 15.133 49.562,13.520 48.139,12.001 46.366 C 8.998 42.861,7.059 38.596,6.350 33.941 L 6.282 33.495 10.279 33.495 L 14.276 33.495 14.321 33.731 M39.381 38.832 C 38.976 39.049,38.640 39.595,38.640 40.036 C 38.640 40.541,46.306 60.608,47.091 62.156 C 47.511 62.987,48.428 63.232,49.135 62.704 C 49.294 62.586,50.095 61.183,51.154 59.171 C 52.120 57.336,52.938 55.807,52.971 55.774 C 53.004 55.741,54.625 57.300,56.572 59.240 C 60.352 63.005,60.458 63.087,61.340 62.969 C 62.212 62.852,63.000 61.977,63.000 61.126 C 63.000 60.385,62.737 60.067,59.195 56.520 C 57.279 54.602,55.739 53.006,55.773 52.972 C 55.807 52.938,57.336 52.120,59.171 51.154 C 61.183 50.095,62.586 49.294,62.704 49.135 C 63.232 48.428,62.987 47.511,62.156 47.091 C 60.608 46.306,40.541 38.640,40.036 38.640 C 39.873 38.640,39.578 38.726,39.381 38.832 " fill="#2B2C30" stroke="none" fill-rule="evenodd"></path></svg>