<svg width="60" height="60" viewBox="0 0 60 60" fill="none" xmlns="http://www.w3.org/2000/svg"><path d="M28.000 0.063 C 19.192 0.720,11.339 4.978,6.031 11.974 C 2.996 15.974,1.108 20.540,0.273 25.899 C -0.033 27.859,-0.033 32.141,0.273 34.101 C 1.556 42.330,5.534 49.083,11.982 53.975 C 15.965 56.997,20.556 58.894,25.899 59.727 C 27.859 60.033,32.141 60.033,34.101 59.727 C 41.392 58.591,47.589 55.304,52.239 50.107 C 56.362 45.501,58.744 40.408,59.727 34.101 C 60.033 32.141,60.033 27.859,59.727 25.899 C 58.894 20.556,56.997 15.965,53.975 11.982 C 49.014 5.444,41.924 1.330,33.750 0.248 C 32.579 0.093,29.099 -0.019,28.000 0.063 M31.871 6.875 C 35.108 10.898,37.580 15.874,38.850 20.926 C 39.239 22.475,39.643 24.714,39.748 25.900 C 39.785 26.313,39.837 26.729,39.864 26.825 C 39.911 26.991,39.398 27.000,30.094 27.000 L 20.274 27.000 20.344 26.175 C 20.443 25.014,20.848 22.671,21.199 21.223 C 22.472 15.979,25.202 10.539,28.574 6.525 L 29.015 6.000 30.091 6.000 L 31.167 6.000 31.871 6.875 M41.530 8.962 C 44.985 10.875,47.795 13.455,49.955 16.700 C 51.919 19.651,53.279 23.174,53.746 26.525 L 53.812 27.000 49.812 27.000 L 45.812 27.000 45.761 26.575 C 45.733 26.341,45.637 25.527,45.549 24.765 C 45.116 21.044,44.024 16.910,42.546 13.399 C 41.964 12.017,40.847 9.727,40.310 8.817 C 40.140 8.528,40.000 8.272,40.000 8.248 C 40.000 8.162,40.542 8.415,41.530 8.962 M19.800 8.341 C 19.800 8.364,19.612 8.712,19.382 9.116 C 17.244 12.874,15.443 17.974,14.654 22.500 C 14.431 23.780,14.104 26.342,14.101 26.825 C 14.100 26.989,13.845 27.000,10.144 27.000 L 6.188 27.000 6.254 26.525 C 6.437 25.210,6.952 23.156,7.426 21.850 C 9.426 16.335,13.309 11.822,18.564 8.907 C 19.586 8.340,19.800 8.242,19.800 8.341 M14.101 33.175 C 14.104 33.658,14.431 36.220,14.654 37.500 C 15.443 42.028,17.244 47.126,19.385 50.889 C 19.616 51.295,19.786 51.647,19.763 51.671 C 19.701 51.732,18.805 51.266,17.650 50.571 C 12.930 47.730,9.302 43.323,7.426 38.150 C 6.952 36.844,6.437 34.790,6.254 33.475 L 6.188 33.000 10.144 33.000 C 13.845 33.000,14.100 33.011,14.101 33.175 M39.841 33.475 C 39.240 38.612,38.286 42.055,36.351 46.064 C 35.082 48.696,33.798 50.774,32.051 53.025 L 31.295 54.000 30.100 54.000 L 28.904 54.000 28.360 53.340 C 25.197 49.505,22.543 44.235,21.314 39.350 C 20.790 37.266,20.300 34.366,20.300 33.345 L 20.300 33.000 30.098 33.000 L 39.896 33.000 39.841 33.475 M53.751 33.425 C 52.658 40.362,48.978 46.182,43.300 49.953 C 42.023 50.801,40.128 51.861,40.042 51.776 C 40.016 51.750,40.158 51.441,40.358 51.089 C 43.022 46.396,44.936 40.556,45.548 35.250 C 45.637 34.480,45.733 33.659,45.761 33.425 L 45.812 33.000 49.815 33.000 L 53.818 33.000 53.751 33.425 " fill="#2B2C30" stroke="none" fill-rule="evenodd"></path></svg>