<svg width="56" height="44" viewBox="0 0 56 44" fill="none" xmlns="http://www.w3.org/2000/svg"><path d="M0.351 0.272 L 0.047 0.545 0.047 2.987 L 0.047 5.429 0.351 5.701 L 0.656 5.973 2.335 5.973 L 4.013 5.973 4.013 24.639 L 4.013 43.304 4.286 43.609 L 4.558 43.913 7.000 43.913 L 9.442 43.913 9.714 43.609 L 9.987 43.304 9.987 41.625 L 9.987 39.947 11.988 39.947 L 13.988 39.947 14.018 41.671 L 14.047 43.396 14.305 43.655 L 14.564 43.913 28.849 43.938 C 41.733 43.959,43.165 43.947,43.447 43.814 C 43.618 43.732,43.793 43.595,43.835 43.509 C 43.877 43.424,43.933 42.597,43.959 41.673 L 44.007 39.993 49.721 39.947 L 55.436 39.900 55.695 39.641 L 55.953 39.382 55.953 21.970 L 55.953 4.558 55.649 4.286 L 55.344 4.013 32.665 4.013 L 9.987 4.013 9.987 2.324 L 9.987 0.635 9.669 0.317 L 9.352 0.000 5.004 -0.000 L 0.656 -0.000 0.351 0.272 M50.027 21.980 L 50.027 33.973 44.007 33.973 L 37.987 33.973 37.987 35.980 L 37.987 37.987 28.980 37.987 L 19.973 37.987 19.973 35.980 L 19.973 33.973 14.980 33.973 L 9.987 33.973 9.987 21.980 L 9.987 9.987 30.007 9.987 L 50.027 9.987 50.027 21.980 M27.393 14.138 C 23.979 14.768,21.170 17.362,20.300 20.687 C 19.744 22.812,19.982 25.038,20.977 27.020 C 22.086 29.230,24.100 30.907,26.471 31.594 C 28.316 32.129,29.998 32.093,31.858 31.479 C 34.169 30.716,36.060 29.044,37.109 26.833 C 37.782 25.416,37.941 24.657,37.932 22.913 C 37.925 21.571,37.899 21.335,37.671 20.580 C 37.164 18.896,36.412 17.655,35.195 16.492 C 33.134 14.523,30.162 13.626,27.393 14.138 " fill="#2B2C30" stroke="none" fill-rule="evenodd"></path></svg>