<svg width="56" height="56" viewBox="0 0 56 56" fill="none" xmlns="http://www.w3.org/2000/svg"><path d="M39.894 11.860 L 28.032 23.720 22.244 17.880 C 16.651 12.236,16.445 12.040,16.109 12.040 C 15.918 12.040,15.669 12.086,15.557 12.143 C 15.268 12.289,0.296 27.247,0.134 27.552 C 0.060 27.691,0.000 27.941,0.000 28.109 C -0.000 28.381,0.189 28.604,1.706 30.121 C 3.408 31.822,3.413 31.827,3.828 31.827 L 4.243 31.827 10.102 25.971 L 15.960 20.115 21.723 25.872 C 25.619 29.763,27.570 31.649,27.744 31.691 C 28.425 31.857,27.812 32.436,42.252 17.990 C 51.616 8.622,55.916 4.259,55.958 4.083 C 55.992 3.942,55.991 3.711,55.956 3.570 C 55.885 3.285,53.041 0.353,52.621 0.133 C 52.483 0.060,52.231 0.000,52.062 0.000 C 51.779 0.000,50.840 0.915,39.894 11.860 M49.607 20.059 C 49.504 20.103,49.336 20.231,49.233 20.345 C 49.048 20.551,49.047 20.684,49.047 37.994 L 49.047 55.436 49.305 55.695 L 49.564 55.953 51.996 55.953 L 54.429 55.953 54.701 55.649 L 54.973 55.344 54.973 37.987 L 54.973 20.630 54.701 20.325 L 54.429 20.020 52.111 20.000 C 50.836 19.989,49.709 20.016,49.607 20.059 M13.290 32.332 L 12.971 32.650 12.996 44.043 L 13.020 55.436 13.279 55.695 L 13.538 55.953 15.970 55.953 L 18.402 55.953 18.674 55.649 L 18.947 55.344 18.947 44.056 C 18.947 35.504,18.920 32.709,18.835 32.524 C 18.619 32.050,18.408 32.013,15.909 32.013 L 13.608 32.013 13.290 32.332 M37.438 32.166 C 36.943 32.512,36.960 32.090,36.961 43.934 C 36.961 51.362,36.993 55.042,37.060 55.282 C 37.126 55.520,37.256 55.696,37.456 55.818 C 37.728 55.984,37.939 55.999,39.976 56.000 C 42.282 56.000,42.459 55.974,42.768 55.592 C 42.919 55.406,42.929 54.653,42.931 43.976 L 42.933 32.559 42.661 32.286 L 42.388 32.013 40.021 32.013 C 37.985 32.013,37.625 32.035,37.438 32.166 M1.285 40.312 L 0.980 40.585 0.954 47.737 C 0.937 52.623,0.961 55.008,1.029 55.263 C 1.099 55.522,1.220 55.691,1.428 55.817 C 1.702 55.984,1.910 55.999,3.948 56.000 C 6.332 56.000,6.577 55.958,6.834 55.509 C 6.927 55.346,6.960 53.782,6.982 48.347 C 6.997 44.522,6.983 41.208,6.950 40.981 C 6.911 40.707,6.802 40.481,6.626 40.305 L 6.361 40.040 3.975 40.040 L 1.590 40.040 1.285 40.312 M25.286 40.313 L 25.013 40.586 25.013 47.965 L 25.013 55.344 25.286 55.649 L 25.558 55.953 27.848 55.981 C 29.782 56.005,30.182 55.987,30.421 55.863 C 31.010 55.558,30.987 55.878,30.987 48.031 C 30.987 43.808,30.951 40.798,30.899 40.662 C 30.851 40.535,30.717 40.343,30.601 40.236 C 30.399 40.047,30.299 40.040,27.975 40.040 L 25.559 40.040 25.286 40.313 " fill="#2B2C30" stroke="none" fill-rule="evenodd"></path></svg>