<svg width="57" height="49" viewBox="0 0 57 49" fill="none" xmlns="http://www.w3.org/2000/svg"><path d="M27.152 0.102 C 26.154 0.249,25.418 0.481,24.462 0.951 C 20.376 2.961,18.433 7.599,19.867 11.922 C 20.023 12.393,20.298 13.047,20.479 13.376 C 20.718 13.813,20.783 14.018,20.719 14.136 C 20.671 14.225,18.324 17.928,15.502 22.365 L 10.372 30.432 9.152 30.452 C 8.458 30.463,7.635 30.538,7.241 30.625 C 4.101 31.321,1.534 33.604,0.510 36.612 C -0.608 39.897,0.165 43.410,2.557 45.914 C 4.212 47.647,6.111 48.542,8.645 48.781 C 10.208 48.929,12.504 48.338,14.017 47.398 C 14.854 46.878,16.269 45.578,16.591 45.033 L 16.761 44.745 28.500 44.745 L 40.239 44.745 40.411 45.036 C 40.725 45.567,41.956 46.722,42.784 47.262 C 45.179 48.823,47.931 49.199,50.635 48.336 C 53.824 47.317,56.278 44.489,56.858 41.163 C 57.609 36.859,55.153 32.554,51.071 31.017 C 50.013 30.619,49.165 30.472,47.852 30.459 L 46.636 30.448 41.371 22.173 L 36.105 13.899 36.434 13.291 C 37.162 11.947,37.607 9.895,37.481 8.465 C 37.272 6.097,36.310 4.075,34.645 2.506 C 32.612 0.591,29.853 -0.294,27.152 0.102 M29.658 6.361 C 30.327 6.676,30.750 7.088,31.070 7.738 C 31.328 8.262,31.368 8.445,31.366 9.075 C 31.364 9.660,31.315 9.902,31.120 10.300 C 30.089 12.409,27.258 12.631,25.982 10.704 C 24.864 9.015,25.697 6.754,27.640 6.204 C 28.207 6.043,29.136 6.116,29.658 6.361 M28.453 18.075 C 29.519 18.076,29.932 18.036,30.534 17.873 C 30.948 17.761,31.295 17.680,31.307 17.694 C 31.390 17.792,41.135 33.161,41.135 33.194 C 41.135 33.216,40.859 33.601,40.522 34.048 C 40.185 34.494,39.760 35.171,39.577 35.551 C 39.259 36.215,38.837 37.562,38.715 38.309 L 38.656 38.665 28.500 38.665 L 18.344 38.665 18.285 38.309 C 18.163 37.562,17.741 36.215,17.423 35.551 C 17.240 35.171,16.812 34.490,16.471 34.038 C 16.009 33.426,15.871 33.175,15.929 33.056 C 15.972 32.967,18.185 29.477,20.845 25.300 L 25.683 17.704 26.403 17.889 C 26.945 18.027,27.451 18.073,28.453 18.075 M10.404 36.756 C 10.963 37.003,11.653 37.659,11.931 38.207 C 12.128 38.595,12.160 38.793,12.160 39.616 C 12.160 40.392,12.123 40.644,11.966 40.953 C 11.333 42.193,9.930 42.909,8.646 42.647 C 7.601 42.435,6.901 41.898,6.392 40.918 C 6.172 40.493,6.135 40.307,6.135 39.615 C 6.134 38.696,6.312 38.189,6.846 37.580 C 7.725 36.579,9.221 36.233,10.404 36.756 M48.572 36.621 C 49.228 36.792,49.728 37.095,50.154 37.580 C 50.688 38.189,50.866 38.696,50.865 39.615 C 50.865 40.307,50.828 40.493,50.608 40.918 C 50.257 41.592,49.879 42.001,49.335 42.294 C 47.731 43.158,45.891 42.576,45.011 40.926 C 44.828 40.582,44.793 40.374,44.793 39.615 C 44.793 38.818,44.823 38.657,45.048 38.237 C 45.491 37.410,46.184 36.834,47.006 36.613 C 47.605 36.452,47.928 36.453,48.572 36.621 " fill="#2B2C30" stroke="none" fill-rule="evenodd"></path></svg>