<svg width="48" height="48" viewBox="0 0 48 48" fill="none" xmlns="http://www.w3.org/2000/svg"><path d="M0.504 0.157 C -0.033 0.484,-0.000 -0.167,0.000 10.000 C 0.000 20.167,-0.033 19.516,0.504 19.843 C 0.754 19.996,0.977 19.999,9.984 20.000 C 20.169 20.000,19.516 20.033,19.843 19.496 C 19.996 19.246,19.999 19.024,19.999 10.000 C 19.999 0.976,19.996 0.754,19.843 0.504 C 19.516 -0.033,20.169 -0.000,9.984 0.000 C 0.977 0.001,0.754 0.004,0.504 0.157 M28.504 0.157 C 27.967 0.484,28.000 -0.167,28.000 10.000 C 28.000 20.167,27.967 19.516,28.504 19.843 C 28.754 19.996,28.977 19.999,37.984 20.000 C 48.169 20.000,47.516 20.033,47.843 19.496 C 47.996 19.246,47.999 19.024,47.999 10.000 C 47.999 0.976,47.996 0.754,47.843 0.504 C 47.516 -0.033,48.169 -0.000,37.984 0.000 C 28.977 0.001,28.754 0.004,28.504 0.157 M14.000 10.000 L 14.000 14.000 10.000 14.000 L 6.000 14.000 6.000 10.000 L 6.000 6.000 10.000 6.000 L 14.000 6.000 14.000 10.000 M42.000 10.000 L 42.000 14.000 38.000 14.000 L 34.000 14.000 34.000 10.000 L 34.000 6.000 38.000 6.000 L 42.000 6.000 42.000 10.000 M0.504 28.157 C -0.033 28.484,-0.000 27.833,0.000 38.000 C 0.000 48.167,-0.033 47.516,0.504 47.843 C 0.754 47.996,0.977 47.999,9.984 48.000 C 20.169 48.000,19.516 48.033,19.843 47.496 C 19.996 47.246,19.999 47.024,19.999 38.000 C 19.999 28.976,19.996 28.754,19.843 28.504 C 19.516 27.967,20.169 28.000,9.984 28.000 C 0.977 28.001,0.754 28.004,0.504 28.157 M28.504 28.157 C 27.967 28.484,28.000 27.833,28.000 38.000 C 28.000 48.167,27.967 47.516,28.504 47.843 C 28.754 47.996,28.977 47.999,37.984 48.000 C 48.169 48.000,47.516 48.033,47.843 47.496 C 47.996 47.246,47.999 47.024,47.999 38.000 C 47.999 28.976,47.996 28.754,47.843 28.504 C 47.516 27.967,48.169 28.000,37.984 28.000 C 28.977 28.001,28.754 28.004,28.504 28.157 M14.000 38.000 L 14.000 42.000 10.000 42.000 L 6.000 42.000 6.000 38.000 L 6.000 34.000 10.000 34.000 L 14.000 34.000 14.000 38.000 M42.000 38.000 L 42.000 42.000 38.000 42.000 L 34.000 42.000 34.000 38.000 L 34.000 34.000 38.000 34.000 L 42.000 34.000 42.000 38.000 " fill="#2B2C30" stroke="none" fill-rule="evenodd"></path></svg>