<svg width="52" height="56" viewBox="0 0 52 56" fill="none" xmlns="http://www.w3.org/2000/svg"><path d="M26.823 0.090 C 24.645 0.430,22.609 1.707,21.407 3.488 L 21.017 4.066 20.453 4.016 C 19.204 3.907,17.324 4.333,16.143 4.992 C 14.165 6.096,12.818 7.869,12.198 10.183 C 12.017 10.860,12.012 11.042,11.982 17.955 L 11.952 25.034 11.327 24.738 C 10.230 24.219,9.490 24.067,8.017 24.060 C 6.596 24.053,6.145 24.135,4.925 24.622 C 3.206 25.308,1.471 26.975,0.730 28.650 C 0.611 28.919,0.411 29.476,0.286 29.888 C 0.085 30.548,0.057 30.791,0.052 31.937 C 0.047 33.034,0.077 33.351,0.244 33.968 C 0.658 35.491,1.277 36.527,2.593 37.902 C 3.057 38.387,6.743 42.313,10.783 46.627 C 14.822 50.941,18.368 54.677,18.662 54.929 C 18.956 55.182,19.449 55.513,19.758 55.666 L 20.320 55.943 32.845 55.943 L 45.370 55.943 45.956 55.666 C 46.278 55.513,46.762 55.182,47.031 54.929 C 47.840 54.169,48.108 53.665,48.780 51.629 C 50.613 46.080,51.611 40.957,51.917 35.533 C 51.977 34.461,52.001 31.070,51.982 26.260 C 51.953 18.685,51.953 18.676,51.756 17.983 C 51.310 16.409,50.298 14.830,49.103 13.845 C 47.810 12.778,45.946 12.047,44.519 12.047 L 44.051 12.047 43.950 11.160 C 43.824 10.047,43.412 8.817,42.846 7.867 C 42.283 6.919,41.094 5.731,40.147 5.167 C 38.807 4.371,36.883 3.893,35.533 4.023 L 34.970 4.077 34.624 3.533 C 33.906 2.406,32.479 1.219,31.191 0.678 C 29.885 0.129,28.108 -0.110,26.823 0.090 M28.810 6.169 C 29.257 6.399,29.588 6.731,29.778 7.140 L 29.985 7.583 29.986 17.364 C 29.987 28.094,29.959 27.526,30.500 27.845 C 30.836 28.044,33.069 28.062,33.442 27.869 C 33.960 27.601,33.926 28.144,33.973 19.465 C 34.014 11.890,34.025 11.468,34.178 11.180 C 34.588 10.411,35.181 10.043,36.010 10.043 C 36.653 10.043,37.119 10.243,37.486 10.678 C 37.981 11.266,37.960 10.882,37.960 19.283 C 37.960 27.598,37.949 27.383,38.390 27.777 C 38.568 27.935,38.707 27.950,39.997 27.950 C 41.286 27.950,41.425 27.935,41.603 27.777 C 42.023 27.402,42.033 27.297,42.033 23.283 L 42.033 19.520 42.275 19.056 C 42.603 18.429,43.142 18.090,43.887 18.043 C 44.721 17.990,45.392 18.363,45.785 19.099 L 45.977 19.457 46.004 25.783 C 46.054 37.627,45.825 39.792,43.807 46.591 C 43.261 48.432,42.813 49.954,42.813 49.973 C 42.813 49.991,38.174 50.007,32.503 50.007 L 22.192 50.007 14.298 41.597 C 9.956 36.971,6.332 33.062,6.243 32.908 C 5.408 31.458,6.852 29.637,8.494 30.072 C 8.708 30.128,10.663 30.873,12.838 31.727 C 15.013 32.581,16.915 33.280,17.064 33.280 C 17.253 33.280,17.435 33.189,17.660 32.983 L 17.983 32.687 18.027 22.042 L 18.070 11.397 18.264 11.033 C 18.612 10.383,19.220 10.039,20.028 10.037 C 20.887 10.035,21.712 10.667,21.918 11.483 C 21.984 11.746,22.013 14.228,22.013 19.543 C 22.013 27.972,21.989 27.582,22.530 27.862 C 22.722 27.961,23.084 27.993,24.007 27.993 C 25.319 27.993,25.629 27.916,25.846 27.537 C 25.933 27.384,25.966 25.250,26.000 17.377 L 26.043 7.410 26.282 7.004 C 26.554 6.541,26.896 6.269,27.416 6.100 C 27.800 5.976,28.501 6.010,28.810 6.169 " fill="#2B2C30" stroke="none" fill-rule="evenodd"></path></svg>