<svg width="56" height="56" viewBox="0 0 56 56" fill="none" xmlns="http://www.w3.org/2000/svg"><path d="M16.613 0.068 C 16.485 0.092,14.007 0.606,11.107 1.211 C 7.528 1.958,5.593 2.404,5.084 2.601 C 3.076 3.378,1.275 5.193,0.523 7.198 C -0.061 8.754,-0.123 10.337,0.278 13.487 C 0.962 18.855,2.383 23.593,4.756 28.420 C 7.841 34.693,12.251 40.246,17.863 44.920 C 21.805 48.204,26.308 50.907,30.847 52.716 C 35.714 54.656,41.665 55.950,45.687 55.943 C 47.044 55.940,47.256 55.917,48.020 55.684 C 50.658 54.879,52.698 52.888,53.472 50.361 C 53.644 49.801,55.524 39.833,55.680 38.653 C 55.859 37.305,54.987 35.602,53.745 34.874 C 53.094 34.492,39.740 29.867,39.289 29.867 C 38.849 29.867,38.314 30.072,37.999 30.361 C 37.875 30.474,36.779 31.890,35.561 33.507 C 34.344 35.124,33.266 36.519,33.167 36.606 C 32.653 37.061,31.774 37.173,31.104 36.870 C 30.499 36.595,28.650 35.310,27.300 34.226 C 24.476 31.959,21.907 29.155,19.890 26.137 C 19.089 24.939,18.894 24.446,18.988 23.856 C 19.118 23.046,19.300 22.869,22.427 20.508 C 24.818 18.703,25.441 18.187,25.639 17.849 C 26.111 17.044,26.138 17.146,23.428 9.380 C 22.085 5.530,20.878 2.194,20.746 1.966 C 19.955 0.605,18.167 -0.216,16.613 0.068 M17.564 10.918 C 18.430 13.401,19.104 15.457,19.061 15.486 C 17.946 16.262,15.457 18.266,15.025 18.737 C 13.522 20.373,12.708 22.835,12.971 24.951 C 13.171 26.556,13.567 27.527,14.746 29.304 C 17.847 33.980,22.021 38.154,26.693 41.254 C 27.335 41.679,28.162 42.168,28.530 42.340 C 30.735 43.369,33.287 43.324,35.513 42.216 C 36.942 41.505,37.662 40.807,39.429 38.417 C 40.136 37.462,40.749 36.680,40.792 36.680 C 40.921 36.680,49.228 39.580,49.298 39.650 C 49.382 39.732,47.836 48.174,47.643 48.689 C 47.452 49.199,46.789 49.809,46.333 49.894 C 45.472 50.056,42.000 49.650,39.527 49.099 C 32.866 47.615,27.067 44.726,21.513 40.126 C 20.309 39.128,16.872 35.691,15.874 34.487 C 14.270 32.550,12.665 30.282,11.549 28.373 C 10.205 26.074,8.708 22.720,7.895 20.183 C 6.887 17.038,6.151 13.027,6.125 10.541 C 6.114 9.412,6.123 9.355,6.368 8.983 C 6.826 8.288,7.039 8.218,11.620 7.253 C 13.930 6.766,15.858 6.376,15.905 6.386 C 15.951 6.395,16.698 8.435,17.564 10.918 " fill="#2B2C30" stroke="none" fill-rule="evenodd"></path></svg>