<svg width="56" height="56" viewBox="0 0 56 56" fill="none" xmlns="http://www.w3.org/2000/svg"><path d="M16.462 0.178 C 16.302 0.276,16.124 0.492,16.066 0.658 C 15.990 0.874,15.960 3.136,15.960 8.507 L 15.960 16.053 8.301 16.053 C 3.226 16.053,0.580 16.086,0.461 16.149 C 0.047 16.371,0.000 16.660,0.000 18.993 C 0.000 20.810,0.026 21.245,0.146 21.479 C 0.437 22.042,0.209 22.027,8.444 22.027 L 15.960 22.027 15.960 28.000 L 15.960 33.973 8.444 33.973 C 0.209 33.973,0.437 33.958,0.146 34.521 C -0.070 34.939,-0.070 39.075,0.146 39.492 C 0.437 40.055,0.209 40.040,8.444 40.040 L 15.960 40.040 15.960 47.556 C 15.960 55.791,15.945 55.563,16.508 55.854 C 16.925 56.070,21.061 56.070,21.479 55.854 C 22.042 55.563,22.027 55.791,22.027 47.556 L 22.027 40.040 28.000 40.040 L 33.973 40.040 33.973 47.556 C 33.973 55.791,33.958 55.563,34.521 55.854 C 34.939 56.070,39.075 56.070,39.492 55.854 C 40.055 55.563,40.040 55.791,40.040 47.556 L 40.040 40.040 47.556 40.040 C 55.791 40.040,55.563 40.055,55.854 39.492 C 56.070 39.075,56.070 34.939,55.854 34.521 C 55.563 33.958,55.791 33.973,47.556 33.973 L 40.040 33.973 40.040 28.000 L 40.040 22.027 47.556 22.027 C 55.791 22.027,55.563 22.042,55.854 21.479 C 55.974 21.245,56.000 20.810,56.000 18.993 C 56.000 16.660,55.953 16.371,55.539 16.149 C 55.420 16.086,52.774 16.053,47.699 16.053 L 40.040 16.053 40.040 8.490 C 40.040 0.205,40.055 0.437,39.492 0.146 C 39.075 -0.070,34.939 -0.070,34.521 0.146 C 33.958 0.437,33.973 0.205,33.973 8.490 L 33.973 16.053 28.000 16.053 L 22.027 16.053 22.027 8.490 C 22.027 0.205,22.042 0.437,21.479 0.146 C 21.245 0.025,20.809 0.000,18.975 0.000 C 16.956 0.001,16.727 0.017,16.462 0.178 M33.973 28.000 L 33.973 33.973 28.000 33.973 L 22.027 33.973 22.027 28.000 L 22.027 22.027 28.000 22.027 L 33.973 22.027 33.973 28.000 " fill="#2B2C30" stroke="none" fill-rule="evenodd"></path></svg>