<svg width="41" height="48" viewBox="0 0 41 48" fill="none" xmlns="http://www.w3.org/2000/svg"><path d="M14.828 0.043 C 11.557 0.309,8.420 1.556,5.908 3.590 C 5.098 4.246,3.847 5.540,3.232 6.361 C 1.956 8.062,1.027 9.985,0.512 11.992 C 0.121 13.517,0.056 14.100,0.019 16.463 C -0.069 21.921,0.594 25.952,2.081 29.007 C 2.906 30.702,3.635 31.646,5.617 33.586 C 6.867 34.810,7.310 35.351,7.628 36.046 C 7.987 36.831,7.993 36.926,7.994 42.657 L 7.995 47.970 18.006 47.970 L 28.017 47.970 28.017 43.980 L 28.017 39.990 29.537 39.957 C 31.189 39.922,31.559 39.857,32.490 39.434 C 33.896 38.797,35.138 37.449,35.642 36.012 C 35.982 35.043,36.007 34.722,36.009 31.252 L 36.012 28.029 37.600 28.006 C 39.162 27.982,39.196 27.979,39.565 27.798 C 40.188 27.494,40.511 27.120,40.692 26.493 C 40.903 25.763,40.929 25.829,38.371 20.707 L 36.032 16.024 35.984 15.204 C 35.745 11.078,34.036 7.324,31.116 4.510 C 28.664 2.146,25.730 0.707,22.242 0.158 C 21.706 0.073,20.871 0.047,18.348 0.034 C 16.581 0.025,14.997 0.029,14.828 0.043 M22.051 6.205 C 24.026 6.658,25.668 7.559,27.061 8.951 C 28.180 10.070,28.986 11.372,29.487 12.871 C 29.829 13.895,29.940 14.622,29.980 16.117 L 30.016 17.439 31.613 20.677 C 32.491 22.457,33.210 23.928,33.210 23.945 C 33.210 23.963,32.633 23.986,31.929 23.998 C 30.703 24.018,30.638 24.026,30.418 24.183 C 29.986 24.491,29.998 24.343,29.998 29.381 L 29.998 33.962 25.024 33.962 L 20.050 33.962 20.472 34.394 C 21.544 35.493,22.001 37.368,22.003 40.675 L 22.003 41.957 18.012 41.957 L 14.021 41.957 13.990 39.206 C 13.961 36.698,13.945 36.396,13.808 35.773 C 13.505 34.391,13.027 33.245,12.263 32.071 C 11.752 31.285,11.175 30.635,9.667 29.144 C 8.944 28.430,8.225 27.654,8.070 27.420 C 6.594 25.200,5.943 21.731,6.032 16.563 C 6.060 14.932,6.090 14.482,6.202 13.974 C 7.020 10.285,9.683 7.414,13.237 6.391 C 14.438 6.046,14.809 6.020,18.245 6.041 C 21.193 6.059,21.468 6.071,22.051 6.205 M15.546 10.020 C 15.071 10.067,14.302 10.252,13.861 10.425 C 12.029 11.143,10.543 12.938,10.187 14.863 C 10.085 15.419,10.097 16.687,10.210 17.222 C 10.686 19.467,12.408 21.239,14.677 21.817 C 15.245 21.962,15.404 21.969,18.074 21.969 C 20.745 21.969,20.904 21.962,21.471 21.817 C 23.740 21.238,25.461 19.461,25.935 17.206 C 26.063 16.599,26.063 15.381,25.935 14.774 C 25.613 13.240,24.696 11.896,23.365 11.006 C 22.742 10.589,22.315 10.401,21.457 10.165 C 20.987 10.036,20.730 10.023,18.382 10.008 C 16.972 10.000,15.696 10.005,15.546 10.020 " fill="#2B2C30" stroke="none" fill-rule="evenodd"></path></svg>