<svg width="57" height="48" viewBox="0 0 57 48" fill="none" xmlns="http://www.w3.org/2000/svg"><path d="M14.297 0.104 C 8.121 0.748,2.810 5.019,0.853 10.916 C 0.120 13.125,-0.047 14.572,0.032 18.050 C 0.166 23.970,1.060 27.710,3.056 30.694 C 3.467 31.308,4.202 32.147,5.418 33.391 C 7.973 36.003,7.980 36.021,7.980 39.237 C 7.980 40.420,8.008 42.871,8.043 44.682 L 8.106 47.975 18.065 47.975 L 28.025 47.975 28.025 43.998 L 28.025 40.022 29.521 39.967 C 30.404 39.934,31.232 39.852,31.540 39.766 C 33.526 39.212,35.118 37.656,35.776 35.625 C 35.923 35.171,35.950 34.632,35.982 31.516 L 36.019 27.930 37.711 27.930 L 39.404 27.930 39.859 27.621 C 40.396 27.257,40.678 26.762,40.735 26.085 C 40.774 25.613,40.717 25.485,38.404 20.852 L 36.033 16.102 35.968 15.152 C 35.615 9.991,33.066 5.509,28.898 2.724 C 26.691 1.250,24.244 0.372,21.579 0.100 C 20.443 -0.015,15.421 -0.013,14.297 0.104 M22.440 6.295 C 24.168 6.758,25.557 7.532,26.827 8.740 C 27.824 9.688,28.420 10.489,28.984 11.640 C 29.676 13.053,29.930 14.152,29.994 16.008 L 30.046 17.527 31.648 20.733 C 32.529 22.496,33.250 23.961,33.250 23.987 C 33.250 24.013,32.654 24.035,31.925 24.035 C 30.662 24.035,30.588 24.046,30.334 24.264 L 30.067 24.493 30.041 29.252 L 30.015 34.010 25.058 34.010 L 20.100 34.010 20.496 34.414 C 21.457 35.395,21.918 37.117,22.010 40.066 L 22.069 41.990 18.017 41.990 L 13.965 41.990 13.965 39.449 C 13.964 35.956,13.772 34.892,12.811 33.044 C 12.183 31.838,11.446 30.919,9.753 29.236 C 8.016 27.509,7.616 26.939,7.072 25.417 C 6.321 23.317,6.038 21.088,6.039 17.290 C 6.039 14.540,6.044 14.470,6.297 13.537 C 7.357 9.628,10.353 6.875,14.367 6.123 C 14.884 6.026,15.867 6.000,18.288 6.021 C 21.424 6.047,21.544 6.055,22.440 6.295 M49.518 20.039 C 48.516 20.289,47.869 21.340,48.087 22.364 C 48.181 22.803,48.252 22.910,49.311 24.215 C 50.410 25.569,51.165 27.099,51.647 28.953 C 51.982 30.237,52.065 32.589,51.826 34.016 C 51.436 36.349,50.503 38.301,48.845 40.252 C 48.331 40.857,48.160 41.135,48.084 41.491 C 47.810 42.770,48.726 43.894,50.038 43.888 C 50.679 43.885,51.175 43.626,51.754 42.993 C 53.745 40.813,55.093 38.135,55.706 35.135 C 56.652 30.512,55.383 25.299,52.438 21.707 C 51.714 20.824,51.252 20.359,50.938 20.197 C 50.597 20.020,49.903 19.943,49.518 20.039 M44.354 28.292 L 44.032 28.579 44.006 31.841 C 43.977 35.553,43.991 35.640,44.675 35.897 C 45.417 36.176,46.796 35.596,47.413 34.744 C 47.897 34.076,47.995 33.538,47.959 31.750 C 47.931 30.320,47.906 30.118,47.708 29.717 C 47.229 28.744,46.299 28.109,45.257 28.042 C 44.719 28.007,44.652 28.026,44.354 28.292 " fill="#2B2C30" stroke="none" fill-rule="evenodd"></path></svg>