<svg width="48" height="56" viewBox="0 0 48 56" fill="none" xmlns="http://www.w3.org/2000/svg"><path d="M22.400 0.051 C 18.833 0.317,15.209 1.394,12.287 3.056 C 4.864 7.281,0.298 14.798,0.027 23.240 C -0.262 32.233,4.451 40.548,12.356 44.989 C 13.620 45.699,15.031 46.300,16.827 46.892 C 17.744 47.194,18.658 47.537,18.857 47.654 C 19.388 47.965,20.083 48.642,20.376 49.132 C 20.516 49.367,21.171 50.844,21.831 52.414 C 22.490 53.984,23.085 55.374,23.152 55.504 C 23.280 55.751,23.705 56.000,24.000 56.000 C 24.295 56.000,24.720 55.751,24.848 55.504 C 24.915 55.374,25.504 53.998,26.158 52.445 C 26.811 50.892,27.420 49.476,27.511 49.297 C 27.752 48.824,28.506 48.044,29.028 47.727 C 29.290 47.568,30.189 47.217,31.160 46.895 C 32.084 46.588,33.218 46.169,33.680 45.965 C 42.643 41.991,48.287 33.017,47.973 23.240 C 47.764 16.711,44.913 10.538,40.123 6.242 C 36.344 2.853,32.024 0.864,27.000 0.199 C 26.063 0.075,23.280 -0.015,22.400 0.051 M26.640 6.202 C 28.539 6.489,30.131 6.988,31.888 7.845 C 37.255 10.466,40.895 15.452,41.812 21.440 C 42.007 22.708,42.007 25.292,41.812 26.560 C 41.013 31.783,38.159 36.234,33.760 39.119 C 32.142 40.181,29.748 41.177,27.816 41.594 C 19.721 43.337,11.444 39.313,7.839 31.880 C 6.560 29.242,6.047 26.987,6.047 24.000 C 6.047 21.013,6.560 18.758,7.839 16.120 C 9.589 12.512,12.494 9.606,16.120 7.835 C 18.181 6.829,20.052 6.320,22.680 6.048 C 23.324 5.982,25.823 6.079,26.640 6.202 M24.905 9.020 C 22.323 11.580,20.732 14.186,20.180 16.755 C 19.981 17.685,20.002 19.429,20.223 20.247 C 20.571 21.535,21.159 22.561,22.560 24.319 C 23.986 26.110,24.221 26.430,24.688 27.220 C 25.811 29.121,26.142 30.819,26.061 34.258 L 26.020 35.995 26.644 35.432 C 27.343 34.800,28.107 33.972,28.921 32.960 C 31.018 30.357,32.108 27.568,31.970 25.160 C 31.860 23.254,31.273 21.983,29.440 19.681 C 28.014 17.890,27.779 17.570,27.312 16.780 C 26.191 14.882,25.861 13.193,25.937 9.741 C 25.959 8.783,25.966 8.000,25.955 8.000 C 25.943 8.000,25.470 8.459,24.905 9.020 M18.372 20.680 C 16.806 22.512,16.056 24.199,16.045 25.920 C 16.037 27.230,16.264 27.828,17.399 29.480 C 18.738 31.428,18.953 32.073,19.028 34.360 L 19.080 35.960 19.628 35.320 C 21.195 33.488,21.946 31.797,21.955 30.080 C 21.963 28.769,21.735 28.172,20.601 26.520 C 19.262 24.572,19.047 23.927,18.972 21.640 L 18.920 20.040 18.372 20.680 " fill="#2B2C30" stroke="none" fill-rule="evenodd"></path></svg>