<svg width="60" height="60" viewBox="0 0 60 60" fill="none" xmlns="http://www.w3.org/2000/svg"><path d="M27.550 0.110 C 19.501 0.769,11.886 4.763,6.821 10.982 C -0.333 19.767,-1.971 31.518,2.501 41.965 C 3.147 43.473,3.992 45.011,5.058 46.618 C 12.500 57.836,26.598 62.702,39.400 58.470 C 49.033 55.285,56.454 47.389,59.010 37.603 C 61.177 29.306,59.710 20.568,54.942 13.382 C 48.934 4.325,38.401 -0.778,27.550 0.110 M33.550 6.245 C 42.327 7.620,49.516 13.523,52.586 21.875 C 53.052 23.143,53.525 25.014,53.769 26.550 C 54.014 28.100,54.012 31.904,53.765 33.473 C 52.608 40.825,48.378 47.054,42.021 50.765 C 33.841 55.540,23.363 54.971,15.800 49.340 C 10.571 45.447,7.268 39.962,6.230 33.450 C 5.984 31.906,5.984 28.094,6.230 26.550 C 7.266 20.048,10.573 14.550,15.779 10.676 C 19.158 8.160,23.166 6.607,27.576 6.102 C 28.705 5.973,32.372 6.061,33.550 6.245 M28.133 13.648 C 23.844 14.426,20.472 17.796,19.651 22.125 C 19.456 23.155,19.457 24.353,19.654 24.912 C 19.834 25.422,20.391 26.035,20.925 26.310 C 22.527 27.137,24.591 25.868,24.601 24.050 C 24.619 20.779,27.586 18.198,30.775 18.682 C 32.211 18.900,33.691 19.813,34.443 20.946 C 35.902 23.145,35.647 25.940,33.817 27.793 C 33.080 28.539,32.678 28.761,30.156 29.812 C 28.513 30.497,28.050 30.828,27.687 31.577 C 27.419 32.131,27.389 33.063,27.622 33.607 C 27.836 34.108,28.358 34.673,28.841 34.928 C 29.151 35.093,29.420 35.144,29.950 35.142 C 30.682 35.138,31.257 34.941,34.020 33.745 C 38.325 31.882,40.853 27.717,40.484 23.098 C 40.109 18.405,36.496 14.467,31.812 13.647 C 30.801 13.470,29.113 13.470,28.133 13.648 M29.032 39.179 C 28.292 39.444,27.666 39.995,27.332 40.676 C 27.098 41.153,27.050 41.377,27.052 42.000 C 27.055 43.235,27.611 44.145,28.682 44.671 C 29.152 44.902,29.379 44.950,30.000 44.948 C 30.910 44.945,31.488 44.712,32.100 44.100 C 32.714 43.486,32.946 42.910,32.946 42.000 C 32.946 41.090,32.714 40.514,32.100 39.900 C 31.299 39.099,30.067 38.810,29.032 39.179 " fill="#2B2C30" stroke="none" fill-rule="evenodd"></path></svg>