<svg width="60" height="60" viewBox="0 0 60 60" fill="none" xmlns="http://www.w3.org/2000/svg"><path d="M27.550 0.110 C 23.493 0.442,19.206 1.714,15.750 3.613 C 6.688 8.589,0.919 17.485,0.103 27.740 C 0.038 28.546,0.000 34.829,0.000 44.515 L 0.000 60.000 15.485 60.000 C 31.342 60.000,32.412 59.978,34.773 59.598 C 46.467 57.717,56.020 49.048,59.010 37.603 C 61.177 29.306,59.710 20.568,54.942 13.382 C 48.934 4.325,38.401 -0.778,27.550 0.110 M33.550 6.245 C 43.184 7.755,50.997 14.862,53.288 24.200 C 53.830 26.411,53.943 27.410,53.942 30.000 C 53.942 32.642,53.820 33.685,53.248 35.937 C 51.031 44.662,43.985 51.493,35.200 53.436 C 32.686 53.992,32.446 54.000,18.672 54.000 L 5.993 54.000 6.027 40.725 C 6.064 26.075,6.025 27.005,6.713 24.200 C 8.024 18.851,11.238 14.055,15.779 10.676 C 19.158 8.160,23.166 6.607,27.576 6.102 C 28.705 5.973,32.372 6.061,33.550 6.245 M28.133 13.648 C 23.844 14.426,20.472 17.796,19.651 22.125 C 19.456 23.155,19.457 24.353,19.654 24.912 C 19.834 25.422,20.391 26.035,20.925 26.310 C 22.527 27.137,24.591 25.868,24.601 24.050 C 24.619 20.779,27.586 18.198,30.775 18.682 C 32.211 18.900,33.691 19.813,34.443 20.946 C 35.902 23.145,35.647 25.940,33.817 27.793 C 33.080 28.539,32.678 28.761,30.156 29.812 C 28.513 30.497,28.050 30.828,27.687 31.577 C 27.419 32.131,27.389 33.063,27.622 33.607 C 27.836 34.108,28.358 34.673,28.841 34.928 C 29.151 35.093,29.420 35.144,29.950 35.142 C 30.682 35.138,31.257 34.941,34.020 33.745 C 38.325 31.882,40.853 27.717,40.484 23.098 C 40.109 18.405,36.496 14.467,31.812 13.647 C 30.801 13.470,29.113 13.470,28.133 13.648 M29.032 39.179 C 28.292 39.444,27.666 39.995,27.332 40.676 C 27.098 41.153,27.050 41.377,27.052 42.000 C 27.055 43.235,27.611 44.145,28.682 44.671 C 29.152 44.902,29.379 44.950,30.000 44.948 C 30.910 44.945,31.488 44.712,32.100 44.100 C 32.714 43.486,32.946 42.910,32.946 42.000 C 32.946 41.090,32.714 40.514,32.100 39.900 C 31.299 39.099,30.067 38.810,29.032 39.179 " fill="#2B2C30" stroke="none" fill-rule="evenodd"></path></svg>