<svg width="63" height="56" viewBox="0 0 63 56" fill="none" xmlns="http://www.w3.org/2000/svg"><path d="M16.688 0.143 C 16.049 0.316,15.371 0.724,14.857 1.244 C 14.571 1.534,12.247 5.498,7.540 13.723 C 3.746 20.353,0.509 26.061,0.347 26.407 C 0.093 26.951,0.052 27.167,0.052 27.982 C 0.052 28.798,0.093 29.014,0.347 29.557 C 0.509 29.904,3.745 35.613,7.539 42.245 C 12.691 51.249,14.557 54.423,14.910 54.783 C 15.170 55.048,15.689 55.410,16.065 55.588 L 16.747 55.913 31.397 55.913 L 46.047 55.913 46.727 55.577 C 47.101 55.392,47.629 55.014,47.900 54.737 C 48.278 54.350,49.998 51.424,55.293 42.157 C 59.088 35.516,62.315 29.823,62.464 29.505 C 62.837 28.709,62.850 27.300,62.493 26.512 C 62.362 26.224,59.127 20.516,55.304 13.828 C 50.020 4.584,48.239 1.555,47.881 1.196 C 47.622 0.936,47.103 0.572,46.728 0.388 L 46.047 0.052 31.607 0.032 C 20.386 0.017,17.061 0.041,16.688 0.143 M50.061 16.747 C 53.429 22.638,56.250 27.577,56.329 27.723 C 56.466 27.978,56.205 28.456,50.203 38.958 L 43.935 49.927 31.395 49.927 L 18.855 49.927 12.586 38.957 C 9.138 32.924,6.331 27.962,6.348 27.932 C 8.186 24.700,18.653 6.383,18.756 6.221 L 18.905 5.984 31.420 6.011 L 43.935 6.037 50.061 16.747 " fill="#2B2C30" stroke="none" fill-rule="evenodd"></path></svg>