<svg width="56" height="56" viewBox="0 0 56 56" fill="none" xmlns="http://www.w3.org/2000/svg"><path d="M27.580 0.107 C 27.477 0.163,21.251 6.346,13.743 13.847 C -0.822 28.401,-0.178 27.717,0.088 28.360 C 0.248 28.747,3.258 31.705,3.570 31.783 C 4.090 31.913,4.308 31.754,6.183 29.886 L 8.027 28.048 8.027 41.553 C 8.027 51.825,8.053 55.116,8.138 55.303 C 8.386 55.847,7.074 55.813,28.000 55.813 C 48.926 55.813,47.614 55.847,47.862 55.303 C 47.947 55.116,47.973 51.825,47.973 41.553 L 47.973 28.048 49.841 29.914 L 51.708 31.780 52.176 31.780 L 52.644 31.780 54.269 30.147 C 55.917 28.489,56.082 28.255,55.958 27.743 C 55.916 27.567,51.627 23.214,42.298 13.877 C 34.819 6.392,28.587 0.208,28.448 0.134 C 28.151 -0.024,27.839 -0.034,27.580 0.107 M35.023 15.096 L 42.000 22.073 42.000 35.956 L 42.000 49.840 37.008 49.840 L 32.017 49.840 31.992 43.112 L 31.967 36.385 31.662 36.112 L 31.357 35.840 28.000 35.840 L 24.643 35.840 24.338 36.112 L 24.033 36.385 24.008 43.112 L 23.983 49.840 18.992 49.840 L 14.000 49.840 14.000 35.957 L 14.000 22.074 20.976 15.097 C 24.813 11.260,27.974 8.120,28.000 8.120 C 28.025 8.120,31.186 11.259,35.023 15.096 " fill="#2B2C30" stroke="none" fill-rule="evenodd"></path></svg>