<svg width="57" height="56" viewBox="0 0 57 56" fill="none" xmlns="http://www.w3.org/2000/svg"><path d="M0.618 0.090 C 0.513 0.133,0.342 0.263,0.237 0.379 C 0.049 0.588,0.047 0.741,0.024 17.894 C 0.000 34.901,0.003 35.203,0.185 35.500 C 0.309 35.704,0.489 35.836,0.731 35.904 C 0.974 35.971,4.352 36.004,11.044 36.004 L 20.995 36.005 20.995 38.404 L 20.995 40.803 20.573 41.069 C 20.108 41.362,19.136 42.366,18.976 42.717 L 18.875 42.940 9.437 42.940 L 0.000 42.940 0.000 45.932 L 0.000 48.925 9.382 48.925 L 18.765 48.925 19.207 49.535 C 20.430 51.221,22.736 52.197,24.753 51.883 C 25.428 51.777,26.273 51.549,26.476 51.417 C 26.556 51.364,26.400 50.966,25.932 50.032 C 25.196 48.562,24.627 46.920,24.315 45.362 C 24.054 44.059,23.957 41.251,24.124 39.814 C 24.502 36.565,25.950 33.167,28.054 30.590 L 28.481 30.067 17.257 30.020 L 6.032 29.973 6.008 25.484 L 5.983 20.995 23.987 20.995 L 41.990 20.995 41.990 22.468 C 41.990 23.806,42.005 23.940,42.156 23.941 C 42.670 23.943,44.618 24.152,45.291 24.276 C 45.990 24.405,47.361 24.767,47.809 24.941 C 47.967 25.002,47.975 24.387,47.975 12.826 L 47.975 0.646 47.652 0.323 L 47.329 0.000 24.068 0.006 C 11.275 0.009,0.722 0.047,0.618 0.090 M41.990 10.498 L 41.990 15.010 23.988 15.010 L 5.985 15.010 5.985 10.498 L 5.985 5.985 23.988 5.985 L 41.990 5.985 41.990 10.498 M7.980 9.975 L 7.980 11.970 9.975 11.970 L 11.970 11.970 11.970 9.975 L 11.970 7.980 9.975 7.980 L 7.980 7.980 7.980 9.975 M16.055 9.975 L 16.055 11.970 28.025 11.970 L 39.995 11.970 39.995 9.975 L 39.995 7.980 28.025 7.980 L 16.055 7.980 16.055 9.975 M7.980 25.983 L 7.980 27.930 9.975 27.930 L 11.970 27.930 11.970 25.983 L 11.970 24.035 9.975 24.035 L 7.980 24.035 7.980 25.983 M16.055 25.983 L 16.055 27.930 23.379 27.930 L 30.703 27.930 31.478 27.376 C 33.857 25.676,36.646 24.547,39.473 24.140 C 39.813 24.091,35.206 24.053,28.049 24.047 L 16.055 24.035 16.055 25.983 M40.144 28.174 C 40.020 28.299,39.995 28.604,39.995 30.019 C 39.995 31.695,39.992 31.719,39.755 32.001 C 39.593 32.193,39.306 32.355,38.876 32.497 C 38.525 32.612,37.950 32.850,37.599 33.026 C 36.523 33.563,36.477 33.547,35.004 32.110 C 34.144 31.271,33.670 30.875,33.525 30.875 C 33.380 30.875,32.935 31.249,32.129 32.048 C 31.190 32.979,30.946 33.274,30.946 33.480 C 30.946 33.685,31.198 33.995,32.132 34.944 C 32.861 35.684,33.343 36.251,33.382 36.415 C 33.432 36.619,33.348 36.901,33.028 37.603 C 32.798 38.109,32.539 38.741,32.452 39.008 C 32.365 39.274,32.185 39.595,32.052 39.720 C 31.817 39.941,31.757 39.948,30.039 39.977 C 28.978 39.995,28.219 40.048,28.146 40.108 C 28.056 40.183,28.025 40.654,28.025 41.949 C 28.025 43.640,28.031 43.693,28.236 43.837 C 28.408 43.957,28.760 43.985,30.123 43.985 C 32.126 43.985,32.165 44.002,32.496 45.007 C 32.613 45.359,32.874 46.009,33.077 46.451 C 33.358 47.064,33.431 47.322,33.384 47.538 C 33.343 47.727,32.915 48.239,32.098 49.076 C 31.426 49.766,30.875 50.384,30.875 50.451 C 30.875 50.517,31.418 51.120,32.082 51.791 C 33.004 52.723,33.346 53.010,33.532 53.010 C 33.717 53.010,34.050 52.735,34.914 51.868 C 36.408 50.370,36.441 50.361,37.905 51.044 C 38.297 51.226,38.801 51.430,39.026 51.497 C 39.268 51.568,39.548 51.748,39.715 51.937 L 39.995 52.257 39.995 53.949 C 39.995 55.467,40.013 55.657,40.169 55.798 C 40.421 56.026,43.608 56.033,43.836 55.806 C 43.960 55.681,43.985 55.379,43.985 53.996 C 43.985 51.853,44.017 51.787,45.267 51.393 C 45.477 51.327,46.011 51.105,46.455 50.900 C 47.052 50.625,47.336 50.542,47.545 50.583 C 47.740 50.622,48.197 51.005,49.026 51.824 C 50.000 52.788,50.275 53.010,50.496 53.010 C 50.719 53.010,50.986 52.793,51.937 51.842 C 52.766 51.014,53.105 50.610,53.105 50.452 C 53.105 50.295,52.743 49.861,51.870 48.973 C 50.432 47.509,50.415 47.461,50.954 46.381 C 51.130 46.030,51.368 45.455,51.483 45.104 C 51.625 44.674,51.787 44.387,51.979 44.225 C 52.261 43.988,52.285 43.985,53.961 43.985 C 55.376 43.985,55.681 43.960,55.806 43.836 C 55.931 43.711,55.955 43.402,55.955 41.955 C 55.955 40.734,55.921 40.189,55.841 40.109 C 55.761 40.029,55.228 39.995,54.050 39.995 C 51.952 39.995,51.877 39.961,51.478 38.823 C 51.334 38.413,51.086 37.807,50.926 37.475 C 50.418 36.422,50.441 36.359,51.870 34.916 C 52.568 34.212,53.105 33.592,53.105 33.491 C 53.105 33.248,50.746 30.875,50.504 30.875 C 50.391 30.875,49.816 31.368,49.060 32.110 C 47.596 33.550,47.567 33.560,46.429 33.020 C 46.051 32.841,45.457 32.600,45.107 32.486 C 44.045 32.137,44.038 32.121,44.003 30.039 C 43.985 28.978,43.932 28.219,43.872 28.146 C 43.797 28.056,43.326 28.025,42.033 28.025 C 40.578 28.025,40.269 28.049,40.144 28.174 M43.712 38.360 C 44.528 38.753,45.395 39.658,45.707 40.440 C 45.886 40.892,45.927 41.174,45.929 41.990 C 45.932 42.914,45.911 43.033,45.637 43.605 C 44.289 46.421,40.549 46.793,38.755 44.288 C 37.214 42.135,38.136 39.190,40.660 38.204 C 41.095 38.033,41.341 38.004,42.133 38.028 C 42.974 38.053,43.154 38.091,43.712 38.360 " fill="#2B2C30" stroke="none" fill-rule="evenodd"></path></svg>