<svg width="56" height="56" viewBox="0 0 56 56" fill="none" xmlns="http://www.w3.org/2000/svg"><path d="M0.607 0.088 C 0.504 0.130,0.336 0.258,0.233 0.372 C 0.048 0.578,0.046 0.728,0.023 17.906 C 0.000 34.939,0.003 35.238,0.182 35.531 C 0.304 35.731,0.480 35.861,0.718 35.927 C 0.957 35.993,4.331 36.026,11.037 36.026 L 21.000 36.027 21.000 38.430 L 21.000 40.833 20.595 41.089 C 20.131 41.382,19.252 42.277,18.991 42.723 L 18.813 43.027 9.407 43.027 L 0.000 43.027 0.000 46.013 L 0.000 49.000 9.411 49.000 L 18.822 49.000 19.121 49.462 C 19.822 50.544,21.381 51.566,22.773 51.858 C 23.654 52.043,24.917 51.982,25.760 51.714 C 26.094 51.608,26.417 51.488,26.477 51.449 C 26.556 51.397,26.392 50.984,25.911 50.023 C 23.723 45.655,23.402 40.855,24.979 36.120 C 25.530 34.468,26.908 31.996,28.024 30.660 L 28.492 30.100 17.256 30.053 L 6.020 30.007 5.996 25.503 L 5.972 21.000 23.986 21.000 L 42.000 21.000 42.000 22.473 L 42.000 23.947 43.377 24.061 C 44.754 24.175,46.294 24.462,47.390 24.809 L 47.973 24.994 47.973 12.825 L 47.973 0.656 47.701 0.351 L 47.429 0.047 24.111 0.029 C 11.286 0.019,0.709 0.046,0.607 0.088 M42.000 10.500 L 42.000 15.027 23.987 15.027 L 5.973 15.027 5.973 10.500 L 5.973 5.973 23.987 5.973 L 42.000 5.973 42.000 10.500 M8.027 10.035 L 8.027 12.044 10.010 12.019 L 11.993 11.993 12.019 10.010 L 12.044 8.027 10.035 8.027 L 8.027 8.027 8.027 10.035 M16.053 9.987 L 16.053 11.947 28.000 11.947 L 39.947 11.947 39.947 9.987 L 39.947 8.027 28.000 8.027 L 16.053 8.027 16.053 9.987 M8.027 25.993 L 8.027 28.000 9.987 28.000 L 11.947 28.000 11.947 25.993 L 11.947 23.987 9.987 23.987 L 8.027 23.987 8.027 25.993 M16.053 25.993 L 16.053 28.000 23.357 28.000 L 30.661 28.000 31.350 27.488 C 33.376 25.983,36.074 24.802,38.503 24.356 C 39.117 24.244,39.704 24.117,39.807 24.075 C 39.909 24.034,34.607 23.996,28.023 23.993 L 16.053 23.987 16.053 25.993 M40.367 28.107 C 38.278 28.338,36.035 29.169,34.207 30.391 C 29.989 33.209,27.609 38.193,28.080 43.222 C 28.641 49.206,32.729 54.031,38.514 55.535 C 42.955 56.689,47.790 55.539,51.223 52.510 C 54.576 49.552,56.331 45.168,55.920 40.778 C 55.180 32.873,48.259 27.235,40.367 28.107 M50.475 35.692 C 50.824 35.874,52.319 37.425,52.403 37.691 C 52.587 38.279,52.629 38.231,46.387 44.473 L 40.413 50.447 39.993 50.447 L 39.574 50.447 35.910 46.783 L 32.247 43.120 32.247 42.697 C 32.247 42.283,32.268 42.252,33.235 41.297 C 34.187 40.357,34.239 40.320,34.631 40.320 L 35.039 40.320 37.494 42.769 L 39.949 45.217 44.638 40.533 C 47.217 37.956,49.453 35.784,49.607 35.705 C 49.955 35.526,50.152 35.523,50.475 35.692 " fill="#2B2C30" stroke="none" fill-rule="evenodd"></path></svg>