<svg width="55" height="54" viewBox="0 0 55 54" fill="none" xmlns="http://www.w3.org/2000/svg"><path d="M0.528 0.143 C -0.038 0.451,-0.000 -0.825,0.000 18.004 C 0.000 30.797,0.027 35.251,0.106 35.424 C 0.164 35.551,0.319 35.729,0.450 35.817 C 0.673 35.969,1.315 35.981,10.840 36.004 L 20.992 36.028 20.989 38.433 L 20.987 40.837 20.613 41.067 C 20.187 41.328,19.106 42.438,18.955 42.770 L 18.854 42.992 9.427 42.992 L 0.000 42.992 0.000 45.971 L 0.000 48.950 9.385 48.950 L 18.769 48.950 19.233 49.586 C 20.389 51.170,22.337 52.072,24.330 51.948 C 25.071 51.902,26.157 51.646,26.467 51.444 C 26.550 51.390,26.413 51.041,25.957 50.137 C 24.717 47.681,24.132 45.377,24.045 42.612 C 23.986 40.721,24.072 39.729,24.443 38.052 C 25.025 35.416,26.371 32.638,28.034 30.644 C 28.295 30.331,28.508 30.052,28.508 30.025 C 28.508 29.997,23.435 29.975,17.233 29.975 L 5.958 29.975 5.958 25.483 L 5.958 20.992 23.969 20.992 L 41.979 20.992 42.004 22.481 L 42.029 23.971 43.037 24.030 C 44.620 24.122,46.047 24.388,47.600 24.879 L 48.037 25.017 48.012 12.852 C 47.989 1.404,47.978 0.673,47.826 0.450 C 47.737 0.319,47.560 0.164,47.432 0.106 C 47.258 0.027,41.341 0.001,23.989 0.004 C 3.639 0.007,0.748 0.024,0.528 0.143 M41.983 10.496 L 41.983 15.034 23.994 15.011 L 6.004 14.987 5.980 10.587 C 5.967 8.167,5.976 6.136,6.000 6.073 C 6.035 5.982,9.723 5.958,24.014 5.958 L 41.983 5.958 41.983 10.496 M7.975 9.992 L 7.975 12.008 9.992 12.008 L 12.008 12.008 12.008 9.992 L 12.008 7.975 9.992 7.975 L 7.975 7.975 7.975 9.992 M16.042 9.992 L 16.042 12.008 28.004 12.008 L 39.967 12.008 39.967 9.992 L 39.967 7.975 28.004 7.975 L 16.042 7.975 16.042 9.992 M7.975 25.987 L 7.975 27.958 9.992 27.958 L 12.008 27.958 12.008 25.987 L 12.008 24.017 9.992 24.017 L 7.975 24.017 7.975 25.987 M16.042 25.987 L 16.042 27.958 23.376 27.958 L 30.710 27.958 31.374 27.470 C 33.388 25.987,35.698 24.948,38.105 24.440 C 38.700 24.314,39.373 24.173,39.600 24.125 C 39.868 24.069,35.801 24.035,28.027 24.028 L 16.042 24.017 16.042 25.987 M46.710 29.067 C 43.854 29.452,41.383 31.653,40.656 34.459 C 40.350 35.641,40.389 37.396,40.743 38.399 L 40.866 38.748 35.700 43.913 C 29.844 49.768,30.043 49.523,30.043 50.891 C 30.043 51.512,30.082 51.690,30.330 52.195 C 30.668 52.882,31.173 53.370,31.889 53.702 C 32.311 53.897,32.537 53.940,33.137 53.938 C 34.503 53.934,34.212 54.170,40.074 48.326 L 45.269 43.147 45.849 43.313 C 47.160 43.687,49.126 43.569,50.435 43.037 C 53.515 41.786,55.377 38.545,54.909 35.248 C 54.783 34.362,54.551 33.975,54.201 34.067 C 54.103 34.092,53.036 35.100,51.831 36.307 C 49.950 38.189,49.600 38.500,49.366 38.500 C 49.133 38.500,48.825 38.232,47.280 36.687 C 45.919 35.326,45.467 34.819,45.467 34.651 C 45.467 34.483,46.015 33.877,47.712 32.171 C 49.985 29.887,50.128 29.699,49.821 29.392 C 49.534 29.105,47.784 28.922,46.710 29.067 " fill="#2B2C30" stroke="none" fill-rule="evenodd"></path></svg>