<svg width="56" height="56" viewBox="0 0 56 56" fill="none" xmlns="http://www.w3.org/2000/svg"><path d="M0.607 0.088 C 0.504 0.130,0.336 0.258,0.233 0.372 C 0.048 0.578,0.046 0.728,0.023 17.886 C 0.001 33.481,0.013 35.221,0.145 35.477 C 0.442 36.051,-0.031 36.027,10.964 36.027 L 21.000 36.027 21.000 38.430 L 21.000 40.833 20.585 41.095 C 20.136 41.379,19.246 42.293,18.979 42.746 L 18.813 43.027 9.407 43.027 L 0.000 43.027 0.000 46.013 L 0.000 49.000 9.403 49.002 L 18.807 49.005 19.126 49.476 C 19.881 50.588,21.325 51.538,22.738 51.852 C 23.666 52.059,24.993 51.998,25.853 51.709 C 26.187 51.597,26.492 51.475,26.530 51.438 C 26.569 51.401,26.351 50.889,26.046 50.302 C 23.419 45.238,23.320 39.412,25.773 34.255 C 26.349 33.045,27.420 31.350,28.083 30.599 C 28.294 30.360,28.467 30.140,28.467 30.109 C 28.467 30.079,23.416 30.043,17.243 30.030 L 6.020 30.007 5.996 25.503 L 5.972 21.000 23.986 21.000 L 42.000 21.000 42.000 22.475 L 42.000 23.949 43.330 24.061 C 44.735 24.180,45.960 24.402,47.213 24.765 L 47.973 24.985 47.973 12.821 L 47.973 0.656 47.701 0.351 L 47.429 0.047 24.111 0.029 C 11.286 0.019,0.709 0.046,0.607 0.088 M42.000 10.500 L 42.000 15.027 23.987 15.027 L 5.973 15.027 5.973 10.500 L 5.973 5.973 23.987 5.973 L 42.000 5.973 42.000 10.500 M8.027 10.035 L 8.027 12.044 10.010 12.019 L 11.993 11.993 12.019 10.010 L 12.044 8.027 10.035 8.027 L 8.027 8.027 8.027 10.035 M16.053 9.987 L 16.053 11.947 28.047 11.947 L 40.040 11.947 40.040 9.987 L 40.040 8.027 28.047 8.027 L 16.053 8.027 16.053 9.987 M8.027 25.993 L 8.027 28.000 9.987 28.000 L 11.947 28.000 11.947 25.993 L 11.947 23.987 9.987 23.987 L 8.027 23.987 8.027 25.993 M16.053 25.993 L 16.053 28.000 23.367 28.000 L 30.680 28.000 31.094 27.684 C 32.571 26.556,34.675 25.458,36.451 24.889 C 37.494 24.554,39.173 24.173,39.606 24.173 C 39.736 24.173,39.868 24.131,39.900 24.080 C 39.938 24.018,35.950 23.987,28.006 23.987 L 16.053 23.987 16.053 25.993 M41.067 28.056 C 38.451 28.361,36.761 28.878,35.022 29.905 C 28.688 33.648,26.284 41.325,29.368 47.966 C 30.666 50.763,33.204 53.304,36.031 54.636 C 39.935 56.477,44.437 56.424,48.279 54.494 C 54.545 51.346,57.503 44.038,55.196 37.410 C 53.527 32.615,49.368 29.096,44.355 28.239 C 43.507 28.094,41.633 27.990,41.067 28.056 M36.848 34.107 C 36.987 34.181,38.212 35.356,39.572 36.720 L 42.044 39.199 44.662 36.586 L 47.281 33.973 47.687 33.973 C 48.075 33.973,48.134 34.014,49.011 34.875 C 49.999 35.847,50.195 36.187,50.025 36.643 C 49.970 36.792,48.783 38.057,47.387 39.456 L 44.850 41.998 47.386 44.543 C 48.791 45.952,49.969 47.210,50.026 47.363 C 50.084 47.515,50.105 47.746,50.073 47.876 C 50.041 48.007,49.588 48.544,49.066 49.070 C 48.066 50.078,47.749 50.250,47.306 50.025 C 47.186 49.964,45.942 48.774,44.543 47.381 L 42.000 44.848 39.386 47.461 L 36.772 50.073 36.349 50.073 C 35.936 50.073,35.905 50.051,34.950 49.085 C 34.010 48.133,33.973 48.081,33.973 47.689 L 33.973 47.281 36.540 44.708 C 37.952 43.293,39.107 42.094,39.107 42.044 C 39.107 41.993,37.972 40.818,36.584 39.433 C 34.028 36.880,33.858 36.665,33.957 36.120 C 33.982 35.984,34.395 35.489,34.952 34.930 C 35.818 34.061,35.937 33.973,36.251 33.973 C 36.441 33.973,36.709 34.034,36.848 34.107 " fill="#2B2C30" stroke="none" fill-rule="evenodd"></path></svg>