<svg width="48" height="52" viewBox="0 0 48 52" fill="none" xmlns="http://www.w3.org/2000/svg"><path d="M0.504 0.157 C -0.042 0.490,-0.000 -1.015,0.000 18.016 C 0.001 34.958,0.003 35.244,0.157 35.496 C 0.485 36.035,-0.264 36.000,10.916 36.000 L 21.040 36.000 21.040 38.387 L 21.040 40.773 20.610 41.070 C 20.111 41.413,19.327 42.209,19.003 42.700 L 18.779 43.040 9.389 43.040 L 0.000 43.040 0.000 46.000 L 0.000 48.960 9.387 48.960 L 18.773 48.960 19.079 49.403 C 19.592 50.149,20.484 50.916,21.309 51.321 C 22.326 51.820,22.889 51.952,24.000 51.952 C 25.111 51.952,25.674 51.820,26.691 51.321 C 27.516 50.916,28.408 50.149,28.921 49.403 L 29.227 48.960 38.613 48.960 L 48.000 48.960 48.000 46.000 L 48.000 43.040 38.611 43.040 L 29.221 43.040 28.997 42.700 C 28.673 42.209,27.889 41.413,27.390 41.070 L 26.960 40.773 26.960 38.387 L 26.960 36.000 37.100 36.000 C 47.016 35.999,47.246 35.996,47.496 35.843 C 48.042 35.510,48.000 37.014,48.000 18.000 C 48.000 -1.014,48.042 0.490,47.496 0.157 C 47.244 0.003,46.909 0.001,24.000 0.001 C 1.091 0.001,0.756 0.003,0.504 0.157 M42.000 10.520 L 42.000 15.040 24.000 15.040 L 6.000 15.040 6.000 10.520 L 6.000 6.000 24.000 6.000 L 42.000 6.000 42.000 10.520 M8.000 10.000 L 8.000 12.000 10.000 12.000 L 12.000 12.000 12.000 10.000 L 12.000 8.000 10.000 8.000 L 8.000 8.000 8.000 10.000 M16.000 10.000 L 16.000 12.000 28.000 12.000 L 40.000 12.000 40.000 10.000 L 40.000 8.000 28.000 8.000 L 16.000 8.000 16.000 10.000 M42.000 25.480 L 42.000 30.000 24.000 30.000 L 6.000 30.000 6.000 25.480 L 6.000 20.960 24.000 20.960 L 42.000 20.960 42.000 25.480 M8.000 26.000 L 8.000 28.000 10.000 28.000 L 12.000 28.000 12.000 26.000 L 12.000 24.000 10.000 24.000 L 8.000 24.000 8.000 26.000 M16.000 26.000 L 16.000 28.000 28.000 28.000 L 40.000 28.000 40.000 26.000 L 40.000 24.000 28.000 24.000 L 16.000 24.000 16.000 26.000 " fill="#2B2C30" stroke="none" fill-rule="evenodd"></path></svg>