<svg width="40" height="56" viewBox="0 0 40 56" fill="none" xmlns="http://www.w3.org/2000/svg"><path d="M0.507 0.151 C 0.007 0.438,0.000 0.476,0.000 2.989 C 0.000 5.449,0.011 5.523,0.425 5.818 C 0.625 5.961,0.698 5.967,2.317 5.987 L 4.000 6.006 4.000 7.623 C 4.000 11.148,4.424 14.024,5.379 16.967 C 6.321 19.873,7.561 22.243,9.271 24.407 C 10.247 25.642,11.830 27.123,12.992 27.888 L 13.345 28.121 12.933 28.400 C 11.756 29.200,10.244 30.621,9.246 31.867 C 6.869 34.833,5.123 38.957,4.405 43.300 C 4.135 44.931,4.056 45.892,4.019 48.014 L 3.982 50.127 2.307 50.147 C -0.152 50.176,-0.013 49.995,0.014 53.149 C 0.033 55.321,0.036 55.371,0.182 55.575 C 0.264 55.690,0.433 55.832,0.559 55.892 C 0.768 55.991,2.411 56.000,20.000 56.000 C 37.589 56.000,39.232 55.991,39.441 55.892 C 39.567 55.832,39.736 55.690,39.818 55.575 C 39.964 55.371,39.967 55.321,39.986 53.149 C 40.007 50.688,39.997 50.616,39.575 50.315 C 39.375 50.172,39.302 50.166,37.683 50.147 L 36.000 50.127 36.000 48.613 C 35.999 45.352,35.657 42.823,34.831 39.967 C 33.959 36.950,32.492 34.035,30.754 31.867 C 29.756 30.621,28.244 29.200,27.067 28.400 L 26.655 28.121 27.008 27.888 C 28.639 26.815,30.436 24.966,31.739 23.024 C 33.819 19.925,35.228 16.000,35.762 11.819 C 35.928 10.517,35.999 9.251,36.000 7.587 L 36.000 6.006 37.683 5.987 C 40.145 5.957,40.000 6.144,40.000 3.000 C 40.000 0.487,39.994 0.453,39.502 0.164 L 39.222 0.000 19.994 0.001 L 0.767 0.002 0.507 0.151 M29.999 7.350 C 29.997 11.571,29.307 14.856,27.785 17.896 C 26.165 21.130,23.916 23.265,21.410 23.948 C 20.687 24.145,19.313 24.145,18.590 23.948 C 15.692 23.158,13.158 20.438,11.534 16.374 C 10.487 13.755,10.002 10.902,10.001 7.350 L 10.000 6.000 20.000 6.000 L 30.000 6.000 29.999 7.350 M21.500 32.332 C 22.215 32.521,23.255 33.034,23.919 33.527 C 25.511 34.707,26.732 36.258,27.834 38.500 C 29.332 41.546,30.000 44.733,30.000 48.829 L 30.000 50.133 20.000 50.133 L 10.000 50.133 10.000 48.829 C 10.000 44.805,10.661 41.587,12.097 38.623 C 13.847 35.013,16.277 32.750,18.967 32.227 C 19.611 32.102,20.815 32.152,21.500 32.332 " fill="#2B2C30" stroke="none" fill-rule="evenodd"></path></svg>