<svg width="36" height="58" viewBox="0 0 36 58" fill="none" xmlns="http://www.w3.org/2000/svg"><path d="M16.920 0.067 C 13.844 0.415,11.126 2.144,9.474 4.802 C 7.966 7.230,7.605 10.398,8.522 13.160 C 8.851 14.153,9.571 15.471,10.237 16.302 L 10.391 16.494 9.724 16.828 C 4.844 19.276,1.470 23.529,0.369 28.623 C 0.034 30.172,0.039 30.032,0.016 37.410 C 0.000 42.233,0.013 44.365,0.060 44.640 C 0.204 45.485,0.811 46.337,1.544 46.725 C 2.236 47.092,2.312 47.100,4.901 47.100 L 7.260 47.100 7.260 44.130 L 7.260 41.160 6.627 41.160 L 5.994 41.160 6.016 35.925 L 6.037 30.690 6.197 29.963 C 6.285 29.564,6.440 28.997,6.541 28.703 C 6.812 27.916,7.502 26.570,7.965 25.924 C 8.443 25.256,9.493 24.145,10.134 23.627 C 14.286 20.278,20.364 19.981,24.870 22.908 C 25.655 23.418,26.236 23.906,26.976 24.676 C 28.630 26.400,29.606 28.404,29.913 30.712 C 29.980 31.217,29.998 32.370,29.999 36.255 L 30.000 41.160 29.370 41.160 L 28.740 41.160 28.740 44.130 L 28.740 47.100 31.104 47.100 C 33.295 47.100,33.495 47.091,33.849 46.981 C 34.363 46.820,34.738 46.593,35.127 46.208 C 35.508 45.832,35.841 45.199,35.936 44.674 C 36.019 44.210,36.023 31.754,35.940 30.780 C 35.425 24.753,31.884 19.641,26.276 16.828 L 25.609 16.494 25.763 16.302 C 26.142 15.829,26.676 14.976,26.973 14.370 C 27.682 12.920,27.966 11.659,27.965 9.960 C 27.964 7.177,26.885 4.685,24.840 2.741 C 22.735 0.741,19.780 -0.257,16.920 0.067 M19.238 6.205 C 20.197 6.511,21.060 7.244,21.532 8.152 C 21.870 8.803,21.982 9.267,21.983 10.020 C 21.984 11.240,21.496 12.275,20.541 13.080 C 19.439 14.008,17.808 14.256,16.470 13.697 C 15.401 13.250,14.543 12.311,14.181 11.191 C 13.982 10.578,13.957 9.610,14.124 9.000 C 14.367 8.108,15.033 7.169,15.764 6.683 C 16.778 6.011,18.072 5.832,19.238 6.205 M12.108 29.156 C 11.157 29.460,10.421 30.199,10.137 31.138 C 10.020 31.524,10.018 31.708,10.034 42.780 L 10.051 54.030 10.185 54.450 C 10.741 56.185,11.997 57.468,13.528 57.867 C 14.063 58.006,21.937 58.006,22.472 57.867 C 23.723 57.541,24.878 56.550,25.475 55.290 C 25.994 54.194,25.945 55.445,25.965 42.780 C 25.982 31.720,25.980 31.523,25.864 31.140 C 25.479 29.876,24.345 29.039,23.019 29.041 C 22.434 29.042,22.041 29.138,21.545 29.402 C 21.100 29.639,20.537 30.221,20.317 30.671 C 19.969 31.382,19.982 30.933,19.981 41.925 L 19.980 52.020 18.000 52.020 L 16.020 52.020 16.020 41.890 C 16.020 31.954,16.018 31.750,15.900 31.290 C 15.834 31.032,15.708 30.697,15.619 30.545 C 15.232 29.883,14.496 29.315,13.778 29.123 C 13.340 29.007,12.524 29.023,12.108 29.156 " fill="#2B2C30" stroke="none" fill-rule="evenodd"></path></svg>