<svg width="37" height="57" viewBox="0 0 37 57" fill="none" xmlns="http://www.w3.org/2000/svg"><path d="M17.279 0.072 C 14.578 0.411,12.130 2.199,10.950 4.693 C 9.928 6.854,9.929 9.371,10.953 11.589 C 11.512 12.802,12.696 14.178,13.767 14.862 C 14.059 15.048,14.300 15.222,14.303 15.247 C 14.305 15.273,13.841 15.293,13.272 15.293 C 11.669 15.293,10.516 15.473,9.068 15.948 C 4.612 17.409,1.221 21.218,0.277 25.822 C 0.036 26.997,-0.000 27.661,-0.000 30.877 C 0.000 34.235,0.009 34.337,0.382 35.039 C 0.610 35.468,1.217 36.064,1.650 36.283 C 2.536 36.732,3.572 36.731,4.465 36.278 C 4.890 36.063,5.497 35.464,5.726 35.034 C 6.095 34.341,6.105 34.240,6.105 31.052 C 6.105 29.315,6.133 27.928,6.173 27.596 C 6.351 26.149,6.995 24.764,7.991 23.688 C 8.355 23.295,8.422 23.248,8.627 23.248 C 8.753 23.248,8.910 23.288,8.976 23.336 C 9.094 23.422,9.096 23.677,9.127 39.600 C 9.156 55.205,9.162 55.787,9.272 56.040 C 9.422 56.382,9.910 56.818,10.249 56.913 C 10.436 56.965,11.058 56.982,12.364 56.968 L 14.214 56.949 14.510 56.775 C 14.843 56.580,15.141 56.207,15.230 55.876 C 15.262 55.754,15.513 52.005,15.787 47.545 C 16.061 43.085,16.314 39.325,16.351 39.189 C 16.503 38.618,16.927 38.118,17.483 37.854 C 17.783 37.711,17.936 37.678,18.297 37.678 C 18.921 37.678,19.346 37.848,19.763 38.266 C 20.360 38.862,20.281 38.196,20.846 47.435 C 21.192 53.108,21.372 55.693,21.436 55.921 C 21.553 56.340,21.931 56.734,22.354 56.878 C 22.771 57.020,26.052 57.030,26.448 56.890 C 26.824 56.757,27.091 56.528,27.293 56.163 L 27.473 55.839 27.504 39.621 C 27.521 30.701,27.542 23.394,27.550 23.384 C 27.558 23.374,27.661 23.325,27.778 23.276 C 28.068 23.155,28.199 23.218,28.648 23.689 C 29.464 24.544,30.076 25.715,30.387 27.010 C 30.465 27.335,30.490 28.049,30.522 30.803 C 30.561 34.097,30.566 34.205,30.698 34.559 C 31.258 36.063,32.831 36.922,34.315 36.536 C 35.399 36.253,36.256 35.408,36.540 34.340 C 36.673 33.842,36.669 27.869,36.535 26.848 C 36.334 25.312,35.948 24.029,35.276 22.663 C 33.794 19.651,31.234 17.320,28.101 16.132 C 26.588 15.558,25.478 15.352,23.619 15.300 L 22.293 15.263 22.817 14.914 C 25.070 13.415,26.455 10.837,26.455 8.140 C 26.455 3.253,22.143 -0.538,17.279 0.072 M19.148 4.822 C 20.261 5.062,21.319 6.101,21.648 7.278 C 21.748 7.634,21.748 8.646,21.648 9.002 C 21.397 9.901,20.640 10.829,19.844 11.214 C 19.402 11.427,18.751 11.591,18.346 11.591 C 17.578 11.591,16.581 11.193,16.001 10.654 C 15.277 9.981,14.927 9.171,14.925 8.162 C 14.922 6.931,15.439 5.944,16.425 5.297 C 17.255 4.754,18.123 4.602,19.148 4.822 M21.059 21.222 C 21.312 21.361,21.456 21.532,21.556 21.811 C 21.665 22.118,21.685 30.657,21.577 31.046 C 21.488 31.364,21.179 31.668,20.854 31.755 C 20.676 31.804,19.838 31.820,18.175 31.807 C 15.863 31.790,15.746 31.784,15.540 31.662 C 15.422 31.593,15.262 31.443,15.186 31.330 L 15.047 31.123 15.047 26.461 C 15.047 21.949,15.051 21.793,15.167 21.602 C 15.315 21.360,15.541 21.207,15.838 21.147 C 15.962 21.121,17.146 21.105,18.469 21.111 C 20.574 21.120,20.897 21.133,21.059 21.222 " fill="#2B2C30" stroke="none" fill-rule="evenodd"></path></svg>