<svg width="56" height="40" viewBox="0 0 56 40" fill="none" xmlns="http://www.w3.org/2000/svg"><path d="M0.000 8.027 L 0.000 16.053 5.973 16.053 L 11.947 16.053 11.947 22.027 L 11.947 28.000 19.973 28.000 L 28.000 28.000 28.000 26.040 L 28.000 24.080 30.007 24.080 L 32.013 24.080 32.013 32.013 L 32.013 39.947 39.993 39.947 L 47.973 39.947 47.973 33.973 L 47.973 28.000 49.980 28.000 L 51.987 28.000 51.987 22.027 L 51.987 16.053 53.993 16.053 L 56.000 16.053 56.000 8.027 L 56.000 0.000 28.000 0.000 L 0.000 0.000 0.000 8.027 M50.027 7.980 L 50.027 9.987 48.020 9.987 L 46.013 9.987 46.013 16.007 L 46.013 22.027 44.007 22.027 L 42.000 22.027 42.000 28.047 L 42.000 34.067 39.993 34.067 L 37.987 34.067 37.987 26.040 L 37.987 18.013 30.007 18.013 L 22.027 18.013 22.027 20.020 L 22.027 22.027 20.020 22.027 L 18.013 22.027 18.013 16.007 L 18.013 9.987 11.993 9.987 L 5.973 9.987 5.973 7.980 L 5.973 5.973 28.000 5.973 L 50.027 5.973 50.027 7.980 M0.000 22.027 L 0.000 23.987 4.013 23.987 L 8.027 23.987 8.027 22.027 L 8.027 20.067 4.013 20.067 L 0.000 20.067 0.000 22.027 M12.040 34.020 L 12.040 36.027 16.007 36.027 L 19.973 36.027 19.973 34.020 L 19.973 32.013 16.007 32.013 L 12.040 32.013 12.040 34.020 " fill="#2B2C30" stroke="none" fill-rule="evenodd"></path></svg>