<svg width="8" height="40" viewBox="0 0 8 40" fill="none" xmlns="http://www.w3.org/2000/svg"><path d="M3.733 0.008 C 2.559 0.096,1.505 0.668,0.803 1.598 C 0.398 2.134,0.148 2.740,0.036 3.453 C -0.004 3.714,-0.004 4.286,0.036 4.547 C 0.207 5.644,0.738 6.544,1.598 7.197 C 2.129 7.600,2.741 7.853,3.453 7.964 C 3.720 8.005,4.284 8.004,4.560 7.962 C 5.027 7.890,5.489 7.740,5.876 7.533 C 6.455 7.224,6.963 6.764,7.326 6.220 C 7.662 5.716,7.864 5.185,7.964 4.547 C 8.004 4.286,8.004 3.714,7.964 3.453 C 7.853 2.741,7.600 2.129,7.197 1.598 C 6.535 0.726,5.590 0.177,4.500 0.033 C 4.344 0.012,3.880 -0.002,3.733 0.008 M3.713 12.014 C 2.581 12.130,1.626 12.852,1.208 13.907 C 1.137 14.086,1.065 14.357,1.031 14.574 C 1.008 14.721,1.007 15.172,1.007 26.000 C 1.007 36.828,1.008 37.279,1.031 37.426 C 1.204 38.517,1.898 39.392,2.907 39.792 C 3.254 39.929,3.597 39.992,4.000 39.992 C 4.403 39.992,4.746 39.929,5.093 39.792 C 6.102 39.392,6.796 38.517,6.969 37.426 C 6.992 37.279,6.993 36.828,6.993 26.000 C 6.993 15.172,6.992 14.721,6.969 14.574 C 6.935 14.357,6.863 14.086,6.792 13.907 C 6.394 12.904,5.507 12.197,4.440 12.034 C 4.270 12.008,3.877 11.997,3.713 12.014 " fill="#2B2C30" stroke="none" fill-rule="evenodd"></path></svg>