<svg width="48" height="48" viewBox="0 0 48 48" fill="none" xmlns="http://www.w3.org/2000/svg"><path d="M9.000 0.050 C 6.701 0.300,4.594 1.311,2.953 2.953 C 0.409 5.496,-0.555 9.085,0.360 12.600 C 0.782 14.221,1.699 15.794,2.953 17.047 C 4.009 18.104,5.315 18.943,6.615 19.402 L 7.031 19.548 7.061 25.474 C 7.091 31.222,7.097 31.423,7.267 32.176 C 7.778 34.444,8.700 36.142,10.278 37.725 C 11.849 39.300,13.522 40.225,15.801 40.775 C 16.291 40.894,17.106 40.916,22.392 40.955 L 28.424 41.000 28.759 41.800 C 29.909 44.549,32.127 46.600,34.931 47.508 C 36.054 47.872,36.650 47.960,38.000 47.960 C 39.350 47.960,39.946 47.872,41.069 47.508 C 42.501 47.045,43.723 46.323,44.816 45.296 C 46.296 43.905,47.226 42.304,47.739 40.262 C 47.933 39.489,47.955 39.256,47.955 38.000 C 47.955 36.744,47.933 36.511,47.739 35.738 C 47.226 33.697,46.296 32.095,44.817 30.705 C 41.871 27.937,37.407 27.227,33.793 28.953 C 31.437 30.077,29.747 31.839,28.759 34.200 L 28.424 35.000 22.912 35.000 C 16.799 35.000,17.011 35.016,15.840 34.462 C 14.536 33.844,13.458 32.480,13.159 31.070 C 13.064 30.619,13.043 29.526,13.041 25.026 L 13.040 19.531 13.479 19.367 C 14.804 18.871,16.002 18.093,17.047 17.047 C 18.486 15.609,19.370 13.964,19.807 11.917 C 20.007 10.980,20.007 9.020,19.807 8.083 C 19.370 6.036,18.486 4.391,17.047 2.953 C 15.638 1.543,14.047 0.672,12.080 0.234 C 11.410 0.084,9.652 -0.021,9.000 0.050 M10.816 6.088 C 12.620 6.465,14.000 8.160,14.000 10.000 C 14.000 12.159,12.159 14.000,10.000 14.000 C 7.841 14.000,6.000 12.159,6.000 10.000 C 6.000 8.204,7.314 6.539,9.068 6.114 C 9.595 5.986,10.277 5.976,10.816 6.088 M39.323 34.247 C 40.497 34.685,41.302 35.488,41.763 36.680 C 42.029 37.369,42.029 38.631,41.763 39.320 C 40.677 42.132,37.264 42.905,35.200 40.807 C 34.264 39.856,33.868 38.662,34.066 37.388 C 34.312 35.808,35.568 34.456,37.116 34.104 C 37.732 33.964,38.738 34.029,39.323 34.247 " fill="#2B2C30" stroke="none" fill-rule="evenodd"></path></svg>