<svg width="50" height="57" viewBox="0 0 50 57" fill="none" xmlns="http://www.w3.org/2000/svg"><path d="M14.592 0.089 C 11.598 0.428,8.879 1.506,6.445 3.319 C 5.531 3.999,4.034 5.485,3.349 6.391 C -2.818 14.551,-0.166 26.165,8.917 30.780 C 12.839 32.773,17.193 33.109,21.369 31.741 C 22.468 31.381,23.771 30.785,24.720 30.209 C 25.061 30.003,25.366 29.833,25.399 29.833 C 25.432 29.833,27.296 31.671,29.542 33.917 L 33.624 38.000 30.375 41.250 L 27.125 44.501 27.125 44.960 L 27.125 45.420 28.837 47.127 L 30.550 48.833 30.929 48.833 C 31.217 48.833,31.386 48.775,31.633 48.592 C 31.812 48.459,33.308 46.996,34.958 45.342 L 37.957 42.334 39.854 44.229 L 41.750 46.124 38.542 49.333 C 36.212 51.663,35.312 52.616,35.256 52.813 C 35.106 53.337,35.242 53.532,36.978 55.270 C 38.699 56.992,38.847 57.096,39.395 56.962 C 39.627 56.906,46.304 50.324,48.757 47.734 C 49.916 46.510,49.917 46.509,49.917 46.110 L 49.917 45.710 39.822 35.614 L 29.728 25.518 30.159 24.805 C 33.129 19.887,33.360 13.994,30.780 8.917 C 29.223 5.851,26.831 3.431,23.825 1.879 C 22.084 0.980,20.706 0.519,18.832 0.210 C 17.856 0.049,15.532 -0.017,14.592 0.089 M18.375 6.345 C 22.354 7.130,25.533 10.401,26.288 14.488 C 26.454 15.386,26.454 17.100,26.288 18.051 C 25.561 22.216,22.303 25.495,18.087 26.304 C 17.221 26.471,15.533 26.488,14.667 26.340 C 13.229 26.093,11.548 25.406,10.426 24.605 C 5.955 21.414,4.796 15.305,7.789 10.700 C 8.418 9.731,9.731 8.418,10.700 7.789 C 12.989 6.301,15.631 5.804,18.375 6.345 " fill="#2B2C30" stroke="none" fill-rule="evenodd"></path></svg>