<svg width="48" height="48" viewBox="0 0 48 48" fill="none" xmlns="http://www.w3.org/2000/svg"><path d="M28.880 6.000 L 28.880 12.000 24.797 12.000 C 20.318 12.000,20.287 12.003,20.045 12.470 C 19.863 12.822,19.886 13.290,20.100 13.584 C 20.199 13.720,22.755 16.075,25.780 18.816 C 29.629 22.303,31.374 23.834,31.591 23.914 C 31.860 24.014,31.939 24.014,32.185 23.914 C 32.499 23.788,43.496 13.857,43.710 13.508 C 43.871 13.244,43.877 12.784,43.724 12.487 C 43.472 12.001,43.464 12.000,38.968 12.000 L 34.880 12.000 34.880 6.000 L 34.880 0.000 31.880 0.000 L 28.880 0.000 28.880 6.000 M4.504 12.157 C 3.961 12.488,4.000 11.408,4.000 26.016 C 4.001 38.991,4.004 39.245,4.157 39.496 C 4.491 40.044,2.772 40.000,24.016 40.000 C 42.941 39.999,43.244 39.997,43.496 39.843 C 44.029 39.518,44.000 39.998,44.000 31.604 L 44.000 24.000 41.000 24.000 L 38.000 24.000 38.000 29.000 L 38.000 34.000 24.000 34.000 L 10.000 34.000 10.000 26.000 L 10.000 18.000 12.920 18.000 L 15.840 18.000 15.840 15.000 L 15.840 12.000 10.300 12.000 C 4.946 12.001,4.751 12.006,4.504 12.157 M0.504 42.157 C 0.018 42.453,-0.000 42.556,0.000 45.016 C 0.001 47.081,0.012 47.258,0.157 47.496 C 0.492 48.045,-1.652 48.000,24.016 48.000 C 46.909 47.999,47.244 47.997,47.496 47.843 C 47.981 47.547,48.000 47.442,48.000 45.000 C 48.000 42.558,47.981 42.453,47.496 42.157 C 47.244 42.003,46.909 42.001,24.000 42.001 C 1.091 42.001,0.756 42.003,0.504 42.157 " fill="#2B2C30" stroke="none" fill-rule="evenodd"></path></svg>