<svg width="48" height="36" viewBox="0 0 48 36" fill="none" xmlns="http://www.w3.org/2000/svg"><path d="M4.504 0.157 C 3.961 0.488,4.000 -0.592,4.000 14.016 C 4.001 26.991,4.004 27.245,4.157 27.496 C 4.491 28.044,2.772 28.000,24.016 28.000 C 42.941 27.999,43.244 27.997,43.496 27.843 C 44.039 27.512,44.000 28.590,44.000 14.000 C 44.000 -0.590,44.039 0.488,43.496 0.157 C 43.244 0.003,42.942 0.001,24.000 0.001 C 5.058 0.001,4.756 0.003,4.504 0.157 M38.000 14.000 L 38.000 22.000 24.000 22.000 L 10.000 22.000 10.000 14.000 L 10.000 6.000 24.000 6.000 L 38.000 6.000 38.000 14.000 M0.504 30.157 C 0.018 30.453,-0.000 30.556,0.000 33.016 C 0.001 35.081,0.012 35.258,0.157 35.496 C 0.492 36.045,-1.652 36.000,24.016 36.000 C 46.909 35.999,47.244 35.997,47.496 35.843 C 47.981 35.547,48.000 35.442,48.000 33.000 C 48.000 30.558,47.981 30.453,47.496 30.157 C 47.244 30.003,46.909 30.001,24.000 30.001 C 1.091 30.001,0.756 30.003,0.504 30.157 " fill="#2B2C30" stroke="none" fill-rule="evenodd"></path></svg>