<svg width="56" height="48" viewBox="0 0 56 48" fill="none" xmlns="http://www.w3.org/2000/svg"><path d="M4.610 0.091 C 4.501 0.135,4.323 0.285,4.213 0.425 L 4.013 0.679 4.013 12.015 L 4.013 23.352 4.331 23.669 L 4.648 23.987 10.351 23.987 L 16.053 23.987 16.053 21.000 L 16.053 18.013 13.020 18.013 L 9.987 18.013 9.987 11.993 L 9.987 5.973 19.972 5.973 L 29.957 5.973 29.982 8.983 L 30.007 11.993 32.993 11.993 L 35.980 11.993 36.007 6.533 C 36.026 2.766,36.003 0.963,35.932 0.719 C 35.864 0.484,35.730 0.303,35.532 0.183 C 35.239 0.004,34.940 0.001,20.020 0.006 C 11.653 0.009,4.718 0.048,4.610 0.091 M20.751 16.025 C 20.458 16.082,20.099 16.476,20.031 16.813 C 19.999 16.973,19.973 22.034,19.973 28.061 C 19.973 39.867,19.956 39.448,20.451 39.794 C 20.650 39.934,21.973 39.947,35.950 39.947 C 47.599 39.947,51.289 39.920,51.476 39.835 C 52.012 39.591,51.987 40.184,51.986 27.981 C 51.986 17.025,51.982 16.746,51.805 16.456 C 51.683 16.256,51.507 16.126,51.268 16.060 C 50.925 15.964,21.234 15.931,20.751 16.025 M45.991 27.977 L 46.015 33.973 35.981 33.973 L 25.947 33.973 25.947 28.016 C 25.947 24.739,25.975 22.030,26.009 21.995 C 26.044 21.961,30.548 21.943,36.019 21.956 L 45.967 21.980 45.991 27.977 M0.408 26.205 C 0.026 26.515,-0.000 26.691,0.000 28.997 C 0.001 31.034,0.016 31.245,0.182 31.518 C 0.304 31.718,0.480 31.848,0.718 31.914 C 0.954 31.979,3.580 32.012,8.517 32.013 L 15.960 32.013 15.960 29.027 L 15.960 26.040 8.283 26.042 C 1.151 26.044,0.593 26.056,0.408 26.205 M16.553 42.093 C 16.077 42.285,16.053 42.424,16.053 44.994 L 16.053 47.386 16.279 47.629 C 16.403 47.763,16.602 47.896,16.722 47.925 C 16.842 47.954,25.602 47.967,36.188 47.952 L 55.436 47.927 55.695 47.668 L 55.953 47.409 55.953 44.977 L 55.953 42.545 55.649 42.272 L 55.344 42.000 36.049 42.006 C 25.428 42.009,16.663 42.048,16.553 42.093 " fill="#2B2C30" stroke="none" fill-rule="evenodd"></path></svg>