<svg width="50" height="59" viewBox="0 0 50 59" fill="none" xmlns="http://www.w3.org/2000/svg"><path d="M46.110 0.150 C 45.872 0.235,45.517 0.410,45.322 0.539 C 45.126 0.669,41.646 3.219,37.587 6.207 C 33.529 9.195,30.131 11.688,30.036 11.747 C 29.890 11.838,27.852 11.564,16.460 9.919 C 5.922 8.398,2.960 7.996,2.612 8.040 C 1.976 8.119,1.247 8.513,0.769 9.036 C 0.065 9.808,-0.180 10.961,0.158 11.924 C 0.244 12.172,1.924 16.126,3.891 20.710 L 7.466 29.045 6.895 29.710 C 4.177 32.873,3.339 36.630,4.545 40.237 C 5.128 41.977,6.064 43.468,7.458 44.873 C 10.036 47.471,13.490 49.103,17.875 49.792 C 18.333 49.864,19.485 49.946,20.435 49.974 C 21.384 50.002,22.144 50.053,22.122 50.088 C 22.043 50.216,20.934 50.906,20.288 51.229 C 19.923 51.411,19.269 51.698,18.833 51.866 C 17.545 52.364,17.392 52.441,17.009 52.791 C 16.549 53.211,16.300 53.602,16.132 54.169 C 15.953 54.770,15.966 55.289,16.175 55.967 C 16.326 56.456,16.428 56.612,16.908 57.092 C 17.388 57.572,17.544 57.674,18.033 57.825 C 19.008 58.126,19.544 58.045,21.354 57.325 C 26.121 55.428,29.115 52.351,29.837 48.608 L 29.937 48.090 30.614 47.745 C 32.726 46.668,34.642 45.046,35.934 43.240 C 37.218 41.445,37.998 39.101,38.000 37.032 L 38.000 36.355 42.998 35.104 C 45.747 34.415,48.156 33.770,48.352 33.669 C 48.776 33.451,49.277 32.991,49.545 32.572 C 50.028 31.821,50.004 32.685,49.980 16.830 L 49.958 2.292 49.723 1.782 C 49.094 0.422,47.440 -0.326,46.110 0.150 M44.000 18.830 L 44.000 28.660 43.688 28.743 C 43.516 28.788,41.691 29.246,39.634 29.760 L 35.893 30.694 35.717 30.451 C 33.973 28.036,30.608 25.863,27.018 24.834 C 25.041 24.268,23.303 24.043,20.917 24.046 C 18.088 24.050,15.966 24.420,13.472 25.345 C 12.975 25.529,12.560 25.668,12.548 25.653 C 12.466 25.542,7.911 14.811,7.936 14.786 C 7.954 14.768,13.028 15.487,19.213 16.383 C 27.543 17.589,30.591 18.002,30.970 17.975 C 31.278 17.952,31.659 17.853,31.928 17.726 C 32.174 17.609,34.962 15.601,38.125 13.263 C 41.287 10.925,43.903 9.010,43.938 9.006 C 43.972 9.003,44.000 13.424,44.000 18.830 M22.512 30.084 C 26.689 30.491,30.210 32.405,31.462 34.951 C 32.173 36.396,32.168 37.611,31.446 39.083 C 31.107 39.775,30.951 39.980,30.213 40.708 C 29.749 41.167,29.252 41.607,29.110 41.687 L 28.852 41.832 28.517 41.270 C 27.841 40.135,26.614 38.892,25.226 37.936 C 24.896 37.708,23.895 37.099,23.002 36.583 C 20.674 35.236,20.065 34.740,19.847 34.012 C 19.629 33.285,19.774 32.105,20.179 31.309 C 20.469 30.740,21.245 30.001,21.554 30.000 C 21.606 30.000,22.037 30.038,22.512 30.084 M13.797 31.892 C 13.767 31.969,13.744 32.523,13.745 33.121 C 13.751 35.594,14.493 37.425,16.162 39.083 C 17.079 39.995,17.890 40.568,19.875 41.708 C 21.479 42.628,22.337 43.199,22.735 43.610 L 23.009 43.892 22.442 43.945 C 19.784 44.196,16.766 43.681,14.458 42.582 C 13.393 42.075,12.515 41.454,11.700 40.633 C 11.066 39.994,10.878 39.739,10.553 39.080 C 9.826 37.602,9.826 36.398,10.553 34.920 C 10.879 34.258,11.063 34.009,11.700 33.371 C 12.117 32.953,12.757 32.417,13.121 32.180 C 13.486 31.944,13.799 31.750,13.818 31.750 C 13.836 31.750,13.827 31.814,13.797 31.892 " fill="#2B2C30" stroke="none" fill-rule="evenodd"></path></svg>