<svg width="60" height="60" viewBox="0 0 60 60" fill="none" xmlns="http://www.w3.org/2000/svg"><path d="M27.650 0.095 C 23.111 0.507,18.902 1.797,15.240 3.899 C 8.010 8.050,2.891 14.784,0.910 22.750 C 0.273 25.311,0.058 27.143,0.058 30.000 C 0.058 32.857,0.273 34.689,0.910 37.250 C 3.367 47.129,10.791 55.188,20.400 58.407 C 23.622 59.486,26.495 59.947,30.000 59.947 C 36.118 59.947,41.532 58.316,46.618 54.942 C 57.153 47.953,62.145 35.068,59.089 22.750 C 57.296 15.520,52.822 9.174,46.618 5.058 C 42.612 2.400,38.601 0.906,33.700 0.246 C 32.348 0.064,28.935 -0.021,27.650 0.095 M33.550 6.245 C 36.655 6.732,39.873 7.902,42.500 9.499 C 45.456 11.297,48.520 14.320,50.308 17.203 C 50.586 17.651,50.834 18.073,50.861 18.142 C 50.890 18.219,50.746 18.314,50.479 18.393 C 49.846 18.581,48.765 19.143,47.935 19.717 C 44.841 21.856,43.112 26.008,43.336 30.763 C 43.585 36.056,45.978 39.868,50.075 41.497 L 50.901 41.826 50.682 42.188 C 49.547 44.068,48.519 45.381,46.950 46.952 C 43.270 50.637,38.713 52.944,33.500 53.764 C 31.881 54.018,28.119 54.018,26.500 53.764 C 21.289 52.945,16.741 50.642,13.047 46.952 C 10.955 44.862,9.270 42.435,8.109 39.838 C 7.640 38.790,7.101 37.350,6.962 36.773 L 6.895 36.497 9.422 36.523 L 11.948 36.550 12.119 37.050 C 12.214 37.325,12.615 38.551,13.011 39.775 L 13.731 42.000 16.422 42.000 C 18.946 42.000,19.110 41.989,19.058 41.824 C 19.027 41.727,17.184 36.361,14.963 29.899 L 10.924 18.150 10.062 18.121 C 9.588 18.105,9.200 18.071,9.200 18.044 C 9.200 18.018,9.424 17.635,9.699 17.192 C 11.495 14.297,14.561 11.281,17.550 9.472 C 20.562 7.649,23.918 6.521,27.576 6.102 C 28.705 5.973,32.372 6.061,33.550 6.245 M22.000 30.051 L 22.000 42.013 28.025 41.972 C 34.526 41.927,34.450 41.933,36.099 41.357 C 38.049 40.676,39.387 39.385,40.074 37.524 C 40.409 36.618,40.497 34.872,40.259 33.861 C 39.751 31.704,37.976 29.993,35.910 29.667 C 35.519 29.606,35.200 29.507,35.200 29.448 C 35.200 29.388,35.509 29.240,35.887 29.118 C 37.162 28.707,38.393 27.699,38.942 26.615 C 39.483 25.548,39.630 24.185,39.349 22.850 C 38.888 20.665,37.182 19.060,34.600 18.384 C 33.776 18.168,33.568 18.160,27.875 18.125 L 22.000 18.090 22.000 30.051 M31.495 22.199 C 32.526 22.317,33.257 22.651,33.751 23.228 C 34.756 24.402,34.525 26.360,33.271 27.305 C 32.417 27.948,31.948 28.041,29.375 28.081 L 27.100 28.116 27.100 25.108 L 27.100 22.100 28.875 22.101 C 29.851 22.101,31.030 22.145,31.495 22.199 M53.190 23.803 C 53.794 26.074,53.941 27.288,53.941 30.000 C 53.941 32.080,53.907 32.646,53.718 33.750 C 53.499 35.022,52.958 37.244,52.808 37.487 C 52.750 37.581,52.607 37.560,52.205 37.402 C 50.194 36.609,48.860 34.519,48.504 31.603 C 48.068 28.044,49.091 24.755,51.084 23.303 C 51.831 22.760,52.721 22.366,52.818 22.537 C 52.855 22.603,53.023 23.173,53.190 23.803 M9.212 28.058 L 10.674 32.550 8.422 32.577 C 7.184 32.592,6.144 32.578,6.113 32.546 C 6.081 32.514,6.054 31.489,6.052 30.269 L 6.050 28.050 6.794 25.773 C 7.213 24.489,7.584 23.511,7.644 23.531 C 7.702 23.551,8.408 25.588,9.212 28.058 M32.304 31.601 C 33.497 31.827,34.502 32.547,34.935 33.485 C 35.103 33.851,35.149 34.142,35.149 34.850 C 35.150 35.654,35.119 35.805,34.864 36.266 C 34.560 36.815,34.019 37.261,33.333 37.529 C 32.671 37.788,31.413 37.900,29.178 37.900 L 27.100 37.900 27.100 34.700 L 27.100 31.500 29.436 31.500 C 30.721 31.500,32.012 31.545,32.304 31.601 " fill="#2B2C30" stroke="none" fill-rule="evenodd"></path></svg>