<svg width="62" height="62" viewBox="0 0 62 62" fill="none" xmlns="http://www.w3.org/2000/svg"><path d="M58.104 0.150 C 57.865 0.224,57.447 0.451,57.174 0.653 C 56.901 0.856,44.024 13.684,28.557 29.160 C 1.416 56.318,0.429 57.319,0.218 57.896 C -0.207 59.063,-0.001 60.093,0.843 61.017 C 1.705 61.960,2.867 62.232,4.104 61.782 C 4.681 61.572,5.675 60.591,33.133 33.133 C 60.591 5.675,61.572 4.681,61.782 4.104 C 62.042 3.389,62.057 2.817,61.836 2.060 C 61.707 1.619,61.542 1.372,61.072 0.912 C 60.208 0.065,59.201 -0.193,58.104 0.150 " fill="#2B2C30" stroke="none" fill-rule="evenodd"></path></svg>