<svg width="52" height="52" viewBox="0 0 52 52" fill="none" xmlns="http://www.w3.org/2000/svg"><path d="M3.073 0.121 C 2.071 0.364,1.031 1.142,0.529 2.022 C -0.039 3.020,0.000 1.236,0.000 26.000 C -0.000 50.745,-0.039 48.981,0.525 49.969 C 0.841 50.526,1.653 51.301,2.189 51.558 C 3.158 52.024,1.760 51.998,26.000 51.998 C 50.238 51.998,48.841 52.024,49.811 51.558 C 50.376 51.287,51.230 50.450,51.514 49.887 C 52.031 48.866,51.998 50.494,51.998 26.000 C 51.998 6.781,51.980 3.442,51.874 3.045 C 51.480 1.564,50.275 0.405,48.811 0.097 C 48.118 -0.049,3.675 -0.025,3.073 0.121 M26.000 12.003 L 26.000 18.027 22.447 18.027 L 18.893 18.027 18.893 14.426 C 18.893 10.556,18.888 10.501,18.441 10.189 C 18.333 10.113,18.070 10.053,17.841 10.053 L 17.434 10.053 12.379 14.612 C 9.598 17.120,7.237 19.274,7.131 19.399 C 6.864 19.715,6.809 20.042,6.970 20.354 C 7.044 20.498,9.299 22.593,11.981 25.011 C 14.663 27.429,16.979 29.522,17.128 29.661 C 17.659 30.156,18.462 30.045,18.752 29.436 C 18.876 29.174,18.893 28.692,18.893 25.575 L 18.893 22.013 22.447 22.013 L 26.000 22.013 26.000 26.000 L 26.000 29.987 29.987 29.987 L 33.973 29.987 33.973 26.305 L 33.973 22.623 34.212 22.356 C 34.524 22.006,35.063 21.917,35.431 22.154 C 35.830 22.411,45.521 31.176,45.738 31.476 C 45.964 31.788,45.985 32.063,45.808 32.404 C 45.608 32.792,35.596 41.795,35.206 41.938 C 34.912 42.046,34.842 42.042,34.551 41.904 C 33.967 41.627,33.973 41.676,33.973 37.618 L 33.973 33.973 29.987 33.973 L 26.000 33.973 26.000 39.997 L 26.000 46.020 15.990 46.020 L 5.980 46.020 5.980 26.000 L 5.980 5.980 15.990 5.980 L 26.000 5.980 26.000 12.003 " fill="#2B2C30" stroke="none" fill-rule="evenodd"></path></svg>