<svg width="48" height="46" viewBox="0 0 48 46" fill="none" xmlns="http://www.w3.org/2000/svg"><path d="M0.504 0.157 C 0.018 0.453,-0.000 0.556,0.000 3.016 C 0.001 5.081,0.012 5.258,0.157 5.496 C 0.465 6.001,0.457 6.000,4.016 6.000 C 7.073 5.999,7.253 5.991,7.496 5.843 C 7.981 5.547,8.000 5.442,8.000 3.000 C 8.000 0.558,7.981 0.453,7.496 0.157 C 7.253 0.009,7.073 0.001,4.000 0.001 C 0.927 0.001,0.747 0.009,0.504 0.157 M12.504 0.157 C 12.018 0.453,12.000 0.556,12.000 3.016 C 12.001 5.081,12.012 5.258,12.157 5.496 C 12.490 6.042,10.985 6.000,30.016 6.000 C 46.958 5.999,47.244 5.997,47.496 5.843 C 47.981 5.547,48.000 5.442,48.000 3.000 C 48.000 0.558,47.981 0.453,47.496 0.157 C 47.244 0.003,46.958 0.001,30.000 0.001 C 13.042 0.001,12.756 0.003,12.504 0.157 M0.504 20.157 C 0.018 20.453,-0.000 20.556,0.000 23.016 C 0.001 25.081,0.012 25.258,0.157 25.496 C 0.465 26.001,0.457 26.000,4.016 26.000 C 7.073 25.999,7.253 25.991,7.496 25.843 C 7.981 25.547,8.000 25.442,8.000 23.000 C 8.000 20.558,7.981 20.453,7.496 20.157 C 7.253 20.009,7.073 20.001,4.000 20.001 C 0.927 20.001,0.747 20.009,0.504 20.157 M12.504 20.157 C 12.018 20.453,12.000 20.556,12.000 23.016 C 12.001 25.081,12.012 25.258,12.157 25.496 C 12.490 26.042,10.985 26.000,30.016 26.000 C 46.958 25.999,47.244 25.997,47.496 25.843 C 47.981 25.547,48.000 25.442,48.000 23.000 C 48.000 20.558,47.981 20.453,47.496 20.157 C 47.244 20.003,46.958 20.001,30.000 20.001 C 13.042 20.001,12.756 20.003,12.504 20.157 M0.504 40.157 C 0.018 40.453,-0.000 40.556,0.000 43.016 C 0.001 45.081,0.012 45.258,0.157 45.496 C 0.465 46.001,0.457 46.000,4.016 46.000 C 7.073 45.999,7.253 45.991,7.496 45.843 C 7.981 45.547,8.000 45.442,8.000 43.000 C 8.000 40.558,7.981 40.453,7.496 40.157 C 7.253 40.009,7.073 40.001,4.000 40.001 C 0.927 40.001,0.747 40.009,0.504 40.157 M12.504 40.157 C 12.018 40.453,12.000 40.556,12.000 43.016 C 12.001 45.081,12.012 45.258,12.157 45.496 C 12.490 46.042,10.985 46.000,30.016 46.000 C 46.958 45.999,47.244 45.997,47.496 45.843 C 47.981 45.547,48.000 45.442,48.000 43.000 C 48.000 40.558,47.981 40.453,47.496 40.157 C 47.244 40.003,46.958 40.001,30.000 40.001 C 13.042 40.001,12.756 40.003,12.504 40.157 " fill="#2B2C30" stroke="none" fill-rule="evenodd"></path></svg>