<svg width="40" height="57" viewBox="0 0 40 57" fill="none" xmlns="http://www.w3.org/2000/svg"><path d="M18.667 0.042 C 17.926 0.097,16.678 0.276,15.867 0.442 C 8.308 1.992,2.197 8.009,0.501 15.569 C 0.130 17.225,0.044 18.028,0.041 19.867 C 0.039 21.694,0.112 22.360,0.506 24.123 C 2.037 30.974,7.532 40.681,15.867 51.260 C 16.719 52.341,19.103 55.230,19.751 55.967 L 19.985 56.233 20.134 56.100 C 20.594 55.689,23.249 52.688,24.705 50.933 C 31.449 42.807,36.265 34.862,38.503 28.167 C 40.326 22.713,40.470 18.221,38.968 13.700 C 38.255 11.554,37.293 9.715,35.979 7.983 C 32.674 3.626,27.952 0.887,22.500 0.165 C 21.720 0.062,19.400 -0.012,18.667 0.042 M22.132 6.169 C 26.989 6.918,31.135 10.199,32.971 14.746 C 33.672 16.483,33.962 18.010,33.962 19.967 C 33.962 21.294,33.893 21.973,33.625 23.300 C 32.426 29.237,28.078 37.108,21.312 45.587 C 20.406 46.722,20.162 46.990,20.099 46.920 C 19.945 46.753,18.481 44.825,17.655 43.700 C 11.119 34.812,7.015 26.985,6.169 21.800 C 5.610 18.375,6.583 14.594,8.787 11.622 C 9.348 10.865,10.865 9.348,11.622 8.787 C 13.674 7.265,16.011 6.356,18.600 6.071 C 19.376 5.985,21.284 6.038,22.132 6.169 M18.967 12.072 C 17.210 12.313,15.615 13.106,14.361 14.361 C 11.638 17.083,11.241 21.282,13.401 24.506 C 13.854 25.181,14.819 26.146,15.494 26.599 C 17.063 27.650,18.954 28.134,20.750 27.946 C 22.684 27.743,24.296 26.982,25.639 25.639 C 28.362 22.917,28.759 18.718,26.599 15.494 C 26.146 14.819,25.181 13.854,24.506 13.401 C 23.223 12.542,21.819 12.086,20.305 12.036 C 19.826 12.020,19.223 12.036,18.967 12.072 M20.926 18.236 C 21.317 18.448,21.593 18.732,21.815 19.152 C 21.936 19.379,21.965 19.542,21.966 20.000 C 21.967 20.504,21.945 20.606,21.769 20.924 C 21.106 22.120,19.549 22.355,18.597 21.403 C 17.536 20.342,17.947 18.629,19.392 18.088 C 19.789 17.939,20.509 18.009,20.926 18.236 " fill="#2B2C30" stroke="none" fill-rule="evenodd"></path></svg>