<svg width="40" height="50" viewBox="0 0 40 50" fill="none" xmlns="http://www.w3.org/2000/svg"><path d="M18.567 0.078 C 16.938 0.242,15.430 0.680,13.887 1.435 C 12.277 2.223,11.180 3.020,9.931 4.309 C 7.719 6.592,6.418 9.390,6.070 12.614 C 6.028 12.998,6.000 15.037,6.000 17.631 L 6.000 22.000 4.817 22.001 C 3.431 22.003,2.925 22.088,2.200 22.443 C 1.833 22.623,1.567 22.822,1.198 23.194 C 0.621 23.776,0.323 24.290,0.132 25.040 C 0.003 25.542,0.000 25.816,0.000 36.000 C 0.000 46.184,0.003 46.458,0.132 46.960 C 0.324 47.713,0.620 48.225,1.198 48.802 C 1.775 49.380,2.287 49.676,3.040 49.868 C 3.546 49.998,3.841 50.000,20.000 50.000 C 36.159 50.000,36.454 49.998,36.960 49.868 C 37.713 49.676,38.225 49.380,38.802 48.802 C 39.380 48.225,39.676 47.713,39.868 46.960 C 39.997 46.458,40.000 46.184,40.000 36.000 C 40.000 25.816,39.997 25.542,39.868 25.040 C 39.677 24.290,39.379 23.776,38.802 23.194 C 38.433 22.822,38.167 22.623,37.800 22.443 C 37.075 22.088,36.569 22.003,35.183 22.001 L 34.000 22.000 33.998 17.583 C 33.996 12.904,33.968 12.357,33.665 10.967 C 32.913 7.514,30.790 4.414,27.780 2.374 C 26.958 1.817,25.321 1.011,24.384 0.703 C 22.598 0.116,20.467 -0.113,18.567 0.078 M21.589 6.164 C 23.159 6.495,24.502 7.223,25.639 8.361 C 26.758 9.480,27.444 10.729,27.844 12.378 C 27.939 12.773,27.957 13.444,27.981 17.417 L 28.008 22.000 20.000 22.000 L 11.992 22.000 12.019 17.417 C 12.048 12.453,12.038 12.605,12.434 11.426 C 13.086 9.483,14.573 7.787,16.456 6.839 C 17.259 6.434,18.094 6.194,19.233 6.038 C 19.629 5.984,21.110 6.063,21.589 6.164 M34.000 36.000 L 34.000 44.000 20.000 44.000 L 6.000 44.000 6.000 36.000 L 6.000 28.000 20.000 28.000 L 34.000 28.000 34.000 36.000 " fill="#2B2C30" stroke="none" fill-rule="evenodd"></path></svg>