<svg width="52" height="52" viewBox="0 0 52 52" fill="none" xmlns="http://www.w3.org/2000/svg"><path d="M27.098 0.180 C 26.874 0.300,26.713 0.475,26.602 0.721 C 26.448 1.059,26.437 1.335,26.435 4.761 C 26.433 8.299,26.440 8.453,26.612 8.807 C 26.742 9.075,26.891 9.225,27.159 9.355 C 27.493 9.516,27.689 9.533,29.207 9.533 C 30.724 9.533,30.921 9.516,31.254 9.355 C 31.522 9.225,31.672 9.075,31.801 8.807 C 31.973 8.453,31.980 8.298,31.980 4.731 C 31.980 0.633,31.980 0.630,31.428 0.237 C 31.170 0.053,31.065 0.042,29.293 0.023 C 27.559 0.004,27.407 0.015,27.098 0.180 M14.517 5.386 C 14.246 5.534,11.963 7.816,11.824 8.077 C 11.665 8.377,11.665 8.870,11.824 9.169 C 11.892 9.298,13.150 10.600,14.619 12.062 C 18.071 15.498,17.785 15.418,19.733 13.498 C 20.410 12.831,21.024 12.158,21.098 12.001 C 21.302 11.572,21.267 11.179,20.984 10.742 C 20.647 10.221,15.878 5.496,15.572 5.379 C 15.261 5.261,14.740 5.265,14.517 5.386 M42.900 5.342 C 42.698 5.420,37.444 10.674,37.304 10.937 C 37.143 11.241,37.146 11.646,37.313 11.997 C 37.486 12.361,39.753 14.608,40.069 14.728 C 40.404 14.855,40.785 14.843,41.063 14.696 C 41.475 14.478,46.609 9.255,46.675 8.986 C 46.708 8.852,46.713 8.582,46.687 8.386 C 46.644 8.065,46.508 7.899,45.297 6.688 L 43.955 5.345 43.492 5.318 C 43.238 5.303,42.971 5.314,42.900 5.342 M28.037 17.675 C 27.894 17.709,27.660 17.800,27.517 17.877 C 27.374 17.953,25.472 19.802,23.292 21.986 L 19.327 25.957 22.685 29.315 L 26.044 32.673 30.044 28.665 C 32.243 26.460,34.111 24.521,34.194 24.355 C 34.388 23.968,34.388 23.265,34.194 22.878 C 33.997 22.485,29.602 18.062,29.207 17.859 C 28.827 17.664,28.374 17.593,28.037 17.675 M7.125 20.192 C 6.498 20.477,6.418 20.772,6.415 22.788 C 6.413 24.688,6.495 25.022,7.040 25.352 C 7.311 25.516,7.491 25.523,11.180 25.523 C 14.869 25.523,15.049 25.516,15.320 25.352 C 15.865 25.022,15.947 24.688,15.945 22.788 C 15.942 20.772,15.862 20.477,15.235 20.192 C 14.886 20.034,14.643 20.024,11.180 20.024 C 7.717 20.024,7.474 20.034,7.125 20.192 M43.201 20.193 C 42.551 20.515,42.510 20.669,42.510 22.809 C 42.510 24.876,42.517 24.904,43.107 25.345 C 43.340 25.519,43.442 25.523,47.218 25.523 C 50.936 25.523,51.102 25.516,51.380 25.350 C 51.937 25.017,52.000 24.754,52.000 22.774 C 52.000 20.729,51.950 20.547,51.304 20.215 C 50.927 20.022,50.889 20.020,47.237 20.020 C 43.727 20.020,43.533 20.028,43.201 20.193 M9.258 36.032 C -0.395 45.693,-0.002 45.267,0.002 46.063 C 0.006 46.675,0.302 47.049,2.626 49.374 C 5.146 51.894,5.379 52.065,6.174 51.970 C 6.407 51.943,6.723 51.842,6.874 51.747 C 7.026 51.652,11.186 47.536,16.120 42.601 L 25.089 33.627 21.753 30.290 C 19.919 28.455,18.397 26.953,18.373 26.953 C 18.348 26.953,14.246 31.039,9.258 36.032 M39.997 30.889 C 39.854 30.953,39.184 31.568,38.509 32.256 C 37.521 33.261,37.269 33.568,37.222 33.820 C 37.092 34.510,37.115 34.540,39.940 37.381 C 41.401 38.850,42.702 40.108,42.831 40.176 C 43.130 40.335,43.623 40.335,43.923 40.176 C 44.202 40.028,46.480 37.738,46.617 37.467 C 46.739 37.227,46.741 36.743,46.621 36.428 C 46.504 36.122,41.779 31.353,41.258 31.016 C 40.833 30.741,40.422 30.700,39.997 30.889 M27.167 36.226 C 26.975 36.322,26.741 36.526,26.647 36.681 C 26.484 36.951,26.477 37.138,26.477 40.820 C 26.477 44.509,26.484 44.689,26.648 44.960 C 26.977 45.504,27.313 45.587,29.207 45.587 C 30.724 45.587,30.921 45.570,31.254 45.408 C 31.522 45.278,31.672 45.129,31.801 44.861 C 31.973 44.506,31.980 44.353,31.978 40.814 C 31.976 37.359,31.966 37.114,31.808 36.765 C 31.523 36.138,31.229 36.058,29.207 36.055 C 27.690 36.054,27.481 36.071,27.167 36.226 " fill="#2B2C30" stroke="none" fill-rule="evenodd"></path></svg>