<svg width="50" height="50" viewBox="0 0 50 50" fill="none" xmlns="http://www.w3.org/2000/svg"><path d="M18.194 0.085 C 9.570 0.924,2.524 7.046,0.547 15.417 C 0.161 17.052,0.050 18.075,0.050 20.000 C 0.050 21.925,0.161 22.948,0.547 24.583 C 2.289 31.959,8.044 37.714,15.417 39.453 C 20.867 40.738,26.751 39.641,31.292 36.491 L 31.875 36.087 38.792 42.993 C 42.596 46.792,45.796 49.926,45.903 49.958 C 46.010 49.990,46.235 49.990,46.403 49.959 C 46.658 49.911,46.971 49.639,48.305 48.305 C 49.639 46.971,49.911 46.658,49.959 46.403 C 49.990 46.235,49.990 46.010,49.958 45.903 C 49.926 45.796,46.792 42.596,42.993 38.792 L 36.087 31.875 36.491 31.292 C 40.703 25.220,41.133 17.028,37.583 10.500 C 34.543 4.910,29.156 1.152,22.833 0.211 C 21.768 0.052,19.237 -0.017,18.194 0.085 M22.698 6.247 C 28.976 7.494,33.569 12.642,34.077 19.000 C 34.479 24.027,32.087 28.924,27.846 31.761 C 22.675 35.221,15.809 34.839,11.029 30.826 C 7.350 27.737,5.491 22.974,6.120 18.248 C 6.959 11.944,11.837 7.033,18.167 6.120 C 19.320 5.954,21.537 6.016,22.698 6.247 M18.625 10.077 C 18.533 10.116,18.365 10.249,18.250 10.373 L 18.042 10.597 18.018 14.296 L 17.995 17.995 14.291 18.018 L 10.586 18.042 10.314 18.314 L 10.042 18.587 10.042 20.000 L 10.042 21.413 10.314 21.686 L 10.586 21.958 14.291 21.982 L 17.995 22.005 18.018 25.709 L 18.042 29.414 18.314 29.686 L 18.587 29.958 20.000 29.958 L 21.413 29.958 21.686 29.686 L 21.958 29.414 21.982 25.709 L 22.005 22.005 25.709 21.982 L 29.414 21.958 29.686 21.686 L 29.958 21.413 29.958 20.000 L 29.958 18.587 29.686 18.314 L 29.414 18.042 25.709 18.018 L 22.005 17.995 21.982 14.291 L 21.958 10.586 21.686 10.314 L 21.414 10.042 20.103 10.023 C 19.382 10.013,18.717 10.037,18.625 10.077 " fill="#2B2C30" stroke="none" fill-rule="evenodd"></path></svg>