<svg width="50" height="50" viewBox="0 0 50 50" fill="none" xmlns="http://www.w3.org/2000/svg"><path d="M18.583 0.049 C 18.423 0.067,17.943 0.123,17.516 0.173 C 12.725 0.731,7.911 3.309,4.852 6.955 C 2.282 10.017,0.796 13.276,0.194 17.167 C -0.013 18.505,-0.013 21.495,0.194 22.833 C 1.570 31.728,8.272 38.430,17.167 39.806 C 18.505 40.013,21.495 40.013,22.833 39.806 C 25.852 39.339,28.413 38.368,30.924 36.739 C 31.409 36.424,31.840 36.167,31.882 36.167 C 31.924 36.167,35.051 39.259,38.831 43.039 C 43.690 47.898,45.771 49.926,45.935 49.962 C 46.466 50.079,46.650 49.953,48.226 48.394 C 49.060 47.568,49.805 46.761,49.880 46.602 C 50.196 45.938,50.565 46.357,43.044 38.836 C 39.261 35.053,36.167 31.924,36.167 31.882 C 36.167 31.840,36.424 31.409,36.739 30.924 C 38.368 28.413,39.339 25.852,39.806 22.833 C 40.013 21.495,40.013 18.505,39.806 17.167 C 38.832 10.870,35.186 5.589,29.705 2.531 C 27.582 1.347,25.360 0.597,22.833 0.211 C 21.999 0.084,19.200 -0.023,18.583 0.049 M22.375 6.203 C 23.892 6.458,25.029 6.835,26.458 7.559 C 30.226 9.465,32.918 13.004,33.851 17.278 C 34.012 18.016,34.036 18.372,34.036 20.042 C 34.036 21.723,34.013 22.066,33.847 22.833 C 33.036 26.577,30.962 29.661,27.846 31.758 C 22.729 35.202,15.813 34.836,11.083 30.871 C 6.991 27.440,5.193 22.114,6.370 16.906 C 7.672 11.144,12.593 6.756,18.502 6.090 C 19.427 5.986,21.430 6.044,22.375 6.203 " fill="#2B2C30" stroke="none" fill-rule="evenodd"></path></svg>