<svg width="56" height="57" viewBox="0 0 56 57" fill="none" xmlns="http://www.w3.org/2000/svg"><path d="M0.000 2.007 L 0.000 4.013 2.007 4.013 L 4.013 4.013 4.013 2.007 L 4.013 0.000 2.007 0.000 L 0.000 0.000 0.000 2.007 M8.027 2.007 L 8.027 4.013 9.987 4.013 L 11.947 4.013 11.947 2.007 L 11.947 0.000 9.987 0.000 L 8.027 0.000 8.027 2.007 M16.053 2.007 L 16.053 4.013 18.013 4.013 L 19.973 4.013 19.973 2.007 L 19.973 0.000 18.013 0.000 L 16.053 0.000 16.053 2.007 M23.987 2.007 L 23.987 4.013 25.993 4.013 L 28.000 4.013 28.000 2.007 L 28.000 0.000 25.993 0.000 L 23.987 0.000 23.987 2.007 M32.013 2.007 L 32.013 4.013 34.020 4.013 L 36.027 4.013 36.027 2.007 L 36.027 0.000 34.020 0.000 L 32.013 0.000 32.013 2.007 M-0.000 10.035 L -0.000 12.044 1.983 12.019 L 3.967 11.993 3.992 10.010 L 4.017 8.027 2.009 8.027 L 0.000 8.027 -0.000 10.035 M32.013 10.035 L 32.013 12.044 33.997 12.019 L 35.980 11.993 36.005 10.010 L 36.030 8.027 34.022 8.027 L 32.013 8.027 32.013 10.035 M0.000 18.013 L 0.000 19.973 2.007 19.973 L 4.013 19.973 4.013 18.013 L 4.013 16.053 2.007 16.053 L 0.000 16.053 0.000 18.013 M30.316 18.120 C 29.921 18.165,29.114 18.324,28.523 18.474 C 23.257 19.804,19.279 24.080,18.229 29.540 C 17.998 30.741,18.001 33.238,18.235 34.487 C 19.318 40.283,23.743 44.708,29.540 45.792 C 30.793 46.027,33.295 46.029,34.463 45.796 C 35.936 45.503,36.894 45.177,38.252 44.503 L 39.591 43.840 45.674 49.920 L 51.757 56.000 52.172 56.000 C 52.587 56.000,52.592 55.996,54.294 54.294 C 55.869 52.718,56.000 52.562,56.000 52.255 C 56.000 52.033,55.909 51.800,55.729 51.557 C 55.581 51.357,52.835 48.574,49.628 45.373 L 43.798 39.552 44.153 38.945 C 45.337 36.919,45.948 34.563,45.950 32.013 C 45.954 28.259,44.642 25.005,42.036 22.308 C 38.967 19.132,34.723 17.615,30.316 18.120 M0.000 25.991 L 0.000 28.000 2.009 28.000 L 4.017 28.000 3.992 26.017 L 3.967 24.033 1.983 24.008 L 0.000 23.983 0.000 25.991 M34.453 24.544 C 37.114 25.429,39.141 27.688,39.719 30.413 C 39.887 31.209,39.887 32.818,39.719 33.614 C 39.109 36.488,36.836 38.902,34.061 39.621 C 29.776 40.732,25.472 38.209,24.349 33.927 C 24.073 32.875,24.074 31.142,24.352 30.100 C 25.221 26.839,28.000 24.462,31.267 24.186 C 32.366 24.093,33.471 24.217,34.453 24.544 M0.000 34.020 L 0.000 36.027 2.007 36.027 L 4.013 36.027 4.013 34.020 L 4.013 32.013 2.007 32.013 L 0.000 32.013 0.000 34.020 M8.027 34.020 L 8.027 36.027 9.987 36.027 L 11.947 36.027 11.947 34.020 L 11.947 32.013 9.987 32.013 L 8.027 32.013 8.027 34.020 " fill="#2B2C30" stroke="none" fill-rule="evenodd"></path></svg>