<svg width="56" height="54" viewBox="0 0 56 54" fill="none" xmlns="http://www.w3.org/2000/svg"><path d="M24.453 0.057 C 21.653 0.315,19.077 1.062,16.707 2.305 C 8.549 6.584,4.355 15.920,6.585 24.834 C 7.385 28.034,9.035 31.122,11.197 33.468 L 11.597 33.902 13.696 31.803 L 15.795 29.704 15.216 29.016 C 13.636 27.137,12.570 24.761,12.175 22.241 C 11.980 20.999,12.032 18.357,12.272 17.267 C 12.612 15.721,13.406 13.751,14.168 12.562 C 15.133 11.055,16.772 9.370,18.192 8.425 C 20.890 6.630,23.822 5.856,27.093 6.077 C 32.745 6.459,37.590 10.239,39.387 15.669 C 40.329 18.517,40.331 21.698,39.391 24.547 C 39.070 25.521,38.147 27.325,37.506 28.232 C 36.815 29.209,35.415 30.651,34.497 31.330 C 32.443 32.851,30.104 33.772,27.531 34.072 C 26.596 34.181,24.800 34.150,23.940 34.011 L 23.567 33.951 24.234 34.639 C 25.030 35.460,25.200 35.770,25.200 36.398 C 25.200 37.148,24.998 37.481,23.831 38.653 C 22.945 39.544,22.781 39.749,22.925 39.793 C 23.267 39.897,25.047 40.040,25.993 40.040 C 29.864 40.040,33.908 38.811,37.040 36.684 L 37.847 36.136 44.815 43.094 L 51.783 50.053 52.227 50.003 C 52.658 49.954,52.719 49.905,54.282 48.333 C 55.917 46.689,56.082 46.454,55.958 45.943 C 55.916 45.770,53.670 43.456,49.006 38.780 L 42.116 31.873 42.763 30.893 C 43.925 29.132,44.862 26.981,45.404 24.834 C 46.168 21.803,46.168 18.237,45.404 15.206 C 43.418 7.331,36.982 1.463,28.980 0.232 C 28.058 0.090,25.268 -0.017,24.453 0.057 M1.717 34.333 C 1.187 34.722,0.205 35.779,0.088 36.086 C -0.136 36.675,-0.092 36.729,3.639 40.459 L 7.186 44.005 3.645 47.552 C 1.304 49.899,0.084 51.187,0.043 51.357 C -0.073 51.828,0.091 52.111,1.015 53.037 L 1.924 53.947 2.429 53.947 L 2.934 53.947 6.485 50.401 L 10.035 46.854 13.581 50.401 L 17.126 53.947 17.598 53.947 L 18.071 53.947 19.022 52.980 C 19.935 52.052,19.973 51.997,19.973 51.606 L 19.973 51.199 16.404 47.626 L 12.835 44.052 16.301 40.576 C 18.207 38.664,19.814 37.008,19.870 36.896 C 20.156 36.330,19.960 35.937,18.866 34.882 C 18.044 34.090,18.007 34.067,17.576 34.067 L 17.132 34.067 13.559 37.635 L 9.987 41.203 6.414 37.635 C 2.884 34.109,2.837 34.067,2.461 34.067 C 2.190 34.067,1.977 34.143,1.717 34.333 " fill="#2B2C30" stroke="none" fill-rule="evenodd"></path></svg>