<svg width="56" height="56" viewBox="0 0 56 56" fill="none" xmlns="http://www.w3.org/2000/svg"><path d="M0.607 0.088 C 0.504 0.130,0.336 0.258,0.233 0.372 C 0.064 0.561,0.047 0.711,0.047 2.014 L 0.047 3.449 0.305 3.708 L 0.564 3.967 28.000 3.967 L 55.436 3.967 55.695 3.708 L 55.953 3.449 55.953 2.007 L 55.953 0.564 55.695 0.305 L 55.436 0.047 28.115 0.029 C 13.088 0.019,0.709 0.046,0.607 0.088 M12.212 8.169 C 12.062 8.251,11.905 8.462,11.817 8.702 C 11.736 8.921,9.085 17.731,5.925 28.280 C 2.766 38.829,0.142 47.576,0.095 47.717 L 0.010 47.973 2.908 47.973 L 5.805 47.973 6.099 47.670 C 6.363 47.398,6.532 46.900,7.745 42.817 L 9.097 38.267 15.092 38.267 L 21.086 38.267 21.218 38.710 C 23.479 46.312,23.848 47.469,24.092 47.717 L 24.346 47.973 27.257 47.973 C 29.984 47.973,30.166 47.963,30.124 47.810 C 30.100 47.720,27.440 38.848,24.214 28.093 C 19.135 11.162,18.314 8.506,18.095 8.283 L 17.841 8.027 15.151 8.030 C 12.986 8.033,12.411 8.061,12.212 8.169 M32.519 8.133 C 32.412 8.185,32.255 8.346,32.169 8.492 C 32.025 8.736,32.013 10.193,32.013 28.047 L 32.013 47.339 32.331 47.656 L 32.648 47.973 34.995 47.973 C 37.963 47.973,38.080 47.929,38.080 46.813 C 38.080 46.527,38.117 46.293,38.163 46.293 C 38.208 46.293,38.597 46.480,39.026 46.707 C 40.529 47.504,41.817 47.864,43.447 47.944 C 45.388 48.038,46.943 47.715,48.687 46.856 C 52.381 45.035,54.923 41.355,55.781 36.587 C 56.008 35.326,56.006 32.672,55.777 31.360 C 54.749 25.475,50.798 21.067,45.733 20.154 C 44.902 20.004,42.944 20.025,42.085 20.193 C 41.039 20.398,40.009 20.767,39.034 21.286 C 38.558 21.539,38.149 21.747,38.124 21.747 C 38.100 21.747,38.080 18.804,38.080 15.207 C 38.080 10.901,38.047 8.606,37.984 8.488 C 37.759 8.069,37.484 8.026,35.028 8.033 C 33.675 8.037,32.633 8.078,32.519 8.133 M17.170 25.221 L 19.194 31.967 15.136 31.991 C 12.904 32.004,11.060 31.998,11.039 31.976 C 11.017 31.955,11.913 28.889,13.031 25.164 C 14.148 21.439,15.081 18.410,15.104 18.433 C 15.127 18.456,16.057 21.510,17.170 25.221 M45.627 26.354 C 49.028 27.736,50.810 32.332,49.649 36.727 C 49.093 38.836,47.686 40.653,45.967 41.486 C 44.874 42.016,44.011 42.125,42.998 41.861 C 40.819 41.293,38.985 39.213,38.306 36.540 C 38.083 35.663,38.071 35.496,38.106 33.787 C 38.146 31.850,38.220 31.413,38.706 30.240 C 39.100 29.289,39.541 28.598,40.200 27.899 C 41.852 26.148,43.773 25.601,45.627 26.354 M0.506 52.163 C 0.055 52.438,-0.019 52.739,0.016 54.169 C 0.046 55.411,0.052 55.441,0.305 55.695 L 0.564 55.953 28.000 55.953 L 55.436 55.953 55.695 55.695 C 55.949 55.441,55.954 55.414,55.984 54.140 C 56.008 53.094,55.985 52.789,55.865 52.557 C 55.545 51.938,57.936 51.987,27.981 51.987 C 1.547 51.987,0.785 51.992,0.506 52.163 " fill="#2B2C30" stroke="none" fill-rule="evenodd"></path></svg>