<svg width="46" height="42" viewBox="0 0 46 42" fill="none" xmlns="http://www.w3.org/2000/svg"><path d="M11.451 0.083 C 10.957 0.227,10.480 0.629,10.237 1.106 L 10.005 1.561 9.983 5.802 L 9.962 10.043 5.724 10.043 L 1.487 10.043 1.090 10.241 C 0.872 10.350,0.588 10.572,0.458 10.735 C -0.034 11.358,-0.004 10.274,0.018 26.144 L 0.038 40.595 0.204 40.902 C 0.398 41.261,0.781 41.639,1.127 41.813 C 1.350 41.926,2.857 41.937,17.970 41.937 C 29.171 41.937,34.634 41.911,34.774 41.858 C 35.163 41.710,35.563 41.321,35.780 40.879 L 35.995 40.442 36.017 36.247 L 36.038 32.053 40.233 32.031 L 44.428 32.008 44.866 31.793 C 45.117 31.670,45.404 31.451,45.540 31.280 C 46.035 30.655,46.004 31.744,45.982 15.870 L 45.962 1.418 45.794 1.104 C 45.611 0.764,45.223 0.389,44.830 0.174 C 44.595 0.046,43.706 0.038,28.137 0.026 C 18.399 0.018,11.594 0.042,11.451 0.083 M40.020 15.985 L 40.020 25.990 38.029 25.990 L 36.037 25.990 36.016 18.764 C 35.993 10.724,36.032 11.302,35.464 10.673 C 35.311 10.503,35.032 10.292,34.844 10.204 C 34.502 10.044,34.483 10.043,25.263 10.043 L 16.023 10.043 16.023 8.012 L 16.023 5.980 28.022 5.980 L 40.020 5.980 40.020 15.985 M29.977 26.028 L 29.977 36.033 17.978 36.033 L 5.980 36.033 5.980 26.028 L 5.980 16.023 17.978 16.023 L 29.977 16.023 29.977 26.028 " fill="#2B2C30" stroke="none" fill-rule="evenodd"></path></svg>