<svg width="44" height="56" viewBox="0 0 44 56" fill="none" xmlns="http://www.w3.org/2000/svg"><path d="M3.190 0.085 C 1.713 0.367,0.329 1.795,0.075 3.300 C 0.018 3.641,0.001 10.768,0.016 28.307 L 0.037 52.837 0.227 53.326 C 0.701 54.543,1.575 55.402,2.749 55.806 C 3.172 55.952,3.353 55.953,22.000 55.953 C 40.647 55.953,40.828 55.952,41.251 55.806 C 42.425 55.402,43.299 54.543,43.773 53.326 L 43.963 52.837 43.983 39.435 L 44.002 26.033 40.004 26.033 L 36.007 26.033 36.007 23.027 L 36.007 20.020 40.003 20.020 L 44.000 20.020 44.000 18.337 C 44.000 17.399,43.965 16.489,43.920 16.281 C 43.876 16.076,43.719 15.733,43.572 15.519 C 43.163 14.925,29.076 1.021,28.518 0.660 C 28.266 0.497,27.844 0.291,27.579 0.201 L 27.097 0.037 15.327 0.026 C 8.115 0.019,3.415 0.042,3.190 0.085 M29.590 10.011 L 33.623 14.002 31.808 14.004 L 29.993 14.007 29.993 22.990 L 29.993 31.973 33.990 31.973 L 37.987 31.973 37.987 40.993 L 37.987 50.013 22.000 50.013 L 6.013 50.013 6.013 28.013 L 6.013 6.013 15.785 6.017 L 25.557 6.020 29.590 10.011 M12.563 36.149 C 12.015 36.398,12.027 36.312,12.028 40.018 C 12.029 42.499,12.051 43.348,12.120 43.484 C 12.171 43.584,12.324 43.741,12.460 43.833 C 12.695 43.991,12.778 44.000,13.984 44.000 C 15.406 44.000,15.589 43.954,15.843 43.538 C 15.979 43.315,15.986 43.147,15.986 40.051 C 15.987 36.363,15.995 36.424,15.443 36.157 C 15.172 36.025,14.994 36.007,14.002 36.008 C 13.049 36.010,12.822 36.032,12.563 36.149 M20.558 36.158 C 20.012 36.428,20.020 36.370,20.020 40.051 C 20.021 43.147,20.027 43.315,20.164 43.538 C 20.417 43.953,20.603 44.000,22.000 44.000 C 23.397 44.000,23.583 43.953,23.836 43.538 C 23.973 43.315,23.979 43.147,23.980 40.051 C 23.980 36.363,23.988 36.424,23.437 36.157 C 23.166 36.025,22.985 36.007,21.995 36.007 C 21.000 36.007,20.827 36.025,20.558 36.158 M28.637 36.110 C 28.516 36.164,28.334 36.297,28.233 36.406 L 28.050 36.605 28.029 39.896 C 28.007 43.544,28.010 43.573,28.467 43.851 C 28.686 43.985,28.836 43.999,29.979 44.000 C 31.392 44.000,31.576 43.954,31.830 43.538 C 31.966 43.314,31.973 43.147,31.973 40.012 C 31.973 36.838,31.968 36.712,31.825 36.481 C 31.583 36.088,31.260 36.006,29.974 36.010 C 29.207 36.012,28.788 36.043,28.637 36.110 " fill="#2B2C30" stroke="none" fill-rule="evenodd"></path></svg>