<svg width="48" height="38" viewBox="0 0 48 38" fill="none" xmlns="http://www.w3.org/2000/svg"><path d="M0.504 0.157 C 0.018 0.453,-0.000 0.556,0.000 3.016 C 0.001 5.081,0.012 5.258,0.157 5.496 C 0.492 6.045,-1.652 6.000,24.016 6.000 C 46.909 5.999,47.244 5.997,47.496 5.843 C 47.981 5.547,48.000 5.442,48.000 3.000 C 48.000 0.558,47.981 0.453,47.496 0.157 C 47.244 0.003,46.909 0.001,24.000 0.001 C 1.091 0.001,0.756 0.003,0.504 0.157 M0.504 16.157 C 0.018 16.453,-0.000 16.556,0.000 19.016 C 0.001 21.081,0.012 21.258,0.157 21.496 C 0.492 22.045,-1.652 22.000,24.016 22.000 C 46.909 21.999,47.244 21.997,47.496 21.843 C 47.981 21.547,48.000 21.442,48.000 19.000 C 48.000 16.558,47.981 16.453,47.496 16.157 C 47.244 16.003,46.909 16.001,24.000 16.001 C 1.091 16.001,0.756 16.003,0.504 16.157 M0.504 32.157 C 0.018 32.453,-0.000 32.556,0.000 35.016 C 0.001 37.081,0.012 37.258,0.157 37.496 C 0.492 38.045,-1.652 38.000,24.016 38.000 C 46.909 37.999,47.244 37.997,47.496 37.843 C 47.981 37.547,48.000 37.442,48.000 35.000 C 48.000 32.558,47.981 32.453,47.496 32.157 C 47.244 32.003,46.909 32.001,24.000 32.001 C 1.091 32.001,0.756 32.003,0.504 32.157 " fill="#2B2C30" stroke="none" fill-rule="evenodd"></path></svg>