<svg width="36" height="54" viewBox="0 0 36 54" fill="none" xmlns="http://www.w3.org/2000/svg"><path d="M17.220 0.038 C 16.134 0.175,15.220 0.451,14.328 0.909 C 12.083 2.062,10.550 4.162,10.112 6.683 C 9.975 7.478,9.973 26.533,10.110 27.323 C 10.388 28.916,11.117 30.359,12.226 31.510 C 13.423 32.753,14.751 33.486,16.459 33.849 C 17.320 34.032,18.680 34.032,19.541 33.849 C 21.249 33.486,22.577 32.753,23.774 31.510 C 24.878 30.365,25.613 28.909,25.890 27.323 C 26.027 26.533,26.025 7.478,25.888 6.683 C 25.317 3.395,22.852 0.842,19.604 0.176 C 19.009 0.054,17.692 -0.022,17.220 0.038 M18.876 6.210 C 19.280 6.408,19.698 6.870,19.857 7.297 C 19.981 7.626,19.981 7.659,19.966 17.089 L 19.950 26.550 19.815 26.825 C 19.595 27.270,19.290 27.578,18.855 27.792 C 18.510 27.962,18.394 27.988,18.000 27.988 C 17.606 27.988,17.490 27.962,17.145 27.792 C 16.710 27.578,16.405 27.270,16.185 26.825 L 16.050 26.550 16.034 17.089 C 16.019 7.690,16.020 7.625,16.141 7.300 C 16.280 6.931,16.635 6.495,16.964 6.291 C 17.499 5.961,18.297 5.927,18.876 6.210 M0.570 22.113 C 0.294 22.259,0.193 22.372,0.085 22.655 C -0.003 22.886,-0.011 23.172,0.017 25.242 C 0.040 26.922,0.076 27.762,0.147 28.260 C 0.452 30.413,0.956 32.083,1.860 33.930 C 3.613 37.512,6.464 40.364,10.050 42.123 C 11.582 42.875,13.048 43.371,14.655 43.682 L 15.000 43.749 15.000 45.874 L 15.000 48.000 10.899 48.000 L 6.799 48.000 6.538 48.138 C 6.359 48.233,6.233 48.359,6.138 48.538 C 6.001 48.797,6.000 48.818,6.000 51.000 C 6.000 53.182,6.001 53.203,6.138 53.462 C 6.233 53.641,6.359 53.767,6.538 53.862 L 6.799 54.000 18.000 54.000 L 29.201 54.000 29.462 53.862 C 29.641 53.767,29.767 53.641,29.862 53.462 C 29.999 53.203,30.000 53.182,30.000 51.000 C 30.000 48.818,29.999 48.797,29.862 48.538 C 29.767 48.359,29.641 48.233,29.462 48.138 L 29.201 48.000 25.101 48.000 L 21.000 48.000 21.000 45.874 L 21.000 43.749 21.345 43.682 C 24.746 43.024,27.973 41.359,30.463 38.978 C 33.035 36.519,34.914 33.123,35.609 29.678 C 35.906 28.202,35.950 27.690,35.983 25.242 C 36.018 22.614,36.008 22.529,35.594 22.214 L 35.379 22.050 33.005 22.050 L 30.630 22.050 30.434 22.190 C 30.032 22.476,30.034 22.465,29.993 25.020 C 29.955 27.423,29.917 27.835,29.633 28.947 C 28.541 33.226,25.170 36.579,20.889 37.645 C 19.806 37.915,19.471 37.950,18.000 37.950 C 16.529 37.950,16.194 37.915,15.111 37.645 C 10.874 36.590,7.496 33.265,6.401 29.070 C 6.082 27.851,6.046 27.481,6.007 25.020 C 5.966 22.465,5.968 22.476,5.566 22.190 L 5.370 22.050 3.060 22.034 C 1.049 22.021,0.727 22.031,0.570 22.113 " fill="#2B2C30" stroke="none" fill-rule="evenodd"></path></svg>