<svg width="56" height="41" viewBox="0 0 56 41" fill="none" xmlns="http://www.w3.org/2000/svg"><path d="M0.607 0.086 C 0.504 0.129,0.336 0.258,0.233 0.372 C 0.048 0.578,0.046 0.728,0.023 19.945 L -0.001 39.311 0.317 39.629 L 0.635 39.947 3.031 39.947 L 5.428 39.947 5.701 39.674 L 5.973 39.401 5.973 29.765 C 5.973 24.465,5.993 20.149,6.018 20.173 C 6.042 20.197,7.241 24.142,8.683 28.939 C 10.125 33.735,11.431 38.075,11.586 38.581 C 11.777 39.206,11.946 39.574,12.108 39.725 L 12.347 39.947 15.001 39.947 L 17.654 39.947 17.920 39.681 C 18.065 39.536,18.230 39.252,18.286 39.051 C 18.341 38.851,19.644 34.508,21.180 29.400 L 23.974 20.113 24.004 29.758 L 24.033 39.402 24.338 39.674 L 24.643 39.947 27.029 39.947 L 29.414 39.947 29.679 39.682 C 29.856 39.505,29.963 39.280,30.003 39.005 C 30.035 38.779,30.049 30.067,30.034 19.647 C 30.004 -0.984,30.045 0.481,29.487 0.151 C 29.269 0.023,28.877 0.000,26.866 0.000 C 24.102 0.001,24.023 0.021,23.767 0.809 C 23.687 1.057,21.705 7.749,19.362 15.680 C 17.020 23.611,15.086 30.118,15.065 30.139 C 15.044 30.160,15.027 30.154,15.027 30.124 C 15.027 30.094,13.030 23.420,10.590 15.292 C 6.940 3.130,6.113 0.472,5.922 0.280 L 5.689 0.047 3.241 0.027 C 1.895 0.016,0.709 0.043,0.607 0.086 M40.023 0.097 C 39.036 0.248,38.317 0.475,37.380 0.930 C 34.717 2.222,32.863 4.634,32.248 7.607 C 32.043 8.595,32.043 10.445,32.248 11.433 C 32.601 13.141,33.430 14.784,34.554 16.003 C 34.990 16.476,37.349 18.374,42.300 22.236 C 47.471 26.268,49.505 27.907,49.732 28.224 C 50.322 29.050,50.585 30.171,50.410 31.117 C 50.100 32.793,48.853 34.020,47.220 34.256 C 46.450 34.367,41.576 34.369,40.811 34.259 C 39.379 34.052,38.241 33.115,37.758 31.747 C 37.680 31.527,37.577 31.024,37.528 30.630 C 37.450 30.004,37.403 29.882,37.151 29.657 L 36.864 29.400 34.816 29.400 C 33.428 29.400,32.690 29.436,32.524 29.512 C 32.000 29.750,31.894 30.479,32.151 32.060 C 32.743 35.700,35.292 38.606,38.833 39.680 C 39.499 39.882,39.689 39.892,43.672 39.924 C 47.232 39.953,47.923 39.936,48.570 39.805 C 51.990 39.112,54.753 36.423,55.693 32.873 C 55.898 32.094,55.933 31.763,55.939 30.520 C 55.945 28.970,55.805 28.167,55.300 26.880 C 54.858 25.752,53.859 24.249,53.066 23.520 C 52.926 23.392,49.635 20.809,45.752 17.780 C 40.679 13.823,38.593 12.142,38.340 11.807 C 37.795 11.085,37.583 10.335,37.632 9.301 C 37.664 8.620,37.723 8.340,37.924 7.922 C 38.429 6.868,39.333 6.103,40.393 5.831 C 40.882 5.706,41.496 5.687,44.315 5.711 L 47.657 5.740 48.369 6.092 C 49.147 6.477,49.640 6.958,50.109 7.788 C 50.539 8.550,50.670 8.587,52.990 8.587 C 54.144 8.587,55.063 8.546,55.233 8.486 C 55.867 8.265,55.951 7.679,55.528 6.437 C 54.477 3.347,52.120 1.141,48.923 0.257 C 48.254 0.072,47.955 0.058,44.380 0.037 C 42.275 0.025,40.315 0.052,40.023 0.097 " fill="#2B2C30" stroke="none" fill-rule="evenodd"></path></svg>