<svg width="60" height="60" viewBox="0 0 60 60" fill="none" xmlns="http://www.w3.org/2000/svg"><path d="M27.550 0.110 C 19.501 0.769,11.886 4.763,6.821 10.982 C -0.333 19.767,-1.971 31.518,2.501 41.965 C 3.147 43.473,3.992 45.011,5.058 46.618 C 12.500 57.836,26.598 62.702,39.400 58.470 C 49.033 55.285,56.454 47.389,59.010 37.603 C 61.177 29.306,59.710 20.568,54.942 13.382 C 48.934 4.325,38.401 -0.778,27.550 0.110 M33.550 6.245 C 43.184 7.755,50.997 14.862,53.288 24.200 C 53.830 26.411,53.943 27.410,53.942 30.000 C 53.942 32.642,53.820 33.685,53.248 35.937 C 51.031 44.662,43.988 51.490,35.200 53.436 C 32.543 54.024,29.022 54.152,26.450 53.753 C 17.694 52.396,10.483 46.476,7.414 38.125 C 6.949 36.860,6.476 34.990,6.230 33.450 C 5.984 31.906,5.984 28.094,6.230 26.550 C 7.266 20.048,10.573 14.550,15.779 10.676 C 19.158 8.160,23.166 6.607,27.576 6.102 C 28.705 5.973,32.372 6.061,33.550 6.245 M14.511 27.140 C 14.043 27.399,14.007 27.599,14.004 29.980 C 14.000 32.405,14.046 32.652,14.547 32.881 C 14.747 32.971,18.438 33.000,30.010 33.000 C 46.537 33.000,45.617 33.032,45.881 32.453 C 46.046 32.089,46.046 27.911,45.881 27.547 C 45.617 26.968,46.541 27.000,29.980 27.004 C 17.530 27.006,14.706 27.031,14.511 27.140 " fill="#2B2C30" stroke="none" fill-rule="evenodd"></path></svg>