<svg width="40" height="56" viewBox="0 0 40 56" fill="none" xmlns="http://www.w3.org/2000/svg"><path d="M18.667 0.042 C 12.796 0.480,7.525 3.338,4.014 7.989 C 1.990 10.669,0.758 13.649,0.178 17.266 C 0.034 18.160,0.033 18.235,0.033 28.000 C 0.033 37.765,0.034 37.840,0.178 38.734 C 1.066 44.271,3.688 48.721,7.983 51.979 C 10.644 53.998,13.701 55.262,17.266 55.818 C 18.572 56.022,21.428 56.022,22.734 55.818 C 26.299 55.262,29.356 53.998,32.017 51.979 C 35.996 48.961,38.695 44.644,39.628 39.807 C 39.975 38.006,39.967 38.296,39.967 28.000 C 39.967 17.704,39.975 17.994,39.628 16.193 C 38.618 10.956,35.524 6.316,31.067 3.355 C 28.452 1.618,25.682 0.587,22.500 0.165 C 21.720 0.062,19.400 -0.012,18.667 0.042 M17.000 12.667 L 17.000 19.000 11.533 19.000 L 6.067 19.000 6.067 18.742 C 6.067 18.306,6.334 16.875,6.567 16.067 C 7.242 13.721,8.488 11.690,10.353 9.893 C 11.610 8.682,12.972 7.773,14.500 7.127 C 15.203 6.829,16.683 6.345,16.917 6.336 C 16.983 6.334,17.000 7.643,17.000 12.667 M23.911 6.561 C 26.060 7.180,28.009 8.312,29.648 9.893 C 31.243 11.431,32.324 13.049,33.098 15.052 C 33.502 16.099,33.933 18.029,33.933 18.792 L 33.933 19.000 28.467 19.000 L 23.000 19.000 23.000 12.667 C 23.000 8.856,23.024 6.333,23.061 6.333 C 23.095 6.333,23.478 6.436,23.911 6.561 M34.000 30.750 C 34.000 34.085,33.972 36.808,33.933 37.233 C 33.691 39.874,32.771 42.286,31.211 44.378 C 30.681 45.088,29.485 46.332,28.806 46.880 C 23.652 51.034,16.348 51.034,11.194 46.880 C 10.515 46.332,9.319 45.088,8.789 44.378 C 7.237 42.298,6.329 39.927,6.068 37.276 C 6.028 36.867,6.000 34.229,6.000 30.793 L 6.000 25.000 20.000 25.000 L 34.000 25.000 34.000 30.750 " fill="#2B2C30" stroke="none" fill-rule="evenodd"></path></svg>