<svg width="40" height="56" viewBox="0 0 40 56" fill="none" xmlns="http://www.w3.org/2000/svg"><path d="M18.667 0.042 C 12.796 0.480,7.525 3.338,4.014 7.989 C 1.990 10.669,0.758 13.649,0.178 17.266 C 0.034 18.160,0.033 18.235,0.033 28.000 C 0.033 37.765,0.034 37.840,0.178 38.734 C 1.066 44.271,3.688 48.721,7.983 51.979 C 10.644 53.998,13.701 55.262,17.266 55.818 C 18.572 56.022,21.428 56.022,22.734 55.818 C 26.299 55.262,29.356 53.998,32.017 51.979 C 35.996 48.961,38.695 44.644,39.628 39.807 C 39.975 38.006,39.967 38.296,39.967 28.000 C 39.967 17.704,39.975 17.994,39.628 16.193 C 38.618 10.956,35.524 6.316,31.067 3.355 C 28.452 1.618,25.682 0.587,22.500 0.165 C 21.720 0.062,19.400 -0.012,18.667 0.042 M22.131 6.175 C 24.510 6.521,26.787 7.519,28.740 9.073 C 29.519 9.693,30.803 11.038,31.347 11.804 C 32.514 13.447,33.345 15.332,33.695 17.133 C 33.755 17.445,33.819 17.767,33.837 17.850 L 33.869 18.000 26.935 18.000 L 20.000 18.000 20.000 11.991 L 20.000 5.982 20.717 6.028 C 21.111 6.053,21.747 6.119,22.131 6.175 M33.983 30.717 C 33.957 38.105,33.968 37.880,33.528 39.588 C 32.464 43.714,29.346 47.283,25.367 48.932 C 21.067 50.713,16.100 50.231,12.261 47.661 C 11.396 47.082,10.776 46.559,9.964 45.724 C 7.677 43.370,6.368 40.518,6.067 37.233 C 6.028 36.803,6.000 33.921,6.000 30.250 L 6.000 24.000 20.003 24.000 L 34.006 24.000 33.983 30.717 " fill="#2B2C30" stroke="none" fill-rule="evenodd"></path></svg>