<svg width="48" height="48" viewBox="0 0 48 48" fill="none" xmlns="http://www.w3.org/2000/svg"><path d="M1.327 0.126 C 0.872 0.293,0.514 0.594,0.262 1.023 L 0.040 1.400 0.018 7.825 C 0.004 12.129,0.024 14.352,0.080 14.561 C 0.203 15.017,0.625 15.522,1.078 15.756 L 1.475 15.960 4.218 15.983 L 6.960 16.006 6.960 18.523 L 6.960 21.040 3.480 21.040 L 0.000 21.040 0.000 24.040 L 0.000 27.040 9.480 27.040 L 18.960 27.040 18.960 29.517 L 18.960 31.994 16.218 32.017 L 13.475 32.040 13.078 32.244 C 12.625 32.478,12.203 32.983,12.080 33.439 C 12.024 33.648,12.004 35.871,12.018 40.175 L 12.040 46.600 12.262 46.977 C 12.384 47.185,12.602 47.445,12.747 47.556 C 13.354 48.019,12.969 48.000,21.996 48.000 C 31.327 48.000,30.769 48.035,31.402 47.402 C 32.025 46.779,32.000 47.089,32.000 40.000 C 32.000 32.911,32.025 33.221,31.402 32.598 C 30.830 32.026,30.667 32.000,27.666 32.000 L 25.040 32.000 25.040 29.520 L 25.040 27.040 36.520 27.040 L 48.000 27.040 48.000 24.040 L 48.000 21.040 44.520 21.040 L 41.040 21.040 41.040 18.520 L 41.040 16.000 43.666 16.000 C 46.667 16.000,46.830 15.974,47.402 15.402 C 48.025 14.779,48.000 15.089,48.000 8.000 C 48.000 0.911,48.025 1.221,47.402 0.598 C 46.769 -0.035,47.327 -0.000,37.996 -0.000 C 28.969 0.000,29.354 -0.019,28.747 0.444 C 28.602 0.555,28.384 0.815,28.262 1.023 L 28.040 1.400 28.018 7.825 C 28.004 12.129,28.024 14.352,28.080 14.561 C 28.203 15.017,28.625 15.522,29.078 15.756 L 29.475 15.960 32.218 15.983 L 34.960 16.006 34.960 18.523 L 34.960 21.040 24.000 21.040 L 13.040 21.040 13.040 18.520 L 13.040 16.000 15.666 16.000 C 18.667 16.000,18.830 15.974,19.402 15.402 C 20.025 14.779,20.000 15.089,20.000 8.000 C 20.000 0.911,20.025 1.221,19.402 0.598 C 18.768 -0.036,19.332 -0.001,9.966 0.006 C 2.949 0.010,1.591 0.029,1.327 0.126 M14.000 8.000 L 14.000 10.000 10.000 10.000 L 6.000 10.000 6.000 8.000 L 6.000 6.000 10.000 6.000 L 14.000 6.000 14.000 8.000 M42.000 8.000 L 42.000 10.000 38.000 10.000 L 34.000 10.000 34.000 8.000 L 34.000 6.000 38.000 6.000 L 42.000 6.000 42.000 8.000 M26.000 40.000 L 26.000 42.000 22.000 42.000 L 18.000 42.000 18.000 40.000 L 18.000 38.000 22.000 38.000 L 26.000 38.000 26.000 40.000 " fill="#2B2C30" stroke="none" fill-rule="evenodd"></path></svg>