<svg width="55" height="55" viewBox="0 0 55 55" fill="none" xmlns="http://www.w3.org/2000/svg"><path d="M0.000 2.017 L 0.000 4.033 2.017 4.033 L 4.033 4.033 4.033 2.017 L 4.033 0.000 2.017 0.000 L 0.000 0.000 0.000 2.017 M8.158 2.017 L 8.158 4.033 10.175 4.033 L 12.192 4.033 12.192 2.017 L 12.192 0.000 10.175 0.000 L 8.158 0.000 8.158 2.017 M16.225 2.017 L 16.225 4.033 18.242 4.033 L 20.258 4.033 20.258 2.017 L 20.258 0.000 18.242 0.000 L 16.225 0.000 16.225 2.017 M24.383 2.017 L 24.383 4.033 26.400 4.033 L 28.417 4.033 28.417 2.017 L 28.417 0.000 26.400 0.000 L 24.383 0.000 24.383 2.017 M32.450 2.017 L 32.450 4.033 34.467 4.033 L 36.483 4.033 36.483 2.017 L 36.483 0.000 34.467 0.000 L 32.450 0.000 32.450 2.017 M40.608 2.017 L 40.608 4.033 42.625 4.033 L 44.642 4.033 44.642 2.017 L 44.642 0.000 42.625 0.000 L 40.608 0.000 40.608 2.017 M0.000 10.175 L 0.000 12.192 2.017 12.192 L 4.033 12.192 4.033 10.175 L 4.033 8.158 2.017 8.158 L 0.000 8.158 0.000 10.175 M9.304 8.310 C 8.902 8.522,8.532 8.890,8.333 9.278 C 8.164 9.607,8.158 10.000,8.158 22.274 C 8.158 33.509,8.174 34.969,8.301 35.272 C 8.489 35.724,8.855 36.102,9.304 36.310 C 9.649 36.469,10.030 36.479,15.830 36.481 L 21.989 36.483 20.773 33.481 L 19.558 30.479 16.883 30.455 L 14.208 30.431 14.208 22.319 L 14.208 14.208 22.319 14.208 L 30.431 14.208 30.455 16.886 L 30.479 19.563 33.481 20.776 L 36.483 21.989 36.481 15.830 C 36.479 10.031,36.469 9.649,36.310 9.304 C 36.102 8.855,35.724 8.489,35.272 8.301 C 34.969 8.174,33.513 8.159,22.255 8.162 C 10.888 8.165,9.551 8.181,9.304 8.310 M40.608 10.177 L 40.608 12.195 42.602 12.171 L 44.596 12.146 44.621 10.152 L 44.645 8.158 42.627 8.158 L 40.608 8.158 40.608 10.177 M0.000 18.242 L 0.000 20.258 2.017 20.258 L 4.033 20.258 4.033 18.242 L 4.033 16.225 2.017 16.225 L 0.000 16.225 0.000 18.242 M40.608 18.242 L 40.608 20.258 42.625 20.258 L 44.642 20.258 44.642 18.242 L 44.642 16.225 42.625 16.225 L 40.608 16.225 40.608 18.242 M20.781 20.626 C 20.652 20.728,20.499 20.956,20.440 21.133 C 20.338 21.443,20.562 22.024,26.946 37.986 C 31.409 49.145,33.627 54.582,33.770 54.717 C 34.226 55.145,35.048 55.015,35.324 54.471 C 35.394 54.334,36.579 51.210,37.958 47.529 C 39.422 43.619,40.542 40.760,40.651 40.651 C 40.760 40.542,43.619 39.422,47.529 37.958 C 51.210 36.579,54.336 35.392,54.476 35.321 C 55.023 35.044,55.148 34.170,54.701 33.757 C 54.588 33.653,47.125 30.614,38.117 27.005 C 26.122 22.198,21.642 20.442,21.377 20.442 C 21.154 20.442,20.927 20.512,20.781 20.626 M0.000 26.400 L 0.000 28.417 2.017 28.417 L 4.033 28.417 4.033 26.400 L 4.033 24.383 2.017 24.383 L 0.000 24.383 0.000 26.400 M35.567 32.541 C 37.861 33.459,39.775 34.232,39.820 34.260 C 39.865 34.288,39.514 34.461,39.040 34.645 C 36.892 35.477,35.532 36.822,34.686 38.946 C 34.478 39.469,34.286 39.861,34.259 39.817 C 34.220 39.755,31.576 33.173,30.701 30.963 L 30.529 30.529 30.963 30.701 C 31.201 30.795,33.273 31.623,35.567 32.541 M0.000 34.467 L 0.000 36.483 2.017 36.483 L 4.033 36.483 4.033 34.467 L 4.033 32.450 2.017 32.450 L 0.000 32.450 0.000 34.467 M0.000 42.625 L 0.000 44.642 2.017 44.642 L 4.033 44.642 4.033 42.625 L 4.033 40.608 2.017 40.608 L 0.000 40.608 0.000 42.625 M8.158 42.627 L 8.158 44.645 10.152 44.621 L 12.146 44.596 12.171 42.602 L 12.195 40.608 10.177 40.608 L 8.158 40.608 8.158 42.627 M16.225 42.625 L 16.225 44.642 18.242 44.642 L 20.258 44.642 20.258 42.625 L 20.258 40.608 18.242 40.608 L 16.225 40.608 16.225 42.625 " fill="#2B2C30" stroke="none" fill-rule="evenodd"></path></svg>