<svg width="56" height="56" viewBox="0 0 56 56" fill="none" xmlns="http://www.w3.org/2000/svg"><path d="M16.613 0.150 C 16.331 0.225,15.882 0.419,15.616 0.580 C 14.938 0.989,0.744 15.209,0.476 15.747 C -0.013 16.726,0.000 16.388,0.000 28.056 C 0.000 38.593,0.005 38.917,0.184 39.497 C 0.286 39.826,0.494 40.282,0.647 40.511 C 1.098 41.186,15.289 55.295,15.747 55.524 C 16.726 56.013,16.393 56.000,28.000 56.000 C 39.886 56.000,39.384 56.024,40.383 55.421 C 41.020 55.036,55.134 40.910,55.471 40.320 C 56.017 39.362,56.000 39.766,56.000 28.000 C 56.000 16.234,56.017 16.638,55.471 15.680 C 55.134 15.090,41.020 0.964,40.383 0.579 C 39.383 -0.024,39.894 -0.001,27.957 0.006 C 18.732 0.011,17.051 0.033,16.613 0.150 M43.750 12.250 L 50.027 18.526 50.027 28.000 L 50.027 37.474 43.750 43.750 L 37.473 50.027 28.000 50.027 L 18.527 50.027 12.250 43.750 L 5.973 37.474 5.973 28.001 L 5.973 18.527 12.250 12.250 L 18.526 5.973 27.999 5.973 L 37.473 5.973 43.750 12.250 " fill="#2B2C30" stroke="none" fill-rule="evenodd"></path></svg>