<svg width="60" height="61" viewBox="0 0 60 61" fill="none" xmlns="http://www.w3.org/2000/svg"><path d="M27.489 0.150 C 27.345 0.228,27.176 0.417,27.112 0.571 C 27.027 0.778,27.004 4.929,27.024 16.734 L 27.050 32.617 27.331 32.859 C 27.610 33.099,27.619 33.100,30.000 33.100 C 32.381 33.100,32.390 33.099,32.669 32.859 L 32.950 32.617 32.976 16.734 C 32.996 4.907,32.973 0.779,32.887 0.570 C 32.672 0.047,32.426 -0.000,29.980 0.004 C 28.249 0.007,27.692 0.040,27.489 0.150 M20.179 1.799 C 17.778 2.580,14.949 4.037,12.600 5.705 C 9.710 7.757,6.926 10.648,4.954 13.648 C 0.344 20.658,-1.106 29.170,0.910 37.386 C 3.654 48.572,12.916 57.379,24.200 59.532 C 26.527 59.976,27.326 60.047,30.000 60.047 C 32.674 60.047,33.473 59.976,35.800 59.532 C 45.197 57.739,53.393 51.240,57.336 42.455 C 60.665 35.037,60.853 26.464,57.851 19.000 C 55.127 12.228,49.929 6.575,43.430 3.315 C 41.454 2.324,39.204 1.489,38.745 1.577 C 38.609 1.603,38.386 1.757,38.249 1.920 L 38.000 2.215 38.000 4.650 C 38.000 7.074,38.001 7.086,38.240 7.370 C 38.372 7.527,38.743 7.762,39.065 7.892 C 40.179 8.344,42.168 9.399,43.207 10.090 C 47.794 13.140,51.156 17.568,52.839 22.778 C 53.571 25.044,53.880 26.844,53.967 29.350 C 54.406 41.915,45.016 52.664,32.426 54.006 C 30.995 54.158,27.712 54.076,26.302 53.851 C 22.281 53.212,18.228 51.427,15.050 48.896 C 11.000 45.671,8.041 41.095,6.751 36.061 C 6.185 33.853,6.054 32.742,6.054 30.150 C 6.054 27.115,6.310 25.414,7.161 22.778 C 8.846 17.564,12.202 13.142,16.793 10.090 C 17.832 9.399,19.821 8.344,20.935 7.892 C 21.257 7.762,21.628 7.527,21.760 7.370 C 21.999 7.086,22.000 7.074,22.000 4.650 L 22.000 2.215 21.751 1.920 C 21.406 1.509,21.135 1.488,20.179 1.799 " fill="#2B2C30" stroke="none" fill-rule="evenodd"></path></svg>