<svg width="48" height="56" viewBox="0 0 48 56" fill="none" xmlns="http://www.w3.org/2000/svg"><path d="M3.161 0.094 C 1.719 0.369,0.399 1.697,0.088 3.184 C -0.037 3.786,-0.037 52.214,0.088 52.816 C 0.401 54.315,1.685 55.599,3.184 55.912 C 3.775 56.035,16.225 56.035,16.816 55.912 C 18.315 55.599,19.599 54.315,19.912 52.816 C 20.037 52.214,20.037 3.786,19.912 3.184 C 19.594 1.659,18.277 0.363,16.765 0.087 C 16.162 -0.023,3.742 -0.017,3.161 0.094 M31.240 0.082 C 29.836 0.375,28.743 1.325,28.212 2.712 L 28.040 3.160 28.040 28.000 L 28.040 52.840 28.212 53.288 C 28.663 54.468,29.531 55.338,30.700 55.784 L 31.160 55.960 38.000 55.960 L 44.840 55.960 45.300 55.784 C 46.469 55.338,47.337 54.468,47.788 53.288 L 47.960 52.840 47.960 28.000 L 47.960 3.160 47.784 2.700 C 47.338 1.530,46.466 0.662,45.288 0.212 C 44.844 0.043,44.776 0.041,38.200 0.028 C 34.548 0.021,31.416 0.045,31.240 0.082 M14.000 28.000 L 14.000 50.000 10.000 50.000 L 6.000 50.000 6.000 28.000 L 6.000 6.000 10.000 6.000 L 14.000 6.000 14.000 28.000 M42.000 28.000 L 42.000 50.000 38.000 50.000 L 34.000 50.000 34.000 28.000 L 34.000 6.000 38.000 6.000 L 42.000 6.000 42.000 28.000 " fill="#2B2C30" stroke="none" fill-rule="evenodd"></path></svg>