<svg width="48" height="48" viewBox="0 0 48 48" fill="none" xmlns="http://www.w3.org/2000/svg"><path d="M35.800 0.152 C 35.390 0.412,0.173 35.704,0.084 35.945 C 0.028 36.094,0.000 38.053,0.000 41.705 C 0.001 47.054,0.006 47.249,0.157 47.496 C 0.477 48.021,0.219 48.000,6.319 48.000 C 10.881 48.000,11.890 47.980,12.103 47.888 C 12.255 47.822,19.599 40.531,30.133 29.988 C 44.560 15.548,47.916 12.151,47.959 11.940 C 48.086 11.325,48.218 11.475,42.572 5.811 C 39.639 2.870,37.100 0.359,36.928 0.231 C 36.557 -0.043,36.154 -0.072,35.800 0.152 M38.120 9.920 L 39.879 11.681 27.880 23.680 L 15.881 35.679 14.140 33.940 C 13.183 32.984,12.400 32.165,12.400 32.121 C 12.400 32.041,36.241 8.160,36.321 8.160 C 36.343 8.160,37.153 8.952,38.120 9.920 M10.621 40.939 L 9.642 41.920 7.861 41.920 L 6.080 41.920 6.080 40.141 L 6.080 38.362 7.059 37.381 L 8.038 36.399 9.819 38.179 L 11.600 39.958 10.621 40.939 " fill="#2B2C30" stroke="none" fill-rule="evenodd"></path></svg>