<svg width="60" height="58" viewBox="0 0 60 58" fill="none" xmlns="http://www.w3.org/2000/svg"><path d="M28.998 0.129 C 28.749 0.200,28.344 0.370,28.098 0.508 C 27.661 0.752,2.379 19.080,1.515 19.778 C 0.897 20.277,0.445 20.944,0.192 21.727 C -0.224 23.015,-0.446 22.221,5.141 39.385 C 7.922 47.929,10.319 55.141,10.466 55.412 C 11.003 56.398,12.108 57.174,13.296 57.399 C 14.025 57.538,45.975 57.538,46.704 57.399 C 47.892 57.174,48.997 56.398,49.534 55.412 C 49.681 55.141,52.078 47.929,54.859 39.385 C 60.446 22.221,60.224 23.015,59.808 21.727 C 59.555 20.945,59.103 20.278,58.485 19.777 C 57.109 18.664,32.237 0.693,31.690 0.417 C 31.150 0.144,30.886 0.076,30.240 0.042 C 29.769 0.017,29.267 0.053,28.998 0.129 M41.768 15.058 C 48.248 19.765,53.560 23.647,53.572 23.683 C 53.585 23.720,51.575 29.960,49.106 37.550 L 44.618 51.350 30.000 51.350 L 15.382 51.350 10.894 37.550 C 8.425 29.960,6.415 23.720,6.428 23.683 C 6.443 23.636,29.795 6.600,29.968 6.509 C 29.977 6.504,35.287 10.351,41.768 15.058 " fill="#2B2C30" stroke="none" fill-rule="evenodd"></path></svg>