<svg width="48" height="40" viewBox="0 0 48 40" fill="none" xmlns="http://www.w3.org/2000/svg"><path d="M3.240 0.083 C 1.841 0.371,0.743 1.325,0.212 2.712 L 0.040 3.160 0.040 20.000 L 0.040 36.840 0.212 37.288 C 0.663 38.468,1.531 39.338,2.700 39.784 L 3.160 39.960 24.000 39.960 L 44.840 39.960 45.288 39.788 C 46.468 39.337,47.338 38.469,47.784 37.300 L 47.960 36.840 47.960 20.000 L 47.960 3.160 47.784 2.700 C 47.338 1.531,46.468 0.663,45.288 0.212 L 44.840 0.040 24.200 0.028 C 12.848 0.022,3.416 0.046,3.240 0.083 M42.000 20.000 L 42.000 34.000 24.000 34.000 L 6.000 34.000 6.000 20.000 L 6.000 6.000 24.000 6.000 L 42.000 6.000 42.000 20.000 M31.161 8.094 C 29.719 8.369,28.399 9.697,28.088 11.184 C 27.578 13.631,29.502 16.000,32.000 16.000 C 34.159 16.000,36.000 14.159,36.000 12.000 C 36.000 10.954,35.580 9.966,34.807 9.193 C 33.825 8.211,32.554 7.828,31.161 8.094 M17.600 16.089 C 17.490 16.133,15.285 18.281,12.700 20.863 L 8.000 25.557 8.000 28.398 L 8.000 31.240 13.000 26.240 L 17.999 21.241 23.140 26.375 C 28.661 31.890,28.492 31.743,29.076 31.522 C 29.348 31.418,30.841 29.982,31.007 29.664 C 31.159 29.374,31.150 28.881,30.989 28.638 C 30.917 28.529,30.395 27.972,29.829 27.399 L 28.800 26.358 30.400 24.760 L 32.000 23.161 36.000 27.160 L 40.000 31.159 40.000 28.319 L 40.000 25.478 36.218 21.699 L 32.436 17.920 32.001 17.920 L 31.565 17.920 28.762 20.719 L 25.958 23.519 22.439 19.991 C 20.504 18.050,18.760 16.359,18.564 16.231 C 18.195 15.991,17.942 15.954,17.600 16.089 " fill="#2B2C30" stroke="none" fill-rule="evenodd"></path></svg>