<svg width="60" height="60" viewBox="0 0 60 60" fill="none" xmlns="http://www.w3.org/2000/svg"><path d="M27.350 0.112 C 19.518 0.774,12.118 4.630,7.025 10.700 C 3.186 15.276,0.778 20.940,0.148 26.876 C -0.099 29.201,-0.047 29.574,0.568 29.888 C 0.726 29.969,4.743 30.000,15.053 30.000 L 29.320 30.000 29.660 29.660 L 30.000 29.320 30.000 15.065 C 30.000 4.225,29.971 0.747,29.881 0.547 C 29.634 0.006,29.295 -0.052,27.350 0.112 M34.511 0.535 C 34.040 0.805,34.007 0.994,34.004 3.467 L 34.000 5.785 34.251 6.083 C 34.427 6.292,34.657 6.416,35.026 6.500 C 42.309 8.160,48.270 12.808,51.491 19.341 C 52.659 21.709,53.368 23.958,53.762 26.550 C 54.015 28.211,54.018 31.779,53.768 33.400 C 53.148 37.424,51.607 41.164,49.297 44.250 C 45.390 49.469,39.878 52.770,33.400 53.768 C 31.801 54.015,28.222 54.013,26.555 53.765 C 18.921 52.630,12.282 47.917,8.713 41.100 C 7.778 39.313,6.974 37.108,6.500 35.026 C 6.416 34.657,6.292 34.427,6.083 34.251 L 5.785 34.000 3.487 34.000 C 0.953 34.000,0.730 34.044,0.504 34.590 C 0.398 34.846,0.419 35.077,0.646 36.159 C 1.175 38.684,1.941 40.890,3.106 43.250 C 4.409 45.889,5.876 48.042,7.873 50.250 C 11.981 54.790,17.865 58.144,23.837 59.348 C 26.132 59.811,27.402 59.935,29.900 59.940 C 34.011 59.947,37.347 59.332,41.000 57.894 C 50.708 54.072,57.738 45.431,59.543 35.100 C 59.995 32.516,60.091 28.686,59.764 26.300 C 58.823 19.418,55.956 13.559,51.200 8.799 C 47.218 4.813,42.052 1.950,36.700 0.763 C 35.085 0.405,34.791 0.374,34.511 0.535 " fill="#2B2C30" stroke="none" fill-rule="evenodd"></path></svg>