<svg width="40" height="64" viewBox="0 0 40 64" fill="none" xmlns="http://www.w3.org/2000/svg"><path d="M18.667 0.042 C 12.796 0.480,7.525 3.338,4.014 7.989 C 1.990 10.669,0.758 13.649,0.178 17.266 L 0.033 18.167 0.033 32.000 L 0.033 45.833 0.178 46.734 C 1.066 52.271,3.688 56.721,7.983 59.979 C 10.644 61.998,13.701 63.262,17.266 63.818 C 18.572 64.022,21.428 64.022,22.734 63.818 C 26.299 63.262,29.356 61.998,32.017 59.979 C 35.996 56.961,38.695 52.644,39.628 47.807 C 39.980 45.979,39.967 46.606,39.967 32.000 C 39.967 17.394,39.980 18.021,39.628 16.193 C 38.618 10.956,35.524 6.316,31.067 3.355 C 28.452 1.618,25.682 0.587,22.500 0.165 C 21.720 0.062,19.400 -0.012,18.667 0.042 M21.233 6.067 C 23.871 6.309,26.267 7.221,28.378 8.787 C 29.135 9.348,30.652 10.865,31.213 11.622 C 32.779 13.733,33.691 16.129,33.933 18.767 C 34.024 19.764,34.024 44.236,33.933 45.233 C 33.691 47.874,32.771 50.286,31.211 52.378 C 30.681 53.088,29.485 54.332,28.806 54.880 C 23.652 59.034,16.348 59.034,11.194 54.880 C 10.515 54.332,9.319 53.088,8.789 52.378 C 7.240 50.302,6.328 47.922,6.068 45.276 C 5.975 44.333,5.975 19.667,6.068 18.724 C 6.328 16.081,7.233 13.718,8.787 11.622 C 9.348 10.865,10.865 9.348,11.622 8.787 C 14.411 6.718,17.819 5.754,21.233 6.067 " fill="#2B2C30" stroke="none" fill-rule="evenodd"></path></svg>