<svg width="64" height="40" viewBox="0 0 64 40" fill="none" xmlns="http://www.w3.org/2000/svg"><path d="M17.867 0.125 C 12.511 0.665,7.293 3.620,4.057 7.947 C 2.675 9.794,1.837 11.376,1.086 13.556 C -1.392 20.748,0.462 28.718,5.872 34.128 C 9.050 37.306,13.011 39.243,17.547 39.838 C 19.394 40.080,44.606 40.080,46.453 39.838 C 51.004 39.241,54.969 37.297,58.144 34.107 C 65.124 27.092,65.955 16.107,60.106 8.159 C 56.762 3.614,51.560 0.662,45.928 0.113 C 44.485 -0.027,19.274 -0.016,17.867 0.125 M46.720 6.263 C 49.612 6.897,51.839 8.102,53.867 10.132 C 56.597 12.866,57.952 16.137,57.952 20.000 C 57.952 23.862,56.600 27.127,53.867 29.871 C 51.807 31.939,49.472 33.185,46.543 33.781 C 45.664 33.960,44.673 33.973,32.000 33.973 C 19.327 33.973,18.336 33.960,17.457 33.781 C 14.528 33.185,12.193 31.939,10.133 29.871 C 7.400 27.127,6.048 23.862,6.048 20.000 C 6.048 16.137,7.403 12.865,10.133 10.133 C 12.506 7.758,15.297 6.427,18.613 6.085 C 19.083 6.037,25.371 6.008,32.587 6.020 C 45.439 6.041,45.727 6.046,46.720 6.263 " fill="#2B2C30" stroke="none" fill-rule="evenodd"></path></svg>