<svg width="56" height="37" viewBox="0 0 56 37" fill="none" xmlns="http://www.w3.org/2000/svg"><path d="M20.476 0.178 C 20.315 0.276,20.137 0.492,20.079 0.658 C 20.004 0.874,19.973 3.160,19.973 8.601 L 19.973 16.240 10.315 16.240 L 0.656 16.240 0.351 16.512 L 0.047 16.784 0.017 18.075 C -0.017 19.533,0.045 19.797,0.488 20.066 C 0.788 20.249,0.963 20.253,10.382 20.253 L 19.970 20.253 19.995 28.008 L 20.020 35.762 20.325 36.034 C 20.627 36.305,20.638 36.307,21.804 36.307 C 23.181 36.307,23.723 36.178,24.516 35.666 C 24.849 35.450,26.020 34.329,27.533 32.778 L 30.007 30.242 41.142 30.241 C 50.982 30.240,52.352 30.223,52.929 30.092 C 54.125 29.819,55.258 28.837,55.733 27.659 L 55.953 27.113 55.982 18.527 C 56.004 12.179,55.983 9.806,55.901 9.427 C 55.639 8.208,54.855 7.229,53.672 6.644 L 52.976 6.300 41.527 6.275 L 30.077 6.250 27.416 3.519 C 24.616 0.645,24.337 0.417,23.283 0.143 C 22.461 -0.071,20.852 -0.051,20.476 0.178 M38.757 12.228 L 50.028 12.227 50.004 18.223 L 49.980 24.220 38.735 24.244 L 27.490 24.267 26.765 24.988 L 26.040 25.709 26.044 18.198 L 26.048 10.687 26.767 11.458 L 27.487 12.230 38.757 12.228 " fill="#2B2C30" stroke="none" fill-rule="evenodd"></path></svg>