<svg width="48" height="48" viewBox="0 0 48 48" fill="none" xmlns="http://www.w3.org/2000/svg"><path d="M32.540 0.082 C 31.672 0.301,31.716 0.261,23.679 8.288 L 15.957 16.000 11.795 16.000 C 7.310 16.000,7.166 16.011,6.334 16.433 C 5.086 17.065,4.154 18.341,4.032 19.582 L 3.987 20.040 9.274 25.320 L 14.560 30.599 7.324 37.840 C 2.387 42.781,0.072 45.150,0.036 45.301 C -0.083 45.792,0.041 46.003,1.027 46.987 C 1.854 47.812,2.015 47.937,2.294 47.975 C 2.502 48.003,2.695 47.974,2.847 47.894 C 2.975 47.826,6.302 44.546,10.240 40.605 L 17.400 33.440 22.697 38.737 L 27.994 44.034 28.532 43.941 C 30.095 43.674,31.470 42.393,31.873 40.828 C 31.981 40.410,32.000 39.710,32.000 36.149 L 32.000 31.962 39.791 24.161 C 47.229 16.713,47.590 16.338,47.768 15.880 C 47.909 15.515,47.954 15.237,47.955 14.720 C 47.957 14.117,47.928 13.977,47.695 13.480 C 47.445 12.947,47.130 12.618,41.256 6.744 C 35.465 0.952,35.047 0.552,34.543 0.318 C 33.952 0.043,33.095 -0.058,32.540 0.082 M37.040 11.000 L 40.760 14.720 33.380 22.100 L 26.000 29.480 26.000 31.460 C 26.000 32.549,25.973 33.440,25.940 33.440 C 25.907 33.440,23.306 30.866,20.160 27.720 L 14.440 22.000 16.440 22.000 L 18.440 22.000 25.800 14.640 C 29.848 10.592,33.196 7.280,33.240 7.280 C 33.284 7.280,34.994 8.954,37.040 11.000 " fill="#2B2C30" stroke="none" fill-rule="evenodd"></path></svg>