<svg width="44" height="56" viewBox="0 0 44 56" fill="none" xmlns="http://www.w3.org/2000/svg"><path d="M1.854 0.102 C 1.069 0.359,0.411 0.960,0.149 1.661 L -0.001 2.061 0.018 28.145 L 0.037 54.230 0.202 54.566 C 0.454 55.076,0.823 55.463,1.306 55.720 C 1.704 55.932,1.803 55.953,2.401 55.953 C 2.952 55.953,3.110 55.925,3.381 55.780 C 3.558 55.684,12.564 49.826,23.393 42.760 C 36.460 34.236,43.179 29.811,43.369 29.606 C 43.526 29.436,43.719 29.152,43.798 28.975 C 44.191 28.098,43.938 26.902,43.220 26.244 C 42.996 26.039,3.730 0.404,3.303 0.184 C 2.973 0.014,2.248 -0.027,1.854 0.102 M20.739 18.663 C 31.631 25.755,35.022 27.997,34.956 28.062 C 34.909 28.108,28.468 32.312,20.643 37.402 C 12.819 42.493,6.326 46.722,6.215 46.801 L 6.013 46.943 6.013 28.011 L 6.013 9.079 6.224 9.214 C 6.340 9.289,12.872 13.541,20.739 18.663 " fill="#2B2C30" stroke="none" fill-rule="evenodd"></path></svg>