<svg width="44" height="56" viewBox="0 0 44 56" fill="none" xmlns="http://www.w3.org/2000/svg"><path d="M1.854 0.102 C 1.069 0.359,0.411 0.960,0.149 1.661 L -0.001 2.061 0.018 28.145 L 0.037 54.230 0.202 54.566 C 0.454 55.076,0.823 55.463,1.306 55.720 C 1.703 55.931,1.805 55.953,2.389 55.953 C 2.888 55.953,3.101 55.920,3.332 55.806 C 3.496 55.724,5.511 54.428,7.810 52.925 L 11.990 50.193 12.009 46.620 C 12.019 44.655,12.013 43.047,11.996 43.047 C 11.978 43.047,10.625 43.920,8.988 44.986 L 6.013 46.926 6.013 28.002 L 6.013 9.079 6.224 9.214 C 6.340 9.289,12.872 13.541,20.739 18.663 C 31.634 25.757,35.022 27.997,34.956 28.062 C 34.909 28.108,33.567 28.994,31.973 30.029 C 30.380 31.064,29.045 31.942,29.007 31.979 C 28.964 32.020,30.557 32.047,33.114 32.047 C 37.120 32.047,37.300 32.053,37.524 32.190 C 37.797 32.357,37.926 32.567,37.983 32.939 L 38.023 33.207 40.590 31.534 C 43.385 29.712,43.668 29.472,43.887 28.735 C 44.031 28.249,44.030 27.848,43.884 27.355 C 43.750 26.904,43.520 26.519,43.220 26.244 C 42.996 26.039,3.730 0.404,3.303 0.184 C 2.973 0.014,2.248 -0.027,1.854 0.102 M16.493 36.320 C 15.949 36.683,15.987 35.950,15.987 46.017 C 15.987 51.943,16.013 55.129,16.063 55.307 C 16.104 55.456,16.238 55.662,16.361 55.765 L 16.585 55.953 18.989 55.953 C 21.316 55.953,21.400 55.948,21.588 55.800 C 22.025 55.456,22.000 56.055,22.000 46.085 L 22.000 36.943 21.841 36.661 C 21.564 36.167,21.487 36.153,18.975 36.153 C 16.775 36.153,16.738 36.156,16.493 36.320 M28.531 36.287 C 28.394 36.361,28.221 36.534,28.147 36.671 C 28.020 36.909,28.013 37.350,28.013 46.078 C 28.013 54.401,28.024 55.258,28.133 55.487 C 28.350 55.945,28.403 55.953,31.063 55.953 L 33.459 55.953 33.701 55.697 C 33.888 55.498,33.953 55.354,33.988 55.055 C 34.014 54.843,34.024 50.659,34.012 45.757 C 33.991 37.310,33.983 36.833,33.858 36.642 C 33.785 36.531,33.620 36.375,33.491 36.297 C 33.272 36.163,33.108 36.154,31.019 36.154 C 28.991 36.153,28.758 36.166,28.531 36.287 " fill="#2B2C30" stroke="none" fill-rule="evenodd"></path></svg>