<svg width="48" height="48" viewBox="0 0 48 48" fill="none" xmlns="http://www.w3.org/2000/svg"><path d="M21.536 0.134 C 20.961 0.417,21.002 -0.380,20.979 10.900 L 20.958 21.040 10.835 21.040 C -0.336 21.040,0.388 21.006,0.131 21.549 C 0.020 21.783,-0.000 22.155,-0.000 24.036 C -0.000 26.485,0.020 26.595,0.501 26.859 C 0.744 26.991,1.378 27.001,10.859 27.021 L 20.958 27.042 20.979 37.141 C 21.002 48.398,20.959 47.590,21.549 47.869 C 21.959 48.064,26.041 48.064,26.451 47.869 C 27.041 47.590,26.998 48.398,27.021 37.141 L 27.042 27.042 37.141 27.021 C 48.398 26.998,47.590 27.041,47.869 26.451 C 48.064 26.041,48.064 21.959,47.869 21.549 C 47.612 21.006,48.336 21.040,37.165 21.040 L 27.042 21.040 27.021 10.900 C 26.998 -0.403,27.041 0.410,26.451 0.131 C 26.042 -0.063,21.931 -0.061,21.536 0.134 " fill="#2B2C30" stroke="none" fill-rule="evenodd"></path></svg>