<svg width="60" height="60" viewBox="0 0 60 60" fill="none" xmlns="http://www.w3.org/2000/svg"><path d="M27.550 0.110 C 19.501 0.769,11.886 4.763,6.821 10.982 C -0.333 19.767,-1.971 31.518,2.501 41.965 C 3.147 43.473,3.992 45.011,5.058 46.618 C 12.500 57.836,26.598 62.702,39.400 58.470 C 49.033 55.285,56.454 47.389,59.010 37.603 C 61.177 29.306,59.710 20.568,54.942 13.382 C 48.934 4.325,38.401 -0.778,27.550 0.110 M33.550 6.245 C 43.184 7.755,50.997 14.862,53.288 24.200 C 53.830 26.411,53.943 27.410,53.942 30.000 C 53.942 32.642,53.820 33.685,53.248 35.937 C 51.031 44.662,43.988 51.490,35.200 53.436 C 32.543 54.024,29.022 54.152,26.450 53.753 C 17.694 52.396,10.483 46.476,7.414 38.125 C 6.949 36.860,6.476 34.990,6.230 33.450 C 5.984 31.906,5.984 28.094,6.230 26.550 C 7.266 20.048,10.573 14.550,15.779 10.676 C 19.158 8.160,23.166 6.607,27.576 6.102 C 28.705 5.973,32.372 6.061,33.550 6.245 M27.511 14.140 C 26.999 14.423,27.007 14.313,27.004 20.875 L 27.000 27.000 20.895 27.000 C 14.270 27.000,14.373 26.992,14.119 27.547 C 14.038 27.725,14.000 28.517,14.000 30.010 C 14.000 32.402,14.048 32.653,14.547 32.881 C 14.741 32.969,16.392 33.000,20.905 33.000 L 27.000 33.000 27.000 39.105 C 27.000 45.730,26.992 45.627,27.547 45.881 C 27.911 46.046,32.089 46.046,32.453 45.881 C 33.008 45.627,33.000 45.730,33.000 39.105 L 33.000 33.000 39.095 33.000 C 43.608 33.000,45.259 32.969,45.453 32.881 C 45.952 32.653,46.000 32.402,46.000 30.010 C 46.000 28.517,45.962 27.725,45.881 27.547 C 45.627 26.992,45.730 27.000,39.105 27.000 L 33.000 27.000 33.000 20.905 C 33.000 16.392,32.969 14.741,32.881 14.547 C 32.652 14.046,32.405 14.000,29.980 14.004 C 28.321 14.006,27.689 14.041,27.511 14.140 " fill="#2B2C30" stroke="none" fill-rule="evenodd"></path></svg>