<svg width="57" height="57" viewBox="0 0 57 57" fill="none" xmlns="http://www.w3.org/2000/svg"><path d="M-0.000 2.044 L -0.000 4.089 2.019 4.063 L 4.037 4.037 4.063 2.019 L 4.089 -0.000 2.044 -0.000 L 0.000 0.000 -0.000 2.044 M8.170 2.044 L 8.170 4.089 10.189 4.063 L 12.207 4.037 12.233 2.019 L 12.259 -0.000 10.214 -0.000 L 8.170 0.000 8.170 2.044 M16.267 2.019 L 16.293 4.037 18.311 4.063 L 20.330 4.089 20.330 2.044 L 20.330 0.000 18.286 0.000 L 16.241 0.000 16.267 2.019 M24.415 2.044 L 24.415 4.089 26.434 4.063 L 28.453 4.037 28.478 2.019 L 28.504 -0.000 26.459 -0.000 L 24.415 0.000 24.415 2.044 M32.585 2.042 L 32.585 4.085 34.580 4.085 L 36.575 4.085 36.575 2.042 L 36.575 0.000 34.580 0.000 L 32.585 0.000 32.585 2.042 M0.000 10.165 L 0.000 12.160 2.042 12.160 L 4.085 12.160 4.085 10.165 L 4.085 8.170 2.042 8.170 L 0.000 8.170 0.000 10.165 M32.585 10.165 L 32.585 12.160 34.580 12.160 L 36.575 12.160 36.575 10.165 L 36.575 8.170 34.580 8.170 L 32.585 8.170 32.585 10.165 M0.000 18.286 L 0.000 20.330 2.044 20.330 L 4.089 20.330 4.063 18.311 L 4.037 16.293 2.019 16.267 L 0.000 16.241 0.000 18.286 M32.585 18.288 L 32.585 20.330 34.580 20.330 L 36.575 20.330 36.575 18.288 L 36.575 16.245 34.580 16.245 L 32.585 16.245 32.585 18.288 M-0.000 26.459 L -0.000 28.504 2.019 28.478 L 4.037 28.453 4.063 26.434 L 4.089 24.415 2.044 24.415 L 0.000 24.415 -0.000 26.459 M26.078 24.599 C 25.022 24.850,24.393 25.798,24.617 26.797 C 24.804 27.627,33.787 51.100,35.340 54.815 C 35.928 56.222,36.088 56.467,36.590 56.723 C 37.365 57.118,38.346 56.910,38.862 56.240 C 39.002 56.057,40.094 54.079,41.287 51.845 L 43.457 47.782 48.020 52.334 C 52.904 57.208,52.842 57.156,53.499 56.874 C 53.931 56.688,56.871 53.704,56.955 53.366 C 56.991 53.223,56.992 52.987,56.957 52.844 C 56.914 52.669,55.381 51.068,52.330 48.012 L 47.767 43.442 48.370 43.108 C 48.701 42.924,50.533 41.951,52.440 40.946 C 54.347 39.940,56.057 39.000,56.240 38.857 C 56.728 38.476,56.919 38.092,56.919 37.490 C 56.919 36.884,56.659 36.304,56.262 36.021 C 55.671 35.600,48.303 32.714,33.075 26.938 C 26.564 24.469,26.590 24.477,26.078 24.599 M0.000 34.580 L 0.000 36.575 2.042 36.575 L 4.085 36.575 4.085 34.580 L 4.085 32.585 2.042 32.585 L 0.000 32.585 0.000 34.580 M8.170 34.580 L 8.170 36.575 10.165 36.575 L 12.160 36.575 12.160 34.580 L 12.160 32.585 10.165 32.585 L 8.170 32.585 8.170 34.580 M16.245 34.580 L 16.245 36.575 18.288 36.575 L 20.330 36.575 20.330 34.580 L 20.330 32.585 18.288 32.585 L 16.245 32.585 16.245 34.580 M38.302 35.445 C 42.291 36.972,43.974 37.618,44.739 37.918 C 44.949 38.000,44.818 38.090,43.349 38.870 C 40.725 40.262,40.378 40.610,38.962 43.274 C 38.472 44.195,38.039 44.914,38.000 44.871 C 37.961 44.828,37.749 44.322,37.528 43.748 C 35.466 38.368,33.725 33.799,33.725 33.765 C 33.725 33.694,33.737 33.699,38.302 35.445 " fill="#2B2C30" stroke="none" fill-rule="evenodd"></path></svg>