<svg width="56" height="56" viewBox="0 0 56 56" fill="none" xmlns="http://www.w3.org/2000/svg"><path d="M18.324 0.129 C 17.068 0.540,16.307 1.562,16.302 2.847 C 16.298 3.725,16.569 4.335,17.229 4.939 C 17.808 5.468,18.381 5.693,19.146 5.693 C 20.263 5.693,21.242 5.058,21.736 4.013 C 22.382 2.646,21.712 0.876,20.321 0.278 C 19.725 0.022,18.851 -0.044,18.324 0.129 M26.479 0.128 C 25.621 0.369,24.783 1.198,24.550 2.037 C 24.051 3.831,25.267 5.554,27.113 5.670 C 28.304 5.746,29.344 5.136,29.863 4.060 C 30.172 3.419,30.179 2.397,29.879 1.717 C 29.324 0.458,27.813 -0.248,26.479 0.128 M10.262 8.242 C 9.710 8.398,9.233 8.697,8.860 9.122 C 7.682 10.463,8.051 12.597,9.613 13.477 C 10.082 13.741,10.200 13.767,10.967 13.767 C 11.934 13.767,12.427 13.582,13.004 13.004 C 13.582 12.427,13.767 11.934,13.767 10.967 C 13.767 10.200,13.741 10.082,13.477 9.613 C 12.852 8.502,11.453 7.906,10.262 8.242 M26.593 8.242 C 25.274 8.614,24.453 9.671,24.453 10.998 C 24.453 11.828,24.685 12.378,25.286 12.980 C 25.903 13.597,26.439 13.813,27.348 13.813 C 28.445 13.813,29.367 13.204,29.890 12.133 C 30.170 11.560,30.173 10.496,29.896 9.882 C 29.322 8.611,27.861 7.886,26.593 8.242 M1.913 16.452 C 1.365 16.677,1.050 16.889,0.747 17.234 C -0.381 18.519,-0.161 20.461,1.228 21.467 C 2.298 22.241,3.933 22.094,4.875 21.139 C 5.898 20.101,5.968 18.390,5.033 17.327 C 4.406 16.616,3.937 16.394,2.993 16.363 C 2.511 16.347,2.082 16.383,1.913 16.452 M21.786 21.456 C 21.463 21.653,21.236 22.105,21.301 22.423 C 21.325 22.539,24.318 30.061,27.953 39.140 C 34.078 54.438,34.583 55.659,34.851 55.823 C 35.448 56.187,36.025 55.956,36.352 55.223 C 36.471 54.958,37.652 51.842,38.976 48.300 C 40.729 43.612,41.449 41.795,41.622 41.622 C 41.795 41.449,43.612 40.729,48.300 38.976 C 51.842 37.652,54.958 36.471,55.223 36.352 C 55.957 36.025,56.187 35.448,55.822 34.850 C 55.658 34.580,54.456 34.084,39.046 27.920 C 29.916 24.268,22.363 21.280,22.260 21.280 C 22.157 21.281,21.944 21.360,21.786 21.456 M1.994 24.555 C 1.512 24.695,0.826 25.218,0.503 25.691 C -0.477 27.126,0.116 29.157,1.727 29.881 C 2.393 30.181,3.417 30.173,4.060 29.863 C 5.136 29.344,5.746 28.304,5.670 27.113 C 5.573 25.573,4.391 24.444,2.893 24.463 C 2.560 24.467,2.155 24.508,1.994 24.555 M36.301 33.373 C 39.688 34.728,40.867 35.238,40.734 35.290 C 38.875 36.014,38.152 36.436,37.294 37.294 C 36.436 38.152,36.014 38.875,35.290 40.734 C 35.230 40.887,33.641 37.065,31.473 31.554 C 31.439 31.466,31.466 31.439,31.554 31.473 C 31.627 31.502,33.763 32.357,36.301 33.373 M1.997 32.706 C -0.014 33.335,-0.641 35.924,0.855 37.420 C 2.193 38.757,4.446 38.431,5.367 36.766 C 5.620 36.309,5.647 36.179,5.647 35.420 C 5.647 34.663,5.619 34.530,5.370 34.080 C 4.703 32.876,3.291 32.301,1.997 32.706 M10.099 40.864 C 8.095 41.580,7.506 44.117,9.005 45.573 C 9.599 46.150,10.099 46.340,11.013 46.338 C 11.690 46.336,11.877 46.299,12.285 46.086 C 12.879 45.775,13.473 45.113,13.666 44.545 C 13.747 44.308,13.813 43.834,13.813 43.492 C 13.813 42.400,13.153 41.394,12.144 40.948 C 11.541 40.681,10.708 40.647,10.099 40.864 M18.219 40.870 C 17.358 41.168,16.656 41.891,16.421 42.724 C 16.242 43.358,16.349 44.418,16.644 44.921 C 17.355 46.134,18.793 46.682,20.100 46.237 C 20.703 46.031,21.482 45.301,21.742 44.698 C 22.118 43.823,22.003 42.662,21.467 41.921 C 20.712 40.879,19.411 40.458,18.219 40.870 " fill="#2B2C30" stroke="none" fill-rule="evenodd"></path></svg>