<svg width="49" height="46" viewBox="0 0 49 46" fill="none" xmlns="http://www.w3.org/2000/svg"><path d="M10.187 0.084 C 9.088 0.361,8.242 1.301,8.091 2.413 C 7.922 3.659,8.510 4.780,9.618 5.325 C 10.107 5.566,10.237 5.594,10.860 5.593 C 11.408 5.593,11.641 5.553,11.958 5.408 C 12.570 5.127,13.008 4.722,13.317 4.151 C 13.583 3.660,13.597 3.593,13.597 2.817 C 13.597 2.082,13.575 1.958,13.370 1.569 C 12.888 0.653,12.051 0.100,11.057 0.040 C 10.748 0.021,10.356 0.041,10.187 0.084 M18.026 0.154 C 16.799 0.560,16.033 1.679,16.103 2.964 C 16.161 4.040,16.719 4.882,17.689 5.357 C 18.105 5.561,18.266 5.593,18.865 5.594 C 19.445 5.594,19.635 5.559,20.018 5.379 C 21.551 4.660,22.132 2.922,21.333 1.445 C 20.724 0.319,19.258 -0.253,18.026 0.154 M26.209 0.112 C 25.702 0.248,25.149 0.585,24.826 0.953 C 24.100 1.780,23.913 2.995,24.364 3.970 C 24.639 4.567,25.112 5.051,25.725 5.363 C 26.117 5.562,26.268 5.591,26.909 5.593 C 27.548 5.594,27.704 5.565,28.104 5.369 C 28.647 5.102,29.260 4.476,29.505 3.938 C 29.752 3.397,29.750 2.249,29.502 1.701 C 28.933 0.442,27.518 -0.241,26.209 0.112 M34.278 0.084 C 33.189 0.358,32.330 1.306,32.188 2.388 C 32.020 3.669,32.594 4.776,33.710 5.325 C 34.198 5.566,34.329 5.594,34.952 5.593 C 35.500 5.593,35.733 5.553,36.049 5.408 C 36.661 5.127,37.099 4.722,37.409 4.151 C 37.675 3.660,37.689 3.593,37.689 2.817 C 37.689 2.082,37.666 1.958,37.462 1.569 C 36.979 0.653,36.142 0.100,35.149 0.040 C 34.839 0.021,34.447 0.041,34.278 0.084 M2.346 8.090 C 1.464 8.234,0.652 8.861,0.261 9.702 C 0.080 10.092,0.045 10.280,0.046 10.862 C 0.047 11.450,0.082 11.627,0.271 12.018 C 0.557 12.609,1.063 13.116,1.633 13.386 C 2.019 13.568,2.192 13.597,2.858 13.596 C 3.546 13.595,3.683 13.569,4.066 13.369 C 4.641 13.068,5.114 12.580,5.378 12.017 C 5.559 11.631,5.594 11.442,5.594 10.860 C 5.594 10.238,5.566 10.106,5.326 9.619 C 4.770 8.490,3.596 7.887,2.346 8.090 M42.450 8.086 C 41.571 8.237,40.667 8.999,40.340 9.865 C 40.198 10.241,40.171 10.458,40.197 10.988 C 40.239 11.809,40.458 12.296,41.050 12.876 C 41.592 13.408,42.168 13.638,42.957 13.638 C 43.811 13.638,44.353 13.407,44.973 12.780 C 45.408 12.339,45.503 12.188,45.657 11.679 C 46.277 9.637,44.570 7.724,42.450 8.086 M2.042 16.160 C 1.263 16.416,0.633 16.966,0.268 17.709 C 0.073 18.106,0.041 18.268,0.044 18.865 C 0.046 19.397,0.088 19.650,0.222 19.946 C 0.726 21.053,1.636 21.653,2.817 21.656 C 3.939 21.659,4.894 21.057,5.365 20.049 C 5.560 19.633,5.594 19.455,5.594 18.865 C 5.594 18.285,5.559 18.095,5.378 17.710 C 5.113 17.144,4.637 16.656,4.066 16.362 C 3.715 16.183,3.504 16.137,2.940 16.117 C 2.558 16.104,2.154 16.123,2.042 16.160 M35.157 21.020 C 32.410 21.474,30.150 22.658,28.251 24.640 C 26.627 26.336,25.560 28.422,25.107 30.788 C 24.908 31.827,24.903 33.955,25.096 35.012 C 25.884 39.317,28.925 42.870,33.034 44.286 C 34.459 44.777,35.118 44.876,36.954 44.876 C 38.791 44.876,39.454 44.776,40.867 44.287 C 45.010 42.853,48.005 39.359,48.805 35.030 C 49.004 33.954,49.002 31.838,48.801 30.788 C 47.871 25.924,44.257 22.209,39.420 21.142 C 38.450 20.928,36.118 20.862,35.157 21.020 M2.164 24.164 C 0.796 24.535,-0.108 25.798,0.031 27.149 C 0.135 28.161,0.763 29.031,1.705 29.468 C 2.371 29.777,3.271 29.771,3.970 29.452 C 4.566 29.180,5.050 28.708,5.363 28.093 C 5.563 27.700,5.591 27.553,5.590 26.909 C 5.589 26.024,5.430 25.608,4.855 24.994 C 4.330 24.433,3.769 24.170,3.009 24.130 C 2.679 24.112,2.299 24.128,2.164 24.164 M38.361 27.078 C 39.861 27.414,41.338 28.512,42.163 29.903 C 42.895 31.136,43.153 32.904,42.805 34.302 C 42.338 36.177,40.998 37.757,39.269 38.470 C 37.736 39.102,36.173 39.102,34.639 38.470 C 32.912 37.758,31.570 36.177,31.104 34.306 C 30.867 33.353,30.917 32.017,31.224 31.074 C 32.068 28.489,34.626 26.736,37.281 26.923 C 37.595 26.945,38.081 27.015,38.361 27.078 M2.223 32.177 C 1.064 32.421,0.159 33.457,0.030 34.686 C -0.086 35.795,0.574 36.948,1.618 37.461 C 2.022 37.659,2.178 37.689,2.817 37.689 C 3.439 37.689,3.622 37.656,4.002 37.477 C 4.570 37.209,5.076 36.703,5.367 36.110 C 5.566 35.705,5.594 35.556,5.590 34.913 C 5.586 34.319,5.550 34.104,5.398 33.792 C 4.813 32.587,3.485 31.911,2.223 32.177 M10.044 40.256 C 9.058 40.556,8.260 41.477,8.100 42.500 C 7.906 43.734,8.514 44.910,9.649 45.497 C 10.191 45.778,11.233 45.809,11.882 45.565 C 12.545 45.315,13.218 44.646,13.462 43.994 C 13.863 42.923,13.623 41.785,12.828 40.990 C 12.244 40.406,11.677 40.177,10.838 40.187 C 10.514 40.191,10.157 40.222,10.044 40.256 M17.806 40.355 C 17.264 40.569,16.613 41.194,16.329 41.773 C 16.160 42.119,16.129 42.299,16.129 42.957 C 16.129 43.895,16.302 44.321,16.944 44.965 C 17.532 45.555,18.103 45.760,19.028 45.715 C 19.849 45.674,20.341 45.461,20.887 44.908 C 22.223 43.556,21.846 41.327,20.131 40.442 C 19.550 40.143,18.450 40.101,17.806 40.355 " fill="#2B2C30" stroke="none" fill-rule="evenodd"></path></svg>