<svg width="32" height="33" viewBox="0 0 32 33" fill="none" xmlns="http://www.w3.org/2000/svg"><path d="M1.413 0.071 C 1.028 0.200,0.774 0.359,0.515 0.637 C 0.136 1.042,0.027 1.317,0.030 1.867 L 0.032 2.320 1.088 5.093 C 1.668 6.619,2.847 9.715,3.706 11.973 C 6.752 19.976,8.790 25.257,10.014 28.320 C 11.238 31.381,11.295 31.483,11.934 31.797 C 12.210 31.933,12.373 31.977,12.665 31.991 C 13.222 32.018,13.588 31.868,14.000 31.443 C 14.296 31.137,14.479 30.809,16.477 26.994 L 18.635 22.875 23.144 27.382 C 25.679 29.915,27.719 31.913,27.803 31.944 C 28.019 32.024,28.346 32.013,28.575 31.917 C 28.843 31.806,31.749 28.910,31.895 28.610 C 32.021 28.349,32.029 28.067,31.918 27.798 C 31.860 27.659,30.501 26.264,27.358 23.119 L 22.880 18.639 26.993 16.479 C 31.489 14.119,31.586 14.059,31.845 13.481 C 32.019 13.093,32.025 12.407,31.858 12.044 C 31.689 11.677,31.333 11.321,30.935 11.121 C 29.687 10.493,20.137 6.789,4.853 1.004 C 2.129 -0.027,1.897 -0.090,1.413 0.071 M11.683 10.019 C 17.332 12.174,20.107 13.249,20.107 13.282 C 20.107 13.301,19.103 13.842,17.876 14.485 L 15.645 15.653 14.476 17.880 C 13.833 19.104,13.293 20.106,13.275 20.106 C 13.258 20.107,12.937 19.309,12.562 18.333 C 11.506 15.587,9.013 9.053,9.013 9.032 C 9.013 9.000,8.975 8.986,11.683 10.019 " fill="#2B2C30" stroke="none" fill-rule="evenodd"></path></svg>