<svg width="56" height="50" viewBox="0 0 56 50" fill="none" xmlns="http://www.w3.org/2000/svg"><path d="M32.352 0.137 C 31.847 0.317,31.390 0.792,31.188 1.349 C 31.093 1.608,28.900 9.726,26.314 19.390 C 23.728 29.054,21.590 36.958,21.563 36.956 C 21.536 36.954,19.686 33.777,17.453 29.897 C 15.220 26.016,13.282 22.684,13.145 22.493 C 13.008 22.301,12.712 22.055,12.486 21.946 C 12.079 21.749,12.009 21.747,6.037 21.747 L 0.000 21.747 0.000 24.733 L 0.000 27.720 4.643 27.724 L 9.287 27.727 15.257 38.107 C 19.553 45.574,21.337 48.595,21.617 48.871 C 22.248 49.496,23.062 49.606,23.905 49.179 C 24.390 48.934,24.701 48.519,24.898 47.854 C 24.993 47.534,27.168 39.433,29.732 29.849 C 32.296 20.266,34.421 12.454,34.455 12.489 C 34.490 12.525,36.370 15.765,38.633 19.689 C 40.897 23.614,42.864 26.948,43.004 27.098 C 43.145 27.248,43.428 27.448,43.633 27.543 C 43.984 27.706,44.366 27.716,50.003 27.718 L 56.000 27.720 56.000 24.734 L 56.000 21.748 51.365 21.724 L 46.730 21.700 40.729 11.302 C 37.428 5.583,34.610 0.780,34.467 0.627 C 33.930 0.055,33.113 -0.134,32.352 0.137 " fill="#2B2C30" stroke="none" fill-rule="evenodd"></path></svg>