<svg width="52" height="52" viewBox="0 0 52 52" fill="none" xmlns="http://www.w3.org/2000/svg"><path d="M24.267 0.055 C 16.634 0.624,9.783 4.340,5.218 10.386 C 2.585 13.874,0.959 17.808,0.237 22.446 C -0.028 24.144,-0.028 27.856,0.237 29.554 C 1.349 36.689,4.794 42.537,10.385 46.778 C 13.836 49.397,17.815 51.042,22.446 51.763 C 24.144 52.028,27.856 52.028,29.554 51.763 C 32.742 51.267,35.645 50.327,38.196 48.965 C 42.722 46.549,46.549 42.722,48.965 38.196 C 50.327 35.645,51.267 32.742,51.763 29.554 C 52.028 27.856,52.028 24.144,51.763 22.446 C 51.041 17.811,49.398 13.837,46.773 10.378 C 42.476 4.714,36.337 1.153,29.250 0.215 C 28.235 0.081,25.219 -0.016,24.267 0.055 M23.032 14.625 L 23.010 23.010 14.625 23.032 C 7.945 23.050,6.240 23.032,6.241 22.945 C 6.241 22.886,6.337 22.377,6.454 21.816 C 7.333 17.590,9.810 13.459,13.103 10.726 C 15.047 9.112,17.359 7.810,19.609 7.061 C 20.663 6.710,22.477 6.261,22.902 6.246 C 23.046 6.240,23.053 6.678,23.032 14.625 M30.184 6.454 C 33.134 7.067,36.219 8.544,38.625 10.495 C 42.082 13.296,44.646 17.490,45.546 21.816 C 45.663 22.377,45.759 22.886,45.759 22.945 C 45.760 23.032,44.055 23.050,37.375 23.032 L 28.990 23.010 28.968 14.625 C 28.950 7.945,28.968 6.240,29.055 6.241 C 29.114 6.241,29.623 6.337,30.184 6.454 M23.032 37.375 C 23.052 44.929,23.041 45.760,22.919 45.760 C 22.537 45.760,20.864 45.346,19.692 44.962 C 13.792 43.029,9.032 38.292,7.063 32.394 C 6.727 31.386,6.243 29.422,6.241 29.055 C 6.240 28.968,7.945 28.950,14.625 28.968 L 23.010 28.990 23.032 37.375 M45.759 29.055 C 45.757 29.420,45.273 31.386,44.938 32.394 C 42.981 38.274,38.200 43.032,32.308 44.962 C 31.137 45.346,29.463 45.760,29.082 45.760 C 28.960 45.760,28.947 44.912,28.947 37.411 C 28.947 32.819,28.973 29.036,29.004 29.004 C 29.036 28.973,32.819 28.947,37.411 28.947 C 44.033 28.947,45.760 28.969,45.759 29.055 " fill="#2B2C30" stroke="none" fill-rule="evenodd"></path></svg>