<svg width="64" height="60" viewBox="0 0 64 60" fill="none" xmlns="http://www.w3.org/2000/svg"><path d="M12.382 0.276 L 12.053 0.552 12.053 30.018 L 12.053 59.483 12.300 59.715 L 12.547 59.947 18.274 59.947 L 24.000 59.947 24.000 57.973 L 24.000 56.000 32.000 56.000 L 40.000 56.000 40.000 57.973 L 40.000 59.947 45.741 59.947 L 51.483 59.947 51.715 59.700 L 51.947 59.453 51.947 30.003 L 51.947 0.552 51.618 0.276 L 51.290 0.000 32.000 0.000 L 12.710 0.000 12.382 0.276 M0.276 4.382 L -0.000 4.710 -0.000 27.950 C -0.000 45.741,0.030 51.256,0.127 51.470 C 0.380 52.024,0.574 52.053,4.000 52.053 C 7.426 52.053,7.620 52.024,7.873 51.470 C 7.965 51.267,8.000 49.933,8.000 46.608 L 8.000 42.027 6.987 42.027 L 5.973 42.027 5.973 38.027 L 5.973 34.027 6.987 34.027 L 8.000 34.027 8.000 32.057 L 8.000 30.088 7.013 30.057 L 6.027 30.027 6.027 26.027 L 6.027 22.027 7.013 21.996 L 8.000 21.965 8.000 19.996 L 8.000 18.027 6.987 18.027 L 5.973 18.027 5.973 14.027 L 5.973 10.027 6.987 10.027 L 8.000 10.027 8.000 7.368 L 8.000 4.710 7.724 4.382 L 7.448 4.053 4.000 4.053 L 0.552 4.053 0.276 4.382 M56.276 4.382 L 56.000 4.710 56.000 7.368 L 56.000 10.027 57.013 10.027 L 58.027 10.027 58.027 14.027 L 58.027 18.027 57.013 18.027 L 56.000 18.027 56.000 19.996 L 56.000 21.965 56.987 21.996 L 57.973 22.027 57.973 26.027 L 57.973 30.027 56.987 30.057 L 56.000 30.088 56.000 32.057 L 56.000 34.027 57.013 34.027 L 58.027 34.027 58.027 38.027 L 58.027 42.027 57.013 42.027 L 56.000 42.027 56.000 46.608 C 56.000 49.933,56.035 51.267,56.127 51.470 C 56.380 52.024,56.574 52.053,60.000 52.053 C 63.426 52.053,63.620 52.024,63.873 51.470 C 63.970 51.256,64.000 45.741,64.000 27.950 L 64.000 4.710 63.724 4.382 L 63.448 4.053 60.000 4.053 L 56.552 4.053 56.276 4.382 M45.973 12.000 L 45.973 18.027 32.000 18.027 L 18.027 18.027 18.027 12.000 L 18.027 5.973 32.000 5.973 L 45.973 5.973 45.973 12.000 M21.973 12.000 L 21.973 13.973 24.000 13.973 L 26.027 13.973 26.027 12.000 L 26.027 10.027 24.000 10.027 L 21.973 10.027 21.973 12.000 M29.973 12.000 L 29.973 13.973 36.053 13.973 L 42.133 13.973 42.133 12.000 L 42.133 10.027 36.053 10.027 L 29.973 10.027 29.973 12.000 M45.973 28.000 L 45.973 34.027 32.000 34.027 L 18.027 34.027 18.027 28.000 L 18.027 21.973 32.000 21.973 L 45.973 21.973 45.973 28.000 M21.973 28.000 L 21.973 29.973 24.000 29.973 L 26.027 29.973 26.027 28.000 L 26.027 26.027 24.000 26.027 L 21.973 26.027 21.973 28.000 M29.973 28.000 L 29.973 29.973 36.053 29.973 L 42.133 29.973 42.133 28.000 L 42.133 26.027 36.053 26.027 L 29.973 26.027 29.973 28.000 M45.973 44.000 L 45.973 50.027 32.000 50.027 L 18.027 50.027 18.027 44.000 L 18.027 37.973 32.000 37.973 L 45.973 37.973 45.973 44.000 M21.998 44.027 L 22.027 46.027 24.000 46.027 L 25.973 46.027 26.002 44.027 L 26.031 42.027 24.000 42.027 L 21.969 42.027 21.998 44.027 M29.998 44.027 L 30.027 46.027 36.080 46.054 L 42.133 46.082 42.133 44.054 L 42.133 42.027 36.051 42.027 L 29.969 42.027 29.998 44.027 " fill="#2B2C30" stroke="none" fill-rule="evenodd"></path></svg>