<svg width="48" height="48" viewBox="0 0 48 48" fill="none" xmlns="http://www.w3.org/2000/svg"><path d="M22.400 0.051 C 15.354 0.576,9.071 3.982,4.825 9.579 C 2.397 12.779,0.887 16.432,0.218 20.719 C -0.026 22.287,-0.026 25.713,0.218 27.281 C 1.244 33.864,4.427 39.266,9.586 43.180 C 12.772 45.597,16.444 47.115,20.719 47.782 C 22.287 48.026,25.713 48.026,27.281 47.782 C 33.113 46.873,38.071 44.243,41.791 40.086 C 45.089 36.400,46.995 32.326,47.782 27.281 C 48.026 25.713,48.026 22.287,47.782 20.719 C 47.115 16.444,45.597 12.772,43.180 9.586 C 39.211 4.355,33.539 1.064,27.000 0.199 C 26.063 0.075,23.280 -0.015,22.400 0.051 M26.640 6.202 C 28.539 6.489,30.131 6.988,31.888 7.845 C 37.255 10.466,40.895 15.452,41.812 21.440 C 42.007 22.708,42.007 25.292,41.812 26.560 C 41.013 31.783,38.159 36.234,33.760 39.119 C 32.142 40.181,29.748 41.177,27.816 41.594 C 19.721 43.337,11.444 39.313,7.839 31.880 C 6.560 29.242,6.047 26.987,6.047 24.000 C 6.047 21.013,6.560 18.758,7.839 16.120 C 9.589 12.512,12.494 9.606,16.120 7.835 C 18.181 6.829,20.052 6.320,22.680 6.048 C 23.324 5.982,25.823 6.079,26.640 6.202 " fill="#2B2C30" stroke="none" fill-rule="evenodd"></path></svg>