<svg width="48" height="48" viewBox="0 0 48 48" fill="none" xmlns="http://www.w3.org/2000/svg"><path d="M22.120 0.076 C 18.489 0.405,15.121 1.438,12.192 3.119 C 6.408 6.440,2.313 11.827,0.728 18.200 C 0.218 20.249,0.046 21.714,0.046 24.000 C 0.046 26.286,0.218 27.751,0.728 29.800 C 2.693 37.703,8.633 44.151,16.320 46.725 C 18.898 47.589,21.196 47.957,24.000 47.957 C 28.894 47.957,33.226 46.653,37.294 43.954 C 45.722 38.363,49.716 28.054,47.272 18.200 C 45.837 12.416,42.258 7.339,37.294 4.046 C 34.090 1.920,30.881 0.725,26.960 0.197 C 25.879 0.051,23.148 -0.017,22.120 0.076 M25.772 6.084 C 31.168 6.628,36.000 9.559,39.063 14.146 C 39.695 15.092,40.649 17.042,41.032 18.172 C 42.590 22.763,42.248 27.758,40.084 32.040 C 39.128 33.931,38.168 35.264,36.716 36.716 C 35.264 38.168,33.931 39.128,32.040 40.084 C 26.990 42.637,21.010 42.637,15.960 40.084 C 14.076 39.132,12.714 38.152,11.281 36.719 C 9.848 35.286,8.868 33.924,7.916 32.040 C 5.363 26.990,5.363 21.010,7.916 15.960 C 8.868 14.076,9.848 12.714,11.281 11.281 C 12.714 9.848,14.076 8.868,15.960 7.916 C 17.826 6.973,20.081 6.301,22.084 6.092 C 23.055 5.990,24.809 5.986,25.772 6.084 M22.680 14.092 C 21.697 14.217,20.634 14.547,19.640 15.034 C 16.747 16.453,14.781 19.020,14.151 22.200 C 14.005 22.937,14.005 25.063,14.151 25.800 C 14.964 29.906,18.094 33.036,22.200 33.849 C 22.937 33.995,25.063 33.995,25.800 33.849 C 27.709 33.471,29.438 32.591,30.816 31.296 C 32.296 29.905,33.226 28.304,33.739 26.262 C 33.933 25.489,33.955 25.256,33.955 24.000 C 33.955 22.744,33.933 22.511,33.739 21.738 C 33.354 20.205,32.747 18.945,31.851 17.823 C 29.643 15.055,26.180 13.646,22.680 14.092 " fill="#2B2C30" stroke="none" fill-rule="evenodd"></path></svg>