<svg width="53" height="49" viewBox="0 0 53 49" fill="none" xmlns="http://www.w3.org/2000/svg"><path d="M41.252 0.194 C 41.073 0.315,40.898 0.533,40.837 0.710 C 40.764 0.923,40.730 1.949,40.727 4.085 L 40.722 7.155 37.230 7.155 C 34.429 7.155,33.681 7.179,33.453 7.279 C 33.286 7.352,26.389 14.186,16.607 23.974 L 0.044 40.545 0.044 40.989 L 0.044 41.432 1.771 43.153 C 3.399 44.775,3.517 44.873,3.829 44.873 C 4.011 44.873,4.268 44.817,4.399 44.748 C 4.530 44.680,11.669 37.584,20.262 28.981 L 35.886 13.338 38.304 13.338 L 40.722 13.338 40.722 16.320 C 40.722 18.081,40.760 19.434,40.813 19.626 C 40.985 20.244,41.706 20.594,42.230 20.313 C 42.518 20.159,52.589 11.063,52.801 10.765 C 53.039 10.431,53.056 10.024,52.845 9.702 C 52.717 9.508,50.876 7.835,42.431 0.245 C 42.124 -0.031,41.616 -0.053,41.252 0.194 M3.215 4.404 C 3.026 4.543,2.248 5.293,1.486 6.070 C 0.005 7.581,-0.145 7.828,0.081 8.374 C 0.137 8.509,2.817 11.254,6.038 14.474 C 11.522 19.957,11.917 20.332,12.248 20.377 C 12.479 20.408,12.693 20.377,12.860 20.289 C 13.002 20.215,13.823 19.443,14.685 18.573 L 16.253 16.993 16.253 16.516 L 16.253 16.038 10.445 10.221 C 7.251 7.022,4.530 4.347,4.399 4.278 C 4.019 4.077,3.601 4.121,3.215 4.404 M26.265 30.320 C 24.540 32.049,24.389 32.258,24.508 32.750 C 24.548 32.912,26.005 34.432,28.913 37.345 C 32.310 40.748,33.325 41.715,33.567 41.783 C 33.743 41.832,35.362 41.869,37.343 41.870 L 40.810 41.870 40.810 45.132 L 40.810 48.393 41.082 48.665 C 41.309 48.892,41.422 48.937,41.775 48.937 C 42.283 48.937,41.773 49.363,48.224 43.536 C 51.309 40.749,52.883 39.270,52.937 39.105 C 53.150 38.454,53.235 38.546,48.469 34.248 C 41.486 27.951,42.280 28.620,41.782 28.620 C 41.422 28.620,41.311 28.663,41.083 28.891 L 40.812 29.161 40.789 32.446 L 40.766 35.731 38.383 35.754 L 36.000 35.778 32.553 32.343 C 30.657 30.454,29.008 28.844,28.887 28.764 C 28.767 28.685,28.510 28.620,28.316 28.620 C 27.975 28.620,27.904 28.679,26.265 30.320 " fill="#2B2C30" stroke="none" fill-rule="evenodd"></path></svg>