<svg width="56" height="56" viewBox="0 0 56 56" fill="none" xmlns="http://www.w3.org/2000/svg"><path d="M27.347 0.123 C 26.680 0.334,26.302 0.896,22.654 7.093 C 20.705 10.404,19.092 13.160,19.070 13.218 C 19.033 13.312,23.970 16.240,24.166 16.240 C 24.211 16.240,25.077 14.833,26.090 13.113 C 27.103 11.394,27.961 9.987,27.997 9.987 C 28.119 9.987,35.672 22.886,35.592 22.959 C 35.549 22.999,34.400 23.673,33.040 24.455 C 31.680 25.238,30.451 25.999,30.310 26.147 C 30.118 26.348,30.053 26.510,30.053 26.787 C 30.053 27.554,29.865 27.473,37.138 29.817 C 42.338 31.493,43.774 31.923,44.016 31.878 C 44.670 31.755,44.630 31.890,46.188 24.525 C 47.131 20.070,47.602 17.659,47.561 17.497 C 47.459 17.092,47.069 16.800,46.630 16.801 C 46.305 16.802,45.844 17.036,43.592 18.342 C 42.132 19.189,40.906 19.850,40.868 19.811 C 40.829 19.772,38.296 15.498,35.239 10.313 C 31.211 3.483,29.579 0.795,29.314 0.554 C 28.750 0.041,28.072 -0.107,27.347 0.123 M15.307 19.119 C 13.330 19.769,10.433 20.716,8.868 21.225 C 5.784 22.227,5.507 22.370,5.507 22.948 C 5.507 23.632,5.549 23.664,9.312 25.802 C 10.199 26.306,10.944 26.751,10.969 26.790 C 10.993 26.830,8.546 31.034,5.530 36.134 L 0.047 45.407 0.047 46.013 C 0.048 46.804,0.367 47.385,1.006 47.761 L 1.447 48.020 8.703 48.046 L 15.960 48.071 15.960 45.082 L 15.960 42.093 12.497 42.093 C 9.423 42.093,9.040 42.077,9.088 41.950 C 9.134 41.832,10.657 39.239,15.790 30.548 L 16.242 29.782 19.018 31.383 C 22.145 33.187,22.291 33.237,22.792 32.677 C 22.962 32.486,23.054 32.278,23.056 32.082 C 23.058 31.916,22.419 28.777,21.637 25.107 C 20.314 18.898,20.198 18.415,19.962 18.177 C 19.758 17.971,19.627 17.922,19.304 17.929 C 19.058 17.934,17.491 18.401,15.307 19.119 M46.060 34.620 C 44.674 35.429,43.547 36.129,43.556 36.175 C 43.565 36.222,44.311 37.509,45.215 39.036 C 46.119 40.562,46.883 41.875,46.913 41.952 C 46.961 42.077,46.121 42.093,39.490 42.093 L 32.013 42.093 32.013 39.007 C 32.013 36.918,31.980 35.855,31.909 35.717 C 31.730 35.368,31.430 35.191,31.010 35.189 C 30.692 35.187,30.545 35.248,30.264 35.497 C 27.761 37.714,20.324 44.474,20.213 44.632 C 20.021 44.907,20.028 45.345,20.230 45.659 C 20.411 45.939,30.121 54.704,30.567 54.990 C 30.927 55.220,31.406 55.156,31.728 54.834 L 31.967 54.596 31.993 51.333 L 32.020 48.070 43.287 48.045 L 54.553 48.020 54.994 47.761 C 55.616 47.395,55.950 46.803,55.952 46.061 C 55.953 45.727,55.894 45.387,55.806 45.220 C 55.407 44.465,48.705 33.178,48.647 33.165 C 48.610 33.156,47.446 33.811,46.060 34.620 " fill="#2B2C30" stroke="none" fill-rule="evenodd"></path></svg>