<svg width="40" height="47" viewBox="0 0 40 47" fill="none" xmlns="http://www.w3.org/2000/svg"><path d="M16.532 0.123 C 16.405 0.191,16.233 0.346,16.150 0.467 C 16.011 0.671,16.000 0.759,16.000 1.693 C 16.000 2.247,15.980 3.667,15.956 4.850 L 15.912 7.000 9.733 7.000 C 3.798 7.000,3.534 7.005,3.040 7.132 C 2.291 7.323,1.776 7.621,1.192 8.198 C 0.616 8.768,0.329 9.268,0.129 10.051 C 0.003 10.542,0.000 10.966,0.000 27.000 C 0.000 43.159,0.002 43.454,0.132 43.960 C 0.326 44.718,0.619 45.225,1.202 45.807 C 1.787 46.392,2.418 46.743,3.167 46.900 C 3.870 47.047,36.130 47.047,36.833 46.900 C 37.585 46.742,38.220 46.388,38.799 45.806 C 39.378 45.223,39.678 44.705,39.868 43.960 C 39.998 43.454,40.000 43.159,40.000 27.000 C 40.000 10.841,39.998 10.546,39.868 10.040 C 39.676 9.289,39.380 8.775,38.802 8.195 C 38.445 7.835,38.160 7.620,37.817 7.449 C 36.992 7.040,36.624 6.991,34.500 7.014 C 31.824 7.042,32.000 6.832,32.000 10.001 C 32.000 12.154,32.004 12.222,32.146 12.474 C 32.362 12.859,32.704 13.000,33.421 13.000 L 34.000 13.000 34.000 27.000 L 34.000 41.000 20.000 41.000 L 6.000 41.000 6.000 27.000 L 6.000 13.000 10.967 13.000 L 15.933 13.000 15.933 16.069 C 15.933 18.510,15.952 19.182,16.024 19.355 C 16.142 19.638,16.478 19.917,16.763 19.970 C 17.301 20.071,17.137 20.216,22.088 15.277 C 24.648 12.723,26.786 10.552,26.838 10.453 C 26.960 10.222,26.960 9.777,26.838 9.547 C 26.688 9.266,17.524 0.148,17.312 0.070 C 17.037 -0.033,16.794 -0.016,16.532 0.123 " fill="#2B2C30" stroke="none" fill-rule="evenodd"></path></svg>