<svg width="60" height="60" viewBox="0 0 60 60" fill="none" xmlns="http://www.w3.org/2000/svg"><path d="M30.475 0.102 C 30.051 0.363,30.000 0.679,30.000 3.055 L 30.000 5.320 30.329 5.649 C 30.638 5.958,30.716 5.983,31.554 6.047 C 33.737 6.215,36.096 6.686,37.858 7.309 C 38.882 7.670,39.119 7.672,39.491 7.325 C 39.832 7.007,41.433 3.354,41.433 2.895 C 41.433 2.403,41.163 2.142,40.325 1.821 C 39.288 1.426,37.293 0.860,36.050 0.609 C 33.952 0.187,30.803 -0.100,30.475 0.102 M16.450 3.232 C 14.090 4.456,12.201 5.726,10.281 7.380 C 9.362 8.172,9.142 8.509,9.244 8.973 C 9.318 9.311,12.414 12.440,12.782 12.549 C 13.182 12.668,13.455 12.525,14.518 11.641 C 15.898 10.493,17.567 9.389,19.160 8.569 C 20.520 7.869,20.705 7.694,20.695 7.120 C 20.688 6.729,19.168 3.008,18.903 2.733 C 18.501 2.315,18.035 2.410,16.450 3.232 M50.750 9.315 C 50.438 9.485,47.703 12.218,47.543 12.520 C 47.256 13.062,47.348 13.325,48.175 14.321 C 49.700 16.159,50.619 17.546,51.577 19.455 C 52.091 20.479,52.314 20.700,52.834 20.700 C 52.957 20.700,53.957 20.340,55.054 19.901 C 57.167 19.055,57.500 18.836,57.500 18.296 C 57.500 17.729,56.298 15.405,54.969 13.400 C 53.845 11.705,52.139 9.606,51.660 9.329 C 51.399 9.178,51.013 9.172,50.750 9.315 M2.531 18.601 C 2.206 18.732,2.018 19.078,1.596 20.325 C 0.795 22.690,0.307 25.096,0.095 27.722 C -0.007 28.990,-0.002 29.206,0.135 29.470 C 0.394 29.973,0.639 30.014,3.142 29.980 L 5.417 29.950 5.693 29.641 C 5.943 29.361,5.976 29.233,6.040 28.311 C 6.177 26.318,6.624 24.128,7.295 22.156 C 7.648 21.121,7.660 20.983,7.429 20.591 C 7.287 20.352,6.893 20.146,5.147 19.401 C 3.985 18.905,2.971 18.503,2.893 18.506 C 2.814 18.510,2.651 18.552,2.531 18.601 M53.966 31.210 C 53.397 41.788,46.010 50.763,35.800 53.283 C 33.575 53.831,32.513 53.949,29.850 53.940 C 27.725 53.933,27.284 53.903,26.000 53.672 C 20.029 52.601,14.975 49.619,11.222 44.950 L 10.498 44.050 15.947 44.000 L 21.396 43.950 21.673 43.673 L 21.950 43.395 21.950 40.990 L 21.950 38.584 21.623 38.292 L 21.297 38.000 11.648 38.000 L 2.000 38.000 2.000 47.605 C 2.000 58.038,1.978 57.621,2.547 57.881 C 2.726 57.962,3.527 58.000,5.053 58.000 L 7.297 58.000 7.623 57.708 L 7.950 57.417 8.000 53.953 L 8.050 50.490 8.450 50.904 C 8.980 51.452,10.885 53.130,11.700 53.767 C 13.374 55.074,16.031 56.639,18.050 57.508 C 21.935 59.178,25.672 59.940,30.000 59.945 C 32.618 59.948,34.370 59.756,36.811 59.198 C 46.292 57.029,54.307 50.112,57.894 41.000 C 59.111 37.908,59.761 34.849,59.959 31.275 L 60.029 30.000 57.030 30.000 L 54.031 30.000 53.966 31.210 " fill="#2B2C30" stroke="none" fill-rule="evenodd"></path></svg>