<svg width="60" height="58" viewBox="0 0 60 58" fill="none" xmlns="http://www.w3.org/2000/svg"><path d="M2.450 0.116 C 1.917 0.409,1.905 0.476,1.902 3.019 C 1.900 5.381,1.901 5.390,2.141 5.669 L 2.382 5.950 5.891 5.979 C 9.028 6.004,9.719 6.056,9.263 6.231 C 9.093 6.296,7.190 8.373,6.450 9.299 C 5.284 10.762,3.541 13.504,2.997 14.733 C 2.629 15.566,2.744 16.662,3.278 17.400 C 3.872 18.221,4.635 18.598,5.709 18.599 C 6.357 18.600,6.558 18.555,7.080 18.294 C 7.802 17.934,8.421 17.284,8.899 16.386 C 9.824 14.648,11.456 12.528,13.143 10.871 C 14.034 9.996,15.560 8.705,15.807 8.617 C 15.864 8.596,15.900 10.660,15.900 13.897 C 15.900 19.577,15.905 19.635,16.394 19.897 C 16.511 19.959,17.521 20.000,18.951 20.000 L 21.315 20.000 21.608 19.708 L 21.900 19.415 21.900 9.708 L 21.900 0.000 12.275 0.003 C 5.469 0.005,2.591 0.038,2.450 0.116 M41.350 1.024 C 39.689 1.621,38.920 3.535,39.689 5.161 C 40.080 5.987,40.474 6.351,41.866 7.178 C 42.517 7.564,43.559 8.242,44.181 8.684 C 44.803 9.126,45.537 9.563,45.813 9.654 C 46.534 9.894,47.696 9.823,48.333 9.501 C 50.051 8.631,50.498 6.293,49.190 5.018 C 48.204 4.057,45.368 2.167,43.673 1.342 C 42.916 0.973,42.672 0.901,42.207 0.908 C 41.901 0.912,41.515 0.964,41.350 1.024 M54.870 16.844 C 53.606 17.295,52.800 18.476,52.800 19.878 C 52.800 20.179,52.954 21.012,53.144 21.737 C 53.334 22.459,53.584 23.635,53.701 24.350 C 53.819 25.065,54.018 25.880,54.146 26.162 C 55.350 28.827,59.173 28.655,59.787 25.908 C 60.047 24.748,58.927 19.266,58.164 17.965 C 57.683 17.143,56.849 16.696,55.812 16.704 C 55.503 16.707,55.079 16.770,54.870 16.844 M1.832 28.258 C 1.291 28.457,0.550 29.114,0.274 29.637 C 0.098 29.971,0.058 30.212,0.063 30.900 C 0.071 31.917,0.394 33.867,0.850 35.650 C 1.297 37.396,1.555 38.049,1.987 38.529 C 3.031 39.687,4.987 39.706,6.124 38.569 C 6.851 37.842,7.251 36.493,7.019 35.550 C 6.965 35.330,6.785 34.610,6.618 33.950 C 6.451 33.290,6.245 32.300,6.159 31.750 C 5.964 30.508,5.875 30.195,5.558 29.655 C 5.261 29.148,4.755 28.684,4.172 28.384 C 3.623 28.101,2.431 28.037,1.832 28.258 M53.613 37.507 C 52.450 37.738,51.810 38.300,50.876 39.909 C 50.507 40.544,49.825 41.600,49.359 42.257 C 48.356 43.671,48.154 44.200,48.222 45.235 C 48.298 46.401,48.869 47.273,49.882 47.771 C 50.344 47.998,50.581 48.049,51.155 48.046 C 52.272 48.040,52.721 47.734,53.900 46.176 C 54.959 44.776,55.849 43.385,56.570 42.004 C 57.029 41.124,57.050 41.048,57.050 40.267 C 57.050 39.660,57.000 39.350,56.856 39.060 C 56.300 37.938,54.875 37.256,53.613 37.507 M11.850 46.477 C 11.172 46.700,10.298 47.566,10.068 48.243 C 9.692 49.348,9.966 50.487,10.787 51.227 C 12.554 52.820,16.394 55.138,17.478 55.266 C 18.598 55.399,19.822 54.668,20.308 53.578 C 20.628 52.861,20.638 51.752,20.332 51.082 C 20.026 50.414,19.371 49.750,18.556 49.280 C 17.361 48.592,16.587 48.094,15.665 47.418 C 14.527 46.584,13.854 46.304,13.000 46.309 C 12.643 46.311,12.125 46.386,11.850 46.477 M36.311 51.248 C 35.630 51.437,34.435 51.700,33.656 51.834 C 32.086 52.103,31.482 52.347,30.873 52.958 C 29.806 54.031,29.662 55.620,30.520 56.876 C 30.858 57.371,31.658 57.866,32.264 57.957 C 33.368 58.123,38.634 57.047,39.900 56.397 C 41.134 55.764,41.676 54.087,41.072 52.773 C 40.723 52.013,40.370 51.647,39.641 51.288 C 38.676 50.813,37.914 50.804,36.311 51.248 " fill="#2B2C30" stroke="none" fill-rule="evenodd"></path></svg>