<svg width="60" height="60" viewBox="0 0 60 60" fill="none" xmlns="http://www.w3.org/2000/svg"><path d="M30.511 0.140 C 30.042 0.400,30.007 0.595,30.004 3.035 L 30.000 5.320 30.328 5.648 C 30.630 5.950,30.720 5.980,31.503 6.042 C 37.382 6.507,42.371 8.685,46.527 12.601 C 49.674 15.566,52.166 19.779,53.197 23.881 C 54.657 29.693,54.076 35.380,51.487 40.600 C 47.932 47.769,41.342 52.540,33.300 53.767 C 31.708 54.010,28.292 54.010,26.700 53.767 C 24.046 53.362,21.688 52.626,19.402 51.489 C 12.217 47.917,7.444 41.323,6.235 33.300 C 6.020 31.871,5.992 28.394,6.186 27.000 C 6.786 22.675,8.278 19.002,10.826 15.576 C 11.854 14.195,13.918 12.079,15.175 11.118 L 16.000 10.487 16.000 15.892 L 16.000 21.297 16.292 21.623 L 16.584 21.950 19.000 21.950 L 21.416 21.950 21.708 21.623 L 22.000 21.297 22.000 11.648 L 22.000 2.000 12.395 2.000 C 1.962 2.000,2.379 1.978,2.119 2.547 C 2.038 2.726,2.000 3.527,2.000 5.053 L 2.000 7.297 2.292 7.623 L 2.583 7.950 6.052 7.979 L 9.521 8.008 8.684 8.879 C 2.752 15.054,-0.225 22.632,0.033 30.900 C 0.318 40.041,4.672 48.445,11.966 53.935 C 20.345 60.240,31.245 61.726,41.002 57.894 C 48.266 55.041,54.376 49.159,57.462 42.049 C 58.554 39.531,59.275 37.004,59.727 34.101 C 60.040 32.096,60.033 27.866,59.713 25.800 C 58.459 17.683,54.407 10.830,48.018 6.022 C 43.457 2.589,38.215 0.596,32.450 0.104 C 30.937 -0.025,30.803 -0.022,30.511 0.140 " fill="#2B2C30" stroke="none" fill-rule="evenodd"></path></svg>