<svg width="60" height="60" viewBox="0 0 60 60" fill="none" xmlns="http://www.w3.org/2000/svg"><path d="M28.100 0.058 C 27.907 0.080,27.255 0.147,26.650 0.208 C 23.414 0.530,19.946 1.537,16.850 3.052 C 8.201 7.286,2.187 15.227,0.458 24.700 C 0.108 26.617,-0.073 28.982,0.098 29.395 C 0.330 29.956,0.544 30.000,3.055 30.000 L 5.320 30.000 5.648 29.672 C 5.950 29.370,5.980 29.280,6.042 28.497 C 6.435 23.525,7.974 19.376,10.841 15.560 C 14.042 11.297,18.852 8.067,23.881 6.803 C 29.694 5.342,35.383 5.924,40.600 8.513 C 42.780 9.595,44.401 10.700,46.259 12.372 L 46.950 12.993 45.339 14.622 C 44.453 15.517,43.654 16.361,43.564 16.497 C 43.299 16.897,43.357 17.277,43.740 17.660 L 44.080 18.000 49.645 18.000 C 55.683 18.000,55.629 18.005,55.881 17.453 C 55.969 17.260,56.000 15.733,56.000 11.653 L 56.000 6.115 55.744 5.811 C 55.397 5.399,54.914 5.312,54.479 5.585 C 54.298 5.698,53.498 6.445,52.701 7.245 C 51.905 8.045,51.218 8.700,51.176 8.700 C 51.134 8.700,50.706 8.334,50.225 7.886 C 45.790 3.756,40.018 1.081,33.750 0.250 C 32.612 0.099,28.851 -0.029,28.100 0.058 M28.700 16.068 C 28.508 16.087,28.046 16.152,27.675 16.211 L 27.000 16.318 26.999 18.384 L 26.999 20.450 26.176 20.775 L 25.352 21.100 23.894 19.644 L 22.435 18.187 21.642 18.777 C 20.615 19.541,19.529 20.626,18.782 21.632 L 18.187 22.435 19.640 23.892 L 21.093 25.350 20.771 26.172 L 20.450 26.995 18.383 26.997 L 16.316 27.000 16.257 27.275 C 15.934 28.782,15.934 31.218,16.257 32.725 L 16.316 33.000 18.383 33.003 L 20.450 33.005 20.771 33.828 L 21.093 34.650 19.640 36.108 L 18.187 37.565 18.782 38.368 C 19.529 39.374,20.615 40.459,21.642 41.223 L 22.435 41.813 23.894 40.356 L 25.352 38.900 26.176 39.225 L 26.999 39.550 26.999 41.615 L 27.000 43.679 27.645 43.792 C 29.136 44.052,31.040 44.030,32.675 43.736 L 33.000 43.678 33.000 41.596 C 33.000 39.523,33.001 39.513,33.225 39.446 C 33.349 39.410,33.712 39.264,34.032 39.123 L 34.614 38.866 36.083 40.333 L 37.552 41.799 38.301 41.241 C 39.320 40.481,40.388 39.420,41.157 38.401 L 41.799 37.551 40.337 36.087 L 38.876 34.623 39.208 33.812 L 39.539 33.000 41.609 33.000 L 43.679 33.000 43.811 32.125 C 43.884 31.644,43.943 30.688,43.943 30.000 C 43.943 29.313,43.884 28.356,43.811 27.875 L 43.679 27.000 41.609 27.000 L 39.539 27.000 39.208 26.188 L 38.876 25.377 40.337 23.913 L 41.799 22.449 41.157 21.599 C 40.388 20.580,39.320 19.519,38.301 18.759 L 37.552 18.201 36.083 19.667 L 34.614 21.134 34.032 20.877 C 33.712 20.736,33.349 20.590,33.225 20.554 C 33.001 20.487,33.000 20.478,33.000 18.393 C 33.000 17.242,32.989 16.300,32.975 16.299 C 32.961 16.299,32.455 16.232,31.850 16.151 C 30.834 16.015,29.548 15.981,28.700 16.068 M31.622 26.372 C 34.714 27.819,34.786 32.059,31.744 33.563 C 30.502 34.177,29.121 34.131,27.937 33.437 C 27.344 33.090,26.630 32.288,26.320 31.622 C 26.085 31.117,26.054 30.927,26.054 30.000 C 26.054 29.073,26.085 28.883,26.320 28.378 C 26.611 27.752,27.333 26.920,27.873 26.586 C 28.959 25.915,30.462 25.829,31.622 26.372 M54.524 30.133 C 54.116 30.359,54.025 30.621,53.909 31.901 C 53.604 35.263,52.867 37.874,51.389 40.830 C 48.490 46.628,43.110 51.135,36.880 52.987 C 34.350 53.739,32.757 53.953,29.800 53.939 C 27.746 53.930,27.267 53.896,26.000 53.670 C 21.313 52.836,17.254 50.857,13.822 47.733 L 12.983 46.969 14.764 45.186 C 16.495 43.453,16.545 43.391,16.545 42.991 C 16.545 42.653,16.487 42.528,16.221 42.290 L 15.897 42.000 10.288 42.000 L 4.680 42.000 4.340 42.340 L 4.000 42.680 4.000 48.288 L 4.000 53.897 4.290 54.221 C 4.528 54.487,4.653 54.545,4.991 54.545 C 5.389 54.545,5.456 54.492,7.076 52.882 L 8.750 51.219 9.800 52.169 C 14.454 56.384,19.884 58.883,26.300 59.762 C 28.690 60.090,32.516 59.995,35.100 59.543 C 42.881 58.183,49.850 53.799,54.402 47.400 C 56.900 43.890,58.667 39.756,59.444 35.610 C 59.679 34.355,59.894 32.465,59.915 31.460 C 59.934 30.576,59.932 30.568,59.616 30.285 L 59.297 30.000 57.023 30.004 C 55.393 30.006,54.686 30.043,54.524 30.133 " fill="#2B2C30" stroke="none" fill-rule="evenodd"></path></svg>