<svg width="60" height="60" viewBox="0 0 60 60" fill="none" xmlns="http://www.w3.org/2000/svg"><path d="M27.450 0.096 C 18.124 0.938,9.973 5.755,4.852 13.450 C 2.259 17.346,0.396 22.510,0.039 26.793 C -0.072 28.120,0.438 29.102,1.536 29.677 C 1.968 29.903,2.178 29.946,2.850 29.948 C 3.798 29.950,4.400 29.706,5.053 29.053 C 5.660 28.445,5.891 27.869,6.165 26.272 C 6.641 23.493,7.283 21.515,8.457 19.200 C 13.959 8.354,26.496 3.358,37.996 7.428 C 39.383 7.919,41.812 9.132,43.050 9.953 C 44.117 10.660,45.374 11.654,46.212 12.454 L 46.817 13.031 45.169 14.690 C 44.263 15.603,43.472 16.448,43.411 16.568 C 43.175 17.034,43.387 17.671,43.847 17.881 C 44.040 17.969,45.568 18.000,49.653 18.000 L 55.197 18.000 55.523 17.708 L 55.850 17.416 55.850 11.716 L 55.850 6.016 55.609 5.760 C 55.298 5.429,54.813 5.335,54.437 5.534 C 54.279 5.618,53.455 6.385,52.606 7.238 L 51.062 8.790 50.292 8.055 C 47.270 5.168,42.840 2.591,38.781 1.361 C 35.857 0.475,33.508 0.110,30.350 0.051 C 29.250 0.031,27.945 0.051,27.450 0.096 M56.050 30.134 C 55.388 30.353,55.061 30.561,54.611 31.050 C 54.030 31.680,53.850 32.134,53.602 33.590 C 53.211 35.881,52.789 37.391,52.041 39.176 C 49.232 45.883,43.666 50.901,36.700 53.011 C 32.838 54.181,28.291 54.304,24.300 53.346 C 20.320 52.390,16.500 50.345,13.559 47.594 L 12.887 46.965 14.653 45.197 C 16.249 43.599,16.420 43.395,16.429 43.077 C 16.441 42.654,16.183 42.227,15.838 42.096 C 15.448 41.947,4.776 41.970,4.447 42.119 C 3.896 42.371,3.900 42.323,3.900 48.290 C 3.900 52.190,3.933 53.863,4.014 54.040 C 4.161 54.363,4.724 54.633,5.084 54.553 C 5.263 54.514,5.934 53.917,6.997 52.853 L 8.635 51.213 9.376 51.905 C 16.717 58.761,27.082 61.495,36.850 59.152 C 46.708 56.788,54.683 49.628,58.118 40.056 C 58.881 37.929,59.543 34.975,59.666 33.150 C 59.720 32.357,59.700 32.188,59.502 31.727 C 59.248 31.136,58.603 30.488,58.032 30.248 C 57.505 30.028,56.538 29.972,56.050 30.134 " fill="#2B2C30" stroke="none" fill-rule="evenodd"></path></svg>