<svg width="58" height="56" viewBox="0 0 58 56" fill="none" xmlns="http://www.w3.org/2000/svg"><path d="M11.797 0.155 C 10.904 0.395,9.990 1.102,9.492 1.939 C 9.033 2.709,8.990 3.165,8.990 7.215 L 8.990 11.007 5.631 11.037 L 2.272 11.068 1.726 11.336 C 0.314 12.030,-0.332 13.605,0.206 15.044 C 0.468 15.745,1.030 16.355,1.726 16.697 L 2.272 16.965 5.631 16.994 L 8.990 17.023 8.990 34.784 C 8.990 54.155,8.961 53.120,9.530 54.091 C 9.887 54.700,10.736 55.436,11.383 55.697 L 11.938 55.922 29.000 55.922 L 46.062 55.922 46.617 55.697 C 47.264 55.436,48.113 54.700,48.470 54.091 C 49.039 53.120,49.010 54.155,49.010 34.784 L 49.010 17.023 52.321 16.994 C 55.571 16.966,55.641 16.961,56.141 16.735 C 56.826 16.425,57.561 15.617,57.756 14.960 C 58.199 13.470,57.568 12.019,56.183 11.339 L 55.632 11.068 52.321 11.037 L 49.010 11.006 49.010 7.215 C 49.010 3.165,48.967 2.709,48.508 1.939 C 48.219 1.454,47.682 0.907,47.172 0.580 C 46.219 -0.033,47.236 -0.001,28.956 0.006 C 14.646 0.012,12.251 0.033,11.797 0.155 M43.017 27.985 L 43.017 49.977 29.000 49.977 L 14.983 49.977 14.983 49.590 L 14.983 49.203 22.898 43.927 C 28.190 40.399,30.849 38.572,30.921 38.412 C 31.062 38.104,31.059 37.869,30.909 37.539 C 30.820 37.342,28.741 35.914,22.886 32.027 L 14.983 26.781 14.983 16.387 L 14.983 5.993 29.000 5.993 L 43.017 5.993 43.017 27.985 M18.040 36.000 L 20.999 37.973 18.112 39.897 C 16.524 40.955,15.171 41.853,15.104 41.893 C 15.008 41.950,14.983 41.145,14.983 37.996 C 14.983 35.813,15.005 34.027,15.032 34.027 C 15.059 34.027,16.413 34.915,18.040 36.000 " fill="#2B2C30" stroke="none" fill-rule="evenodd"></path></svg>