<svg width="40" height="54" viewBox="0 0 40 54" fill="none" xmlns="http://www.w3.org/2000/svg"><path d="M22.633 0.093 C 22.396 0.197,12.326 9.247,12.153 9.512 C 11.985 9.768,11.995 10.271,12.172 10.512 C 12.392 10.810,22.408 19.781,22.659 19.904 C 23.073 20.107,23.566 19.949,23.896 19.508 C 24.030 19.329,24.034 19.236,24.052 16.162 L 24.070 13.000 29.035 13.000 L 34.000 13.000 34.000 26.994 L 34.000 40.988 33.317 41.011 C 32.739 41.030,32.601 41.056,32.425 41.182 C 32.011 41.477,32.000 41.552,32.000 44.001 C 32.000 46.154,32.004 46.222,32.146 46.474 C 32.238 46.639,32.391 46.782,32.567 46.867 C 32.821 46.990,32.977 47.000,34.604 46.999 C 36.616 46.998,37.014 46.942,37.799 46.556 C 38.162 46.378,38.433 46.174,38.799 45.806 C 39.378 45.223,39.678 44.705,39.868 43.960 C 39.998 43.454,40.000 43.159,40.000 27.000 C 40.000 10.841,39.998 10.546,39.868 10.040 C 39.676 9.287,39.380 8.775,38.802 8.198 C 38.225 7.620,37.713 7.324,36.960 7.132 C 36.466 7.005,36.202 7.000,30.267 7.000 L 24.088 7.000 24.044 4.989 C 24.020 3.883,24.000 2.463,24.000 1.832 C 24.000 0.753,23.991 0.674,23.850 0.467 C 23.569 0.055,23.070 -0.098,22.633 0.093 M3.133 7.104 C 1.661 7.421,0.412 8.682,0.100 10.167 C -0.047 10.866,-0.048 43.131,0.099 43.825 C 0.339 44.956,1.185 46.053,2.200 46.547 C 3.143 47.007,3.022 47.000,9.864 47.000 L 16.000 47.000 16.000 50.137 C 16.000 53.563,15.995 53.511,16.389 53.792 C 16.668 53.991,17.049 54.027,17.346 53.885 C 17.610 53.758,27.672 44.755,27.845 44.491 C 27.995 44.263,27.980 43.696,27.820 43.476 C 27.634 43.222,17.890 34.427,17.537 34.195 C 17.176 33.958,16.867 33.945,16.507 34.151 C 15.989 34.448,16.000 34.369,16.000 37.882 L 16.000 41.000 11.000 41.000 L 6.000 41.000 6.000 27.000 L 6.000 13.000 6.579 13.000 C 7.327 13.000,7.663 12.854,7.863 12.442 C 7.993 12.173,8.000 12.044,7.999 9.996 C 7.997 8.014,7.986 7.810,7.870 7.554 C 7.780 7.356,7.665 7.234,7.474 7.137 C 7.221 7.008,7.097 7.000,5.386 7.005 C 4.094 7.009,3.441 7.038,3.133 7.104 " fill="#2B2C30" stroke="none" fill-rule="evenodd"></path></svg>