<svg width="60" height="60" viewBox="0 0 60 60" fill="none" xmlns="http://www.w3.org/2000/svg"><path d="M27.550 0.109 C 22.541 0.516,17.539 2.254,13.400 5.026 C 6.231 9.827,1.614 17.139,0.285 25.800 C -0.039 27.910,-0.039 32.090,0.285 34.200 C 1.520 42.245,5.594 49.142,11.950 53.945 C 22.601 61.995,37.436 62.003,48.030 53.966 C 54.957 48.710,59.171 41.033,59.906 32.327 C 60.104 29.984,60.123 30.000,57.000 30.000 C 54.597 30.000,54.347 30.047,54.119 30.547 C 54.054 30.691,53.954 31.336,53.898 31.980 C 53.344 38.341,50.421 44.082,45.650 48.179 C 41.085 52.100,35.164 54.183,29.200 53.967 C 24.536 53.798,20.478 52.486,16.607 49.896 C 10.962 46.119,7.288 40.240,6.234 33.300 C 5.993 31.709,5.993 28.291,6.234 26.700 C 7.278 19.830,10.849 14.059,16.432 10.219 C 19.458 8.138,22.863 6.817,26.700 6.234 C 28.291 5.993,31.709 5.993,33.300 6.234 C 38.367 7.004,42.656 9.049,46.400 12.481 L 46.950 12.986 45.339 14.618 C 44.453 15.515,43.654 16.361,43.564 16.497 C 43.299 16.897,43.357 17.277,43.740 17.660 L 44.080 18.000 49.645 18.000 C 55.683 18.000,55.629 18.005,55.881 17.453 C 55.969 17.260,56.000 15.733,56.000 11.653 L 56.000 6.115 55.744 5.811 C 55.447 5.458,54.936 5.322,54.586 5.504 C 54.456 5.571,53.642 6.326,52.777 7.182 L 51.204 8.738 50.977 8.539 C 50.852 8.429,50.415 8.034,50.005 7.662 C 44.031 2.236,35.731 -0.555,27.550 0.109 M24.372 18.109 C 23.534 18.306,22.744 18.935,22.317 19.744 L 22.050 20.250 22.050 30.000 L 22.050 39.750 22.316 40.250 C 22.636 40.850,23.188 41.395,23.800 41.713 C 24.426 42.038,25.661 42.047,26.259 41.729 C 26.855 41.413,40.609 32.421,40.877 32.172 C 41.589 31.512,41.917 30.311,41.659 29.305 C 41.418 28.363,41.053 27.920,39.878 27.145 C 32.662 22.386,26.351 18.324,25.950 18.183 C 25.407 17.991,24.961 17.970,24.372 18.109 M29.834 27.717 C 30.778 28.331,31.950 29.101,32.438 29.428 L 33.326 30.022 31.788 31.026 C 30.942 31.578,29.744 32.359,29.125 32.762 L 28.000 33.495 28.000 30.047 C 28.000 28.151,28.027 26.600,28.059 26.600 C 28.092 26.600,28.890 27.103,29.834 27.717 " fill="#2B2C30" stroke="none" fill-rule="evenodd"></path></svg>