<svg width="56" height="52" viewBox="0 0 56 52" fill="none" xmlns="http://www.w3.org/2000/svg"><path d="M27.096 0.168 C 26.098 0.524,25.488 1.128,25.165 2.080 C 25.039 2.452,25.013 2.984,25.013 5.277 L 25.013 8.027 14.882 8.027 C 3.874 8.027,4.368 8.003,4.125 8.537 C 4.043 8.717,4.013 10.015,4.013 13.386 L 4.013 17.989 3.458 18.052 C 2.346 18.178,1.079 19.045,0.528 20.055 C 0.067 20.904,0.000 21.396,0.000 23.955 C -0.000 25.344,0.043 26.514,0.105 26.805 C 0.315 27.797,0.914 28.704,1.726 29.264 C 2.255 29.628,3.194 29.960,3.695 29.960 L 4.013 29.960 4.013 34.586 C 4.013 39.406,4.017 39.454,4.421 39.781 C 4.608 39.933,5.987 39.943,28.000 39.943 C 50.013 39.943,51.392 39.933,51.579 39.781 C 51.983 39.454,51.987 39.406,51.987 34.586 L 51.987 29.960 52.305 29.960 C 53.210 29.960,54.534 29.258,55.102 28.478 C 55.916 27.361,56.000 26.937,56.000 23.955 C 56.000 21.396,55.933 20.904,55.472 20.055 C 54.921 19.045,53.654 18.178,52.542 18.052 L 51.987 17.989 51.987 13.372 C 51.987 8.339,51.990 8.372,51.454 8.128 C 51.298 8.057,48.188 8.027,41.109 8.027 L 30.987 8.027 30.987 5.284 C 30.987 2.201,30.949 1.957,30.342 1.154 C 29.639 0.222,28.182 -0.220,27.096 0.168 M46.013 23.987 L 46.013 33.973 28.000 33.973 L 9.987 33.973 9.987 23.987 L 9.987 14.000 28.000 14.000 L 46.013 14.000 46.013 23.987 M18.947 18.141 C 17.885 18.451,16.848 19.313,16.406 20.253 C 16.025 21.062,15.960 21.676,15.960 24.473 C 15.960 27.354,15.999 27.590,16.515 27.857 C 16.767 27.988,17.226 28.003,20.123 27.980 L 23.442 27.953 23.714 27.649 L 23.987 27.344 23.987 24.368 C 23.987 21.651,23.970 21.340,23.799 20.785 C 23.453 19.664,22.474 18.644,21.353 18.235 C 20.812 18.038,19.478 17.986,18.947 18.141 M34.924 18.159 C 33.538 18.532,32.410 19.734,32.103 21.162 C 32.043 21.441,32.016 22.744,32.033 24.527 L 32.060 27.436 32.319 27.695 L 32.577 27.953 35.725 27.981 C 37.457 27.997,39.005 27.985,39.166 27.956 C 39.327 27.926,39.571 27.790,39.707 27.654 L 39.956 27.406 39.928 24.180 L 39.900 20.953 39.607 20.335 C 39.446 19.995,39.160 19.547,38.972 19.338 C 37.981 18.241,36.366 17.771,34.924 18.159 M16.499 42.145 C 16.359 42.221,16.202 42.364,16.149 42.462 C 16.096 42.561,16.053 43.250,16.053 43.999 L 16.053 45.357 16.326 45.662 L 16.598 45.967 28.000 45.967 L 39.402 45.967 39.674 45.662 L 39.947 45.357 39.947 43.999 C 39.947 43.246,39.904 42.561,39.851 42.461 C 39.594 41.981,40.070 42.000,27.981 42.004 C 18.254 42.007,16.719 42.026,16.499 42.145 M18.501 48.160 C 18.333 48.263,18.154 48.454,18.104 48.586 C 18.054 48.718,18.013 49.389,18.013 50.078 C 18.013 51.330,18.013 51.331,18.286 51.635 L 18.558 51.940 28.000 51.940 L 37.442 51.940 37.714 51.635 C 37.987 51.331,37.987 51.330,37.987 50.078 C 37.987 49.389,37.946 48.718,37.896 48.586 C 37.846 48.454,37.667 48.263,37.499 48.160 C 37.199 47.977,37.024 47.974,28.000 47.974 C 18.976 47.974,18.801 47.977,18.501 48.160 " fill="#2B2C30" stroke="none" fill-rule="evenodd"></path></svg>