<svg width="56" height="45" viewBox="0 0 56 45" fill="none" xmlns="http://www.w3.org/2000/svg"><path d="M23.753 0.103 C 16.094 0.444,9.201 1.861,4.703 4.017 C 2.511 5.067,1.023 6.791,0.314 9.100 C 0.070 9.898,0.056 10.036,0.052 11.853 C 0.047 13.761,0.047 13.768,0.306 14.295 C 0.755 15.208,1.556 15.782,2.625 15.955 C 3.381 16.078,8.394 16.081,9.764 15.960 C 11.489 15.807,13.017 15.260,14.327 14.325 C 14.635 14.106,15.543 13.260,16.344 12.446 C 18.352 10.408,19.097 9.218,19.639 7.187 L 19.851 6.393 21.102 6.281 C 24.574 5.970,31.263 5.970,34.854 6.281 L 36.155 6.393 36.231 6.720 C 36.528 8.010,36.983 9.092,37.684 10.173 C 38.274 11.083,40.769 13.680,41.673 14.325 C 42.983 15.260,44.511 15.807,46.236 15.960 C 47.606 16.081,52.619 16.078,53.375 15.955 C 54.444 15.782,55.245 15.208,55.694 14.295 C 55.953 13.768,55.953 13.763,55.947 11.853 C 55.940 10.043,55.926 9.895,55.684 9.100 C 54.985 6.809,53.553 5.134,51.380 4.066 C 45.339 1.098,34.930 -0.395,23.753 0.103 M14.645 6.414 C 14.318 7.274,13.894 7.854,12.740 9.017 C 11.442 10.326,10.878 10.703,9.912 10.908 C 9.626 10.969,8.495 11.013,7.229 11.013 L 5.040 11.013 5.040 10.803 C 5.040 10.425,5.559 9.484,5.973 9.111 C 6.837 8.332,9.641 7.286,13.020 6.483 C 13.739 6.312,14.420 6.169,14.534 6.166 C 14.722 6.161,14.733 6.184,14.645 6.414 M43.565 6.632 C 46.481 7.349,49.198 8.384,49.990 9.081 C 50.438 9.476,50.960 10.402,50.960 10.803 L 50.960 11.013 48.771 11.013 C 47.505 11.013,46.374 10.969,46.088 10.908 C 45.119 10.703,44.558 10.327,43.260 9.016 C 42.104 7.849,41.679 7.266,41.350 6.402 L 41.249 6.135 41.648 6.197 C 41.867 6.231,42.730 6.427,43.565 6.632 M20.685 12.225 C 19.522 12.597,19.727 12.365,11.939 22.092 C 7.944 27.081,4.583 31.344,4.470 31.565 C 4.029 32.428,4.015 32.612,4.016 37.660 C 4.017 42.064,4.030 42.448,4.187 42.794 C 4.390 43.241,4.905 43.715,5.335 43.854 C 5.552 43.923,12.464 43.962,28.093 43.980 L 50.540 44.007 50.931 43.798 C 51.367 43.565,51.720 43.143,51.880 42.663 C 51.954 42.442,51.987 40.916,51.987 37.666 C 51.987 32.683,51.967 32.422,51.516 31.539 C 51.411 31.332,48.056 27.081,44.061 22.092 C 36.242 12.326,36.479 12.592,35.285 12.221 C 34.731 12.049,34.378 12.040,27.968 12.045 C 21.644 12.050,21.200 12.061,20.685 12.225 M39.573 26.063 L 46.013 34.113 46.013 36.044 C 46.013 37.331,45.980 37.997,45.912 38.038 C 45.856 38.073,37.750 38.069,27.899 38.031 L 9.987 37.961 9.987 36.037 L 9.987 34.113 16.427 26.063 L 22.867 18.013 28.000 18.013 L 33.133 18.013 39.573 26.063 M26.994 20.073 C 25.371 20.270,23.631 21.109,22.455 22.260 C 21.329 23.362,20.651 24.547,20.239 26.130 C 19.980 27.126,19.985 28.891,20.250 29.913 C 21.012 32.857,23.274 35.080,26.195 35.755 C 27.348 36.021,29.265 35.973,30.287 35.651 C 31.825 35.166,33.214 34.243,34.158 33.081 C 35.896 30.939,36.424 28.056,35.556 25.446 C 34.367 21.872,30.768 19.613,26.994 20.073 M28.887 26.202 C 30.235 26.875,30.368 28.762,29.130 29.632 C 28.768 29.887,28.662 29.913,28.000 29.913 C 27.338 29.913,27.232 29.887,26.870 29.632 C 25.675 28.793,25.759 26.910,27.020 26.249 C 27.629 25.929,28.307 25.912,28.887 26.202 " fill="#2B2C30" stroke="none" fill-rule="evenodd"></path></svg>