<svg width="56" height="56" viewBox="0 0 56 56" fill="none" xmlns="http://www.w3.org/2000/svg"><path d="M44.637 0.100 C 41.291 0.534,38.201 2.872,36.851 5.989 C 36.210 7.471,36.081 8.138,36.077 9.987 C 36.074 11.408,36.101 11.723,36.289 12.413 C 36.688 13.884,37.327 15.166,38.202 16.247 C 38.448 16.552,38.626 16.840,38.598 16.886 C 38.511 17.026,30.232 23.751,30.115 23.777 C 30.055 23.790,26.143 20.355,21.420 16.144 C 12.454 8.150,12.355 8.070,11.267 7.845 C 10.943 7.778,8.982 7.752,5.415 7.769 L 0.049 7.793 12.415 17.863 C 19.216 23.401,24.814 27.962,24.855 27.999 C 24.896 28.035,19.342 32.618,12.512 38.183 L 0.094 48.300 5.621 48.324 C 10.979 48.347,11.166 48.342,11.723 48.157 C 12.040 48.051,12.487 47.831,12.718 47.666 C 12.948 47.501,16.944 43.974,21.597 39.827 C 27.366 34.686,30.096 32.310,30.179 32.360 C 30.245 32.400,32.173 33.962,34.464 35.830 L 38.627 39.226 38.190 39.767 C 37.328 40.833,36.686 42.123,36.289 43.587 C 36.101 44.277,36.074 44.592,36.077 46.013 C 36.080 47.409,36.111 47.760,36.291 48.424 C 36.783 50.242,37.628 51.720,38.918 53.022 C 40.963 55.084,43.637 56.122,46.519 55.972 C 51.625 55.707,55.707 51.625,55.972 46.519 C 56.190 42.340,53.774 38.466,49.920 36.814 C 48.629 36.261,47.753 36.088,46.200 36.080 C 45.456 36.076,44.634 36.094,44.374 36.120 L 43.902 36.167 39.353 32.116 C 36.851 29.888,34.838 28.033,34.879 27.994 C 34.920 27.955,37.003 26.098,39.508 23.868 L 44.063 19.814 44.548 19.903 C 45.339 20.049,47.528 19.938,48.410 19.706 C 53.091 18.478,56.220 14.247,55.972 9.481 C 55.786 5.902,53.691 2.696,50.473 1.065 C 48.750 0.192,46.627 -0.159,44.637 0.100 M47.376 6.268 C 49.572 7.076,50.591 9.594,49.588 11.732 C 49.294 12.358,48.471 13.232,47.902 13.522 C 46.248 14.366,44.342 14.040,43.087 12.698 C 41.617 11.127,41.670 8.713,43.207 7.183 C 44.306 6.089,45.925 5.734,47.376 6.268 M46.997 42.144 C 48.534 42.542,49.706 43.848,49.927 45.411 C 50.237 47.600,48.810 49.539,46.585 49.953 C 45.883 50.084,45.015 49.947,44.246 49.584 C 43.584 49.272,42.762 48.451,42.430 47.771 C 40.942 44.718,43.719 41.296,46.997 42.144 " fill="#2B2C30" stroke="none" fill-rule="evenodd"></path></svg>