<svg width="56" height="36" viewBox="0 0 56 36" fill="none" xmlns="http://www.w3.org/2000/svg"><path d="M0.607 0.088 C 0.504 0.130,0.336 0.258,0.233 0.372 C 0.048 0.578,0.047 0.711,0.047 18.016 L 0.047 35.452 0.273 35.692 L 0.499 35.933 2.995 35.933 L 5.490 35.933 5.732 35.646 L 5.973 35.359 5.973 17.997 L 5.973 0.635 5.656 0.317 L 5.339 0.000 3.066 0.006 C 1.816 0.009,0.709 0.046,0.607 0.088 M50.623 0.089 C 50.514 0.134,50.336 0.285,50.226 0.425 L 50.027 0.679 50.027 18.019 L 50.027 35.359 50.268 35.646 L 50.510 35.933 53.005 35.933 L 55.501 35.933 55.727 35.692 L 55.953 35.452 55.953 18.008 L 55.953 0.564 55.695 0.305 L 55.436 0.047 53.128 0.027 C 51.859 0.016,50.731 0.044,50.623 0.089 M18.527 8.420 C 18.424 8.479,16.147 10.540,13.466 13.001 C 8.216 17.819,8.309 17.716,8.583 18.379 C 8.688 18.632,18.073 27.343,18.517 27.600 C 18.770 27.746,19.153 27.750,19.463 27.608 C 19.952 27.385,19.973 27.237,19.973 23.991 L 19.973 21.000 28.000 21.000 L 36.027 21.000 36.027 23.991 C 36.027 27.237,36.048 27.385,36.537 27.608 C 36.847 27.750,37.230 27.746,37.483 27.600 C 37.865 27.380,47.295 18.655,47.400 18.425 C 47.535 18.129,47.535 17.898,47.400 17.602 C 47.296 17.372,37.866 8.648,37.483 8.427 C 37.039 8.170,36.341 8.373,36.138 8.817 C 36.059 8.991,36.027 9.931,36.027 12.044 L 36.027 15.027 28.000 15.027 L 19.973 15.027 19.973 12.044 C 19.973 9.931,19.941 8.991,19.862 8.817 C 19.661 8.378,18.962 8.169,18.527 8.420 " fill="#2B2C30" stroke="none" fill-rule="evenodd"></path></svg>