<svg width="44" height="48" viewBox="0 0 44 48" fill="none" xmlns="http://www.w3.org/2000/svg"><path d="M0.550 0.136 C 0.429 0.211,0.264 0.346,0.183 0.437 C 0.042 0.596,0.036 0.721,0.017 3.913 C -0.002 7.014,0.006 7.239,0.133 7.474 C 0.415 7.997,0.386 7.993,3.996 7.993 C 7.604 7.993,7.588 7.995,7.859 7.481 C 7.983 7.245,7.993 6.987,7.993 4.009 C 7.993 0.409,7.998 0.447,7.486 0.159 C 7.208 0.003,7.149 0.000,3.987 0.000 C 0.983 0.001,0.755 0.010,0.550 0.136 M12.549 0.125 C 12.413 0.193,12.240 0.349,12.164 0.472 C 12.036 0.683,12.027 0.904,12.027 3.997 C 12.027 7.177,12.033 7.305,12.175 7.539 C 12.449 7.989,12.490 7.993,16.039 7.993 C 19.092 7.993,19.262 7.986,19.484 7.850 C 20.001 7.535,19.983 7.672,19.983 3.987 C 19.983 0.748,19.980 0.666,19.831 0.464 C 19.490 -0.001,19.502 0.000,15.987 0.002 C 13.161 0.003,12.768 0.017,12.549 0.125 M24.572 0.128 C 24.434 0.199,24.252 0.350,24.169 0.464 C 24.020 0.666,24.017 0.748,24.017 3.987 C 24.017 7.672,23.999 7.535,24.516 7.850 C 24.738 7.986,24.908 7.993,27.961 7.993 C 31.510 7.993,31.551 7.989,31.825 7.539 C 31.967 7.305,31.973 7.177,31.973 3.997 C 31.973 0.897,31.964 0.683,31.835 0.471 C 31.550 0.004,31.521 -0.000,28.002 0.000 C 25.121 0.000,24.800 0.012,24.572 0.128 M36.538 0.146 C 36.406 0.226,36.233 0.400,36.153 0.531 C 36.013 0.760,36.007 0.906,36.007 3.998 C 36.007 6.984,36.017 7.244,36.141 7.475 C 36.420 7.997,36.395 7.993,39.991 7.993 C 43.591 7.993,43.553 7.998,43.841 7.486 C 43.997 7.208,44.000 7.149,44.000 3.987 C 43.999 0.906,43.993 0.760,43.854 0.531 C 43.774 0.400,43.600 0.226,43.469 0.146 C 43.240 0.007,43.094 0.001,40.003 0.001 C 36.913 0.001,36.767 0.007,36.538 0.146 M0.518 12.161 C 0.380 12.234,0.208 12.407,0.134 12.545 C 0.008 12.780,0.000 13.098,-0.000 17.991 C -0.000 23.744,-0.016 23.545,0.471 23.842 C 0.686 23.973,0.941 23.979,6.002 23.980 C 11.868 23.980,11.553 24.005,11.852 23.512 C 11.984 23.294,11.990 23.047,11.990 18.000 C 11.990 12.116,12.022 12.494,11.491 12.170 C 11.265 12.032,11.081 12.027,6.012 12.027 C 1.073 12.027,0.753 12.034,0.518 12.161 M16.610 12.096 C 16.409 12.180,16.159 12.461,16.065 12.710 C 16.012 12.849,15.987 14.581,15.988 18.026 C 15.990 22.888,15.997 23.152,16.129 23.443 C 16.386 24.009,16.064 23.980,22.000 23.980 C 27.936 23.980,27.614 24.009,27.871 23.443 C 28.003 23.152,28.010 22.888,28.012 18.019 C 28.013 12.478,28.024 12.625,27.614 12.247 L 27.415 12.063 22.086 12.049 C 19.155 12.041,16.691 12.062,16.610 12.096 M32.509 12.170 C 31.978 12.494,32.010 12.116,32.010 18.000 C 32.010 23.047,32.016 23.294,32.148 23.512 C 32.447 24.005,32.132 23.980,37.998 23.980 C 43.059 23.979,43.314 23.973,43.529 23.842 C 44.016 23.545,44.000 23.744,44.000 17.991 C 44.000 13.098,43.992 12.780,43.866 12.545 C 43.792 12.407,43.620 12.234,43.482 12.161 C 43.247 12.034,42.927 12.027,37.988 12.027 C 32.919 12.027,32.735 12.032,32.509 12.170 M0.592 28.142 C 0.454 28.212,0.272 28.363,0.189 28.477 C 0.037 28.684,0.037 28.709,0.017 37.937 C 0.003 44.755,0.020 47.243,0.082 47.393 C 0.128 47.505,0.263 47.678,0.382 47.778 L 0.598 47.960 10.023 47.960 L 19.448 47.960 19.690 47.718 C 19.884 47.524,19.942 47.395,19.980 47.076 C 20.006 46.856,20.018 42.628,20.005 37.680 C 19.983 28.714,19.983 28.683,19.831 28.477 C 19.748 28.363,19.566 28.212,19.428 28.142 C 19.193 28.022,18.592 28.014,10.010 28.014 C 1.428 28.014,0.827 28.022,0.592 28.142 M24.572 28.142 C 24.434 28.212,24.252 28.363,24.169 28.477 C 24.017 28.683,24.017 28.713,23.995 37.754 C 23.983 42.742,23.994 46.970,24.020 47.149 C 24.053 47.381,24.136 47.544,24.309 47.717 L 24.552 47.960 33.977 47.960 L 43.402 47.960 43.618 47.778 C 43.737 47.678,43.872 47.505,43.918 47.393 C 43.980 47.243,43.997 44.755,43.983 37.937 C 43.963 28.709,43.963 28.684,43.811 28.477 C 43.728 28.363,43.546 28.212,43.408 28.142 C 43.173 28.022,42.572 28.014,33.990 28.014 C 25.408 28.014,24.807 28.022,24.572 28.142 M14.007 38.023 L 14.007 42.020 10.010 42.020 L 6.013 42.020 6.013 38.023 L 6.013 34.027 10.010 34.027 L 14.007 34.027 14.007 38.023 M37.987 38.023 L 37.987 42.020 33.990 42.020 L 29.993 42.020 29.993 38.023 L 29.993 34.027 33.990 34.027 L 37.987 34.027 37.987 38.023 " fill="#2B2C30" stroke="none" fill-rule="evenodd"></path></svg>