<svg width="58" height="61" viewBox="0 0 58 61" fill="none" xmlns="http://www.w3.org/2000/svg"><path d="M27.315 0.138 C 27.107 0.216,26.795 0.423,26.623 0.599 C 26.188 1.044,14.043 23.341,13.963 23.841 C 13.876 24.381,14.068 24.985,14.463 25.423 C 15.124 26.155,14.143 26.108,28.187 26.078 L 40.762 26.052 41.161 25.775 C 41.647 25.438,42.050 24.687,42.050 24.118 C 42.050 23.852,41.926 23.469,41.671 22.953 C 41.463 22.531,38.643 17.335,35.405 11.407 C 29.597 0.771,29.513 0.625,29.065 0.348 C 28.526 0.015,27.864 -0.064,27.315 0.138 M30.726 15.334 C 32.061 17.786,33.181 19.864,33.214 19.950 C 33.269 20.093,32.825 20.107,27.987 20.107 C 24.876 20.107,22.714 20.071,22.733 20.019 C 22.750 19.971,23.939 17.779,25.375 15.147 L 27.985 10.362 28.142 10.618 C 28.228 10.760,29.391 12.882,30.726 15.334 M42.582 32.191 C 40.541 32.408,38.443 33.106,36.782 34.121 C 33.267 36.269,30.847 39.855,30.200 43.874 C 30.028 44.941,30.009 47.110,30.162 48.140 C 30.603 51.115,31.978 53.835,34.120 55.971 C 36.812 58.656,40.185 60.053,43.983 60.057 C 47.842 60.060,51.108 58.709,53.853 55.975 C 55.916 53.919,57.103 51.723,57.720 48.817 C 58.007 47.464,58.029 44.971,57.766 43.597 C 56.589 37.447,51.634 32.861,45.454 32.200 C 44.366 32.083,43.619 32.081,42.582 32.191 M0.494 34.258 C -0.015 34.540,0.007 34.016,0.003 46.144 L -0.000 57.439 0.329 57.768 L 0.657 58.097 11.933 58.097 C 24.070 58.097,23.608 58.115,23.874 57.619 C 23.940 57.494,23.973 53.675,23.973 46.058 L 23.973 34.684 23.673 34.404 L 23.373 34.123 12.049 34.127 C 2.835 34.130,0.682 34.154,0.494 34.258 M45.592 38.271 C 46.527 38.465,47.809 39.010,48.588 39.546 C 49.175 39.950,50.138 40.909,50.535 41.487 C 51.017 42.187,51.496 43.207,51.734 44.040 C 52.046 45.130,52.047 47.084,51.737 48.168 C 50.227 53.448,44.157 55.763,39.625 52.788 C 35.860 50.316,34.858 45.147,37.445 41.533 C 39.336 38.891,42.486 37.630,45.592 38.271 M17.980 46.110 L 17.980 52.103 11.987 52.103 L 5.993 52.103 5.993 46.110 L 5.993 40.117 11.987 40.117 L 17.980 40.117 17.980 46.110 " fill="#2B2C30" stroke="none" fill-rule="evenodd"></path></svg>