<svg width="48" height="48" viewBox="0 0 48 48" fill="none" xmlns="http://www.w3.org/2000/svg"><path d="M3.161 0.094 C 1.719 0.369,0.399 1.697,0.088 3.184 C -0.036 3.782,-0.036 28.218,0.088 28.816 C 0.401 30.315,1.685 31.599,3.184 31.912 C 3.472 31.972,5.589 32.000,9.801 32.000 L 15.995 32.000 16.018 38.420 C 16.041 44.757,16.043 44.846,16.212 45.288 C 16.662 46.466,17.530 47.338,18.700 47.784 L 19.160 47.960 31.960 47.960 L 44.760 47.960 45.280 47.770 C 46.506 47.320,47.315 46.512,47.768 45.280 L 47.960 44.760 47.960 32.000 L 47.960 19.240 47.770 18.720 C 47.329 17.518,46.491 16.671,45.288 16.212 C 44.846 16.043,44.757 16.041,38.420 16.018 L 32.000 15.995 32.000 9.801 C 32.000 5.589,31.972 3.472,31.912 3.184 C 31.594 1.659,30.277 0.363,28.765 0.087 C 28.153 -0.025,3.749 -0.018,3.161 0.094 M32.000 22.196 C 32.000 26.410,31.972 28.528,31.912 28.816 C 31.599 30.315,30.315 31.599,28.816 31.912 C 28.528 31.972,26.410 32.000,22.196 32.000 L 16.000 32.000 16.000 25.855 C 16.000 21.786,16.029 19.549,16.087 19.235 C 16.361 17.735,17.693 16.374,19.161 16.094 C 19.389 16.050,22.219 16.014,25.780 16.009 L 32.000 16.000 32.000 22.196 " fill="#2B2C30" stroke="none" fill-rule="evenodd"></path></svg>