<svg width="48" height="48" viewBox="0 0 48 48" fill="none" xmlns="http://www.w3.org/2000/svg"><path d="M3.240 0.082 C 1.840 0.373,0.743 1.325,0.212 2.712 L 0.040 3.160 0.040 16.000 L 0.040 28.840 0.216 29.300 C 0.662 30.470,1.534 31.338,2.712 31.788 C 3.154 31.957,3.243 31.959,9.580 31.982 L 16.000 32.005 16.000 38.199 C 16.000 42.411,16.028 44.528,16.088 44.816 C 16.401 46.315,17.685 47.599,19.184 47.912 C 19.782 48.036,44.218 48.036,44.816 47.912 C 46.315 47.599,47.599 46.315,47.912 44.816 C 48.036 44.218,48.036 19.782,47.912 19.184 C 47.594 17.659,46.277 16.363,44.765 16.087 C 44.451 16.029,42.214 16.000,38.148 16.000 L 32.005 16.000 31.983 9.580 L 31.960 3.160 31.767 2.680 C 31.285 1.476,30.470 0.662,29.300 0.216 L 28.840 0.040 16.200 0.028 C 9.248 0.021,3.416 0.046,3.240 0.082 M28.000 10.000 L 28.000 16.000 23.737 16.000 C 19.095 16.000,18.974 16.010,18.126 16.462 C 17.903 16.581,17.486 16.912,17.199 17.199 C 16.912 17.486,16.581 17.903,16.462 18.126 C 16.010 18.974,16.000 19.095,16.000 23.737 L 16.000 28.000 10.000 28.000 L 4.000 28.000 4.000 16.000 L 4.000 4.000 16.000 4.000 L 28.000 4.000 28.000 10.000 M44.000 32.000 L 44.000 44.000 32.000 44.000 L 20.000 44.000 20.000 38.000 L 20.000 32.000 24.263 32.000 C 28.905 32.000,29.026 31.990,29.874 31.538 C 30.396 31.261,31.261 30.396,31.538 29.874 C 31.990 29.026,32.000 28.905,32.000 24.263 L 32.000 20.000 38.000 20.000 L 44.000 20.000 44.000 32.000 " fill="#2B2C30" stroke="none" fill-rule="evenodd"></path></svg>