<svg width="48" height="48" viewBox="0 0 48 48" fill="none" xmlns="http://www.w3.org/2000/svg"><path d="M3.161 0.094 C 1.719 0.369,0.399 1.697,0.088 3.184 C -0.036 3.782,-0.036 28.218,0.088 28.816 C 0.401 30.315,1.685 31.599,3.184 31.912 C 3.472 31.972,5.590 32.000,9.804 32.000 L 16.000 32.000 16.000 38.196 C 16.000 42.410,16.028 44.528,16.088 44.816 C 16.401 46.315,17.685 47.599,19.184 47.912 C 19.782 48.036,44.218 48.036,44.816 47.912 C 46.315 47.599,47.599 46.315,47.912 44.816 C 48.036 44.218,48.036 19.782,47.912 19.184 C 47.594 17.659,46.277 16.363,44.765 16.087 C 44.451 16.029,42.214 16.000,38.145 16.000 L 32.000 16.000 32.000 9.804 C 32.000 5.590,31.972 3.472,31.912 3.184 C 31.594 1.659,30.277 0.363,28.765 0.087 C 28.153 -0.025,3.749 -0.018,3.161 0.094 " fill="#2B2C30" stroke="none" fill-rule="evenodd"></path></svg>