<svg width="44" height="48" viewBox="0 0 44 48" fill="none" xmlns="http://www.w3.org/2000/svg"><path d="M34.903 0.075 C 32.282 0.443,30.003 2.104,28.816 4.512 C 28.288 5.582,28.080 6.454,28.023 7.836 L 27.977 8.962 20.435 13.319 L 12.894 17.676 12.405 17.353 C 11.036 16.449,9.696 16.054,7.993 16.053 C 5.711 16.052,3.765 16.879,2.218 18.507 C 1.277 19.499,0.601 20.710,0.240 22.053 C 0.068 22.694,0.047 22.902,0.047 24.017 C 0.047 25.138,0.067 25.337,0.244 25.997 C 0.479 26.871,1.097 28.156,1.606 28.825 C 2.960 30.607,4.947 31.724,7.218 31.980 C 8.924 32.172,10.870 31.694,12.374 30.715 L 12.831 30.418 20.413 34.798 L 27.996 39.179 28.032 40.251 C 28.061 41.078,28.112 41.486,28.256 42.035 C 29.024 44.956,31.410 47.238,34.341 47.854 C 34.660 47.921,35.279 47.960,36.039 47.960 C 37.062 47.960,37.335 47.934,37.935 47.782 C 41.062 46.989,43.330 44.521,43.892 41.299 C 44.224 39.395,43.758 37.246,42.658 35.603 C 41.580 33.994,39.874 32.776,38.023 32.295 C 37.122 32.061,35.735 31.984,34.824 32.117 C 33.626 32.292,32.281 32.842,31.326 33.546 C 31.071 33.734,30.837 33.878,30.806 33.866 C 30.776 33.853,27.421 31.918,23.350 29.565 L 15.950 25.287 15.950 24.064 L 15.950 22.842 23.307 18.589 C 27.353 16.250,30.725 14.308,30.799 14.273 C 30.901 14.225,31.045 14.289,31.399 14.540 C 32.756 15.505,34.304 15.987,36.045 15.987 C 40.604 15.987,44.230 12.139,43.978 7.569 C 43.783 4.029,41.300 1.061,37.829 0.220 C 37.118 0.047,35.628 -0.026,34.903 0.075 M36.876 6.240 C 37.634 6.618,38.029 7.308,37.969 8.147 C 37.913 8.926,37.500 9.514,36.789 9.829 C 35.485 10.405,34.030 9.436,34.027 7.989 C 34.025 6.502,35.540 5.572,36.876 6.240 M8.843 22.215 C 9.478 22.496,9.904 23.122,9.959 23.854 C 10.043 24.960,9.314 25.854,8.206 26.004 C 7.462 26.106,6.596 25.626,6.210 24.900 C 5.986 24.478,5.986 23.555,6.210 23.133 C 6.502 22.584,7.000 22.211,7.663 22.046 C 7.907 21.986,8.524 22.075,8.843 22.215 M36.851 38.232 C 37.520 38.544,37.916 39.137,37.971 39.911 C 38.003 40.359,37.984 40.454,37.774 40.880 C 37.304 41.834,36.326 42.245,35.332 41.906 C 33.661 41.337,33.576 38.947,35.200 38.212 C 35.670 38.000,36.369 38.008,36.851 38.232 " fill="#2B2C30" stroke="none" fill-rule="evenodd"></path></svg>