<svg width="48" height="56" viewBox="0 0 48 56" fill="none" xmlns="http://www.w3.org/2000/svg"><path d="M23.337 0.082 C 22.791 0.220,22.538 0.409,21.449 1.498 C 19.284 3.662,16.770 5.561,14.240 6.943 C 13.910 7.123,13.064 7.466,12.360 7.705 C 9.647 8.624,6.892 9.190,3.743 9.473 C 2.640 9.573,2.436 9.614,2.075 9.811 C 1.501 10.123,1.072 10.637,0.888 11.232 C 0.582 12.223,0.240 14.861,0.072 17.520 C -0.032 19.160,0.019 23.412,0.158 24.800 C 1.015 33.342,3.466 39.863,7.903 45.409 C 9.276 47.125,11.675 49.434,13.560 50.852 C 15.771 52.515,18.786 54.213,21.535 55.344 C 23.675 56.223,24.350 56.226,26.396 55.364 C 38.319 50.340,45.564 40.705,47.515 27.280 C 47.869 24.842,47.953 23.521,47.957 20.360 C 47.961 16.823,47.815 14.866,47.354 12.243 C 47.165 11.171,46.984 10.716,46.576 10.293 C 46.038 9.735,45.651 9.599,44.248 9.473 C 40.057 9.095,35.594 7.977,33.410 6.756 C 30.970 5.393,27.880 2.980,26.121 1.064 C 25.464 0.348,24.971 0.086,24.192 0.039 C 23.888 0.021,23.504 0.040,23.337 0.082 M24.783 8.022 C 26.364 9.362,28.523 10.874,30.350 11.921 C 31.531 12.597,31.954 12.780,33.761 13.396 C 35.965 14.148,38.599 14.780,41.040 15.145 L 41.720 15.247 41.826 16.283 C 41.890 16.905,41.937 18.440,41.943 20.120 C 41.954 23.056,41.863 24.469,41.515 26.760 C 39.926 37.232,34.656 44.703,25.800 49.036 C 23.990 49.921,24.063 49.902,23.451 49.645 C 20.171 48.264,17.088 46.245,14.649 43.881 C 9.697 39.078,6.960 32.729,6.149 24.160 C 5.958 22.152,6.045 16.675,6.286 15.435 C 6.324 15.242,6.370 15.224,7.063 15.128 C 9.625 14.773,12.729 13.979,15.365 13.004 C 17.378 12.260,20.712 10.144,23.160 8.056 C 23.600 7.681,23.970 7.371,23.981 7.367 C 23.993 7.363,24.354 7.658,24.783 8.022 " fill="#2B2C30" stroke="none" fill-rule="evenodd"></path></svg>