<svg width="48" height="56" viewBox="0 0 48 56" fill="none" xmlns="http://www.w3.org/2000/svg"><path d="M23.391 0.071 C 22.827 0.217,22.381 0.512,21.865 1.082 C 19.974 3.170,16.036 6.140,13.801 7.165 C 11.532 8.206,7.459 9.141,3.743 9.474 C 2.642 9.573,2.436 9.614,2.078 9.809 C 1.245 10.262,0.895 10.895,0.645 12.400 C 0.014 16.197,-0.161 21.115,0.198 24.941 C 0.967 33.125,3.471 39.801,7.843 45.320 C 8.866 46.612,11.323 49.076,12.600 50.090 C 14.761 51.808,16.660 53.008,19.160 54.239 C 21.741 55.509,23.093 56.002,23.984 55.999 C 24.933 55.995,26.345 55.475,28.880 54.195 C 36.847 50.172,42.372 43.986,45.437 35.655 C 47.775 29.303,48.565 21.077,47.557 13.600 C 47.262 11.407,47.112 10.897,46.594 10.324 C 46.070 9.744,45.675 9.601,44.248 9.473 C 40.324 9.121,36.225 8.150,33.960 7.036 C 31.689 5.918,28.850 3.799,26.568 1.517 C 25.797 0.746,25.330 0.342,25.079 0.232 C 24.679 0.054,23.783 -0.031,23.391 0.071 M24.739 7.982 C 27.290 10.125,30.456 12.156,32.439 12.920 C 35.009 13.911,37.683 14.598,41.080 15.138 L 41.720 15.240 41.775 15.685 C 41.995 17.455,42.063 21.033,41.917 23.120 C 41.043 35.572,35.668 44.215,25.800 49.037 C 23.910 49.960,24.096 49.926,23.154 49.515 C 17.707 47.133,13.405 43.462,10.553 38.760 C 9.907 37.694,8.895 35.647,8.438 34.480 C 7.264 31.482,6.546 28.289,6.144 24.280 C 6.005 22.892,6.023 17.611,6.172 16.242 L 6.280 15.244 6.920 15.143 C 10.224 14.621,13.052 13.893,15.560 12.920 C 17.571 12.140,21.071 9.883,23.360 7.890 C 23.690 7.603,23.969 7.366,23.979 7.364 C 23.990 7.362,24.332 7.640,24.739 7.982 M33.200 20.126 C 33.019 20.204,30.637 22.528,26.461 26.701 L 20.003 33.157 17.461 30.625 C 15.289 28.461,14.877 28.085,14.627 28.039 C 14.466 28.009,14.250 28.011,14.147 28.043 C 14.044 28.074,13.537 28.516,13.021 29.025 C 12.040 29.991,11.915 30.203,12.036 30.699 C 12.096 30.943,19.155 38.084,19.536 38.286 C 19.794 38.422,20.184 38.434,20.425 38.312 C 20.673 38.186,35.746 23.125,35.885 22.864 C 36.031 22.589,36.031 22.291,35.886 22.016 C 35.716 21.696,34.156 20.181,33.895 20.084 C 33.607 19.977,33.540 19.981,33.200 20.126 " fill="#2B2C30" stroke="none" fill-rule="evenodd"></path></svg>