<svg width="48" height="56" viewBox="0 0 48 56" fill="none" xmlns="http://www.w3.org/2000/svg"><path d="M23.391 0.071 C 22.827 0.217,22.381 0.512,21.865 1.082 C 19.974 3.170,16.036 6.140,13.801 7.165 C 11.532 8.206,7.459 9.141,3.743 9.474 C 2.642 9.573,2.436 9.614,2.078 9.809 C 1.245 10.262,0.895 10.895,0.645 12.400 C 0.014 16.197,-0.161 21.115,0.198 24.941 C 0.967 33.125,3.471 39.801,7.843 45.320 C 8.866 46.612,11.323 49.076,12.600 50.090 C 14.761 51.808,16.660 53.008,19.160 54.239 C 21.741 55.509,23.093 56.002,23.984 55.999 C 24.933 55.995,26.345 55.475,28.880 54.195 C 36.847 50.172,42.372 43.986,45.437 35.655 C 47.775 29.303,48.565 21.077,47.557 13.600 C 47.262 11.407,47.112 10.897,46.594 10.324 C 46.070 9.744,45.675 9.601,44.248 9.473 C 40.324 9.121,36.225 8.150,33.960 7.036 C 31.689 5.918,28.850 3.799,26.568 1.517 C 25.797 0.746,25.330 0.342,25.079 0.232 C 24.679 0.054,23.783 -0.031,23.391 0.071 M24.739 7.982 C 27.290 10.125,30.456 12.156,32.439 12.920 C 35.009 13.911,37.683 14.598,41.080 15.138 L 41.720 15.240 41.775 15.685 C 41.995 17.455,42.063 21.033,41.917 23.120 C 41.043 35.572,35.668 44.215,25.800 49.037 C 23.910 49.960,24.096 49.926,23.154 49.515 C 17.707 47.133,13.405 43.462,10.553 38.760 C 9.907 37.694,8.895 35.647,8.438 34.480 C 7.264 31.482,6.546 28.289,6.144 24.280 C 6.005 22.892,6.023 17.611,6.172 16.242 L 6.280 15.244 6.920 15.143 C 10.224 14.621,13.052 13.893,15.560 12.920 C 17.571 12.140,21.071 9.883,23.360 7.890 C 23.690 7.603,23.969 7.366,23.979 7.364 C 23.990 7.362,24.332 7.640,24.739 7.982 M15.638 17.603 C 15.491 17.647,15.046 18.031,14.508 18.578 C 13.558 19.542,13.433 19.773,13.593 20.260 C 13.653 20.440,14.821 21.661,17.399 24.239 L 21.119 27.959 17.365 31.719 C 13.256 35.836,13.344 35.726,13.638 36.345 C 13.830 36.749,15.426 38.283,15.711 38.338 C 16.290 38.449,16.329 38.416,20.240 34.514 L 23.960 30.803 27.720 34.556 C 31.703 38.531,31.612 38.454,32.198 38.302 C 32.522 38.219,34.222 36.524,34.308 36.200 C 34.462 35.621,34.474 35.635,30.525 31.685 L 26.800 27.959 30.404 24.360 C 32.386 22.380,34.081 20.642,34.172 20.498 C 34.367 20.186,34.383 19.792,34.214 19.471 C 34.021 19.106,32.632 17.780,32.297 17.641 C 31.680 17.385,31.741 17.335,27.681 21.398 L 23.961 25.119 20.199 21.360 C 18.129 19.292,16.383 17.600,16.318 17.599 C 16.253 17.598,16.128 17.583,16.040 17.564 C 15.952 17.546,15.771 17.563,15.638 17.603 " fill="#2B2C30" stroke="none" fill-rule="evenodd"></path></svg>