<svg width="56" height="38" viewBox="0 0 56 38" fill="none" xmlns="http://www.w3.org/2000/svg"><path d="M0.653 0.065 C 0.177 0.242,-0.124 0.914,0.077 1.354 C 0.183 1.588,8.746 11.128,9.311 11.643 C 9.658 11.959,10.100 12.043,10.443 11.859 C 10.638 11.754,19.688 1.755,19.853 1.462 C 20.054 1.104,19.997 0.682,19.701 0.351 L 19.429 0.047 10.111 0.030 C 4.986 0.021,0.730 0.037,0.653 0.065 M20.325 8.299 L 20.020 8.571 19.992 10.811 C 19.969 12.619,19.990 13.114,20.101 13.379 C 20.383 14.054,18.878 14.004,38.121 13.977 L 55.436 13.953 55.695 13.695 L 55.953 13.436 55.981 11.053 L 56.009 8.670 55.687 8.349 L 55.365 8.027 37.997 8.027 L 20.630 8.027 20.325 8.299 M20.578 20.116 C 20.045 20.381,20.023 20.481,19.989 22.773 C 19.956 25.059,20.010 25.442,20.408 25.755 C 20.650 25.945,20.712 25.947,30.026 25.947 L 39.401 25.947 39.674 25.674 L 39.947 25.401 39.947 22.985 L 39.947 20.568 39.661 20.294 L 39.374 20.020 30.117 19.998 C 22.054 19.979,20.824 19.994,20.578 20.116 M20.451 32.166 C 20.031 32.460,19.973 32.793,19.974 34.927 C 19.974 37.183,20.036 37.540,20.469 37.805 C 20.761 37.984,21.042 37.986,36.104 37.963 L 51.442 37.940 51.714 37.635 L 51.987 37.330 51.987 34.989 L 51.987 32.648 51.669 32.331 L 51.352 32.013 36.010 32.013 C 21.977 32.013,20.650 32.026,20.451 32.166 " fill="#2B2C30" stroke="none" fill-rule="evenodd"></path></svg>