<svg width="40" height="40" viewBox="0 0 40 40" fill="none" xmlns="http://www.w3.org/2000/svg"><path d="M0.628 0.095 C 0.366 0.209,0.153 0.479,0.064 0.809 C 0.007 1.023,0.016 1.117,0.121 1.351 C 0.191 1.506,3.177 5.765,6.755 10.814 L 13.262 19.995 6.648 29.314 L 0.033 38.633 0.033 39.000 C 0.033 39.433,0.205 39.724,0.559 39.892 C 0.769 39.992,2.339 39.999,19.656 39.984 L 38.524 39.967 38.712 39.826 C 38.815 39.749,38.960 39.584,39.033 39.460 C 39.163 39.240,39.167 39.113,39.167 35.067 C 39.167 31.020,39.163 30.893,39.033 30.674 C 38.960 30.549,38.815 30.384,38.712 30.307 C 38.530 30.172,38.442 30.166,36.215 30.147 C 33.755 30.127,33.682 30.135,33.381 30.455 C 33.113 30.739,33.067 31.055,33.067 32.650 L 33.067 34.133 20.929 34.133 L 8.791 34.133 8.922 33.950 C 8.995 33.849,11.337 30.692,14.127 26.933 C 16.917 23.175,19.188 20.067,19.173 20.026 C 19.157 19.986,16.962 17.031,14.295 13.460 C 11.627 9.889,9.284 6.749,9.086 6.483 L 8.728 6.000 20.893 6.000 L 33.058 6.000 33.079 7.617 C 33.098 9.091,33.112 9.253,33.233 9.460 C 33.307 9.584,33.451 9.749,33.555 9.826 C 33.738 9.963,33.808 9.967,36.133 9.967 C 38.459 9.967,38.529 9.963,38.712 9.826 C 38.815 9.749,38.960 9.584,39.033 9.460 C 39.163 9.240,39.167 9.113,39.167 5.000 C 39.167 0.887,39.163 0.760,39.033 0.540 C 38.960 0.416,38.815 0.251,38.712 0.174 L 38.524 0.033 19.678 0.019 C 4.009 0.007,0.799 0.020,0.628 0.095 " fill="#2B2C30" stroke="none" fill-rule="evenodd"></path></svg>