<svg width="48" height="48" viewBox="0 0 48 48" fill="none" xmlns="http://www.w3.org/2000/svg"><path d="M0.504 0.157 C -0.045 0.492,-0.000 -1.652,0.000 24.016 C 0.001 46.909,0.003 47.244,0.157 47.496 C 0.488 48.039,-0.590 48.000,14.000 48.000 C 28.590 48.000,27.512 48.039,27.843 47.496 C 27.988 47.258,27.999 47.081,27.999 45.000 C 27.999 42.919,27.988 42.742,27.843 42.504 C 27.514 41.964,28.314 42.000,16.604 42.000 L 6.000 42.000 6.000 24.000 L 6.000 6.000 16.620 6.000 C 27.012 5.999,27.245 5.996,27.496 5.843 C 27.981 5.547,28.000 5.442,28.000 3.000 C 28.000 0.558,27.981 0.453,27.496 0.157 C 27.245 0.004,26.991 0.001,14.000 0.001 C 1.009 0.001,0.755 0.004,0.504 0.157 M36.560 12.220 C 35.992 12.504,36.000 12.436,36.000 16.980 L 36.000 21.040 28.352 21.040 C 19.855 21.040,20.388 21.006,20.121 21.569 C 19.943 21.945,19.943 26.055,20.121 26.431 C 20.388 26.994,19.855 26.960,28.352 26.960 L 36.000 26.960 36.000 31.003 C 36.000 35.342,36.007 35.428,36.409 35.709 C 36.680 35.899,37.086 35.953,37.367 35.837 C 37.725 35.689,47.889 24.562,47.960 24.242 C 47.989 24.109,47.989 23.891,47.960 23.758 C 47.896 23.469,37.750 12.334,37.407 12.178 C 37.113 12.044,36.890 12.055,36.560 12.220 " fill="#2B2C30" stroke="none" fill-rule="evenodd"></path></svg>