<svg width="46" height="33" viewBox="0 0 46 33" fill="none" xmlns="http://www.w3.org/2000/svg"><path d="M21.352 0.048 C 15.244 0.449,9.515 2.738,4.868 6.635 C 3.333 7.923,1.139 10.283,0.251 11.602 C 0.022 11.943,-0.010 12.045,0.022 12.330 C 0.047 12.552,0.129 12.734,0.268 12.880 C 0.383 13.000,1.268 13.624,2.234 14.267 C 4.576 15.825,4.540 15.824,5.708 14.368 C 9.466 9.685,14.906 6.725,20.842 6.136 C 21.878 6.033,24.131 6.035,25.191 6.139 C 29.618 6.577,33.844 8.367,37.272 11.257 C 38.184 12.026,39.583 13.470,40.347 14.431 C 41.034 15.295,41.218 15.436,41.655 15.435 C 41.939 15.434,42.178 15.299,43.777 14.239 C 44.768 13.582,45.661 12.958,45.760 12.852 C 45.871 12.734,45.955 12.532,45.978 12.329 C 46.010 12.039,45.977 11.941,45.705 11.536 C 44.813 10.201,42.301 7.556,40.710 6.275 C 36.550 2.925,31.533 0.819,26.220 0.194 C 25.211 0.076,22.274 -0.013,21.352 0.048 M21.445 12.122 C 18.500 12.406,15.421 13.647,13.033 15.513 C 12.064 16.270,10.422 17.977,10.131 18.529 C 10.000 18.778,10.026 19.176,10.188 19.422 C 10.267 19.542,11.151 20.187,12.161 20.860 C 13.818 21.964,14.023 22.080,14.323 22.080 C 14.505 22.080,14.729 22.040,14.821 21.991 C 14.913 21.942,15.333 21.551,15.755 21.122 C 16.736 20.124,17.371 19.657,18.515 19.092 C 21.825 17.457,25.564 17.702,28.666 19.758 C 29.057 20.018,29.692 20.562,30.229 21.099 C 30.726 21.595,31.220 22.024,31.326 22.050 C 31.798 22.169,32.072 22.039,33.830 20.865 C 34.783 20.230,35.633 19.633,35.720 19.540 C 35.900 19.346,35.996 18.949,35.927 18.677 C 35.858 18.402,35.000 17.381,34.146 16.558 C 30.769 13.305,26.099 11.674,21.445 12.122 M22.424 24.155 C 20.495 24.400,19.013 26.107,19.013 28.084 C 19.013 30.106,20.489 31.794,22.475 32.043 C 24.883 32.345,26.984 30.507,26.984 28.098 C 26.984 25.663,24.879 23.842,22.424 24.155 " fill="#2B2C30" stroke="none" fill-rule="evenodd"></path></svg>