<svg width="48" height="48" viewBox="0 0 48 48" fill="none" xmlns="http://www.w3.org/2000/svg"><path d="M20.473 0.182 C 20.011 0.494,20.002 0.546,20.002 3.000 C 20.002 5.454,20.011 5.506,20.473 5.818 L 20.744 6.000 31.372 6.000 L 42.000 6.000 42.000 24.000 L 42.000 42.000 31.372 42.000 L 20.744 42.000 20.473 42.182 C 20.011 42.494,20.002 42.546,20.002 45.000 C 20.002 47.454,20.011 47.506,20.473 47.818 L 20.744 48.000 33.976 48.000 C 48.592 48.000,47.512 48.039,47.843 47.496 C 47.997 47.244,47.999 46.909,48.000 24.016 C 48.000 -1.652,48.045 0.492,47.496 0.157 C 47.245 0.004,46.990 0.001,33.992 0.000 L 20.744 0.000 20.473 0.182 M16.560 12.220 C 15.992 12.504,16.000 12.436,16.000 16.980 L 16.000 21.040 8.352 21.040 C -0.145 21.040,0.388 21.006,0.121 21.569 C -0.057 21.945,-0.057 26.055,0.121 26.431 C 0.388 26.994,-0.145 26.960,8.352 26.960 L 16.000 26.960 16.000 31.003 C 16.000 35.342,16.007 35.428,16.409 35.709 C 16.680 35.899,17.086 35.953,17.366 35.837 C 17.718 35.692,27.891 24.552,27.961 24.237 C 27.989 24.107,27.989 23.893,27.961 23.763 C 27.898 23.478,17.743 12.331,17.406 12.177 C 17.113 12.044,16.890 12.055,16.560 12.220 " fill="#2B2C30" stroke="none" fill-rule="evenodd"></path></svg>