<svg width="56" height="43" viewBox="0 0 56 43" fill="none" xmlns="http://www.w3.org/2000/svg"><path d="M9.899 0.118 C 9.506 0.220,7.312 2.389,6.242 3.733 C 2.902 7.931,0.950 12.517,0.223 17.873 C -0.004 19.545,-0.006 23.195,0.219 24.827 C 0.915 29.882,2.664 34.206,5.600 38.128 C 6.655 39.538,7.878 40.904,8.948 41.866 C 9.779 42.613,9.845 42.653,10.254 42.653 L 10.685 42.653 12.343 40.989 L 14.000 39.325 14.000 38.878 L 14.000 38.431 12.760 37.205 C 10.717 35.187,9.457 33.470,8.306 31.136 C 7.235 28.965,6.627 27.049,6.237 24.612 C 5.999 23.125,5.952 20.076,6.145 18.667 C 6.854 13.508,9.154 8.948,12.813 5.453 C 13.337 4.952,13.818 4.454,13.880 4.347 C 14.033 4.086,14.028 3.685,13.868 3.379 C 13.653 2.966,10.715 0.126,10.453 0.078 C 10.325 0.054,10.076 0.072,9.899 0.118 M43.706 1.706 L 42.000 3.412 42.000 3.854 C 42.000 4.295,42.002 4.297,43.082 5.345 C 45.128 7.326,46.477 9.154,47.680 11.573 C 49.816 15.869,50.482 20.461,49.658 25.200 C 48.876 29.690,46.736 33.740,43.393 37.053 C 42.694 37.746,42.070 38.412,42.006 38.533 C 41.738 39.039,41.919 39.328,43.514 40.942 C 45.075 42.521,45.458 42.801,45.920 42.700 C 46.531 42.566,48.849 40.201,50.400 38.128 C 56.156 30.438,57.552 20.517,54.163 11.387 C 52.712 7.479,49.727 3.122,46.734 0.545 C 45.715 -0.333,45.764 -0.352,43.706 1.706 M36.999 8.560 C 36.892 8.579,36.062 9.342,35.156 10.254 L 33.507 11.912 33.507 12.356 L 33.507 12.800 34.711 13.983 C 36.374 15.617,37.138 16.857,37.666 18.778 C 37.964 19.862,38.067 21.627,37.898 22.780 C 37.537 25.252,36.241 27.534,34.298 29.122 C 33.824 29.509,33.581 29.780,33.507 30.007 C 33.296 30.644,33.411 30.824,35.132 32.550 L 36.738 34.160 37.172 34.160 C 37.577 34.160,37.665 34.111,38.440 33.461 C 39.466 32.600,40.415 31.523,41.268 30.250 C 42.702 28.109,43.561 25.789,43.874 23.207 C 44.015 22.047,43.938 19.554,43.728 18.480 C 43.059 15.049,41.448 12.076,38.999 9.749 C 37.871 8.678,37.512 8.465,36.999 8.560 M18.107 8.785 C 17.597 9.094,15.692 11.074,15.095 11.914 C 13.120 14.696,12.193 17.398,12.070 20.730 C 11.985 23.055,12.273 24.923,13.029 26.948 C 13.965 29.453,15.623 31.836,17.560 33.461 C 18.450 34.208,18.700 34.294,19.208 34.028 C 19.347 33.956,20.143 33.205,20.977 32.360 L 22.493 30.824 22.493 30.338 C 22.493 29.872,22.475 29.837,22.006 29.417 C 20.005 27.622,19.069 26.278,18.453 24.313 C 17.739 22.033,17.903 19.358,18.890 17.223 C 19.460 15.989,20.028 15.223,21.289 13.983 C 22.419 12.873,22.493 12.778,22.493 12.441 C 22.493 12.243,22.425 11.978,22.340 11.851 C 22.090 11.472,19.481 8.865,19.208 8.720 C 18.854 8.533,18.488 8.554,18.107 8.785 M27.020 17.492 C 25.185 17.946,23.841 19.804,24.012 21.651 C 24.192 23.597,25.636 25.070,27.632 25.344 C 28.634 25.482,30.020 24.966,30.831 24.154 C 31.713 23.271,32.160 21.892,31.943 20.723 C 31.508 18.387,29.288 16.929,27.020 17.492 " fill="#2B2C30" stroke="none" fill-rule="evenodd"></path></svg>