<svg width="52" height="41" viewBox="0 0 52 41" fill="none" xmlns="http://www.w3.org/2000/svg"><path d="M0.499 0.133 C -0.038 0.430,-0.000 -1.071,0.001 19.994 C 0.002 35.078,0.026 39.262,0.110 39.425 C 0.168 39.540,0.327 39.715,0.461 39.815 C 0.689 39.985,0.835 39.999,2.671 40.025 C 5.075 40.059,5.315 40.029,5.693 39.651 L 5.980 39.364 5.980 31.685 L 5.980 24.007 9.382 24.006 C 12.967 24.006,13.792 23.943,15.152 23.571 C 18.041 22.779,20.529 20.927,22.202 18.323 C 22.863 17.296,23.432 15.853,23.761 14.376 C 24.023 13.194,24.045 10.934,23.805 9.793 C 22.770 4.889,19.236 1.304,14.387 0.238 C 13.600 0.065,13.276 0.056,7.150 0.029 C 1.549 0.005,0.707 0.018,0.499 0.133 M36.075 0.089 C 32.041 0.637,28.841 3.871,28.164 8.083 C 28.000 9.100,28.097 10.928,28.370 11.978 C 28.765 13.498,29.584 14.992,30.636 16.106 C 31.007 16.500,33.734 18.685,38.211 22.177 C 42.059 25.177,45.349 27.790,45.523 27.982 C 46.708 29.294,46.760 31.499,45.638 32.875 C 45.170 33.449,44.678 33.822,44.051 34.074 C 43.554 34.275,43.519 34.277,39.997 34.277 C 36.480 34.277,36.438 34.275,35.945 34.075 C 34.991 33.690,34.159 32.850,33.801 31.912 C 33.706 31.661,33.592 31.144,33.550 30.763 C 33.403 29.455,33.254 29.380,30.791 29.380 C 28.741 29.381,28.407 29.440,28.162 29.840 C 27.968 30.159,27.952 30.556,28.089 31.677 C 28.485 34.907,30.395 37.641,33.237 39.044 C 34.289 39.564,35.114 39.814,36.224 39.950 C 37.202 40.070,42.821 40.065,43.810 39.944 C 46.450 39.620,48.861 38.142,50.320 35.951 C 52.840 32.167,52.468 27.250,49.408 23.902 C 49.162 23.633,45.806 20.952,41.952 17.946 C 38.097 14.939,34.747 12.265,34.508 12.003 C 33.016 10.371,33.401 7.544,35.279 6.330 C 36.205 5.731,36.428 5.705,40.300 5.736 L 43.723 5.763 44.310 6.041 C 45.003 6.370,45.669 7.005,46.107 7.757 C 46.578 8.565,46.631 8.580,49.036 8.580 C 51.196 8.580,51.399 8.545,51.691 8.128 C 51.882 7.856,51.860 7.482,51.609 6.686 C 50.588 3.453,48.209 1.148,44.998 0.281 C 44.157 0.054,44.155 0.054,40.387 0.035 C 38.313 0.024,36.373 0.049,36.075 0.089 M13.477 6.183 C 13.763 6.263,14.328 6.491,14.733 6.689 C 15.325 6.979,15.615 7.196,16.209 7.793 C 17.437 9.028,17.958 10.296,17.953 12.034 C 17.947 13.735,17.396 15.040,16.172 16.251 C 15.390 17.025,14.659 17.460,13.605 17.777 C 12.989 17.962,12.784 17.973,9.468 18.005 L 5.980 18.039 5.980 12.002 L 5.980 5.965 9.468 6.002 C 12.386 6.032,13.042 6.062,13.477 6.183 " fill="#2B2C30" stroke="none" fill-rule="evenodd"></path></svg>