<svg width="56" height="56" viewBox="0 0 56 56" fill="none" xmlns="http://www.w3.org/2000/svg"><path d="M1.747 0.143 C 1.267 0.319,0.717 0.727,0.467 1.092 C -0.019 1.801,0.008 0.206,0.004 27.960 C -0.001 57.114,-0.073 54.443,0.742 55.258 C 1.398 55.913,2.307 56.153,3.080 55.874 C 3.260 55.809,12.342 49.928,23.262 42.804 C 37.316 33.637,43.212 29.742,43.442 29.473 C 43.865 28.980,43.989 28.580,43.942 27.874 C 43.898 27.233,43.684 26.711,43.309 26.337 C 43.051 26.079,3.632 0.322,3.188 0.121 C 2.859 -0.028,2.185 -0.018,1.747 0.143 M50.349 0.313 L 50.027 0.635 50.027 28.000 L 50.027 55.365 50.349 55.687 L 50.670 56.009 53.053 55.981 L 55.436 55.953 55.695 55.695 L 55.953 55.436 55.953 28.000 L 55.953 0.564 55.695 0.305 L 55.436 0.047 53.053 0.019 L 50.670 -0.009 50.349 0.313 M20.617 18.563 C 28.532 23.716,34.995 27.966,34.980 28.007 C 34.953 28.083,6.308 46.744,6.090 46.828 C 5.997 46.864,5.973 43.052,5.973 27.959 C 5.973 12.038,5.993 9.056,6.100 9.119 C 6.170 9.160,12.703 13.409,20.617 18.563 " fill="#2B2C30" stroke="none" fill-rule="evenodd"></path></svg>