<svg width="56" height="56" viewBox="0 0 56 56" fill="none" xmlns="http://www.w3.org/2000/svg"><path d="M20.476 0.178 C 20.315 0.276,20.137 0.492,20.079 0.658 C 19.921 1.111,19.933 15.083,20.091 15.391 C 20.155 15.514,20.325 15.703,20.470 15.811 C 20.721 15.997,20.845 16.007,22.994 16.007 C 26.168 16.007,26.040 16.132,26.040 13.024 L 26.040 11.015 40.738 10.991 L 55.436 10.967 55.695 10.708 L 55.953 10.449 55.981 8.149 C 56.001 6.523,55.977 5.769,55.898 5.580 C 55.660 5.005,56.637 5.040,40.651 5.040 L 26.040 5.040 26.040 2.984 C 26.040 0.698,25.982 0.400,25.492 0.146 C 25.259 0.025,24.822 0.000,22.988 0.000 C 20.969 0.001,20.740 0.017,20.476 0.178 M0.506 5.147 C 0.042 5.372,-0.000 5.608,0.000 7.976 C 0.000 9.766,0.027 10.234,0.142 10.456 C 0.442 11.037,0.093 11.013,8.395 11.013 L 15.960 11.013 15.960 8.027 L 15.960 5.040 8.330 5.046 C 3.401 5.050,0.631 5.086,0.506 5.147 M40.635 20.107 C 40.003 20.383,40.040 19.891,40.040 28.000 C 40.040 36.135,40.000 35.622,40.656 35.897 C 41.063 36.067,44.866 36.073,45.360 35.905 C 45.953 35.702,46.013 35.442,46.013 33.063 L 46.013 30.987 50.679 30.987 L 55.344 30.987 55.649 30.714 L 55.953 30.442 55.953 28.000 L 55.953 25.558 55.649 25.286 L 55.344 25.013 50.679 25.013 L 46.013 25.013 46.013 22.937 C 46.013 20.558,45.953 20.298,45.360 20.095 C 44.874 19.930,41.021 19.940,40.635 20.107 M0.351 25.286 L 0.047 25.558 0.047 28.000 L 0.047 30.442 0.351 30.714 L 0.656 30.987 18.341 30.987 L 36.027 30.987 36.027 28.000 L 36.027 25.013 18.341 25.013 L 0.656 25.013 0.351 25.286 M12.313 40.313 L 12.040 40.586 12.040 47.915 C 12.040 52.986,12.071 55.313,12.141 55.467 C 12.366 55.959,12.582 56.000,14.976 56.000 C 18.165 56.000,18.013 56.146,18.013 53.065 L 18.013 50.960 36.629 50.960 C 50.351 50.960,55.306 50.932,55.478 50.854 C 55.944 50.641,56.000 50.332,56.000 47.978 C 56.000 46.229,55.973 45.765,55.858 45.544 C 55.549 44.944,57.010 44.987,36.596 44.987 L 18.023 44.987 17.995 42.786 L 17.967 40.584 17.662 40.312 L 17.357 40.040 14.971 40.040 L 12.586 40.040 12.313 40.313 M0.538 45.132 C 0.039 45.404,-0.000 45.612,-0.000 48.024 C -0.000 50.418,0.041 50.634,0.533 50.859 C 0.681 50.926,1.976 50.960,4.392 50.960 L 8.029 50.960 8.005 47.997 L 7.980 45.033 4.387 45.013 C 1.351 44.996,0.754 45.015,0.538 45.132 " fill="#2B2C30" stroke="none" fill-rule="evenodd"></path></svg>