<svg width="51" height="52" viewBox="0 0 51 52" fill="none" xmlns="http://www.w3.org/2000/svg"><path d="M9.500 0.133 C 8.973 0.419,9.010 -1.123,9.010 20.353 L 9.010 39.950 4.922 39.950 C 0.425 39.950,0.389 39.954,0.124 40.467 C -0.019 40.742,-0.037 41.166,0.082 41.390 C 0.181 41.574,11.317 51.676,11.586 51.825 C 11.904 52.002,12.288 51.955,12.594 51.701 C 13.298 51.118,23.633 41.715,23.792 41.514 C 24.122 41.094,23.990 40.404,23.526 40.120 C 23.258 39.957,23.095 39.951,19.146 39.950 L 15.045 39.950 15.040 20.464 C 15.037 5.598,15.011 0.908,14.934 0.683 C 14.876 0.515,14.709 0.305,14.544 0.194 C 14.261 0.004,14.211 0.000,11.994 0.003 C 10.160 0.006,9.689 0.031,9.500 0.133 M36.328 0.083 C 36.229 0.123,36.069 0.257,35.972 0.380 C 35.831 0.559,28.050 23.667,28.050 23.906 C 28.050 23.941,29.312 23.970,30.854 23.970 L 33.657 23.970 33.915 23.736 C 34.128 23.543,34.274 23.197,34.752 21.760 L 35.332 20.018 38.994 19.995 L 42.655 19.973 43.228 21.695 C 43.544 22.643,43.855 23.500,43.920 23.600 C 44.147 23.951,44.364 23.974,47.230 23.950 L 49.963 23.928 46.120 12.368 C 44.006 6.009,42.211 0.684,42.132 0.533 C 41.860 0.017,41.756 -0.001,38.998 0.005 C 37.628 0.008,36.427 0.043,36.328 0.083 M39.854 11.560 C 40.281 12.846,40.630 13.926,40.630 13.961 C 40.630 13.996,39.887 14.025,38.980 14.025 L 37.330 14.025 38.149 11.563 C 38.600 10.208,38.994 9.128,39.024 9.161 C 39.054 9.195,39.428 10.274,39.854 11.560 M28.460 28.196 C 28.335 28.273,28.192 28.427,28.141 28.537 C 28.083 28.665,28.050 29.587,28.050 31.070 L 28.050 33.402 28.298 33.680 L 28.546 33.958 34.248 33.981 C 37.384 33.993,39.950 34.021,39.950 34.042 C 39.950 34.064,37.292 38.082,34.043 42.972 C 30.793 47.862,28.135 51.879,28.135 51.899 C 28.135 51.983,49.402 51.932,49.560 51.847 C 49.945 51.641,49.980 51.404,49.980 48.960 C 49.980 46.487,49.950 46.289,49.533 46.051 C 49.386 45.967,48.069 45.933,43.726 45.900 L 38.110 45.858 44.045 36.986 C 47.309 32.107,49.980 28.101,49.980 28.083 C 49.980 28.065,45.189 28.051,39.334 28.052 C 29.568 28.054,28.669 28.066,28.460 28.196 " fill="#2B2C30" stroke="none" fill-rule="evenodd"></path></svg>