<svg width="44" height="40" viewBox="0 0 44 40" fill="none" xmlns="http://www.w3.org/2000/svg"><path d="M20.130 0.103 C 19.364 0.346,18.514 0.924,17.616 1.813 C 17.298 2.127,15.891 3.646,14.487 5.188 L 11.936 7.993 7.771 7.993 C 3.120 7.993,2.856 8.015,1.938 8.467 C 0.978 8.939,0.346 9.782,0.107 10.909 C -0.052 11.661,-0.051 28.101,0.109 28.942 C 0.330 30.108,1.018 31.084,1.937 31.535 C 2.793 31.955,2.994 31.971,7.673 31.972 L 11.936 31.973 14.657 35.010 C 17.520 38.204,17.970 38.660,18.824 39.233 C 19.824 39.903,20.776 40.105,21.800 39.864 C 22.712 39.651,23.226 39.252,23.575 38.489 C 23.999 37.559,23.980 38.448,23.980 19.983 C 23.980 1.580,23.997 2.402,23.587 1.506 C 23.347 0.982,22.968 0.580,22.492 0.347 C 21.833 0.024,20.735 -0.089,20.130 0.103 M37.143 0.145 C 36.955 0.239,35.282 1.860,32.474 4.674 C 28.655 8.498,28.091 9.091,28.048 9.326 C 27.953 9.849,28.053 10.031,28.921 10.915 C 29.369 11.372,29.826 11.793,29.935 11.850 C 30.044 11.907,30.285 11.953,30.471 11.953 L 30.810 11.953 35.207 7.608 C 37.626 5.219,39.686 3.146,39.786 3.003 C 40.045 2.629,40.034 2.167,39.756 1.789 C 39.454 1.378,38.285 0.262,38.009 0.120 C 37.701 -0.037,37.500 -0.031,37.143 0.145 M17.949 24.846 L 17.930 29.673 16.280 27.821 L 14.630 25.969 10.322 25.965 L 6.013 25.960 6.013 19.983 L 6.013 14.007 10.294 14.007 L 14.574 14.007 16.252 12.164 L 17.930 10.321 17.949 15.171 C 17.959 17.838,17.959 22.192,17.949 24.846 M28.720 18.041 C 28.605 18.076,28.445 18.164,28.365 18.237 C 28.051 18.521,28.013 18.709,28.014 19.998 C 28.014 21.352,28.065 21.545,28.502 21.831 C 28.693 21.956,29.091 21.963,36.016 21.963 C 43.297 21.963,43.330 21.963,43.536 21.811 C 43.939 21.516,44.000 21.277,44.000 19.983 C 44.000 18.690,43.939 18.451,43.536 18.155 C 43.331 18.004,43.286 18.003,36.130 17.991 C 32.170 17.984,28.836 18.006,28.720 18.041 M29.883 28.151 C 29.762 28.227,29.313 28.647,28.884 29.086 C 28.056 29.933,27.954 30.123,28.048 30.641 C 28.091 30.876,28.655 31.469,32.474 35.294 C 35.387 38.211,36.950 39.726,37.148 39.822 C 37.511 39.998,37.702 40.004,38.009 39.846 C 38.285 39.705,39.454 38.589,39.756 38.177 C 40.037 37.796,40.046 37.338,39.780 36.955 C 39.677 36.806,37.617 34.734,35.202 32.349 L 30.811 28.013 30.457 28.014 C 30.239 28.014,30.019 28.067,29.883 28.151 " fill="#2B2C30" stroke="none" fill-rule="evenodd"></path></svg>