<svg width="52" height="52" viewBox="0 0 52 52" fill="none" xmlns="http://www.w3.org/2000/svg"><path d="M3.073 0.121 C 2.071 0.364,1.031 1.142,0.529 2.022 C -0.039 3.020,0.000 1.236,0.000 26.000 C -0.000 50.745,-0.039 48.981,0.525 49.969 C 0.841 50.526,1.653 51.301,2.189 51.558 C 3.158 52.024,1.760 51.998,26.000 51.998 C 50.238 51.998,48.841 52.024,49.811 51.558 C 50.376 51.287,51.230 50.450,51.514 49.887 C 52.031 48.866,51.998 50.494,51.998 26.000 C 51.998 6.781,51.980 3.442,51.874 3.045 C 51.480 1.564,50.275 0.405,48.811 0.097 C 48.118 -0.049,3.675 -0.025,3.073 0.121 M17.410 6.132 C 17.285 6.215,14.897 8.348,12.103 10.871 C 8.282 14.322,7.000 15.528,6.931 15.739 C 6.860 15.952,6.867 16.087,6.959 16.308 C 7.044 16.509,8.631 17.996,12.168 21.190 C 14.966 23.716,17.366 25.837,17.502 25.903 C 17.846 26.070,18.290 25.966,18.596 25.647 L 18.850 25.382 18.874 21.704 L 18.899 18.027 22.449 18.027 L 26.000 18.027 26.000 26.000 L 26.000 33.973 29.987 33.973 L 33.973 33.973 33.973 30.302 C 33.973 26.782,33.980 26.621,34.144 26.413 C 34.374 26.120,34.772 25.968,35.131 26.035 C 35.363 26.079,36.491 27.052,40.527 30.695 C 43.334 33.228,45.698 35.402,45.781 35.525 C 46.063 35.945,45.984 36.277,45.478 36.793 C 44.579 37.711,35.571 45.782,35.298 45.914 C 34.904 46.105,34.376 45.943,34.143 45.560 C 33.983 45.297,33.974 45.099,33.974 41.665 L 33.973 38.047 29.987 38.047 L 26.000 38.047 26.000 42.033 L 26.000 46.020 15.990 46.020 L 5.980 46.020 5.980 26.000 L 5.980 5.980 11.808 5.981 C 17.380 5.981,17.627 5.988,17.410 6.132 M26.000 10.010 L 26.000 14.040 22.447 14.040 L 18.893 14.040 18.892 10.422 C 18.891 6.471,18.897 6.526,18.381 6.178 L 18.088 5.980 22.044 5.980 L 26.000 5.980 26.000 10.010 M41.947 12.047 L 41.947 14.041 35.988 14.019 L 30.030 13.997 30.007 12.025 L 29.983 10.053 35.965 10.053 L 41.947 10.053 41.947 12.047 M37.960 20.020 L 37.960 22.013 33.973 22.013 L 29.987 22.013 29.987 20.020 L 29.987 18.027 33.973 18.027 L 37.960 18.027 37.960 20.020 M10.024 30.044 C 9.993 30.076,9.967 30.973,9.967 32.038 L 9.967 33.973 15.990 33.973 L 22.013 33.973 22.013 31.980 L 22.013 29.987 16.048 29.987 C 12.767 29.987,10.056 30.013,10.024 30.044 M9.987 40.018 L 10.010 41.990 13.997 41.990 L 17.983 41.990 18.007 40.018 L 18.030 38.047 13.997 38.047 L 9.963 38.047 9.987 40.018 " fill="#2B2C30" stroke="none" fill-rule="evenodd"></path></svg>