<svg width="48" height="40" viewBox="0 0 48 40" fill="none" xmlns="http://www.w3.org/2000/svg"><path d="M3.240 0.083 C 1.841 0.371,0.743 1.325,0.212 2.712 L 0.040 3.160 0.040 20.000 L 0.040 36.840 0.212 37.288 C 0.663 38.468,1.531 39.338,2.700 39.784 L 3.160 39.960 24.000 39.960 L 44.840 39.960 45.288 39.788 C 46.468 39.337,47.338 38.469,47.784 37.300 L 47.960 36.840 47.960 20.000 L 47.960 3.160 47.784 2.700 C 47.338 1.531,46.468 0.663,45.288 0.212 L 44.840 0.040 24.200 0.028 C 12.848 0.022,3.416 0.046,3.240 0.083 M28.000 6.000 L 28.000 8.000 26.000 8.000 L 24.000 8.000 24.000 6.000 L 24.000 4.000 26.000 4.000 L 28.000 4.000 28.000 6.000 M36.000 6.000 L 36.000 8.000 34.000 8.000 L 32.000 8.000 32.000 6.000 L 32.000 4.000 34.000 4.000 L 36.000 4.000 36.000 6.000 M44.000 6.000 L 44.000 8.000 42.000 8.000 L 40.000 8.000 40.000 6.000 L 40.000 4.000 42.000 4.000 L 44.000 4.000 44.000 6.000 M42.000 17.020 L 42.000 22.039 39.000 19.040 L 36.000 16.041 31.220 20.820 L 26.440 25.600 24.220 23.380 L 22.000 21.160 15.645 27.515 C 12.149 31.011,9.307 33.900,9.329 33.935 C 9.351 33.971,8.611 34.000,7.685 34.000 L 6.000 34.000 6.000 23.000 L 6.000 12.000 24.000 12.000 L 42.000 12.000 42.000 17.020 M11.161 16.094 C 10.472 16.225,9.766 16.620,9.193 17.193 C 7.601 18.785,7.601 21.215,9.193 22.807 C 10.785 24.399,13.215 24.399,14.807 22.807 C 16.399 21.215,16.399 18.785,14.807 17.193 C 13.825 16.211,12.554 15.828,11.161 16.094 M39.020 24.740 L 42.000 27.719 42.000 30.860 L 42.000 34.000 28.420 34.000 L 14.840 34.000 18.420 30.420 L 22.000 26.840 25.280 30.120 L 28.560 33.399 29.980 31.980 L 31.399 30.560 30.340 29.500 L 29.280 28.441 32.620 25.100 C 34.456 23.263,35.977 21.760,35.999 21.760 C 36.021 21.760,37.380 23.101,39.020 24.740 " fill="#2B2C30" stroke="none" fill-rule="evenodd"></path></svg>