<svg width="30" height="31" viewBox="0 0 30 31" fill="none" xmlns="http://www.w3.org/2000/svg"><path d="M0.575 0.091 C 0.332 0.208,0.180 0.366,0.077 0.612 C 0.011 0.769,0.000 1.121,0.001 2.986 C 0.002 5.010,0.009 5.190,0.095 5.375 C 0.299 5.816,0.601 5.975,1.325 6.023 C 5.256 6.282,8.685 7.299,11.949 9.174 C 17.825 12.551,22.061 18.340,23.450 24.891 C 23.720 26.166,23.950 27.885,23.950 28.630 C 23.950 29.134,24.040 29.402,24.294 29.657 C 24.437 29.801,24.601 29.910,24.725 29.944 C 24.859 29.981,25.764 30.000,27.470 30.000 L 30.016 30.000 29.984 29.013 C 29.840 24.594,28.773 20.423,26.776 16.475 C 25.525 14.002,24.160 12.001,22.343 9.975 C 19.711 7.041,16.665 4.747,13.080 2.997 C 9.427 1.215,5.511 0.218,1.400 0.025 C 0.850 -0.001,0.751 0.007,0.575 0.091 " fill="#2B2C30" stroke="none" fill-rule="evenodd"></path></svg>