<svg width="30" height="51" viewBox="0 0 30 51" fill="none" xmlns="http://www.w3.org/2000/svg"><path d="M0.575 0.091 C 0.332 0.208,0.180 0.366,0.077 0.612 C 0.011 0.769,0.000 1.121,0.001 2.986 C 0.002 5.010,0.009 5.190,0.095 5.375 C 0.299 5.816,0.601 5.975,1.325 6.023 C 2.198 6.080,3.251 6.200,4.025 6.329 C 12.692 7.777,19.959 13.994,22.751 22.350 C 24.972 28.993,24.187 36.289,20.607 42.275 C 19.834 43.568,18.997 44.717,18.022 45.825 C 17.756 46.127,17.507 46.447,17.469 46.536 C 17.378 46.748,17.381 47.108,17.477 47.339 C 17.528 47.464,18.070 48.042,19.114 49.089 C 20.575 50.553,20.692 50.658,20.938 50.730 C 21.175 50.800,21.226 50.800,21.470 50.729 C 21.773 50.641,22.032 50.390,22.948 49.300 C 25.637 46.103,27.606 42.449,28.769 38.500 C 29.326 36.609,29.656 34.895,29.883 32.725 C 30.008 31.521,30.009 28.487,29.884 27.250 C 29.483 23.287,28.504 19.892,26.776 16.475 C 25.525 14.002,24.160 12.001,22.343 9.975 C 19.711 7.041,16.665 4.747,13.080 2.997 C 9.427 1.215,5.511 0.218,1.400 0.025 C 0.850 -0.001,0.751 0.007,0.575 0.091 " fill="#2B2C30" stroke="none" fill-rule="evenodd"></path></svg>