<svg width="60" height="60" viewBox="0 0 60 60" fill="none" xmlns="http://www.w3.org/2000/svg"><path d="M28.000 0.063 C 19.192 0.720,11.339 4.978,6.031 11.974 C 2.996 15.974,1.108 20.540,0.273 25.899 C -0.033 27.859,-0.033 32.141,0.273 34.101 C 1.556 42.330,5.534 49.083,11.982 53.975 C 15.965 56.997,20.556 58.894,25.899 59.727 C 27.859 60.033,32.141 60.033,34.101 59.727 C 41.392 58.591,47.589 55.304,52.239 50.107 C 56.362 45.501,58.744 40.408,59.727 34.101 C 60.033 32.141,60.033 27.859,59.727 25.899 C 58.894 20.556,56.997 15.965,53.975 11.982 C 49.014 5.444,41.924 1.330,33.750 0.248 C 32.579 0.093,29.099 -0.019,28.000 0.063 M33.400 6.253 C 37.850 6.932,41.777 8.658,45.200 11.441 C 48.723 14.305,51.410 18.255,52.835 22.667 C 53.644 25.169,53.939 27.128,53.942 30.000 C 53.944 32.857,53.648 34.816,52.835 37.333 C 50.008 46.085,42.607 52.342,33.400 53.767 C 31.794 54.016,28.206 54.016,26.600 53.767 C 19.045 52.598,12.706 48.224,9.037 41.646 C 7.601 39.071,6.722 36.452,6.235 33.300 C 5.988 31.703,5.988 28.297,6.235 26.700 C 6.970 21.941,8.730 18.034,11.776 14.400 C 15.488 9.972,21.241 6.880,27.020 6.207 C 27.531 6.148,28.108 6.081,28.300 6.058 C 29.040 5.972,32.399 6.100,33.400 6.253 " fill="#2B2C30" stroke="none" fill-rule="evenodd"></path></svg>