<svg width="60" height="60" viewBox="0 0 60 60" fill="none" xmlns="http://www.w3.org/2000/svg"><path d="M30.331 0.241 L 30.050 0.482 30.020 2.808 C 29.987 5.329,30.030 5.607,30.492 5.846 C 30.637 5.921,31.137 6.013,31.603 6.050 C 35.946 6.395,39.738 7.681,43.208 9.985 C 49.036 13.854,52.678 19.621,53.764 26.700 C 54.007 28.286,54.008 31.702,53.766 33.300 C 53.361 35.971,52.646 38.264,51.488 40.600 C 48.156 47.327,42.129 51.985,34.795 53.500 C 31.411 54.199,27.732 54.144,24.445 53.344 C 18.429 51.881,13.405 48.359,9.985 43.208 C 7.737 39.822,6.462 36.162,6.099 32.050 C 5.913 29.945,5.997 30.000,2.985 30.000 C -0.156 30.001,-0.124 29.974,0.091 32.471 C 0.824 40.972,5.010 48.626,11.770 53.823 C 15.794 56.917,20.513 58.898,25.800 59.713 C 27.747 60.013,31.989 60.041,33.850 59.765 C 40.294 58.811,45.486 56.396,50.172 52.174 C 55.410 47.454,58.674 41.220,59.765 33.850 C 60.041 31.989,60.013 27.747,59.713 25.800 C 58.686 19.137,55.824 13.420,51.202 8.798 C 46.124 3.720,39.634 0.718,32.400 0.100 C 30.760 -0.040,30.649 -0.033,30.331 0.241 " fill="#2B2C30" stroke="none" fill-rule="evenodd"></path></svg>