<svg width="60" height="60" viewBox="0 0 60 60" fill="none" xmlns="http://www.w3.org/2000/svg"><path d="M30.511 0.140 C 30.042 0.400,30.007 0.595,30.004 3.035 L 30.000 5.320 30.328 5.648 C 30.630 5.950,30.720 5.980,31.503 6.042 C 37.382 6.507,42.371 8.685,46.527 12.601 C 49.674 15.566,52.166 19.779,53.197 23.881 C 54.657 29.693,54.076 35.380,51.487 40.600 C 47.932 47.769,41.342 52.540,33.300 53.767 C 31.708 54.010,28.292 54.010,26.700 53.767 C 24.046 53.362,21.688 52.626,19.402 51.489 C 14.548 49.076,10.917 45.445,8.513 40.600 C 6.204 35.948,5.486 30.845,6.410 25.659 C 7.129 21.621,8.960 17.760,11.741 14.418 C 12.635 13.343,12.745 13.072,12.489 12.568 C 12.331 12.256,9.603 9.514,9.280 9.343 C 8.687 9.029,8.358 9.178,7.497 10.150 C 3.667 14.479,1.213 19.804,0.287 25.800 C -0.033 27.866,-0.040 32.096,0.273 34.101 C 1.549 42.291,5.581 49.129,11.966 53.935 C 20.345 60.240,31.245 61.726,41.002 57.894 C 48.266 55.041,54.376 49.159,57.462 42.049 C 58.554 39.531,59.275 37.004,59.727 34.101 C 60.040 32.096,60.033 27.866,59.713 25.800 C 58.459 17.683,54.407 10.830,48.018 6.022 C 43.457 2.589,38.215 0.596,32.450 0.104 C 30.937 -0.025,30.803 -0.022,30.511 0.140 " fill="#2B2C30" stroke="none" fill-rule="evenodd"></path></svg>