<svg width="57" height="57" viewBox="0 0 57 57" fill="none" xmlns="http://www.w3.org/2000/svg"><path d="M35.154 0.065 C 35.077 0.098,33.337 1.382,31.287 2.920 C 28.166 5.261,27.542 5.768,27.455 6.033 C 27.234 6.701,27.317 6.782,31.227 9.717 C 33.206 11.202,34.917 12.466,35.029 12.526 C 35.325 12.685,35.832 12.656,36.065 12.467 C 36.424 12.176,36.480 11.930,36.480 10.646 L 36.480 9.405 38.982 9.405 C 41.183 9.405,41.575 9.428,42.236 9.597 C 43.609 9.948,44.597 10.507,45.578 11.488 C 46.300 12.211,46.757 12.900,47.131 13.835 C 47.589 14.978,47.683 15.729,47.687 18.264 L 47.690 20.520 46.373 20.520 C 45.186 20.520,45.031 20.539,44.806 20.716 C 44.517 20.943,44.366 21.409,44.465 21.767 C 44.534 22.012,49.796 29.095,50.088 29.336 C 50.323 29.529,50.863 29.581,51.138 29.436 C 51.273 29.366,52.635 27.640,54.166 25.602 C 56.807 22.086,56.948 21.877,56.950 21.486 C 56.952 21.140,56.903 21.030,56.642 20.797 C 56.332 20.520,56.331 20.520,55.064 20.520 L 53.795 20.520 53.745 17.789 C 53.689 14.800,53.597 14.048,53.094 12.468 C 51.847 8.548,48.644 5.296,44.745 3.989 C 43.145 3.452,42.703 3.399,39.496 3.351 L 36.480 3.307 36.480 1.988 C 36.480 0.682,36.477 0.665,36.219 0.378 C 35.957 0.088,35.451 -0.061,35.154 0.065 M3.064 16.582 C 2.790 16.656,2.387 16.807,2.168 16.919 C 1.618 17.200,0.840 17.959,0.541 18.507 C -0.030 19.557,0.000 18.540,0.000 36.717 C 0.000 54.895,-0.030 53.878,0.541 54.928 C 0.839 55.475,1.617 56.235,2.165 56.515 C 3.160 57.022,2.329 57.000,20.282 57.000 C 38.460 57.000,37.443 57.030,38.493 56.459 C 39.040 56.161,39.800 55.383,40.080 54.835 C 40.587 53.840,40.565 54.671,40.565 36.717 C 40.565 18.764,40.587 19.595,40.080 18.600 C 39.800 18.052,39.040 17.274,38.493 16.976 C 37.442 16.404,38.468 16.434,20.239 16.441 C 6.182 16.447,3.484 16.469,3.064 16.582 M8.148 22.539 L 8.123 24.558 6.104 24.583 L 4.085 24.609 4.085 22.564 L 4.085 20.520 6.129 20.520 L 8.174 20.520 8.148 22.539 M36.480 22.564 L 36.480 24.609 34.461 24.583 L 32.443 24.558 32.417 22.539 L 32.391 20.520 34.436 20.520 L 36.480 20.520 36.480 22.564 M28.419 24.011 C 28.453 25.501,28.454 25.510,28.793 26.221 C 29.346 27.379,30.254 28.134,31.492 28.466 C 31.774 28.541,32.479 28.593,33.226 28.594 L 34.485 28.595 34.485 36.718 L 34.485 44.840 33.226 44.842 C 32.534 44.844,31.780 44.888,31.551 44.941 C 30.095 45.276,28.841 46.530,28.506 47.986 C 28.453 48.215,28.409 48.969,28.407 49.661 L 28.405 50.920 20.282 50.920 L 12.160 50.920 12.159 49.661 C 12.158 48.299,12.055 47.751,11.654 46.961 C 11.175 46.019,10.091 45.189,9.014 44.941 C 8.785 44.888,8.031 44.844,7.339 44.842 L 6.080 44.840 6.080 36.718 L 6.080 28.595 7.339 28.594 C 9.154 28.592,10.076 28.289,10.965 27.400 C 11.854 26.511,12.157 25.589,12.159 23.774 L 12.160 22.515 20.273 22.515 L 28.385 22.515 28.419 24.011 M8.148 50.896 L 8.174 52.915 6.129 52.915 L 4.085 52.915 4.085 50.871 L 4.085 48.826 6.104 48.852 L 8.123 48.877 8.148 50.896 M36.480 50.873 L 36.480 52.915 34.438 52.915 L 32.395 52.915 32.395 50.936 C 32.395 49.847,32.424 48.928,32.458 48.893 C 32.493 48.858,33.412 48.830,34.501 48.830 L 36.480 48.830 36.480 50.873 " fill="#2B2C30" stroke="none" fill-rule="evenodd"></path></svg>