<svg width="57" height="57" viewBox="0 0 57 57" fill="none" xmlns="http://www.w3.org/2000/svg"><path d="M19.505 0.099 C 18.365 0.325,17.216 1.243,16.692 2.349 L 16.387 2.993 16.360 7.580 L 16.333 12.167 20.920 12.140 L 25.508 12.113 26.155 11.806 C 27.286 11.270,28.133 10.190,28.394 8.949 C 28.452 8.672,28.500 7.913,28.500 7.262 L 28.500 6.079 36.646 6.103 L 44.793 6.128 44.844 7.695 C 44.892 9.132,44.917 9.308,45.149 9.812 C 45.499 10.571,46.313 11.398,47.100 11.792 C 47.729 12.107,47.758 12.112,49.305 12.160 L 50.873 12.207 50.897 20.354 L 50.921 28.500 49.728 28.500 C 48.192 28.500,47.403 28.674,46.644 29.181 C 45.962 29.636,45.508 30.168,45.151 30.929 L 44.888 31.492 44.860 36.080 L 44.833 40.667 49.422 40.640 L 54.012 40.612 54.675 40.287 C 55.824 39.722,56.679 38.624,56.907 37.419 C 57.036 36.739,57.033 4.001,56.904 3.321 C 56.610 1.772,55.457 0.549,53.909 0.146 C 53.416 0.017,51.368 0.001,36.626 0.010 C 27.428 0.016,19.724 0.056,19.505 0.099 M24.415 6.128 L 24.415 8.170 22.372 8.170 L 20.330 8.170 20.330 6.128 L 20.330 4.085 22.372 4.085 L 24.415 4.085 24.415 6.128 M52.915 6.128 L 52.915 8.170 50.873 8.170 L 48.830 8.170 48.830 6.128 L 48.830 4.085 50.873 4.085 L 52.915 4.085 52.915 6.128 M2.897 16.472 C 1.577 16.892,0.592 17.874,0.188 19.176 C 0.004 19.768,0.000 20.116,0.001 36.609 C 0.002 50.561,0.025 53.521,0.133 53.927 C 0.512 55.351,1.652 56.487,3.087 56.871 C 3.475 56.974,6.647 56.998,20.334 56.999 C 38.674 57.000,37.684 57.029,38.659 56.458 C 39.704 55.846,40.467 54.731,40.661 53.532 C 40.719 53.178,40.753 46.771,40.753 36.575 C 40.752 18.744,40.772 19.438,40.224 18.431 C 39.860 17.763,39.097 17.043,38.380 16.691 L 37.763 16.387 20.520 16.370 C 6.800 16.355,3.200 16.376,2.897 16.472 M8.170 22.372 L 8.170 24.415 6.128 24.415 L 4.085 24.415 4.085 22.372 L 4.085 20.330 6.128 20.330 L 8.170 20.330 8.170 22.372 M36.670 22.372 L 36.670 24.415 34.627 24.415 L 32.585 24.415 32.585 22.372 L 32.585 20.330 34.627 20.330 L 36.670 20.330 36.670 22.372 M28.500 23.694 C 28.500 25.545,28.824 26.457,29.809 27.378 C 30.732 28.242,31.539 28.500,33.315 28.500 L 34.580 28.500 34.580 36.664 L 34.580 44.827 33.036 44.857 C 31.534 44.887,31.476 44.895,30.875 45.183 C 30.105 45.551,29.493 46.092,29.098 46.753 C 28.641 47.517,28.500 48.201,28.500 49.657 L 28.500 50.920 20.378 50.920 L 12.255 50.920 12.253 49.804 C 12.251 47.891,11.928 46.921,10.983 45.979 C 10.716 45.712,10.221 45.358,9.882 45.191 C 9.283 44.895,9.227 44.886,7.697 44.840 L 6.128 44.793 6.103 36.646 L 6.079 28.500 7.342 28.500 C 8.172 28.500,8.799 28.450,9.171 28.353 C 10.324 28.055,11.275 27.263,11.791 26.172 C 12.148 25.418,12.255 24.802,12.255 23.500 L 12.255 22.420 20.378 22.420 L 28.500 22.420 28.500 23.694 M52.915 34.627 L 52.915 36.670 50.873 36.670 L 48.830 36.670 48.830 34.627 L 48.830 32.585 50.873 32.585 L 52.915 32.585 52.915 34.627 M8.170 50.873 L 8.170 52.915 6.128 52.915 L 4.085 52.915 4.085 50.873 L 4.085 48.830 6.128 48.830 L 8.170 48.830 8.170 50.873 M36.670 50.873 L 36.670 52.915 34.627 52.915 L 32.585 52.915 32.585 50.873 L 32.585 48.830 34.627 48.830 L 36.670 48.830 36.670 50.873 " fill="#2B2C30" stroke="none" fill-rule="evenodd"></path></svg>