<svg width="49" height="49" viewBox="0 0 49 49" fill="none" xmlns="http://www.w3.org/2000/svg"><path d="M3.181 0.111 C 1.750 0.419,0.513 1.633,0.119 3.114 C 0.019 3.489,0.002 6.595,0.001 24.435 C 0.000 39.368,0.026 45.440,0.090 45.750 C 0.409 47.280,1.720 48.591,3.250 48.910 C 3.864 49.038,45.136 49.038,45.750 48.910 C 47.280 48.591,48.591 47.280,48.910 45.750 C 49.038 45.136,49.038 3.864,48.910 3.250 C 48.587 1.704,47.230 0.367,45.698 0.088 C 44.971 -0.044,3.799 -0.022,3.181 0.111 M8.167 6.125 L 8.167 8.167 6.125 8.167 L 4.083 8.167 4.083 6.125 L 4.083 4.083 6.125 4.083 L 8.167 4.083 8.167 6.125 M44.917 6.125 L 44.917 8.167 42.875 8.167 L 40.833 8.167 40.833 6.125 L 40.833 4.083 42.875 4.083 L 44.917 4.083 44.917 6.125 M36.750 7.346 C 36.750 8.018,36.791 8.762,36.840 9.000 C 37.159 10.530,38.470 11.841,40.000 12.160 C 40.238 12.209,40.982 12.250,41.654 12.250 L 42.875 12.250 42.875 24.500 L 42.875 36.750 41.706 36.750 C 41.063 36.750,40.319 36.790,40.052 36.839 C 38.509 37.120,37.165 38.444,36.840 40.000 C 36.791 40.238,36.750 40.982,36.750 41.654 L 36.750 42.875 24.500 42.875 L 12.250 42.875 12.250 41.654 C 12.250 40.982,12.209 40.238,12.160 40.000 C 11.835 38.444,10.491 37.120,8.948 36.839 C 8.681 36.790,7.937 36.750,7.294 36.750 L 6.125 36.750 6.125 24.500 L 6.125 12.250 7.346 12.250 C 8.018 12.250,8.762 12.209,9.000 12.160 C 10.530 11.841,11.841 10.530,12.160 9.000 C 12.209 8.762,12.250 8.018,12.250 7.346 L 12.250 6.125 24.500 6.125 L 36.750 6.125 36.750 7.346 M8.167 42.875 L 8.167 44.917 6.125 44.917 L 4.083 44.917 4.083 42.875 L 4.083 40.833 6.125 40.833 L 8.167 40.833 8.167 42.875 M44.917 42.875 L 44.917 44.917 42.875 44.917 L 40.833 44.917 40.833 42.875 L 40.833 40.833 42.875 40.833 L 44.917 40.833 44.917 42.875 " fill="#2B2C30" stroke="none" fill-rule="evenodd"></path></svg>