<svg width="56" height="59" viewBox="0 0 56 59" fill="none" xmlns="http://www.w3.org/2000/svg"><path d="M27.487 0.159 C 25.785 1.077,0.633 15.668,0.443 15.847 C 0.148 16.125,0.000 16.569,0.003 17.173 C 0.004 17.609,0.246 18.260,0.475 18.447 C 0.548 18.506,6.697 22.070,14.140 26.367 C 25.029 32.654,27.737 34.181,28.000 34.181 C 28.263 34.181,30.961 32.660,41.860 26.368 C 49.303 22.070,55.452 18.506,55.525 18.447 C 55.754 18.260,55.996 17.608,55.997 17.173 C 56.000 16.569,55.852 16.125,55.557 15.847 C 55.354 15.656,29.665 0.759,28.493 0.153 C 28.124 -0.037,27.847 -0.036,27.487 0.159 M36.872 11.890 C 41.669 14.656,45.648 16.970,45.715 17.031 C 45.811 17.120,43.998 18.204,36.918 22.290 L 28.000 27.438 19.083 22.291 C 13.825 19.256,10.200 17.109,10.250 17.060 C 10.457 16.853,27.876 6.831,28.005 6.845 C 28.085 6.853,32.075 9.123,36.872 11.890 M2.348 25.457 C 2.210 25.598,1.621 26.545,1.038 27.562 C 0.081 29.232,-0.017 29.445,0.032 29.751 C 0.063 29.937,0.183 30.181,0.300 30.292 C 0.533 30.513,27.301 45.977,27.734 46.141 C 27.924 46.212,28.076 46.212,28.268 46.140 C 28.703 45.976,55.466 30.514,55.700 30.292 C 55.817 30.181,55.937 29.937,55.968 29.751 C 56.017 29.445,55.919 29.232,54.962 27.562 C 54.379 26.545,53.790 25.598,53.652 25.457 C 53.360 25.158,52.890 25.114,52.448 25.343 C 52.296 25.421,46.754 28.613,40.131 32.436 C 33.509 36.259,28.050 39.387,28.000 39.387 C 27.951 39.387,22.493 36.259,15.871 32.437 C 9.249 28.614,3.706 25.422,3.553 25.344 C 3.110 25.114,2.640 25.158,2.348 25.457 M2.559 37.293 C 2.334 37.404,2.044 37.828,1.222 39.248 C 0.645 40.245,0.127 41.181,0.072 41.327 C -0.055 41.663,0.031 42.014,0.302 42.275 C 0.418 42.386,2.592 43.678,5.133 45.145 C 27.789 58.224,27.653 58.147,28.002 58.147 C 28.286 58.147,30.637 56.823,41.729 50.420 C 49.090 46.170,55.244 42.615,55.404 42.520 C 55.744 42.319,56.000 41.925,56.000 41.604 C 56.000 41.360,53.997 37.797,53.666 37.454 C 53.382 37.159,52.921 37.093,52.535 37.293 C 52.362 37.382,46.771 40.601,40.111 44.445 L 28.001 51.435 16.404 44.739 C 2.584 36.759,3.266 37.147,3.033 37.149 C 2.931 37.150,2.717 37.215,2.559 37.293 " fill="#2B2C30" stroke="none" fill-rule="evenodd"></path></svg>