<svg width="63" height="60" viewBox="0 0 63 60" fill="none" xmlns="http://www.w3.org/2000/svg"><path d="M30.607 0.199 C 29.710 0.615,29.767 0.480,27.389 7.788 C 26.180 11.503,24.695 16.066,24.089 17.929 L 22.987 21.315 12.330 21.315 C 0.783 21.315,1.274 21.292,0.644 21.871 C 0.070 22.399,-0.161 23.467,0.145 24.180 C 0.225 24.365,0.473 24.688,0.697 24.896 C 0.984 25.163,16.650 36.601,17.671 37.289 C 17.726 37.325,16.329 41.784,14.502 47.405 C 12.101 54.790,11.235 57.584,11.237 57.944 C 11.241 59.293,12.771 60.325,14.003 59.810 C 14.222 59.719,17.930 57.080,22.242 53.947 C 26.554 50.814,30.291 48.143,30.547 48.013 C 31.079 47.740,31.663 47.709,32.181 47.925 C 32.379 48.008,36.074 50.642,40.393 53.779 C 44.713 56.916,48.459 59.593,48.719 59.727 C 50.053 60.418,51.758 59.291,51.632 57.802 C 51.607 57.504,50.198 53.009,48.363 47.373 C 46.589 41.926,45.152 37.426,45.170 37.375 C 45.188 37.323,48.888 34.608,53.392 31.341 C 57.897 28.074,61.789 25.231,62.042 25.022 C 63.177 24.085,63.137 22.516,61.958 21.682 L 61.512 21.367 50.690 21.315 L 39.869 21.262 36.639 11.328 C 34.863 5.863,33.336 1.250,33.246 1.076 C 32.772 0.160,31.562 -0.243,30.607 0.199 M34.620 24.543 L 35.519 27.298 42.092 27.325 L 48.665 27.352 43.351 31.209 L 38.037 35.066 40.065 41.287 C 41.180 44.708,42.081 47.519,42.067 47.533 C 42.053 47.547,40.610 46.521,38.861 45.252 C 34.548 42.126,33.940 41.846,31.447 41.846 C 28.950 41.846,28.224 42.180,23.941 45.297 C 22.238 46.536,20.833 47.538,20.819 47.524 C 20.805 47.510,21.690 44.737,22.786 41.363 C 23.883 37.988,24.779 35.180,24.779 35.122 C 24.778 35.065,22.400 33.293,19.494 31.185 L 14.212 27.352 20.786 27.325 L 27.361 27.298 28.545 23.650 C 29.197 21.644,30.115 18.826,30.585 17.387 L 31.440 14.772 32.581 18.280 C 33.208 20.209,34.126 23.027,34.620 24.543 " fill="#2B2C30" stroke="none" fill-rule="evenodd"></path></svg>