<svg width="56" height="56" viewBox="0 0 56 56" fill="none" xmlns="http://www.w3.org/2000/svg"><path d="M3.010 0.144 C 1.598 0.524,0.504 1.617,0.130 3.019 C 0.023 3.421,0.002 7.546,0.001 28.015 C 0.000 51.766,0.005 52.548,0.176 53.095 C 0.414 53.861,0.736 54.384,1.286 54.898 C 1.807 55.386,2.245 55.632,2.980 55.850 C 3.441 55.986,5.737 56.000,28.000 56.000 C 50.263 56.000,52.559 55.986,53.020 55.850 C 53.755 55.632,54.193 55.386,54.714 54.898 C 55.264 54.384,55.586 53.861,55.824 53.095 C 55.995 52.548,56.000 51.764,56.000 28.000 C 56.000 4.236,55.995 3.452,55.824 2.905 C 55.586 2.139,55.264 1.616,54.714 1.102 C 54.174 0.596,53.690 0.332,52.950 0.140 C 52.164 -0.065,3.770 -0.061,3.010 0.144 M50.027 28.000 L 50.027 50.027 28.000 50.027 L 5.973 50.027 5.973 28.000 L 5.973 5.973 28.000 5.973 L 50.027 5.973 50.027 28.000 " fill="#2B2C30" stroke="none" fill-rule="evenodd"></path></svg>