<svg width="52" height="36" viewBox="0 0 52 36" fill="none" xmlns="http://www.w3.org/2000/svg"><path d="M0.499 0.136 C -0.036 0.426,-0.000 -0.874,-0.000 17.983 C -0.000 36.902,-0.039 35.547,0.517 35.835 C 0.743 35.952,3.619 35.967,26.000 35.967 C 48.381 35.967,51.257 35.952,51.483 35.835 C 52.039 35.547,52.000 36.902,52.000 17.983 C 52.000 -0.935,52.039 0.419,51.483 0.131 C 51.257 0.015,48.384 0.000,25.983 0.003 C 3.821 0.007,0.708 0.023,0.499 0.136 M14.993 10.487 L 14.993 14.993 10.487 14.993 L 5.980 14.993 5.980 10.487 L 5.980 5.980 10.487 5.980 L 14.993 5.980 14.993 10.487 M31.027 10.487 L 31.027 14.993 26.000 14.993 L 20.973 14.993 20.973 10.487 L 20.973 5.980 26.000 5.980 L 31.027 5.980 31.027 10.487 M46.020 10.487 L 46.020 14.993 41.513 14.993 L 37.007 14.993 37.007 10.487 L 37.007 5.980 41.513 5.980 L 46.020 5.980 46.020 10.487 M14.993 25.480 L 14.993 29.987 10.487 29.987 L 5.980 29.987 5.980 25.480 L 5.980 20.973 10.487 20.973 L 14.993 20.973 14.993 25.480 M31.027 25.480 L 31.027 29.987 26.000 29.987 L 20.973 29.987 20.973 25.480 L 20.973 20.973 26.000 20.973 L 31.027 20.973 31.027 25.480 M46.020 25.480 L 46.020 29.987 41.513 29.987 L 37.007 29.987 37.007 25.480 L 37.007 20.973 41.513 20.973 L 46.020 20.973 46.020 25.480 " fill="#2B2C30" stroke="none" fill-rule="evenodd"></path></svg>