<svg width="60" height="60" viewBox="0 0 60 60" fill="none" xmlns="http://www.w3.org/2000/svg"><path d="M24.546 0.142 C 20.211 0.830,16.809 4.255,16.146 8.600 C 15.926 10.043,15.935 20.189,16.157 21.279 C 16.374 22.340,16.865 23.313,17.632 24.200 C 17.988 24.613,21.001 27.667,24.327 30.987 L 30.375 37.024 30.849 36.287 C 31.516 35.249,32.674 33.843,33.512 33.053 L 34.225 32.380 28.222 26.365 C 23.087 21.221,22.203 20.292,22.110 19.950 C 21.966 19.420,21.964 9.829,22.108 9.204 C 22.335 8.217,23.056 7.197,23.917 6.643 C 24.119 6.514,24.556 6.316,24.889 6.204 C 25.466 6.009,25.727 6.000,30.600 6.000 C 34.971 6.000,35.760 6.022,36.078 6.154 C 36.336 6.261,38.400 8.255,42.832 12.679 C 46.342 16.183,49.278 19.172,49.357 19.320 C 49.436 19.469,49.500 19.737,49.500 19.917 C 49.500 20.215,49.121 20.624,45.292 24.457 L 41.084 28.669 42.087 28.444 C 44.255 27.956,46.814 27.881,48.950 28.243 L 49.850 28.395 52.131 26.122 C 55.425 22.840,55.857 22.098,55.842 19.750 C 55.834 18.416,55.646 17.731,54.996 16.659 C 54.777 16.297,52.201 13.638,47.259 8.673 C 39.320 0.699,39.422 0.790,37.900 0.275 C 37.262 0.059,37.140 0.054,31.300 0.035 C 26.880 0.020,25.143 0.048,24.546 0.142 M28.951 9.118 C 27.653 9.365,26.137 10.524,25.571 11.700 C 24.577 13.766,24.921 15.933,26.493 17.509 C 28.478 19.499,31.522 19.499,33.507 17.509 C 35.550 15.461,35.492 12.312,33.375 10.345 C 32.191 9.245,30.600 8.803,28.951 9.118 M11.186 10.779 C 9.550 12.332,8.486 14.370,8.146 16.600 C 7.926 18.043,7.935 28.189,8.157 29.279 C 8.374 30.339,8.864 31.312,9.631 32.200 C 9.986 32.613,13.376 36.037,17.164 39.809 C 22.274 44.900,24.205 46.761,24.650 47.026 C 25.467 47.511,26.402 47.810,27.300 47.873 L 28.050 47.925 28.056 45.938 C 28.063 43.959,28.169 43.017,28.546 41.609 L 28.690 41.068 28.243 41.507 L 27.796 41.946 20.203 34.353 C 14.806 28.957,12.530 26.615,12.330 26.256 L 12.050 25.750 12.000 17.901 L 11.950 10.053 11.186 10.779 M3.099 18.905 C 1.711 20.282,0.839 21.784,0.320 23.688 L 0.058 24.650 0.023 30.604 C -0.016 37.340,-0.009 37.424,0.710 38.900 L 1.124 39.750 8.487 47.131 C 13.461 52.117,16.062 54.654,16.504 54.950 C 17.523 55.632,18.524 55.929,19.800 55.929 C 20.679 55.929,20.980 55.885,21.650 55.658 C 22.090 55.509,22.675 55.246,22.950 55.075 C 23.527 54.714,26.317 52.009,26.240 51.884 C 26.211 51.838,26.081 51.800,25.949 51.800 C 25.562 51.800,24.109 51.306,23.300 50.899 C 22.621 50.558,21.947 50.096,21.020 49.337 L 20.691 49.067 20.243 49.506 L 19.796 49.946 12.146 42.298 C 6.634 36.787,4.434 34.524,4.273 34.200 L 4.050 33.750 4.000 25.905 L 3.950 18.061 3.099 18.905 M44.850 32.070 C 40.788 32.441,37.161 34.482,34.733 37.762 C 33.558 39.350,32.597 41.598,32.238 43.600 C 32.011 44.867,32.008 47.143,32.231 48.372 C 32.768 51.322,34.036 53.748,36.144 55.856 C 38.234 57.946,40.605 59.203,43.500 59.755 C 44.765 59.996,47.200 60.005,48.456 59.774 C 51.317 59.246,53.781 57.945,55.863 55.863 C 57.937 53.789,59.196 51.425,59.763 48.537 C 59.999 47.339,60.004 44.791,59.774 43.544 C 58.908 38.859,55.735 34.922,51.346 33.088 C 49.419 32.283,46.879 31.885,44.850 32.070 M47.502 36.151 C 47.663 36.234,47.840 36.389,47.897 36.494 C 47.962 36.616,48.000 38.027,48.000 40.343 L 48.000 44.000 51.605 44.000 C 55.442 44.000,55.645 44.023,55.897 44.494 C 55.954 44.600,56.000 45.295,56.000 46.038 C 56.000 47.322,55.988 47.403,55.759 47.669 L 55.518 47.950 51.784 48.000 L 48.050 48.050 48.000 51.784 L 47.950 55.518 47.669 55.759 C 47.402 55.989,47.324 56.000,46.019 55.998 C 44.556 55.995,44.372 55.941,44.112 55.432 C 44.036 55.283,44.000 54.066,44.000 51.607 L 44.000 48.000 40.315 48.000 L 36.629 48.000 36.369 47.759 C 36.017 47.432,35.977 47.215,36.016 45.811 C 36.049 44.646,36.060 44.594,36.327 44.327 L 36.604 44.050 40.299 44.021 L 43.993 43.993 44.021 40.288 L 44.050 36.583 44.377 36.292 C 44.701 36.002,44.713 36.000,45.957 36.000 C 46.879 36.000,47.287 36.040,47.502 36.151 " fill="#2B2C30" stroke="none" fill-rule="evenodd"></path></svg>