<svg width="49" height="49" viewBox="0 0 49 49" fill="none" xmlns="http://www.w3.org/2000/svg"><path d="M10.780 0.088 C 8.030 0.402,5.580 1.594,3.591 3.588 C 1.808 5.375,0.769 7.296,0.223 9.817 C 0.042 10.652,0.041 10.703,0.041 18.212 L 0.041 25.766 0.233 26.376 C 0.471 27.134,0.734 27.665,1.187 28.297 C 1.710 29.028,20.344 47.592,20.945 47.981 C 23.113 49.387,25.931 49.303,27.966 47.773 C 28.443 47.415,47.560 28.279,47.872 27.848 C 48.192 27.406,48.557 26.637,48.766 25.967 C 49.013 25.174,49.034 23.607,48.809 22.785 C 48.562 21.883,48.074 21.004,47.381 20.209 C 47.029 19.807,42.649 15.406,37.648 10.429 C 28.342 1.170,28.094 0.939,27.032 0.492 C 25.923 0.025,26.358 0.049,18.579 0.033 C 14.627 0.025,11.117 0.050,10.780 0.088 M24.699 6.287 C 24.924 6.396,27.847 9.265,33.749 15.169 L 42.467 23.889 42.467 24.241 C 42.467 24.434,42.426 24.673,42.377 24.771 C 42.249 25.024,25.077 42.207,24.810 42.349 C 24.689 42.414,24.437 42.467,24.251 42.467 L 23.913 42.467 15.226 33.841 C 8.301 26.966,6.497 25.132,6.332 24.801 L 6.125 24.386 6.125 17.841 C 6.125 11.623,6.133 11.265,6.284 10.674 C 6.834 8.526,8.499 6.850,10.642 6.288 C 11.193 6.144,11.635 6.134,17.798 6.129 C 24.181 6.125,24.376 6.130,24.699 6.287 M13.189 9.230 C 12.236 9.421,10.967 10.150,10.416 10.822 C 9.600 11.818,9.238 12.719,9.171 13.925 C 9.086 15.442,9.569 16.695,10.650 17.763 C 11.298 18.403,12.068 18.852,12.903 19.075 C 13.667 19.279,14.899 19.258,15.639 19.029 C 17.243 18.532,18.532 17.243,19.029 15.639 C 19.256 14.906,19.276 13.674,19.073 12.903 C 18.608 11.141,17.120 9.689,15.353 9.274 C 14.792 9.142,13.735 9.121,13.189 9.230 M31.883 20.815 C 31.707 20.944,30.933 21.689,30.162 22.471 C 28.684 23.970,28.564 24.155,28.701 24.724 C 28.736 24.868,29.307 25.499,30.283 26.471 C 31.909 28.092,32.066 28.197,32.609 28.017 C 32.966 27.900,36.061 24.798,36.141 24.479 C 36.274 23.941,36.170 23.792,34.519 22.149 L 32.943 20.580 32.572 20.580 C 32.292 20.580,32.123 20.637,31.883 20.815 M23.969 28.792 C 23.689 28.936,21.173 31.402,20.816 31.883 C 20.637 32.124,20.580 32.291,20.580 32.572 L 20.580 32.943 22.149 34.519 C 23.792 36.170,23.941 36.274,24.479 36.141 C 24.798 36.061,27.900 32.966,28.017 32.609 C 28.194 32.073,28.084 31.903,26.552 30.352 C 25.760 29.551,25.013 28.844,24.892 28.780 C 24.606 28.631,24.275 28.635,23.969 28.792 " fill="#2B2C30" stroke="none" fill-rule="evenodd"></path></svg>