<svg width="56" height="56" viewBox="0 0 56 56" fill="none" xmlns="http://www.w3.org/2000/svg"><path d="M24.729 0.103 C 23.376 0.278,21.727 0.915,20.440 1.761 C 20.158 1.946,19.562 2.448,19.117 2.875 C 17.607 4.326,16.697 5.955,16.215 8.073 C 16.038 8.854,16.022 9.291,15.985 14.268 C 15.936 20.920,15.974 21.360,16.732 22.960 C 16.996 23.517,17.632 24.181,24.540 31.108 C 28.768 35.348,32.283 38.798,32.569 38.989 C 33.337 39.501,34.505 39.872,35.513 39.922 C 36.603 39.977,37.518 39.785,38.547 39.285 L 39.340 38.899 47.101 31.139 L 54.862 23.380 55.283 22.493 C 55.774 21.460,55.915 20.865,55.916 19.829 C 55.916 18.573,55.618 17.584,54.917 16.520 C 54.639 16.097,52.258 13.659,47.069 8.485 L 39.620 1.056 38.827 0.673 C 37.448 0.009,37.328 -0.002,30.967 0.012 C 27.872 0.018,25.065 0.059,24.729 0.103 M36.120 6.183 C 36.615 6.430,49.354 19.207,49.451 19.553 C 49.494 19.707,49.495 19.959,49.454 20.113 C 49.400 20.312,47.467 22.304,42.818 26.950 L 36.257 33.507 35.840 33.507 L 35.423 33.507 28.902 26.997 C 24.458 22.561,22.325 20.368,22.206 20.113 C 22.042 19.763,22.031 19.429,22.029 14.696 C 22.026 9.207,22.039 9.058,22.562 8.096 C 23.093 7.120,24.355 6.239,25.458 6.072 C 25.753 6.028,28.198 5.998,30.893 6.006 C 35.351 6.019,35.823 6.035,36.120 6.183 M28.677 9.198 C 27.767 9.443,26.734 10.117,26.147 10.850 C 23.910 13.644,25.211 17.771,28.653 18.799 C 29.327 19.001,30.683 19.001,31.360 18.801 C 33.172 18.264,34.567 16.752,34.913 14.950 C 35.401 12.412,33.787 9.841,31.297 9.193 C 30.632 9.020,29.328 9.022,28.677 9.198 M11.258 10.735 C 9.938 11.988,9.088 13.305,8.549 14.933 C 8.038 16.474,8.014 16.878,8.045 23.380 L 8.073 29.260 8.337 30.006 C 8.853 31.466,8.776 31.380,16.511 39.136 C 20.494 43.131,23.947 46.542,24.183 46.717 C 26.004 48.067,28.467 48.300,30.462 47.310 C 31.286 46.901,31.747 46.525,33.126 45.138 C 34.368 43.889,34.377 43.878,34.106 43.819 C 32.103 43.382,30.661 42.692,29.276 41.507 L 28.732 41.041 28.271 41.495 L 27.810 41.950 20.168 34.308 C 14.695 28.836,12.464 26.545,12.307 26.237 L 12.087 25.807 12.040 17.921 L 11.993 10.036 11.258 10.735 M3.117 18.902 C 1.610 20.387,0.747 21.927,0.214 24.080 C -0.016 25.013,-0.080 36.173,0.139 37.277 C 0.319 38.186,0.754 39.140,1.334 39.900 C 1.569 40.208,4.987 43.678,8.930 47.611 C 14.998 53.663,16.200 54.820,16.753 55.140 C 18.560 56.186,20.623 56.255,22.493 55.333 C 23.203 54.983,23.449 54.782,24.820 53.431 L 26.354 51.920 25.628 51.758 C 24.123 51.423,22.583 50.656,21.369 49.637 L 20.699 49.074 20.241 49.525 L 19.783 49.976 12.183 42.377 C 6.766 36.959,4.508 34.641,4.322 34.305 L 4.060 33.833 4.013 25.949 L 3.967 18.065 3.117 18.902 " fill="#2B2C30" stroke="none" fill-rule="evenodd"></path></svg>