<svg width="49" height="49" viewBox="0 0 49 49" fill="none" xmlns="http://www.w3.org/2000/svg"><path d="M10.535 0.122 C 7.971 0.479,5.664 1.583,3.823 3.335 C 2.310 4.775,1.231 6.467,0.615 8.365 C 0.017 10.205,0.041 9.803,0.041 18.212 L 0.041 25.766 0.233 26.376 C 0.471 27.134,0.734 27.665,1.187 28.297 C 1.720 29.041,20.256 47.509,20.907 47.944 C 23.000 49.345,25.636 49.334,27.767 47.917 C 28.210 47.622,47.331 28.555,47.773 27.966 C 48.182 27.422,48.533 26.716,48.766 25.967 C 49.013 25.174,49.034 23.607,48.809 22.785 C 48.561 21.878,48.075 21.004,47.377 20.209 C 47.023 19.807,42.659 15.414,37.679 10.449 C 28.297 1.093,28.162 0.967,27.032 0.492 C 25.923 0.025,26.360 0.049,18.538 0.031 C 12.915 0.018,11.139 0.038,10.535 0.122 M24.699 6.287 C 24.924 6.396,27.847 9.265,33.749 15.169 L 42.467 23.889 42.467 24.241 C 42.467 24.434,42.426 24.673,42.377 24.771 C 42.249 25.024,25.077 42.207,24.810 42.349 C 24.689 42.414,24.438 42.467,24.252 42.467 L 23.915 42.467 15.225 33.838 C 8.339 27.000,6.492 25.123,6.330 24.797 L 6.125 24.386 6.125 17.841 C 6.125 11.623,6.133 11.265,6.284 10.674 C 6.834 8.526,8.499 6.850,10.642 6.288 C 11.193 6.144,11.635 6.134,17.798 6.129 C 24.181 6.125,24.376 6.130,24.699 6.287 M13.312 9.203 C 12.198 9.389,10.892 10.170,10.234 11.042 C 9.540 11.960,9.233 12.794,9.170 13.925 C 9.087 15.442,9.570 16.696,10.650 17.763 C 11.665 18.766,12.784 19.215,14.251 19.209 C 15.619 19.204,16.791 18.717,17.754 17.754 C 18.717 16.791,19.204 15.619,19.209 14.251 C 19.215 12.784,18.766 11.665,17.763 10.650 C 16.770 9.645,15.543 9.135,14.177 9.158 C 13.813 9.164,13.424 9.184,13.312 9.203 M17.844 22.776 C 17.709 22.861,16.910 23.625,16.068 24.475 L 14.537 26.021 14.537 26.463 L 14.537 26.906 19.129 31.501 C 23.973 36.348,23.900 36.284,24.479 36.141 C 24.798 36.061,27.900 32.966,28.017 32.609 C 28.213 32.015,28.288 32.103,23.532 27.332 C 21.077 24.870,18.970 22.802,18.849 22.738 C 18.545 22.577,18.136 22.593,17.844 22.776 " fill="#2B2C30" stroke="none" fill-rule="evenodd"></path></svg>