<svg width="46" height="51" viewBox="0 0 46 51" fill="none" xmlns="http://www.w3.org/2000/svg"><path d="M11.768 0.084 C 9.724 0.297,7.593 1.070,5.892 2.216 C 2.551 4.467,0.487 7.897,0.081 11.872 C -0.031 12.973,-0.028 25.031,0.085 25.952 C 0.256 27.344,0.733 28.627,1.546 29.878 C 2.060 30.668,2.497 31.118,11.417 40.025 C 18.365 46.962,20.891 49.437,21.296 49.707 C 23.803 51.373,26.845 51.385,29.325 49.736 C 29.990 49.294,41.067 38.225,41.176 37.893 C 41.347 37.377,41.259 37.251,39.497 35.478 C 37.745 33.714,37.659 33.654,37.093 33.772 C 36.886 33.815,35.797 34.864,31.318 39.332 C 26.425 44.214,25.766 44.845,25.510 44.892 C 25.341 44.922,25.132 44.908,25.008 44.856 C 24.890 44.807,20.669 40.638,15.626 35.590 C 6.883 26.838,6.449 26.390,6.276 25.952 L 6.095 25.492 6.072 19.205 C 6.057 14.971,6.077 12.706,6.134 12.267 C 6.246 11.398,6.642 10.260,7.101 9.492 C 7.598 8.659,8.659 7.598,9.492 7.101 C 10.236 6.656,11.384 6.250,12.215 6.138 C 12.595 6.086,15.064 6.057,18.964 6.057 C 25.661 6.057,25.607 6.053,26.373 6.492 C 26.578 6.609,28.424 8.390,30.896 10.857 L 35.075 15.024 32.722 17.383 C 31.156 18.953,30.353 19.814,30.317 19.957 C 30.156 20.616,30.579 21.188,31.291 21.273 C 31.517 21.300,34.651 21.311,38.257 21.298 C 44.687 21.275,44.817 21.272,45.080 21.119 C 45.648 20.789,45.616 21.230,45.617 13.620 C 45.617 7.523,45.604 6.781,45.494 6.549 C 45.259 6.053,44.585 5.832,44.099 6.090 C 43.985 6.150,42.874 7.220,41.631 8.466 L 39.370 10.732 35.114 6.490 C 32.774 4.156,30.651 2.093,30.398 1.904 C 29.003 0.862,27.594 0.289,25.915 0.081 C 25.138 -0.016,12.699 -0.013,11.768 0.084 M14.443 10.192 C 12.448 10.509,10.803 12.003,10.301 13.953 C 10.144 14.562,10.127 15.751,10.267 16.330 C 10.697 18.110,12.036 19.508,13.838 20.059 C 14.547 20.276,15.968 20.258,16.675 20.023 C 17.527 19.740,18.154 19.351,18.784 18.714 C 19.824 17.663,20.293 16.417,20.216 14.912 C 20.148 13.583,19.700 12.578,18.745 11.616 C 18.143 11.008,17.306 10.524,16.501 10.316 C 15.914 10.164,14.972 10.107,14.443 10.192 " fill="#2B2C30" stroke="none" fill-rule="evenodd"></path></svg>