<svg width="60" height="60" viewBox="0 0 60 60" fill="none" xmlns="http://www.w3.org/2000/svg"><path d="M28.000 0.063 C 19.198 0.720,11.285 5.011,6.021 11.984 C 2.982 16.008,1.107 20.548,0.273 25.899 C -0.033 27.859,-0.033 32.141,0.273 34.101 C 1.106 39.449,3.003 44.034,6.031 48.026 C 10.360 53.731,16.505 57.713,23.354 59.249 C 25.912 59.822,27.023 59.938,30.000 59.938 C 32.302 59.938,32.970 59.903,34.101 59.727 C 37.780 59.154,41.129 58.069,44.072 56.498 C 49.294 53.710,53.710 49.294,56.498 44.072 C 58.069 41.129,59.154 37.780,59.727 34.101 C 60.033 32.141,60.033 27.859,59.727 25.899 C 58.894 20.556,56.997 15.965,53.975 11.982 C 49.016 5.446,41.922 1.330,33.750 0.248 C 32.579 0.093,29.099 -0.019,28.000 0.063 M33.400 6.253 C 37.850 6.932,41.777 8.658,45.200 11.441 C 48.723 14.305,51.410 18.255,52.835 22.667 C 53.646 25.178,53.943 27.139,53.943 30.000 C 53.943 32.861,53.646 34.822,52.835 37.333 C 50.008 46.085,42.607 52.342,33.400 53.767 C 31.794 54.016,28.206 54.016,26.600 53.767 C 19.045 52.598,12.706 48.224,9.037 41.646 C 7.601 39.071,6.722 36.452,6.235 33.300 C 5.988 31.703,5.988 28.297,6.235 26.700 C 6.970 21.941,8.730 18.034,11.776 14.400 C 15.488 9.972,21.241 6.880,27.020 6.207 C 27.531 6.148,28.108 6.081,28.300 6.058 C 29.040 5.972,32.399 6.100,33.400 6.253 M28.111 12.107 C 22.507 12.741,17.530 15.890,14.661 20.616 C 9.520 29.084,12.164 40.167,20.550 45.301 C 28.811 50.359,39.574 48.025,44.935 40.014 C 49.592 33.055,48.827 23.803,43.085 17.655 C 40.545 14.935,36.823 12.932,33.123 12.294 C 31.759 12.058,29.337 11.968,28.111 12.107 M31.657 18.107 C 33.372 18.346,35.512 19.191,36.891 20.176 C 40.631 22.844,42.572 27.420,41.850 31.867 C 40.546 39.907,31.873 44.347,24.598 40.699 C 20.581 38.684,18.000 34.499,18.000 30.000 C 18.000 28.142,18.385 26.508,19.238 24.750 C 20.112 22.947,21.489 21.318,23.104 20.175 C 24.448 19.224,26.648 18.342,28.250 18.111 C 29.121 17.985,30.767 17.984,31.657 18.107 M28.700 24.156 C 26.050 24.727,24.003 27.274,24.003 30.000 C 24.003 33.230,26.770 35.997,30.000 35.997 C 33.218 35.997,35.997 33.218,35.997 30.000 C 35.997 27.256,33.934 24.714,31.250 24.150 C 30.390 23.970,29.555 23.972,28.700 24.156 " fill="#2B2C30" stroke="none" fill-rule="evenodd"></path></svg>