<svg width="62" height="61" viewBox="0 0 62 61" fill="none" xmlns="http://www.w3.org/2000/svg"><path d="M27.435 0.119 C 20.511 0.724,14.115 3.646,9.158 8.470 C 7.442 10.139,6.338 11.458,5.046 13.382 C 2.523 17.139,0.848 21.647,0.189 26.453 C 0.013 27.738,0.012 32.180,0.187 33.480 C 0.683 37.157,1.702 40.510,3.250 43.550 C 6.172 49.293,10.952 54.017,16.688 56.831 C 19.702 58.310,22.265 59.112,25.784 59.679 C 27.441 59.946,31.339 59.999,33.280 59.781 C 34.157 59.683,34.915 59.578,34.964 59.548 C 35.013 59.518,33.805 58.244,32.278 56.717 L 29.503 53.940 28.956 53.940 C 27.525 53.940,25.105 53.539,23.250 52.995 C 15.703 50.783,9.725 45.005,7.226 37.510 C 6.774 36.154,6.499 34.978,6.236 33.273 C 5.987 31.661,5.986 28.318,6.234 26.660 C 7.415 18.766,12.163 12.151,19.205 8.590 C 22.716 6.815,25.977 6.050,30.018 6.055 C 32.934 6.058,34.879 6.364,37.554 7.243 C 41.141 8.421,44.227 10.332,46.966 13.071 C 50.570 16.674,52.808 21.026,53.689 26.143 C 53.913 27.445,54.003 31.148,53.845 32.563 C 53.613 34.641,53.076 36.869,52.389 38.597 C 52.219 39.025,52.080 39.407,52.080 39.446 C 52.080 39.484,53.208 38.396,54.586 37.029 C 56.885 34.746,57.143 34.523,57.712 34.313 C 58.052 34.187,58.642 34.058,59.021 34.026 C 59.846 33.957,59.776 34.115,59.939 31.930 C 60.283 27.287,59.336 22.072,57.342 17.637 C 54.352 10.989,48.711 5.429,42.004 2.520 C 37.407 0.526,32.337 -0.310,27.435 0.119 M28.158 12.101 C 26.082 12.319,23.844 12.967,22.020 13.880 C 13.057 18.363,9.468 29.128,13.953 38.078 C 16.067 42.297,19.837 45.539,24.400 47.063 C 25.004 47.265,25.562 47.427,25.640 47.424 C 25.718 47.421,25.930 47.107,26.111 46.727 C 26.394 46.133,26.708 45.772,28.333 44.169 C 29.374 43.143,30.388 42.226,30.587 42.131 L 30.948 41.958 29.903 41.956 C 25.326 41.945,21.138 39.273,19.167 35.106 C 16.089 28.596,19.374 20.897,26.206 18.608 C 31.907 16.698,38.113 19.312,40.774 24.745 C 43.311 29.923,41.795 36.138,37.148 39.608 C 36.224 40.298,34.564 41.155,33.661 41.408 C 33.058 41.576,32.876 41.747,33.299 41.747 C 33.427 41.747,33.834 41.890,34.203 42.064 C 34.762 42.328,35.174 42.679,36.651 44.146 L 38.426 45.910 39.234 45.411 C 41.325 44.117,43.347 42.254,44.667 40.402 C 45.517 39.210,46.684 36.883,47.108 35.534 C 47.775 33.415,47.887 32.624,47.891 30.018 C 47.895 27.355,47.765 26.455,47.067 24.324 C 44.466 16.383,36.488 11.227,28.158 12.101 M28.947 24.083 C 26.664 24.489,24.696 26.361,24.173 28.623 C 23.976 29.480,24.022 30.927,24.273 31.723 C 24.902 33.721,26.617 35.326,28.629 35.800 C 31.810 36.550,35.066 34.533,35.814 31.350 C 36.035 30.407,35.967 28.908,35.665 28.062 C 35.022 26.264,33.681 24.937,31.906 24.341 C 31.031 24.047,29.769 23.937,28.947 24.083 M50.609 46.680 L 42.056 55.230 37.484 50.660 C 32.613 45.792,32.607 45.787,31.970 46.119 C 31.806 46.204,31.311 46.645,30.871 47.098 C 30.100 47.892,30.070 47.941,30.070 48.414 L 30.070 48.905 31.749 50.580 C 32.673 51.501,35.279 54.086,37.541 56.324 C 41.567 60.308,41.662 60.394,42.064 60.394 C 42.470 60.394,42.567 60.301,52.188 50.683 C 57.531 45.342,61.930 40.867,61.963 40.739 C 62.080 40.284,61.875 39.935,60.964 39.035 C 60.099 38.180,60.023 38.130,59.604 38.130 L 59.161 38.130 50.609 46.680 " fill="#2B2C30" stroke="none" fill-rule="evenodd"></path></svg>