<svg width="56" height="49" viewBox="0 0 56 49" fill="none" xmlns="http://www.w3.org/2000/svg"><path d="M12.498 0.155 C 12.003 0.463,11.996 0.506,11.964 3.337 L 11.934 5.973 6.431 5.973 C 0.396 5.973,0.431 5.970,0.146 6.521 C 0.015 6.775,0.000 8.576,0.000 24.033 C 0.000 39.490,0.015 41.292,0.146 41.545 C 0.431 42.096,0.396 42.093,6.431 42.093 L 11.934 42.093 11.964 44.730 C 11.996 47.607,12.002 47.641,12.550 47.927 C 12.807 48.061,14.833 48.072,34.135 48.047 L 55.436 48.020 55.695 47.761 L 55.953 47.502 55.978 38.988 C 55.997 32.714,55.975 30.405,55.895 30.213 C 55.657 29.638,57.399 29.680,34.012 29.680 L 12.625 29.680 12.382 29.871 C 12.249 29.976,12.097 30.217,12.044 30.408 C 11.988 30.607,11.947 31.871,11.947 33.390 L 11.947 36.027 9.053 36.027 L 6.160 36.027 6.160 24.033 L 6.160 12.040 9.048 12.040 L 11.937 12.040 11.965 14.868 C 11.997 18.021,12.008 18.079,12.651 18.348 C 13.127 18.547,54.914 18.546,55.390 18.347 C 56.038 18.077,56.006 18.588,55.978 9.104 L 55.953 0.564 55.695 0.305 L 55.436 0.047 34.088 0.025 C 14.576 0.006,12.719 0.017,12.498 0.155 M36.027 8.960 L 36.027 11.947 27.067 11.947 L 18.107 11.947 18.107 8.960 L 18.107 5.973 27.067 5.973 L 36.027 5.973 36.027 8.960 M36.027 39.060 L 36.027 42.093 27.067 42.093 L 18.107 42.093 18.107 39.060 L 18.107 36.027 27.067 36.027 L 36.027 36.027 36.027 39.060 " fill="#2B2C30" stroke="none" fill-rule="evenodd"></path></svg>