<svg width="56" height="40" viewBox="0 0 56 40" fill="none" xmlns="http://www.w3.org/2000/svg"><path d="M0.607 0.088 C 0.504 0.130,0.336 0.258,0.233 0.372 C 0.048 0.578,0.047 0.711,0.047 20.022 L 0.047 39.465 0.273 39.706 L 0.499 39.947 2.995 39.947 L 5.490 39.947 5.732 39.660 L 5.973 39.372 5.973 20.004 L 5.973 0.635 5.656 0.317 L 5.339 0.000 3.066 0.006 C 1.816 0.009,0.709 0.046,0.607 0.088 M50.349 0.313 L 50.027 0.635 50.027 20.004 L 50.027 39.372 50.268 39.660 L 50.510 39.947 53.005 39.947 L 55.501 39.947 55.727 39.706 L 55.953 39.465 55.953 20.015 L 55.953 0.564 55.695 0.305 L 55.436 0.047 53.053 0.019 L 50.670 -0.009 50.349 0.313 M12.451 4.331 L 12.133 4.648 12.133 13.009 L 12.133 21.370 12.406 21.675 L 12.678 21.980 28.187 21.980 L 43.695 21.980 43.968 21.675 L 44.240 21.370 44.240 13.009 L 44.240 4.648 43.923 4.331 L 43.605 4.013 28.187 4.013 L 12.768 4.013 12.451 4.331 M28.000 13.021 L 28.000 16.055 23.077 16.031 L 18.153 16.007 18.129 12.997 L 18.104 9.987 23.052 9.987 L 28.000 9.987 28.000 13.021 " fill="#2B2C30" stroke="none" fill-rule="evenodd"></path></svg>