<svg width="60" height="60" viewBox="0 0 60 60" fill="none" xmlns="http://www.w3.org/2000/svg"><path d="M27.650 0.095 C 23.111 0.507,18.902 1.797,15.240 3.899 C 8.010 8.050,2.891 14.784,0.910 22.750 C 0.273 25.311,0.058 27.143,0.058 30.000 C 0.058 32.857,0.273 34.689,0.910 37.250 C 3.367 47.129,10.791 55.188,20.400 58.407 C 23.622 59.486,26.495 59.947,30.000 59.947 C 36.118 59.947,41.532 58.316,46.618 54.942 C 57.153 47.953,62.145 35.068,59.089 22.750 C 57.296 15.520,52.822 9.174,46.618 5.058 C 42.612 2.400,38.601 0.906,33.700 0.246 C 32.348 0.064,28.935 -0.021,27.650 0.095 M33.500 6.248 C 38.663 7.037,43.272 9.366,46.953 13.047 C 50.654 16.748,52.952 21.307,53.760 26.550 C 54.019 28.232,54.019 31.768,53.760 33.450 C 52.952 38.693,50.654 43.252,46.953 46.953 C 43.252 50.654,38.693 52.952,33.450 53.760 C 31.768 54.019,28.232 54.019,26.550 53.760 C 21.307 52.952,16.748 50.654,13.047 46.953 C 9.346 43.252,7.048 38.693,6.240 33.450 C 5.982 31.777,5.981 28.237,6.238 26.550 C 7.571 17.787,13.434 10.567,21.746 7.454 C 23.480 6.805,25.504 6.360,28.100 6.059 C 28.875 5.969,32.505 6.096,33.500 6.248 M28.800 17.543 C 26.793 18.102,25.408 19.880,25.402 21.907 C 25.396 24.092,26.775 25.905,28.853 26.447 C 30.449 26.862,31.988 26.424,33.208 25.206 C 34.879 23.538,35.060 21.126,33.656 19.219 C 32.604 17.789,30.511 17.067,28.800 17.543 M17.050 18.141 C 16.322 18.321,15.736 18.654,15.194 19.196 C 13.638 20.753,13.638 23.248,15.195 24.805 C 17.476 27.085,21.324 25.858,21.912 22.663 C 22.424 19.885,19.813 17.456,17.050 18.141 M41.050 18.141 C 40.322 18.321,39.736 18.654,39.194 19.196 C 37.638 20.753,37.638 23.248,39.195 24.805 C 41.476 27.085,45.324 25.858,45.912 22.663 C 46.424 19.885,43.813 17.456,41.050 18.141 M14.800 30.070 C 14.718 30.100,14.509 30.189,14.337 30.268 C 13.965 30.439,10.552 34.214,10.225 34.817 C 10.016 35.201,10.000 35.355,10.002 36.941 C 10.005 38.899,10.102 39.262,10.756 39.762 L 11.134 40.050 13.319 40.080 L 15.505 40.111 15.802 39.813 L 16.100 39.515 16.100 36.905 C 16.100 34.542,16.119 34.236,16.304 33.689 C 16.524 33.035,16.827 32.505,17.282 31.982 C 17.646 31.564,17.800 31.271,17.800 31.002 C 17.800 30.670,17.540 30.250,17.253 30.119 C 16.992 30.001,15.097 29.962,14.800 30.070 M24.657 30.158 C 24.440 30.237,24.175 30.380,24.068 30.476 C 23.609 30.884,20.354 34.988,20.179 35.379 C 20.004 35.771,19.990 36.017,20.019 38.246 L 20.050 40.683 20.354 41.117 C 20.522 41.355,20.859 41.663,21.104 41.800 L 21.550 42.050 30.000 42.050 L 38.450 42.050 38.927 41.769 C 39.190 41.615,39.527 41.304,39.677 41.077 L 39.950 40.665 39.982 38.287 C 40.011 36.081,39.998 35.875,39.812 35.453 C 39.636 35.056,36.282 30.968,35.720 30.465 C 35.228 30.026,35.003 30.009,29.900 30.011 C 25.931 30.014,24.979 30.040,24.657 30.158 M42.711 30.135 C 42.188 30.435,42.060 31.079,42.425 31.579 C 43.907 33.612,43.900 33.585,43.900 36.905 L 43.900 39.515 44.198 39.813 L 44.495 40.111 46.681 40.080 L 48.866 40.050 49.233 39.770 C 49.891 39.268,49.946 39.067,49.981 37.050 C 50.011 35.327,50.003 35.232,49.781 34.826 C 49.428 34.179,46.039 30.443,45.613 30.231 C 45.135 29.993,43.077 29.925,42.711 30.135 " fill="#2B2C30" stroke="none" fill-rule="evenodd"></path></svg>