<svg width="56" height="57" viewBox="0 0 56 57" fill="none" xmlns="http://www.w3.org/2000/svg"><path d="M26.632 0.132 C 24.040 0.627,21.913 2.221,20.807 4.500 L 20.595 4.935 19.467 5.322 C 11.953 7.896,5.945 13.901,3.315 21.467 C 1.812 25.790,1.473 30.648,2.366 35.082 C 2.572 36.107,2.573 36.128,2.398 36.286 C 1.616 36.992,0.702 38.536,0.315 39.807 C 0.087 40.555,0.059 40.795,0.057 42.000 C 0.055 43.022,0.095 43.502,0.222 43.960 C 1.034 46.889,3.175 49.008,6.129 49.806 C 7.049 50.055,9.125 50.034,10.025 49.768 L 10.670 49.577 11.305 50.111 C 14.466 52.772,18.593 54.760,22.727 55.613 C 26.126 56.315,29.874 56.315,33.273 55.613 C 37.407 54.760,41.534 52.772,44.695 50.111 L 45.330 49.577 45.975 49.768 C 46.875 50.034,48.951 50.055,49.871 49.806 C 51.936 49.248,53.612 48.047,54.725 46.326 C 56.572 43.472,56.372 39.701,54.232 37.014 C 53.984 36.702,53.697 36.371,53.595 36.279 C 53.411 36.113,53.411 36.103,53.581 35.339 C 54.221 32.468,54.286 28.781,53.754 25.637 C 52.166 16.268,45.489 8.390,36.539 5.324 L 35.419 4.940 35.107 4.338 C 34.061 2.322,32.212 0.850,30.007 0.277 C 29.046 0.028,27.519 -0.038,26.632 0.132 M21.093 12.040 C 21.486 12.752,22.707 14.071,23.423 14.557 C 26.260 16.481,29.768 16.481,32.573 14.555 C 33.511 13.912,34.750 12.495,35.087 11.682 C 35.154 11.519,35.250 11.387,35.301 11.387 C 35.491 11.387,37.695 12.496,38.514 13.004 C 42.483 15.465,45.498 19.281,46.978 23.716 C 47.985 26.735,48.247 30.359,47.684 33.483 L 47.579 34.067 47.239 34.067 C 46.730 34.068,45.442 34.401,44.772 34.705 C 41.842 36.033,40.018 38.835,40.023 42.000 C 40.025 43.089,40.192 44.036,40.533 44.880 L 40.759 45.439 39.956 46.045 C 37.809 47.664,35.364 48.807,32.620 49.473 C 26.932 50.853,20.714 49.567,16.044 46.045 L 15.241 45.439 15.459 44.899 C 15.799 44.057,15.972 43.074,15.973 41.979 C 15.974 38.825,14.152 36.030,11.228 34.705 C 10.558 34.401,9.270 34.068,8.761 34.067 L 8.421 34.067 8.316 33.483 C 7.875 31.038,7.941 28.177,8.497 25.620 C 9.612 20.487,12.932 15.827,17.486 13.004 C 18.429 12.419,20.526 11.377,20.673 11.420 C 20.725 11.435,20.914 11.714,21.093 12.040 " fill="#2B2C30" stroke="none" fill-rule="evenodd"></path></svg>