<svg width="40" height="40" viewBox="0 0 40 40" fill="none" xmlns="http://www.w3.org/2000/svg"><path d="M0.507 0.151 C -0.012 0.449,0.000 0.356,-0.000 3.989 C -0.000 7.552,-0.004 7.512,0.425 7.818 L 0.633 7.967 4.000 7.967 L 7.367 7.967 7.575 7.818 C 8.004 7.512,8.000 7.551,8.000 4.000 C 8.000 0.373,8.012 0.463,7.502 0.164 L 7.222 0.000 3.994 0.001 C 0.777 0.002,0.766 0.003,0.507 0.151 M16.553 0.139 C 16.353 0.238,16.234 0.358,16.137 0.560 C 16.005 0.832,16.000 0.952,16.000 4.000 C 16.000 7.052,16.005 7.167,16.137 7.442 C 16.237 7.648,16.352 7.763,16.558 7.863 C 16.833 7.995,16.948 8.000,20.000 8.000 C 23.052 8.000,23.167 7.995,23.442 7.863 C 23.648 7.763,23.763 7.648,23.863 7.442 C 23.995 7.167,24.000 7.052,24.000 4.000 C 24.000 0.948,23.995 0.833,23.863 0.558 C 23.763 0.352,23.648 0.237,23.442 0.137 C 23.167 0.005,23.052 0.000,19.996 0.000 C 16.928 0.000,16.825 0.004,16.553 0.139 M32.553 0.139 C 32.353 0.238,32.234 0.358,32.137 0.560 C 32.005 0.832,32.000 0.952,32.000 4.000 C 32.000 7.052,32.005 7.167,32.137 7.442 C 32.237 7.648,32.352 7.763,32.558 7.863 C 32.833 7.995,32.948 8.000,36.000 8.000 C 39.052 8.000,39.167 7.995,39.442 7.863 C 39.648 7.763,39.763 7.648,39.863 7.442 C 39.995 7.167,40.000 7.052,40.000 4.000 C 40.000 0.948,39.995 0.833,39.863 0.558 C 39.763 0.352,39.648 0.237,39.442 0.137 C 39.167 0.005,39.052 0.000,35.996 0.000 C 32.928 0.000,32.825 0.004,32.553 0.139 M0.553 16.139 C 0.353 16.238,0.234 16.358,0.137 16.560 C 0.005 16.832,0.000 16.952,-0.000 20.000 C -0.000 23.052,0.005 23.167,0.137 23.442 C 0.237 23.648,0.352 23.763,0.558 23.863 C 0.833 23.995,0.948 24.000,4.000 24.000 C 7.052 24.000,7.167 23.995,7.442 23.863 C 7.648 23.763,7.763 23.648,7.863 23.442 C 7.995 23.167,8.000 23.052,8.000 20.000 C 8.000 16.948,7.995 16.833,7.863 16.558 C 7.763 16.352,7.648 16.237,7.442 16.137 C 7.167 16.005,7.052 16.000,3.996 16.000 C 0.928 16.000,0.825 16.004,0.553 16.139 M16.553 16.139 C 16.353 16.238,16.234 16.358,16.137 16.560 C 16.005 16.832,16.000 16.952,16.000 20.000 C 16.000 23.052,16.005 23.167,16.137 23.442 C 16.237 23.648,16.352 23.763,16.558 23.863 C 16.833 23.995,16.948 24.000,20.000 24.000 C 23.052 24.000,23.167 23.995,23.442 23.863 C 23.648 23.763,23.763 23.648,23.863 23.442 C 23.995 23.167,24.000 23.052,24.000 20.000 C 24.000 16.948,23.995 16.833,23.863 16.558 C 23.763 16.352,23.648 16.237,23.442 16.137 C 23.167 16.005,23.052 16.000,19.996 16.000 C 16.928 16.000,16.825 16.004,16.553 16.139 M32.553 16.139 C 32.353 16.238,32.234 16.358,32.137 16.560 C 32.005 16.832,32.000 16.952,32.000 20.000 C 32.000 23.052,32.005 23.167,32.137 23.442 C 32.237 23.648,32.352 23.763,32.558 23.863 C 32.833 23.995,32.948 24.000,36.000 24.000 C 39.052 24.000,39.167 23.995,39.442 23.863 C 39.648 23.763,39.763 23.648,39.863 23.442 C 39.995 23.167,40.000 23.052,40.000 20.000 C 40.000 16.948,39.995 16.833,39.863 16.558 C 39.763 16.352,39.648 16.237,39.442 16.137 C 39.167 16.005,39.052 16.000,35.996 16.000 C 32.928 16.000,32.825 16.004,32.553 16.139 M0.553 32.139 C 0.353 32.238,0.234 32.358,0.137 32.560 C 0.005 32.832,0.000 32.952,-0.000 36.000 C -0.000 39.052,0.005 39.167,0.137 39.442 C 0.237 39.648,0.352 39.763,0.558 39.863 C 0.833 39.995,0.948 40.000,4.000 40.000 C 7.052 40.000,7.167 39.995,7.442 39.863 C 7.648 39.763,7.763 39.648,7.863 39.442 C 7.995 39.167,8.000 39.052,8.000 36.000 C 8.000 32.948,7.995 32.833,7.863 32.558 C 7.763 32.352,7.648 32.237,7.442 32.137 C 7.167 32.005,7.052 32.000,3.996 32.000 C 0.928 32.000,0.825 32.004,0.553 32.139 M16.553 32.139 C 16.353 32.238,16.234 32.358,16.137 32.560 C 16.005 32.832,16.000 32.952,16.000 36.000 C 16.000 39.052,16.005 39.167,16.137 39.442 C 16.237 39.648,16.352 39.763,16.558 39.863 C 16.833 39.995,16.948 40.000,20.000 40.000 C 23.052 40.000,23.167 39.995,23.442 39.863 C 23.648 39.763,23.763 39.648,23.863 39.442 C 23.995 39.167,24.000 39.052,24.000 36.000 C 24.000 32.948,23.995 32.833,23.863 32.558 C 23.763 32.352,23.648 32.237,23.442 32.137 C 23.167 32.005,23.052 32.000,19.996 32.000 C 16.928 32.000,16.825 32.004,16.553 32.139 M32.553 32.139 C 32.353 32.238,32.234 32.358,32.137 32.560 C 32.005 32.832,32.000 32.952,32.000 36.000 C 32.000 39.052,32.005 39.167,32.137 39.442 C 32.237 39.648,32.352 39.763,32.558 39.863 C 32.833 39.995,32.948 40.000,36.000 40.000 C 39.052 40.000,39.167 39.995,39.442 39.863 C 39.648 39.763,39.763 39.648,39.863 39.442 C 39.995 39.167,40.000 39.052,40.000 36.000 C 40.000 32.948,39.995 32.833,39.863 32.558 C 39.763 32.352,39.648 32.237,39.442 32.137 C 39.167 32.005,39.052 32.000,35.996 32.000 C 32.928 32.000,32.825 32.004,32.553 32.139 " fill="#2B2C30" stroke="none" fill-rule="evenodd"></path></svg>