<svg width="60" height="60" viewBox="0 0 60 60" fill="none" xmlns="http://www.w3.org/2000/svg"><path d="M27.550 0.110 C 19.501 0.769,11.886 4.763,6.821 10.982 C -0.333 19.767,-1.971 31.518,2.501 41.965 C 3.147 43.473,3.992 45.011,5.058 46.618 C 12.500 57.836,26.598 62.702,39.400 58.470 C 49.033 55.285,56.454 47.389,59.010 37.603 C 61.177 29.306,59.710 20.568,54.942 13.382 C 48.934 4.325,38.401 -0.778,27.550 0.110 M33.550 6.245 C 43.184 7.755,50.997 14.862,53.288 24.200 C 53.830 26.411,53.943 27.410,53.942 30.000 C 53.942 32.642,53.820 33.685,53.248 35.937 C 51.031 44.662,43.988 51.490,35.200 53.436 C 32.543 54.024,29.022 54.152,26.450 53.753 C 17.694 52.396,10.483 46.476,7.414 38.125 C 6.949 36.860,6.476 34.990,6.230 33.450 C 5.984 31.906,5.984 28.094,6.230 26.550 C 7.266 20.048,10.573 14.550,15.779 10.676 C 19.158 8.160,23.166 6.607,27.576 6.102 C 28.705 5.973,32.372 6.061,33.550 6.245 M27.478 10.174 C 27.329 10.266,27.160 10.456,27.102 10.596 C 27.030 10.769,27.005 14.105,27.023 21.075 L 27.050 31.300 32.357 36.607 C 37.425 41.675,37.684 41.917,38.090 41.971 L 38.515 42.028 40.272 40.272 L 42.028 38.515 41.971 38.090 C 41.917 37.686,41.698 37.449,37.457 33.207 L 33.000 28.749 33.000 19.779 C 33.000 13.543,32.967 10.737,32.891 10.571 C 32.653 10.048,32.409 10.000,29.985 10.003 C 28.067 10.005,27.711 10.029,27.478 10.174 " fill="#2B2C30" stroke="none" fill-rule="evenodd"></path></svg>