<svg width="60" height="60" viewBox="0 0 60 60" fill="none" xmlns="http://www.w3.org/2000/svg"><path d="M28.100 0.058 C 27.907 0.080,27.255 0.147,26.650 0.208 C 23.414 0.530,19.946 1.537,16.850 3.052 C 8.201 7.286,2.187 15.227,0.458 24.700 C 0.108 26.617,-0.073 28.982,0.098 29.395 C 0.330 29.956,0.544 30.000,3.055 30.000 L 5.320 30.000 5.648 29.672 C 5.950 29.370,5.980 29.280,6.042 28.497 C 6.435 23.525,7.974 19.376,10.841 15.560 C 14.042 11.297,18.852 8.067,23.881 6.803 C 29.694 5.342,35.383 5.924,40.600 8.513 C 42.780 9.595,44.401 10.700,46.259 12.372 L 46.950 12.993 45.339 14.622 C 44.453 15.517,43.654 16.361,43.564 16.497 C 43.299 16.897,43.357 17.277,43.740 17.660 L 44.080 18.000 49.645 18.000 C 55.683 18.000,55.629 18.005,55.881 17.453 C 55.969 17.260,56.000 15.733,56.000 11.653 L 56.000 6.115 55.744 5.811 C 55.397 5.399,54.914 5.312,54.479 5.585 C 54.298 5.698,53.498 6.445,52.701 7.245 C 51.905 8.045,51.218 8.700,51.176 8.700 C 51.134 8.700,50.706 8.334,50.225 7.886 C 45.790 3.756,40.018 1.081,33.750 0.250 C 32.612 0.099,28.851 -0.029,28.100 0.058 M27.511 12.140 C 26.989 12.429,27.007 12.084,27.004 21.880 C 27.001 29.615,27.022 31.051,27.143 31.280 C 27.222 31.428,29.822 34.081,32.920 37.175 C 38.265 42.511,38.573 42.800,38.912 42.800 C 39.398 42.800,39.785 42.498,41.369 40.880 C 42.699 39.521,42.880 39.240,42.755 38.725 C 42.710 38.541,41.084 36.844,37.845 33.600 L 33.003 28.750 32.977 20.667 L 32.950 12.584 32.623 12.292 L 32.297 12.000 30.023 12.004 C 28.329 12.006,27.689 12.041,27.511 12.140 M54.524 30.133 C 54.116 30.359,54.025 30.621,53.909 31.901 C 53.604 35.263,52.867 37.874,51.389 40.830 C 48.490 46.628,43.110 51.135,36.880 52.987 C 34.350 53.739,32.757 53.953,29.800 53.939 C 27.746 53.930,27.267 53.896,26.000 53.670 C 21.313 52.836,17.254 50.857,13.822 47.733 L 12.983 46.969 14.764 45.186 C 16.495 43.453,16.545 43.391,16.545 42.991 C 16.545 42.653,16.487 42.528,16.221 42.290 L 15.897 42.000 10.288 42.000 L 4.680 42.000 4.340 42.340 L 4.000 42.680 4.000 48.288 L 4.000 53.897 4.290 54.221 C 4.528 54.487,4.653 54.545,4.991 54.545 C 5.389 54.545,5.456 54.492,7.076 52.882 L 8.750 51.219 9.800 52.169 C 14.454 56.384,19.884 58.883,26.300 59.762 C 28.690 60.090,32.516 59.995,35.100 59.543 C 42.881 58.183,49.850 53.799,54.402 47.400 C 56.900 43.890,58.667 39.756,59.444 35.610 C 59.679 34.355,59.894 32.465,59.915 31.460 C 59.934 30.576,59.932 30.568,59.616 30.285 L 59.297 30.000 57.023 30.004 C 55.393 30.006,54.686 30.043,54.524 30.133 " fill="#2B2C30" stroke="none" fill-rule="evenodd"></path></svg>