<svg width="62" height="61" viewBox="0 0 62 61" fill="none" xmlns="http://www.w3.org/2000/svg"><path d="M27.493 0.110 C 21.676 0.628,16.310 2.715,11.658 6.268 C 10.205 7.378,7.824 9.716,6.625 11.212 C 3.233 15.442,1.115 20.293,0.309 25.678 C -0.002 27.759,-0.072 30.895,0.147 32.963 C 0.897 40.037,3.877 46.278,8.879 51.255 C 13.770 56.121,20.163 59.130,27.108 59.835 C 29.102 60.037,33.970 59.865,34.921 59.559 C 35.019 59.528,34.096 58.535,32.287 56.725 L 29.503 53.940 28.862 53.940 C 27.231 53.940,24.544 53.438,22.423 52.737 C 14.732 50.195,8.752 43.764,6.760 35.893 C 6.230 33.798,6.062 32.387,6.060 30.018 C 6.058 27.695,6.222 26.272,6.731 24.180 C 8.171 18.261,12.105 12.869,17.369 9.597 C 18.571 8.850,20.918 7.737,22.217 7.298 C 31.763 4.069,42.335 7.105,48.625 14.881 C 51.247 18.122,52.903 21.757,53.640 25.885 C 53.922 27.465,54.024 30.887,53.840 32.580 C 53.615 34.655,53.027 37.075,52.334 38.779 C 52.195 39.124,52.080 39.431,52.080 39.463 C 52.080 39.494,53.277 38.328,54.741 36.872 C 57.644 33.984,57.987 33.729,59.144 33.602 L 59.778 33.532 59.844 33.067 C 60.004 31.927,60.051 29.511,59.940 28.034 C 59.533 22.573,57.894 17.748,54.964 13.385 C 53.705 11.510,52.878 10.504,51.258 8.875 C 46.503 4.095,40.548 1.151,33.830 0.257 C 32.331 0.057,28.959 -0.021,27.493 0.110 M27.464 10.184 C 27.279 10.284,27.147 10.473,27.075 10.741 C 27.001 11.015,26.975 14.384,26.994 21.177 L 27.022 31.208 32.397 36.581 C 37.679 41.860,37.780 41.953,38.180 41.953 C 38.570 41.953,38.665 41.877,40.271 40.271 C 41.938 38.604,41.953 38.584,41.953 38.132 L 41.953 37.675 37.458 33.172 L 32.963 28.670 32.963 19.649 L 32.963 10.627 32.661 10.325 L 32.359 10.023 30.052 10.027 C 28.221 10.031,27.687 10.063,27.464 10.184 M50.609 46.680 L 42.056 55.230 37.484 50.660 C 32.611 45.790,32.606 45.785,31.970 46.121 C 31.503 46.367,30.181 47.763,30.091 48.105 C 29.895 48.848,29.551 48.461,36.482 55.288 C 41.501 60.230,41.679 60.394,42.061 60.394 C 42.446 60.394,42.683 60.167,52.047 50.840 C 57.322 45.586,61.719 41.169,61.818 41.026 C 62.192 40.486,62.083 40.239,60.987 39.143 C 60.048 38.205,59.944 38.130,59.567 38.130 C 59.167 38.130,59.042 38.249,50.609 46.680 " fill="#2B2C30" stroke="none" fill-rule="evenodd"></path></svg>