<svg width="52" height="60" viewBox="0 0 52 60" fill="none" xmlns="http://www.w3.org/2000/svg"><path d="M0.499 0.136 C 0.031 0.390,-0.000 0.566,0.000 2.990 C 0.000 6.027,-0.069 5.916,1.855 5.980 L 3.163 6.023 3.186 6.457 C 3.355 9.703,4.023 13.875,4.809 16.587 C 5.906 20.375,7.471 23.140,9.711 25.249 L 10.505 25.996 10.015 26.444 C 8.016 28.271,6.711 30.219,5.610 33.020 C 4.125 36.796,3.266 41.909,3.065 48.168 L 3.006 50.007 1.826 50.007 C -0.031 50.007,-0.000 49.955,-0.000 53.001 C -0.000 54.940,0.019 55.255,0.148 55.474 C 0.460 56.003,0.299 55.990,6.503 55.966 L 12.153 55.943 12.402 55.182 C 12.538 54.763,12.755 54.236,12.884 54.012 C 13.013 53.787,13.580 52.818,14.143 51.858 C 14.706 50.898,15.167 50.089,15.167 50.060 C 15.167 50.031,13.995 50.007,12.564 50.007 C 9.729 50.007,9.514 49.976,9.220 49.527 C 9.043 49.257,9.037 48.473,9.192 46.020 C 9.633 39.037,11.015 34.168,13.268 31.665 C 14.570 30.217,16.147 29.414,18.276 29.113 C 19.189 28.984,21.751 29.061,22.533 29.241 C 23.813 29.536,24.920 30.052,25.786 30.755 L 26.303 31.176 27.201 29.650 C 28.398 27.613,28.585 27.333,29.168 26.703 C 29.522 26.321,29.640 26.138,29.574 26.072 C 29.508 26.006,29.662 25.821,30.105 25.433 C 33.109 22.803,35.199 18.224,36.178 12.133 C 36.455 10.408,36.829 7.009,36.832 6.175 C 36.833 5.982,36.845 5.980,38.078 5.980 C 39.224 5.980,39.342 5.965,39.562 5.792 C 40.000 5.448,40.040 5.214,40.040 2.990 C 40.040 0.709,39.996 0.476,39.504 0.176 C 39.218 0.001,39.125 0.001,19.977 0.004 C 3.127 0.007,0.707 0.023,0.499 0.136 M30.160 6.132 C 30.565 6.334,30.780 6.771,30.723 7.280 C 30.700 7.494,30.619 8.236,30.545 8.927 C 29.813 15.710,27.943 20.009,24.936 21.822 C 24.257 22.232,22.979 22.665,21.937 22.839 C 20.609 23.061,18.400 22.983,17.204 22.672 C 14.770 22.038,13.005 20.538,11.746 18.036 C 10.649 15.854,9.781 12.301,9.390 8.390 C 9.245 6.938,9.244 6.840,9.386 6.544 C 9.667 5.955,9.050 5.987,19.977 5.984 C 29.213 5.980,29.876 5.990,30.160 6.132 M33.132 28.812 C 32.665 28.958,32.118 29.361,31.812 29.784 C 31.449 30.286,16.482 55.756,16.273 56.227 C 16.000 56.843,16.021 57.732,16.322 58.348 C 16.626 58.969,17.081 59.426,17.674 59.704 L 18.157 59.930 34.017 59.930 L 49.877 59.930 50.367 59.689 C 50.911 59.422,51.374 58.960,51.663 58.396 C 51.908 57.917,51.975 56.964,51.802 56.420 C 51.733 56.206,48.201 50.122,43.952 42.900 C 37.753 32.364,36.149 29.698,35.834 29.407 C 35.135 28.760,34.057 28.523,33.132 28.812 M35.967 41.992 L 35.967 48.017 33.995 47.993 L 32.023 47.970 32.001 41.968 L 31.979 35.967 33.973 35.967 L 35.967 35.967 35.967 41.992 M35.093 51.573 C 35.625 51.807,36.260 52.447,36.498 52.989 C 36.637 53.305,36.692 53.601,36.694 54.037 C 36.697 55.092,36.146 55.972,35.162 56.480 C 34.785 56.675,34.594 56.715,34.017 56.719 C 33.428 56.723,33.249 56.687,32.833 56.482 C 31.961 56.054,31.399 55.232,31.310 54.257 C 31.128 52.252,33.238 50.756,35.093 51.573 " fill="#2B2C30" stroke="none" fill-rule="evenodd"></path></svg>