<svg width="48" height="40" viewBox="0 0 48 40" fill="none" xmlns="http://www.w3.org/2000/svg"><path d="M3.240 0.083 C 1.841 0.371,0.743 1.325,0.212 2.712 L 0.040 3.160 0.040 20.000 L 0.040 36.840 0.212 37.288 C 0.663 38.468,1.531 39.338,2.700 39.784 L 3.160 39.960 24.000 39.960 L 44.840 39.960 45.288 39.788 C 46.468 39.337,47.338 38.469,47.784 37.300 L 47.960 36.840 47.960 20.000 L 47.960 3.160 47.784 2.700 C 47.338 1.531,46.468 0.663,45.288 0.212 L 44.840 0.040 24.200 0.028 C 12.848 0.022,3.416 0.046,3.240 0.083 M28.000 6.000 L 28.000 8.000 26.000 8.000 L 24.000 8.000 24.000 6.000 L 24.000 4.000 26.000 4.000 L 28.000 4.000 28.000 6.000 M36.000 6.000 L 36.000 8.000 34.000 8.000 L 32.000 8.000 32.000 6.000 L 32.000 4.000 34.000 4.000 L 36.000 4.000 36.000 6.000 M44.000 6.000 L 44.000 8.000 42.000 8.000 L 40.000 8.000 40.000 6.000 L 40.000 4.000 42.000 4.000 L 44.000 4.000 44.000 6.000 M42.000 23.000 L 42.000 34.000 24.000 34.000 L 6.000 34.000 6.000 23.000 L 6.000 12.000 24.000 12.000 L 42.000 12.000 42.000 23.000 M8.000 23.000 L 8.000 28.000 24.000 28.000 L 40.000 28.000 40.000 23.000 L 40.000 18.000 34.000 18.000 L 28.000 18.000 28.000 20.120 L 28.000 22.240 26.000 22.240 L 24.000 22.240 24.000 20.120 L 24.000 18.000 22.000 18.000 L 20.000 18.000 20.000 20.120 L 20.000 22.240 18.000 22.240 L 16.000 22.240 16.000 20.120 L 16.000 18.000 12.000 18.000 L 8.000 18.000 8.000 23.000 " fill="#2B2C30" stroke="none" fill-rule="evenodd"></path></svg>