<svg width="48" height="48" viewBox="0 0 48 48" fill="none" xmlns="http://www.w3.org/2000/svg"><path d="M14.504 0.157 C 14.039 0.440,14.000 0.615,14.000 2.396 L 14.000 4.000 7.396 4.000 C 0.107 4.000,0.480 3.974,0.157 4.504 C 0.012 4.742,0.001 4.919,0.001 7.000 C 0.001 10.121,-0.096 10.000,2.395 10.000 L 3.998 10.000 4.019 27.420 L 4.040 44.840 4.212 45.288 C 4.663 46.468,5.531 47.338,6.700 47.784 L 7.160 47.960 24.000 47.960 L 40.840 47.960 41.300 47.784 C 42.469 47.338,43.337 46.468,43.788 45.288 L 43.960 44.840 43.981 27.420 L 44.002 10.000 45.621 10.000 C 48.093 9.999,48.000 10.117,48.000 7.000 C 48.000 4.558,47.981 4.453,47.496 4.157 C 47.248 4.005,47.045 4.001,40.620 4.000 L 34.000 4.000 34.000 2.380 C 33.999 0.914,33.985 0.736,33.843 0.504 C 33.516 -0.033,34.169 -0.000,23.984 0.000 C 14.977 0.001,14.754 0.004,14.504 0.157 M37.920 26.000 L 37.920 42.000 23.960 42.000 L 10.000 42.000 10.000 26.000 L 10.000 10.000 23.960 10.000 L 37.920 10.000 37.920 26.000 M14.504 14.157 C 13.965 14.486,14.000 13.726,14.000 25.016 C 14.001 35.015,14.004 35.246,14.157 35.496 C 14.427 35.939,14.650 36.000,16.000 36.000 C 17.350 36.000,17.573 35.939,17.843 35.496 C 17.996 35.246,17.999 35.015,17.999 25.000 C 17.999 14.985,17.996 14.754,17.843 14.504 C 17.572 14.060,17.352 14.000,15.984 14.000 C 14.911 14.001,14.728 14.020,14.504 14.157 M22.504 14.157 C 21.965 14.486,22.000 13.726,22.000 25.016 C 22.001 35.015,22.004 35.246,22.157 35.496 C 22.427 35.939,22.650 36.000,24.000 36.000 C 25.350 36.000,25.573 35.939,25.843 35.496 C 25.996 35.246,25.999 35.015,25.999 25.000 C 25.999 14.985,25.996 14.754,25.843 14.504 C 25.572 14.060,25.352 14.000,23.984 14.000 C 22.911 14.001,22.728 14.020,22.504 14.157 M30.504 14.157 C 29.965 14.486,30.000 13.726,30.000 25.016 C 30.001 35.015,30.004 35.246,30.157 35.496 C 30.427 35.939,30.650 36.000,32.000 36.000 C 33.350 36.000,33.573 35.939,33.843 35.496 C 33.996 35.246,33.999 35.015,33.999 25.000 C 33.999 14.985,33.996 14.754,33.843 14.504 C 33.572 14.060,33.352 14.000,31.984 14.000 C 30.911 14.001,30.728 14.020,30.504 14.157 " fill="#2B2C30" stroke="none" fill-rule="evenodd"></path></svg>