<svg width="61" height="53" viewBox="0 0 61 53" fill="none" xmlns="http://www.w3.org/2000/svg"><path d="M29.827 0.135 C 29.652 0.200,29.369 0.369,29.198 0.508 C 28.996 0.674,23.894 9.188,14.585 24.896 C 6.720 38.169,0.220 49.182,0.142 49.369 C -0.259 50.329,0.241 51.477,1.244 51.896 C 1.580 52.037,4.663 52.053,30.500 52.053 C 56.337 52.053,59.420 52.037,59.756 51.896 C 60.259 51.686,60.581 51.376,60.808 50.884 C 61.059 50.341,61.046 49.765,60.770 49.190 C 60.249 48.103,32.150 0.856,31.848 0.560 C 31.328 0.048,30.514 -0.123,29.827 0.135 M41.266 28.009 L 51.935 46.004 41.218 46.030 C 35.323 46.044,25.677 46.044,19.782 46.030 L 9.064 46.004 19.749 27.981 C 25.627 18.069,30.472 9.971,30.516 9.986 C 30.561 10.002,35.398 18.112,41.266 28.009 " fill="#2B2C30" stroke="none" fill-rule="evenodd"></path></svg>