<svg width="60" height="58" viewBox="0 0 60 58" fill="none" xmlns="http://www.w3.org/2000/svg"><path d="M38.000 9.708 L 38.000 19.415 38.292 19.708 L 38.585 20.000 40.946 20.000 C 43.430 20.000,43.647 19.964,43.867 19.519 C 43.912 19.426,43.973 16.928,44.000 13.967 L 44.050 8.585 44.748 9.113 C 45.781 9.895,47.721 11.811,48.632 12.950 C 49.481 14.012,50.408 15.376,51.100 16.586 C 51.906 17.993,52.693 18.523,54.063 18.584 C 54.994 18.625,55.499 18.458,56.134 17.901 C 56.745 17.364,57.025 16.787,57.074 15.964 C 57.114 15.280,57.097 15.211,56.661 14.324 C 55.477 11.916,53.626 9.346,51.512 7.175 L 50.367 6.000 53.788 6.000 C 57.500 6.000,57.640 5.981,57.881 5.453 C 57.962 5.274,58.000 4.471,58.000 2.935 L 58.000 0.680 57.660 0.340 L 57.320 0.000 47.660 0.000 L 38.000 0.000 38.000 9.708 M16.700 1.079 C 15.029 1.757,10.925 4.549,10.372 5.385 C 9.888 6.116,9.788 6.887,10.059 7.799 C 10.180 8.206,10.353 8.469,10.785 8.901 C 11.518 9.634,12.095 9.843,13.207 9.779 C 14.130 9.726,14.541 9.540,15.799 8.606 C 16.265 8.261,17.187 7.662,17.848 7.275 C 18.509 6.888,19.243 6.386,19.480 6.161 C 21.413 4.313,20.380 1.078,17.810 0.934 C 17.333 0.907,17.025 0.948,16.700 1.079 M3.075 16.843 C 2.571 17.022,2.045 17.436,1.751 17.883 C 1.185 18.744,0.263 22.555,0.048 24.916 C -0.071 26.227,0.401 27.140,1.514 27.750 C 1.979 28.005,2.156 28.044,2.850 28.047 C 3.798 28.051,4.399 27.806,5.053 27.153 C 5.659 26.547,5.885 25.979,6.160 24.378 C 6.295 23.593,6.566 22.343,6.763 21.600 C 7.182 20.023,7.180 19.320,6.752 18.446 C 6.073 17.057,4.453 16.351,3.075 16.843 M55.923 28.262 C 55.333 28.478,54.494 29.274,54.180 29.916 C 54.015 30.254,53.857 30.854,53.750 31.550 C 53.657 32.155,53.401 33.348,53.183 34.200 C 52.846 35.511,52.792 35.859,52.833 36.457 C 52.917 37.681,53.492 38.581,54.517 39.093 C 55.031 39.350,55.248 39.400,55.841 39.399 C 57.276 39.397,58.091 38.722,58.610 37.105 C 59.233 35.160,59.814 32.169,59.825 30.850 C 59.834 29.738,59.326 28.917,58.300 28.385 C 57.729 28.089,56.562 28.028,55.923 28.262 M4.919 37.556 C 3.444 37.953,2.462 39.448,2.798 40.784 C 3.128 42.096,5.935 46.508,7.047 47.466 C 8.093 48.365,9.753 48.247,10.800 47.200 C 11.442 46.558,11.650 46.017,11.645 45.000 C 11.641 43.966,11.489 43.589,10.574 42.335 C 9.908 41.423,9.426 40.671,8.718 39.441 C 8.494 39.051,8.122 38.562,7.892 38.355 C 7.056 37.599,5.906 37.290,4.919 37.556 M45.999 46.388 C 45.534 46.540,45.054 46.822,44.100 47.502 C 43.578 47.875,42.768 48.408,42.300 48.686 C 40.544 49.732,40.364 49.862,39.997 50.350 C 39.017 51.652,39.063 53.196,40.116 54.348 C 40.749 55.041,41.473 55.344,42.320 55.270 C 43.251 55.188,45.735 53.796,48.023 52.074 C 49.323 51.096,49.649 50.734,49.858 50.039 C 50.052 49.394,50.036 48.904,49.799 48.271 C 49.538 47.571,49.051 47.014,48.387 46.653 C 47.945 46.412,47.714 46.357,47.051 46.334 C 46.611 46.318,46.137 46.343,45.999 46.388 M20.938 50.995 C 19.243 51.400,18.173 53.124,18.634 54.708 C 18.844 55.430,19.285 56.006,19.870 56.323 C 21.195 57.043,26.450 58.142,27.626 57.947 C 28.204 57.850,28.681 57.590,29.114 57.133 C 29.655 56.563,29.828 56.147,29.879 55.289 C 29.919 54.618,29.892 54.456,29.648 53.915 C 29.345 53.239,28.772 52.643,28.093 52.296 C 27.844 52.169,27.078 51.977,26.258 51.837 C 25.483 51.704,24.254 51.439,23.524 51.248 C 22.231 50.908,21.571 50.844,20.938 50.995 " fill="#2B2C30" stroke="none" fill-rule="evenodd"></path></svg>