<svg width="40" height="47" viewBox="0 0 40 47" fill="none" xmlns="http://www.w3.org/2000/svg"><path d="M22.667 0.074 C 22.467 0.152,13.300 9.289,13.162 9.547 C 13.040 9.777,13.040 10.222,13.162 10.453 C 13.214 10.552,15.352 12.724,17.912 15.279 C 21.985 19.343,22.597 19.929,22.811 19.968 C 23.144 20.029,23.429 19.956,23.677 19.747 C 24.067 19.419,24.067 19.424,24.067 16.069 L 24.067 13.000 29.033 13.000 L 34.000 13.000 34.000 27.000 L 34.000 41.000 20.000 41.000 L 6.000 41.000 6.000 27.000 L 6.000 13.000 6.579 13.000 C 7.296 13.000,7.638 12.859,7.854 12.474 C 7.996 12.222,8.000 12.154,8.000 10.001 C 8.000 7.552,7.989 7.477,7.575 7.182 C 7.373 7.038,7.308 7.033,5.500 7.014 C 3.973 6.997,3.546 7.013,3.150 7.102 C 2.388 7.271,1.778 7.612,1.192 8.195 C 0.616 8.768,0.328 9.271,0.129 10.051 C 0.003 10.542,0.000 10.966,0.000 27.000 C 0.000 43.159,0.002 43.454,0.132 43.960 C 0.326 44.718,0.619 45.225,1.202 45.807 C 1.787 46.392,2.418 46.743,3.167 46.900 C 3.870 47.047,36.130 47.047,36.833 46.900 C 37.585 46.742,38.220 46.388,38.799 45.806 C 39.378 45.223,39.678 44.705,39.868 43.960 C 39.998 43.454,40.000 43.159,40.000 27.000 C 40.000 10.841,39.998 10.546,39.868 10.040 C 39.676 9.287,39.380 8.775,38.802 8.198 C 38.225 7.620,37.713 7.324,36.960 7.132 C 36.466 7.005,36.202 7.000,30.267 7.000 L 24.088 7.000 24.044 4.989 C 24.020 3.883,24.000 2.463,24.000 1.832 C 24.000 0.753,23.991 0.674,23.850 0.467 C 23.581 0.072,23.089 -0.091,22.667 0.074 " fill="#2B2C30" stroke="none" fill-rule="evenodd"></path></svg>