<svg width="60" height="60" viewBox="0 0 60 60" fill="none" xmlns="http://www.w3.org/2000/svg"><path d="M27.400 0.110 C 25.122 0.307,22.584 0.833,20.386 1.563 C 18.197 2.291,18.192 2.306,19.356 5.044 C 20.264 7.180,20.540 7.600,21.038 7.600 C 21.160 7.600,21.710 7.449,22.259 7.264 C 24.111 6.640,26.275 6.213,28.438 6.044 C 29.216 5.983,29.364 5.940,29.638 5.695 L 29.950 5.417 29.980 3.142 C 30.014 0.657,29.971 0.393,29.491 0.145 C 29.187 -0.012,28.864 -0.017,27.400 0.110 M41.111 2.675 C 40.827 2.910,39.299 6.728,39.302 7.196 C 39.303 7.391,39.382 7.645,39.477 7.760 C 39.572 7.876,40.235 8.273,40.950 8.642 C 42.584 9.486,44.151 10.528,45.494 11.666 C 46.454 12.479,46.572 12.550,46.968 12.550 C 47.390 12.550,47.426 12.521,49.049 10.901 C 51.134 8.819,51.166 8.718,50.070 7.708 C 48.251 6.031,45.575 4.220,43.178 3.043 C 41.982 2.457,41.482 2.368,41.111 2.675 M8.318 9.336 C 7.795 9.626,5.698 12.281,4.555 14.100 C 3.561 15.681,2.500 17.818,2.500 18.238 C 2.500 18.844,2.776 19.032,4.946 19.901 C 6.043 20.340,7.043 20.700,7.166 20.700 C 7.694 20.700,7.883 20.493,8.569 19.160 C 9.402 17.541,10.511 15.868,11.636 14.533 C 12.519 13.484,12.669 13.190,12.555 12.734 C 12.484 12.450,10.125 9.975,9.460 9.487 C 9.040 9.178,8.687 9.131,8.318 9.336 M55.800 18.985 C 53.133 20.097,52.698 20.314,52.546 20.608 C 52.345 20.997,52.361 21.218,52.651 22.022 C 53.276 23.754,53.809 26.349,53.959 28.389 C 54.020 29.224,54.059 29.363,54.306 29.639 L 54.584 29.950 56.981 29.950 C 60.127 29.950,60.066 29.996,59.894 27.773 C 59.705 25.330,59.253 23.008,58.531 20.761 C 57.989 19.074,57.856 18.813,57.455 18.646 C 57.263 18.566,57.071 18.501,57.028 18.503 C 56.985 18.504,56.433 18.721,55.800 18.985 M0.489 30.150 C 0.030 30.399,-0.026 30.709,0.100 32.311 C 0.828 41.569,5.744 49.930,13.432 54.985 C 17.430 57.614,21.409 59.092,26.300 59.763 C 28.667 60.088,32.515 59.992,35.100 59.544 C 41.085 58.507,46.667 55.650,50.975 51.420 L 52.000 50.414 52.000 53.867 L 52.000 57.320 52.340 57.660 L 52.680 58.000 55.000 58.000 L 57.320 58.000 57.660 57.660 L 58.000 57.320 58.000 47.660 L 58.000 38.000 48.405 38.000 C 41.178 38.000,38.745 38.029,38.547 38.119 C 38.046 38.348,38.000 38.593,38.000 41.055 L 38.000 43.320 38.340 43.660 L 38.680 44.000 44.096 44.000 L 49.512 44.000 49.068 44.575 C 45.217 49.571,39.714 52.801,33.400 53.772 C 31.802 54.017,28.209 54.015,26.600 53.767 C 20.691 52.858,15.589 50.046,11.759 45.589 C 8.454 41.744,6.400 36.768,6.047 31.750 C 5.971 30.678,5.825 30.289,5.429 30.109 C 5.049 29.935,0.818 29.971,0.489 30.150 " fill="#2B2C30" stroke="none" fill-rule="evenodd"></path></svg>