<svg width="56" height="50" viewBox="0 0 56 50" fill="none" xmlns="http://www.w3.org/2000/svg"><path d="M12.133 0.134 C 6.135 1.003,1.599 5.255,0.261 11.262 C 0.070 12.122,0.055 12.464,0.022 16.661 C -0.001 19.627,0.020 21.228,0.085 21.397 C 0.138 21.538,0.320 21.738,0.488 21.842 C 0.776 22.021,0.923 22.030,3.101 22.006 L 5.409 21.980 5.668 21.721 L 5.927 21.463 5.979 17.195 C 6.038 12.323,6.056 12.176,6.807 10.593 C 7.843 8.406,9.716 6.865,12.087 6.247 C 13.129 5.976,14.869 5.976,15.913 6.247 C 18.224 6.847,20.142 8.404,21.154 10.500 C 21.955 12.160,21.961 12.213,22.004 17.422 L 22.042 22.010 20.564 22.046 C 19.302 22.077,19.008 22.114,18.550 22.295 C 17.502 22.709,16.631 23.603,16.220 24.687 L 16.008 25.247 15.981 35.690 C 15.964 42.571,15.988 46.310,16.051 46.653 C 16.284 47.909,17.147 49.073,18.247 49.612 L 18.807 49.887 35.980 49.887 L 53.153 49.887 53.687 49.637 C 54.316 49.342,55.080 48.657,55.412 48.090 C 55.542 47.868,55.727 47.432,55.824 47.122 C 55.992 46.582,56.000 46.080,55.999 36.042 C 55.998 27.560,55.974 25.436,55.873 25.060 C 55.552 23.860,54.802 22.959,53.667 22.411 L 52.967 22.073 40.489 22.048 L 28.012 22.023 27.978 17.102 C 27.940 11.664,27.926 11.514,27.257 9.517 C 25.655 4.735,21.436 1.115,16.428 0.225 C 15.289 0.023,13.206 -0.021,12.133 0.134 M50.027 36.027 L 50.027 44.053 36.027 44.053 L 22.027 44.053 22.027 36.027 L 22.027 28.000 36.027 28.000 L 50.027 28.000 50.027 36.027 " fill="#2B2C30" stroke="none" fill-rule="evenodd"></path></svg>