<svg width="52" height="52" viewBox="0 0 52 52" fill="none" xmlns="http://www.w3.org/2000/svg"><path d="M24.353 0.056 C 22.674 0.215,21.964 0.310,20.887 0.522 C 14.867 1.707,9.462 5.020,5.550 9.923 C 4.033 11.824,2.359 14.843,1.515 17.201 C 0.756 19.318,0.271 21.568,0.074 23.887 C -0.045 25.282,0.011 25.557,0.470 25.837 C 0.713 25.985,0.938 25.999,2.973 26.000 C 5.435 26.000,5.596 25.971,5.851 25.479 C 5.924 25.336,6.024 24.801,6.071 24.288 C 6.314 21.689,6.886 19.607,7.981 17.333 C 10.901 11.275,16.451 7.230,23.270 6.193 C 24.690 5.977,27.333 5.994,28.909 6.230 C 32.878 6.824,36.500 8.547,39.476 11.256 C 39.810 11.561,40.098 11.848,40.115 11.894 C 40.133 11.941,39.109 13.019,37.840 14.291 C 35.568 16.570,35.533 16.609,35.533 16.962 C 35.533 17.412,35.846 17.812,36.297 17.937 C 36.734 18.058,48.806 18.058,49.243 17.937 C 49.418 17.888,49.662 17.729,49.784 17.584 L 50.007 17.320 50.007 10.759 C 50.007 4.720,49.995 4.182,49.859 3.984 C 49.551 3.537,49.126 3.395,48.680 3.589 C 48.528 3.655,47.526 4.591,46.454 5.668 C 45.382 6.745,44.470 7.627,44.427 7.627 C 44.384 7.627,44.032 7.324,43.646 6.953 C 40.066 3.522,34.950 1.051,29.888 0.308 C 28.102 0.046,25.646 -0.066,24.353 0.056 M31.937 19.426 C 31.841 19.478,29.980 21.299,27.799 23.474 L 23.836 27.427 21.949 25.553 C 20.912 24.523,19.972 23.652,19.861 23.618 C 19.395 23.477,19.127 23.633,18.179 24.595 C 17.247 25.540,17.092 25.800,17.200 26.238 C 17.285 26.586,23.178 32.478,23.541 32.579 C 23.690 32.620,23.924 32.634,24.061 32.610 C 24.249 32.577,25.577 31.302,29.447 27.441 C 34.920 21.982,34.883 22.025,34.663 21.437 C 34.557 21.151,33.090 19.634,32.743 19.450 C 32.466 19.304,32.177 19.296,31.937 19.426 M46.450 26.194 C 46.110 26.423,45.946 26.806,45.938 27.387 C 45.929 28.052,45.611 29.981,45.334 31.048 C 43.883 36.643,40.013 41.378,34.797 43.942 C 32.894 44.877,30.940 45.485,28.773 45.817 C 27.389 46.029,24.607 46.027,23.183 45.812 C 19.127 45.201,15.488 43.483,12.510 40.772 L 11.771 40.100 14.023 37.838 C 15.262 36.594,16.318 35.491,16.371 35.387 C 16.604 34.926,16.374 34.294,15.900 34.097 C 15.462 33.913,2.998 33.913,2.560 34.097 C 1.969 34.343,1.993 34.036,1.993 41.236 L 1.993 47.728 2.191 48.022 C 2.413 48.353,2.850 48.511,3.260 48.410 C 3.427 48.368,4.172 47.689,5.516 46.350 L 7.522 44.353 8.462 45.196 C 12.589 48.892,17.238 51.033,22.793 51.796 C 24.289 52.002,27.613 52.002,29.149 51.798 C 32.354 51.371,34.977 50.560,37.808 49.121 C 43.789 46.081,48.438 40.712,50.581 34.372 C 51.375 32.021,51.913 29.176,51.913 27.326 C 51.913 26.657,51.897 26.591,51.661 26.326 L 51.408 26.043 49.079 26.018 C 46.764 25.992,46.749 25.993,46.450 26.194 " fill="#2B2C30" stroke="none" fill-rule="evenodd"></path></svg>