<svg width="56" height="52" viewBox="0 0 56 52" fill="none" xmlns="http://www.w3.org/2000/svg"><path d="M27.487 0.178 C 27.333 0.276,24.729 2.607,21.700 5.360 C 17.799 8.905,16.157 10.454,16.069 10.674 C 15.964 10.938,15.967 11.035,16.085 11.318 C 16.373 12.008,16.253 11.990,20.879 12.020 L 25.013 12.047 25.013 23.611 C 25.013 30.734,25.048 35.265,25.103 35.409 C 25.152 35.538,25.307 35.719,25.448 35.812 C 25.678 35.962,25.946 35.980,28.000 35.980 C 30.054 35.980,30.322 35.962,30.552 35.812 C 30.693 35.719,30.848 35.538,30.897 35.409 C 30.952 35.265,30.987 30.734,30.987 23.611 L 30.987 12.047 35.121 12.020 C 38.941 11.995,39.275 11.980,39.515 11.823 C 39.882 11.582,40.077 11.082,39.951 10.702 C 39.879 10.484,38.385 9.074,34.246 5.320 C 31.162 2.522,28.547 0.182,28.436 0.120 C 28.142 -0.045,27.806 -0.024,27.487 0.178 M3.057 28.101 C 1.684 28.425,0.517 29.601,0.143 31.037 C -0.073 31.868,-0.072 48.125,0.145 48.957 C 0.406 49.958,0.993 50.760,1.894 51.343 C 2.965 52.037,0.936 51.987,28.000 51.987 C 55.064 51.987,53.035 52.037,54.106 51.343 C 55.007 50.760,55.594 49.958,55.855 48.957 C 56.072 48.125,56.073 31.868,55.857 31.037 C 55.544 29.837,54.818 28.957,53.672 28.390 L 52.977 28.047 44.900 28.021 C 38.903 28.002,36.756 28.023,36.561 28.104 C 36.064 28.310,36.027 28.517,36.027 31.038 L 36.027 33.339 36.344 33.656 L 36.661 33.973 43.345 33.973 L 50.028 33.973 50.004 39.970 L 49.980 45.967 28.000 45.967 L 6.020 45.967 5.996 39.970 L 5.972 33.973 12.655 33.973 L 19.339 33.973 19.656 33.656 L 19.973 33.339 19.973 31.038 C 19.973 28.539,19.936 28.327,19.463 28.112 C 19.168 27.977,3.625 27.967,3.057 28.101 " fill="#2B2C30" stroke="none" fill-rule="evenodd"></path></svg>