<svg width="57" height="57" viewBox="0 0 57 57" fill="none" xmlns="http://www.w3.org/2000/svg"><path d="M26.600 0.060 C 18.234 0.684,10.724 4.757,5.720 11.385 C 2.833 15.208,1.052 19.520,0.259 24.604 C -0.031 26.466,-0.031 30.534,0.259 32.396 C 1.478 40.216,5.255 46.627,11.383 51.276 C 15.167 54.147,19.528 55.950,24.604 56.741 C 26.466 57.031,30.534 57.031,32.396 56.741 C 39.322 55.661,45.209 52.539,49.627 47.602 C 53.544 43.226,55.807 38.388,56.741 32.396 C 57.031 30.534,57.031 26.466,56.741 24.604 C 55.950 19.528,54.147 15.167,51.276 11.383 C 46.564 5.172,39.828 1.264,32.063 0.236 C 30.950 0.089,27.644 -0.018,26.600 0.060 M31.635 6.327 C 34.277 6.713,36.341 7.369,38.712 8.578 C 44.095 11.320,48.156 16.177,49.928 21.992 C 50.593 24.174,50.859 26.035,50.859 28.500 C 50.859 30.329,50.759 31.406,50.437 33.013 C 49.465 37.869,46.671 42.540,42.850 45.695 C 39.527 48.440,35.975 50.024,31.635 50.696 C 30.123 50.930,26.886 50.931,25.365 50.698 C 18.893 49.704,13.466 46.284,9.890 40.945 C 7.990 38.108,6.866 35.169,6.310 31.588 C 6.086 30.143,6.086 26.857,6.310 25.413 C 6.933 21.397,8.266 18.175,10.595 15.058 C 14.483 9.852,20.489 6.602,27.075 6.138 C 28.027 6.071,30.622 6.179,31.635 6.327 M27.014 14.438 C 24.822 15.013,23.142 16.762,22.648 18.983 C 22.425 19.983,22.500 21.381,22.826 22.307 C 23.880 25.306,27.226 27.050,30.220 26.161 C 34.180 24.985,35.889 20.353,33.615 16.954 C 32.178 14.805,29.503 13.786,27.014 14.438 M22.848 28.511 C 22.639 28.561,22.318 28.706,22.135 28.832 C 21.647 29.171,16.775 34.199,16.591 34.553 C 16.458 34.812,16.435 35.227,16.435 37.433 L 16.435 40.010 16.713 40.287 L 16.990 40.565 28.574 40.565 L 40.157 40.565 40.405 40.336 C 40.541 40.209,40.678 40.003,40.710 39.877 C 40.741 39.752,40.754 38.562,40.737 37.233 C 40.709 34.963,40.695 34.795,40.501 34.438 C 40.247 33.970,35.135 28.874,34.675 28.629 C 34.363 28.463,34.003 28.452,28.785 28.436 C 25.508 28.427,23.072 28.457,22.848 28.511 " fill="#2B2C30" stroke="none" fill-rule="evenodd"></path></svg>