<svg width="48" height="52" viewBox="0 0 48 52" fill="none" xmlns="http://www.w3.org/2000/svg"><path d="M22.400 0.115 C 20.966 0.323,19.866 0.664,18.640 1.280 C 15.316 2.951,13.054 5.903,12.222 9.659 C 11.971 10.791,11.971 13.209,12.222 14.341 C 13.303 19.217,16.786 22.701,21.653 23.774 C 22.794 24.026,25.206 24.026,26.347 23.774 C 31.211 22.702,34.702 19.211,35.774 14.347 C 36.026 13.206,36.026 10.794,35.774 9.653 C 34.682 4.701,30.949 1.058,26.081 0.193 C 25.105 0.020,23.319 -0.018,22.400 0.115 M25.513 6.194 C 26.185 6.378,27.190 6.894,27.746 7.342 C 29.108 8.437,30.000 10.280,30.000 12.000 C 30.000 14.340,28.451 16.658,26.302 17.533 C 23.285 18.760,19.978 17.468,18.596 14.520 C 18.144 13.557,18.042 13.092,18.042 12.000 C 18.042 10.908,18.144 10.443,18.596 9.480 C 19.433 7.695,21.074 6.430,23.006 6.079 C 23.540 5.982,24.982 6.048,25.513 6.194 M13.140 28.088 C 12.565 28.185,11.872 28.478,11.301 28.866 C 10.801 29.205,1.460 38.822,0.854 39.620 C 0.679 39.851,0.425 40.274,0.288 40.560 L 0.040 41.080 0.017 46.139 C -0.008 51.735,-0.026 51.520,0.504 51.843 C 0.756 51.997,1.091 51.999,24.000 51.999 C 46.909 51.999,47.244 51.997,47.496 51.843 C 48.017 51.526,48.000 51.713,48.000 46.332 C 48.000 41.695,47.992 41.432,47.841 40.943 C 47.605 40.177,47.171 39.576,45.911 38.264 C 36.542 28.517,36.733 28.700,35.480 28.263 L 34.840 28.040 24.200 28.028 C 18.332 28.022,13.372 28.049,13.140 28.088 M37.739 38.422 L 41.997 42.840 41.999 44.420 L 42.000 46.000 24.000 46.000 L 6.000 46.000 6.000 44.420 L 6.000 42.840 10.257 38.420 L 14.515 34.000 23.997 34.002 L 33.480 34.004 37.739 38.422 " fill="#2B2C30" stroke="none" fill-rule="evenodd"></path></svg>