<svg width="52" height="56" viewBox="0 0 52 56" fill="none" xmlns="http://www.w3.org/2000/svg"><path d="M22.548 0.090 C 17.938 0.671,14.085 3.835,12.615 8.247 C 12.187 9.535,12.021 10.576,12.020 12.003 C 12.013 17.458,15.705 22.234,20.988 23.607 C 27.088 25.192,33.404 21.745,35.392 15.747 C 35.838 14.402,35.924 13.783,35.921 11.917 C 35.919 10.027,35.809 9.348,35.267 7.872 C 33.827 3.949,30.360 1.008,26.244 0.217 C 25.366 0.048,23.413 -0.019,22.548 0.090 M25.523 6.209 C 28.228 6.882,30.135 9.519,29.962 12.347 C 29.799 15.022,27.959 17.197,25.300 17.859 C 24.648 18.022,23.226 18.000,22.533 17.817 C 19.873 17.115,18.030 14.735,18.030 12.003 C 18.030 11.017,18.222 10.220,18.687 9.277 C 19.543 7.543,21.252 6.331,23.220 6.061 C 23.834 5.977,24.853 6.042,25.523 6.209 M13.260 28.053 C 12.360 28.204,11.339 28.736,10.601 29.439 C 10.309 29.716,8.440 31.640,6.447 33.713 C 4.454 35.787,2.392 37.932,1.864 38.481 C 1.336 39.030,0.763 39.712,0.591 39.998 C -0.007 40.987,-0.000 40.911,-0.000 46.304 C -0.000 50.538,0.017 51.187,0.137 51.439 C 0.421 52.037,-0.350 52.000,11.908 52.000 C 17.990 52.000,22.967 51.981,22.967 51.958 C 22.967 51.935,22.804 51.652,22.606 51.330 C 21.805 50.030,20.921 47.917,20.539 46.388 L 20.447 46.020 13.213 46.020 L 5.980 46.020 5.980 44.434 L 5.980 42.848 10.248 38.414 L 14.517 33.979 18.208 33.976 L 21.899 33.973 22.006 33.735 C 22.584 32.445,23.913 30.665,25.402 29.185 L 26.601 27.993 20.039 28.005 C 16.430 28.012,13.379 28.033,13.260 28.053 M36.487 28.089 C 34.258 28.342,32.121 29.109,30.333 30.299 C 29.519 30.841,28.253 31.866,28.253 31.983 C 28.253 32.120,29.489 33.125,30.347 33.687 C 31.838 34.664,33.436 35.323,35.273 35.719 C 36.055 35.887,36.440 35.915,38.003 35.915 C 39.567 35.915,39.951 35.887,40.733 35.719 C 43.081 35.213,45.118 34.240,46.933 32.757 C 47.888 31.977,47.872 32.024,47.331 31.557 C 44.267 28.909,40.338 27.653,36.487 28.089 M25.403 35.914 C 24.536 37.688,24.008 39.989,24.008 41.990 C 24.008 43.993,24.536 46.292,25.405 48.070 L 25.760 48.797 26.118 48.469 C 27.661 47.055,30.079 45.665,32.257 44.939 C 38.239 42.945,44.882 44.204,49.594 48.225 L 50.244 48.779 50.643 47.941 C 51.144 46.890,51.506 45.779,51.756 44.525 C 52.033 43.132,52.033 40.848,51.756 39.455 C 51.506 38.201,51.144 37.090,50.643 36.039 L 50.244 35.201 49.584 35.766 C 47.134 37.862,43.774 39.356,40.461 39.822 C 39.305 39.985,36.966 40.008,35.837 39.869 C 32.359 39.439,28.788 37.860,26.257 35.632 L 25.756 35.191 25.403 35.914 M36.227 48.101 C 34.094 48.394,32.084 49.148,30.286 50.331 C 29.463 50.872,28.253 51.866,28.253 52.000 C 28.253 52.116,29.587 53.213,30.333 53.711 C 34.810 56.698,41.024 56.723,45.565 53.772 C 46.482 53.175,47.772 52.099,47.728 51.966 C 47.672 51.795,46.519 50.864,45.657 50.295 C 44.190 49.326,42.561 48.652,40.777 48.274 C 39.793 48.065,37.203 47.967,36.227 48.101 " fill="#2B2C30" stroke="none" fill-rule="evenodd"></path></svg>