<svg width="57" height="57" viewBox="0 0 57 57" fill="none" xmlns="http://www.w3.org/2000/svg"><path d="M26.172 0.102 C 14.936 1.066,5.338 8.469,1.628 19.035 C 0.577 22.025,0.120 24.537,0.033 27.788 C -0.201 36.580,3.641 44.971,10.446 50.529 C 16.876 55.779,24.965 57.945,33.155 56.610 C 44.774 54.715,54.113 45.686,56.429 34.105 C 56.866 31.921,56.953 30.948,56.944 28.358 C 56.935 25.806,56.783 24.394,56.281 22.208 C 54.354 13.805,48.891 6.853,41.230 3.051 C 37.933 1.415,35.649 0.715,32.046 0.235 C 30.665 0.051,27.580 -0.019,26.172 0.102 M27.792 6.579 C 27.339 7.305,26.617 8.869,26.443 9.500 C 26.324 9.937,26.274 10.452,26.276 11.258 C 26.278 12.525,26.456 13.211,27.126 14.542 C 27.811 15.903,30.362 19.469,31.875 21.182 C 32.282 21.643,32.755 22.313,32.982 22.750 C 33.322 23.403,33.385 23.616,33.421 24.240 C 33.473 25.128,33.296 25.760,32.787 26.505 C 32.133 27.462,31.483 27.761,28.785 28.349 C 22.691 29.677,20.924 30.221,18.502 31.517 C 16.159 32.771,14.125 34.575,12.800 36.575 C 11.410 38.675,11.129 39.603,11.258 41.681 C 11.294 42.269,11.299 42.750,11.269 42.750 C 11.168 42.750,9.904 41.003,9.379 40.138 C 7.790 37.517,6.716 34.455,6.313 31.398 C 6.100 29.778,6.098 27.137,6.308 25.555 C 7.638 15.560,15.518 7.667,25.508 6.322 C 26.030 6.252,26.815 6.190,27.251 6.185 L 28.044 6.175 27.792 6.579 M35.000 7.081 C 38.512 8.146,41.799 10.133,44.413 12.770 C 47.667 16.055,49.863 20.373,50.587 24.911 C 50.946 27.162,50.942 30.039,50.578 32.205 C 49.404 39.186,44.879 45.323,38.570 48.493 C 37.413 49.075,35.357 49.875,35.020 49.875 C 34.570 49.875,32.840 47.809,32.196 46.503 C 31.065 44.209,31.482 42.262,33.547 40.184 C 34.551 39.173,35.831 38.209,38.836 36.202 C 41.462 34.447,42.704 33.489,43.636 32.497 C 44.793 31.265,45.237 30.394,45.424 28.983 C 45.716 26.790,44.934 24.528,43.178 22.490 C 42.213 21.369,41.047 20.377,38.104 18.169 C 34.467 15.440,33.021 14.009,32.310 12.430 C 31.506 10.646,31.709 8.772,32.894 7.043 C 33.162 6.653,33.198 6.633,33.529 6.686 C 33.722 6.716,34.384 6.894,35.000 7.081 " fill="#2B2C30" stroke="none" fill-rule="evenodd"></path></svg>