<svg width="52" height="56" viewBox="0 0 52 56" fill="none" xmlns="http://www.w3.org/2000/svg"><path d="M22.533 0.097 C 19.209 0.477,16.001 2.436,14.114 5.238 C 13.208 6.583,12.728 7.666,12.325 9.270 C 12.116 10.103,12.096 10.335,12.093 11.917 C 12.091 13.270,12.124 13.812,12.247 14.387 C 13.156 18.650,16.122 21.986,20.224 23.358 C 21.516 23.791,22.539 23.951,24.007 23.951 C 25.475 23.951,26.497 23.791,27.791 23.358 C 31.379 22.157,34.143 19.398,35.366 15.797 C 35.827 14.437,35.922 13.794,35.922 12.003 C 35.922 10.723,35.886 10.193,35.761 9.622 C 34.866 5.524,32.137 2.311,28.250 0.779 C 26.649 0.148,24.417 -0.119,22.533 0.097 M25.920 4.234 C 27.182 4.563,28.279 5.125,29.144 5.883 C 31.026 7.533,31.980 9.592,31.980 12.003 C 31.980 14.112,31.252 15.948,29.823 17.444 C 28.682 18.639,27.400 19.393,25.859 19.776 C 24.792 20.041,23.057 20.038,22.057 19.771 C 20.262 19.290,18.625 18.176,17.530 16.691 C 15.755 14.282,15.520 11.002,16.929 8.279 C 18.046 6.118,20.139 4.586,22.612 4.115 C 23.485 3.950,25.047 4.005,25.920 4.234 M13.043 28.094 C 12.805 28.139,12.283 28.333,11.884 28.526 C 11.028 28.938,11.345 28.631,5.374 34.828 C 3.063 37.226,1.006 39.409,0.803 39.679 C 0.599 39.949,0.345 40.385,0.238 40.647 C 0.044 41.122,0.043 41.133,0.043 46.257 L 0.043 51.390 0.327 51.673 L 0.610 51.957 14.302 51.979 L 27.993 52.002 27.993 50.007 L 27.993 48.013 15.990 48.013 L 3.987 48.013 3.987 45.079 C 3.987 42.175,3.989 42.143,4.182 41.873 C 4.478 41.459,13.357 32.287,13.620 32.123 C 13.830 31.992,14.720 31.980,24.063 31.978 L 34.277 31.975 35.629 33.364 C 36.372 34.128,37.016 34.753,37.060 34.753 C 37.103 34.753,37.761 34.130,38.521 33.369 L 39.904 31.984 38.304 30.396 C 36.564 28.670,36.252 28.450,35.136 28.165 C 34.485 27.998,34.160 27.994,23.971 28.003 C 17.834 28.009,13.297 28.047,13.043 28.094 M40.011 36.024 C 39.979 36.056,39.953 37.870,39.953 40.054 L 39.953 44.027 35.967 44.027 L 31.980 44.027 31.980 46.020 L 31.980 48.013 35.967 48.013 L 39.953 48.013 39.953 52.000 L 39.953 55.987 41.990 55.987 L 44.027 55.987 44.027 52.000 L 44.027 48.013 48.013 48.013 L 52.000 48.013 52.000 46.020 L 52.000 44.027 48.013 44.027 L 44.027 44.027 44.027 39.997 L 44.027 35.967 42.048 35.967 C 40.959 35.967,40.043 35.993,40.011 36.024 " fill="#2B2C30" stroke="none" fill-rule="evenodd"></path></svg>