<svg width="48" height="48" viewBox="0 0 48 48" fill="none" xmlns="http://www.w3.org/2000/svg"><path d="M3.161 0.094 C 1.719 0.369,0.399 1.697,0.088 3.184 C -0.037 3.785,-0.037 44.215,0.088 44.816 C 0.401 46.315,1.685 47.599,3.184 47.912 C 3.785 48.037,44.215 48.037,44.816 47.912 C 46.315 47.599,47.599 46.315,47.912 44.816 C 48.037 44.215,48.037 3.785,47.912 3.184 C 47.594 1.659,46.277 0.363,44.765 0.087 C 44.149 -0.026,3.752 -0.019,3.161 0.094 M44.000 24.000 L 44.000 44.000 24.000 44.000 L 4.000 44.000 4.000 24.000 L 4.000 4.000 24.000 4.000 L 44.000 4.000 44.000 24.000 M18.160 12.138 C 17.900 12.270,17.686 12.666,15.145 17.720 C 13.640 20.712,12.327 23.376,12.226 23.640 L 12.043 24.120 12.020 29.680 C 11.997 35.157,12.000 35.244,12.160 35.505 C 12.416 35.919,12.716 36.000,14.000 36.000 C 15.284 36.000,15.585 35.919,15.838 35.505 C 15.986 35.262,15.999 35.104,16.000 33.620 L 16.000 32.000 20.000 32.000 L 24.000 32.000 24.000 33.620 C 24.001 35.104,24.014 35.262,24.162 35.505 C 24.415 35.919,24.716 36.000,26.000 36.000 C 27.284 36.000,27.584 35.919,27.840 35.505 C 28.000 35.244,28.003 35.157,27.980 29.680 C 27.958 24.253,27.954 24.110,27.790 23.680 C 27.698 23.438,26.393 20.784,24.890 17.782 C 22.823 13.650,22.107 12.289,21.943 12.182 C 21.758 12.060,21.497 12.037,20.084 12.018 C 18.638 11.998,18.406 12.013,18.160 12.138 M32.504 12.157 C 31.963 12.486,32.000 11.620,32.000 24.016 C 32.001 35.007,32.004 35.245,32.157 35.496 C 32.427 35.939,32.650 36.000,34.000 36.000 C 35.350 36.000,35.573 35.939,35.843 35.496 C 35.996 35.245,35.999 35.007,35.999 24.000 C 35.999 12.993,35.996 12.755,35.843 12.504 C 35.572 12.060,35.352 12.000,33.984 12.000 C 32.911 12.001,32.728 12.020,32.504 12.157 M22.048 20.240 L 23.960 23.880 23.985 25.940 L 24.010 28.000 20.000 28.000 L 15.990 28.000 16.015 25.940 L 16.040 23.880 18.000 20.147 C 19.449 17.388,19.983 16.438,20.048 16.507 C 20.096 16.558,20.996 18.238,22.048 20.240 " fill="#2B2C30" stroke="none" fill-rule="evenodd"></path></svg>