<svg width="56" height="56" viewBox="0 0 56 56" fill="none" xmlns="http://www.w3.org/2000/svg"><path d="M12.636 0.091 C 12.528 0.135,12.349 0.285,12.240 0.425 C 12.053 0.662,12.040 0.784,12.040 2.346 L 12.040 4.013 16.007 4.013 L 19.973 4.013 19.971 2.310 C 19.969 0.481,19.940 0.358,19.443 0.104 C 19.198 -0.021,12.943 -0.033,12.636 0.091 M24.593 0.106 C 24.111 0.376,24.084 0.492,24.082 2.310 L 24.080 4.013 28.047 4.013 L 32.013 4.013 32.013 2.335 L 32.013 0.656 31.741 0.351 L 31.469 0.047 28.124 0.024 C 25.791 0.009,24.724 0.034,24.593 0.106 M36.633 0.088 C 36.531 0.130,36.363 0.258,36.260 0.372 C 36.090 0.560,36.071 0.734,36.044 2.297 L 36.015 4.015 40.011 3.991 L 44.007 3.967 44.032 2.539 C 44.063 0.847,43.981 0.440,43.559 0.183 C 43.277 0.011,43.074 0.001,40.040 0.006 C 38.269 0.009,36.736 0.046,36.633 0.088 M10.905 8.156 C 9.851 8.441,8.878 9.285,8.364 10.360 L 8.073 10.967 8.073 28.000 L 8.073 45.033 8.373 45.666 C 8.766 46.496,9.504 47.234,10.334 47.627 L 10.967 47.927 28.000 47.927 L 45.033 47.927 45.664 47.629 C 46.493 47.238,47.233 46.497,47.627 45.666 L 47.927 45.033 47.927 28.000 L 47.927 10.967 47.627 10.334 C 47.239 9.515,46.536 8.811,45.689 8.394 L 45.037 8.073 28.189 8.056 C 14.876 8.042,11.249 8.063,10.905 8.156 M0.338 12.288 C 0.201 12.424,0.068 12.624,0.041 12.731 C 0.014 12.839,0.004 14.390,0.019 16.178 L 0.047 19.429 0.351 19.701 L 0.656 19.973 2.335 19.973 L 4.013 19.973 4.013 16.007 L 4.013 12.040 2.299 12.040 L 0.585 12.040 0.338 12.288 M43.960 28.047 L 43.960 44.053 28.000 44.053 L 12.040 44.053 12.040 28.047 L 12.040 12.040 28.000 12.040 L 43.960 12.040 43.960 28.047 M51.987 16.007 L 51.987 19.973 53.665 19.973 L 55.344 19.973 55.649 19.701 L 55.953 19.429 55.981 16.178 C 55.996 14.390,55.986 12.839,55.959 12.731 C 55.932 12.624,55.799 12.424,55.662 12.288 L 55.415 12.040 53.701 12.040 L 51.987 12.040 51.987 16.007 M22.016 16.231 C 21.881 16.338,20.671 18.658,18.947 22.115 L 16.100 27.822 16.074 33.609 L 16.048 39.396 16.323 39.671 L 16.599 39.947 18.013 39.947 L 19.428 39.947 19.701 39.674 L 19.973 39.401 19.973 37.714 L 19.973 36.027 23.987 36.027 L 28.000 36.027 28.000 37.619 C 28.000 39.945,27.997 39.942,30.017 39.945 C 31.415 39.947,31.430 39.944,31.672 39.703 C 31.806 39.569,31.940 39.327,31.970 39.166 C 31.999 39.005,32.011 36.458,31.995 33.507 L 31.967 28.140 31.722 27.533 C 31.588 27.200,30.299 24.569,28.858 21.688 C 27.061 18.095,26.158 16.386,25.986 16.251 C 25.750 16.066,25.626 16.053,23.987 16.053 C 22.410 16.053,22.217 16.071,22.016 16.231 M36.299 16.326 L 36.027 16.599 36.027 28.000 L 36.027 39.401 36.299 39.674 L 36.572 39.947 37.987 39.947 L 39.401 39.947 39.674 39.674 L 39.947 39.401 39.947 28.000 L 39.947 16.599 39.674 16.326 L 39.401 16.053 37.987 16.053 L 36.572 16.053 36.299 16.326 M26.022 25.083 L 28.008 29.073 28.004 30.543 L 28.000 32.013 23.979 32.013 L 19.958 32.013 19.991 30.450 L 20.024 28.887 21.981 24.990 C 23.058 22.847,23.961 21.093,23.988 21.093 C 24.015 21.093,24.931 22.889,26.022 25.083 M0.538 24.132 C 0.015 24.418,-0.000 24.526,-0.000 28.000 C -0.000 31.498,0.013 31.591,0.561 31.874 C 0.786 31.990,1.140 32.013,2.403 31.992 L 3.967 31.967 3.967 28.000 L 3.967 24.033 2.380 24.013 C 1.117 23.996,0.741 24.020,0.538 24.132 M52.029 24.103 C 52.005 24.168,51.996 25.963,52.009 28.093 L 52.033 31.967 53.597 31.992 C 54.860 32.013,55.214 31.990,55.439 31.874 C 55.987 31.591,56.000 31.498,56.000 28.000 C 56.000 24.506,55.986 24.409,55.443 24.128 C 55.080 23.941,52.100 23.919,52.029 24.103 M0.351 36.299 L 0.047 36.571 0.018 39.869 C -0.008 42.795,0.006 43.200,0.143 43.459 C 0.383 43.912,0.596 43.960,2.384 43.960 L 4.013 43.960 4.013 39.993 L 4.013 36.027 2.335 36.027 L 0.656 36.027 0.351 36.299 M51.987 39.993 L 51.987 43.960 53.616 43.960 C 54.635 43.960,55.332 43.920,55.478 43.854 C 55.984 43.623,56.009 43.424,55.980 39.848 L 55.953 36.571 55.649 36.299 L 55.344 36.027 53.665 36.027 L 51.987 36.027 51.987 39.993 M12.040 53.665 L 12.040 55.344 12.312 55.649 L 12.584 55.953 15.836 55.981 C 17.624 55.996,19.185 55.983,19.305 55.953 C 19.424 55.924,19.624 55.790,19.748 55.656 C 19.969 55.417,19.973 55.381,19.973 53.700 L 19.973 51.987 16.007 51.987 L 12.040 51.987 12.040 53.665 M24.080 53.700 C 24.080 55.381,24.084 55.417,24.305 55.656 C 24.429 55.790,24.629 55.924,24.749 55.953 C 24.869 55.983,26.430 55.996,28.218 55.981 L 31.469 55.953 31.741 55.649 L 32.013 55.344 32.013 53.665 L 32.013 51.987 28.047 51.987 L 24.080 51.987 24.080 53.700 M36.044 53.710 L 36.073 55.436 36.332 55.695 L 36.591 55.953 39.925 55.978 C 43.104 56.002,43.274 55.995,43.559 55.819 C 43.981 55.559,44.063 55.152,44.032 53.461 L 44.007 52.033 40.011 52.009 L 36.015 51.985 36.044 53.710 " fill="#2B2C30" stroke="none" fill-rule="evenodd"></path></svg>