<svg width="56" height="56" viewBox="0 0 56 56" fill="none" xmlns="http://www.w3.org/2000/svg"><path d="M49.634 0.180 C 49.342 0.274,48.901 0.466,48.654 0.606 C 48.362 0.773,45.581 3.484,40.645 8.412 L 33.083 15.962 18.712 13.433 C 7.786 11.510,4.232 10.916,3.889 10.955 C 3.054 11.050,2.464 11.409,1.444 12.441 C 0.432 13.465,0.091 14.017,0.021 14.744 C -0.052 15.509,0.418 16.162,1.400 16.660 C 1.642 16.783,6.498 19.011,12.190 21.611 C 17.883 24.211,22.559 26.357,22.583 26.380 C 22.606 26.402,20.966 28.080,18.938 30.109 L 15.250 33.796 9.990 32.481 C 6.587 31.630,4.642 31.184,4.481 31.220 C 4.097 31.304,0.522 34.946,0.376 35.402 C 0.235 35.840,0.313 36.183,0.629 36.515 C 0.762 36.655,3.485 38.308,6.680 40.188 L 12.488 43.606 15.834 49.350 C 17.674 52.509,19.297 55.211,19.440 55.356 C 19.799 55.719,20.225 55.784,20.734 55.552 C 21.277 55.305,24.604 51.971,24.723 51.554 C 24.792 51.317,24.570 50.316,23.506 46.053 L 22.205 40.842 25.892 37.155 C 27.920 35.127,29.603 33.492,29.633 33.522 C 29.663 33.552,31.842 38.307,34.476 44.090 C 37.109 49.872,39.398 54.810,39.562 55.063 C 40.139 55.953,41.002 56.214,41.945 55.782 C 42.609 55.478,44.282 53.878,44.659 53.186 C 45.172 52.243,45.262 52.917,42.516 37.250 L 40.023 23.030 47.574 15.458 C 55.737 7.271,55.520 7.515,55.870 6.149 C 56.149 5.061,55.871 3.629,55.168 2.532 C 55.003 2.275,54.578 1.791,54.224 1.457 C 52.901 0.209,51.106 -0.290,49.634 0.180 M51.294 4.205 C 51.634 4.415,51.987 4.916,51.987 5.190 C 51.987 5.296,48.831 8.521,43.853 13.500 L 35.720 21.635 35.783 22.041 C 35.818 22.264,36.792 27.839,37.947 34.429 C 39.101 41.019,40.030 46.428,40.010 46.448 C 39.989 46.468,38.027 42.210,35.650 36.986 C 33.272 31.761,31.223 27.261,31.098 26.986 L 30.869 26.484 24.348 33.005 C 19.995 37.358,17.828 39.588,17.829 39.713 C 17.831 39.816,18.310 41.805,18.894 44.133 C 19.478 46.461,19.922 48.330,19.881 48.287 C 19.784 48.183,16.230 42.069,15.981 41.578 C 15.625 40.875,14.967 40.410,11.232 38.218 C 9.222 37.038,7.589 36.061,7.603 36.047 C 7.617 36.032,9.625 36.519,12.065 37.130 L 16.501 38.239 23.018 31.722 C 27.030 27.710,29.500 25.173,29.444 25.122 C 29.394 25.077,24.853 22.986,19.352 20.476 C 13.851 17.967,9.361 15.902,9.375 15.888 C 9.389 15.874,15.031 16.853,21.914 18.063 L 34.428 20.264 42.531 12.136 C 47.638 7.013,50.698 4.008,50.809 4.010 C 50.906 4.012,51.124 4.099,51.294 4.205 " fill="#2B2C30" stroke="none" fill-rule="evenodd"></path></svg>