<svg width="56" height="56" viewBox="0 0 56 56" fill="none" xmlns="http://www.w3.org/2000/svg"><path d="M25.807 0.089 C 18.969 0.709,12.934 3.496,8.215 8.215 C 3.793 12.637,1.104 18.133,0.221 24.547 C 0.022 25.995,-0.006 29.757,0.173 31.080 C 0.710 35.062,1.775 38.449,3.416 41.393 C 9.973 53.159,23.428 58.627,36.254 54.740 C 42.315 52.903,47.736 48.851,51.280 43.510 C 53.837 39.655,55.245 35.780,55.830 30.987 C 55.985 29.724,55.985 26.276,55.830 25.013 C 55.361 21.170,54.294 17.733,52.628 14.700 C 48.207 6.651,40.528 1.410,31.422 0.227 C 30.159 0.063,26.962 -0.016,25.807 0.089 M30.387 4.112 C 32.529 4.319,35.123 4.968,37.101 5.792 C 40.168 7.068,42.554 8.671,44.942 11.058 C 48.769 14.886,50.988 19.347,51.814 24.873 C 51.896 25.417,51.938 26.554,51.935 28.093 C 51.931 30.114,51.899 30.656,51.722 31.687 C 50.808 37.021,48.657 41.226,44.942 44.942 C 41.114 48.769,36.653 50.988,31.127 51.814 C 30.000 51.983,26.000 51.983,24.873 51.814 C 21.371 51.291,18.267 50.186,15.457 48.464 C 12.413 46.597,9.403 43.588,7.536 40.543 C 2.831 32.869,2.831 23.131,7.536 15.457 C 9.403 12.413,12.413 9.403,15.457 7.536 C 18.423 5.718,22.134 4.452,25.480 4.117 C 26.641 4.001,29.214 3.999,30.387 4.112 M27.067 12.250 C 26.836 12.373,26.521 12.653,26.367 12.872 L 26.087 13.269 26.087 22.991 L 26.087 32.713 26.354 33.107 C 26.690 33.603,27.394 33.973,28.000 33.973 C 28.606 33.973,29.310 33.603,29.646 33.107 L 29.913 32.713 29.938 23.094 L 29.963 13.474 29.744 13.060 C 29.409 12.426,28.877 12.100,28.113 12.059 C 27.590 12.031,27.417 12.063,27.067 12.250 M26.906 37.208 C 26.376 37.395,25.620 38.092,25.312 38.677 C 25.094 39.092,25.062 39.261,25.063 39.993 C 25.064 40.979,25.244 41.442,25.880 42.091 C 27.034 43.270,28.939 43.287,30.086 42.129 C 30.284 41.930,30.556 41.557,30.692 41.300 C 30.905 40.896,30.938 40.721,30.938 39.993 C 30.938 39.262,30.906 39.091,30.688 38.677 C 30.370 38.072,29.620 37.394,29.056 37.202 C 28.514 37.017,27.435 37.020,26.906 37.208 " fill="#2B2C30" stroke="none" fill-rule="evenodd"></path></svg>