<svg width="48" height="28" viewBox="0 0 48 28" fill="none" xmlns="http://www.w3.org/2000/svg"><path d="M0.504 0.157 C 0.061 0.427,0.000 0.650,-0.000 2.000 C -0.000 3.350,0.061 3.573,0.504 3.843 C 0.756 3.997,1.058 3.999,20.000 3.999 C 38.942 3.999,39.244 3.997,39.496 3.843 C 39.939 3.573,40.000 3.350,40.000 2.000 C 40.000 0.650,39.939 0.427,39.496 0.157 C 39.244 0.003,38.942 0.001,20.000 0.001 C 1.058 0.001,0.756 0.003,0.504 0.157 M0.504 12.157 C 0.061 12.427,0.000 12.650,-0.000 14.000 C -0.000 15.350,0.061 15.573,0.504 15.843 C 0.755 15.996,1.009 15.999,14.000 15.999 C 26.991 15.999,27.245 15.996,27.496 15.843 C 27.939 15.573,28.000 15.350,28.000 14.000 C 28.000 12.650,27.939 12.427,27.496 12.157 C 27.245 12.004,26.991 12.001,14.000 12.001 C 1.009 12.001,0.755 12.004,0.504 12.157 M0.504 24.157 C 0.061 24.427,0.000 24.650,-0.000 26.000 C -0.000 27.350,0.061 27.573,0.504 27.843 C 0.756 27.997,1.091 27.999,24.000 27.999 C 46.909 27.999,47.244 27.997,47.496 27.843 C 47.939 27.573,48.000 27.350,48.000 26.000 C 48.000 24.650,47.939 24.427,47.496 24.157 C 47.244 24.003,46.909 24.001,24.000 24.001 C 1.091 24.001,0.756 24.003,0.504 24.157 " fill="#2B2C30" stroke="none" fill-rule="evenodd"></path></svg>