<svg width="48" height="28" viewBox="0 0 48 28" fill="none" xmlns="http://www.w3.org/2000/svg"><path d="M8.504 0.157 C 8.061 0.427,8.000 0.650,8.000 2.000 C 8.000 3.350,8.061 3.573,8.504 3.843 C 8.756 3.997,9.058 3.999,28.000 3.999 C 46.942 3.999,47.244 3.997,47.496 3.843 C 47.939 3.573,48.000 3.350,48.000 2.000 C 48.000 0.650,47.939 0.427,47.496 0.157 C 47.244 0.003,46.942 0.001,28.000 0.001 C 9.058 0.001,8.756 0.003,8.504 0.157 M20.504 12.157 C 20.061 12.427,20.000 12.650,20.000 14.000 C 20.000 15.350,20.061 15.573,20.504 15.843 C 20.755 15.996,21.009 15.999,34.000 15.999 C 46.991 15.999,47.245 15.996,47.496 15.843 C 47.939 15.573,48.000 15.350,48.000 14.000 C 48.000 12.650,47.939 12.427,47.496 12.157 C 47.245 12.004,46.991 12.001,34.000 12.001 C 21.009 12.001,20.755 12.004,20.504 12.157 M0.504 24.157 C 0.061 24.427,0.000 24.650,-0.000 26.000 C -0.000 27.350,0.061 27.573,0.504 27.843 C 0.756 27.997,1.091 27.999,24.000 27.999 C 46.909 27.999,47.244 27.997,47.496 27.843 C 47.939 27.573,48.000 27.350,48.000 26.000 C 48.000 24.650,47.939 24.427,47.496 24.157 C 47.244 24.003,46.909 24.001,24.000 24.001 C 1.091 24.001,0.756 24.003,0.504 24.157 " fill="#2B2C30" stroke="none" fill-rule="evenodd"></path></svg>