<svg width="48" height="28" viewBox="0 0 48 28" fill="none" xmlns="http://www.w3.org/2000/svg"><path d="M4.504 0.157 C 4.061 0.427,4.000 0.650,4.000 2.000 C 4.000 3.350,4.061 3.573,4.504 3.843 C 4.756 3.997,5.058 3.999,24.000 3.999 C 42.942 3.999,43.244 3.997,43.496 3.843 C 43.939 3.573,44.000 3.350,44.000 2.000 C 44.000 0.650,43.939 0.427,43.496 0.157 C 43.244 0.003,42.942 0.001,24.000 0.001 C 5.058 0.001,4.756 0.003,4.504 0.157 M10.504 12.157 C 10.061 12.427,10.000 12.650,10.000 14.000 C 10.000 15.350,10.061 15.573,10.504 15.843 C 10.755 15.996,11.009 15.999,24.000 15.999 C 36.991 15.999,37.245 15.996,37.496 15.843 C 37.939 15.573,38.000 15.350,38.000 14.000 C 38.000 12.650,37.939 12.427,37.496 12.157 C 37.245 12.004,36.991 12.001,24.000 12.001 C 11.009 12.001,10.755 12.004,10.504 12.157 M0.504 24.157 C 0.061 24.427,0.000 24.650,-0.000 26.000 C -0.000 27.350,0.061 27.573,0.504 27.843 C 0.756 27.997,1.091 27.999,24.000 27.999 C 46.909 27.999,47.244 27.997,47.496 27.843 C 47.939 27.573,48.000 27.350,48.000 26.000 C 48.000 24.650,47.939 24.427,47.496 24.157 C 47.244 24.003,46.909 24.001,24.000 24.001 C 1.091 24.001,0.756 24.003,0.504 24.157 " fill="#2B2C30" stroke="none" fill-rule="evenodd"></path></svg>