<svg width="48" height="51" viewBox="0 0 48 51" fill="none" xmlns="http://www.w3.org/2000/svg"><path d="M9.120 0.569 C 7.953 1.233,7.788 1.369,7.670 1.763 C 7.555 2.145,7.596 2.232,9.103 4.831 L 10.303 6.903 9.684 7.362 C 8.719 8.077,7.452 9.200,6.640 10.058 C 3.157 13.737,1.008 18.170,0.229 23.280 L 0.040 24.520 0.040 37.298 L 0.040 50.077 0.302 50.338 L 0.563 50.600 24.000 50.600 L 47.437 50.600 47.698 50.338 L 47.960 50.077 47.960 37.298 L 47.960 24.520 47.771 23.280 C 46.993 18.175,44.838 13.732,41.354 10.051 C 40.548 9.199,39.278 8.075,38.316 7.362 L 37.697 6.903 38.897 4.831 C 40.316 2.384,40.429 2.154,40.360 1.840 C 40.272 1.438,40.023 1.223,38.933 0.603 C 37.223 -0.369,37.292 -0.409,35.562 2.577 C 34.857 3.795,34.260 4.811,34.235 4.834 C 34.211 4.857,33.779 4.702,33.275 4.488 C 31.498 3.736,29.561 3.198,27.440 2.868 C 26.439 2.713,25.968 2.688,24.000 2.688 C 22.032 2.688,21.561 2.713,20.560 2.868 C 18.439 3.198,16.502 3.736,14.725 4.488 C 14.221 4.702,13.789 4.857,13.765 4.834 C 13.740 4.811,13.143 3.795,12.438 2.577 C 10.716 -0.396,10.765 -0.366,9.120 0.569 M25.857 6.721 C 28.344 6.957,30.408 7.536,32.691 8.637 C 34.834 9.671,36.347 10.749,38.085 12.480 C 41.677 16.058,43.680 20.545,43.968 25.660 L 44.023 26.640 24.000 26.640 L 3.977 26.640 4.032 25.660 C 4.320 20.545,6.323 16.058,9.915 12.480 C 11.653 10.749,13.166 9.671,15.309 8.637 C 17.142 7.753,18.712 7.245,20.631 6.916 C 22.204 6.647,24.261 6.570,25.857 6.721 M14.200 14.747 C 13.286 15.051,12.680 15.566,12.313 16.351 C 11.740 17.575,12.011 18.923,13.017 19.842 C 13.594 20.369,14.175 20.587,15.000 20.587 C 15.825 20.587,16.406 20.369,16.983 19.842 C 18.966 18.030,17.799 14.778,15.126 14.667 C 14.767 14.652,14.390 14.685,14.200 14.747 M32.200 14.747 C 31.286 15.051,30.680 15.566,30.313 16.351 C 29.740 17.575,30.011 18.923,31.017 19.842 C 31.594 20.369,32.175 20.587,33.000 20.587 C 33.825 20.587,34.406 20.369,34.983 19.842 C 36.966 18.030,35.799 14.778,33.126 14.667 C 32.767 14.652,32.390 14.685,32.200 14.747 M44.000 38.640 L 44.000 46.640 24.000 46.640 L 4.000 46.640 4.000 38.640 L 4.000 30.640 24.000 30.640 L 44.000 30.640 44.000 38.640 " fill="#2B2C30" stroke="none" fill-rule="evenodd"></path></svg>