<svg width="49" height="50" viewBox="0 0 49 50" fill="none" xmlns="http://www.w3.org/2000/svg"><path d="M22.989 0.094 C 22.644 0.282,21.150 1.840,21.064 2.102 C 20.862 2.712,20.407 2.221,31.142 12.965 L 41.200 23.030 20.963 23.030 C -1.365 23.030,0.401 22.986,0.134 23.549 C -0.046 23.927,-0.058 25.999,0.116 26.416 C 0.359 26.997,-1.478 26.950,20.963 26.950 L 41.200 26.950 31.142 37.015 C 20.397 47.769,20.862 47.268,21.065 47.883 C 21.179 48.229,22.823 49.864,23.135 49.942 C 23.726 50.090,23.177 50.610,36.138 37.648 L 48.387 25.398 48.387 24.990 L 48.387 24.582 36.219 12.408 C 29.527 5.713,23.952 0.182,23.830 0.117 C 23.570 -0.021,23.218 -0.031,22.989 0.094 " fill="#2B2C30" stroke="none" fill-rule="evenodd"></path></svg>