<svg width="48" height="20" viewBox="0 0 48 20" fill="none" xmlns="http://www.w3.org/2000/svg"><path d="M36.473 0.182 C 36.324 0.283,36.157 0.454,36.102 0.562 C 36.027 0.712,36.002 1.645,36.001 4.380 L 36.000 8.000 18.380 8.000 C 1.045 8.001,0.756 8.003,0.504 8.157 C 0.061 8.427,0.000 8.650,0.000 10.000 C 0.000 11.350,0.061 11.573,0.504 11.843 C 0.756 11.997,1.045 11.999,18.380 12.000 L 36.000 12.000 36.000 15.604 C 36.000 19.582,35.994 19.532,36.504 19.843 C 36.826 20.040,37.171 20.042,37.480 19.850 C 37.924 19.574,47.802 10.587,47.902 10.368 C 48.026 10.096,48.026 9.904,47.902 9.633 C 47.803 9.416,37.921 0.424,37.480 0.150 C 37.158 -0.050,36.801 -0.039,36.473 0.182 " fill="#2B2C30" stroke="none" fill-rule="evenodd"></path></svg>