<svg width="40" height="40" viewBox="0 0 40 40" fill="none" xmlns="http://www.w3.org/2000/svg"><path d="M29.611 0.112 C 29.379 0.227,20.267 10.257,20.094 10.589 C 19.876 11.006,20.093 11.643,20.532 11.876 C 20.750 11.992,20.987 12.000,24.382 12.000 L 28.000 12.000 28.000 21.607 C 28.000 32.241,27.969 31.493,28.425 31.818 C 28.620 31.957,28.714 31.968,29.912 31.987 C 31.096 32.006,31.210 31.998,31.461 31.870 C 31.638 31.779,31.778 31.640,31.866 31.468 C 31.998 31.208,32.000 31.095,32.000 21.603 L 32.000 12.000 35.618 12.000 C 39.729 12.000,39.565 12.021,39.850 11.464 C 40.040 11.095,40.039 10.831,39.850 10.525 C 39.562 10.060,30.612 0.221,30.374 0.108 C 30.088 -0.028,29.893 -0.027,29.611 0.112 M8.553 8.139 C 8.353 8.238,8.234 8.358,8.137 8.560 C 8.001 8.840,8.000 8.899,8.000 18.421 L 8.000 28.000 4.417 28.001 C 1.064 28.003,0.816 28.011,0.560 28.127 C 0.356 28.220,0.249 28.327,0.143 28.547 C -0.039 28.922,-0.037 29.112,0.150 29.451 C 0.387 29.880,9.358 39.765,9.626 39.892 C 9.912 40.028,10.087 40.028,10.370 39.894 C 10.630 39.770,19.690 29.780,19.880 29.406 C 20.035 29.102,20.031 28.907,19.863 28.558 C 19.763 28.352,19.648 28.237,19.442 28.137 C 19.166 28.004,19.056 28.000,15.579 28.000 L 12.000 28.000 12.000 18.421 C 12.000 8.885,11.999 8.841,11.863 8.558 C 11.763 8.352,11.648 8.237,11.442 8.137 C 11.188 8.015,11.033 8.000,9.996 8.000 C 8.953 8.000,8.805 8.014,8.553 8.139 " fill="#2B2C30" stroke="none" fill-rule="evenodd"></path></svg>