<svg width="40" height="49" viewBox="0 0 40 49" fill="none" xmlns="http://www.w3.org/2000/svg"><path d="M8.553 0.139 C 8.353 0.238,8.234 0.358,8.137 0.560 L 8.000 0.842 8.000 18.421 L 8.000 36.000 4.421 36.000 C 0.944 36.000,0.834 36.004,0.558 36.137 C 0.352 36.237,0.237 36.352,0.137 36.558 C -0.039 36.923,-0.036 37.174,0.150 37.476 C 0.233 37.609,2.346 39.983,4.847 42.750 C 7.872 46.098,9.471 47.819,9.624 47.891 C 9.913 48.028,10.087 48.028,10.374 47.892 C 10.642 47.765,19.613 37.880,19.850 37.451 C 20.036 37.114,20.039 36.922,19.863 36.558 C 19.763 36.352,19.648 36.237,19.442 36.137 C 19.166 36.004,19.056 36.000,15.579 36.000 L 12.000 36.000 12.000 18.421 L 12.000 0.842 11.863 0.558 C 11.763 0.352,11.648 0.237,11.442 0.137 C 11.188 0.015,11.033 0.000,9.996 0.000 C 8.953 0.000,8.805 0.014,8.553 0.139 M29.613 0.112 C 29.476 0.179,27.664 2.134,24.858 5.240 C 22.365 8.001,20.262 10.340,20.185 10.437 C 19.975 10.704,19.958 11.172,20.147 11.493 C 20.456 12.018,20.308 12.000,24.382 12.000 L 28.000 12.000 28.000 29.607 C 28.000 45.713,28.009 47.233,28.108 47.441 C 28.168 47.567,28.310 47.736,28.425 47.818 C 28.624 47.960,28.693 47.967,30.000 47.967 C 31.307 47.967,31.376 47.960,31.575 47.818 C 31.690 47.736,31.832 47.567,31.892 47.441 C 31.991 47.233,32.000 45.713,32.000 29.607 L 32.000 12.000 35.607 12.000 C 39.580 12.000,39.510 12.007,39.810 11.586 C 39.995 11.326,40.045 10.871,39.917 10.614 C 39.743 10.265,30.625 0.227,30.374 0.108 C 30.089 -0.028,29.893 -0.027,29.613 0.112 " fill="#2B2C30" stroke="none" fill-rule="evenodd"></path></svg>