<svg width="20" height="20" viewBox="0 0 20 20" fill="none" xmlns="http://www.w3.org/2000/svg"><path d="M9.717 0.051 C 9.643 0.078,9.512 0.157,9.425 0.225 C 9.337 0.294,7.211 2.635,4.701 5.429 C 0.628 9.960,0.128 10.528,0.065 10.695 C -0.114 11.171,0.111 11.688,0.596 11.912 C 0.750 11.983,0.752 11.983,4.374 11.992 L 7.999 12.001 8.008 15.642 L 8.017 19.283 8.116 19.462 C 8.239 19.684,8.425 19.846,8.657 19.933 C 8.824 19.995,8.916 20.000,10.000 20.000 C 11.084 20.000,11.176 19.995,11.343 19.933 C 11.586 19.842,11.777 19.670,11.890 19.441 L 11.983 19.250 11.992 15.625 L 12.001 12.000 15.561 12.000 C 19.516 12.000,19.305 12.012,19.616 11.775 C 19.971 11.504,20.090 11.000,19.890 10.611 C 19.842 10.517,19.721 10.352,19.623 10.245 C 19.525 10.138,17.483 7.867,15.086 5.200 C 12.689 2.532,10.687 0.315,10.639 0.273 C 10.377 0.046,9.984 -0.049,9.717 0.051 " fill="#2B2C30" stroke="none" fill-rule="evenodd"></path></svg>