<svg width="50" height="49" viewBox="0 0 50 49" fill="none" xmlns="http://www.w3.org/2000/svg"><path d="M24.625 0.078 C 24.533 0.119,18.965 5.650,12.250 12.368 L 0.042 24.584 0.042 25.000 L 0.042 25.416 1.021 26.395 L 2.001 27.375 2.417 27.375 L 2.833 27.375 12.916 17.292 L 22.999 7.210 23.020 27.520 L 23.042 47.830 23.314 48.103 L 23.587 48.375 25.000 48.375 L 26.413 48.375 26.686 48.103 L 26.958 47.830 26.980 27.520 L 27.001 7.210 37.084 17.292 L 47.167 27.375 47.583 27.375 L 47.999 27.375 48.979 26.395 L 49.958 25.416 49.958 25.000 L 49.958 24.583 37.702 12.327 C 26.083 0.708,25.429 0.070,25.119 0.037 C 24.939 0.018,24.717 0.036,24.625 0.078 " fill="#2B2C30" stroke="none" fill-rule="evenodd"></path></svg>