<svg width="52" height="52" viewBox="0 0 52 52" fill="none" xmlns="http://www.w3.org/2000/svg"><path d="M22.564 0.111 C 22.462 0.169,20.076 2.296,17.262 4.838 C 13.984 7.800,12.116 9.546,12.062 9.699 C 11.953 10.013,12.017 10.320,12.249 10.595 C 12.640 11.059,22.470 19.860,22.690 19.944 C 23.031 20.073,23.422 19.967,23.710 19.667 L 23.963 19.402 23.988 15.724 L 24.012 12.047 37.464 12.046 C 46.101 12.046,51.028 12.015,51.226 11.960 C 51.397 11.912,51.631 11.773,51.746 11.650 C 51.951 11.432,51.957 11.389,51.957 10.012 C 51.957 8.721,51.942 8.581,51.783 8.404 C 51.382 7.953,52.048 7.973,37.529 7.973 L 24.007 7.973 24.007 4.417 C 24.007 0.454,24.000 0.400,23.463 0.145 C 23.105 -0.025,22.823 -0.035,22.564 0.111 M10.585 16.094 C 10.384 16.174,0.492 25.123,0.238 25.455 C -0.063 25.848,-0.063 26.152,0.238 26.545 C 0.483 26.864,10.070 35.544,10.476 35.814 C 10.601 35.898,10.853 35.966,11.037 35.966 C 11.301 35.967,11.432 35.905,11.665 35.672 L 11.960 35.377 11.960 31.685 L 11.960 27.993 31.594 27.993 C 53.367 27.993,51.620 28.042,51.877 27.427 C 52.048 27.018,52.048 24.982,51.877 24.573 C 51.620 23.958,53.367 24.007,31.594 24.007 L 11.960 24.007 11.960 20.315 L 11.960 16.623 11.665 16.328 C 11.428 16.091,11.306 16.035,11.037 16.040 C 10.853 16.044,10.650 16.068,10.585 16.094 M22.649 32.063 C 22.401 32.168,12.492 41.098,12.242 41.444 C 11.950 41.845,11.981 42.279,12.328 42.661 C 12.483 42.831,14.463 44.639,16.727 46.679 C 18.991 48.719,21.220 50.729,21.681 51.145 C 22.622 51.996,22.911 52.117,23.428 51.871 C 24.003 51.599,24.007 51.570,24.007 47.589 L 24.007 44.027 37.462 44.026 C 46.100 44.026,51.028 43.995,51.226 43.940 C 51.397 43.892,51.631 43.753,51.746 43.630 C 51.946 43.418,51.958 43.342,51.985 42.147 C 52.015 40.782,51.958 40.503,51.587 40.210 C 51.373 40.043,51.160 40.040,37.688 40.040 L 24.007 40.040 24.005 36.422 C 24.004 33.722,23.977 32.750,23.897 32.595 C 23.674 32.161,23.050 31.895,22.649 32.063 " fill="#2B2C30" stroke="none" fill-rule="evenodd"></path></svg>