<svg width="50" height="49" viewBox="0 0 50 49" fill="none" xmlns="http://www.w3.org/2000/svg"><path d="M23.625 0.077 C 23.533 0.116,23.365 0.249,23.250 0.373 L 23.042 0.597 23.020 20.902 L 22.999 41.206 12.937 31.153 C 7.403 25.624,2.787 21.074,2.680 21.042 C 2.231 20.909,1.983 21.056,0.998 22.043 L 0.042 23.003 0.042 23.418 L 0.042 23.833 12.313 36.104 L 24.583 48.375 25.000 48.375 L 25.417 48.375 37.687 36.104 L 49.958 23.833 49.958 23.417 L 49.958 23.001 48.979 22.021 L 47.999 21.042 47.583 21.042 L 47.167 21.042 37.084 31.124 L 27.001 41.207 26.980 20.897 L 26.958 0.587 26.686 0.314 L 26.414 0.042 25.103 0.023 C 24.382 0.013,23.717 0.037,23.625 0.077 " fill="#2B2C30" stroke="none" fill-rule="evenodd"></path></svg>