<svg width="52" height="56" viewBox="0 0 52 56" fill="none" xmlns="http://www.w3.org/2000/svg"><path d="M28.541 0.140 C 28.001 0.406,27.993 0.468,27.993 4.411 L 27.993 7.973 14.471 7.973 C -0.047 7.973,0.619 7.953,0.217 8.404 C 0.063 8.575,0.040 8.744,0.015 9.855 C -0.015 11.218,0.042 11.498,0.413 11.790 C 0.627 11.957,0.836 11.960,13.813 11.959 L 26.997 11.958 29.674 7.316 C 31.918 3.426,32.332 2.657,32.231 2.565 C 30.550 1.045,29.559 0.180,29.407 0.100 C 29.151 -0.036,28.871 -0.023,28.541 0.140 M38.162 0.060 C 38.058 0.080,37.883 0.188,37.772 0.300 C 37.661 0.412,30.652 12.483,22.198 27.124 C 7.414 52.727,6.827 53.759,6.872 54.093 C 6.898 54.284,6.986 54.514,7.068 54.605 C 7.283 54.843,9.115 55.890,9.424 55.952 C 9.778 56.023,10.236 55.794,10.443 55.444 C 13.229 50.736,41.107 2.304,41.135 2.123 C 41.213 1.629,40.942 1.329,39.841 0.689 C 38.835 0.105,38.523 -0.012,38.162 0.060 M40.454 16.184 C 40.324 16.265,40.187 16.391,40.150 16.464 C 40.114 16.537,40.064 18.254,40.040 20.280 L 39.997 23.963 36.271 24.007 L 32.545 24.050 31.441 25.957 C 30.833 27.005,30.335 27.893,30.335 27.928 C 30.334 27.964,32.517 27.993,35.187 27.993 L 40.040 27.993 40.040 31.685 L 40.040 35.377 40.335 35.672 C 40.568 35.906,40.699 35.967,40.965 35.967 C 41.150 35.967,41.398 35.900,41.516 35.818 C 41.817 35.609,51.481 26.893,51.716 26.619 C 51.965 26.327,52.042 25.963,51.917 25.661 C 51.824 25.437,41.895 16.384,41.480 16.145 C 41.218 15.994,40.730 16.013,40.454 16.184 M0.499 24.142 C 0.079 24.371,-0.000 24.657,-0.000 25.961 C -0.000 26.859,0.033 27.213,0.137 27.432 C 0.417 28.023,-0.067 27.993,9.288 27.993 L 17.727 27.993 18.718 26.282 C 19.262 25.340,19.782 24.443,19.873 24.288 L 20.037 24.007 10.387 24.010 C 2.020 24.013,0.705 24.031,0.499 24.142 M28.541 32.120 C 28.001 32.386,27.993 32.444,27.993 36.433 L 27.993 40.037 25.633 40.060 L 23.273 40.083 22.168 41.990 C 21.561 43.039,21.063 43.926,21.062 43.962 C 21.061 43.997,22.619 44.027,24.524 44.027 L 27.988 44.027 28.012 47.704 L 28.037 51.382 28.290 51.647 C 28.622 51.993,29.024 52.069,29.415 51.858 C 29.683 51.713,38.861 43.490,39.617 42.718 C 39.789 42.542,39.947 42.306,39.969 42.194 C 40.073 41.648,40.042 41.617,34.744 36.829 C 31.924 34.281,29.515 32.150,29.390 32.092 C 29.084 31.951,28.869 31.958,28.541 32.120 M0.326 40.293 L 0.043 40.545 0.015 41.819 C -0.015 43.199,0.041 43.477,0.413 43.770 C 0.622 43.933,0.783 43.940,4.583 43.939 L 8.537 43.938 9.317 42.578 C 9.746 41.829,10.246 40.952,10.428 40.628 L 10.760 40.040 5.685 40.040 L 0.609 40.040 0.326 40.293 " fill="#2B2C30" stroke="none" fill-rule="evenodd"></path></svg>