<svg width="48" height="20" viewBox="0 0 48 20" fill="none" xmlns="http://www.w3.org/2000/svg"><path d="M10.520 0.150 C 10.076 0.426,0.198 9.413,0.098 9.632 C 0.044 9.750,0.000 9.916,0.000 10.000 C 0.000 10.084,0.044 10.250,0.098 10.368 C 0.198 10.587,10.076 19.574,10.520 19.850 C 10.829 20.042,11.174 20.040,11.496 19.843 C 12.006 19.532,12.000 19.582,12.000 15.604 L 12.000 12.000 29.620 12.000 C 46.955 11.999,47.244 11.997,47.496 11.843 C 47.939 11.573,48.000 11.350,48.000 10.000 C 48.000 8.650,47.939 8.427,47.496 8.157 C 47.244 8.003,46.955 8.001,29.620 8.000 L 12.000 8.000 11.999 4.380 C 11.998 1.645,11.973 0.712,11.898 0.562 C 11.758 0.287,11.304 -0.000,11.008 0.000 C 10.872 0.000,10.652 0.068,10.520 0.150 " fill="#2B2C30" stroke="none" fill-rule="evenodd"></path></svg>