<svg width="20" height="48" viewBox="0 0 20 48" fill="none" xmlns="http://www.w3.org/2000/svg"><path d="M9.733 0.052 C 9.651 0.078,9.512 0.155,9.425 0.224 C 9.337 0.293,7.212 2.626,4.702 5.408 C -0.367 11.027,-0.025 10.615,0.010 11.059 C 0.041 11.465,0.284 11.794,0.657 11.933 C 0.832 11.999,0.913 12.000,4.418 12.000 L 8.000 12.000 8.000 23.999 L 8.000 35.999 4.375 36.008 L 0.750 36.017 0.561 36.110 C 0.203 36.285,0.019 36.587,0.018 37.002 C 0.017 37.220,0.030 37.280,0.117 37.442 C 0.187 37.573,1.548 39.103,4.697 42.589 C 7.162 45.318,9.241 47.611,9.317 47.686 C 9.698 48.059,10.174 48.093,10.573 47.775 C 10.658 47.706,12.784 45.373,15.296 42.591 C 20.359 36.982,20.025 37.383,19.991 36.948 C 19.961 36.566,19.767 36.271,19.439 36.110 L 19.250 36.017 15.625 36.008 L 12.000 35.999 12.000 23.999 L 12.000 12.000 15.582 12.000 C 19.087 12.000,19.168 11.999,19.343 11.933 C 19.716 11.794,19.959 11.465,19.990 11.059 C 20.025 10.616,20.366 11.027,15.296 5.409 C 12.784 2.627,10.658 0.294,10.573 0.226 C 10.303 0.011,10.039 -0.044,9.733 0.052 " fill="#2B2C30" stroke="none" fill-rule="evenodd"></path></svg>