<svg width="20" height="20" viewBox="0 0 20 20" fill="none" xmlns="http://www.w3.org/2000/svg"><path d="M10.767 0.055 C 10.684 0.084,10.547 0.155,10.461 0.212 C 10.304 0.318,0.627 9.004,0.311 9.323 C -0.064 9.703,-0.096 10.169,0.226 10.572 C 0.294 10.658,2.615 12.764,5.383 15.253 C 10.959 20.265,10.619 19.983,11.083 19.983 C 11.280 19.983,11.345 19.967,11.497 19.883 C 11.605 19.824,11.722 19.723,11.787 19.633 C 12.008 19.328,12.000 19.489,12.000 15.557 L 12.000 12.001 15.625 11.992 L 19.250 11.983 19.441 11.890 C 19.670 11.777,19.842 11.586,19.933 11.343 C 19.995 11.176,20.000 11.084,20.000 10.000 C 20.000 8.916,19.995 8.824,19.933 8.657 C 19.846 8.425,19.684 8.239,19.462 8.116 L 19.283 8.017 15.642 8.008 L 12.000 7.999 12.000 4.436 C 12.000 0.923,11.999 0.871,11.931 0.649 C 11.774 0.143,11.264 -0.118,10.767 0.055 " fill="#2B2C30" stroke="none" fill-rule="evenodd"></path></svg>