<svg width="20" height="48" viewBox="0 0 20 48" fill="none" xmlns="http://www.w3.org/2000/svg"><path d="M8.678 0.061 C 8.368 0.169,8.164 0.377,8.051 0.696 C 8.005 0.826,8.000 2.683,8.000 18.420 L 8.000 35.999 4.375 36.008 L 0.750 36.017 0.559 36.110 C 0.079 36.346,-0.139 36.965,0.096 37.426 C 0.183 37.595,9.196 47.594,9.425 47.775 C 9.800 48.070,10.200 48.070,10.575 47.775 C 10.662 47.706,12.787 45.373,15.298 42.590 C 20.357 36.982,20.025 37.382,19.991 36.948 C 19.961 36.566,19.767 36.271,19.439 36.110 L 19.250 36.017 15.625 36.008 L 12.000 35.999 12.000 18.417 C 12.000 0.894,12.000 0.835,11.933 0.657 C 11.842 0.414,11.670 0.223,11.441 0.110 L 11.250 0.017 10.050 0.009 C 8.965 0.001,8.834 0.006,8.678 0.061 " fill="#2B2C30" stroke="none" fill-rule="evenodd"></path></svg>