<svg width="20" height="32" viewBox="0 0 20 32" fill="none" xmlns="http://www.w3.org/2000/svg"><path d="M9.717 0.053 C 9.643 0.079,9.505 0.164,9.410 0.242 C 9.158 0.448,0.183 10.404,0.096 10.574 C -0.155 11.066,0.114 11.730,0.645 11.929 C 0.836 12.000,0.838 12.000,4.418 12.000 L 8.000 12.000 8.000 21.582 L 8.000 31.164 8.071 31.355 C 8.166 31.609,8.391 31.834,8.645 31.929 C 8.827 31.997,8.892 32.000,10.000 32.000 C 11.108 32.000,11.173 31.997,11.355 31.929 C 11.609 31.834,11.834 31.609,11.929 31.355 L 12.000 31.164 12.000 21.582 L 12.000 12.000 15.582 12.000 C 19.087 12.000,19.168 11.999,19.343 11.933 C 19.716 11.794,19.959 11.465,19.990 11.059 C 20.025 10.617,20.367 11.028,15.281 5.394 C 12.327 2.121,10.637 0.273,10.524 0.194 C 10.255 0.003,9.987 -0.043,9.717 0.053 " fill="#2B2C30" stroke="none" fill-rule="evenodd"></path></svg>