<svg width="32" height="40" viewBox="0 0 32 40" fill="none" xmlns="http://www.w3.org/2000/svg"><path d="M21.625 0.075 C 21.536 0.113,21.379 0.226,21.277 0.326 C 20.765 0.821,12.174 10.435,12.091 10.604 C 11.892 11.016,12.059 11.562,12.471 11.845 L 12.659 11.973 16.303 11.988 L 19.947 12.002 19.947 15.534 C 19.947 17.835,19.967 19.137,20.003 19.268 C 20.079 19.542,20.331 19.815,20.604 19.919 C 20.794 19.992,21.028 20.003,22.059 19.990 L 23.288 19.973 23.504 19.830 C 23.634 19.744,23.765 19.594,23.834 19.453 C 23.945 19.222,23.947 19.179,23.947 15.610 L 23.947 12.000 27.533 11.999 C 30.898 11.998,31.133 11.992,31.336 11.900 C 31.610 11.775,31.805 11.544,31.889 11.242 C 31.972 10.945,31.906 10.663,31.683 10.368 C 31.597 10.254,29.515 7.928,27.056 5.200 C 22.382 0.013,22.366 -0.003,21.949 0.002 C 21.860 0.003,21.714 0.036,21.625 0.075 M8.558 20.098 C 8.265 20.234,8.074 20.476,8.005 20.801 C 7.966 20.981,7.947 22.239,7.947 24.536 L 7.947 28.000 4.384 28.000 L 0.821 28.000 0.546 28.137 C 0.316 28.252,0.248 28.322,0.129 28.565 C -0.044 28.918,-0.029 29.233,0.175 29.534 C 0.398 29.863,9.276 39.694,9.467 39.824 C 9.564 39.890,9.738 39.959,9.855 39.978 C 10.337 40.055,10.158 40.234,15.119 34.721 C 17.631 31.929,19.734 29.569,19.793 29.476 C 19.957 29.214,19.916 28.670,19.712 28.402 C 19.395 27.986,19.565 28.002,15.533 28.001 L 11.947 28.000 11.947 24.390 C 11.947 20.821,11.945 20.778,11.834 20.547 C 11.765 20.406,11.634 20.256,11.504 20.170 L 11.288 20.027 10.031 20.013 C 8.897 20.000,8.752 20.008,8.558 20.098 " fill="#2B2C30" stroke="none" fill-rule="evenodd"></path></svg>