<svg width="32" height="20" viewBox="0 0 32 20" fill="none" xmlns="http://www.w3.org/2000/svg"><path d="M10.604 0.095 C 10.496 0.145,8.105 2.268,5.290 4.812 C -0.052 9.640,-0.000 9.589,0.000 10.000 C 0.000 10.411,-0.053 10.359,5.291 15.188 C 8.106 17.732,10.497 19.855,10.604 19.905 C 10.963 20.074,11.360 20.002,11.673 19.713 C 12.012 19.399,12.000 19.555,12.000 15.602 L 12.000 12.000 21.560 12.000 C 27.652 12.000,31.188 11.980,31.309 11.947 C 31.545 11.881,31.878 11.546,31.947 11.304 C 32.016 11.066,32.015 8.937,31.947 8.691 C 31.918 8.587,31.816 8.426,31.721 8.334 C 31.349 7.974,32.143 8.000,21.575 8.000 L 12.000 8.000 12.000 4.440 C 12.000 2.268,11.979 0.806,11.947 0.691 C 11.849 0.340,11.368 -0.002,10.975 0.001 C 10.879 0.002,10.712 0.044,10.604 0.095 " fill="#2B2C30" stroke="none" fill-rule="evenodd"></path></svg>