<svg width="20" height="64" viewBox="0 0 20 64" fill="none" xmlns="http://www.w3.org/2000/svg"><path d="M9.733 0.052 C 9.651 0.078,9.512 0.155,9.425 0.224 C 9.337 0.293,7.212 2.626,4.702 5.408 C -0.367 11.027,-0.025 10.615,0.010 11.059 C 0.041 11.465,0.284 11.794,0.657 11.933 C 0.832 11.999,0.913 12.000,4.418 12.000 L 8.000 12.000 8.000 31.999 L 8.000 51.999 4.375 52.008 C 0.769 52.017,0.749 52.017,0.598 52.087 C 0.377 52.189,0.215 52.346,0.110 52.561 C 0.033 52.717,0.017 52.794,0.017 53.002 C 0.017 53.218,0.031 53.281,0.117 53.442 C 0.187 53.573,1.548 55.103,4.697 58.589 C 7.162 61.318,9.241 63.611,9.317 63.686 C 9.698 64.059,10.174 64.093,10.573 63.775 C 10.658 63.706,12.784 61.373,15.296 58.591 C 20.366 52.973,20.025 53.384,19.990 52.941 C 19.961 52.557,19.747 52.247,19.402 52.087 C 19.251 52.017,19.231 52.017,15.625 52.008 L 12.000 51.999 12.000 31.999 L 12.000 12.000 15.582 12.000 C 19.087 12.000,19.168 11.999,19.343 11.933 C 19.716 11.794,19.959 11.465,19.990 11.059 C 20.025 10.616,20.366 11.027,15.296 5.409 C 12.784 2.627,10.658 0.294,10.573 0.226 C 10.303 0.011,10.039 -0.044,9.733 0.052 " fill="#2B2C30" stroke="none" fill-rule="evenodd"></path></svg>