<svg width="36" height="36" viewBox="0 0 36 36" fill="none" xmlns="http://www.w3.org/2000/svg"><path d="M0.538 0.138 C 0.359 0.233,0.233 0.359,0.138 0.538 L 0.000 0.799 -0.000 18.000 L -0.000 35.201 0.138 35.462 C 0.233 35.641,0.359 35.767,0.538 35.862 L 0.799 36.000 18.000 36.000 L 35.201 36.000 35.462 35.862 C 35.641 35.767,35.767 35.641,35.862 35.462 C 35.993 35.215,36.000 35.138,36.000 33.996 C 36.000 32.634,35.973 32.525,35.559 32.194 L 35.329 32.010 21.100 31.994 L 6.872 31.979 21.134 17.714 C 31.338 7.508,35.422 3.387,35.488 3.227 C 35.595 2.966,35.605 2.716,35.517 2.479 C 35.433 2.254,33.802 0.610,33.557 0.504 C 33.306 0.395,33.050 0.398,32.773 0.512 C 32.613 0.578,28.492 4.662,18.285 14.867 L 4.020 29.130 4.020 15.030 C 4.019 5.962,3.998 0.854,3.960 0.717 C 3.893 0.476,3.592 0.158,3.341 0.064 C 3.243 0.027,2.676 0.000,1.986 0.000 C 0.863 0.000,0.785 0.007,0.538 0.138 " fill="#2B2C30" stroke="none" fill-rule="evenodd"></path></svg>