<svg width="52" height="52" viewBox="0 0 52 52" fill="none" xmlns="http://www.w3.org/2000/svg"><path d="M28.524 0.148 C 28.002 0.405,27.993 0.475,27.993 4.417 L 27.993 7.973 14.471 7.973 C -0.048 7.973,0.618 7.953,0.217 8.404 C 0.058 8.581,0.043 8.721,0.043 10.012 C 0.043 11.389,0.049 11.432,0.254 11.650 C 0.369 11.773,0.603 11.912,0.774 11.960 C 0.972 12.015,5.899 12.046,14.536 12.046 L 27.988 12.047 28.012 15.724 L 28.037 19.402 28.290 19.667 C 28.577 19.966,28.969 20.073,29.308 19.944 C 29.541 19.856,39.397 11.022,39.764 10.573 C 39.968 10.323,40.025 9.984,39.920 9.651 C 39.863 9.471,29.808 0.322,29.436 0.111 C 29.178 -0.034,28.869 -0.022,28.524 0.148 M40.335 16.328 L 40.040 16.623 40.040 20.315 L 40.040 24.007 20.406 24.007 C -1.367 24.007,0.380 23.958,0.123 24.573 C -0.048 24.982,-0.048 27.018,0.123 27.427 C 0.380 28.042,-1.367 27.993,20.406 27.993 L 40.040 27.993 40.040 31.685 L 40.040 35.377 40.335 35.672 C 40.568 35.905,40.699 35.967,40.963 35.966 C 41.147 35.966,41.399 35.898,41.524 35.814 C 41.930 35.544,51.517 26.864,51.762 26.545 C 51.893 26.374,52.000 26.129,52.000 26.000 C 52.000 25.871,51.893 25.626,51.762 25.455 C 51.478 25.084,41.612 16.176,41.391 16.092 C 41.011 15.946,40.632 16.030,40.335 16.328 M28.643 32.102 C 28.500 32.165,28.305 32.304,28.210 32.411 C 28.043 32.597,28.036 32.745,28.012 36.322 L 27.988 40.040 14.309 40.040 C 0.840 40.040,0.627 40.043,0.413 40.210 C 0.042 40.503,-0.015 40.782,0.015 42.147 C 0.042 43.342,0.054 43.418,0.254 43.630 C 0.369 43.753,0.603 43.892,0.774 43.940 C 0.972 43.995,5.900 44.026,14.538 44.026 L 27.993 44.027 27.993 47.589 C 27.993 51.570,27.997 51.599,28.572 51.871 C 29.131 52.137,29.350 52.023,30.797 50.713 C 31.519 50.059,33.748 48.049,35.750 46.247 C 37.752 44.445,39.517 42.831,39.672 42.661 C 40.019 42.279,40.050 41.845,39.758 41.444 C 39.478 41.058,29.583 32.160,29.324 32.062 C 29.048 31.957,28.960 31.962,28.643 32.102 " fill="#2B2C30" stroke="none" fill-rule="evenodd"></path></svg>