<svg width="56" height="36" viewBox="0 0 56 36" fill="none" xmlns="http://www.w3.org/2000/svg"><path d="M10.500 0.179 C 9.966 0.518,0.233 9.349,0.104 9.611 C 0.022 9.779,-0.002 9.994,0.038 10.209 C 0.094 10.507,0.667 11.053,5.328 15.248 C 8.203 17.836,10.654 19.972,10.773 19.995 C 11.107 20.059,11.581 19.862,11.798 19.570 C 11.987 19.315,11.994 19.193,12.020 15.673 L 12.046 12.040 18.996 12.040 L 25.947 12.040 25.947 23.462 C 25.947 29.744,25.973 35.014,26.005 35.174 C 26.037 35.333,26.161 35.570,26.280 35.699 C 26.495 35.930,26.516 35.933,27.983 35.933 C 29.443 35.933,29.472 35.929,29.702 35.699 C 29.830 35.571,29.962 35.308,29.994 35.116 C 30.025 34.924,30.052 29.653,30.052 23.403 L 30.053 12.040 37.003 12.040 L 43.952 12.040 43.979 15.725 L 44.007 19.409 44.243 19.645 C 44.564 19.966,44.977 20.075,45.321 19.929 C 45.471 19.865,47.912 17.725,50.747 15.173 C 55.341 11.037,55.907 10.497,55.964 10.199 C 56.008 9.960,55.980 9.781,55.864 9.575 C 55.705 9.293,45.984 0.485,45.477 0.164 C 45.158 -0.038,44.874 -0.043,44.508 0.146 C 43.979 0.420,43.960 0.573,43.960 4.474 L 43.960 8.021 36.470 8.047 L 28.980 8.073 28.489 8.295 L 27.998 8.517 27.509 8.295 L 27.020 8.073 19.530 8.047 L 12.040 8.021 12.039 4.547 C 12.039 2.397,12.001 0.938,11.940 0.718 C 11.765 0.087,11.060 -0.177,10.500 0.179 " fill="#2B2C30" stroke="none" fill-rule="evenodd"></path></svg>