<svg width="20" height="32" viewBox="0 0 20 32" fill="none" xmlns="http://www.w3.org/2000/svg"><path d="M8.678 0.061 C 8.368 0.169,8.164 0.377,8.051 0.696 C 8.006 0.826,8.000 1.884,8.000 10.420 L 8.000 19.999 4.375 20.008 L 0.750 20.017 0.559 20.110 C 0.079 20.346,-0.139 20.965,0.096 21.426 C 0.183 21.595,9.196 31.594,9.425 31.775 C 9.800 32.070,10.200 32.070,10.575 31.775 C 10.662 31.706,12.787 29.373,15.298 26.590 C 20.365 20.974,20.025 21.383,19.990 20.941 C 19.961 20.557,19.747 20.247,19.402 20.087 C 19.251 20.017,19.231 20.017,15.625 20.008 L 12.000 19.999 12.000 10.417 C 12.000 0.905,12.000 0.835,11.933 0.657 C 11.842 0.414,11.670 0.223,11.441 0.110 L 11.250 0.017 10.050 0.009 C 8.965 0.001,8.834 0.006,8.678 0.061 " fill="#2B2C30" stroke="none" fill-rule="evenodd"></path></svg>