<svg width="36" height="36" viewBox="0 0 36 36" fill="none" xmlns="http://www.w3.org/2000/svg"><path d="M0.538 0.138 C 0.359 0.233,0.233 0.359,0.138 0.538 C 0.007 0.785,0.000 0.863,-0.000 1.986 C -0.000 2.676,0.027 3.243,0.064 3.341 C 0.158 3.592,0.476 3.893,0.717 3.960 C 0.854 3.998,5.962 4.019,15.030 4.020 L 29.130 4.020 14.867 18.285 C 4.662 28.492,0.578 32.613,0.512 32.773 C 0.398 33.050,0.395 33.306,0.504 33.557 C 0.610 33.802,2.254 35.433,2.479 35.517 C 2.716 35.605,2.966 35.595,3.227 35.488 C 3.387 35.422,7.508 31.338,17.715 21.133 L 31.980 6.870 31.980 20.970 C 31.981 30.038,32.002 35.146,32.040 35.283 C 32.107 35.524,32.408 35.842,32.659 35.936 C 32.757 35.973,33.324 36.000,34.014 36.000 C 35.137 36.000,35.215 35.993,35.462 35.862 C 35.641 35.767,35.767 35.641,35.862 35.462 L 36.000 35.201 36.000 18.000 L 36.000 0.799 35.862 0.538 C 35.767 0.359,35.641 0.233,35.462 0.138 L 35.201 0.000 18.000 -0.000 L 0.799 -0.000 0.538 0.138 " fill="#2B2C30" stroke="none" fill-rule="evenodd"></path></svg>