<svg width="36" height="36" viewBox="0 0 36 36" fill="none" xmlns="http://www.w3.org/2000/svg"><path d="M32.610 0.085 C 32.386 0.185,32.128 0.456,32.044 0.679 C 31.999 0.797,31.980 5.143,31.980 14.989 L 31.980 29.130 17.715 14.867 C 7.508 4.662,3.387 0.578,3.227 0.512 C 2.950 0.398,2.694 0.395,2.443 0.504 C 2.198 0.610,0.567 2.254,0.483 2.479 C 0.395 2.716,0.405 2.966,0.512 3.227 C 0.578 3.387,4.662 7.508,14.866 17.714 L 29.128 31.979 14.900 31.994 L 0.671 32.010 0.441 32.194 C 0.027 32.525,0.000 32.634,0.000 33.996 C 0.000 35.138,0.007 35.215,0.138 35.462 C 0.233 35.641,0.359 35.767,0.538 35.862 L 0.799 36.000 18.000 36.000 L 35.201 36.000 35.462 35.862 C 35.641 35.767,35.767 35.641,35.862 35.462 L 36.000 35.201 36.000 18.000 L 36.000 0.799 35.862 0.538 C 35.767 0.359,35.641 0.233,35.462 0.138 C 35.214 0.007,35.141 0.000,33.996 0.002 C 33.122 0.004,32.740 0.027,32.610 0.085 " fill="#2B2C30" stroke="none" fill-rule="evenodd"></path></svg>