<svg width="49" height="50" viewBox="0 0 49 50" fill="none" xmlns="http://www.w3.org/2000/svg"><path d="M24.622 0.083 C 24.533 0.123,18.976 5.624,12.274 12.307 C -0.694 25.240,-0.088 24.599,0.038 25.255 C 0.080 25.473,2.291 27.719,12.295 37.703 C 21.511 46.901,24.561 49.899,24.745 49.939 C 25.231 50.046,25.477 49.911,26.347 49.065 C 26.806 48.618,27.244 48.122,27.319 47.965 C 27.632 47.305,28.294 48.028,17.288 37.015 L 7.229 26.950 27.469 26.950 C 46.400 26.950,47.724 26.941,47.945 26.811 C 48.351 26.571,48.428 26.280,48.428 24.990 C 48.428 23.700,48.351 23.409,47.945 23.169 C 47.724 23.039,46.400 23.030,27.469 23.030 L 7.229 23.030 17.288 12.965 C 28.285 1.961,27.631 2.674,27.321 2.020 C 27.155 1.669,25.673 0.201,25.367 0.085 C 25.101 -0.016,24.847 -0.017,24.622 0.083 " fill="#2B2C30" stroke="none" fill-rule="evenodd"></path></svg>