<svg width="32" height="20" viewBox="0 0 32 20" fill="none" xmlns="http://www.w3.org/2000/svg"><path d="M20.613 0.101 C 20.365 0.216,20.137 0.443,20.057 0.657 C 20.019 0.757,20.000 1.992,20.000 4.403 L 20.000 8.000 10.425 8.000 C -0.143 8.000,0.651 7.974,0.279 8.334 C 0.184 8.426,0.082 8.587,0.053 8.691 C -0.015 8.937,-0.016 11.066,0.053 11.304 C 0.122 11.546,0.455 11.881,0.691 11.947 C 0.812 11.980,4.348 12.000,10.440 12.000 L 20.000 12.000 20.000 15.602 C 20.000 19.555,19.988 19.399,20.327 19.713 C 20.640 20.002,21.037 20.074,21.396 19.905 C 21.503 19.855,23.894 17.732,26.709 15.188 C 32.053 10.359,32.000 10.411,32.000 10.000 C 32.000 9.589,32.053 9.641,26.709 4.812 C 23.894 2.268,21.503 0.145,21.396 0.095 C 21.142 -0.024,20.880 -0.022,20.613 0.101 " fill="#2B2C30" stroke="none" fill-rule="evenodd"></path></svg>