<svg width="36" height="36" viewBox="0 0 36 36" fill="none" xmlns="http://www.w3.org/2000/svg"><path d="M0.538 0.138 C 0.359 0.233,0.233 0.359,0.138 0.538 L 0.000 0.799 -0.000 18.000 L -0.000 35.201 0.138 35.462 C 0.233 35.641,0.359 35.767,0.538 35.862 C 0.785 35.993,0.863 36.000,1.986 36.000 C 2.676 36.000,3.243 35.973,3.341 35.936 C 3.592 35.842,3.893 35.524,3.960 35.283 C 3.998 35.146,4.019 30.038,4.020 20.970 L 4.020 6.870 18.285 21.133 C 28.492 31.338,32.613 35.422,32.773 35.488 C 33.050 35.602,33.306 35.605,33.557 35.496 C 33.802 35.390,35.433 33.746,35.517 33.521 C 35.605 33.284,35.595 33.034,35.488 32.773 C 35.422 32.613,31.338 28.492,21.133 18.285 L 6.870 4.020 20.970 4.020 C 30.038 4.019,35.146 3.998,35.283 3.960 C 35.524 3.893,35.842 3.592,35.936 3.341 C 35.973 3.243,36.000 2.676,36.000 1.986 C 36.000 0.863,35.993 0.785,35.862 0.538 C 35.767 0.359,35.641 0.233,35.462 0.138 L 35.201 0.000 18.000 -0.000 L 0.799 -0.000 0.538 0.138 " fill="#2B2C30" stroke="none" fill-rule="evenodd"></path></svg>