<svg width="20" height="40" viewBox="0 0 20 40" fill="none" xmlns="http://www.w3.org/2000/svg"><path d="M9.717 0.051 C 9.643 0.078,9.512 0.157,9.425 0.225 C 9.169 0.426,0.186 10.439,0.095 10.624 C -0.013 10.844,-0.014 11.221,0.093 11.424 C 0.209 11.644,0.355 11.789,0.561 11.890 L 0.750 11.983 4.375 11.992 L 8.000 12.001 8.000 20.000 L 8.000 27.999 4.375 28.008 L 0.750 28.017 0.583 28.093 C 0.007 28.358,-0.167 28.998,0.194 29.528 C 0.308 29.696,9.116 39.496,9.343 39.708 C 9.717 40.058,10.170 40.088,10.555 39.791 C 10.790 39.609,19.796 29.571,19.893 29.384 C 19.960 29.253,19.979 29.166,19.981 28.983 C 19.985 28.584,19.791 28.286,19.401 28.092 L 19.250 28.017 15.625 28.008 L 12.000 27.999 12.000 19.999 L 12.000 12.000 15.565 12.000 C 19.084 12.000,19.133 11.999,19.314 11.931 C 19.759 11.765,20.041 11.251,19.938 10.793 C 19.916 10.694,19.850 10.543,19.791 10.459 C 19.675 10.293,10.828 0.445,10.655 0.289 C 10.387 0.048,9.993 -0.052,9.717 0.051 " fill="#2B2C30" stroke="none" fill-rule="evenodd"></path></svg>