<svg width="64" height="20" viewBox="0 0 64 20" fill="none" xmlns="http://www.w3.org/2000/svg"><path d="M10.330 0.293 C 10.129 0.455,7.746 2.598,5.034 5.056 C 2.023 7.784,0.078 9.623,0.040 9.776 C 0.005 9.914,0.005 10.140,0.040 10.278 C 0.079 10.433,2.109 12.346,5.303 15.238 L 10.503 19.947 10.993 19.947 C 11.382 19.947,11.536 19.890,11.741 19.672 L 12.000 19.396 12.032 15.725 L 12.064 12.053 32.000 12.053 L 51.936 12.053 51.968 15.725 L 52.000 19.396 52.259 19.672 C 52.464 19.890,52.618 19.947,53.007 19.947 L 53.497 19.947 58.697 15.238 C 61.891 12.346,63.921 10.433,63.960 10.278 C 63.995 10.140,63.995 9.914,63.960 9.776 C 63.922 9.624,61.992 7.797,59.029 5.110 C 56.351 2.681,53.968 0.537,53.732 0.347 C 53.190 -0.092,52.810 -0.101,52.348 0.311 L 52.000 0.622 51.969 4.311 L 51.939 8.000 32.000 8.000 L 12.061 8.000 12.031 4.311 L 12.000 0.622 11.652 0.311 C 11.209 -0.084,10.808 -0.090,10.330 0.293 " fill="#2B2C30" stroke="none" fill-rule="evenodd"></path></svg>