<svg width="20" height="20" viewBox="0 0 20 20" fill="none" xmlns="http://www.w3.org/2000/svg"><path d="M8.690 0.046 C 8.494 0.119,8.309 0.255,8.199 0.406 C 7.992 0.692,8.000 0.534,8.000 4.439 L 8.000 7.999 4.358 8.008 L 0.717 8.017 0.538 8.116 C 0.314 8.239,0.154 8.425,0.065 8.661 C 0.000 8.835,-0.003 8.902,0.007 10.064 C 0.016 11.256,0.018 11.286,0.092 11.424 C 0.210 11.645,0.355 11.789,0.561 11.890 L 0.750 11.983 4.374 11.992 L 7.999 12.001 8.008 15.626 L 8.017 19.250 8.110 19.440 C 8.356 19.941,8.890 20.126,9.386 19.883 C 9.512 19.822,10.955 18.544,14.622 15.246 C 17.406 12.742,19.732 10.632,19.791 10.555 C 20.069 10.195,20.064 9.793,19.775 9.425 C 19.574 9.169,9.557 0.184,9.374 0.095 C 9.182 0.002,8.869 -0.020,8.690 0.046 " fill="#2B2C30" stroke="none" fill-rule="evenodd"></path></svg>