<svg width="20" height="20" viewBox="0 0 20 20" fill="none" xmlns="http://www.w3.org/2000/svg"><path d="M8.678 0.062 C 8.368 0.169,8.117 0.430,8.033 0.732 C 8.013 0.806,8.000 2.188,8.000 4.424 L 8.000 7.999 4.375 8.008 L 0.750 8.017 0.583 8.093 C 0.007 8.358,-0.167 8.998,0.194 9.528 C 0.308 9.696,9.116 19.496,9.343 19.708 C 9.717 20.058,10.170 20.088,10.555 19.791 C 10.790 19.609,19.796 9.571,19.893 9.384 C 19.960 9.253,19.979 9.166,19.981 8.983 C 19.985 8.584,19.791 8.286,19.401 8.092 L 19.250 8.017 15.626 8.008 L 12.001 7.999 11.992 4.374 L 11.983 0.750 11.888 0.556 C 11.825 0.427,11.739 0.320,11.628 0.232 C 11.348 0.011,11.270 -0.000,9.986 0.001 C 8.984 0.002,8.830 0.009,8.678 0.062 " fill="#2B2C30" stroke="none" fill-rule="evenodd"></path></svg>