<svg width="52" height="56" viewBox="0 0 52 56" fill="none" xmlns="http://www.w3.org/2000/svg"><path d="M22.565 0.111 C 22.371 0.222,13.170 8.499,12.458 9.204 C 12.111 9.548,12.047 9.663,12.047 9.941 C 12.047 10.122,12.116 10.374,12.199 10.501 C 12.370 10.763,22.249 19.695,22.539 19.850 C 22.781 19.979,23.239 19.979,23.481 19.850 C 23.584 19.794,23.745 19.625,23.838 19.473 C 23.997 19.211,24.006 19.008,24.006 15.578 L 24.007 11.960 27.497 11.960 L 30.988 11.960 32.130 9.988 L 33.272 8.017 28.639 7.994 L 24.007 7.972 24.007 4.411 C 24.007 0.450,24.000 0.400,23.445 0.137 C 23.104 -0.025,22.819 -0.033,22.565 0.111 M42.154 0.057 C 42.053 0.078,41.872 0.201,41.751 0.329 C 41.364 0.742,10.906 53.574,10.863 53.907 C 10.798 54.412,11.048 54.683,12.177 55.331 C 12.735 55.652,13.314 55.932,13.464 55.954 C 14.152 56.057,13.030 57.916,29.662 29.120 C 38.100 14.510,45.046 2.408,45.098 2.226 C 45.260 1.657,45.029 1.376,43.820 0.675 C 42.806 0.087,42.516 -0.021,42.154 0.057 M45.783 8.082 C 45.666 8.230,43.688 11.665,43.625 11.829 C 43.581 11.945,44.027 11.960,47.472 11.960 C 51.216 11.960,51.378 11.953,51.587 11.790 C 51.958 11.498,52.015 11.218,51.985 9.855 C 51.942 7.923,52.037 7.973,48.460 7.973 C 46.490 7.973,45.847 7.999,45.783 8.082 M10.519 16.145 C 10.107 16.381,0.176 25.437,0.083 25.662 C -0.042 25.963,0.035 26.327,0.284 26.619 C 0.517 26.893,10.180 35.607,10.484 35.818 C 10.602 35.900,10.850 35.967,11.035 35.967 C 11.301 35.967,11.432 35.906,11.665 35.672 L 11.960 35.377 11.960 31.685 L 11.960 27.993 16.846 27.993 L 21.731 27.993 22.870 26.022 L 24.008 24.050 18.006 24.007 L 12.003 23.963 11.960 20.251 L 11.917 16.539 11.634 16.286 C 11.324 16.010,10.859 15.951,10.519 16.145 M36.287 24.505 C 35.679 25.519,34.320 27.895,34.320 27.944 C 34.320 27.971,38.107 27.993,42.735 27.993 C 52.064 27.993,51.583 28.023,51.863 27.432 C 52.055 27.027,52.059 24.892,51.869 24.524 C 51.589 23.984,51.943 24.007,43.907 24.007 L 36.586 24.007 36.287 24.505 M14.127 39.655 C 12.079 41.498,12.048 41.533,12.047 42.015 C 12.047 42.343,12.094 42.432,12.445 42.773 C 12.663 42.986,12.872 43.160,12.909 43.160 C 12.945 43.160,13.553 42.156,14.261 40.928 C 14.968 39.701,15.621 38.570,15.712 38.415 C 15.803 38.260,15.864 38.134,15.847 38.134 C 15.830 38.134,15.056 38.819,14.127 39.655 M26.600 41.275 C 26.208 41.954,25.699 42.832,25.469 43.225 L 25.050 43.940 38.210 43.940 C 51.163 43.940,51.373 43.937,51.587 43.770 C 51.959 43.477,52.015 43.199,51.985 41.819 L 51.957 40.545 51.674 40.293 L 51.391 40.040 39.352 40.040 L 27.313 40.040 26.600 41.275 M22.561 48.233 L 21.160 50.657 21.738 51.194 C 22.697 52.085,23.183 52.196,23.710 51.647 L 23.963 51.382 23.989 49.373 C 24.003 48.268,24.003 47.014,23.989 46.586 L 23.963 45.809 22.561 48.233 " fill="#2B2C30" stroke="none" fill-rule="evenodd"></path></svg>