<svg width="40" height="20" viewBox="0 0 40 20" fill="none" xmlns="http://www.w3.org/2000/svg"><path d="M10.633 0.128 C 10.481 0.199,8.169 2.233,5.253 4.859 C 0.728 8.935,0.130 9.496,0.059 9.733 C -0.121 10.334,-0.372 10.074,5.270 15.150 C 8.092 17.689,10.513 19.820,10.651 19.885 C 11.136 20.116,11.650 19.930,11.871 19.445 C 11.990 19.183,11.997 18.956,11.999 15.583 L 12.000 12.000 20.000 12.000 L 28.000 12.000 28.001 15.583 C 28.003 18.956,28.010 19.183,28.129 19.445 C 28.350 19.930,28.864 20.116,29.349 19.885 C 29.485 19.820,31.907 17.689,34.729 15.150 C 39.270 11.066,39.870 10.503,39.941 10.267 C 40.121 9.668,40.367 9.925,34.748 4.863 C 31.935 2.330,29.516 0.196,29.372 0.121 C 28.903 -0.122,28.383 0.050,28.123 0.534 C 28.008 0.750,28.000 0.989,28.000 4.382 L 28.000 8.000 20.000 8.000 L 12.000 8.000 12.000 4.383 C 12.000 0.352,12.012 0.467,11.540 0.151 C 11.266 -0.032,10.989 -0.039,10.633 0.128 " fill="#2B2C30" stroke="none" fill-rule="evenodd"></path></svg>