<svg width="48" height="20" viewBox="0 0 48 20" fill="none" xmlns="http://www.w3.org/2000/svg"><path d="M10.520 0.150 C 10.076 0.426,0.198 9.413,0.098 9.632 C 0.044 9.750,0.000 9.916,0.000 10.000 C 0.000 10.084,0.044 10.250,0.098 10.368 C 0.198 10.587,10.076 19.574,10.520 19.850 C 10.829 20.042,11.174 20.040,11.496 19.843 C 12.006 19.532,12.000 19.582,12.000 15.604 L 12.000 12.000 24.000 12.000 L 36.000 12.000 36.000 15.604 C 36.000 19.582,35.994 19.532,36.504 19.843 C 36.826 20.040,37.171 20.042,37.480 19.850 C 37.924 19.574,47.802 10.587,47.902 10.368 C 48.026 10.096,48.026 9.904,47.902 9.633 C 47.803 9.416,37.921 0.424,37.480 0.150 C 37.348 0.068,37.128 0.000,36.992 0.000 C 36.696 -0.000,36.242 0.287,36.102 0.562 C 36.027 0.712,36.002 1.645,36.001 4.380 L 36.000 8.000 24.000 8.000 L 12.000 8.000 12.000 4.380 C 11.999 0.931,11.992 0.748,11.843 0.504 C 11.551 0.024,10.972 -0.131,10.520 0.150 " fill="#2B2C30" stroke="none" fill-rule="evenodd"></path></svg>