<svg width="40" height="40" viewBox="0 0 40 40" fill="none" xmlns="http://www.w3.org/2000/svg"><path d="M10.524 0.150 C 10.142 0.386,0.204 9.398,0.097 9.607 C -0.024 9.841,-0.026 10.075,0.091 10.356 C 0.154 10.507,1.745 11.986,5.233 15.137 C 8.010 17.647,10.392 19.767,10.525 19.850 C 10.831 20.039,11.095 20.040,11.464 19.850 C 12.021 19.565,12.000 19.729,12.000 15.618 L 12.000 12.000 21.607 12.000 C 32.241 12.000,31.493 12.031,31.818 11.575 C 31.957 11.380,31.968 11.286,31.987 10.085 C 32.011 8.598,31.971 8.439,31.502 8.164 L 31.222 8.000 21.611 8.000 L 12.000 8.000 12.000 4.382 C 12.000 0.307,12.017 0.452,11.493 0.151 C 11.162 -0.039,10.831 -0.039,10.524 0.150 M28.542 20.144 C 28.328 20.250,28.217 20.362,28.127 20.561 C 28.011 20.815,28.003 21.071,28.001 24.417 L 28.000 28.000 18.421 28.000 C 8.885 28.000,8.841 28.001,8.558 28.137 C 8.352 28.237,8.237 28.352,8.137 28.558 C 8.015 28.811,8.000 28.967,8.000 30.000 C 8.000 31.033,8.015 31.189,8.137 31.442 C 8.237 31.648,8.352 31.763,8.558 31.863 C 8.841 31.999,8.885 32.000,18.421 32.000 L 28.000 32.000 28.000 35.579 C 28.000 39.056,28.004 39.166,28.137 39.442 C 28.237 39.648,28.352 39.763,28.558 39.863 C 28.907 40.031,29.102 40.035,29.407 39.880 C 29.784 39.688,39.769 30.634,39.893 30.372 C 40.028 30.088,40.028 29.912,39.893 29.629 C 39.767 29.363,29.876 20.385,29.451 20.150 C 29.111 19.962,28.912 19.961,28.542 20.144 " fill="#2B2C30" stroke="none" fill-rule="evenodd"></path></svg>