<svg width="40" height="32" viewBox="0 0 40 32" fill="none" xmlns="http://www.w3.org/2000/svg"><path d="M10.524 0.150 C 10.110 0.406,0.309 9.139,0.150 9.393 C -0.049 9.712,-0.039 9.982,0.183 10.315 C 0.424 10.675,10.354 19.721,10.642 19.841 C 10.941 19.966,11.108 19.957,11.433 19.800 C 11.609 19.715,11.762 19.573,11.854 19.408 C 11.999 19.150,12.000 19.125,12.000 15.577 L 12.000 12.005 15.617 11.986 C 19.095 11.967,19.242 11.962,19.460 11.833 C 19.941 11.550,19.965 11.470,19.985 10.045 C 20.006 8.606,19.966 8.436,19.540 8.151 L 19.314 8.000 15.657 8.000 L 12.000 8.000 12.000 4.382 C 12.000 0.279,12.021 0.445,11.466 0.152 C 11.104 -0.040,10.833 -0.040,10.524 0.150 M28.553 12.005 C 28.353 12.104,28.234 12.225,28.137 12.426 C 28.004 12.700,28.000 12.815,28.000 16.288 L 28.000 19.867 24.343 19.867 L 20.686 19.867 20.460 20.018 C 20.048 20.293,20.000 20.483,20.000 21.833 C 20.000 23.183,20.048 23.374,20.460 23.649 L 20.686 23.800 24.343 23.800 L 28.000 23.800 28.000 27.379 C 28.000 30.856,28.004 30.966,28.137 31.242 C 28.237 31.448,28.352 31.563,28.558 31.663 C 28.892 31.824,29.058 31.833,29.362 31.706 C 29.697 31.566,39.663 22.582,39.860 22.242 C 40.048 21.919,40.022 21.598,39.784 21.295 C 39.533 20.976,29.647 12.109,29.403 11.985 C 29.101 11.831,28.896 11.836,28.553 12.005 " fill="#2B2C30" stroke="none" fill-rule="evenodd"></path></svg>