<svg width="48" height="44" viewBox="0 0 48 44" fill="none" xmlns="http://www.w3.org/2000/svg"><path d="M1.334 0.130 C 0.798 0.294,0.289 0.815,0.125 1.367 C -0.059 1.988,-0.062 10.002,0.122 10.621 C 0.346 11.376,1.196 12.000,2.000 12.000 C 2.475 12.000,3.028 11.759,3.394 11.394 C 3.896 10.891,4.000 10.499,4.000 9.105 L 4.000 8.000 24.000 8.000 L 44.000 8.000 44.000 9.105 C 44.000 10.499,44.104 10.891,44.606 11.394 C 44.972 11.759,45.525 12.000,46.000 12.000 C 46.804 12.000,47.654 11.376,47.878 10.621 C 48.059 10.011,48.059 1.989,47.878 1.379 C 47.654 0.624,46.804 0.000,46.000 0.000 C 45.529 -0.000,44.948 0.248,44.598 0.598 C 44.110 1.086,44.000 1.508,44.000 2.895 L 44.000 4.000 24.000 4.000 L 4.000 4.000 4.000 2.895 C 4.000 1.501,3.896 1.109,3.394 0.606 C 2.832 0.045,2.135 -0.116,1.334 0.130 M5.334 16.130 C 4.606 16.353,4.000 17.203,4.000 18.000 C 4.000 18.804,4.624 19.654,5.379 19.878 C 5.739 19.985,7.511 20.000,20.000 20.000 C 32.489 20.000,34.261 19.985,34.621 19.878 C 35.376 19.654,36.000 18.804,36.000 18.000 C 36.000 17.196,35.376 16.346,34.621 16.122 C 34.260 16.015,32.497 16.001,19.965 16.006 C 7.609 16.010,5.669 16.027,5.334 16.130 M5.334 24.130 C 4.606 24.353,4.000 25.203,4.000 26.000 C 4.000 26.804,4.624 27.654,5.379 27.878 C 5.997 28.062,22.003 28.062,22.621 27.878 C 23.376 27.654,24.000 26.804,24.000 26.000 C 24.000 25.196,23.376 24.346,22.621 24.122 C 22.013 23.941,5.923 23.949,5.334 24.130 M5.334 32.130 C 4.606 32.353,4.000 33.203,4.000 34.000 C 4.000 34.804,4.624 35.654,5.379 35.878 C 5.737 35.984,7.092 36.000,16.000 36.000 C 24.908 36.000,26.263 35.984,26.621 35.878 C 27.376 35.654,28.000 34.804,28.000 34.000 C 28.000 33.196,27.376 32.346,26.621 32.122 C 26.011 31.941,5.925 31.948,5.334 32.130 M5.334 40.130 C 4.606 40.353,4.000 41.203,4.000 42.000 C 4.000 42.804,4.624 43.654,5.379 43.878 C 5.989 44.059,14.011 44.059,14.621 43.878 C 15.376 43.654,16.000 42.804,16.000 42.000 C 16.000 41.196,15.376 40.346,14.621 40.122 C 14.021 39.944,5.916 39.951,5.334 40.130 " fill="#2B2C30" stroke="none" fill-rule="evenodd"></path></svg>