<svg width="32" height="36" viewBox="0 0 32 36" fill="none" xmlns="http://www.w3.org/2000/svg"><path d="M10.640 0.071 C 10.552 0.111,9.772 0.779,8.907 1.556 C 0.872 8.766,0.234 9.347,0.120 9.557 C -0.029 9.829,-0.034 10.137,0.106 10.423 C 0.186 10.588,1.429 11.735,5.282 15.200 C 8.071 17.708,10.454 19.816,10.577 19.885 C 11.039 20.142,11.613 19.934,11.880 19.412 L 12.000 19.177 12.000 15.589 L 12.000 12.000 20.000 12.000 L 27.999 12.000 28.013 23.671 L 28.027 35.341 28.155 35.529 C 28.226 35.632,28.368 35.774,28.471 35.845 C 28.657 35.972,28.670 35.973,30.005 35.973 L 31.350 35.973 31.555 35.810 C 31.668 35.721,31.814 35.541,31.880 35.412 L 32.000 35.177 32.000 23.400 C 32.000 10.477,32.020 11.277,31.683 10.461 C 31.221 9.339,30.282 8.522,28.987 8.114 C 28.749 8.039,27.797 8.028,20.361 8.014 L 12.003 7.998 11.988 4.328 L 11.973 0.659 11.846 0.473 C 11.776 0.371,11.635 0.233,11.533 0.166 C 11.304 0.015,10.864 -0.031,10.640 0.071 " fill="#2B2C30" stroke="none" fill-rule="evenodd"></path></svg>