<svg width="40" height="56" viewBox="0 0 40 56" fill="none" xmlns="http://www.w3.org/2000/svg"><path d="M15.133 0.104 C 13.667 0.420,12.410 1.689,12.100 3.167 C 12.046 3.423,12.002 3.716,12.001 3.817 L 12.000 4.000 7.817 4.001 C 4.396 4.002,3.548 4.020,3.167 4.100 C 1.673 4.414,0.414 5.673,0.100 7.167 C -0.048 7.872,-0.048 52.128,0.100 52.833 C 0.414 54.327,1.673 55.586,3.167 55.900 C 3.869 56.047,36.128 56.047,36.833 55.900 C 38.310 55.591,39.591 54.310,39.900 52.833 C 40.047 52.129,40.047 7.871,39.900 7.167 C 39.590 5.683,38.319 4.412,36.833 4.100 C 36.452 4.020,35.604 4.002,32.183 4.001 L 28.000 4.000 27.999 3.817 C 27.998 3.716,27.954 3.423,27.900 3.167 C 27.590 1.683,26.319 0.412,24.833 0.100 C 24.164 -0.040,15.787 -0.037,15.133 0.104 M36.000 30.000 L 36.000 52.000 20.000 52.000 L 4.000 52.000 4.000 30.000 L 4.000 8.000 20.000 8.000 L 36.000 8.000 36.000 30.000 M8.553 20.139 C 8.073 20.376,8.000 20.622,8.000 22.000 C 8.000 23.033,8.015 23.189,8.137 23.442 C 8.237 23.648,8.352 23.763,8.558 23.863 C 8.841 24.000,8.870 24.000,20.000 24.000 C 31.130 24.000,31.159 24.000,31.442 23.863 C 31.648 23.763,31.763 23.648,31.863 23.442 C 31.985 23.189,32.000 23.033,32.000 22.000 C 32.000 20.967,31.985 20.811,31.863 20.558 C 31.763 20.352,31.648 20.237,31.442 20.137 C 31.159 20.000,31.130 20.000,19.996 20.000 L 8.833 20.000 8.553 20.139 M8.553 28.139 C 8.073 28.376,8.000 28.622,8.000 30.000 C 8.000 31.033,8.015 31.189,8.137 31.442 C 8.237 31.648,8.352 31.763,8.558 31.863 C 8.841 32.000,8.870 32.000,20.000 32.000 C 31.130 32.000,31.159 32.000,31.442 31.863 C 31.648 31.763,31.763 31.648,31.863 31.442 C 31.985 31.189,32.000 31.033,32.000 30.000 C 32.000 28.967,31.985 28.811,31.863 28.558 C 31.763 28.352,31.648 28.237,31.442 28.137 C 31.159 28.000,31.130 28.000,19.996 28.000 L 8.833 28.000 8.553 28.139 M8.553 36.139 C 8.073 36.376,8.000 36.622,8.000 38.000 C 8.000 39.033,8.015 39.189,8.137 39.442 C 8.237 39.648,8.352 39.763,8.558 39.863 C 8.841 40.000,8.870 40.000,20.000 40.000 C 31.130 40.000,31.159 40.000,31.442 39.863 C 31.648 39.763,31.763 39.648,31.863 39.442 C 31.985 39.189,32.000 39.033,32.000 38.000 C 32.000 36.967,31.985 36.811,31.863 36.558 C 31.763 36.352,31.648 36.237,31.442 36.137 C 31.159 36.000,31.130 36.000,19.996 36.000 L 8.833 36.000 8.553 36.139 M8.507 44.151 C 8.034 44.422,7.993 44.582,8.014 46.067 C 8.032 47.288,8.042 47.379,8.182 47.575 C 8.509 48.033,7.584 48.000,20.000 48.000 C 32.416 48.000,31.491 48.033,31.818 47.575 C 31.957 47.380,31.968 47.286,31.987 46.085 C 32.011 44.598,31.971 44.439,31.502 44.164 L 31.222 44.000 19.994 44.001 L 8.767 44.002 8.507 44.151 " fill="#2B2C30" stroke="none" fill-rule="evenodd"></path></svg>