<svg width="40" height="56" viewBox="0 0 40 56" fill="none" xmlns="http://www.w3.org/2000/svg"><path d="M15.133 0.104 C 13.667 0.420,12.410 1.689,12.100 3.167 C 12.046 3.423,12.002 3.716,12.001 3.817 L 12.000 4.000 7.817 4.001 C 4.396 4.002,3.548 4.020,3.167 4.100 C 1.673 4.414,0.414 5.673,0.100 7.167 C -0.048 7.872,-0.048 52.128,0.100 52.833 C 0.414 54.327,1.673 55.586,3.167 55.900 C 3.869 56.047,36.128 56.047,36.833 55.900 C 38.310 55.591,39.591 54.310,39.900 52.833 C 40.047 52.129,40.047 7.871,39.900 7.167 C 39.590 5.683,38.319 4.412,36.833 4.100 C 36.452 4.020,35.604 4.002,32.183 4.001 L 28.000 4.000 27.999 3.817 C 27.998 3.716,27.954 3.423,27.900 3.167 C 27.590 1.683,26.319 0.412,24.833 0.100 C 24.164 -0.040,15.787 -0.037,15.133 0.104 M36.000 30.000 L 36.000 52.000 20.000 52.000 L 4.000 52.000 4.000 30.000 L 4.000 8.000 20.000 8.000 L 36.000 8.000 36.000 30.000 M18.334 12.123 C 18.208 12.191,18.052 12.319,17.989 12.407 C 17.881 12.555,12.119 30.122,12.027 30.580 C 11.972 30.856,12.101 31.225,12.350 31.509 C 12.758 31.973,12.694 31.963,15.508 32.000 L 18.049 32.033 15.057 39.928 C 13.412 44.269,12.076 47.832,12.089 47.844 C 12.137 47.892,29.945 26.054,30.037 25.836 C 30.283 25.246,29.985 24.481,29.381 24.151 C 29.186 24.044,28.842 24.030,25.654 24.000 L 22.141 23.967 24.402 18.800 C 25.646 15.958,26.664 13.547,26.665 13.441 C 26.670 12.872,26.201 12.214,25.690 12.072 C 25.523 12.026,24.231 12.001,21.999 12.000 C 18.783 12.000,18.550 12.008,18.334 12.123 " fill="#2B2C30" stroke="none" fill-rule="evenodd"></path></svg>