<svg width="40" height="56" viewBox="0 0 40 56" fill="none" xmlns="http://www.w3.org/2000/svg"><path d="M15.133 0.104 C 13.667 0.420,12.410 1.689,12.100 3.167 C 12.046 3.423,12.002 3.716,12.001 3.817 L 12.000 4.000 7.817 4.001 C 4.396 4.002,3.548 4.020,3.167 4.100 C 1.673 4.414,0.414 5.673,0.100 7.167 C -0.048 7.872,-0.048 52.128,0.100 52.833 C 0.414 54.327,1.673 55.586,3.167 55.900 C 3.869 56.047,36.128 56.047,36.833 55.900 C 38.310 55.591,39.591 54.310,39.900 52.833 C 40.047 52.129,40.047 7.871,39.900 7.167 C 39.590 5.683,38.319 4.412,36.833 4.100 C 36.452 4.020,35.604 4.002,32.183 4.001 L 28.000 4.000 27.999 3.817 C 27.998 3.716,27.954 3.423,27.900 3.167 C 27.590 1.683,26.319 0.412,24.833 0.100 C 24.164 -0.040,15.787 -0.037,15.133 0.104 M36.000 30.000 L 36.000 52.000 20.000 52.000 L 4.000 52.000 4.000 30.000 L 4.000 8.000 20.000 8.000 L 36.000 8.000 36.000 30.000 M8.507 28.151 C 8.034 28.422,7.993 28.582,8.014 30.067 C 8.032 31.288,8.042 31.379,8.182 31.575 C 8.509 32.033,7.584 32.000,20.000 32.000 C 32.416 32.000,31.491 32.033,31.818 31.575 C 31.957 31.380,31.968 31.286,31.987 30.085 C 32.011 28.598,31.971 28.439,31.502 28.164 L 31.222 28.000 19.994 28.001 L 8.767 28.002 8.507 28.151 M8.553 36.139 C 8.073 36.376,8.000 36.622,8.000 38.000 C 8.000 39.033,8.015 39.189,8.137 39.442 C 8.237 39.648,8.352 39.763,8.558 39.863 C 8.841 40.000,8.870 40.000,20.000 40.000 C 31.130 40.000,31.159 40.000,31.442 39.863 C 31.648 39.763,31.763 39.648,31.863 39.442 C 31.985 39.189,32.000 39.033,32.000 38.000 C 32.000 36.967,31.985 36.811,31.863 36.558 C 31.763 36.352,31.648 36.237,31.442 36.137 C 31.159 36.000,31.130 36.000,19.996 36.000 L 8.833 36.000 8.553 36.139 M8.553 44.139 C 8.073 44.376,8.000 44.622,8.000 46.000 C 8.000 47.033,8.015 47.189,8.137 47.442 C 8.237 47.648,8.352 47.763,8.558 47.863 C 8.841 48.000,8.870 48.000,20.000 48.000 C 31.130 48.000,31.159 48.000,31.442 47.863 C 31.648 47.763,31.763 47.648,31.863 47.442 C 31.985 47.189,32.000 47.033,32.000 46.000 C 32.000 44.967,31.985 44.811,31.863 44.558 C 31.763 44.352,31.648 44.237,31.442 44.137 C 31.159 44.000,31.130 44.000,19.996 44.000 L 8.833 44.000 8.553 44.139 " fill="#2B2C30" stroke="none" fill-rule="evenodd"></path></svg>