<svg width="40" height="56" viewBox="0 0 40 56" fill="none" xmlns="http://www.w3.org/2000/svg"><path d="M15.133 0.104 C 13.667 0.420,12.410 1.689,12.100 3.167 C 12.046 3.423,12.002 3.716,12.001 3.817 L 12.000 4.000 7.817 4.001 C 4.396 4.002,3.548 4.020,3.167 4.100 C 1.673 4.414,0.414 5.673,0.100 7.167 C -0.048 7.872,-0.048 52.128,0.100 52.833 C 0.414 54.327,1.673 55.586,3.167 55.900 C 3.869 56.047,36.128 56.047,36.833 55.900 C 38.310 55.591,39.591 54.310,39.900 52.833 C 40.047 52.129,40.047 7.871,39.900 7.167 C 39.590 5.683,38.319 4.412,36.833 4.100 C 36.452 4.020,35.604 4.002,32.183 4.001 L 28.000 4.000 27.999 3.817 C 27.998 3.716,27.954 3.423,27.900 3.167 C 27.590 1.683,26.319 0.412,24.833 0.100 C 24.164 -0.040,15.787 -0.037,15.133 0.104 M36.000 30.000 L 36.000 52.000 20.000 52.000 L 4.000 52.000 4.000 30.000 L 4.000 8.000 20.000 8.000 L 36.000 8.000 36.000 30.000 M8.507 44.151 C 8.034 44.422,7.993 44.582,8.014 46.067 C 8.032 47.288,8.042 47.379,8.182 47.575 C 8.509 48.033,7.584 48.000,20.000 48.000 C 32.416 48.000,31.491 48.033,31.818 47.575 C 31.957 47.380,31.968 47.286,31.987 46.085 C 32.011 44.598,31.971 44.439,31.502 44.164 L 31.222 44.000 19.994 44.001 L 8.767 44.002 8.507 44.151 " fill="#2B2C30" stroke="none" fill-rule="evenodd"></path></svg>