<svg width="56" height="20" viewBox="0 0 56 20" fill="none" xmlns="http://www.w3.org/2000/svg"><path d="M0.607 0.088 C 0.504 0.130,0.336 0.258,0.233 0.372 C 0.049 0.577,0.047 0.711,0.047 9.994 L 0.047 19.409 0.305 19.668 L 0.564 19.927 28.000 19.927 L 55.436 19.927 55.695 19.668 L 55.953 19.409 55.953 9.987 L 55.953 0.564 55.695 0.305 L 55.436 0.047 28.115 0.029 C 13.088 0.019,0.709 0.046,0.607 0.088 M51.987 9.987 L 51.987 15.960 28.000 15.960 L 4.013 15.960 4.013 9.987 L 4.013 4.013 28.000 4.013 L 51.987 4.013 51.987 9.987 M8.434 8.192 C 8.081 8.478,8.027 8.719,8.027 9.987 C 8.027 11.889,8.081 11.942,10.017 11.945 L 11.401 11.947 11.674 11.674 L 11.947 11.401 11.947 9.987 L 11.947 8.572 11.674 8.299 L 11.401 8.027 10.017 8.029 C 8.847 8.030,8.603 8.056,8.434 8.192 M28.506 8.133 C 28.088 8.336,28.000 8.667,28.000 10.034 L 28.000 11.312 28.317 11.629 L 28.635 11.947 38.001 11.945 C 46.734 11.943,47.380 11.932,47.566 11.781 C 47.919 11.495,47.973 11.254,47.973 9.987 C 47.973 8.719,47.919 8.478,47.566 8.192 C 47.380 8.042,46.741 8.031,38.033 8.035 C 31.954 8.038,28.632 8.072,28.506 8.133 " fill="#2B2C30" stroke="none" fill-rule="evenodd"></path></svg>