<svg width="56" height="52" viewBox="0 0 56 52" fill="none" xmlns="http://www.w3.org/2000/svg"><path d="M16.462 0.178 C 16.302 0.276,16.124 0.492,16.066 0.658 C 15.988 0.880,15.960 6.593,15.960 21.997 C 15.960 44.704,15.933 43.454,16.438 43.808 C 16.615 43.932,16.911 43.960,18.041 43.960 L 19.428 43.960 19.701 43.687 L 19.973 43.414 19.973 22.025 L 19.973 0.635 19.656 0.317 L 19.339 0.000 18.046 0.000 C 16.940 0.001,16.711 0.026,16.462 0.178 M28.351 8.299 L 28.047 8.571 28.047 25.993 L 28.047 43.415 28.351 43.688 L 28.656 43.960 30.007 43.960 L 31.357 43.960 31.662 43.688 L 31.967 43.415 31.967 25.993 L 31.967 8.571 31.662 8.299 L 31.357 8.027 30.007 8.027 L 28.656 8.027 28.351 8.299 M4.457 16.154 C 3.994 16.423,4.013 15.832,4.013 30.011 C 4.013 42.178,4.026 43.252,4.169 43.494 C 4.407 43.898,4.657 43.960,6.058 43.960 C 7.527 43.960,7.749 43.874,7.935 43.232 C 8.005 42.992,8.027 38.892,8.008 29.756 L 7.980 16.626 7.706 16.339 L 7.432 16.053 6.026 16.056 C 5.246 16.058,4.547 16.101,4.457 16.154 M38.267 20.194 C 36.875 20.946,36.443 21.250,36.272 21.595 C 36.114 21.915,36.110 21.980,36.232 22.291 C 36.489 22.944,48.370 43.448,48.639 43.703 C 49.073 44.115,49.398 44.057,50.639 43.344 C 51.743 42.710,51.987 42.459,51.987 41.953 C 51.987 41.694,39.899 20.649,39.540 20.283 C 39.222 19.959,38.760 19.927,38.267 20.194 M0.506 48.149 C 0.055 48.424,-0.019 48.726,0.016 50.155 C 0.046 51.398,0.052 51.428,0.305 51.681 L 0.564 51.940 28.000 51.940 L 55.436 51.940 55.695 51.681 C 55.949 51.427,55.954 51.401,55.984 50.127 C 56.008 49.081,55.985 48.775,55.865 48.544 C 55.545 47.924,57.936 47.973,27.981 47.974 C 1.547 47.974,0.785 47.979,0.506 48.149 " fill="#2B2C30" stroke="none" fill-rule="evenodd"></path></svg>