<svg width="64" height="48" viewBox="0 0 64 48" fill="none" xmlns="http://www.w3.org/2000/svg"><path d="M30.937 0.171 C 29.451 0.570,28.353 1.789,28.062 3.360 C 27.747 5.068,28.735 6.887,30.400 7.663 C 30.900 7.895,31.137 7.936,32.000 7.936 C 32.863 7.936,33.100 7.895,33.600 7.663 C 35.265 6.887,36.253 5.068,35.938 3.360 C 35.643 1.765,34.544 0.563,33.017 0.165 C 32.242 -0.036,31.702 -0.035,30.937 0.171 M32.713 2.140 C 33.439 2.415,33.950 3.183,33.950 4.000 C 33.950 5.725,31.922 6.631,30.684 5.460 C 30.238 5.038,30.050 4.605,30.050 4.000 C 30.050 3.201,30.554 2.424,31.253 2.146 C 31.612 2.004,32.344 2.001,32.713 2.140 M16.907 10.170 C 16.116 10.432,15.609 10.758,15.064 11.354 C 14.458 12.017,14.144 12.733,14.031 13.707 L 13.957 14.347 9.821 17.359 L 5.686 20.371 5.187 20.202 C 4.427 19.943,3.103 20.032,2.322 20.396 C -0.171 21.555,-0.751 24.857,1.197 26.807 C 1.942 27.552,2.717 27.881,3.840 27.927 C 4.925 27.972,5.682 27.735,6.488 27.098 C 7.375 26.397,8.000 25.113,8.000 23.992 L 8.000 23.601 12.080 20.632 C 14.324 19.000,16.232 17.671,16.320 17.680 C 16.408 17.688,16.792 17.770,17.173 17.860 C 17.919 18.037,18.503 18.005,19.336 17.742 L 19.845 17.581 21.000 18.417 C 21.635 18.877,23.476 20.213,25.091 21.387 L 28.028 23.520 28.076 24.336 C 28.136 25.359,28.505 26.138,29.272 26.861 C 30.160 27.698,30.676 27.893,32.000 27.893 C 33.026 27.893,33.171 27.867,33.735 27.582 C 34.074 27.410,34.580 27.026,34.861 26.728 C 35.560 25.986,35.863 25.318,35.923 24.383 L 35.971 23.624 40.112 20.612 C 44.072 17.731,44.265 17.605,44.553 17.715 C 45.603 18.119,46.873 18.026,47.922 17.469 C 49.722 16.512,50.465 14.250,49.612 12.322 C 49.292 11.598,48.428 10.746,47.650 10.387 C 47.067 10.117,46.864 10.080,45.973 10.080 C 45.068 10.080,44.892 10.113,44.321 10.394 C 43.044 11.021,42.182 12.238,42.045 13.610 L 41.973 14.331 38.187 17.088 C 36.104 18.604,34.232 19.962,34.026 20.105 C 33.672 20.353,33.630 20.358,33.226 20.214 C 32.693 20.025,31.327 20.017,30.811 20.202 L 30.422 20.341 26.224 17.287 L 22.027 14.234 21.951 13.554 C 21.804 12.226,20.930 11.007,19.690 10.400 C 19.187 10.154,18.892 10.087,18.198 10.061 C 17.677 10.041,17.164 10.085,16.907 10.170 M58.531 20.307 C 57.750 20.634,57.079 21.183,56.659 21.837 C 56.304 22.390,56.000 23.388,56.000 24.000 C 56.000 25.113,56.628 26.399,57.512 27.098 C 58.318 27.735,59.075 27.972,60.160 27.927 C 61.283 27.881,62.058 27.552,62.803 26.807 C 64.751 24.857,64.172 21.558,61.678 20.395 C 60.789 19.979,59.404 19.940,58.531 20.307 M60.747 22.176 C 61.534 22.540,61.973 23.193,61.973 24.000 C 61.973 24.227,61.922 24.548,61.860 24.713 C 61.609 25.376,60.691 26.022,60.000 26.022 C 59.214 26.022,58.211 25.218,58.072 24.476 C 57.889 23.497,58.285 22.668,59.141 22.238 C 59.767 21.924,60.169 21.908,60.747 22.176 M17.173 30.117 C 14.673 30.672,13.346 33.321,14.388 35.678 C 14.708 36.402,15.572 37.254,16.350 37.613 C 16.933 37.883,17.136 37.920,18.027 37.920 C 18.932 37.920,19.108 37.887,19.679 37.606 C 20.492 37.207,21.207 36.492,21.606 35.679 C 21.887 35.108,21.920 34.932,21.920 34.027 C 21.920 33.134,21.883 32.934,21.611 32.343 C 20.843 30.682,18.938 29.726,17.173 30.117 M45.320 30.082 C 44.086 30.290,42.922 31.190,42.387 32.350 C 42.117 32.933,42.080 33.136,42.080 34.027 C 42.080 34.932,42.113 35.108,42.394 35.679 C 42.793 36.492,43.508 37.207,44.321 37.606 C 44.892 37.887,45.068 37.920,45.973 37.920 C 46.864 37.920,47.067 37.883,47.650 37.613 C 49.272 36.864,50.223 35.067,49.911 33.340 C 49.605 31.644,48.365 30.399,46.674 30.089 C 45.981 29.962,46.025 29.963,45.320 30.082 M18.827 32.202 C 19.415 32.473,19.738 32.858,19.899 33.478 C 20.037 34.011,19.988 34.511,19.754 34.948 C 19.570 35.291,18.909 35.830,18.585 35.901 C 18.424 35.936,18.235 35.982,18.164 36.004 C 17.913 36.081,16.948 35.759,16.675 35.508 C 16.523 35.368,16.310 35.061,16.202 34.827 C 15.426 33.146,17.146 31.426,18.827 32.202 M46.750 32.147 C 47.168 32.327,47.733 32.906,47.887 33.314 C 48.167 34.056,47.873 35.067,47.236 35.553 C 46.890 35.817,46.077 36.075,45.827 36.001 C 45.761 35.981,45.576 35.936,45.415 35.901 C 45.091 35.830,44.430 35.291,44.246 34.948 C 43.885 34.273,44.000 33.209,44.492 32.675 C 45.044 32.076,46.041 31.843,46.750 32.147 M30.937 40.171 C 29.733 40.494,28.718 41.432,28.265 42.640 C 27.938 43.512,27.994 44.818,28.395 45.678 C 29.557 48.172,32.857 48.751,34.807 46.803 C 35.552 46.058,35.881 45.283,35.927 44.160 C 35.958 43.428,35.921 43.135,35.735 42.640 C 35.273 41.409,34.263 40.490,33.017 40.165 C 32.242 39.964,31.702 39.965,30.937 40.171 M32.713 42.140 C 33.376 42.391,34.022 43.309,34.022 44.000 C 34.022 44.430,33.696 45.109,33.320 45.460 C 32.319 46.395,30.776 46.045,30.176 44.747 C 29.925 44.206,29.926 43.795,30.177 43.242 C 30.633 42.238,31.721 41.765,32.713 42.140 " fill="#2B2C30" stroke="none" fill-rule="evenodd"></path></svg>