<svg width="56" height="56" viewBox="0 0 56 56" fill="none" xmlns="http://www.w3.org/2000/svg"><path d="M0.607 0.088 C 0.504 0.130,0.336 0.258,0.233 0.372 C 0.052 0.574,0.046 0.730,0.021 5.937 C -0.001 10.613,0.014 11.329,0.139 11.572 C 0.435 12.145,0.317 12.133,6.067 12.133 C 11.811 12.133,11.698 12.144,11.992 11.576 C 12.204 11.165,12.204 0.968,11.992 0.557 C 11.698 -0.011,11.814 -0.001,6.048 0.006 C 3.158 0.009,0.709 0.046,0.607 0.088 M8.120 6.067 L 8.120 8.120 6.067 8.120 L 4.013 8.120 4.013 6.067 L 4.013 4.013 6.067 4.013 L 8.120 4.013 8.120 6.067 M20.451 8.179 C 19.979 8.509,19.973 8.580,19.973 14.000 C 19.973 19.420,19.979 19.491,20.451 19.821 C 20.646 19.958,21.223 19.973,26.013 19.973 L 31.357 19.973 31.662 19.701 L 31.967 19.429 31.967 14.000 L 31.967 8.571 31.662 8.299 L 31.357 8.027 26.013 8.027 C 21.223 8.027,20.646 8.042,20.451 8.179 M28.000 14.002 L 28.000 16.057 26.017 16.032 L 24.033 16.007 24.008 14.096 C 23.994 13.045,24.003 12.131,24.028 12.066 C 24.064 11.974,24.531 11.947,26.037 11.947 L 28.000 11.947 28.000 14.002 M40.313 16.326 L 40.040 16.599 40.040 22.297 L 40.040 27.996 34.302 28.021 L 28.564 28.047 28.305 28.305 L 28.047 28.564 28.021 34.302 L 27.996 40.040 22.297 40.040 L 16.599 40.040 16.326 40.313 L 16.053 40.586 16.053 47.999 L 16.053 55.413 16.279 55.656 C 16.403 55.790,16.602 55.923,16.722 55.952 C 16.842 55.981,25.602 55.993,36.188 55.979 L 55.436 55.953 55.695 55.695 L 55.953 55.436 55.979 36.188 C 55.993 25.602,55.981 16.842,55.952 16.722 C 55.923 16.602,55.790 16.403,55.656 16.279 L 55.413 16.053 47.999 16.053 L 40.586 16.053 40.313 16.326 M0.589 20.108 C -0.020 20.377,-0.007 20.241,0.021 26.131 L 0.047 31.449 0.305 31.708 L 0.564 31.967 5.833 31.992 C 11.699 32.021,11.598 32.030,11.886 31.423 C 12.030 31.119,12.042 30.617,12.019 25.860 L 11.993 20.630 11.688 20.325 L 11.383 20.020 6.135 19.999 C 1.801 19.981,0.835 20.000,0.589 20.108 M51.987 35.980 L 51.987 51.987 35.979 51.987 L 19.971 51.987 19.996 47.997 L 20.020 44.007 26.017 43.983 L 32.013 43.959 32.013 37.986 L 32.013 32.013 38.033 32.013 L 44.053 32.013 44.053 25.993 L 44.053 19.973 48.020 19.973 L 51.987 19.973 51.987 35.980 M8.027 25.993 L 8.027 28.000 6.020 28.000 L 4.013 28.000 4.013 25.993 L 4.013 23.987 6.020 23.987 L 8.027 23.987 8.027 25.993 " fill="#2B2C30" stroke="none" fill-rule="evenodd"></path></svg>