<svg width="40" height="60" viewBox="0 0 40 60" fill="none" xmlns="http://www.w3.org/2000/svg"><path d="M18.433 0.064 C 13.545 0.507,9.239 2.497,5.860 5.876 C 1.783 9.953,-0.376 15.733,0.062 21.400 C 0.445 26.372,2.358 29.782,7.557 34.757 C 8.240 35.411,8.799 35.966,8.798 35.990 C 8.797 36.014,8.679 36.087,8.536 36.153 C 8.350 36.239,8.236 36.355,8.138 36.558 C 8.015 36.812,8.000 36.966,8.000 38.000 C 8.000 39.033,8.015 39.189,8.137 39.442 C 8.237 39.648,8.352 39.763,8.558 39.863 C 8.841 40.000,8.870 40.000,20.000 40.000 C 31.130 40.000,31.159 40.000,31.442 39.863 C 31.648 39.763,31.763 39.648,31.863 39.442 C 31.985 39.189,32.000 39.033,32.000 38.000 C 32.000 36.966,31.985 36.812,31.862 36.558 C 31.764 36.355,31.650 36.239,31.464 36.153 C 31.321 36.087,31.203 36.014,31.202 35.990 C 31.201 35.966,31.760 35.411,32.443 34.757 C 36.591 30.787,38.603 27.825,39.462 24.427 C 40.188 21.552,40.164 18.274,39.393 15.167 C 38.197 10.347,35.215 6.116,31.078 3.372 C 28.408 1.600,25.734 0.604,22.467 0.164 C 21.565 0.043,19.290 -0.014,18.433 0.064 M22.333 4.165 C 25.775 4.691,28.848 6.244,31.302 8.698 C 33.756 11.152,35.317 14.242,35.833 17.667 C 35.983 18.660,36.034 20.470,35.940 21.433 C 35.585 25.066,34.088 27.620,30.028 31.516 C 28.651 32.838,27.688 33.876,26.717 35.083 L 25.980 36.000 20.000 36.000 L 14.020 36.000 13.283 35.083 C 12.312 33.876,11.349 32.838,9.972 31.516 C 5.912 27.620,4.415 25.065,4.060 21.433 C 3.965 20.452,4.014 18.714,4.168 17.667 C 5.015 11.903,8.971 7.039,14.497 4.969 C 15.653 4.536,17.003 4.240,18.733 4.039 C 19.250 3.979,21.670 4.064,22.333 4.165 M13.167 16.143 C 12.959 16.256,8.270 20.944,8.162 21.147 C 8.040 21.377,8.040 21.822,8.162 22.053 C 8.305 22.322,9.871 23.849,10.088 23.930 C 10.356 24.030,10.641 24.017,10.887 23.892 C 11.004 23.833,11.663 23.226,12.350 22.544 L 13.600 21.305 14.883 22.581 C 15.589 23.283,16.251 23.890,16.354 23.929 C 16.458 23.968,16.658 24.000,16.800 24.000 C 16.942 24.000,17.142 23.968,17.246 23.929 C 17.349 23.890,18.011 23.283,18.717 22.581 L 20.000 21.304 21.283 22.581 C 21.989 23.283,22.651 23.890,22.754 23.929 C 22.995 24.020,23.405 24.020,23.646 23.929 C 23.749 23.890,24.411 23.283,25.117 22.581 L 26.400 21.305 27.650 22.544 C 28.337 23.226,28.996 23.833,29.113 23.892 C 29.359 24.017,29.644 24.030,29.912 23.930 C 30.129 23.849,31.695 22.322,31.838 22.053 C 31.960 21.822,31.960 21.377,31.838 21.147 C 31.722 20.930,27.028 16.245,26.821 16.140 C 26.634 16.045,26.166 16.046,25.979 16.140 C 25.899 16.181,25.241 16.803,24.517 17.523 L 23.200 18.832 21.883 17.523 C 21.159 16.803,20.501 16.181,20.421 16.140 C 20.341 16.100,20.151 16.067,20.000 16.067 C 19.849 16.067,19.659 16.100,19.579 16.140 C 19.499 16.181,18.841 16.803,18.117 17.523 L 16.800 18.832 15.483 17.523 C 14.759 16.803,14.101 16.181,14.021 16.140 C 13.836 16.047,13.341 16.048,13.167 16.143 M8.553 44.139 C 8.073 44.376,8.000 44.622,8.000 46.000 C 8.000 47.033,8.015 47.189,8.137 47.442 C 8.237 47.648,8.352 47.763,8.558 47.863 C 8.820 47.989,8.963 48.000,10.421 48.000 L 12.000 48.000 12.000 51.579 C 12.000 55.056,12.004 55.166,12.137 55.442 C 12.237 55.648,12.352 55.763,12.558 55.863 C 12.820 55.989,12.963 56.000,14.421 56.000 L 16.000 56.000 16.000 57.579 C 16.000 59.037,16.011 59.180,16.137 59.442 C 16.237 59.648,16.352 59.763,16.558 59.863 C 16.833 59.995,16.948 60.000,20.000 60.000 C 23.052 60.000,23.167 59.995,23.442 59.863 C 23.648 59.763,23.763 59.648,23.863 59.442 C 23.989 59.180,24.000 59.037,24.000 57.579 L 24.000 56.000 25.579 56.000 C 27.037 56.000,27.180 55.989,27.442 55.863 C 27.648 55.763,27.763 55.648,27.863 55.442 C 27.996 55.166,28.000 55.056,28.000 51.579 L 28.000 48.000 29.579 48.000 C 31.037 48.000,31.180 47.989,31.442 47.863 C 31.648 47.763,31.763 47.648,31.863 47.442 C 31.985 47.189,32.000 47.033,32.000 46.000 C 32.000 44.967,31.985 44.811,31.863 44.558 C 31.763 44.352,31.648 44.237,31.442 44.137 C 31.159 44.000,31.130 44.000,19.996 44.000 L 8.833 44.000 8.553 44.139 M24.000 50.000 L 24.000 52.000 20.000 52.000 L 16.000 52.000 16.000 50.000 L 16.000 48.000 20.000 48.000 L 24.000 48.000 24.000 50.000 " fill="#2B2C30" stroke="none" fill-rule="evenodd"></path></svg>