<svg width="48" height="52" viewBox="0 0 48 52" fill="none" xmlns="http://www.w3.org/2000/svg"><path d="M13.334 0.130 C 13.084 0.207,12.824 0.372,12.599 0.597 C 12.110 1.086,12.000 1.508,12.000 2.891 L 12.000 3.992 7.580 4.018 C 3.269 4.043,3.149 4.048,2.700 4.217 C 1.535 4.658,0.664 5.531,0.212 6.712 L 0.040 7.160 0.040 28.000 L 0.040 48.840 0.212 49.288 C 0.663 50.468,1.531 51.338,2.700 51.784 L 3.160 51.960 24.000 51.960 L 44.840 51.960 45.300 51.784 C 46.494 51.328,47.324 50.486,47.768 49.280 L 47.960 48.760 47.960 27.960 L 47.960 7.160 47.788 6.712 C 47.336 5.531,46.465 4.658,45.300 4.217 C 44.851 4.048,44.731 4.043,40.420 4.018 L 36.000 3.992 36.000 2.891 C 36.000 1.502,35.896 1.108,35.394 0.606 C 35.028 0.241,34.475 0.000,34.000 0.000 C 33.529 0.000,32.948 0.248,32.598 0.598 C 32.110 1.086,32.000 1.508,32.000 2.895 L 32.000 4.000 24.000 4.000 L 16.000 4.000 16.000 2.895 C 16.000 1.501,15.896 1.109,15.394 0.606 C 14.832 0.045,14.135 -0.116,13.334 0.130 M44.000 12.000 L 44.000 16.000 24.000 16.000 L 4.000 16.000 4.000 12.000 L 4.000 8.000 24.000 8.000 L 44.000 8.000 44.000 12.000 M44.000 34.000 L 44.000 48.000 24.000 48.000 L 4.000 48.000 4.000 34.000 L 4.000 20.000 24.000 20.000 L 44.000 20.000 44.000 34.000 M8.504 24.157 C 7.999 24.465,8.000 24.457,8.000 28.016 C 8.001 31.073,8.009 31.253,8.157 31.496 C 8.464 32.001,8.458 32.000,12.000 32.000 C 15.542 32.000,15.536 32.001,15.843 31.496 C 15.991 31.253,15.999 31.073,16.000 28.016 C 16.000 24.457,16.001 24.465,15.496 24.157 C 15.253 24.009,15.073 24.001,12.000 24.001 C 8.927 24.001,8.747 24.009,8.504 24.157 M20.504 24.157 C 19.999 24.465,20.000 24.457,20.000 28.016 C 20.001 31.073,20.009 31.253,20.157 31.496 C 20.464 32.001,20.458 32.000,24.000 32.000 C 27.542 32.000,27.536 32.001,27.843 31.496 C 27.991 31.253,27.999 31.073,28.000 28.016 C 28.000 24.457,28.001 24.465,27.496 24.157 C 27.253 24.009,27.073 24.001,24.000 24.001 C 20.927 24.001,20.747 24.009,20.504 24.157 M32.504 24.157 C 31.999 24.465,32.000 24.457,32.000 28.016 C 32.001 31.073,32.009 31.253,32.157 31.496 C 32.464 32.001,32.458 32.000,36.000 32.000 C 39.542 32.000,39.536 32.001,39.843 31.496 C 39.991 31.253,39.999 31.073,40.000 28.016 C 40.000 24.457,40.001 24.465,39.496 24.157 C 39.253 24.009,39.073 24.001,36.000 24.001 C 32.927 24.001,32.747 24.009,32.504 24.157 M8.504 36.157 C 7.999 36.465,8.000 36.457,8.000 40.016 C 8.001 43.073,8.009 43.253,8.157 43.496 C 8.464 44.001,8.458 44.000,12.000 44.000 C 15.542 44.000,15.536 44.001,15.843 43.496 C 15.991 43.253,15.999 43.073,16.000 40.016 C 16.000 36.457,16.001 36.465,15.496 36.157 C 15.253 36.009,15.073 36.001,12.000 36.001 C 8.927 36.001,8.747 36.009,8.504 36.157 M20.504 36.157 C 19.999 36.465,20.000 36.457,20.000 40.016 C 20.001 43.073,20.009 43.253,20.157 43.496 C 20.464 44.001,20.458 44.000,24.000 44.000 C 27.542 44.000,27.536 44.001,27.843 43.496 C 27.991 43.253,27.999 43.073,28.000 40.016 C 28.000 36.457,28.001 36.465,27.496 36.157 C 27.253 36.009,27.073 36.001,24.000 36.001 C 20.927 36.001,20.747 36.009,20.504 36.157 " fill="#2B2C30" stroke="none" fill-rule="evenodd"></path></svg>