<svg width="56" height="48" viewBox="0 0 56 48" fill="none" xmlns="http://www.w3.org/2000/svg"><path d="M16.462 0.178 C 16.302 0.276,16.124 0.492,16.066 0.658 C 15.901 1.132,15.929 3.034,16.107 3.409 C 16.412 4.051,15.668 4.013,28.000 4.013 C 40.332 4.013,39.588 4.051,39.893 3.409 C 40.090 2.994,40.100 1.070,39.907 0.610 C 39.636 -0.041,40.431 -0.000,27.981 0.000 C 17.111 0.001,16.744 0.006,16.462 0.178 M2.971 8.174 C 1.920 8.497,0.692 9.654,0.256 10.729 L 0.047 11.247 0.047 28.005 L 0.047 44.763 0.405 45.488 C 0.874 46.436,1.537 47.100,2.486 47.569 L 3.210 47.927 28.000 47.927 L 52.790 47.927 53.514 47.569 C 54.463 47.100,55.126 46.436,55.595 45.488 L 55.953 44.763 55.953 28.005 L 55.953 11.247 55.744 10.729 C 55.458 10.024,54.765 9.193,54.062 8.713 C 52.964 7.963,55.397 8.026,27.960 8.033 C 6.890 8.039,3.345 8.059,2.971 8.174 M51.987 27.953 L 51.987 43.960 28.000 43.960 L 4.013 43.960 4.013 27.953 L 4.013 11.947 28.000 11.947 L 51.987 11.947 51.987 27.953 M26.960 16.065 C 21.640 16.479,17.116 20.614,16.200 25.900 C 16.013 26.976,16.012 28.947,16.196 30.018 C 17.026 34.824,20.580 38.548,25.433 39.694 C 26.649 39.982,29.351 39.982,30.567 39.694 C 33.652 38.966,36.246 37.197,37.934 34.673 C 39.318 32.603,39.947 30.505,39.946 27.960 C 39.946 24.671,38.786 21.875,36.455 19.545 C 33.893 16.983,30.614 15.781,26.960 16.065 M30.193 20.299 C 32.910 21.093,35.020 23.255,35.758 25.998 C 36.027 26.998,36.047 28.871,35.800 29.812 C 35.394 31.355,34.710 32.556,33.631 33.623 C 32.828 34.417,32.323 34.776,31.396 35.211 C 30.219 35.763,29.357 35.950,28.000 35.950 C 26.643 35.950,25.781 35.763,24.604 35.211 C 23.677 34.776,23.172 34.417,22.369 33.623 C 21.292 32.559,20.631 31.413,20.229 29.913 C 19.948 28.866,19.954 27.054,20.240 25.998 C 21.077 22.918,23.574 20.643,26.755 20.065 C 27.588 19.913,29.266 20.027,30.193 20.299 " fill="#2B2C30" stroke="none" fill-rule="evenodd"></path></svg>