<svg width="56" height="52" viewBox="0 0 56 52" fill="none" xmlns="http://www.w3.org/2000/svg"><path d="M16.462 0.178 C 16.302 0.276,16.124 0.492,16.066 0.658 C 15.901 1.132,15.929 3.034,16.107 3.409 C 16.412 4.051,15.668 4.013,28.000 4.013 C 40.332 4.013,39.588 4.051,39.893 3.409 C 40.090 2.994,40.100 1.070,39.907 0.610 C 39.636 -0.041,40.431 -0.000,27.981 0.000 C 17.111 0.001,16.744 0.006,16.462 0.178 M49.140 0.140 C 48.986 0.222,47.117 2.029,44.986 4.158 L 41.113 8.027 22.245 8.027 C 4.250 8.027,3.351 8.035,2.832 8.197 C 1.460 8.625,0.394 9.791,0.103 11.181 C 0.030 11.532,0.000 16.418,0.000 28.032 C 0.000 45.906,-0.030 44.906,0.532 45.937 C 0.667 46.186,1.005 46.604,1.284 46.867 L 1.790 47.346 1.045 48.103 C 0.636 48.519,0.254 48.952,0.197 49.064 C 0.055 49.342,0.067 49.706,0.227 50.008 C 0.384 50.306,1.730 51.640,2.024 51.790 C 2.303 51.931,2.666 51.920,2.968 51.759 C 3.346 51.558,51.865 2.974,51.940 2.722 C 52.085 2.233,51.918 1.935,50.979 0.999 C 49.972 -0.004,49.675 -0.143,49.140 0.140 M52.912 10.414 C 51.439 11.889,51.393 11.947,51.684 11.947 L 51.987 11.947 51.987 27.953 L 51.987 43.960 35.681 43.960 L 19.375 43.960 17.364 45.966 L 15.353 47.972 33.927 47.972 C 53.826 47.971,52.904 47.992,53.846 47.511 C 54.409 47.223,55.171 46.484,55.468 45.937 C 56.030 44.906,56.000 45.906,56.000 28.032 C 56.000 16.287,55.970 11.536,55.895 11.181 C 55.730 10.400,55.104 9.315,54.646 9.015 C 54.452 8.888,54.374 8.951,52.912 10.414 M34.766 14.372 L 32.340 16.797 31.612 16.565 C 30.487 16.206,29.407 16.053,28.000 16.053 C 25.963 16.053,24.365 16.419,22.662 17.276 C 21.436 17.892,20.558 18.531,19.545 19.545 C 18.160 20.930,17.218 22.442,16.616 24.248 C 15.874 26.474,15.857 29.308,16.572 31.616 L 16.796 32.340 10.988 38.150 L 5.181 43.960 4.597 43.960 L 4.013 43.960 4.013 27.953 L 4.013 11.947 20.603 11.947 L 37.193 11.947 34.766 14.372 M28.863 20.051 C 28.991 20.102,28.093 21.048,24.554 24.586 L 20.083 29.057 20.016 28.616 C 19.930 28.038,20.039 26.832,20.254 25.993 C 21.012 23.026,23.552 20.668,26.575 20.121 C 27.345 19.982,28.592 19.944,28.863 20.051 M37.646 25.690 L 36.048 27.300 35.993 28.280 C 35.849 30.811,34.724 32.935,32.733 34.432 C 31.446 35.400,29.500 36.027,27.782 36.027 L 27.298 36.027 25.670 37.657 C 24.775 38.553,24.061 39.305,24.084 39.327 C 24.108 39.349,24.589 39.487,25.153 39.634 C 26.114 39.883,26.297 39.900,28.000 39.898 C 30.034 39.896,30.712 39.780,32.340 39.153 C 36.247 37.649,39.086 34.174,39.804 30.018 C 39.968 29.068,39.991 27.030,39.849 26.133 C 39.728 25.370,39.386 24.080,39.305 24.080 C 39.272 24.080,38.525 24.805,37.646 25.690 " fill="#2B2C30" stroke="none" fill-rule="evenodd"></path></svg>