<svg width="24" height="12" viewBox="0 0 24 12" fill="none" xmlns="http://www.w3.org/2000/svg"><path d="M0.767 0.059 C 0.048 0.284,-0.233 1.100,0.225 1.635 C 0.298 1.721,2.806 4.029,5.799 6.765 C 9.795 10.419,11.300 11.772,11.467 11.860 C 11.662 11.963,11.738 11.980,12.000 11.980 C 12.262 11.980,12.338 11.963,12.533 11.860 C 12.700 11.772,14.209 10.416,18.202 6.764 C 21.195 4.028,23.703 1.720,23.775 1.635 C 24.192 1.147,23.991 0.395,23.366 0.106 L 23.180 0.020 12.060 0.013 C 2.805 0.006,0.911 0.014,0.767 0.059 " fill="#2B2C30" stroke="none" fill-rule="evenodd"></path></svg>