<svg width="12" height="24" viewBox="0 0 12 24" fill="none" xmlns="http://www.w3.org/2000/svg"><path d="M0.840 0.022 C 0.566 0.075,0.265 0.313,0.132 0.582 C -0.011 0.874,0.001 -0.162,0.001 12.000 C 0.001 24.162,-0.011 23.126,0.132 23.418 C 0.343 23.846,0.859 24.093,1.281 23.968 C 1.462 23.914,1.576 23.845,1.731 23.694 C 1.990 23.442,11.743 12.754,11.812 12.647 C 11.849 12.590,11.904 12.473,11.934 12.387 C 11.981 12.251,11.989 12.199,11.989 12.000 C 11.989 11.801,11.981 11.749,11.934 11.613 C 11.904 11.527,11.849 11.410,11.812 11.353 C 11.761 11.275,2.970 1.631,1.883 0.461 C 1.766 0.336,1.617 0.198,1.551 0.156 C 1.338 0.018,1.095 -0.028,0.840 0.022 " fill="#2B2C30" stroke="none" fill-rule="evenodd"></path></svg>