<svg width="28" height="24" viewBox="0 0 28 24" fill="none" xmlns="http://www.w3.org/2000/svg"><path d="M24.541 0.130 C 24.359 0.225,24.253 0.323,24.151 0.488 L 24.010 0.716 24.010 11.993 L 24.010 23.271 24.151 23.498 C 24.253 23.664,24.359 23.761,24.541 23.856 L 24.791 23.987 25.958 23.987 C 26.747 23.987,27.188 23.968,27.318 23.929 C 27.566 23.855,27.869 23.553,27.943 23.305 C 28.023 23.037,28.027 0.934,27.947 0.695 C 27.860 0.435,27.675 0.230,27.422 0.112 C 27.190 0.004,27.149 0.001,25.987 0.000 L 24.791 -0.000 24.541 0.130 M12.950 8.001 C 12.924 8.011,12.827 8.032,12.734 8.047 C 12.629 8.065,12.481 8.149,12.349 8.265 C 11.965 8.603,11.991 8.014,12.004 16.102 L 12.017 23.263 12.146 23.484 C 12.230 23.627,12.353 23.750,12.496 23.834 L 12.717 23.963 14.000 23.963 L 15.283 23.963 15.504 23.834 C 15.647 23.750,15.770 23.627,15.854 23.484 L 15.983 23.263 15.996 16.102 C 16.009 8.078,16.031 8.606,15.678 8.287 C 15.574 8.193,15.432 8.092,15.363 8.062 C 15.245 8.012,13.065 7.957,12.950 8.001 M0.583 12.102 C 0.309 12.233,0.225 12.319,0.097 12.601 C 0.003 12.807,0.002 12.882,0.001 17.990 L 0.001 23.170 0.111 23.407 C 0.235 23.674,0.381 23.806,0.670 23.917 C 0.839 23.981,1.050 23.990,2.079 23.978 C 3.262 23.964,3.295 23.961,3.488 23.850 C 3.735 23.708,3.902 23.472,3.966 23.170 C 4.000 23.011,4.012 21.321,4.003 17.849 L 3.990 12.761 3.871 12.529 C 3.786 12.365,3.686 12.257,3.525 12.157 L 3.298 12.017 2.057 12.004 C 0.834 11.991,0.813 11.993,0.583 12.102 " fill="#2B2C30" stroke="none" fill-rule="evenodd"></path></svg>