<svg width="40" height="36" viewBox="0 0 40 36" fill="none" xmlns="http://www.w3.org/2000/svg"><path d="M36.507 0.151 C 36.364 0.233,36.192 0.405,36.124 0.532 C 36.004 0.757,36.000 1.344,36.000 17.989 C 36.000 33.743,36.009 35.233,36.108 35.441 C 36.168 35.567,36.310 35.736,36.425 35.818 C 36.624 35.960,36.693 35.967,38.000 35.967 C 39.307 35.967,39.376 35.960,39.575 35.818 C 39.690 35.736,39.832 35.567,39.892 35.441 C 39.991 35.233,40.000 33.744,40.000 18.000 C 40.000 -1.299,40.050 0.485,39.502 0.164 C 39.231 0.006,39.180 0.000,37.994 0.001 C 36.847 0.002,36.750 0.012,36.507 0.151 M24.553 12.139 C 24.353 12.238,24.234 12.358,24.137 12.560 C 24.001 12.841,24.000 12.886,24.000 24.000 C 24.000 35.130,24.000 35.159,24.137 35.442 C 24.237 35.648,24.352 35.763,24.558 35.863 C 24.811 35.985,24.967 36.000,26.000 36.000 C 27.033 36.000,27.189 35.985,27.442 35.863 C 27.648 35.763,27.763 35.648,27.863 35.442 C 28.000 35.159,28.000 35.130,28.000 24.000 C 28.000 12.870,28.000 12.841,27.863 12.558 C 27.763 12.352,27.648 12.237,27.442 12.137 C 27.188 12.015,27.033 12.000,25.996 12.000 C 24.953 12.000,24.805 12.014,24.553 12.139 M12.553 20.139 C 12.353 20.238,12.234 20.358,12.137 20.560 C 12.001 20.839,12.000 20.919,12.000 28.000 C 12.000 35.091,12.001 35.161,12.137 35.442 C 12.237 35.648,12.352 35.763,12.558 35.863 C 12.811 35.985,12.967 36.000,14.000 36.000 C 15.033 36.000,15.189 35.985,15.442 35.863 C 15.648 35.763,15.763 35.648,15.863 35.442 C 15.999 35.161,16.000 35.091,16.000 28.000 C 16.000 20.909,15.999 20.839,15.863 20.558 C 15.763 20.352,15.648 20.237,15.442 20.137 C 15.188 20.015,15.033 20.000,13.996 20.000 C 12.953 20.000,12.805 20.014,12.553 20.139 M0.553 24.139 C 0.353 24.238,0.234 24.358,0.137 24.560 C 0.002 24.837,0.000 24.936,0.000 30.000 C 0.000 35.072,0.002 35.163,0.137 35.442 C 0.237 35.648,0.352 35.763,0.558 35.863 C 0.811 35.985,0.967 36.000,2.000 36.000 C 3.033 36.000,3.189 35.985,3.442 35.863 C 3.648 35.763,3.763 35.648,3.863 35.442 C 3.998 35.163,4.000 35.072,4.000 30.000 C 4.000 24.928,3.998 24.837,3.863 24.558 C 3.763 24.352,3.648 24.237,3.442 24.137 C 3.188 24.015,3.033 24.000,1.996 24.000 C 0.953 24.000,0.805 24.014,0.553 24.139 " fill="#2B2C30" stroke="none" fill-rule="evenodd"></path></svg>