<svg width="4" height="12" viewBox="0 0 4 12" fill="none" xmlns="http://www.w3.org/2000/svg"><path d="M0.867 0.010 C 0.749 0.026,0.656 0.055,0.553 0.107 C 0.273 0.247,0.082 0.500,0.016 0.817 C 0.004 0.875,0.003 1.012,0.003 6.000 C 0.003 10.988,0.004 11.125,0.016 11.183 C 0.102 11.595,0.397 11.893,0.808 11.982 L 0.877 11.997 2.000 11.997 L 3.123 11.997 3.192 11.982 C 3.601 11.893,3.893 11.601,3.982 11.192 L 3.997 11.123 3.997 6.000 L 3.997 0.877 3.982 0.808 C 3.892 0.394,3.595 0.101,3.177 0.015 C 3.129 0.005,3.016 0.004,2.027 0.003 C 1.149 0.001,0.917 0.003,0.867 0.010 " fill="#2B2C30" stroke="none" fill-rule="evenodd"></path></svg>