<svg width="52" height="48" viewBox="0 0 52 48" fill="none" xmlns="http://www.w3.org/2000/svg"><path d="M48.513 0.136 C 47.974 0.428,48.013 -1.463,48.013 24.007 C 48.013 49.117,47.986 47.593,48.442 47.837 C 48.661 47.955,51.352 47.955,51.571 47.837 C 52.027 47.593,52.000 49.117,52.000 24.007 C 52.000 -1.542,52.043 0.421,51.483 0.131 C 51.124 -0.054,48.856 -0.051,48.513 0.136 M36.320 12.313 L 36.053 12.580 36.053 29.987 L 36.053 47.393 36.278 47.660 L 36.502 47.927 37.974 47.927 L 39.447 47.927 39.700 47.673 L 39.953 47.420 39.953 30.000 L 39.953 12.580 39.687 12.313 L 39.420 12.047 38.003 12.047 L 36.587 12.047 36.320 12.313 M24.554 24.134 C 23.970 24.387,24.007 23.595,24.007 36.010 C 24.007 48.108,23.988 47.598,24.435 47.837 C 24.530 47.888,25.207 47.927,26.000 47.927 C 26.793 47.927,27.470 47.888,27.565 47.837 C 28.012 47.598,27.993 48.108,27.993 36.010 C 27.993 23.556,28.033 24.383,27.427 24.130 C 27.025 23.962,24.943 23.964,24.554 24.134 M12.680 32.076 C 12.528 32.120,12.323 32.268,12.225 32.406 C 12.048 32.654,12.047 32.726,12.047 40.038 L 12.047 47.420 12.300 47.673 L 12.553 47.927 14.026 47.927 L 15.498 47.927 15.722 47.660 L 15.947 47.393 15.947 40.002 C 15.947 32.686,15.945 32.608,15.769 32.385 C 15.672 32.261,15.448 32.119,15.271 32.070 C 14.879 31.961,13.062 31.965,12.680 32.076 M0.452 36.189 C -0.007 36.510,-0.000 36.423,0.000 41.980 C 0.000 44.983,0.034 47.225,0.081 47.349 C 0.126 47.467,0.250 47.645,0.358 47.745 C 0.539 47.914,0.651 47.927,1.990 47.927 C 3.557 47.927,3.700 47.889,3.890 47.431 C 3.964 47.253,3.984 45.757,3.967 41.873 L 3.943 36.559 3.660 36.306 L 3.377 36.053 2.011 36.053 C 0.914 36.053,0.607 36.080,0.452 36.189 " fill="#2B2C30" stroke="none" fill-rule="evenodd"></path></svg>