<svg width="56" height="28" viewBox="0 0 56 28" fill="none" xmlns="http://www.w3.org/2000/svg"><path d="M12.133 0.140 C 10.488 0.368,9.186 0.769,7.747 1.493 C 3.868 3.442,1.230 6.887,0.259 11.269 C -0.034 12.589,-0.034 15.411,0.259 16.731 C 1.520 22.420,5.561 26.463,11.262 27.740 C 12.142 27.937,12.413 27.947,17.761 27.978 L 23.341 28.011 23.664 27.688 L 23.987 27.365 23.987 26.023 C 23.987 24.595,23.936 24.405,23.492 24.151 C 23.336 24.062,21.964 24.021,17.827 23.983 C 11.775 23.926,12.030 23.951,10.217 23.251 C 8.654 22.648,6.772 21.146,5.818 19.740 C 3.426 16.214,3.421 11.793,5.803 8.282 C 7.135 6.320,9.327 4.851,11.853 4.227 C 12.361 4.102,13.360 4.069,17.951 4.022 L 23.442 3.967 23.714 3.662 L 23.987 3.357 23.987 2.007 L 23.987 0.656 23.714 0.351 L 23.442 0.047 18.231 0.032 C 14.362 0.021,12.792 0.049,12.133 0.140 M32.645 0.142 C 32.198 0.391,32.107 0.708,32.107 2.007 C 32.107 2.875,32.144 3.254,32.248 3.456 C 32.540 4.021,32.458 4.013,37.876 4.013 C 41.880 4.013,42.973 4.040,43.644 4.156 C 45.752 4.518,47.550 5.447,49.052 6.948 C 50.553 8.450,51.482 10.248,51.844 12.356 C 52.198 14.413,51.879 16.540,50.934 18.433 C 49.608 21.090,47.378 22.887,44.364 23.728 C 43.662 23.924,43.417 23.934,38.220 23.983 C 34.070 24.021,32.758 24.061,32.598 24.153 C 32.198 24.381,32.107 24.727,32.107 26.012 C 32.107 27.342,32.233 27.724,32.734 27.914 C 32.901 27.978,34.824 28.000,38.404 27.978 C 43.580 27.947,43.861 27.936,44.738 27.740 C 50.434 26.465,54.485 22.413,55.737 16.738 C 56.030 15.407,56.030 12.593,55.737 11.262 C 54.466 5.499,50.260 1.374,44.473 0.216 C 43.361 -0.006,33.027 -0.071,32.645 0.142 " fill="#2B2C30" stroke="none" fill-rule="evenodd"></path></svg>