<svg width="52" height="40" viewBox="0 0 52 40" fill="none" xmlns="http://www.w3.org/2000/svg"><path d="M48.513 0.136 C 47.976 0.427,48.013 -1.073,48.013 20.020 C 48.013 40.808,47.988 39.621,48.442 39.864 C 48.661 39.981,51.352 39.981,51.571 39.864 C 52.026 39.621,52.000 40.808,52.000 20.020 C 52.000 -1.140,52.041 0.420,51.483 0.131 C 51.124 -0.054,48.856 -0.051,48.513 0.136 M12.465 12.195 C 12.337 12.274,12.191 12.431,12.140 12.543 C 12.075 12.687,12.047 16.754,12.047 26.097 L 12.047 39.447 12.300 39.700 L 12.553 39.953 13.997 39.953 L 15.440 39.953 15.693 39.700 L 15.947 39.447 15.945 26.028 C 15.943 13.446,15.933 12.598,15.793 12.425 C 15.522 12.091,15.310 12.047,13.981 12.049 C 12.938 12.051,12.653 12.078,12.465 12.195 M36.530 12.147 C 36.435 12.200,36.289 12.325,36.207 12.426 C 36.067 12.599,36.057 13.444,36.055 26.015 L 36.053 39.420 36.278 39.687 L 36.502 39.953 37.974 39.953 L 39.447 39.953 39.700 39.700 L 39.953 39.447 39.953 26.097 C 39.953 16.684,39.926 12.687,39.859 12.542 C 39.667 12.120,39.387 12.046,37.990 12.049 C 37.222 12.051,36.633 12.090,36.530 12.147 M0.727 24.062 C 0.626 24.084,0.431 24.220,0.294 24.363 L 0.043 24.625 0.018 31.791 C 0.004 35.732,0.015 39.079,0.042 39.229 C 0.069 39.378,0.193 39.602,0.317 39.727 C 0.543 39.953,0.548 39.953,1.968 39.953 C 2.778 39.953,3.463 39.915,3.558 39.864 C 3.996 39.630,3.987 39.803,3.987 32.019 C 3.987 25.499,3.973 24.746,3.847 24.533 C 3.590 24.099,3.431 24.053,2.123 24.037 C 1.456 24.029,0.828 24.040,0.727 24.062 M24.787 24.059 C 24.421 24.191,24.262 24.317,24.141 24.574 C 24.023 24.821,24.007 25.743,24.007 32.062 C 24.007 39.799,23.997 39.630,24.435 39.864 C 24.530 39.915,25.207 39.953,26.000 39.953 C 26.793 39.953,27.470 39.915,27.565 39.864 C 28.003 39.630,27.993 39.799,27.993 32.062 C 27.993 25.837,27.976 24.819,27.863 24.582 C 27.638 24.108,27.468 24.054,26.130 24.032 C 25.463 24.021,24.858 24.033,24.787 24.059 " fill="#2B2C30" stroke="none" fill-rule="evenodd"></path></svg>