<svg width="48" height="48" viewBox="0 0 48 48" fill="none" xmlns="http://www.w3.org/2000/svg"><path d="M3.240 0.083 C 1.841 0.371,0.743 1.325,0.212 2.712 L 0.040 3.160 0.040 24.000 L 0.040 44.840 0.212 45.288 C 0.663 46.468,1.531 47.338,2.700 47.784 L 3.160 47.960 24.000 47.960 L 44.840 47.960 45.300 47.784 C 46.469 47.338,47.337 46.468,47.788 45.288 L 47.960 44.840 47.960 24.000 L 47.960 3.160 47.784 2.700 C 47.338 1.531,46.468 0.663,45.288 0.212 L 44.840 0.040 24.200 0.028 C 12.848 0.022,3.416 0.046,3.240 0.083 M44.000 24.000 L 44.000 44.000 24.000 44.000 L 4.000 44.000 4.000 24.000 L 4.000 4.000 24.000 4.000 L 44.000 4.000 44.000 24.000 M36.480 11.529 C 36.370 11.572,32.113 15.772,27.020 20.863 L 17.761 30.118 14.618 26.979 L 11.475 23.840 11.110 23.840 C 10.654 23.840,10.364 24.041,9.470 24.975 C 8.746 25.733,8.574 26.079,8.713 26.500 C 8.773 26.681,10.096 28.056,13.066 31.026 C 17.047 35.006,17.354 35.294,17.653 35.335 C 17.862 35.363,18.055 35.335,18.207 35.254 C 18.335 35.186,23.115 30.453,28.829 24.736 C 39.124 14.436,39.217 14.339,39.257 13.985 C 39.313 13.490,39.192 13.295,38.262 12.384 C 37.309 11.449,37.027 11.314,36.480 11.529 " fill="#2B2C30" stroke="none" fill-rule="evenodd"></path></svg>