<svg width="48" height="48" viewBox="0 0 48 48" fill="none" xmlns="http://www.w3.org/2000/svg"><path d="M3.240 0.083 C 1.841 0.371,0.743 1.325,0.212 2.712 L 0.040 3.160 0.040 24.000 L 0.040 44.840 0.212 45.288 C 0.663 46.468,1.531 47.338,2.700 47.784 L 3.160 47.960 24.000 47.960 L 44.840 47.960 45.300 47.784 C 46.469 47.338,47.337 46.468,47.788 45.288 L 47.960 44.840 47.960 24.000 L 47.960 3.160 47.784 2.700 C 47.338 1.531,46.468 0.663,45.288 0.212 L 44.840 0.040 24.200 0.028 C 12.848 0.022,3.416 0.046,3.240 0.083 M44.000 24.000 L 44.000 44.000 24.000 44.000 L 4.000 44.000 4.000 24.000 L 4.000 4.000 24.000 4.000 L 44.000 4.000 44.000 24.000 M12.504 22.157 C 12.061 22.427,12.000 22.650,12.000 24.000 C 12.000 25.350,12.061 25.573,12.504 25.843 C 12.755 25.996,12.993 25.999,24.000 25.999 C 35.007 25.999,35.245 25.996,35.496 25.843 C 35.939 25.573,36.000 25.350,36.000 24.000 C 36.000 22.650,35.939 22.427,35.496 22.157 C 35.245 22.004,35.007 22.001,24.000 22.001 C 12.993 22.001,12.755 22.004,12.504 22.157 " fill="#2B2C30" stroke="none" fill-rule="evenodd"></path></svg>