<svg width="48" height="35" viewBox="0 0 48 35" fill="none" xmlns="http://www.w3.org/2000/svg"><path d="M45.080 0.149 C 44.948 0.231,38.345 6.806,30.407 14.761 L 15.973 29.224 9.462 22.695 C 2.553 15.767,2.722 15.919,2.140 16.086 C 1.861 16.166,0.313 17.641,0.114 18.016 C -0.031 18.291,-0.031 18.589,0.115 18.864 C 0.296 19.205,15.451 34.302,15.708 34.397 C 16.272 34.607,15.469 35.375,32.216 18.622 C 43.044 7.789,47.928 2.852,47.964 2.699 C 48.085 2.199,47.962 1.993,46.932 0.975 C 46.009 0.062,45.926 0.000,45.633 0.000 C 45.461 0.000,45.212 0.067,45.080 0.149 " fill="#2B2C30" stroke="none" fill-rule="evenodd"></path></svg>