<svg width="56" height="56" viewBox="0 0 56 56" fill="none" xmlns="http://www.w3.org/2000/svg"><path d="M25.807 0.089 C 21.570 0.473,17.641 1.677,14.224 3.639 C 7.476 7.513,2.698 13.798,0.849 21.233 C 0.255 23.623,0.054 25.333,0.054 28.000 C 0.054 30.667,0.255 32.377,0.849 34.767 C 3.142 43.987,10.071 51.509,19.040 54.513 C 22.047 55.520,24.728 55.950,28.000 55.950 C 33.710 55.950,38.763 54.428,43.510 51.280 C 53.343 44.756,58.002 32.730,55.150 21.233 C 53.476 14.486,49.301 8.562,43.510 4.720 C 39.771 2.240,36.028 0.846,31.453 0.230 C 30.192 0.060,27.006 -0.020,25.807 0.089 M30.387 4.112 C 32.529 4.319,35.123 4.968,37.101 5.792 C 40.168 7.068,42.554 8.671,44.942 11.058 C 48.769 14.886,50.988 19.347,51.814 24.873 C 51.893 25.401,51.940 26.563,51.940 28.000 C 51.940 30.382,51.871 31.113,51.470 32.993 C 51.165 34.419,50.836 35.518,50.336 36.773 C 49.066 39.967,47.412 42.471,44.942 44.942 C 41.114 48.769,36.653 50.988,31.127 51.814 C 30.000 51.983,26.000 51.983,24.873 51.814 C 21.371 51.291,18.267 50.186,15.457 48.464 C 12.413 46.597,9.403 43.588,7.536 40.543 C 2.831 32.869,2.831 23.131,7.536 15.457 C 9.403 12.413,12.413 9.403,15.457 7.536 C 18.423 5.718,22.134 4.452,25.480 4.117 C 26.641 4.001,29.214 3.999,30.387 4.112 M32.551 24.616 L 23.986 33.179 19.483 28.680 C 16.922 26.122,14.864 24.139,14.710 24.082 C 14.254 23.912,13.913 24.107,12.942 25.096 C 12.079 25.974,12.040 26.032,12.040 26.422 L 12.040 26.830 17.808 32.601 C 23.547 38.341,23.579 38.371,23.962 38.377 C 24.209 38.380,24.441 38.313,24.610 38.191 C 24.755 38.085,29.168 33.701,34.417 28.448 L 43.960 18.896 43.960 18.436 C 43.960 17.977,43.958 17.974,42.998 17.015 C 42.038 16.055,42.036 16.053,41.576 16.053 L 41.116 16.053 32.551 24.616 " fill="#2B2C30" stroke="none" fill-rule="evenodd"></path></svg>