<svg width="32" height="19" viewBox="0 0 32 19" fill="none" xmlns="http://www.w3.org/2000/svg"><path d="M2.000 0.098 C 1.680 0.252,0.138 1.838,0.054 2.100 C -0.035 2.377,0.013 2.742,0.167 2.953 C 0.237 3.048,3.725 6.548,7.920 10.730 C 15.158 17.945,15.558 18.335,15.773 18.371 C 15.898 18.392,16.102 18.392,16.227 18.372 C 16.442 18.336,16.837 17.952,24.080 10.727 C 28.275 6.544,31.760 3.051,31.825 2.966 C 31.978 2.764,32.032 2.397,31.948 2.115 C 31.896 1.939,31.710 1.718,31.048 1.047 C 30.190 0.177,29.948 0.002,29.600 0.002 C 29.143 0.002,29.244 -0.092,22.467 6.682 L 16.000 13.146 9.560 6.714 C 6.018 3.176,3.042 0.229,2.946 0.164 C 2.699 -0.004,2.274 -0.034,2.000 0.098 " fill="#2B2C30" stroke="none" fill-rule="evenodd"></path></svg>