<svg width="32" height="35" viewBox="0 0 32 35" fill="none" xmlns="http://www.w3.org/2000/svg"><path d="M2.000 0.102 C 1.682 0.250,0.140 1.833,0.054 2.100 C -0.035 2.376,0.021 2.748,0.189 2.990 C 0.404 3.300,15.493 18.286,15.651 18.346 C 15.834 18.415,16.166 18.415,16.348 18.346 C 16.503 18.287,31.602 3.291,31.815 2.985 C 31.887 2.881,31.961 2.683,31.980 2.545 C 32.041 2.098,31.933 1.928,30.998 1.000 C 30.145 0.153,29.928 -0.001,29.588 0.001 C 29.143 0.004,29.216 -0.064,22.467 6.682 L 16.000 13.146 9.533 6.682 C 4.485 1.635,3.014 0.194,2.827 0.110 C 2.528 -0.024,2.276 -0.027,2.000 0.102 M2.080 16.063 C 1.944 16.101,1.654 16.355,1.005 17.004 C 0.244 17.766,0.107 17.927,0.053 18.131 C -0.030 18.445,0.022 18.736,0.211 19.006 C 0.296 19.127,3.745 22.604,7.876 26.731 C 13.197 32.048,15.444 34.260,15.585 34.318 C 15.843 34.425,16.175 34.422,16.419 34.312 C 16.546 34.254,19.241 31.600,24.175 26.672 C 31.961 18.895,32.001 18.854,32.000 18.456 C 31.999 18.063,31.897 17.912,31.074 17.077 C 30.193 16.185,30.053 16.076,29.717 16.022 C 29.191 15.938,29.573 15.587,22.494 22.658 L 16.002 29.143 9.531 22.680 C 4.560 17.716,3.005 16.192,2.823 16.110 C 2.566 15.993,2.369 15.980,2.080 16.063 " fill="#2B2C30" stroke="none" fill-rule="evenodd"></path></svg>