<svg width="43" height="48" viewBox="0 0 43 48" fill="none" xmlns="http://www.w3.org/2000/svg"><path d="M23.614 0.082 C 23.391 0.203,0.219 23.375,0.103 23.593 C -0.028 23.840,-0.028 24.177,0.103 24.424 C 0.159 24.530,5.457 29.866,11.875 36.281 L 23.544 47.945 24.003 47.945 L 24.462 47.945 25.375 47.041 C 26.102 46.322,26.303 46.080,26.360 45.856 C 26.519 45.228,27.143 45.896,15.779 34.525 L 5.269 24.008 15.779 13.491 C 24.890 4.376,26.300 2.936,26.366 2.690 C 26.502 2.181,26.391 1.985,25.425 1.025 C 24.942 0.544,24.455 0.117,24.344 0.075 C 24.088 -0.020,23.798 -0.018,23.614 0.082 M39.596 0.103 C 39.478 0.157,34.135 5.453,27.725 11.872 C 17.420 22.189,16.064 23.571,16.035 23.791 C 15.954 24.395,15.400 23.809,27.830 36.245 L 39.525 47.945 39.984 47.945 L 40.444 47.945 41.365 47.033 C 42.384 46.025,42.509 45.806,42.351 45.307 C 42.285 45.096,40.122 42.894,31.759 34.525 L 21.250 24.008 31.759 13.491 C 40.122 5.122,42.285 2.920,42.351 2.710 C 42.507 2.217,42.381 1.992,41.407 1.029 C 40.923 0.550,40.457 0.123,40.371 0.079 C 40.163 -0.026,39.860 -0.017,39.596 0.103 " fill="#2B2C30" stroke="none" fill-rule="evenodd"></path></svg>