<svg width="48" height="27" viewBox="0 0 48 27" fill="none" xmlns="http://www.w3.org/2000/svg"><path d="M2.040 0.077 C 1.952 0.114,1.457 0.574,0.940 1.099 C 0.081 1.973,-0.000 2.080,-0.000 2.351 C -0.000 2.514,0.052 2.745,0.115 2.864 C 0.178 2.983,5.479 8.324,11.895 14.733 C 21.138 23.966,23.612 26.396,23.812 26.437 C 23.966 26.469,24.167 26.444,24.332 26.373 C 24.720 26.204,47.894 2.990,47.964 2.699 C 48.084 2.203,47.960 1.991,46.978 1.021 C 46.413 0.463,45.948 0.070,45.812 0.036 C 45.230 -0.110,45.601 -0.459,34.495 10.675 L 24.007 21.191 13.543 10.705 C 7.277 4.426,2.977 0.176,2.823 0.110 C 2.536 -0.013,2.280 -0.023,2.040 0.077 " fill="#2B2C30" stroke="none" fill-rule="evenodd"></path></svg>