<svg width="32" height="19" viewBox="0 0 32 19" fill="none" xmlns="http://www.w3.org/2000/svg"><path d="M15.600 0.102 C 15.452 0.172,13.044 2.548,7.724 7.874 L 0.061 15.547 0.024 15.805 C -0.046 16.290,0.031 16.420,0.952 17.353 C 1.459 17.867,1.870 18.238,2.000 18.298 C 2.261 18.420,2.552 18.427,2.815 18.318 C 2.955 18.260,4.912 16.337,9.507 11.745 L 16.000 5.254 22.493 11.745 C 27.088 16.337,29.045 18.260,29.185 18.318 C 29.448 18.427,29.739 18.420,30.000 18.298 C 30.130 18.238,30.541 17.867,31.048 17.353 C 31.969 16.420,32.046 16.290,31.976 15.805 L 31.939 15.547 24.276 7.874 C 18.956 2.548,16.548 0.172,16.400 0.102 C 16.129 -0.025,15.871 -0.025,15.600 0.102 " fill="#2B2C30" stroke="none" fill-rule="evenodd"></path></svg>