<svg width="48" height="43" viewBox="0 0 48 43" fill="none" xmlns="http://www.w3.org/2000/svg"><path d="M23.552 0.126 C 23.416 0.193,18.078 5.500,11.691 11.918 C 2.677 20.976,0.068 23.642,0.030 23.831 C -0.059 24.277,0.073 24.498,0.983 25.420 C 1.945 26.394,2.242 26.565,2.692 26.397 C 2.824 26.349,7.377 21.857,13.460 15.776 L 24.000 5.240 34.540 15.780 C 42.434 23.674,45.145 26.338,45.340 26.394 C 45.794 26.525,46.060 26.376,46.944 25.500 C 47.857 24.595,48.000 24.386,48.000 23.956 C 48.000 23.676,47.558 23.220,36.354 11.959 C 29.787 5.357,24.592 0.198,24.442 0.126 C 24.110 -0.031,23.871 -0.031,23.552 0.126 M23.552 16.180 C 23.380 16.279,18.031 21.580,11.666 27.960 C 1.487 38.163,0.086 39.595,0.039 39.853 C 0.009 40.014,0.011 40.230,0.043 40.333 C 0.074 40.436,0.500 40.926,0.987 41.422 C 1.993 42.444,2.245 42.577,2.777 42.363 C 3.000 42.273,5.852 39.458,13.541 31.740 L 24.002 21.240 34.501 31.775 C 45.785 43.098,45.226 42.576,45.860 42.394 C 46.139 42.314,47.687 40.839,47.886 40.464 C 48.031 40.189,48.031 39.891,47.885 39.616 C 47.704 39.276,24.549 16.178,24.295 16.084 C 23.980 15.967,23.907 15.976,23.552 16.180 " fill="#2B2C30" stroke="none" fill-rule="evenodd"></path></svg>