<svg width="48" height="43" viewBox="0 0 48 43" fill="none" xmlns="http://www.w3.org/2000/svg"><path d="M1.960 0.152 C 1.828 0.235,1.348 0.679,0.894 1.139 C 0.184 1.858,0.062 2.019,0.025 2.294 C -0.003 2.502,0.026 2.695,0.106 2.847 C 0.174 2.975,5.479 8.327,11.895 14.740 L 23.561 26.400 24.000 26.400 L 24.439 26.400 36.141 14.700 C 48.482 2.362,48.107 2.759,47.964 2.189 C 47.896 1.915,46.241 0.213,45.911 0.076 C 45.776 0.020,45.559 0.004,45.381 0.036 C 45.112 0.085,43.960 1.210,34.540 10.625 L 23.999 21.159 13.500 10.663 C 7.530 4.695,2.903 0.131,2.775 0.084 C 2.448 -0.038,2.232 -0.019,1.960 0.152 M2.040 16.115 C 1.908 16.175,1.404 16.624,0.920 17.113 L 0.040 18.003 0.040 18.441 L 0.040 18.880 11.760 30.600 C 20.215 39.056,23.554 42.345,23.744 42.408 C 23.890 42.456,24.106 42.472,24.224 42.443 C 24.463 42.386,47.682 19.246,47.885 18.864 C 48.023 18.605,48.033 18.294,47.911 18.055 C 47.862 17.959,47.439 17.492,46.971 17.018 C 46.003 16.038,45.746 15.906,45.223 16.119 C 45.002 16.209,42.087 19.086,34.461 26.741 L 24.002 37.240 13.541 26.739 C 3.312 16.471,2.811 15.990,2.383 16.003 C 2.326 16.005,2.172 16.055,2.040 16.115 " fill="#2B2C30" stroke="none" fill-rule="evenodd"></path></svg>