<svg width="27" height="48" viewBox="0 0 27 48" fill="none" xmlns="http://www.w3.org/2000/svg"><path d="M2.002 0.107 C 1.668 0.266,0.128 1.838,0.053 2.098 C -0.019 2.349,-0.014 2.580,0.069 2.780 C 0.118 2.899,2.443 5.256,8.158 10.980 C 12.569 15.398,17.301 20.141,18.675 21.521 L 21.172 24.030 10.635 34.571 C -0.687 45.897,-0.001 45.183,0.001 45.630 C 0.003 45.952,0.154 46.162,0.981 46.994 C 1.419 47.435,1.853 47.835,1.944 47.883 C 2.151 47.990,2.687 48.003,2.871 47.905 C 2.938 47.870,8.241 42.590,14.655 36.172 C 27.125 23.695,26.414 24.431,26.415 24.004 C 26.416 23.580,27.085 24.272,14.591 11.781 C 4.384 1.578,2.880 0.091,2.722 0.049 C 2.446 -0.025,2.249 -0.009,2.002 0.107 " fill="#2B2C30" stroke="none" fill-rule="evenodd"></path></svg>