<svg width="35" height="32" viewBox="0 0 35 32" fill="none" xmlns="http://www.w3.org/2000/svg"><path d="M2.013 0.112 C 1.876 0.176,1.446 0.557,0.979 1.029 C -0.003 2.022,-0.126 2.265,0.089 2.787 C 0.153 2.941,2.077 4.903,6.681 9.508 L 13.183 16.013 6.702 22.488 C 2.234 26.952,0.188 29.035,0.112 29.196 C -0.019 29.475,-0.029 29.744,0.081 30.000 C 0.125 30.103,0.567 30.588,1.062 31.077 L 1.963 31.967 2.355 31.967 C 2.584 31.967,2.813 31.932,2.905 31.883 C 2.992 31.837,6.493 28.366,10.685 24.168 C 17.302 17.544,18.315 16.507,18.370 16.304 C 18.404 16.176,18.433 16.045,18.433 16.012 C 18.433 15.980,18.404 15.849,18.370 15.721 C 18.315 15.518,17.301 14.480,10.685 7.854 C 5.400 2.562,2.991 0.188,2.829 0.112 C 2.534 -0.026,2.308 -0.026,2.013 0.112 M18.027 0.092 C 17.778 0.200,16.253 1.700,16.131 1.958 C 15.983 2.270,16.015 2.678,16.210 2.978 C 16.303 3.121,19.256 6.112,22.773 9.625 L 29.166 16.012 22.665 22.516 C 18.733 26.450,16.138 29.090,16.098 29.196 C 16.012 29.423,16.016 29.883,16.105 30.054 C 16.196 30.230,17.523 31.584,17.815 31.799 C 18.005 31.939,18.099 31.967,18.387 31.967 C 18.576 31.967,18.802 31.929,18.888 31.883 C 18.975 31.837,22.464 28.378,26.642 24.197 C 32.034 18.801,34.264 16.533,34.327 16.379 C 34.444 16.095,34.438 15.889,34.305 15.604 C 34.229 15.442,31.848 13.027,26.533 7.722 C 18.529 -0.269,18.807 -0.006,18.353 0.002 C 18.285 0.004,18.138 0.044,18.027 0.092 " fill="#2B2C30" stroke="none" fill-rule="evenodd"></path></svg>