<svg width="19" height="32" viewBox="0 0 19 32" fill="none" xmlns="http://www.w3.org/2000/svg"><path d="M2.132 0.044 C 2.059 0.067,1.952 0.116,1.894 0.153 C 1.837 0.189,1.423 0.586,0.975 1.035 C 0.103 1.911,0.044 1.990,0.009 2.324 C -0.012 2.530,0.064 2.811,0.190 2.991 C 0.240 3.061,3.181 6.019,6.727 9.563 L 13.173 16.007 6.667 22.515 C -0.449 29.632,0.037 29.119,0.008 29.544 C -0.003 29.705,0.009 29.793,0.064 29.941 C 0.129 30.117,0.199 30.196,0.991 30.992 C 1.995 32.002,1.985 31.995,2.467 31.978 C 2.748 31.968,2.785 31.959,2.930 31.866 C 3.159 31.718,18.217 16.643,18.297 16.483 C 18.456 16.160,18.452 15.825,18.285 15.518 C 18.229 15.415,15.888 13.054,10.599 7.766 C 4.139 1.307,2.969 0.150,2.835 0.091 C 2.640 0.006,2.314 -0.016,2.132 0.044 " fill="#2B2C30" stroke="none" fill-rule="evenodd"></path></svg>