<svg width="27" height="48" viewBox="0 0 27 48" fill="none" xmlns="http://www.w3.org/2000/svg"><path d="M23.670 0.052 C 23.544 0.087,21.188 2.419,11.843 11.759 C 5.425 18.174,0.144 23.479,0.107 23.549 C 0.011 23.731,-0.018 24.066,0.043 24.300 C 0.093 24.488,0.946 25.352,11.759 36.172 C 18.174 42.590,23.477 47.870,23.544 47.905 C 23.728 48.003,24.265 47.990,24.471 47.883 C 24.562 47.835,24.996 47.435,25.434 46.994 C 26.263 46.161,26.412 45.952,26.414 45.627 C 26.417 45.178,27.064 45.852,15.772 34.559 C 9.993 28.781,5.265 24.032,5.265 24.008 C 5.265 23.983,9.993 19.234,15.772 13.456 C 27.064 2.163,26.417 2.837,26.414 2.388 C 26.412 2.063,26.262 1.854,25.434 1.019 C 24.439 0.015,24.224 -0.102,23.670 0.052 " fill="#2B2C30" stroke="none" fill-rule="evenodd"></path></svg>