<svg width="35" height="32" viewBox="0 0 35 32" fill="none" xmlns="http://www.w3.org/2000/svg"><path d="M15.633 0.064 C 15.434 0.142,0.197 15.382,0.087 15.613 C -0.022 15.844,-0.024 16.164,0.082 16.408 C 0.130 16.518,3.334 19.764,7.855 24.281 L 15.547 31.967 15.961 31.967 C 16.477 31.967,16.553 31.915,17.563 30.881 C 18.390 30.034,18.487 29.847,18.365 29.341 C 18.306 29.097,17.854 28.631,11.776 22.545 L 5.251 16.012 11.585 9.683 C 15.069 6.202,18.019 3.231,18.140 3.081 C 18.397 2.763,18.465 2.491,18.372 2.147 C 18.318 1.947,18.152 1.745,17.485 1.068 C 17.000 0.575,16.564 0.186,16.422 0.117 C 16.163 -0.008,15.869 -0.028,15.633 0.064 M31.588 0.112 C 31.285 0.254,16.195 15.346,16.098 15.604 C 16.013 15.829,16.016 16.290,16.103 16.462 C 16.197 16.648,31.317 31.780,31.512 31.883 C 31.714 31.990,32.276 31.991,32.480 31.884 C 32.567 31.838,33.009 31.425,33.463 30.965 C 34.111 30.308,34.302 30.079,34.352 29.896 C 34.431 29.609,34.431 29.600,34.353 29.313 C 34.299 29.110,33.419 28.207,27.762 22.545 L 21.234 16.012 27.714 9.537 C 32.183 5.073,34.229 2.990,34.305 2.829 C 34.557 2.290,34.436 2.039,33.437 1.029 C 32.414 -0.005,32.133 -0.144,31.588 0.112 " fill="#2B2C30" stroke="none" fill-rule="evenodd"></path></svg>