<svg width="32" height="35" viewBox="0 0 32 35" fill="none" xmlns="http://www.w3.org/2000/svg"><path d="M15.600 0.102 C 15.295 0.245,0.196 15.362,0.082 15.638 C -0.026 15.900,-0.020 16.139,0.102 16.400 C 0.236 16.685,1.774 18.209,2.038 18.318 C 2.290 18.422,2.563 18.422,2.815 18.318 C 2.956 18.260,4.907 16.343,9.507 11.745 L 16.000 5.254 22.493 11.745 C 27.093 16.343,29.044 18.260,29.185 18.318 C 29.449 18.427,29.739 18.420,30.000 18.298 C 30.285 18.164,31.809 16.626,31.918 16.362 C 32.026 16.100,32.020 15.861,31.898 15.600 C 31.755 15.295,16.638 0.196,16.362 0.082 C 16.100 -0.026,15.861 -0.020,15.600 0.102 M15.600 16.102 C 15.295 16.245,0.196 31.362,0.082 31.638 C -0.133 32.159,0.001 32.414,1.021 33.425 C 2.009 34.404,2.180 34.495,2.747 34.342 C 2.932 34.292,3.827 33.418,9.480 27.770 L 16.000 21.255 22.520 27.770 C 29.464 34.708,29.135 34.401,29.627 34.399 C 29.942 34.397,30.209 34.202,31.025 33.379 C 32.027 32.367,32.145 32.127,31.898 31.600 C 31.755 31.295,16.638 16.196,16.362 16.082 C 16.100 15.974,15.861 15.980,15.600 16.102 " fill="#2B2C30" stroke="none" fill-rule="evenodd"></path></svg>