<svg width="19" height="32" viewBox="0 0 19 32" fill="none" xmlns="http://www.w3.org/2000/svg"><path d="M15.723 0.042 C 15.653 0.065,15.553 0.107,15.501 0.135 C 15.449 0.163,11.970 3.625,7.770 7.828 C -0.735 16.339,0.016 15.545,0.016 16.023 C 0.016 16.212,0.032 16.295,0.095 16.426 C 0.161 16.562,1.460 17.877,7.782 24.207 C 13.720 30.151,15.425 31.842,15.548 31.904 C 15.681 31.971,15.748 31.983,15.991 31.983 C 16.437 31.983,16.448 31.976,17.404 31.020 C 18.368 30.056,18.383 30.035,18.382 29.593 C 18.381 29.345,18.370 29.287,18.297 29.149 C 18.234 29.030,16.609 27.388,11.735 22.515 C 8.172 18.953,5.257 16.026,5.257 16.009 C 5.257 15.993,8.184 13.050,11.763 9.470 C 16.608 4.622,18.282 2.929,18.321 2.836 C 18.448 2.529,18.427 2.173,18.265 1.898 C 18.219 1.821,17.821 1.400,17.380 0.963 C 16.778 0.368,16.539 0.151,16.423 0.098 C 16.231 0.010,15.899 -0.016,15.723 0.042 " fill="#2B2C30" stroke="none" fill-rule="evenodd"></path></svg>