<svg width="48" height="27" viewBox="0 0 48 27" fill="none" xmlns="http://www.w3.org/2000/svg"><path d="M23.544 0.140 C 23.260 0.297,0.239 23.381,0.093 23.655 C -0.032 23.890,-0.024 24.202,0.113 24.464 C 0.175 24.583,0.617 25.064,1.094 25.533 C 2.022 26.445,2.283 26.581,2.756 26.401 C 2.895 26.349,7.291 21.999,13.495 15.776 L 23.999 5.240 34.543 15.810 C 42.911 24.200,45.139 26.392,45.343 26.436 C 45.797 26.536,46.079 26.363,47.041 25.399 L 47.960 24.477 47.960 24.052 L 47.960 23.626 36.338 11.953 C 29.945 5.533,24.600 0.217,24.459 0.140 C 24.318 0.063,24.111 0.000,24.000 0.000 C 23.889 0.000,23.684 0.063,23.544 0.140 " fill="#2B2C30" stroke="none" fill-rule="evenodd"></path></svg>