<svg width="43" height="48" viewBox="0 0 43 48" fill="none" xmlns="http://www.w3.org/2000/svg"><path d="M1.859 0.204 C 1.357 0.527,0.098 1.866,0.038 2.142 C -0.100 2.768,-0.784 2.037,10.629 13.455 L 21.177 24.008 10.629 34.561 C 1.305 43.890,0.075 45.145,0.033 45.377 C -0.061 45.901,0.033 46.060,1.003 47.031 L 1.916 47.945 2.409 47.945 L 2.901 47.945 14.566 36.281 C 23.969 26.880,26.254 24.560,26.346 24.319 C 26.441 24.070,26.445 23.974,26.373 23.745 C 26.302 23.521,24.151 21.333,14.666 11.836 C 7.805 4.966,2.951 0.160,2.815 0.100 C 2.469 -0.050,2.213 -0.022,1.859 0.204 M18.024 0.103 C 17.906 0.157,17.428 0.585,16.962 1.056 C 16.304 1.720,16.102 1.970,16.055 2.177 C 15.916 2.793,15.335 2.172,26.647 13.491 L 37.158 24.008 26.647 34.525 C 15.326 45.853,15.916 45.223,16.056 45.843 C 16.105 46.059,16.303 46.298,17.040 47.029 L 17.963 47.945 18.423 47.945 L 18.883 47.945 30.584 36.245 C 39.065 27.765,42.306 24.480,42.362 24.308 C 42.561 23.707,43.360 24.557,30.687 11.872 C 23.805 4.983,18.933 0.160,18.797 0.100 C 18.512 -0.024,18.302 -0.023,18.024 0.103 " fill="#2B2C30" stroke="none" fill-rule="evenodd"></path></svg>