<svg width="56" height="56" viewBox="0 0 56 56" fill="none" xmlns="http://www.w3.org/2000/svg"><path d="M26.133 0.059 C 17.913 0.672,10.583 4.646,5.629 11.176 C 2.802 14.901,1.033 19.181,0.255 24.172 C -0.030 26.001,-0.030 29.999,0.255 31.828 C 0.790 35.261,1.802 38.387,3.269 41.134 C 5.870 46.008,9.992 50.130,14.866 52.731 C 17.613 54.198,20.739 55.210,24.172 55.745 C 26.001 56.030,29.999 56.030,31.828 55.745 C 38.632 54.685,44.416 51.617,48.757 46.767 C 52.604 42.467,54.828 37.714,55.745 31.828 C 56.030 29.999,56.030 26.001,55.745 24.172 C 54.968 19.185,53.197 14.901,50.377 11.183 C 45.747 5.081,39.129 1.242,31.500 0.232 C 30.407 0.087,27.159 -0.017,26.133 0.059 M31.622 4.285 C 34.105 4.661,36.257 5.341,38.605 6.491 C 43.316 8.800,47.200 12.684,49.509 17.397 C 50.346 19.104,50.776 20.251,51.190 21.873 C 52.254 26.050,52.254 29.950,51.190 34.127 C 50.205 37.993,48.126 41.673,45.221 44.695 C 37.242 52.996,24.255 54.385,14.700 47.960 C 11.131 45.560,8.342 42.381,6.491 38.605 C 5.338 36.251,4.674 34.151,4.276 31.593 C 3.982 29.714,3.982 26.286,4.276 24.407 C 4.674 21.849,5.338 19.749,6.491 17.395 C 8.335 13.634,11.122 10.452,14.653 8.076 C 17.952 5.856,21.652 4.530,25.713 4.112 C 27.039 3.975,30.186 4.067,31.622 4.285 " fill="#2B2C30" stroke="none" fill-rule="evenodd"></path></svg>