<svg width="56" height="56" viewBox="0 0 56 56" fill="none" xmlns="http://www.w3.org/2000/svg"><path d="M25.947 0.054 C 25.767 0.075,25.221 0.136,24.733 0.190 C 15.501 1.209,7.146 7.073,2.948 15.482 C 1.528 18.327,0.634 21.302,0.169 24.733 C 0.010 25.905,0.010 30.095,0.169 31.267 C 1.058 37.830,3.722 43.307,8.208 47.792 C 12.693 52.278,18.162 54.938,24.733 55.831 C 25.910 55.991,30.092 55.988,31.267 55.826 C 36.431 55.116,40.930 53.311,44.772 50.408 C 50.812 45.844,54.546 39.522,55.745 31.828 C 55.910 30.772,55.942 30.148,55.942 28.000 C 55.942 25.852,55.910 25.228,55.745 24.172 C 54.968 19.185,53.197 14.901,50.377 11.183 C 45.758 5.096,39.176 1.269,31.547 0.234 C 30.532 0.097,26.651 -0.028,25.947 0.054 M31.636 4.293 C 34.072 4.650,36.250 5.338,38.605 6.491 C 43.316 8.800,47.200 12.684,49.509 17.397 C 50.346 19.104,50.776 20.251,51.190 21.873 C 52.254 26.050,52.254 29.950,51.190 34.127 C 50.776 35.750,50.346 36.896,49.509 38.605 C 46.255 45.245,40.030 50.045,32.760 51.523 C 31.539 51.771,29.677 51.985,28.723 51.986 L 28.000 51.987 28.000 27.986 L 28.000 3.985 29.204 4.049 C 29.866 4.084,30.961 4.194,31.636 4.293 " fill="#2B2C30" stroke="none" fill-rule="evenodd"></path></svg>