<svg width="56" height="56" viewBox="0 0 56 56" fill="none" xmlns="http://www.w3.org/2000/svg"><path d="M26.133 0.066 C 25.189 0.124,23.391 0.377,22.213 0.619 C 15.695 1.955,9.757 5.735,5.629 11.176 C 2.802 14.901,1.033 19.181,0.255 24.172 C -0.030 26.001,-0.030 29.999,0.255 31.828 C 0.790 35.261,1.802 38.387,3.269 41.134 C 5.870 46.008,9.992 50.130,14.866 52.731 C 17.613 54.198,20.739 55.210,24.172 55.745 C 26.001 56.030,29.999 56.030,31.828 55.745 C 36.821 54.967,41.098 53.198,44.828 50.368 C 50.793 45.843,54.580 39.436,55.734 31.920 C 55.911 30.767,55.942 30.186,55.942 28.000 C 55.942 25.814,55.911 25.233,55.734 24.080 C 54.793 17.951,52.095 12.531,47.880 8.306 C 42.109 2.521,34.309 -0.435,26.133 0.066 M28.000 15.983 L 28.000 27.953 36.500 36.453 L 45.000 44.953 44.385 45.528 C 36.262 53.127,23.890 54.140,14.700 47.960 C 11.131 45.560,8.342 42.381,6.491 38.605 C 5.338 36.251,4.674 34.151,4.276 31.593 C 3.982 29.714,3.982 26.286,4.276 24.407 C 4.674 21.849,5.338 19.749,6.491 17.395 C 8.726 12.835,12.457 9.029,16.987 6.688 C 20.178 5.038,23.862 4.085,27.277 4.026 L 28.000 4.013 28.000 15.983 " fill="#2B2C30" stroke="none" fill-rule="evenodd"></path></svg>