<svg width="55" height="36" viewBox="0 0 55 36" fill="none" xmlns="http://www.w3.org/2000/svg"><path d="M7.333 0.065 C 7.258 0.093,7.118 0.182,7.022 0.264 C 6.799 0.454,0.135 10.445,0.048 10.719 C -0.054 11.041,0.072 11.500,0.330 11.742 L 0.565 11.962 27.133 11.962 L 53.702 11.962 53.937 11.742 C 54.193 11.501,54.321 11.041,54.220 10.723 C 54.129 10.435,47.460 0.449,47.212 0.229 C 47.007 0.047,46.864 0.046,27.238 0.030 C 16.366 0.021,7.409 0.037,7.333 0.065 M46.291 5.957 C 46.997 7.015,47.575 7.901,47.575 7.928 C 47.575 7.954,38.376 7.975,27.133 7.975 C 15.890 7.975,6.692 7.954,6.692 7.928 C 6.692 7.901,7.270 7.015,7.976 5.957 L 9.260 4.033 27.133 4.033 L 45.006 4.033 46.291 5.957 M11.854 20.084 C 11.693 20.131,11.476 20.277,11.372 20.409 C 11.200 20.628,11.183 20.774,11.183 22.041 C 11.183 23.327,11.198 23.448,11.375 23.638 C 11.481 23.752,11.669 23.883,11.794 23.931 C 12.099 24.047,42.168 24.047,42.473 23.931 C 42.597 23.883,42.786 23.752,42.891 23.638 C 43.069 23.448,43.083 23.327,43.083 22.041 C 43.083 20.459,43.010 20.257,42.369 20.079 C 41.930 19.957,12.275 19.962,11.854 20.084 M19.838 32.090 C 19.262 32.258,19.207 32.411,19.175 33.957 L 19.146 35.354 19.389 35.644 L 19.633 35.933 27.133 35.933 L 34.634 35.933 34.877 35.644 L 35.121 35.354 35.092 33.957 C 35.059 32.390,35.009 32.258,34.384 32.084 C 33.967 31.969,20.238 31.974,19.838 32.090 " fill="#2B2C30" stroke="none" fill-rule="evenodd"></path></svg>