<svg width="48" height="54" viewBox="0 0 48 54" fill="none" xmlns="http://www.w3.org/2000/svg"><path d="M8.980 0.085 C 6.468 0.412,3.849 2.088,1.987 4.560 C -0.120 7.358,-0.549 10.499,0.738 13.705 C 1.085 14.569,1.578 15.426,2.206 16.256 C 2.533 16.688,7.507 21.711,16.414 30.604 C 31.292 45.458,30.435 44.651,31.800 45.090 C 33.044 45.491,34.385 45.416,35.576 44.877 C 37.501 44.008,39.091 42.083,39.433 40.205 C 39.684 38.834,39.340 37.196,38.555 36.022 C 38.188 35.473,11.314 8.589,10.920 8.377 C 10.473 8.136,9.610 8.136,9.155 8.377 C 8.473 8.736,8.052 9.418,8.052 10.160 C 8.052 11.001,7.241 10.143,21.765 24.680 C 31.371 34.294,35.309 38.286,35.397 38.497 C 35.553 38.875,35.552 39.143,35.392 39.680 C 35.208 40.302,34.446 41.056,33.818 41.238 C 32.900 41.505,34.292 42.793,19.175 27.691 C 4.450 12.981,4.960 13.520,4.404 12.078 C 3.760 10.409,3.932 8.832,4.922 7.314 C 5.320 6.703,6.703 5.320,7.314 4.922 C 8.832 3.932,10.409 3.760,12.078 4.404 C 13.522 4.961,12.960 4.428,27.929 19.415 C 42.986 34.490,42.145 33.597,43.032 35.440 C 44.232 37.934,44.291 40.452,43.202 42.775 C 42.074 45.183,39.690 47.644,37.352 48.814 C 34.333 50.325,31.223 50.010,27.962 47.865 C 27.224 47.379,26.242 46.421,15.600 35.798 C 3.024 23.244,3.893 24.050,2.947 24.059 C 2.140 24.066,1.372 24.635,1.115 25.415 C 0.996 25.776,1.052 26.520,1.225 26.881 C 1.305 27.047,6.150 31.947,13.060 38.850 C 24.677 50.455,24.767 50.543,25.760 51.202 C 27.483 52.345,29.304 53.125,31.200 53.531 C 32.404 53.789,34.709 53.791,35.892 53.536 C 38.594 52.952,41.046 51.562,43.303 49.334 C 45.747 46.920,47.246 44.308,47.812 41.477 C 48.036 40.354,48.016 38.151,47.771 37.000 C 47.289 34.739,46.274 32.610,44.756 30.680 C 44.480 30.328,38.013 23.809,30.387 16.194 C 15.395 1.225,16.143 1.933,14.402 1.058 C 12.705 0.205,10.752 -0.145,8.980 0.085 " fill="#2B2C30" stroke="none" fill-rule="evenodd"></path></svg>