<svg width="48" height="56" viewBox="0 0 48 56" fill="none" xmlns="http://www.w3.org/2000/svg"><path d="M12.504 0.157 C 12.039 0.440,12.000 0.615,12.000 2.396 L 12.000 4.000 6.396 4.000 C 0.211 4.000,0.477 3.979,0.157 4.504 C 0.003 4.756,0.001 5.096,0.000 28.576 C 0.000 45.655,0.025 52.512,0.088 52.816 C 0.401 54.315,1.685 55.599,3.184 55.912 C 3.785 56.037,44.215 56.037,44.816 55.912 C 46.315 55.599,47.599 54.315,47.912 52.816 C 47.975 52.512,48.000 45.658,48.000 28.592 C 48.000 2.287,48.045 4.492,47.496 4.157 C 47.249 4.006,47.053 4.001,41.620 4.000 L 36.000 4.000 36.000 2.396 C 36.000 0.615,35.961 0.440,35.496 0.157 C 35.245 0.004,35.007 0.001,24.000 0.001 C 12.993 0.001,12.755 0.004,12.504 0.157 M32.000 6.000 L 32.000 8.000 24.000 8.000 L 16.000 8.000 16.000 6.000 L 16.000 4.000 24.000 4.000 L 32.000 4.000 32.000 6.000 M12.000 9.604 C 12.000 11.385,12.039 11.560,12.504 11.843 C 12.755 11.996,12.993 11.999,24.000 11.999 C 35.007 11.999,35.245 11.996,35.496 11.843 C 35.961 11.560,36.000 11.385,36.000 9.604 L 36.000 8.000 40.000 8.000 L 44.000 8.000 44.000 19.000 L 44.000 30.000 38.000 30.000 L 32.000 30.000 32.000 25.854 C 32.000 21.241,31.999 21.231,31.470 20.686 C 30.903 20.102,30.038 19.863,29.348 20.098 C 28.853 20.268,12.814 30.293,12.503 30.627 C 11.802 31.383,11.843 32.726,12.588 33.445 C 13.000 33.842,28.845 43.730,29.338 43.899 C 30.048 44.140,30.874 43.909,31.457 43.307 C 32.004 42.740,32.000 42.780,32.000 38.150 L 32.000 34.000 38.000 34.000 L 44.000 34.000 44.000 43.000 L 44.000 52.000 24.000 52.000 L 4.000 52.000 4.000 30.000 L 4.000 8.000 8.000 8.000 L 12.000 8.000 12.000 9.604 M28.000 32.000 C 28.000 35.520,27.983 38.400,27.963 38.400 C 27.854 38.400,17.758 32.045,17.777 31.989 C 17.801 31.920,27.832 25.621,27.940 25.607 C 27.973 25.603,28.000 28.480,28.000 32.000 " fill="#2B2C30" stroke="none" fill-rule="evenodd"></path></svg>