<svg width="48" height="56" viewBox="0 0 48 56" fill="none" xmlns="http://www.w3.org/2000/svg"><path d="M12.504 0.157 C 12.039 0.440,12.000 0.615,12.000 2.396 L 12.000 4.000 6.396 4.000 C 0.211 4.000,0.477 3.979,0.157 4.504 C 0.003 4.756,0.001 5.096,0.000 28.576 C 0.000 45.655,0.025 52.512,0.088 52.816 C 0.401 54.315,1.685 55.599,3.184 55.912 C 3.785 56.037,44.215 56.037,44.816 55.912 C 46.315 55.599,47.599 54.315,47.912 52.816 C 47.975 52.512,48.000 45.658,48.000 28.592 C 48.000 2.287,48.045 4.492,47.496 4.157 C 47.249 4.006,47.053 4.001,41.620 4.000 L 36.000 4.000 36.000 2.396 C 36.000 0.615,35.961 0.440,35.496 0.157 C 35.245 0.004,35.007 0.001,24.000 0.001 C 12.993 0.001,12.755 0.004,12.504 0.157 M32.000 6.000 L 32.000 8.000 24.000 8.000 L 16.000 8.000 16.000 6.000 L 16.000 4.000 24.000 4.000 L 32.000 4.000 32.000 6.000 M12.000 9.604 C 12.000 11.385,12.039 11.560,12.504 11.843 C 12.755 11.996,12.993 11.999,24.000 11.999 C 35.007 11.999,35.245 11.996,35.496 11.843 C 35.961 11.560,36.000 11.385,36.000 9.604 L 36.000 8.000 40.000 8.000 L 44.000 8.000 44.000 30.000 L 44.000 52.000 30.000 52.000 L 16.000 52.000 16.000 42.000 L 16.000 32.000 21.998 32.000 L 27.995 32.000 28.018 35.719 L 28.040 39.437 28.290 39.687 C 28.647 40.044,29.129 40.090,29.542 39.808 C 29.835 39.608,38.296 32.007,39.379 30.972 C 39.984 30.393,40.089 30.127,39.895 29.663 C 39.808 29.455,38.437 28.170,34.748 24.838 C 31.983 22.340,29.612 20.230,29.480 20.149 C 29.348 20.067,29.158 20.000,29.057 20.000 C 28.733 20.000,28.328 20.224,28.162 20.495 C 28.006 20.750,28.001 20.890,28.000 24.380 L 28.000 28.000 21.855 28.000 C 17.786 28.000,15.549 28.029,15.235 28.087 C 13.723 28.363,12.406 29.659,12.088 31.184 C 12.027 31.481,12.000 34.669,12.000 41.804 L 12.000 52.000 8.000 52.000 L 4.000 52.000 4.000 30.000 L 4.000 8.000 8.000 8.000 L 12.000 8.000 12.000 9.604 " fill="#2B2C30" stroke="none" fill-rule="evenodd"></path></svg>