<svg width="48" height="56" viewBox="0 0 48 56" fill="none" xmlns="http://www.w3.org/2000/svg"><path d="M12.504 0.157 C 12.039 0.440,12.000 0.615,12.000 2.396 L 12.000 4.000 6.396 4.000 C 0.211 4.000,0.477 3.979,0.157 4.504 C 0.003 4.756,0.001 5.096,0.000 28.576 C 0.000 45.655,0.025 52.512,0.088 52.816 C 0.401 54.315,1.685 55.599,3.184 55.912 C 3.785 56.037,44.215 56.037,44.816 55.912 C 46.315 55.599,47.599 54.315,47.912 52.816 C 47.975 52.512,48.000 45.658,48.000 28.592 C 48.000 2.287,48.045 4.492,47.496 4.157 C 47.249 4.006,47.053 4.001,41.620 4.000 L 36.000 4.000 36.000 2.396 C 36.000 0.615,35.961 0.440,35.496 0.157 C 35.245 0.004,35.007 0.001,24.000 0.001 C 12.993 0.001,12.755 0.004,12.504 0.157 M32.000 6.000 L 32.000 8.000 24.000 8.000 L 16.000 8.000 16.000 6.000 L 16.000 4.000 24.000 4.000 L 32.000 4.000 32.000 6.000 M12.000 9.604 C 12.000 11.385,12.039 11.560,12.504 11.843 C 12.755 11.996,12.993 11.999,24.000 11.999 C 35.007 11.999,35.245 11.996,35.496 11.843 C 35.961 11.560,36.000 11.385,36.000 9.604 L 36.000 8.000 40.000 8.000 L 44.000 8.000 44.000 30.000 L 44.000 52.000 40.000 52.000 L 36.000 52.000 36.000 41.804 C 36.000 34.669,35.973 31.481,35.912 31.184 C 35.594 29.659,34.277 28.363,32.765 28.087 C 32.451 28.029,30.214 28.000,26.145 28.000 L 20.000 28.000 20.000 24.380 C 19.999 20.890,19.994 20.750,19.838 20.495 C 19.672 20.224,19.267 20.000,18.943 20.000 C 18.842 20.000,18.652 20.067,18.520 20.149 C 18.015 20.461,8.230 29.375,8.105 29.637 C 7.898 30.072,8.009 30.376,8.580 30.932 C 9.620 31.945,18.269 39.703,18.532 39.858 C 18.915 40.084,19.382 40.015,19.713 39.684 L 19.960 39.437 19.982 35.719 L 20.005 32.000 26.002 32.000 L 32.000 32.000 32.000 42.000 L 32.000 52.000 18.000 52.000 L 4.000 52.000 4.000 30.000 L 4.000 8.000 8.000 8.000 L 12.000 8.000 12.000 9.604 " fill="#2B2C30" stroke="none" fill-rule="evenodd"></path></svg>