<svg width="48" height="56" viewBox="0 0 48 56" fill="none" xmlns="http://www.w3.org/2000/svg"><path d="M12.504 0.157 C 12.039 0.440,12.000 0.615,12.000 2.396 L 12.000 4.000 6.396 4.000 C 0.211 4.000,0.477 3.979,0.157 4.504 C 0.003 4.756,0.001 5.096,0.000 28.576 C 0.000 45.655,0.025 52.512,0.088 52.816 C 0.401 54.315,1.685 55.599,3.184 55.912 C 3.785 56.037,44.215 56.037,44.816 55.912 C 46.315 55.599,47.599 54.315,47.912 52.816 C 47.975 52.512,48.000 45.658,48.000 28.592 C 48.000 2.287,48.045 4.492,47.496 4.157 C 47.249 4.006,47.053 4.001,41.620 4.000 L 36.000 4.000 36.000 2.396 C 36.000 0.615,35.961 0.440,35.496 0.157 C 35.245 0.004,35.007 0.001,24.000 0.001 C 12.993 0.001,12.755 0.004,12.504 0.157 M32.000 6.000 L 32.000 8.000 24.000 8.000 L 16.000 8.000 16.000 6.000 L 16.000 4.000 24.000 4.000 L 32.000 4.000 32.000 6.000 M12.000 9.604 C 12.000 11.385,12.039 11.560,12.504 11.843 C 12.755 11.996,12.993 11.999,24.000 11.999 C 35.007 11.999,35.245 11.996,35.496 11.843 C 35.961 11.560,36.000 11.385,36.000 9.604 L 36.000 8.000 40.000 8.000 L 44.000 8.000 44.000 30.000 L 44.000 52.000 24.000 52.000 L 4.000 52.000 4.000 43.000 L 4.000 34.000 10.000 34.000 L 16.000 34.000 16.000 38.150 C 16.000 42.780,15.996 42.740,16.543 43.307 C 17.126 43.910,17.952 44.140,18.663 43.898 C 19.156 43.730,34.999 33.842,35.412 33.445 C 36.157 32.727,36.198 31.382,35.497 30.628 C 35.185 30.293,19.146 20.267,18.652 20.098 C 17.962 19.863,17.097 20.102,16.530 20.686 C 16.001 21.231,16.000 21.241,16.000 25.854 L 16.000 30.000 10.000 30.000 L 4.000 30.000 4.000 19.000 L 4.000 8.000 8.000 8.000 L 12.000 8.000 12.000 9.604 M25.131 28.761 C 27.919 30.499,30.210 31.952,30.222 31.988 C 30.241 32.044,20.146 38.400,20.038 38.400 C 20.017 38.400,20.000 35.520,20.000 32.000 C 20.000 28.480,20.014 25.600,20.031 25.600 C 20.048 25.600,22.343 27.022,25.131 28.761 " fill="#2B2C30" stroke="none" fill-rule="evenodd"></path></svg>