<svg width="48" height="56" viewBox="0 0 48 56" fill="none" xmlns="http://www.w3.org/2000/svg"><path d="M12.504 0.157 C 12.039 0.440,12.000 0.615,12.000 2.396 L 12.000 4.000 6.380 4.000 C 0.947 4.001,0.751 4.006,0.504 4.157 C -0.048 4.493,-0.004 2.247,0.019 28.818 L 0.040 52.840 0.212 53.288 C 0.663 54.468,1.531 55.338,2.700 55.784 L 3.160 55.960 24.000 55.960 L 44.840 55.960 45.300 55.784 C 46.469 55.338,47.337 54.468,47.788 53.288 L 47.960 52.840 47.981 28.818 C 48.004 2.247,48.048 4.493,47.496 4.157 C 47.249 4.006,47.053 4.001,41.620 4.000 L 36.000 4.000 36.000 2.396 C 36.000 0.615,35.961 0.440,35.496 0.157 C 35.245 0.004,35.007 0.001,24.000 0.001 C 12.993 0.001,12.755 0.004,12.504 0.157 M32.000 6.000 L 32.000 8.000 24.000 8.000 L 16.000 8.000 16.000 6.000 L 16.000 4.000 24.000 4.000 L 32.000 4.000 32.000 6.000 M12.000 9.604 C 12.000 11.385,12.039 11.560,12.504 11.843 C 12.755 11.996,12.993 11.999,24.000 11.999 C 35.007 11.999,35.245 11.996,35.496 11.843 C 35.961 11.560,36.000 11.385,36.000 9.604 L 36.000 8.000 40.000 8.000 L 44.000 8.000 44.000 30.000 L 44.000 52.000 24.000 52.000 L 4.000 52.000 4.000 30.000 L 4.000 8.000 8.000 8.000 L 12.000 8.000 12.000 9.604 M8.504 20.157 C 8.061 20.427,8.000 20.650,8.000 22.000 C 8.000 23.350,8.061 23.573,8.504 23.843 C 8.756 23.997,9.026 23.999,24.000 23.999 C 38.974 23.999,39.244 23.997,39.496 23.843 C 39.939 23.573,40.000 23.350,40.000 22.000 C 40.000 20.650,39.939 20.427,39.496 20.157 C 39.244 20.003,38.974 20.001,24.000 20.001 C 9.026 20.001,8.756 20.003,8.504 20.157 M8.504 28.157 C 8.061 28.427,8.000 28.650,8.000 30.000 C 8.000 31.350,8.061 31.573,8.504 31.843 C 8.756 31.997,9.026 31.999,24.000 31.999 C 38.974 31.999,39.244 31.997,39.496 31.843 C 39.939 31.573,40.000 31.350,40.000 30.000 C 40.000 28.650,39.939 28.427,39.496 28.157 C 39.244 28.003,38.974 28.001,24.000 28.001 C 9.026 28.001,8.756 28.003,8.504 28.157 M8.504 36.157 C 8.061 36.427,8.000 36.650,8.000 38.000 C 8.000 39.350,8.061 39.573,8.504 39.843 C 8.756 39.997,9.026 39.999,24.000 39.999 C 38.974 39.999,39.244 39.997,39.496 39.843 C 39.939 39.573,40.000 39.350,40.000 38.000 C 40.000 36.650,39.939 36.427,39.496 36.157 C 39.244 36.003,38.974 36.001,24.000 36.001 C 9.026 36.001,8.756 36.003,8.504 36.157 " fill="#2B2C30" stroke="none" fill-rule="evenodd"></path></svg>