<svg width="48" height="56" viewBox="0 0 48 56" fill="none" xmlns="http://www.w3.org/2000/svg"><path d="M12.504 0.157 C 12.039 0.440,12.000 0.615,12.000 2.396 L 12.000 4.000 6.380 4.000 C 0.947 4.001,0.751 4.006,0.504 4.157 C -0.048 4.493,-0.004 2.247,0.019 28.818 L 0.040 52.840 0.212 53.288 C 0.663 54.468,1.531 55.338,2.700 55.784 L 3.160 55.960 24.000 55.960 L 44.840 55.960 45.300 55.784 C 46.469 55.338,47.337 54.468,47.788 53.288 L 47.960 52.840 47.981 28.818 C 48.004 2.247,48.048 4.493,47.496 4.157 C 47.249 4.006,47.053 4.001,41.620 4.000 L 36.000 4.000 36.000 2.396 C 36.000 0.615,35.961 0.440,35.496 0.157 C 35.245 0.004,35.007 0.001,24.000 0.001 C 12.993 0.001,12.755 0.004,12.504 0.157 M32.000 6.000 L 32.000 8.000 24.000 8.000 L 16.000 8.000 16.000 6.000 L 16.000 4.000 24.000 4.000 L 32.000 4.000 32.000 6.000 M12.000 9.604 C 12.000 11.385,12.039 11.560,12.504 11.843 C 12.755 11.996,12.993 11.999,24.000 11.999 C 35.007 11.999,35.245 11.996,35.496 11.843 C 35.961 11.560,36.000 11.385,36.000 9.604 L 36.000 8.000 40.000 8.000 L 44.000 8.000 44.000 30.000 L 44.000 52.000 24.000 52.000 L 4.000 52.000 4.000 30.000 L 4.000 8.000 8.000 8.000 L 12.000 8.000 12.000 9.604 M17.519 20.075 C 17.151 20.187,16.810 20.398,16.529 20.687 C 15.968 21.265,16.000 20.580,16.000 32.004 C 16.000 43.450,15.964 42.708,16.543 43.307 C 17.126 43.910,17.952 44.140,18.663 43.898 C 19.156 43.730,34.999 33.842,35.412 33.445 C 36.157 32.727,36.198 31.382,35.497 30.628 C 35.205 30.314,19.172 20.279,18.691 20.110 C 18.356 19.992,17.843 19.976,17.519 20.075 M25.131 28.761 C 27.919 30.499,30.210 31.952,30.222 31.988 C 30.241 32.044,20.146 38.400,20.038 38.400 C 20.017 38.400,20.000 35.520,20.000 32.000 C 20.000 28.480,20.014 25.600,20.031 25.600 C 20.048 25.600,22.343 27.022,25.131 28.761 " fill="#2B2C30" stroke="none" fill-rule="evenodd"></path></svg>