<svg width="48" height="56" viewBox="0 0 48 56" fill="none" xmlns="http://www.w3.org/2000/svg"><path d="M12.504 0.157 C 12.039 0.440,12.000 0.615,12.000 2.396 L 12.000 4.000 6.380 4.000 C 0.947 4.001,0.751 4.006,0.504 4.157 C -0.048 4.493,-0.004 2.247,0.019 28.818 L 0.040 52.840 0.212 53.288 C 0.663 54.468,1.531 55.338,2.700 55.784 L 3.160 55.960 24.000 55.960 L 44.840 55.960 45.300 55.784 C 46.469 55.338,47.337 54.468,47.788 53.288 L 47.960 52.840 47.981 28.818 C 48.004 2.247,48.048 4.493,47.496 4.157 C 47.249 4.006,47.053 4.001,41.620 4.000 L 36.000 4.000 36.000 2.396 C 36.000 0.615,35.961 0.440,35.496 0.157 C 35.245 0.004,35.007 0.001,24.000 0.001 C 12.993 0.001,12.755 0.004,12.504 0.157 M32.000 6.000 L 32.000 8.000 24.000 8.000 L 16.000 8.000 16.000 6.000 L 16.000 4.000 24.000 4.000 L 32.000 4.000 32.000 6.000 M12.000 9.604 C 12.000 11.385,12.039 11.560,12.504 11.843 C 12.755 11.996,12.993 11.999,24.000 11.999 C 35.007 11.999,35.245 11.996,35.496 11.843 C 35.961 11.560,36.000 11.385,36.000 9.604 L 36.000 8.000 40.000 8.000 L 44.000 8.000 44.000 30.000 L 44.000 52.000 24.000 52.000 L 4.000 52.000 4.000 30.000 L 4.000 8.000 8.000 8.000 L 12.000 8.000 12.000 9.604 M8.504 20.157 C 8.061 20.427,8.000 20.650,8.000 22.000 C 8.000 23.350,8.061 23.573,8.504 23.843 C 8.729 23.980,8.911 23.999,10.000 23.999 C 11.089 23.999,11.271 23.980,11.496 23.843 C 11.940 23.572,12.000 23.352,12.000 21.984 C 11.999 20.911,11.980 20.728,11.843 20.504 C 11.572 20.060,11.352 20.000,9.984 20.000 C 8.911 20.001,8.728 20.020,8.504 20.157 M16.504 20.157 C 16.061 20.427,16.000 20.650,16.000 22.000 C 16.000 23.350,16.061 23.573,16.504 23.843 C 16.755 23.996,16.993 23.999,28.000 23.999 C 39.007 23.999,39.245 23.996,39.496 23.843 C 39.939 23.573,40.000 23.350,40.000 22.000 C 40.000 20.650,39.939 20.427,39.496 20.157 C 39.245 20.004,39.007 20.001,28.000 20.001 C 16.993 20.001,16.755 20.004,16.504 20.157 M8.504 28.157 C 8.061 28.427,8.000 28.650,8.000 30.000 C 8.000 31.350,8.061 31.573,8.504 31.843 C 8.729 31.980,8.911 31.999,10.000 31.999 C 11.089 31.999,11.271 31.980,11.496 31.843 C 11.940 31.572,12.000 31.352,12.000 29.984 C 11.999 28.911,11.980 28.728,11.843 28.504 C 11.572 28.060,11.352 28.000,9.984 28.000 C 8.911 28.001,8.728 28.020,8.504 28.157 M16.504 28.157 C 16.061 28.427,16.000 28.650,16.000 30.000 C 16.000 31.350,16.061 31.573,16.504 31.843 C 16.755 31.996,16.993 31.999,28.000 31.999 C 39.007 31.999,39.245 31.996,39.496 31.843 C 39.939 31.573,40.000 31.350,40.000 30.000 C 40.000 28.650,39.939 28.427,39.496 28.157 C 39.245 28.004,39.007 28.001,28.000 28.001 C 16.993 28.001,16.755 28.004,16.504 28.157 M8.504 36.157 C 8.061 36.427,8.000 36.650,8.000 38.000 C 8.000 39.350,8.061 39.573,8.504 39.843 C 8.729 39.980,8.911 39.999,10.000 39.999 C 11.089 39.999,11.271 39.980,11.496 39.843 C 11.940 39.572,12.000 39.352,12.000 37.984 C 11.999 36.911,11.980 36.728,11.843 36.504 C 11.572 36.060,11.352 36.000,9.984 36.000 C 8.911 36.001,8.728 36.020,8.504 36.157 M16.504 36.157 C 16.061 36.427,16.000 36.650,16.000 38.000 C 16.000 39.350,16.061 39.573,16.504 39.843 C 16.755 39.996,16.993 39.999,28.000 39.999 C 39.007 39.999,39.245 39.996,39.496 39.843 C 39.939 39.573,40.000 39.350,40.000 38.000 C 40.000 36.650,39.939 36.427,39.496 36.157 C 39.245 36.004,39.007 36.001,28.000 36.001 C 16.993 36.001,16.755 36.004,16.504 36.157 " fill="#2B2C30" stroke="none" fill-rule="evenodd"></path></svg>