<svg width="60" height="44" viewBox="0 0 60 44" fill="none" xmlns="http://www.w3.org/2000/svg"><path d="M24.209 0.105 C 22.335 0.340,20.206 1.056,18.747 1.942 C 17.519 2.688,16.912 3.168,15.845 4.240 C 13.887 6.207,12.577 8.652,12.045 11.334 L 11.876 12.184 11.238 12.295 C 10.887 12.356,10.195 12.538,9.700 12.700 C 7.486 13.424,5.807 14.470,4.099 16.190 C 2.052 18.253,0.889 20.397,0.283 23.231 C -0.028 24.688,-0.028 27.312,0.283 28.769 C 0.896 31.632,2.058 33.763,4.148 35.852 C 6.216 37.920,8.301 39.066,11.180 39.717 C 12.125 39.931,12.351 39.937,20.075 39.974 L 28.000 40.011 28.000 38.010 L 28.000 36.008 20.175 35.977 C 12.477 35.946,12.337 35.942,11.574 35.726 C 7.903 34.692,5.280 32.064,4.277 28.418 C 3.971 27.305,3.971 24.695,4.277 23.582 C 4.788 21.725,5.631 20.260,6.945 18.945 C 8.268 17.623,9.769 16.762,11.582 16.287 C 12.488 16.050,14.483 15.937,15.330 16.076 L 15.909 16.171 15.830 15.461 C 15.423 11.835,16.784 8.447,19.529 6.251 C 23.694 2.918,29.655 3.352,33.289 7.252 C 33.641 7.629,34.129 8.248,34.374 8.626 C 34.799 9.284,35.598 11.035,35.602 11.317 C 35.602 11.390,35.645 11.517,35.697 11.598 C 35.776 11.723,35.835 11.704,36.070 11.480 C 36.496 11.075,37.449 10.534,38.187 10.280 C 39.137 9.952,40.863 9.952,41.813 10.280 C 42.635 10.563,43.524 11.089,44.054 11.606 L 44.458 12.000 45.754 12.001 C 46.962 12.002,48.524 12.127,49.086 12.268 C 49.318 12.326,49.307 12.287,48.845 11.412 C 47.304 8.489,44.497 6.526,41.237 6.093 C 40.331 5.972,38.804 6.024,38.050 6.202 C 37.711 6.282,37.627 6.268,37.500 6.111 C 37.418 6.009,37.051 5.547,36.686 5.084 C 34.832 2.733,31.788 0.927,28.604 0.290 C 27.485 0.066,25.263 -0.028,24.209 0.105 M44.650 16.063 C 43.822 16.153,42.548 16.420,41.764 16.667 C 37.403 18.045,33.834 21.712,32.560 26.124 C 32.421 26.604,32.277 27.223,32.241 27.499 L 32.174 28.000 34.183 28.000 L 36.192 28.000 36.302 27.575 C 36.522 26.721,36.631 26.432,37.075 25.526 C 38.359 22.908,40.851 20.947,43.800 20.232 C 44.815 19.986,47.249 19.985,48.236 20.231 C 49.786 20.617,51.213 21.339,52.437 22.354 L 53.124 22.924 51.318 24.737 C 50.169 25.890,49.487 26.651,49.444 26.827 C 49.360 27.176,49.549 27.644,49.857 27.845 C 50.196 28.068,59.057 28.079,59.485 27.857 C 59.993 27.595,60.000 27.527,60.000 22.653 L 60.000 18.115 59.744 17.811 C 59.397 17.399,58.914 17.312,58.479 17.585 C 58.298 17.698,57.636 18.307,57.007 18.939 L 55.865 20.089 55.257 19.526 C 54.600 18.918,53.181 17.947,52.300 17.502 C 51.357 17.027,49.885 16.521,48.798 16.300 C 47.780 16.092,45.551 15.965,44.650 16.063 M32.511 32.140 C 32.008 32.418,32.007 32.429,32.004 37.335 L 32.000 41.920 32.340 42.260 C 32.588 42.508,32.768 42.600,33.007 42.600 C 33.293 42.600,33.506 42.429,34.711 41.236 L 36.088 39.871 36.769 40.496 C 38.482 42.066,40.819 43.219,43.400 43.768 C 44.593 44.022,47.407 44.022,48.600 43.768 C 51.408 43.171,53.656 42.001,55.622 40.114 C 57.664 38.154,58.901 36.036,59.598 33.308 C 59.939 31.972,60.122 32.092,57.781 32.123 L 55.763 32.150 55.646 32.600 C 55.171 34.436,53.957 36.353,52.481 37.596 C 51.245 38.636,50.086 39.231,48.350 39.718 C 47.676 39.907,47.306 39.942,46.000 39.940 C 44.643 39.938,44.328 39.905,43.473 39.674 C 42.935 39.529,42.080 39.207,41.573 38.958 C 40.651 38.506,39.000 37.303,39.000 37.083 C 39.000 37.019,39.810 36.149,40.800 35.150 C 42.395 33.540,42.600 33.296,42.600 33.006 C 42.600 32.769,42.508 32.588,42.260 32.340 L 41.920 32.000 37.335 32.004 C 33.721 32.006,32.699 32.035,32.511 32.140 " fill="#2B2C30" stroke="none" fill-rule="evenodd"></path></svg>