<svg width="56" height="40" viewBox="0 0 56 40" fill="none" xmlns="http://www.w3.org/2000/svg"><path d="M24.267 0.102 C 22.609 0.287,21.094 0.746,19.507 1.542 C 15.822 3.391,13.094 6.839,12.159 10.827 C 12.032 11.366,11.913 11.892,11.894 11.997 C 11.866 12.153,11.744 12.207,11.223 12.297 C 10.295 12.456,8.953 12.914,7.887 13.437 C 3.866 15.405,1.116 19.006,0.219 23.477 C -0.035 24.740,-0.013 27.536,0.260 28.771 C 1.384 33.863,4.868 37.783,9.645 39.334 C 11.680 39.995,10.307 39.954,29.213 39.924 L 46.247 39.898 47.087 39.649 C 50.078 38.760,52.343 37.113,54.004 34.617 C 56.991 30.131,56.572 24.131,52.991 20.110 C 52.254 19.282,51.471 18.596,50.627 18.037 L 49.968 17.600 49.971 16.197 C 49.973 15.395,49.923 14.553,49.855 14.233 C 49.019 10.330,46.407 7.471,42.691 6.393 C 41.396 6.018,39.724 5.949,37.987 6.199 L 37.567 6.259 37.251 5.789 C 36.777 5.081,35.441 3.703,34.574 3.026 C 31.649 0.742,27.946 -0.308,24.267 0.102 M27.980 4.236 C 30.920 4.882,33.431 6.794,34.798 9.427 C 35.244 10.287,35.653 11.336,35.653 11.620 C 35.653 11.823,35.696 11.803,36.260 11.344 C 36.854 10.860,37.912 10.337,38.631 10.171 C 39.278 10.022,40.707 10.021,41.356 10.170 C 41.633 10.234,42.212 10.454,42.643 10.659 C 43.657 11.141,44.781 12.224,45.287 13.207 C 46.342 15.254,46.173 17.673,44.844 19.522 C 44.666 19.771,44.520 19.995,44.520 20.020 C 44.520 20.046,44.636 20.067,44.777 20.068 C 45.234 20.071,46.258 20.326,46.991 20.620 C 48.866 21.371,50.294 22.721,51.193 24.593 C 51.783 25.821,51.931 26.501,51.935 28.000 C 51.939 29.640,51.640 30.767,50.853 32.071 C 50.012 33.466,48.926 34.461,47.460 35.183 C 45.685 36.058,47.497 35.980,28.887 35.980 L 12.460 35.980 11.699 35.777 C 9.394 35.161,7.570 33.995,6.194 32.257 C 4.438 30.039,3.697 27.193,4.151 24.407 C 4.826 20.255,8.106 16.906,12.195 16.193 C 13.050 16.044,14.778 16.016,15.525 16.139 L 15.977 16.213 15.920 15.970 C 15.787 15.394,15.752 13.438,15.862 12.687 C 16.168 10.595,17.109 8.685,18.601 7.125 C 20.115 5.543,22.223 4.448,24.407 4.111 C 25.194 3.989,27.172 4.059,27.980 4.236 " fill="#2B2C30" stroke="none" fill-rule="evenodd"></path></svg>