<svg width="60" height="44" viewBox="0 0 60 44" fill="none" xmlns="http://www.w3.org/2000/svg"><path d="M24.600 0.059 C 24.407 0.082,23.823 0.174,23.300 0.263 C 17.777 1.204,13.177 5.717,12.036 11.311 L 11.861 12.173 11.224 12.290 C 7.331 13.007,3.507 15.873,1.615 19.490 C 1.052 20.567,0.506 22.108,0.232 23.400 C -0.023 24.597,-0.022 27.410,0.233 28.598 C 0.933 31.855,2.404 34.418,4.790 36.537 C 6.679 38.215,9.103 39.365,11.682 39.805 C 12.752 39.988,13.362 40.000,21.920 40.000 L 31.020 40.000 30.757 39.575 C 30.424 39.038,29.397 36.987,29.180 36.425 L 29.016 36.000 21.071 36.000 C 14.476 36.000,12.981 35.975,12.270 35.851 C 8.321 35.162,5.151 32.124,4.236 28.150 C 3.965 26.974,3.988 24.853,4.284 23.656 C 4.708 21.941,5.694 20.197,6.945 18.945 C 7.804 18.087,8.632 17.514,9.844 16.940 C 11.195 16.300,12.258 16.069,13.900 16.060 C 14.643 16.055,15.413 16.086,15.612 16.128 L 15.973 16.204 15.876 15.677 C 15.721 14.835,15.842 12.482,16.089 11.550 C 16.350 10.565,17.056 9.077,17.673 8.213 C 19.092 6.224,21.272 4.792,23.738 4.229 C 24.877 3.969,27.118 3.999,28.250 4.288 C 29.257 4.546,30.694 5.186,31.568 5.766 C 33.333 6.938,34.866 9.001,35.525 11.091 L 35.739 11.771 36.260 11.346 C 37.275 10.519,38.712 10.003,40.000 10.003 C 41.387 10.003,42.970 10.615,43.975 11.540 L 44.550 12.068 45.462 12.022 C 46.295 11.981,48.246 12.114,48.995 12.264 L 49.300 12.325 49.139 11.938 C 49.050 11.724,48.799 11.249,48.581 10.881 C 46.952 8.135,43.889 6.264,40.650 6.039 C 39.857 5.984,38.146 6.112,37.775 6.254 C 37.694 6.285,37.448 6.040,37.147 5.628 C 35.195 2.957,31.891 0.905,28.493 0.253 C 27.669 0.094,25.296 -0.023,24.600 0.059 M44.850 16.070 C 41.659 16.361,38.582 17.767,36.264 19.992 C 34.257 21.918,32.744 24.784,32.233 27.628 C 32.013 28.854,32.013 31.146,32.233 32.372 C 33.217 37.846,37.233 42.191,42.560 43.545 C 46.678 44.592,51.025 43.712,54.461 41.136 C 55.385 40.444,56.921 38.835,57.530 37.924 C 59.072 35.612,59.841 33.285,59.966 30.550 C 60.200 25.432,57.490 20.522,52.975 17.886 C 50.671 16.540,47.490 15.829,44.850 16.070 M43.452 24.612 L 46.055 27.197 48.647 24.603 C 50.073 23.176,51.332 21.994,51.445 21.975 C 51.884 21.904,52.267 22.121,53.029 22.874 C 53.461 23.301,53.883 23.780,53.967 23.939 C 54.278 24.528,54.171 24.675,51.424 27.425 L 48.851 30.000 51.365 32.525 C 52.748 33.914,53.933 35.156,53.999 35.286 C 54.241 35.762,54.054 36.109,52.999 37.146 C 51.550 38.570,51.830 38.678,48.584 35.434 L 46.002 32.853 43.372 35.477 C 40.162 38.678,40.447 38.562,39.078 37.225 C 38.079 36.249,37.859 35.916,37.947 35.514 C 37.987 35.333,38.862 34.387,40.553 32.697 C 41.954 31.297,43.100 30.106,43.100 30.050 C 43.100 29.994,41.977 28.826,40.604 27.454 C 39.231 26.081,38.056 24.836,37.994 24.685 C 37.798 24.213,38.024 23.802,38.992 22.869 C 39.857 22.035,40.094 21.905,40.600 21.987 C 40.765 22.013,41.739 22.910,43.452 24.612 " fill="#2B2C30" stroke="none" fill-rule="evenodd"></path></svg>