<svg width="56" height="51" viewBox="0 0 56 51" fill="none" xmlns="http://www.w3.org/2000/svg"><path d="M43.724 4.578 L 39.140 9.156 38.493 9.246 C 38.138 9.295,37.795 9.354,37.732 9.377 C 37.669 9.400,37.482 9.223,37.317 8.982 C 35.767 6.730,33.022 4.729,30.240 3.825 C 27.551 2.950,24.148 2.949,21.482 3.821 C 17.266 5.201,13.831 8.630,12.461 12.827 C 12.292 13.344,12.106 14.019,12.047 14.327 C 11.988 14.635,11.921 14.974,11.899 15.080 C 11.866 15.238,11.740 15.295,11.226 15.389 C 10.252 15.567,8.707 16.112,7.663 16.645 C 4.039 18.495,1.416 21.778,0.417 25.716 C -0.383 28.868,0.003 32.399,1.466 35.318 C 2.691 37.760,4.258 39.436,6.995 41.232 C 7.018 41.247,5.685 42.614,4.032 44.270 L 1.027 47.280 1.027 47.686 C 1.027 48.075,1.067 48.134,1.929 49.011 C 2.925 50.025,3.249 50.204,3.729 50.007 C 4.085 49.861,50.938 3.056,51.067 2.718 C 51.233 2.280,51.060 1.945,50.225 1.088 C 49.344 0.185,49.070 0.000,48.612 0.000 C 48.335 0.000,47.896 0.412,43.724 4.578 M27.669 7.294 C 29.085 7.535,30.760 8.262,31.927 9.141 C 33.113 10.035,34.306 11.464,34.918 12.723 L 35.134 13.166 22.575 25.725 L 10.016 38.284 9.465 38.004 C 6.964 36.732,5.062 34.353,4.319 31.566 C 4.108 30.773,4.077 30.468,4.071 29.120 C 4.064 27.427,4.207 26.634,4.765 25.281 C 5.938 22.437,8.460 20.239,11.469 19.437 C 12.243 19.231,12.572 19.197,13.860 19.189 C 14.681 19.184,15.495 19.211,15.668 19.250 C 15.962 19.315,15.978 19.307,15.919 19.110 C 15.885 18.994,15.832 18.371,15.802 17.725 C 15.632 14.069,17.290 10.797,20.323 8.802 C 22.515 7.360,25.031 6.843,27.669 7.294 M47.048 15.439 L 45.611 16.878 45.787 17.469 C 45.916 17.903,45.962 18.346,45.959 19.133 C 45.956 20.058,45.920 20.310,45.698 20.952 C 45.440 21.697,44.926 22.646,44.660 22.866 C 44.423 23.063,44.498 23.118,45.088 23.179 C 45.400 23.212,46.040 23.367,46.511 23.524 C 48.525 24.196,50.126 25.564,51.095 27.441 C 51.768 28.743,51.939 29.483,51.937 31.080 C 51.935 32.662,51.817 33.201,51.189 34.503 C 50.161 36.634,48.403 38.105,45.997 38.846 L 45.313 39.057 34.343 39.084 L 23.373 39.112 21.370 41.119 L 19.367 43.127 32.387 43.093 C 45.190 43.060,45.421 43.056,46.293 42.864 C 47.955 42.498,49.213 41.981,50.540 41.118 C 53.226 39.373,55.029 36.736,55.744 33.507 C 56.029 32.220,56.021 29.915,55.726 28.612 C 55.025 25.521,53.165 22.783,50.655 21.146 L 49.883 20.643 49.942 19.865 C 50.051 18.434,49.830 16.869,49.333 15.548 C 49.096 14.917,48.621 14.000,48.532 14.000 C 48.506 14.000,47.838 14.648,47.048 15.439 " fill="#2B2C30" stroke="none" fill-rule="evenodd"></path></svg>