<svg width="60" height="44" viewBox="0 0 60 44" fill="none" xmlns="http://www.w3.org/2000/svg"><path d="M24.600 0.059 C 22.004 0.369,19.969 1.094,17.998 2.412 C 16.856 3.176,15.387 4.570,14.539 5.694 C 13.375 7.237,12.345 9.598,11.987 11.543 L 11.871 12.171 11.229 12.289 C 8.757 12.745,6.212 14.100,4.254 16.005 C 2.157 18.045,0.866 20.420,0.232 23.400 C -0.022 24.593,-0.022 27.407,0.232 28.600 C 0.839 31.456,2.022 33.704,3.971 35.709 C 5.632 37.417,7.382 38.534,9.500 39.238 C 11.736 39.980,11.002 39.935,21.537 39.973 L 31.025 40.008 30.759 39.579 C 30.425 39.039,29.398 36.989,29.181 36.428 L 29.019 36.007 20.734 35.977 L 12.450 35.948 11.488 35.683 C 9.117 35.030,7.098 33.612,5.781 31.672 C 5.177 30.783,4.534 29.354,4.283 28.344 C 3.967 27.072,3.967 24.928,4.283 23.656 C 4.710 21.939,5.699 20.187,6.943 18.943 C 7.798 18.088,8.621 17.519,9.844 16.940 C 11.223 16.287,12.259 16.064,13.950 16.056 C 14.720 16.053,15.463 16.082,15.600 16.121 L 15.850 16.191 15.851 14.271 C 15.852 12.720,15.887 12.225,16.034 11.700 C 16.967 8.369,19.170 5.878,22.226 4.697 C 23.500 4.204,24.294 4.067,25.900 4.062 C 27.701 4.057,28.651 4.272,30.263 5.052 C 32.809 6.285,34.648 8.395,35.505 11.068 L 35.735 11.786 36.185 11.390 C 37.096 10.588,38.705 10.003,40.000 10.003 C 41.380 10.003,42.957 10.610,43.959 11.526 L 44.528 12.046 45.589 12.017 C 46.552 11.992,48.134 12.107,48.979 12.263 L 49.308 12.324 49.130 11.937 C 48.127 9.763,46.507 8.105,44.350 7.045 C 43.091 6.427,41.983 6.129,40.600 6.037 C 39.767 5.982,38.161 6.106,37.769 6.257 C 37.696 6.284,37.431 6.016,37.146 5.628 C 35.224 3.006,32.002 0.973,28.703 0.301 C 27.694 0.095,25.422 -0.039,24.600 0.059 M44.650 16.063 C 41.342 16.422,38.483 17.791,36.137 20.137 C 34.063 22.211,32.807 24.569,32.236 27.463 C 31.994 28.686,31.994 31.314,32.236 32.537 C 32.807 35.431,34.064 37.790,36.137 39.863 C 38.152 41.877,40.433 43.119,43.204 43.711 C 44.702 44.031,47.298 44.031,48.796 43.711 C 51.567 43.119,53.848 41.877,55.863 39.863 C 57.877 37.848,59.119 35.567,59.711 32.796 C 60.031 31.298,60.031 28.702,59.711 27.204 C 59.119 24.433,57.877 22.152,55.863 20.137 C 53.235 17.510,50.074 16.145,46.403 16.053 C 45.659 16.035,44.870 16.039,44.650 16.063 M55.325 24.475 C 56.380 25.501,56.571 25.842,56.361 26.325 C 56.279 26.513,53.738 29.127,50.312 32.548 C 44.446 38.403,44.401 38.445,43.999 38.445 C 43.599 38.445,43.544 38.396,39.897 34.745 C 36.476 31.321,36.200 31.019,36.200 30.702 C 36.200 30.402,36.325 30.236,37.230 29.330 C 38.751 27.810,38.447 27.707,41.521 30.773 L 44.001 33.246 48.828 28.423 C 54.561 22.694,53.905 23.093,55.325 24.475 " fill="#2B2C30" stroke="none" fill-rule="evenodd"></path></svg>