<svg width="52" height="52" viewBox="0 0 52 52" fill="none" xmlns="http://www.w3.org/2000/svg"><path d="M19.153 0.095 C 18.635 0.196,17.808 0.610,17.364 0.990 C 16.656 1.596,16.033 2.835,16.033 3.637 L 16.033 3.987 32.023 3.987 L 48.013 3.987 48.013 19.933 L 48.013 35.880 48.212 35.880 C 48.515 35.880,49.346 35.646,49.798 35.434 C 50.373 35.164,51.146 34.413,51.463 33.818 C 52.034 32.748,52.000 33.746,52.000 17.940 C 52.000 2.447,52.021 3.196,51.554 2.202 C 51.108 1.253,49.897 0.324,48.811 0.096 C 48.248 -0.022,19.757 -0.023,19.153 0.095 M11.375 8.066 C 10.194 8.219,8.946 9.138,8.422 10.240 C 8.158 10.796,7.921 11.805,8.018 11.962 C 8.052 12.017,13.681 12.047,24.012 12.047 L 39.953 12.047 39.953 27.950 L 39.953 43.853 40.292 43.853 C 40.479 43.853,40.869 43.779,41.159 43.689 C 42.618 43.235,43.704 41.957,43.941 40.414 C 44.002 40.015,44.024 35.193,44.008 25.567 L 43.983 11.310 43.785 10.762 C 43.676 10.460,43.487 10.055,43.365 9.862 C 42.779 8.933,41.614 8.199,40.498 8.055 C 39.759 7.960,12.112 7.970,11.375 8.066 M2.772 16.195 C 1.542 16.590,0.603 17.532,0.177 18.797 C 0.002 19.316,0.000 19.462,0.000 33.893 C 0.000 49.925,-0.030 48.995,0.525 49.969 C 0.841 50.526,1.653 51.301,2.189 51.558 C 3.147 52.018,2.412 51.998,17.987 51.999 C 30.716 52.000,32.525 51.984,32.974 51.867 C 34.329 51.514,35.312 50.596,35.808 49.222 L 36.010 48.663 36.010 33.973 L 36.010 19.283 35.815 18.770 C 35.707 18.488,35.526 18.098,35.411 17.902 C 35.093 17.359,34.300 16.663,33.649 16.354 L 33.063 16.077 18.157 16.059 C 4.102 16.043,3.223 16.050,2.772 16.195 M31.980 34.017 L 31.980 48.013 17.983 48.013 L 3.987 48.013 3.987 34.017 L 3.987 20.020 17.983 20.020 L 31.980 20.020 31.980 34.017 M7.993 33.995 L 8.017 36.010 18.005 36.032 L 27.993 36.054 27.993 34.017 L 27.993 31.980 17.982 31.980 L 7.970 31.980 7.993 33.995 " fill="#2B2C30" stroke="none" fill-rule="evenodd"></path></svg>