<svg width="44" height="48" viewBox="0 0 44 48" fill="none" xmlns="http://www.w3.org/2000/svg"><path d="M0.531 0.146 C 0.400 0.226,0.226 0.400,0.146 0.531 C 0.002 0.768,0.001 0.950,0.000 24.002 C -0.000 49.391,-0.033 47.457,0.412 47.807 C 0.594 47.950,0.698 47.960,2.010 47.960 C 3.545 47.960,3.633 47.939,3.850 47.519 C 3.947 47.332,3.960 44.535,3.960 24.002 C 3.959 0.756,3.959 0.696,3.811 0.454 C 3.573 0.063,3.316 -0.000,1.964 0.000 C 0.902 0.001,0.744 0.017,0.531 0.146 M20.542 0.125 C 20.406 0.193,20.233 0.349,20.158 0.472 C 20.025 0.690,20.021 1.376,20.020 24.002 C 20.020 49.365,19.990 47.559,20.417 47.839 C 20.691 48.019,23.309 48.019,23.583 47.839 C 24.010 47.559,23.980 49.365,23.980 24.002 C 23.979 1.330,23.976 0.691,23.842 0.471 C 23.595 0.066,23.333 -0.000,21.989 0.002 C 21.021 0.003,20.742 0.027,20.542 0.125 M40.573 0.109 C 40.443 0.165,40.270 0.321,40.188 0.454 C 40.041 0.696,40.041 0.764,40.040 24.002 C 40.040 44.535,40.053 47.332,40.150 47.519 C 40.367 47.939,40.455 47.960,41.990 47.960 C 43.302 47.960,43.406 47.950,43.588 47.807 C 44.033 47.457,44.000 49.391,44.000 24.002 C 43.999 0.950,43.998 0.768,43.854 0.531 C 43.563 0.055,43.374 0.000,42.020 0.003 C 41.147 0.005,40.744 0.034,40.573 0.109 " fill="#2B2C30" stroke="none" fill-rule="evenodd"></path></svg>