<svg width="44" height="48" viewBox="0 0 44 48" fill="none" xmlns="http://www.w3.org/2000/svg"><path d="M1.943 0.138 C 1.572 0.370,0.088 1.931,0.034 2.147 C 0.007 2.257,0.006 2.471,0.033 2.622 C 0.077 2.867,1.217 4.032,10.601 13.420 C 16.387 19.208,21.120 23.977,21.120 24.017 C 21.120 24.057,16.387 28.825,10.601 34.613 C 1.289 43.930,0.077 45.168,0.034 45.407 C -0.051 45.882,0.093 46.118,1.053 47.067 L 1.956 47.960 2.426 47.960 L 2.896 47.960 14.543 36.318 C 20.948 29.915,26.237 24.588,26.295 24.479 C 26.429 24.225,26.429 23.808,26.295 23.555 C 26.167 23.315,3.037 0.196,2.810 0.081 C 2.569 -0.041,2.190 -0.016,1.943 0.138 M20.432 44.226 C 20.059 44.520,20.020 44.693,20.020 46.068 C 20.021 47.172,20.038 47.363,20.155 47.539 C 20.450 47.988,19.524 47.955,31.982 47.958 L 43.394 47.960 43.588 47.807 C 43.957 47.517,44.000 47.333,44.000 46.055 C 44.000 44.718,43.936 44.460,43.546 44.222 C 43.305 44.075,43.208 44.074,31.965 44.074 L 20.626 44.073 20.432 44.226 " fill="#2B2C30" stroke="none" fill-rule="evenodd"></path></svg>