<svg width="48" height="48" viewBox="0 0 48 48" fill="none" xmlns="http://www.w3.org/2000/svg"><path d="M3.161 0.094 C 1.719 0.369,0.399 1.697,0.088 3.184 C -0.037 3.783,-0.037 32.217,0.088 32.816 C 0.401 34.315,1.685 35.599,3.184 35.912 C 3.482 35.974,7.074 36.000,15.304 36.000 L 27.000 36.000 32.960 41.960 C 36.238 45.238,38.947 47.920,38.980 47.920 C 39.013 47.920,39.040 45.238,39.040 41.960 L 39.040 36.000 41.716 36.000 C 43.361 36.000,44.556 35.966,44.816 35.912 C 46.315 35.599,47.599 34.315,47.912 32.816 C 48.037 32.217,48.037 3.783,47.912 3.184 C 47.594 1.659,46.277 0.363,44.765 0.087 C 44.149 -0.026,3.752 -0.019,3.161 0.094 M44.000 18.000 L 44.000 32.000 39.480 32.000 L 34.960 32.000 34.960 35.140 L 34.960 38.279 31.820 35.140 L 28.679 32.000 16.340 32.000 L 4.000 32.000 4.000 18.000 L 4.000 4.000 24.000 4.000 L 44.000 4.000 44.000 18.000 M7.334 26.130 C 6.606 26.353,6.000 27.203,6.000 28.000 C 6.000 29.041,6.959 30.000,8.000 30.000 C 9.034 30.000,10.000 29.034,10.000 28.000 C 10.000 27.196,9.376 26.346,8.621 26.122 C 8.121 25.973,7.837 25.975,7.334 26.130 M13.334 26.130 C 12.606 26.353,12.000 27.203,12.000 28.000 C 12.000 29.034,12.966 30.000,14.000 30.000 C 15.034 30.000,16.000 29.034,16.000 28.000 C 16.000 27.196,15.376 26.346,14.621 26.122 C 14.121 25.973,13.837 25.975,13.334 26.130 M19.334 26.130 C 18.606 26.353,18.000 27.203,18.000 28.000 C 18.000 29.034,18.966 30.000,20.000 30.000 C 21.034 30.000,22.000 29.034,22.000 28.000 C 22.000 27.196,21.376 26.346,20.621 26.122 C 20.121 25.973,19.837 25.975,19.334 26.130 " fill="#2B2C30" stroke="none" fill-rule="evenodd"></path></svg>