<svg width="56" height="56" viewBox="0 0 56 56" fill="none" xmlns="http://www.w3.org/2000/svg"><path d="M25.807 0.089 C 18.969 0.709,12.934 3.496,8.215 8.215 C 3.793 12.637,1.104 18.133,0.221 24.547 C 0.022 25.995,-0.006 29.757,0.173 31.080 C 0.710 35.062,1.775 38.449,3.416 41.393 C 9.973 53.159,23.428 58.627,36.254 54.740 C 42.315 52.903,47.736 48.851,51.280 43.510 C 53.837 39.655,55.245 35.780,55.830 30.987 C 55.985 29.724,55.985 26.276,55.830 25.013 C 55.361 21.170,54.294 17.733,52.628 14.700 C 48.207 6.651,40.528 1.410,31.422 0.227 C 30.159 0.063,26.962 -0.016,25.807 0.089 M30.387 4.112 C 32.529 4.319,35.123 4.968,37.101 5.792 C 40.168 7.068,42.554 8.671,44.942 11.058 C 48.769 14.886,50.988 19.347,51.814 24.873 C 51.896 25.417,51.938 26.554,51.935 28.093 C 51.931 30.114,51.899 30.656,51.722 31.687 C 50.808 37.021,48.657 41.226,44.942 44.942 C 41.114 48.769,36.653 50.988,31.127 51.814 C 30.000 51.983,26.000 51.983,24.873 51.814 C 21.371 51.291,18.267 50.186,15.457 48.464 C 12.413 46.597,9.403 43.588,7.536 40.543 C 2.831 32.869,2.831 23.131,7.536 15.457 C 9.403 12.413,12.413 9.403,15.457 7.536 C 18.423 5.718,22.134 4.452,25.480 4.117 C 26.641 4.001,29.214 3.999,30.387 4.112 M40.647 12.642 C 40.287 12.771,35.544 14.531,30.106 16.551 L 20.220 20.226 16.315 30.716 C 12.751 40.290,12.412 41.248,12.441 41.683 C 12.508 42.689,13.311 43.492,14.317 43.559 C 14.752 43.588,15.710 43.249,25.286 39.685 L 35.779 35.779 39.685 25.286 C 44.030 13.612,43.813 14.329,43.274 13.409 C 42.755 12.522,41.775 12.236,40.647 12.642 M37.868 18.653 C 36.423 22.617,32.703 32.570,32.666 32.572 C 32.587 32.574,23.385 23.343,23.431 23.307 C 23.466 23.279,38.080 17.840,38.148 17.830 C 38.160 17.828,38.034 18.199,37.868 18.653 " fill="#2B2C30" stroke="none" fill-rule="evenodd"></path></svg>