<svg width="52" height="56" viewBox="0 0 52 56" fill="none" xmlns="http://www.w3.org/2000/svg"><path d="M19.023 0.055 C 17.089 0.363,15.560 1.130,14.288 2.431 C 12.957 3.793,12.226 5.403,12.002 7.471 L 11.949 7.964 11.543 8.012 C 9.877 8.209,8.702 8.602,7.609 9.328 C 6.495 10.067,5.438 11.243,4.854 12.392 C 4.367 13.349,3.987 14.927,3.987 15.990 C 3.987 17.185,4.393 18.747,4.983 19.820 C 5.150 20.124,5.287 20.390,5.287 20.412 C 5.287 20.434,5.031 20.568,4.718 20.710 C 2.898 21.535,1.288 23.207,0.602 24.985 C 0.123 26.227,0.048 26.635,0.048 27.993 C 0.048 29.351,0.123 29.759,0.602 31.002 C 1.288 32.779,2.898 34.452,4.718 35.277 C 5.031 35.419,5.287 35.553,5.287 35.575 C 5.287 35.596,5.150 35.863,4.983 36.167 C 4.393 37.240,3.987 38.802,3.987 39.997 C 3.987 41.060,4.367 42.638,4.854 43.595 C 5.477 44.821,6.699 46.132,7.871 46.833 C 8.780 47.376,10.040 47.806,11.110 47.937 L 11.951 48.040 12.003 48.525 C 12.392 52.123,14.651 54.827,18.032 55.742 C 18.636 55.905,18.983 55.939,20.020 55.939 C 21.369 55.939,21.990 55.818,23.167 55.327 C 24.521 54.761,26.008 53.456,26.842 52.102 C 27.480 51.065,27.991 49.395,27.993 48.338 L 27.993 48.013 29.766 48.013 C 31.787 48.013,31.950 48.050,32.029 48.525 C 32.325 50.296,33.651 51.639,35.402 51.939 C 36.562 52.137,37.748 51.748,38.704 50.853 C 40.346 49.317,40.420 46.872,38.873 45.250 C 38.012 44.348,37.052 43.978,35.746 44.046 C 35.089 44.081,34.848 44.136,34.345 44.368 L 33.738 44.648 33.121 44.337 L 32.504 44.027 30.249 44.027 L 27.993 44.027 27.993 42.033 L 27.993 40.040 33.796 40.040 C 37.840 40.040,39.662 40.069,39.808 40.136 C 39.977 40.212,40.028 40.317,40.070 40.667 C 40.250 42.192,41.743 43.657,43.402 43.937 C 45.943 44.366,48.369 41.943,47.947 39.398 C 47.510 36.759,44.725 35.270,42.326 36.392 L 41.762 36.656 41.076 36.311 L 40.391 35.967 34.192 35.967 L 27.993 35.967 27.993 32.977 L 27.993 29.987 36.255 29.987 L 44.517 29.987 44.795 30.373 C 45.563 31.442,46.884 32.047,48.260 31.959 C 49.812 31.859,51.175 30.861,51.750 29.403 C 52.033 28.686,52.033 27.301,51.750 26.584 C 51.494 25.934,50.945 25.219,50.374 24.793 C 48.659 23.510,46.103 23.866,44.834 25.565 L 44.510 26.000 36.252 26.000 L 27.993 26.000 27.993 23.010 L 27.993 20.020 34.235 20.020 L 40.477 20.020 41.157 19.678 C 41.783 19.364,41.850 19.347,42.021 19.466 C 42.309 19.668,43.113 19.919,43.674 19.983 C 45.203 20.156,46.921 19.159,47.603 17.702 C 48.858 15.020,46.955 12.047,43.983 12.047 C 41.972 12.047,40.293 13.463,40.067 15.351 C 39.981 16.065,40.274 16.033,33.710 16.033 L 27.993 16.033 27.993 14.040 L 27.993 12.047 30.186 12.047 L 32.379 12.047 33.088 11.704 L 33.797 11.361 34.341 11.616 C 35.863 12.328,37.686 11.981,38.854 10.756 C 39.975 9.581,40.278 8.034,39.692 6.476 C 39.323 5.495,38.240 4.502,37.191 4.184 C 36.464 3.963,35.286 3.992,34.623 4.246 C 33.216 4.786,32.283 5.942,32.029 7.462 C 31.950 7.937,31.787 7.973,29.766 7.973 L 27.993 7.973 27.993 7.648 C 27.991 6.593,27.480 4.921,26.844 3.888 C 26.334 3.059,25.393 2.039,24.651 1.509 C 23.936 0.999,22.808 0.472,21.970 0.257 C 21.289 0.082,19.586 -0.034,19.023 0.055 M20.723 4.075 C 22.296 4.374,23.620 5.697,23.918 7.271 C 24.041 7.916,24.041 48.070,23.918 48.716 C 23.522 50.807,21.449 52.280,19.400 51.929 C 18.071 51.701,17.011 50.909,16.412 49.697 C 16.135 49.137,16.091 48.958,16.054 48.249 C 16.022 47.643,16.049 47.311,16.159 46.925 C 16.607 45.363,17.903 44.246,19.500 44.043 L 19.977 43.983 20.000 41.999 L 20.023 40.014 19.220 40.063 C 18.210 40.124,17.046 40.488,16.037 41.057 C 15.176 41.543,13.912 42.708,13.390 43.497 L 13.043 44.022 12.437 44.023 C 10.567 44.026,9.135 43.202,8.431 41.719 C 7.692 40.163,7.989 38.378,9.187 37.181 C 9.687 36.681,10.562 36.188,11.093 36.107 C 11.260 36.082,11.544 36.038,11.723 36.010 L 12.050 35.958 12.027 33.991 L 12.003 32.023 9.533 31.976 C 7.526 31.937,6.995 31.901,6.696 31.785 C 5.297 31.240,4.297 30.020,4.056 28.563 C 3.761 26.785,4.896 24.899,6.677 24.209 C 6.998 24.084,7.479 24.051,9.533 24.011 L 12.003 23.963 12.027 22.005 L 12.050 20.046 11.425 19.943 C 8.740 19.499,7.269 16.715,8.429 14.272 C 8.828 13.431,9.450 12.813,10.308 12.403 C 10.930 12.106,11.016 12.089,12.011 12.060 L 13.059 12.030 13.454 12.580 C 13.900 13.204,14.932 14.225,15.513 14.619 C 16.109 15.023,16.871 15.384,17.637 15.623 C 18.431 15.872,19.834 16.081,19.947 15.967 C 19.989 15.925,20.013 15.016,20.000 13.947 L 19.977 12.003 19.500 11.949 C 18.112 11.790,16.814 10.784,16.273 9.447 C 16.112 9.051,16.079 8.801,16.078 7.969 C 16.077 6.981,16.081 6.958,16.409 6.295 C 17.230 4.634,18.964 3.742,20.723 4.075 " fill="#2B2C30" stroke="none" fill-rule="evenodd"></path></svg>