<svg width="56" height="56" viewBox="0 0 56 56" fill="none" xmlns="http://www.w3.org/2000/svg"><path d="M12.490 0.158 C 12.087 0.411,12.040 0.642,12.040 2.384 L 12.040 4.013 16.007 4.013 L 19.973 4.013 19.973 2.335 L 19.973 0.656 19.701 0.351 L 19.429 0.047 16.084 0.024 C 13.089 0.004,12.714 0.018,12.490 0.158 M24.493 0.176 C 24.035 0.455,23.979 0.717,24.008 2.428 L 24.033 3.967 28.000 3.967 L 31.967 3.967 31.992 2.403 C 32.013 1.140,31.990 0.786,31.874 0.561 C 31.591 0.013,31.500 -0.000,27.981 0.000 C 25.014 0.001,24.759 0.014,24.493 0.176 M36.344 0.317 L 36.027 0.635 36.027 2.325 L 36.027 4.015 40.017 3.991 L 44.007 3.967 44.007 2.370 C 44.007 -0.154,44.271 -0.000,39.946 0.000 L 36.661 0.000 36.344 0.317 M10.776 8.216 C 9.674 8.565,8.731 9.447,8.283 10.547 L 8.073 11.060 8.073 28.000 L 8.073 44.940 8.283 45.453 C 8.738 46.569,9.680 47.440,10.809 47.789 C 11.395 47.970,11.733 47.973,28.000 47.973 C 44.267 47.973,44.605 47.970,45.191 47.789 C 46.320 47.440,47.262 46.569,47.717 45.453 L 47.927 44.940 47.927 28.000 L 47.927 11.060 47.717 10.547 C 47.262 9.431,46.320 8.560,45.191 8.211 C 44.605 8.030,44.275 8.027,27.967 8.032 C 11.852 8.037,11.323 8.043,10.776 8.216 M44.007 28.000 L 44.007 44.007 28.000 44.007 L 11.993 44.007 11.969 28.093 C 11.956 19.341,11.965 12.127,11.990 12.063 C 12.025 11.970,15.281 11.951,28.021 11.970 L 44.007 11.993 44.007 28.000 M0.499 12.150 C 0.389 12.203,0.229 12.379,0.143 12.540 C 0.006 12.801,-0.008 13.202,0.018 16.131 L 0.047 19.429 0.351 19.701 L 0.656 19.973 2.335 19.973 L 4.013 19.973 4.013 16.007 L 4.013 12.040 2.357 12.046 C 1.414 12.050,0.614 12.094,0.499 12.150 M51.987 16.007 L 51.987 19.973 53.665 19.973 L 55.344 19.973 55.649 19.701 L 55.953 19.429 55.980 16.152 C 56.009 12.576,55.984 12.377,55.478 12.146 C 55.332 12.080,54.635 12.040,53.616 12.040 L 51.987 12.040 51.987 16.007 M20.017 20.089 C 19.992 20.154,19.983 23.756,19.996 28.093 L 20.020 35.980 28.000 35.980 L 35.980 35.980 35.980 28.000 L 35.980 20.020 28.021 19.996 C 21.702 19.977,20.052 19.996,20.017 20.089 M0.538 24.132 C 0.015 24.418,-0.000 24.526,-0.000 28.000 C -0.000 31.498,0.013 31.591,0.561 31.874 C 0.786 31.990,1.140 32.013,2.403 31.992 L 3.967 31.967 3.967 28.000 L 3.967 24.033 2.380 24.013 C 1.117 23.996,0.741 24.020,0.538 24.132 M52.029 24.103 C 52.005 24.168,51.996 25.963,52.009 28.093 L 52.033 31.967 53.597 31.992 C 54.860 32.013,55.214 31.990,55.439 31.874 C 55.987 31.591,56.000 31.498,56.000 28.000 C 56.000 24.506,55.986 24.409,55.443 24.128 C 55.080 23.941,52.100 23.919,52.029 24.103 M0.351 36.299 L 0.047 36.571 0.018 39.869 C -0.008 42.795,0.006 43.200,0.143 43.459 C 0.383 43.912,0.596 43.960,2.384 43.960 L 4.013 43.960 4.013 39.993 L 4.013 36.027 2.335 36.027 L 0.656 36.027 0.351 36.299 M51.987 39.993 L 51.987 43.960 53.616 43.960 C 54.635 43.960,55.332 43.920,55.478 43.854 C 55.984 43.623,56.009 43.424,55.980 39.848 L 55.953 36.571 55.649 36.299 L 55.344 36.027 53.665 36.027 L 51.987 36.027 51.987 39.993 M12.040 53.616 C 12.040 55.404,12.088 55.617,12.541 55.857 C 12.800 55.994,13.205 56.008,16.131 55.982 L 19.429 55.953 19.701 55.649 L 19.973 55.344 19.973 53.665 L 19.973 51.987 16.007 51.987 L 12.040 51.987 12.040 53.616 M24.050 52.048 C 24.015 52.083,23.987 52.799,23.987 53.640 C 23.987 54.824,24.019 55.231,24.128 55.443 C 24.409 55.986,24.506 56.000,28.000 56.000 C 31.498 56.000,31.591 55.987,31.874 55.439 C 31.990 55.214,32.013 54.860,31.992 53.597 L 31.967 52.033 28.040 52.009 C 25.880 51.996,24.085 52.013,24.050 52.048 M36.027 53.665 L 36.027 55.344 36.299 55.649 L 36.571 55.953 39.848 55.980 C 43.424 56.009,43.623 55.984,43.854 55.478 C 43.920 55.332,43.960 54.635,43.960 53.616 L 43.960 51.987 39.993 51.987 L 36.027 51.987 36.027 53.665 " fill="#2B2C30" stroke="none" fill-rule="evenodd"></path></svg>