<svg width="60" height="60" viewBox="0 0 60 60" fill="none" xmlns="http://www.w3.org/2000/svg"><path d="M3.050 0.141 C 1.573 0.507,0.428 1.692,0.112 3.180 C -0.047 3.932,-0.047 36.068,0.112 36.820 C 0.437 38.350,1.650 39.563,3.180 39.888 C 3.478 39.951,4.648 40.000,5.855 40.000 L 8.000 40.000 8.000 43.660 L 8.000 47.320 8.340 47.660 L 8.680 48.000 12.340 48.000 L 16.000 48.000 16.000 46.000 L 16.000 44.000 14.000 44.000 L 12.000 44.000 12.000 42.000 L 12.000 40.000 22.650 40.000 C 28.508 40.000,33.300 40.018,33.300 40.040 C 33.300 40.062,33.141 40.491,32.947 40.993 C 30.953 46.158,32.187 51.914,36.137 55.863 C 38.152 57.877,40.433 59.119,43.204 59.711 C 44.702 60.031,47.298 60.031,48.796 59.711 C 51.567 59.119,53.848 57.877,55.863 55.863 C 57.925 53.801,59.196 51.413,59.766 48.527 C 60.006 47.315,60.005 44.680,59.764 43.463 C 59.193 40.571,57.949 38.237,55.858 36.136 C 54.137 34.406,52.144 33.215,49.876 32.560 C 49.396 32.421,48.777 32.277,48.501 32.241 L 48.000 32.174 48.000 22.087 L 48.000 12.000 50.000 12.000 L 52.000 12.000 52.000 14.000 L 52.000 16.000 54.000 16.000 L 56.000 16.000 56.000 12.340 L 56.000 8.680 55.660 8.340 L 55.320 8.000 51.660 8.000 L 48.000 8.000 48.000 5.855 C 48.000 4.648,47.951 3.478,47.888 3.180 C 47.563 1.650,46.350 0.437,44.820 0.112 C 44.020 -0.057,3.739 -0.030,3.050 0.141 M44.000 18.087 L 44.000 32.174 43.499 32.241 C 41.454 32.512,38.430 33.972,36.786 35.482 L 36.222 36.000 20.111 36.000 L 4.000 36.000 4.000 20.000 L 4.000 4.000 24.000 4.000 L 44.000 4.000 44.000 18.087 M31.062 8.105 C 30.406 8.270,29.509 8.810,29.056 9.314 C 27.610 10.923,27.670 13.278,29.196 14.804 C 30.405 16.014,32.131 16.326,33.658 15.611 C 34.546 15.196,35.131 14.617,35.577 13.716 C 35.929 13.002,35.950 12.908,35.950 12.000 C 35.950 11.092,35.929 10.998,35.577 10.284 C 34.901 8.917,33.700 8.114,32.225 8.044 C 31.799 8.024,31.275 8.051,31.062 8.105 M17.550 16.155 C 17.385 16.240,15.169 18.388,12.625 20.929 L 8.000 25.549 8.000 28.399 L 8.000 31.249 13.000 26.250 L 17.999 21.252 23.125 26.370 C 26.583 29.823,28.340 31.510,28.527 31.555 C 28.966 31.662,29.319 31.446,30.240 30.505 C 31.074 29.652,31.100 29.612,31.100 29.154 C 31.100 28.688,31.088 28.671,29.953 27.512 L 28.807 26.341 30.404 24.746 L 32.001 23.152 36.000 27.150 L 40.000 31.149 40.000 28.298 L 40.000 25.446 36.275 21.730 C 33.814 19.274,32.457 17.990,32.275 17.946 C 32.124 17.909,31.876 17.909,31.725 17.946 C 31.547 17.990,30.483 18.978,28.699 20.756 L 25.947 23.498 22.349 19.899 C 20.370 17.919,18.608 16.232,18.435 16.150 C 18.041 15.962,17.924 15.963,17.550 16.155 M52.000 24.000 L 52.000 28.000 54.000 28.000 L 56.000 28.000 56.000 24.000 L 56.000 20.000 54.000 20.000 L 52.000 20.000 52.000 24.000 M47.453 36.119 C 47.984 36.362,48.000 36.485,48.000 40.395 L 48.000 44.000 51.595 44.000 C 55.462 44.000,55.600 44.017,55.857 44.515 C 56.039 44.866,56.056 47.067,55.881 47.453 C 55.638 47.984,55.515 48.000,51.605 48.000 L 48.000 48.000 48.000 51.605 C 48.000 55.515,47.984 55.638,47.453 55.881 C 47.296 55.952,46.710 56.000,46.000 56.000 C 45.290 56.000,44.704 55.952,44.547 55.881 C 44.016 55.638,44.000 55.515,44.000 51.605 L 44.000 48.000 40.395 48.000 C 36.485 48.000,36.362 47.984,36.119 47.453 C 36.048 47.296,36.000 46.710,36.000 46.000 C 36.000 45.290,36.048 44.704,36.119 44.547 C 36.362 44.016,36.485 44.000,40.395 44.000 L 44.000 44.000 44.004 40.375 C 44.007 36.500,44.018 36.413,44.511 36.140 C 44.824 35.966,47.083 35.951,47.453 36.119 M20.000 46.000 L 20.000 48.000 24.000 48.000 L 28.000 48.000 28.000 46.000 L 28.000 44.000 24.000 44.000 L 20.000 44.000 20.000 46.000 " fill="#2B2C30" stroke="none" fill-rule="evenodd"></path></svg>