<svg width="64" height="56" viewBox="0 0 64 56" fill="none" xmlns="http://www.w3.org/2000/svg"><path d="M24.075 0.170 C 23.911 0.259,23.731 0.452,23.675 0.600 C 23.619 0.747,23.573 1.584,23.573 2.460 L 23.573 4.053 19.849 4.053 L 16.126 4.053 15.849 4.382 L 15.573 4.710 15.573 12.007 L 15.573 19.303 15.884 19.652 L 16.196 20.000 19.884 20.032 L 23.573 20.064 23.573 24.059 L 23.573 28.053 15.548 28.053 L 7.523 28.053 3.762 31.815 C 0.087 35.490,-0.000 35.586,0.000 35.998 C 0.000 36.409,0.089 36.509,3.653 40.088 C 5.688 42.130,7.459 43.822,7.650 43.905 C 7.933 44.027,9.355 44.053,15.781 44.053 L 23.568 44.053 23.597 49.757 L 23.627 55.461 23.869 55.704 C 24.090 55.925,24.228 55.950,25.399 55.982 C 26.265 56.007,26.791 55.975,27.009 55.884 C 27.623 55.630,27.627 55.587,27.627 49.550 L 27.627 44.053 31.569 44.053 L 35.511 44.053 35.542 49.715 L 35.573 55.378 35.922 55.689 C 36.267 55.998,36.280 56.000,37.610 56.000 C 38.949 56.000,38.950 56.000,39.262 55.688 L 39.573 55.376 39.573 49.715 L 39.573 44.053 43.104 44.053 C 46.944 44.053,47.196 44.019,47.452 43.457 C 47.627 43.073,47.624 28.881,47.449 28.553 C 47.187 28.061,47.179 28.060,43.280 28.057 L 39.573 28.053 39.573 24.053 L 39.573 20.053 47.363 20.053 C 53.792 20.053,55.214 20.027,55.497 19.905 C 55.688 19.822,57.459 18.130,59.493 16.088 C 63.058 12.509,63.147 12.409,63.147 11.998 C 63.147 11.586,63.060 11.490,59.385 7.815 L 55.623 4.053 47.598 4.053 L 39.573 4.053 39.573 2.338 L 39.573 0.624 39.262 0.312 C 38.950 0.000,38.949 0.000,37.610 0.000 C 36.280 0.000,36.267 0.002,35.922 0.311 L 35.573 0.622 35.535 2.338 L 35.498 4.053 31.562 4.053 L 27.627 4.053 27.627 2.523 C 27.627 0.119,27.528 -0.003,25.579 0.004 C 24.711 0.007,24.290 0.054,24.075 0.170 M55.919 9.999 L 57.920 11.998 55.921 13.999 L 53.922 16.000 36.774 16.000 L 19.627 16.000 19.627 12.000 L 19.627 8.000 36.772 8.000 L 53.918 8.000 55.919 9.999 M35.520 24.053 L 35.520 28.053 31.573 28.053 L 27.627 28.053 27.627 24.053 L 27.627 20.053 31.573 20.053 L 35.520 20.053 35.520 24.053 M43.520 36.000 L 43.520 40.000 26.374 40.000 L 9.229 40.000 7.228 38.001 L 5.227 36.002 7.226 34.001 L 9.225 32.000 26.372 32.000 L 43.520 32.000 43.520 36.000 " fill="#2B2C30" stroke="none" fill-rule="evenodd"></path></svg>