<svg width="40" height="40" viewBox="0 0 40 40" fill="none" xmlns="http://www.w3.org/2000/svg"><path d="M2.033 0.095 C 1.923 0.144,1.438 0.586,0.956 1.076 C 0.247 1.795,0.070 2.014,0.033 2.211 C -0.074 2.781,-0.522 2.299,8.622 11.450 L 17.166 20.000 8.621 28.550 C 1.076 36.099,0.070 37.129,0.031 37.345 C -0.057 37.837,0.026 37.977,0.990 38.952 C 1.965 39.938,2.159 40.058,2.644 39.971 C 2.875 39.929,3.731 39.094,11.450 31.379 L 20.000 22.834 28.550 31.379 C 36.269 39.094,37.125 39.929,37.356 39.971 C 37.840 40.058,38.035 39.938,39.012 38.952 C 39.751 38.206,39.930 37.987,39.967 37.789 C 40.073 37.219,40.520 37.700,31.378 28.550 L 22.834 20.000 31.380 11.450 C 40.776 2.048,40.126 2.757,39.936 2.110 C 39.819 1.715,38.286 0.185,37.887 0.065 C 37.245 -0.128,37.949 -0.773,28.550 8.621 L 19.999 17.166 11.516 8.689 C 6.851 4.027,2.937 0.165,2.820 0.106 C 2.563 -0.022,2.302 -0.026,2.033 0.095 " fill="#2B2C30" stroke="none" fill-rule="evenodd"></path></svg>