<svg width="56" height="56" viewBox="0 0 56 56" fill="none" xmlns="http://www.w3.org/2000/svg"><path d="M25.807 0.089 C 18.969 0.709,12.934 3.496,8.215 8.215 C 3.793 12.637,1.104 18.133,0.221 24.547 C 0.022 25.995,-0.006 29.757,0.173 31.080 C 0.710 35.062,1.775 38.449,3.416 41.393 C 9.973 53.159,23.428 58.627,36.254 54.740 C 42.315 52.903,47.736 48.851,51.280 43.510 C 53.837 39.655,55.245 35.780,55.830 30.987 C 55.985 29.724,55.985 26.276,55.830 25.013 C 55.361 21.170,54.294 17.733,52.628 14.700 C 48.207 6.651,40.528 1.410,31.422 0.227 C 30.159 0.063,26.962 -0.016,25.807 0.089 M30.387 4.112 C 32.529 4.319,35.123 4.968,37.101 5.792 C 40.168 7.068,42.554 8.671,44.942 11.058 C 48.769 14.886,50.988 19.347,51.814 24.873 C 51.896 25.417,51.938 26.554,51.935 28.093 C 51.931 30.114,51.899 30.656,51.722 31.687 C 50.808 37.021,48.657 41.226,44.942 44.942 C 41.114 48.769,36.653 50.988,31.127 51.814 C 30.000 51.983,26.000 51.983,24.873 51.814 C 21.371 51.291,18.267 50.186,15.457 48.464 C 12.413 46.597,9.403 43.588,7.536 40.543 C 2.831 32.869,2.831 23.131,7.536 15.457 C 9.403 12.413,12.413 9.403,15.457 7.536 C 18.423 5.718,22.134 4.452,25.480 4.117 C 26.641 4.001,29.214 3.999,30.387 4.112 M17.103 16.917 C 16.107 17.887,15.920 18.202,16.057 18.679 C 16.125 18.915,17.260 20.106,20.650 23.496 L 25.153 28.000 20.650 32.504 C 17.536 35.618,16.123 37.093,16.069 37.287 C 15.931 37.780,16.101 38.087,17.009 38.990 C 17.914 39.890,18.230 40.066,18.710 39.934 C 18.902 39.882,20.382 38.465,23.494 35.353 L 28.000 30.847 32.504 35.350 C 37.301 40.147,37.326 40.168,37.928 39.907 C 38.293 39.748,39.811 38.214,39.937 37.876 C 40.146 37.316,40.059 37.213,35.350 32.504 L 30.847 28.000 35.350 23.496 C 38.464 20.382,39.877 18.907,39.931 18.713 C 40.072 18.209,39.902 17.910,38.936 16.960 C 38.024 16.064,38.007 16.053,37.559 16.053 L 37.104 16.053 32.552 20.602 L 28.000 25.151 23.448 20.602 L 18.896 16.053 18.442 16.053 C 17.996 16.053,17.974 16.068,17.103 16.917 " fill="#2B2C30" stroke="none" fill-rule="evenodd"></path></svg>