<svg width="57" height="61" viewBox="0 0 57 61" fill="none" xmlns="http://www.w3.org/2000/svg"><path d="M27.598 0.126 C 27.441 0.198,21.370 3.686,14.107 7.877 C 5.000 13.133,0.794 15.610,0.554 15.859 C 0.362 16.058,0.160 16.387,0.103 16.589 C 0.032 16.844,0.001 21.147,0.001 30.590 L 0.002 44.223 0.227 44.707 C 0.352 44.973,0.576 45.279,0.727 45.387 C 1.264 45.769,27.318 60.769,27.635 60.879 C 28.064 61.027,28.584 61.019,29.034 60.859 C 29.491 60.697,55.731 45.560,56.025 45.289 C 56.143 45.182,56.324 44.916,56.429 44.699 C 56.618 44.310,56.620 44.131,56.620 30.509 C 56.620 17.120,56.615 16.702,56.439 16.360 C 56.339 16.166,56.136 15.895,55.987 15.758 C 55.839 15.620,49.695 12.035,42.335 7.791 C 29.597 0.446,28.927 0.073,28.418 0.035 C 28.085 0.011,27.775 0.045,27.598 0.126 M39.417 10.749 C 45.404 14.202,50.359 17.080,50.427 17.144 C 50.527 17.238,50.213 17.456,48.812 18.263 C 47.855 18.814,42.853 21.701,37.695 24.679 L 28.318 30.092 17.269 23.715 C 11.193 20.207,6.200 17.301,6.174 17.255 C 6.109 17.141,28.231 4.369,28.397 4.425 C 28.471 4.450,33.430 7.296,39.417 10.749 M15.438 27.336 L 26.268 33.593 26.292 44.544 C 26.306 50.855,26.280 55.483,26.232 55.464 C 26.186 55.447,21.185 52.568,15.119 49.068 L 4.089 42.703 4.087 31.751 L 4.085 20.800 4.346 20.940 C 4.490 21.017,9.481 23.896,15.438 27.336 M52.535 31.754 L 52.535 42.703 41.923 48.830 C 36.086 52.200,31.106 55.076,30.856 55.221 L 30.400 55.484 30.400 44.522 L 30.400 33.561 41.444 27.185 C 47.518 23.678,52.498 20.808,52.511 20.807 C 52.524 20.806,52.535 25.732,52.535 31.754 " fill="#2B2C30" stroke="none" fill-rule="evenodd"></path></svg>