<svg width="56" height="59" viewBox="0 0 56 59" fill="none" xmlns="http://www.w3.org/2000/svg"><path d="M27.207 0.315 C 23.507 2.385,3.447 14.066,3.290 14.242 C 3.006 14.560,3.006 15.119,3.290 15.443 C 3.405 15.574,8.918 18.819,15.540 22.652 C 26.618 29.065,27.614 29.622,28.000 29.622 C 28.386 29.622,29.390 29.062,40.553 22.613 C 49.635 17.367,52.728 15.538,52.850 15.339 C 53.129 14.884,53.009 14.328,52.571 14.041 C 52.271 13.844,28.881 0.353,28.495 0.154 C 28.067 -0.067,27.839 -0.038,27.207 0.315 M36.971 9.637 C 41.891 12.473,45.917 14.815,45.918 14.842 C 45.921 14.926,28.148 25.146,28.000 25.145 C 27.780 25.144,10.091 14.895,10.167 14.814 C 10.235 14.741,27.921 4.490,27.989 4.483 C 28.009 4.482,32.051 6.801,36.971 9.637 M0.673 19.145 C 0.485 19.200,0.295 19.350,0.183 19.534 C 0.004 19.827,0.001 20.084,0.000 31.906 C 0.000 43.025,0.012 43.999,0.156 44.242 C 0.275 44.443,3.248 46.199,12.453 51.508 C 19.130 55.358,24.700 58.534,24.830 58.566 C 25.126 58.638,25.496 58.502,25.751 58.228 L 25.947 58.018 25.947 45.768 L 25.947 33.517 25.737 33.287 C 25.427 32.948,1.186 18.991,1.006 19.048 C 0.992 19.053,0.842 19.097,0.673 19.145 M54.640 19.174 C 53.985 19.455,30.456 33.077,30.263 33.287 L 30.053 33.517 30.053 45.768 L 30.053 58.018 30.249 58.228 C 30.505 58.503,30.874 58.638,31.170 58.566 C 31.300 58.534,36.870 55.357,43.547 51.507 C 52.759 46.195,55.725 44.443,55.844 44.243 C 55.988 43.999,56.000 43.031,56.000 31.924 C 56.000 21.356,55.983 19.837,55.859 19.598 C 55.631 19.158,55.106 18.975,54.640 19.174 M13.347 30.643 L 21.980 35.627 22.004 43.994 C 22.017 48.595,22.000 52.360,21.966 52.360 C 21.932 52.360,17.879 50.040,12.959 47.203 L 4.015 42.047 4.014 33.668 L 4.013 25.290 4.363 25.474 C 4.556 25.575,8.598 27.901,13.347 30.643 " fill="#2B2C30" stroke="none" fill-rule="evenodd"></path></svg>