<svg width="40" height="48" viewBox="0 0 40 48" fill="none" xmlns="http://www.w3.org/2000/svg"><path d="M18.267 0.038 C 16.836 0.132,15.764 0.228,14.911 0.340 C 9.311 1.077,4.698 2.957,2.097 5.562 C 1.138 6.523,0.532 7.487,0.188 8.600 L 0.034 9.100 0.015 23.767 C -0.005 39.844,-0.027 38.897,0.380 39.933 C 1.808 43.568,7.194 46.519,14.367 47.596 C 16.350 47.894,17.396 47.962,20.000 47.962 C 21.918 47.962,22.764 47.935,23.633 47.844 C 25.703 47.629,27.510 47.317,29.133 46.893 C 34.592 45.469,38.452 42.907,39.620 39.933 C 40.027 38.897,40.005 39.844,39.985 23.767 L 39.966 9.100 39.812 8.600 C 39.468 7.487,38.862 6.523,37.903 5.562 C 35.049 2.704,29.875 0.761,23.533 0.166 C 22.499 0.069,19.073 -0.014,18.267 0.038 M22.200 4.069 C 29.114 4.453,34.452 6.362,35.706 8.900 L 35.967 9.426 35.967 12.000 L 35.967 14.574 35.709 15.095 C 34.558 17.423,30.044 19.214,23.733 19.845 C 22.084 20.010,17.916 20.010,16.267 19.845 C 9.952 19.213,5.443 17.426,4.294 15.100 L 4.033 14.574 4.033 12.000 L 4.033 9.426 4.294 8.900 C 5.845 5.760,13.838 3.604,22.200 4.069 M5.820 21.042 C 8.674 22.481,12.244 23.426,16.400 23.845 C 18.043 24.010,21.957 24.010,23.600 23.845 C 28.383 23.363,32.445 22.164,35.453 20.344 L 36.006 20.009 35.986 23.358 L 35.967 26.707 35.713 27.221 C 35.162 28.335,33.825 29.344,31.813 30.162 C 25.365 32.787,14.635 32.787,8.187 30.162 C 6.175 29.344,4.838 28.335,4.287 27.221 L 4.033 26.707 4.014 23.358 L 3.994 20.009 4.547 20.344 C 4.851 20.528,5.424 20.842,5.820 21.042 M6.100 33.300 C 12.142 36.245,21.331 36.968,28.833 35.088 C 30.258 34.731,31.900 34.194,32.983 33.729 C 33.819 33.371,35.127 32.699,35.567 32.403 C 35.713 32.304,35.872 32.200,35.920 32.172 C 35.990 32.131,36.002 32.721,35.986 35.348 L 35.967 38.574 35.709 39.095 C 34.558 41.423,30.044 43.214,23.733 43.845 C 22.844 43.934,21.957 43.962,20.000 43.962 C 17.235 43.962,16.153 43.890,14.000 43.560 C 8.917 42.783,5.290 41.116,4.294 39.101 L 4.033 38.574 4.014 35.355 L 3.994 32.135 4.547 32.474 C 4.851 32.660,5.550 33.032,6.100 33.300 " fill="#2B2C30" stroke="none" fill-rule="evenodd"></path></svg>