<svg width="56" height="56" viewBox="0 0 56 56" fill="none" xmlns="http://www.w3.org/2000/svg"><path d="M26.133 0.059 C 17.918 0.672,10.533 4.677,5.619 11.185 C 2.783 14.941,1.033 19.178,0.255 24.172 C -0.030 26.001,-0.030 29.999,0.255 31.828 C 0.790 35.261,1.802 38.387,3.269 41.134 C 5.870 46.008,9.992 50.130,14.866 52.731 C 17.613 54.198,20.739 55.210,24.172 55.745 C 26.001 56.030,29.999 56.030,31.828 55.745 C 38.614 54.688,44.394 51.630,48.716 46.811 C 52.598 42.483,54.824 37.738,55.745 31.828 C 56.030 29.999,56.030 26.001,55.745 24.172 C 54.968 19.185,53.197 14.901,50.377 11.183 C 45.748 5.083,39.127 1.241,31.500 0.232 C 30.407 0.087,27.159 -0.017,26.133 0.059 M30.100 4.109 C 33.179 4.394,35.777 5.116,38.500 6.444 C 40.269 7.306,41.296 7.964,43.374 9.567 C 43.465 9.637,39.319 13.836,26.574 26.580 L 9.652 43.501 8.894 42.494 C 6.112 38.797,4.536 34.716,4.109 30.100 C 3.861 27.423,4.093 24.685,4.807 21.887 C 5.214 20.290,5.657 19.111,6.490 17.407 C 8.793 12.689,12.688 8.794,17.407 6.490 C 19.110 5.658,20.289 5.215,21.887 4.807 C 24.649 4.101,27.450 3.863,30.100 4.109 M47.120 13.522 C 51.384 19.084,52.942 26.364,51.373 33.395 C 50.237 38.485,47.240 43.282,43.083 46.662 C 41.250 48.152,38.489 49.723,36.266 50.541 C 35.061 50.985,32.821 51.550,31.407 51.766 C 29.821 52.009,26.174 52.009,24.593 51.765 C 23.132 51.541,21.119 51.035,19.833 50.571 C 17.662 49.787,15.004 48.313,13.231 46.912 L 12.507 46.340 29.424 29.423 C 42.165 16.680,46.363 12.535,46.433 12.626 C 46.485 12.693,46.794 13.096,47.120 13.522 " fill="#2B2C30" stroke="none" fill-rule="evenodd"></path></svg>