<svg width="56" height="57" viewBox="0 0 56 57" fill="none" xmlns="http://www.w3.org/2000/svg"><path d="M40.180 0.106 C 37.914 0.390,35.444 1.384,33.553 2.771 C 32.952 3.212,30.869 5.233,26.222 9.884 C 19.166 16.945,18.986 17.148,17.973 19.180 C 17.326 20.476,16.935 21.673,16.691 23.100 C 16.529 24.048,16.507 24.478,16.548 25.900 C 16.640 29.066,17.457 31.428,19.324 33.927 C 20.510 35.514,21.259 36.035,22.148 35.893 C 23.208 35.724,23.896 34.939,23.891 33.906 C 23.889 33.307,23.650 32.820,23.008 32.101 C 22.267 31.271,21.987 30.845,21.464 29.744 C 19.948 26.555,20.214 22.887,22.177 19.897 C 22.620 19.222,23.732 18.060,28.831 12.942 C 32.198 9.563,35.289 6.525,35.700 6.192 C 36.636 5.432,38.186 4.658,39.433 4.326 C 40.262 4.105,40.540 4.077,41.907 4.075 C 43.281 4.073,43.547 4.100,44.380 4.321 C 47.951 5.269,50.718 8.037,51.677 11.620 C 51.901 12.456,51.927 12.714,51.925 14.093 C 51.923 15.453,51.894 15.740,51.679 16.546 C 51.389 17.635,50.755 19.011,50.150 19.866 C 49.909 20.207,48.844 21.369,47.783 22.447 C 45.676 24.588,45.590 24.719,45.657 25.653 C 45.729 26.646,46.435 27.335,47.464 27.417 C 47.939 27.455,48.130 27.426,48.465 27.264 C 49.039 26.986,52.593 23.366,53.357 22.281 C 54.506 20.647,55.304 18.807,55.731 16.800 C 56.014 15.471,56.037 12.998,55.779 11.620 C 54.767 6.207,50.750 1.850,45.500 0.469 C 43.868 0.040,41.818 -0.100,40.180 0.106 M33.125 20.750 C 32.898 20.870,32.587 21.147,32.433 21.365 C 32.180 21.725,32.153 21.832,32.153 22.493 C 32.153 23.313,32.107 23.226,33.346 24.749 C 34.121 25.700,34.813 27.065,35.160 28.327 C 35.397 29.186,35.418 29.394,35.418 30.940 C 35.418 32.474,35.396 32.697,35.170 33.507 C 34.853 34.640,34.478 35.469,33.824 36.480 C 33.382 37.163,32.354 38.237,27.128 43.480 C 23.732 46.887,20.648 49.920,20.275 50.220 C 19.034 51.220,17.505 51.906,15.806 52.226 C 14.609 52.452,12.682 52.368,11.490 52.039 C 9.265 51.424,7.387 50.131,5.977 48.245 C 4.161 45.815,3.576 42.495,4.439 39.517 C 5.022 37.504,5.717 36.474,8.186 33.966 C 9.410 32.722,10.130 31.918,10.227 31.684 C 10.916 30.036,9.201 28.391,7.560 29.125 C 7.019 29.367,3.668 32.732,2.778 33.927 C 1.627 35.472,0.703 37.528,0.275 39.494 C 0.026 40.635,-0.064 42.796,0.087 43.994 C 0.493 47.217,1.963 50.142,4.326 52.425 C 6.282 54.315,8.322 55.425,11.013 56.062 C 12.465 56.406,14.832 56.468,16.380 56.203 C 18.747 55.797,21.070 54.771,22.820 53.359 C 23.525 52.790,35.682 40.650,36.298 39.900 C 38.143 37.652,39.190 35.093,39.485 32.107 C 39.787 29.061,38.868 25.615,37.045 22.960 C 36.329 21.917,35.440 20.944,34.993 20.716 C 34.479 20.454,33.658 20.469,33.125 20.750 " fill="#2B2C30" stroke="none" fill-rule="evenodd"></path></svg>