<svg width="56" height="48" viewBox="0 0 56 48" fill="none" xmlns="http://www.w3.org/2000/svg"><path d="M3.010 0.144 C 1.598 0.524,0.504 1.617,0.130 3.019 C 0.024 3.418,0.002 6.317,0.001 19.977 C -0.000 38.006,-0.029 37.022,0.536 37.986 C 0.901 38.611,1.606 39.247,2.313 39.593 L 2.940 39.900 13.463 39.925 L 23.987 39.950 23.987 41.955 L 23.987 43.960 18.941 43.960 C 15.614 43.960,13.759 43.995,13.493 44.062 C 12.973 44.192,12.435 44.638,12.217 45.120 C 12.077 45.427,12.044 45.736,12.042 46.737 L 12.040 47.973 28.000 47.973 L 43.960 47.973 43.958 46.737 C 43.956 45.736,43.923 45.427,43.783 45.120 C 43.565 44.638,43.027 44.192,42.507 44.062 C 42.241 43.995,40.386 43.960,37.059 43.960 L 32.013 43.960 32.013 41.955 L 32.013 39.950 42.537 39.925 L 53.060 39.900 53.687 39.593 C 54.394 39.247,55.099 38.611,55.464 37.986 C 56.029 37.022,56.000 38.007,56.000 19.962 C 56.000 4.071,55.994 3.449,55.824 2.905 C 55.586 2.139,55.264 1.616,54.714 1.102 C 54.174 0.596,53.690 0.332,52.950 0.140 C 52.164 -0.065,3.770 -0.061,3.010 0.144 M51.987 20.020 L 51.987 36.027 28.000 36.027 L 4.013 36.027 4.013 20.020 L 4.013 4.013 28.000 4.013 L 51.987 4.013 51.987 20.020 M20.408 8.218 C 20.044 8.505,19.948 8.968,19.987 10.259 L 20.020 11.402 20.325 11.674 L 20.630 11.947 25.993 11.947 L 31.357 11.947 31.662 11.674 L 31.967 11.402 31.967 9.987 L 31.967 8.571 31.662 8.299 L 31.357 8.027 26.004 8.027 C 20.747 8.027,20.648 8.030,20.408 8.218 M36.504 8.157 C 36.096 8.383,36.034 8.634,36.030 10.064 L 36.027 11.401 36.299 11.674 L 36.572 11.947 41.952 11.947 C 45.464 11.947,47.395 11.913,47.512 11.851 C 47.881 11.653,47.973 11.278,47.973 9.987 C 47.973 8.644,47.887 8.332,47.463 8.138 C 47.090 7.968,36.812 7.986,36.504 8.157 " fill="#2B2C30" stroke="none" fill-rule="evenodd"></path></svg>