<svg width="56" height="56" viewBox="0 0 56 56" fill="none" xmlns="http://www.w3.org/2000/svg"><path d="M25.667 0.102 C 16.119 0.977,8.002 6.292,3.373 14.700 C 0.950 19.100,-0.262 24.594,0.072 29.657 C 0.420 34.935,1.991 39.521,4.926 43.820 C 9.232 50.128,15.945 54.387,23.535 55.625 C 29.545 56.606,36.058 55.507,41.300 52.628 C 48.615 48.611,53.757 41.708,55.396 33.706 C 55.819 31.642,55.938 30.421,55.943 28.093 C 55.950 24.704,55.540 22.106,54.513 19.040 C 51.771 10.852,45.148 4.229,36.960 1.487 C 34.136 0.541,31.596 0.109,28.513 0.049 C 27.487 0.029,26.206 0.053,25.667 0.102 M30.718 4.151 C 37.714 4.969,43.931 8.743,47.883 14.570 L 48.618 15.654 47.770 15.718 C 44.627 15.955,42.243 17.137,40.971 19.090 C 39.013 22.095,40.379 26.203,43.692 27.270 C 44.045 27.384,44.333 27.509,44.333 27.548 C 44.333 27.587,44.155 27.665,43.937 27.720 C 41.671 28.292,39.884 30.014,39.341 32.150 C 39.159 32.868,39.160 34.248,39.344 34.957 C 39.814 36.764,41.115 38.213,43.154 39.197 C 43.674 39.448,44.417 39.740,44.803 39.846 C 45.712 40.095,47.206 40.319,47.960 40.319 C 48.664 40.320,48.667 40.270,47.895 41.418 C 44.443 46.552,38.789 50.344,32.853 51.506 C 30.860 51.896,30.405 51.937,28.000 51.937 C 26.518 51.937,25.338 51.892,24.873 51.817 C 20.326 51.090,16.984 49.712,13.533 47.143 C 12.295 46.222,10.021 44.001,9.127 42.840 C 8.474 41.992,7.467 40.520,7.467 40.413 C 7.467 40.378,7.939 40.323,8.517 40.291 C 11.930 40.106,14.587 38.458,15.914 35.705 C 16.497 34.496,16.623 33.950,16.680 32.377 C 16.753 30.354,16.432 29.007,15.535 27.567 C 14.224 25.464,11.992 24.267,9.380 24.267 C 7.419 24.267,5.779 24.880,4.471 26.104 L 4.013 26.532 4.064 26.076 C 4.278 24.164,4.460 23.107,4.785 21.896 C 4.978 21.179,4.999 21.148,5.536 20.752 C 7.042 19.644,9.277 19.725,10.534 20.935 C 10.906 21.292,11.480 22.280,11.480 22.563 C 11.480 22.654,12.045 22.680,13.994 22.680 L 16.508 22.680 16.457 22.330 C 16.369 21.734,15.878 20.350,15.540 19.751 C 14.122 17.233,11.508 15.759,8.283 15.659 C 7.834 15.645,7.467 15.608,7.467 15.578 C 7.467 15.478,8.500 13.973,9.127 13.160 C 10.034 11.985,12.300 9.771,13.533 8.855 C 17.082 6.219,20.919 4.673,25.200 4.153 C 26.568 3.986,29.304 3.986,30.718 4.151 M19.693 18.107 L 19.693 20.160 25.490 20.160 C 30.972 20.160,31.283 20.169,31.225 20.323 C 31.191 20.413,28.961 24.849,26.269 30.181 C 23.576 35.513,21.373 39.913,21.373 39.959 C 21.373 40.007,22.478 40.032,23.963 40.018 L 26.553 39.993 31.520 30.147 L 36.486 20.300 36.490 18.177 L 36.493 16.053 28.093 16.053 L 19.693 16.053 19.693 18.107 M49.689 19.697 C 50.027 19.801,50.407 19.980,50.534 20.093 C 50.793 20.327,51.105 21.283,51.462 22.940 L 51.689 23.993 51.394 24.430 C 50.763 25.368,49.738 25.868,48.440 25.870 C 46.312 25.873,44.892 24.477,45.008 22.493 C 45.033 22.064,45.124 21.624,45.243 21.355 C 45.459 20.871,46.114 20.164,46.561 19.933 C 47.419 19.489,48.704 19.392,49.689 19.697 M9.561 28.315 C 12.129 29.584,12.651 33.219,10.553 35.219 C 9.178 36.531,7.220 36.734,5.595 35.735 C 5.185 35.483,5.161 35.442,4.922 34.607 C 4.640 33.624,4.252 31.697,4.158 30.817 C 4.103 30.294,4.122 30.183,4.327 29.834 C 4.792 29.040,5.879 28.232,6.790 28.002 C 6.982 27.954,7.530 27.927,8.006 27.944 C 8.782 27.971,8.944 28.010,9.561 28.315 M49.485 29.690 C 50.123 29.824,51.126 30.347,51.517 30.750 L 51.823 31.066 51.669 31.984 C 51.488 33.067,51.141 34.483,50.812 35.483 C 50.579 36.189,50.570 36.202,50.138 36.357 C 49.476 36.594,47.883 36.646,47.132 36.454 C 45.988 36.162,45.149 35.485,44.685 34.479 C 44.512 34.104,44.474 33.858,44.474 33.133 C 44.474 32.352,44.505 32.184,44.736 31.713 C 45.526 30.101,47.477 29.270,49.485 29.690 " fill="#2B2C30" stroke="none" fill-rule="evenodd"></path></svg>