<svg width="40" height="40" viewBox="0 0 40 40" fill="none" xmlns="http://www.w3.org/2000/svg"><path d="M37.067 0.089 C 36.610 0.224,22.641 5.531,14.667 8.600 C 4.952 12.338,1.429 13.754,0.937 14.115 C 0.305 14.580,0.035 15.124,0.034 15.933 C 0.033 16.415,0.060 16.555,0.214 16.867 C 0.573 17.599,0.429 17.513,7.925 21.459 L 14.882 25.120 17.612 30.310 C 19.113 33.165,20.751 36.280,21.253 37.233 C 22.253 39.137,22.504 39.478,23.125 39.782 C 23.444 39.937,23.585 39.965,24.067 39.966 C 24.539 39.967,24.694 39.938,25.000 39.794 C 25.525 39.546,25.908 39.132,26.204 38.490 C 27.082 36.585,31.192 25.980,37.734 8.733 C 39.345 4.487,39.957 2.799,39.982 2.529 C 40.022 2.101,39.878 1.520,39.639 1.142 C 39.420 0.797,38.906 0.343,38.560 0.190 C 38.180 0.022,37.459 -0.027,37.067 0.089 M34.717 5.383 C 34.634 5.684,28.504 21.747,26.403 27.167 C 24.248 32.729,23.902 33.595,23.857 33.546 C 23.833 33.521,22.472 30.949,20.832 27.832 L 17.850 22.163 12.216 19.198 C 9.117 17.568,6.540 16.203,6.490 16.167 C 6.423 16.118,7.052 15.844,8.849 15.141 C 12.762 13.611,21.456 10.273,28.133 7.739 C 31.525 6.451,34.360 5.370,34.433 5.337 C 34.649 5.238,34.752 5.255,34.717 5.383 " fill="#2B2C30" stroke="none" fill-rule="evenodd"></path></svg>