<svg width="44" height="56" viewBox="0 0 44 56" fill="none" xmlns="http://www.w3.org/2000/svg"><path d="M0.531 0.146 C 0.400 0.226,0.226 0.400,0.146 0.531 C 0.001 0.769,-0.000 0.918,0.018 26.803 L 0.037 52.837 0.193 53.244 C 0.455 53.929,0.640 54.237,1.064 54.695 C 1.548 55.217,2.039 55.546,2.685 55.781 L 3.160 55.953 21.992 55.953 C 40.647 55.953,40.828 55.952,41.251 55.806 C 42.425 55.402,43.299 54.543,43.773 53.326 L 43.963 52.837 43.982 32.414 L 44.002 11.992 38.006 5.996 L 32.010 -0.000 16.390 0.000 C 0.933 0.001,0.768 0.002,0.531 0.146 M28.013 8.433 L 28.050 12.870 28.236 13.348 C 28.700 14.539,29.546 15.364,30.763 15.814 C 31.101 15.939,31.486 15.953,35.567 15.987 L 40.003 16.023 40.003 34.027 L 40.003 52.030 22.000 52.030 L 3.997 52.030 3.978 28.087 C 3.968 14.918,3.975 4.102,3.994 4.051 C 4.022 3.978,6.462 3.963,16.003 3.978 L 27.977 3.997 28.013 8.433 M8.678 16.067 C 8.390 16.151,8.087 16.500,8.028 16.817 C 8.003 16.949,7.993 17.573,8.006 18.203 C 8.033 19.485,8.085 19.636,8.585 19.892 C 8.820 20.011,9.326 20.020,16.012 20.020 C 23.974 20.020,23.522 20.048,23.837 19.538 C 23.979 19.307,23.988 19.202,23.966 17.937 L 23.943 16.583 23.728 16.357 C 23.609 16.234,23.394 16.100,23.251 16.060 C 22.914 15.966,9.002 15.973,8.678 16.067 M8.464 24.192 C 8.044 24.448,7.981 24.712,8.007 26.104 C 8.033 27.489,8.077 27.626,8.585 27.885 C 8.822 28.006,9.613 28.013,22.000 28.013 C 34.387 28.013,35.178 28.006,35.415 27.885 C 35.923 27.626,35.967 27.489,35.993 26.104 C 36.019 24.712,35.956 24.448,35.536 24.192 C 35.317 24.058,34.893 24.054,22.000 24.054 C 9.107 24.054,8.683 24.058,8.464 24.192 M8.464 32.185 C 8.063 32.430,7.993 32.697,7.993 34.001 C 7.994 35.313,8.057 35.545,8.499 35.840 L 8.748 36.007 22.000 36.007 L 35.252 36.007 35.501 35.840 C 35.943 35.545,36.006 35.313,36.007 34.001 C 36.007 32.697,35.937 32.430,35.536 32.185 C 35.317 32.052,34.893 32.047,22.000 32.047 C 9.107 32.047,8.683 32.052,8.464 32.185 M8.521 40.163 C 8.077 40.382,7.993 40.676,7.993 42.025 C 7.993 43.104,8.008 43.235,8.152 43.492 C 8.461 44.043,7.292 44.000,22.000 44.000 C 36.708 44.000,35.539 44.043,35.848 43.492 C 35.993 43.235,36.007 43.104,36.007 42.020 C 36.007 40.936,35.993 40.805,35.848 40.548 C 35.539 39.997,36.710 40.040,21.989 40.042 C 9.914 40.043,8.742 40.054,8.521 40.163 " fill="#2B2C30" stroke="none" fill-rule="evenodd"></path></svg>