<svg width="44" height="56" viewBox="0 0 44 56" fill="none" xmlns="http://www.w3.org/2000/svg"><path d="M0.531 0.146 C 0.400 0.226,0.226 0.400,0.146 0.531 C 0.001 0.769,-0.000 0.918,0.018 26.803 L 0.037 52.837 0.193 53.244 C 0.455 53.929,0.640 54.237,1.064 54.695 C 1.548 55.217,2.039 55.546,2.685 55.781 L 3.160 55.953 21.992 55.953 C 40.647 55.953,40.828 55.952,41.251 55.806 C 42.425 55.402,43.299 54.543,43.773 53.326 L 43.963 52.837 43.982 32.414 L 44.002 11.992 38.006 5.996 L 32.010 -0.000 16.390 0.000 C 0.933 0.001,0.768 0.002,0.531 0.146 M28.013 8.433 L 28.050 12.870 28.236 13.348 C 28.700 14.539,29.546 15.364,30.763 15.814 C 31.101 15.939,31.486 15.953,35.567 15.987 L 40.003 16.023 40.003 34.027 L 40.003 52.030 22.000 52.030 L 3.997 52.030 3.978 28.087 C 3.968 14.918,3.975 4.102,3.994 4.051 C 4.022 3.978,6.462 3.963,16.003 3.978 L 27.977 3.997 28.013 8.433 M33.071 22.487 C 32.972 22.552,31.050 24.441,28.802 26.684 L 24.714 30.762 21.357 27.408 L 18.000 24.053 17.649 24.053 C 17.457 24.053,17.210 24.100,17.101 24.158 C 16.992 24.216,14.918 26.254,12.492 28.686 C 8.382 32.808,8.078 33.131,8.032 33.412 C 8.000 33.612,8.020 33.799,8.090 33.962 C 8.232 34.294,9.879 35.907,10.143 35.973 C 10.718 36.117,10.647 36.175,14.225 32.599 L 17.564 29.260 20.827 32.528 C 22.622 34.326,24.179 35.844,24.288 35.901 C 24.549 36.040,24.889 36.035,25.200 35.887 C 25.453 35.767,35.741 25.435,35.912 25.129 C 36.023 24.931,36.030 24.638,35.930 24.375 C 35.844 24.148,34.653 22.898,34.217 22.577 C 33.882 22.330,33.369 22.290,33.071 22.487 M8.521 40.163 C 8.077 40.382,7.993 40.676,7.993 42.025 C 7.993 43.104,8.008 43.235,8.152 43.492 C 8.461 44.043,7.292 44.000,22.000 44.000 C 36.708 44.000,35.539 44.043,35.848 43.492 C 35.993 43.235,36.007 43.104,36.007 42.020 C 36.007 40.936,35.993 40.805,35.848 40.548 C 35.539 39.997,36.710 40.040,21.989 40.042 C 9.914 40.043,8.742 40.054,8.521 40.163 " fill="#2B2C30" stroke="none" fill-rule="evenodd"></path></svg>