<svg width="44" height="56" viewBox="0 0 44 56" fill="none" xmlns="http://www.w3.org/2000/svg"><path d="M0.531 0.146 C 0.400 0.226,0.226 0.400,0.146 0.531 C 0.001 0.769,-0.000 0.918,0.018 26.803 L 0.037 52.837 0.193 53.244 C 0.455 53.929,0.640 54.237,1.064 54.695 C 1.548 55.217,2.039 55.546,2.685 55.781 L 3.160 55.953 21.992 55.953 C 40.647 55.953,40.828 55.952,41.251 55.806 C 42.425 55.402,43.299 54.543,43.773 53.326 L 43.963 52.837 43.982 32.414 L 44.002 11.992 38.006 5.996 L 32.010 -0.000 16.390 0.000 C 0.933 0.001,0.768 0.002,0.531 0.146 M28.013 8.433 L 28.050 12.870 28.236 13.348 C 28.700 14.539,29.546 15.364,30.763 15.814 C 31.101 15.939,31.486 15.953,35.567 15.987 L 40.003 16.023 40.003 34.027 L 40.003 52.030 22.000 52.030 L 3.997 52.030 3.978 28.087 C 3.968 14.918,3.975 4.102,3.994 4.051 C 4.022 3.978,6.462 3.963,16.003 3.978 L 27.977 3.997 28.013 8.433 M20.460 20.101 C 14.539 20.769,9.623 25.199,8.334 31.029 C 7.481 34.883,8.302 38.885,10.617 42.167 C 11.222 43.025,12.940 44.759,13.764 45.342 C 15.585 46.633,17.478 47.433,19.653 47.829 C 20.858 48.048,23.142 48.048,24.347 47.829 C 26.522 47.433,28.415 46.633,30.236 45.342 C 31.060 44.759,32.778 43.025,33.383 42.167 C 36.355 37.953,36.822 32.608,34.621 27.977 C 32.084 22.640,26.329 19.439,20.460 20.101 M23.687 24.167 C 24.598 24.315,25.755 24.706,26.611 25.157 C 29.294 26.569,31.160 29.045,31.803 32.047 C 31.989 32.914,31.991 35.126,31.807 35.982 C 31.406 37.846,30.544 39.507,29.280 40.850 C 27.349 42.903,24.815 43.999,22.000 43.999 C 19.184 43.999,16.652 42.903,14.718 40.848 C 13.092 39.120,12.027 36.576,12.027 34.425 L 12.027 34.027 17.013 34.027 L 22.000 34.027 22.000 29.040 L 22.000 24.053 22.495 24.054 C 22.767 24.054,23.303 24.105,23.687 24.167 " fill="#2B2C30" stroke="none" fill-rule="evenodd"></path></svg>