<svg width="60" height="56" viewBox="0 0 60 56" fill="none" xmlns="http://www.w3.org/2000/svg"><path d="M8.536 0.099 C 8.418 0.147,8.249 0.289,8.161 0.415 C 8.014 0.624,8.000 2.533,8.000 21.821 L 8.000 42.997 7.625 43.238 C 7.419 43.370,5.743 44.342,3.900 45.398 C 2.057 46.454,0.426 47.449,0.275 47.610 C 0.112 47.784,0.000 48.016,0.000 48.180 C -0.000 48.504,1.009 50.348,1.366 50.675 C 1.886 51.152,1.937 51.129,7.392 47.984 C 13.355 44.547,16.536 42.711,22.300 39.381 C 24.638 38.031,27.563 36.342,28.800 35.629 C 30.038 34.917,33.075 33.162,35.550 31.731 C 38.025 30.299,40.793 28.702,41.700 28.180 C 42.608 27.659,44.543 26.543,46.000 25.701 C 47.458 24.858,51.102 22.753,54.100 21.023 C 57.098 19.292,59.628 17.780,59.723 17.663 C 60.042 17.270,59.946 16.827,59.301 15.710 C 58.972 15.140,58.623 14.614,58.526 14.540 C 58.429 14.467,58.178 14.405,57.969 14.403 C 57.655 14.401,57.110 14.676,54.919 15.944 C 53.451 16.793,52.171 17.518,52.075 17.555 C 51.911 17.617,51.900 17.445,51.900 14.786 L 51.900 11.951 45.925 5.975 L 39.951 -0.000 24.350 0.006 C 15.770 0.010,8.654 0.052,8.536 0.099 M36.002 8.425 C 36.005 12.849,36.005 12.850,36.242 13.426 C 36.684 14.501,37.479 15.306,38.520 15.733 C 39.033 15.943,39.195 15.951,43.525 15.980 L 48.000 16.010 48.000 17.943 C 48.000 19.367,47.967 19.903,47.875 19.979 C 47.806 20.035,46.226 20.963,44.363 22.040 L 40.975 23.998 28.729 24.024 L 16.483 24.050 16.241 24.331 C 16.011 24.598,16.000 24.676,16.000 26.000 C 16.000 27.324,16.011 27.402,16.241 27.669 L 16.483 27.950 25.260 27.977 L 34.037 28.003 30.644 29.977 L 27.250 31.950 21.866 32.000 L 16.483 32.050 16.241 32.331 C 16.011 32.598,16.000 32.676,16.000 34.000 C 16.000 35.324,16.011 35.402,16.241 35.669 L 16.482 35.950 18.291 36.000 L 20.099 36.050 16.069 38.375 C 13.852 39.654,12.007 40.700,11.969 40.700 C 11.931 40.700,11.900 32.443,11.900 22.350 L 11.900 4.000 23.950 4.000 L 36.000 4.000 36.002 8.425 M16.500 16.128 C 16.057 16.349,15.900 16.833,15.900 17.978 C 15.900 19.102,16.028 19.568,16.412 19.837 C 16.622 19.984,17.352 20.000,23.897 19.999 C 29.494 19.997,31.207 19.969,31.400 19.872 C 31.845 19.650,32.000 19.168,32.000 18.000 C 32.000 16.832,31.845 16.350,31.400 16.128 C 31.037 15.946,16.863 15.946,16.500 16.128 M49.900 28.086 L 48.050 29.162 48.025 40.581 L 47.999 52.000 29.950 52.000 L 11.900 52.000 11.900 51.050 C 11.900 50.528,11.866 50.101,11.825 50.103 C 11.784 50.105,10.918 50.591,9.900 51.183 L 8.050 52.260 8.071 52.699 C 8.114 53.614,8.982 54.888,9.946 55.453 C 10.934 56.032,9.880 56.005,30.207 55.976 L 48.850 55.950 49.428 55.717 C 50.238 55.390,51.109 54.559,51.523 53.718 L 51.850 53.054 51.876 40.027 C 51.891 32.862,51.869 27.002,51.826 27.005 C 51.784 27.007,50.918 27.494,49.900 28.086 " fill="#2B2C30" stroke="none" fill-rule="evenodd"></path></svg>