<svg width="44" height="56" viewBox="0 0 44 56" fill="none" xmlns="http://www.w3.org/2000/svg"><path d="M0.550 0.136 C 0.429 0.211,0.264 0.347,0.183 0.437 C 0.037 0.601,0.037 0.719,0.018 26.523 C -0.003 55.261,-0.043 52.902,0.484 53.903 C 0.848 54.597,1.577 55.287,2.322 55.642 L 2.897 55.917 22.000 55.917 L 41.103 55.917 41.678 55.642 C 42.422 55.287,43.152 54.596,43.516 53.904 C 44.036 52.914,43.998 54.643,43.999 32.230 L 44.000 11.990 38.005 5.995 L 32.010 0.000 16.390 0.000 C 1.311 0.001,0.762 0.005,0.550 0.136 M28.013 8.246 C 28.013 11.018,28.041 12.592,28.094 12.848 C 28.386 14.258,29.584 15.507,30.994 15.870 C 31.380 15.970,32.056 15.987,35.706 15.987 L 39.967 15.987 39.967 34.027 L 39.967 52.067 22.000 52.067 L 4.033 52.067 4.033 44.037 L 4.033 36.007 12.027 36.007 L 20.020 36.007 20.020 39.655 C 20.021 43.144,20.027 43.314,20.164 43.538 C 20.431 43.976,21.090 44.141,21.495 43.871 C 21.897 43.604,31.817 34.583,31.893 34.416 C 31.999 34.184,31.995 33.861,31.884 33.618 C 31.814 33.463,23.275 25.666,21.750 24.365 C 21.420 24.083,21.348 24.053,20.995 24.053 C 20.653 24.053,20.571 24.084,20.331 24.304 L 20.057 24.555 20.020 28.283 L 19.983 32.010 12.008 32.029 L 4.033 32.047 4.033 18.040 L 4.033 4.033 16.023 4.033 L 28.013 4.033 28.013 8.246 " fill="#2B2C30" stroke="none" fill-rule="evenodd"></path></svg>