<svg width="44" height="56" viewBox="0 0 44 56" fill="none" xmlns="http://www.w3.org/2000/svg"><path d="M0.550 0.136 C 0.429 0.211,0.264 0.347,0.183 0.437 C 0.037 0.601,0.037 0.719,0.018 26.523 C -0.003 55.261,-0.043 52.902,0.484 53.903 C 0.848 54.597,1.577 55.287,2.322 55.642 L 2.897 55.917 22.000 55.917 L 41.103 55.917 41.678 55.642 C 42.422 55.287,43.152 54.596,43.516 53.904 C 44.036 52.914,43.998 54.643,43.999 32.230 L 44.000 11.990 38.005 5.995 L 32.010 0.000 16.390 0.000 C 1.311 0.001,0.762 0.005,0.550 0.136 M28.013 8.246 C 28.013 11.018,28.041 12.592,28.094 12.848 C 28.386 14.258,29.584 15.507,30.994 15.870 C 31.380 15.970,32.056 15.987,35.706 15.987 L 39.967 15.987 39.967 34.027 L 39.967 52.067 22.000 52.067 L 4.033 52.067 4.033 28.050 L 4.033 4.033 16.023 4.033 L 28.013 4.033 28.013 8.246 M8.499 20.186 C 8.057 20.482,7.994 20.714,7.993 22.026 C 7.993 23.329,8.063 23.597,8.464 23.842 C 8.663 23.963,8.848 23.979,10.037 23.980 L 11.384 23.980 11.661 23.703 C 12.001 23.363,12.058 23.032,12.015 21.643 C 11.982 20.604,11.919 20.424,11.491 20.163 C 11.283 20.037,11.116 20.021,10.003 20.020 C 8.820 20.020,8.734 20.030,8.499 20.186 M16.493 20.186 C 16.054 20.479,15.987 20.718,15.987 21.980 C 15.987 23.266,16.070 23.590,16.461 23.832 C 16.698 23.978,16.799 23.980,26.005 23.980 C 34.980 23.979,35.318 23.975,35.536 23.842 C 35.937 23.597,36.007 23.329,36.007 22.026 C 36.006 20.714,35.943 20.482,35.501 20.186 L 35.252 20.020 25.997 20.020 L 16.742 20.020 16.493 20.186 M8.585 28.142 C 8.077 28.401,8.033 28.538,8.007 29.922 C 7.981 31.315,8.044 31.579,8.464 31.835 C 8.663 31.956,8.848 31.973,9.999 31.973 C 11.447 31.973,11.590 31.937,11.852 31.505 C 11.973 31.304,11.990 31.121,11.990 29.993 C 11.990 28.756,11.984 28.701,11.814 28.463 C 11.534 28.071,11.300 28.013,9.994 28.013 C 9.037 28.014,8.793 28.036,8.585 28.142 M16.579 28.142 C 16.058 28.407,16.023 28.524,16.023 30.017 C 16.023 31.205,16.038 31.372,16.163 31.555 C 16.463 31.999,15.861 31.973,26.011 31.973 C 34.980 31.973,35.318 31.968,35.536 31.835 C 35.956 31.579,36.019 31.315,35.993 29.922 C 35.967 28.538,35.923 28.401,35.415 28.142 C 35.179 28.022,34.579 28.014,25.997 28.014 C 17.414 28.014,16.814 28.022,16.579 28.142 M8.585 36.132 C 8.074 36.399,8.032 36.529,8.009 37.937 C 7.986 39.329,8.036 39.543,8.457 39.851 C 8.648 39.992,8.765 40.003,9.960 40.003 C 11.940 40.003,11.990 39.954,11.990 38.023 C 11.990 36.654,11.942 36.458,11.535 36.183 C 11.357 36.062,11.165 36.040,10.083 36.022 C 9.000 36.003,8.804 36.018,8.585 36.132 M16.579 36.135 C 16.058 36.401,16.023 36.517,16.023 38.010 C 16.023 39.465,16.050 39.574,16.487 39.870 C 16.674 39.997,17.113 40.003,26.010 40.003 C 35.327 40.003,35.336 40.003,35.543 39.851 C 35.964 39.543,36.014 39.329,35.991 37.937 C 35.968 36.529,35.925 36.395,35.415 36.135 C 35.179 36.015,34.579 36.007,25.997 36.007 C 17.414 36.007,16.814 36.015,16.579 36.135 " fill="#2B2C30" stroke="none" fill-rule="evenodd"></path></svg>