<svg width="44" height="56" viewBox="0 0 44 56" fill="none" xmlns="http://www.w3.org/2000/svg"><path d="M0.531 0.146 C 0.400 0.226,0.226 0.400,0.146 0.531 C 0.001 0.769,-0.000 0.918,0.018 26.803 L 0.037 52.837 0.193 53.244 C 0.455 53.929,0.640 54.237,1.064 54.695 C 1.548 55.217,2.039 55.546,2.685 55.781 L 3.160 55.953 21.992 55.953 C 40.647 55.953,40.828 55.952,41.251 55.806 C 42.425 55.402,43.299 54.543,43.773 53.326 L 43.963 52.837 43.982 32.414 L 44.002 11.992 38.006 5.996 L 32.010 -0.000 16.390 0.000 C 0.933 0.001,0.768 0.002,0.531 0.146 M28.013 8.433 L 28.050 12.870 28.236 13.348 C 28.700 14.539,29.546 15.364,30.763 15.814 C 31.101 15.939,31.486 15.953,35.567 15.987 L 40.003 16.023 40.003 34.027 L 40.003 52.030 22.000 52.030 L 3.997 52.030 3.978 28.087 C 3.968 14.918,3.975 4.102,3.994 4.051 C 4.022 3.978,6.462 3.963,16.003 3.978 L 27.977 3.997 28.013 8.433 M20.331 24.304 L 20.057 24.555 20.020 28.283 L 19.983 32.010 16.263 32.047 L 12.543 32.083 12.303 32.323 L 12.063 32.562 12.041 33.913 C 12.015 35.422,12.056 35.599,12.489 35.863 C 12.713 36.000,12.883 36.006,16.372 36.006 L 20.020 36.007 20.020 39.655 C 20.021 43.144,20.027 43.314,20.164 43.538 C 20.417 43.953,20.603 44.000,22.000 44.000 C 23.397 44.000,23.583 43.953,23.836 43.538 C 23.973 43.314,23.979 43.144,23.980 39.655 L 23.980 36.007 27.628 36.006 C 31.117 36.006,31.287 36.000,31.511 35.863 C 31.944 35.599,31.985 35.422,31.959 33.913 L 31.937 32.562 31.697 32.323 L 31.457 32.083 27.737 32.047 L 24.017 32.010 23.980 28.283 L 23.943 24.555 23.669 24.304 L 23.395 24.053 22.000 24.053 L 20.605 24.053 20.331 24.304 " fill="#2B2C30" stroke="none" fill-rule="evenodd"></path></svg>