<svg width="44" height="56" viewBox="0 0 44 56" fill="none" xmlns="http://www.w3.org/2000/svg"><path d="M0.550 0.136 C 0.429 0.211,0.264 0.347,0.183 0.437 C 0.037 0.601,0.037 0.719,0.018 26.523 C -0.003 55.264,-0.043 52.902,0.484 53.904 C 0.858 54.616,1.500 55.230,2.266 55.609 L 2.886 55.917 21.994 55.917 L 41.103 55.917 41.678 55.642 C 42.422 55.287,43.152 54.596,43.516 53.904 C 44.036 52.914,43.998 54.643,43.999 32.230 L 44.000 11.990 38.005 5.995 L 32.010 0.000 16.390 0.000 C 1.311 0.001,0.762 0.005,0.550 0.136 M28.013 8.246 C 28.013 11.018,28.041 12.592,28.094 12.848 C 28.386 14.258,29.584 15.507,30.994 15.870 C 31.380 15.970,32.056 15.987,35.706 15.987 L 39.967 15.987 39.967 34.027 L 39.967 52.067 22.000 52.067 L 4.033 52.067 4.033 28.050 L 4.033 4.033 16.023 4.033 L 28.013 4.033 28.013 8.246 M12.164 28.749 C 9.971 31.330,8.132 33.548,8.078 33.678 C 7.941 34.005,8.018 34.363,8.301 34.717 C 8.534 35.008,15.921 43.724,16.091 43.909 C 16.158 43.981,16.549 43.656,17.896 42.408 C 18.843 41.532,19.617 40.793,19.617 40.766 C 19.617 40.739,18.297 39.228,16.683 37.408 C 15.070 35.588,13.741 34.071,13.729 34.037 C 13.717 34.002,15.049 32.493,16.688 30.682 L 19.667 27.390 18.175 25.941 C 17.355 25.145,16.564 24.394,16.417 24.274 L 16.151 24.055 12.164 28.749 M26.078 25.706 C 24.594 27.136,24.359 27.391,24.438 27.489 C 24.489 27.552,25.826 29.037,27.411 30.789 C 28.995 32.541,30.282 34.003,30.271 34.037 C 30.259 34.072,28.930 35.588,27.317 37.406 C 25.703 39.225,24.383 40.736,24.383 40.764 C 24.383 40.792,25.157 41.532,26.104 42.408 C 27.451 43.656,27.842 43.981,27.909 43.909 C 28.076 43.728,35.463 35.011,35.699 34.717 C 35.990 34.353,36.061 34.001,35.911 33.657 C 35.828 33.466,28.436 24.674,27.907 24.137 C 27.825 24.054,27.530 24.307,26.078 25.706 " fill="#2B2C30" stroke="none" fill-rule="evenodd"></path></svg>