<svg width="44" height="56" viewBox="0 0 44 56" fill="none" xmlns="http://www.w3.org/2000/svg"><path d="M0.531 0.146 C 0.400 0.226,0.226 0.400,0.146 0.531 C 0.001 0.769,-0.000 0.918,0.018 26.803 L 0.037 52.837 0.193 53.244 C 0.455 53.929,0.640 54.237,1.064 54.695 C 1.548 55.217,2.039 55.546,2.685 55.781 L 3.160 55.953 21.992 55.953 C 40.647 55.953,40.828 55.952,41.251 55.806 C 42.425 55.402,43.299 54.543,43.773 53.326 L 43.963 52.837 43.982 32.414 L 44.002 11.992 38.006 5.996 L 32.010 -0.000 16.390 0.000 C 0.933 0.001,0.768 0.002,0.531 0.146 M28.013 8.433 L 28.050 12.870 28.236 13.348 C 28.700 14.539,29.546 15.364,30.763 15.814 C 31.101 15.939,31.486 15.953,35.567 15.987 L 40.003 16.023 40.003 34.027 L 40.003 52.030 22.000 52.030 L 3.997 52.030 3.978 28.087 C 3.968 14.918,3.975 4.102,3.994 4.051 C 4.022 3.978,6.462 3.963,16.003 3.978 L 27.977 3.997 28.013 8.433 M20.483 20.163 C 20.078 20.410,20.060 20.495,20.020 22.360 L 19.983 24.076 19.360 24.242 C 18.570 24.453,17.635 24.845,16.936 25.259 L 16.390 25.582 15.253 24.459 C 14.628 23.841,14.045 23.299,13.956 23.255 C 13.660 23.104,13.244 23.157,12.936 23.384 C 12.500 23.705,11.310 24.954,11.223 25.182 C 11.124 25.443,11.126 25.782,11.228 25.983 C 11.273 26.071,11.815 26.655,12.432 27.280 L 13.556 28.417 13.231 28.965 C 12.822 29.656,12.529 30.359,12.263 31.285 L 12.054 32.010 10.332 32.047 C 7.931 32.098,7.969 32.064,8.007 34.127 C 8.042 36.019,8.025 36.007,10.429 36.007 L 12.072 36.007 12.197 36.528 C 12.374 37.268,12.851 38.443,13.234 39.086 L 13.562 39.636 12.397 40.809 C 10.760 42.458,10.759 42.473,12.152 43.868 C 13.547 45.266,13.564 45.265,15.218 43.627 L 16.392 42.463 16.903 42.769 C 17.546 43.154,18.787 43.663,19.486 43.827 L 20.020 43.953 20.020 45.636 C 20.020 47.196,20.031 47.337,20.168 47.559 C 20.423 47.971,20.663 48.033,22.000 48.033 C 23.337 48.033,23.577 47.971,23.832 47.559 C 23.969 47.337,23.980 47.196,23.980 45.636 L 23.980 43.953 24.514 43.827 C 25.213 43.663,26.454 43.154,27.097 42.769 L 27.608 42.463 28.782 43.629 C 30.427 45.261,30.439 45.262,31.847 43.866 C 32.627 43.092,32.791 42.891,32.827 42.666 C 32.907 42.171,32.814 42.029,31.603 40.809 L 30.438 39.636 30.766 39.086 C 31.149 38.443,31.626 37.268,31.803 36.528 L 31.928 36.007 33.571 36.007 C 35.975 36.007,35.958 36.019,35.993 34.127 C 36.031 32.064,36.069 32.098,33.668 32.047 L 31.946 32.010 31.737 31.285 C 31.471 30.359,31.178 29.656,30.769 28.965 L 30.444 28.417 31.568 27.280 C 32.185 26.655,32.727 26.071,32.772 25.983 C 32.874 25.782,32.876 25.443,32.777 25.182 C 32.690 24.954,31.500 23.705,31.064 23.384 C 30.756 23.157,30.340 23.104,30.044 23.255 C 29.955 23.299,29.372 23.841,28.747 24.459 L 27.610 25.582 27.064 25.259 C 26.365 24.845,25.430 24.453,24.640 24.242 L 24.017 24.076 23.980 22.360 C 23.940 20.495,23.922 20.410,23.517 20.163 C 23.309 20.036,23.142 20.021,22.000 20.021 C 20.858 20.021,20.691 20.036,20.483 20.163 M23.064 28.126 C 25.339 28.522,27.186 30.237,27.801 32.523 C 28.021 33.341,28.020 34.700,27.800 35.530 C 27.245 37.614,25.599 39.262,23.503 39.829 C 23.049 39.952,22.711 39.988,22.000 39.988 C 21.289 39.988,20.951 39.952,20.497 39.829 C 18.402 39.262,16.760 37.619,16.199 35.530 C 15.977 34.705,15.978 33.348,16.199 32.523 C 16.501 31.401,17.049 30.471,17.873 29.688 C 19.282 28.347,21.136 27.789,23.064 28.126 " fill="#2B2C30" stroke="none" fill-rule="evenodd"></path></svg>