<svg width="52" height="56" viewBox="0 0 52 56" fill="none" xmlns="http://www.w3.org/2000/svg"><path d="M24.506 0.136 C 23.976 0.423,24.007 -0.329,24.007 12.389 L 24.007 24.007 19.409 24.007 C 15.469 24.007,14.775 24.025,14.557 24.138 C 14.109 24.370,13.908 25.018,14.151 25.450 C 14.209 25.553,16.788 27.940,19.881 30.755 C 23.642 34.176,25.587 35.890,25.753 35.926 C 25.889 35.956,26.112 35.956,26.248 35.926 C 26.415 35.889,28.346 34.189,32.120 30.754 C 35.213 27.939,37.791 25.552,37.849 25.450 C 38.092 25.019,37.891 24.370,37.443 24.138 C 37.225 24.025,36.531 24.007,32.591 24.007 L 27.993 24.007 27.993 12.389 C 27.993 -0.373,28.027 0.416,27.476 0.131 C 27.118 -0.054,24.850 -0.051,24.506 0.136 M3.077 32.103 C 1.547 32.487,0.426 33.642,0.098 35.172 C -0.032 35.777,-0.041 52.022,0.088 52.703 C 0.394 54.314,1.764 55.643,3.380 55.897 C 4.159 56.019,47.841 56.019,48.620 55.897 C 50.245 55.642,51.615 54.305,51.915 52.681 C 51.973 52.365,51.996 49.250,51.980 43.671 C 51.957 35.190,51.956 35.141,51.771 34.652 C 51.340 33.515,50.465 32.640,49.328 32.209 C 48.853 32.030,48.690 32.022,44.552 31.998 C 41.518 31.980,40.199 32.001,40.032 32.070 C 39.902 32.124,39.266 32.706,38.618 33.365 C 37.538 34.462,37.440 34.588,37.440 34.878 C 37.440 35.053,37.499 35.310,37.571 35.450 C 37.844 35.977,37.736 35.967,43.112 35.967 L 48.013 35.967 48.013 43.983 L 48.013 52.000 26.000 52.000 L 3.987 52.000 3.987 43.983 L 3.987 35.967 8.888 35.967 C 14.264 35.967,14.156 35.977,14.429 35.450 C 14.501 35.310,14.560 35.053,14.560 34.879 C 14.560 34.590,14.462 34.462,13.412 33.393 C 12.780 32.750,12.158 32.169,12.029 32.102 C 11.708 31.935,3.744 31.936,3.077 32.103 " fill="#2B2C30" stroke="none" fill-rule="evenodd"></path></svg>