<svg width="40" height="56" viewBox="0 0 40 56" fill="none" xmlns="http://www.w3.org/2000/svg"><path d="M18.248 0.069 C 15.707 0.282,13.277 0.962,11.000 2.099 C 9.036 3.079,7.525 4.154,5.942 5.697 C 3.532 8.045,1.862 10.739,0.834 13.933 C 0.415 15.234,0.000 17.288,0.000 18.056 C -0.000 18.495,0.247 19.054,0.597 19.403 C 1.381 20.187,2.619 20.187,3.403 19.403 C 3.756 19.051,3.958 18.586,4.029 17.967 C 4.724 11.875,9.255 6.509,15.230 4.703 C 16.867 4.208,18.095 4.036,19.967 4.039 C 22.559 4.043,24.706 4.537,26.939 5.643 C 31.452 7.878,34.685 12.115,35.597 16.991 C 35.972 18.997,35.946 21.437,35.527 23.367 C 34.861 26.440,33.284 29.278,31.024 31.469 C 30.141 32.325,29.465 32.855,28.200 33.682 C 25.982 35.133,24.540 36.460,23.074 38.400 C 21.485 40.503,20.537 42.515,19.797 45.353 C 19.256 47.426,18.747 48.392,17.546 49.625 C 16.480 50.719,15.375 51.345,13.733 51.785 C 13.173 51.935,12.965 51.955,11.933 51.959 C 10.882 51.963,10.697 51.945,10.059 51.785 C 7.101 51.041,4.939 48.908,4.135 45.942 C 3.899 45.072,3.873 45.015,3.549 44.656 C 2.473 43.464,0.477 44.006,0.123 45.585 C 0.053 45.900,0.058 46.037,0.157 46.520 C 0.647 48.900,2.056 51.319,3.900 52.947 C 6.942 55.631,11.031 56.615,14.950 55.604 C 18.695 54.639,21.787 51.840,23.135 48.197 C 23.250 47.887,23.474 47.123,23.634 46.500 C 24.014 45.018,24.246 44.365,24.798 43.233 C 25.807 41.164,27.294 39.324,29.067 37.954 C 29.305 37.770,29.965 37.311,30.533 36.934 C 32.037 35.937,32.839 35.292,33.970 34.167 C 36.474 31.676,38.062 29.019,39.090 25.600 C 39.919 22.846,40.103 19.578,39.597 16.616 C 38.329 9.194,32.871 3.043,25.600 0.845 C 24.681 0.567,23.457 0.310,22.367 0.166 C 21.397 0.038,19.231 -0.013,18.248 0.069 M18.633 8.069 C 15.281 8.448,12.269 10.162,10.292 12.815 C 9.070 14.455,8.334 16.235,8.023 18.294 C 7.935 18.881,7.911 19.568,7.906 21.629 L 7.900 24.226 8.467 24.552 C 9.971 25.420,10.821 26.309,11.378 27.600 C 11.764 28.492,11.833 28.858,11.833 30.000 C 11.833 31.142,11.764 31.508,11.378 32.400 C 11.109 33.024,10.768 33.541,10.252 34.111 C 9.713 34.706,9.535 35.101,9.535 35.700 C 9.535 36.825,10.282 37.600,11.421 37.656 C 11.898 37.679,11.977 37.663,12.373 37.469 C 13.333 36.996,14.687 35.063,15.321 33.259 C 15.732 32.092,15.834 31.438,15.830 30.000 C 15.827 28.918,15.802 28.586,15.680 28.021 C 15.201 25.810,14.040 23.824,12.426 22.454 L 11.852 21.967 11.887 20.467 C 11.925 18.817,12.017 18.227,12.391 17.209 C 13.375 14.535,15.782 12.564,18.636 12.096 C 19.423 11.966,20.763 11.996,21.515 12.160 C 24.683 12.848,27.079 15.277,27.735 18.467 C 27.858 19.066,27.874 19.320,27.848 20.233 C 27.803 21.804,27.527 22.752,26.689 24.220 C 26.332 24.845,26.299 24.936,26.277 25.378 C 26.246 25.987,26.385 26.422,26.739 26.824 C 27.412 27.588,28.616 27.718,29.414 27.113 C 30.099 26.593,31.085 24.653,31.489 23.033 C 31.787 21.836,31.833 21.427,31.833 20.000 C 31.833 19.151,31.800 18.444,31.744 18.133 C 31.253 15.385,30.116 13.220,28.186 11.361 C 26.444 9.683,24.339 8.617,21.933 8.194 C 21.054 8.039,19.438 7.978,18.633 8.069 " fill="#2B2C30" stroke="none" fill-rule="evenodd"></path></svg>