<svg width="56" height="56" viewBox="0 0 56 56" fill="none" xmlns="http://www.w3.org/2000/svg"><path d="M43.820 0.178 C 43.666 0.275,37.377 6.523,29.843 14.061 L 16.147 27.768 16.147 33.526 L 16.147 39.283 16.372 39.545 L 16.597 39.807 22.412 39.832 L 28.228 39.858 42.067 26.019 C 56.578 11.509,56.134 11.978,55.953 11.371 C 55.877 11.117,45.156 0.332,44.781 0.134 C 44.441 -0.047,44.155 -0.034,43.820 0.178 M47.554 8.494 L 50.726 11.667 40.483 21.910 L 30.240 32.153 27.044 28.957 L 23.847 25.760 34.067 15.540 C 39.687 9.919,44.308 5.320,44.334 5.320 C 44.360 5.320,45.809 6.748,47.554 8.494 M0.607 7.742 C 0.504 7.784,0.336 7.911,0.233 8.025 C 0.048 8.232,0.047 8.381,0.023 31.700 C -0.003 57.522,-0.047 55.546,0.558 55.859 C 0.802 55.985,3.437 55.998,24.308 55.977 L 47.782 55.953 48.041 55.695 L 48.300 55.436 48.324 41.943 L 48.349 28.450 48.030 28.132 L 47.712 27.813 46.351 27.813 L 44.990 27.813 44.685 28.086 L 44.380 28.358 44.356 40.172 L 44.331 51.987 24.172 51.987 L 4.013 51.987 4.013 31.828 L 4.013 11.669 15.828 11.644 L 27.642 11.620 27.914 11.315 L 28.187 11.010 28.187 9.649 L 28.187 8.288 27.869 7.971 L 27.552 7.653 14.173 7.659 C 6.814 7.663,0.709 7.700,0.607 7.742 M24.218 31.825 L 27.389 34.997 26.975 35.418 L 26.561 35.840 23.361 35.840 L 20.160 35.840 20.160 32.647 L 20.160 29.454 20.553 29.054 C 20.769 28.833,20.969 28.653,20.997 28.653 C 21.025 28.653,22.474 30.081,24.218 31.825 " fill="#2B2C30" stroke="none" fill-rule="evenodd"></path></svg>