<svg width="6" height="30" viewBox="0 0 6 30" fill="none" xmlns="http://www.w3.org/2000/svg"><path d="M2.800 0.006 C 1.919 0.072,1.134 0.498,0.603 1.197 C 0.300 1.597,0.111 2.054,0.027 2.590 C -0.003 2.786,-0.003 3.214,0.027 3.410 C 0.156 4.233,0.553 4.908,1.198 5.398 C 1.596 5.700,2.056 5.889,2.590 5.973 C 2.786 6.003,3.214 6.003,3.410 5.973 C 4.139 5.859,4.759 5.530,5.224 5.011 C 5.636 4.550,5.874 4.041,5.973 3.410 C 6.003 3.214,6.003 2.786,5.973 2.590 C 5.889 2.056,5.700 1.596,5.398 1.198 C 4.901 0.544,4.192 0.133,3.375 0.025 C 3.258 0.009,2.910 -0.002,2.800 0.006 M2.765 12.010 C 2.311 12.051,1.890 12.180,1.524 12.390 C 0.801 12.805,0.289 13.478,0.091 14.275 C 0.027 14.531,0.006 14.714,0.006 15.000 C 0.006 15.286,0.027 15.469,0.091 15.725 C 0.337 16.713,1.079 17.519,2.040 17.841 C 2.362 17.949,2.649 17.995,3.000 17.995 C 3.612 17.995,4.153 17.832,4.662 17.494 C 5.342 17.043,5.821 16.309,5.954 15.515 C 6.010 15.177,6.010 14.823,5.954 14.485 C 5.821 13.691,5.342 12.957,4.662 12.506 C 4.261 12.240,3.860 12.091,3.370 12.025 C 3.235 12.006,2.893 11.998,2.765 12.010 M2.765 24.010 C 2.311 24.051,1.890 24.180,1.524 24.390 C 0.801 24.805,0.289 25.478,0.091 26.275 C 0.027 26.531,0.006 26.714,0.006 27.000 C 0.006 27.286,0.027 27.469,0.091 27.725 C 0.337 28.713,1.079 29.519,2.040 29.841 C 2.362 29.949,2.649 29.995,3.000 29.995 C 3.612 29.995,4.153 29.832,4.662 29.494 C 5.342 29.043,5.821 28.309,5.954 27.515 C 6.010 27.177,6.010 26.823,5.954 26.485 C 5.821 25.691,5.342 24.957,4.662 24.506 C 4.261 24.240,3.860 24.091,3.370 24.025 C 3.235 24.006,2.893 23.998,2.765 24.010 " fill="#2B2C30" stroke="none" fill-rule="evenodd"></path></svg>