<svg width="64" height="48" viewBox="0 0 64 48" fill="none" xmlns="http://www.w3.org/2000/svg"><path d="M28.960 0.119 C 15.540 1.052,4.235 8.358,0.964 18.212 C -0.597 22.914,-0.266 27.606,1.954 32.241 C 3.463 35.391,6.169 38.556,9.465 41.027 C 15.374 45.454,23.600 48.000,32.000 48.000 C 40.400 48.000,48.626 45.454,54.535 41.027 C 60.588 36.490,63.998 30.355,63.998 24.000 C 63.998 19.564,62.280 15.057,59.180 11.360 C 52.645 3.567,41.107 -0.725,28.960 0.119 M36.901 4.315 C 43.028 5.184,48.041 7.126,52.251 10.261 C 53.624 11.284,56.092 13.773,56.989 15.040 C 58.269 16.847,59.254 19.065,59.705 21.156 C 59.970 22.383,59.970 25.617,59.705 26.844 C 59.257 28.919,58.255 31.177,56.989 32.960 C 56.039 34.299,53.580 36.767,52.132 37.834 C 44.102 43.755,32.197 45.588,21.564 42.540 C 17.828 41.469,13.882 39.479,11.147 37.285 C 9.248 35.763,7.142 33.364,6.089 31.523 C 5.104 29.802,4.419 27.827,4.152 25.935 C 3.992 24.808,4.084 22.092,4.317 21.040 C 4.933 18.265,6.372 15.561,8.449 13.279 C 13.139 8.124,20.326 4.907,28.907 4.122 C 30.103 4.012,35.723 4.148,36.901 4.315 " fill="#2B2C30" stroke="none" fill-rule="evenodd"></path></svg>