<svg width="48" height="64" viewBox="0 0 48 64" fill="none" xmlns="http://www.w3.org/2000/svg"><path d="M22.320 0.081 C 16.002 0.740,10.336 4.430,6.167 10.600 C 2.849 15.511,0.810 21.497,0.145 28.280 C 0.010 29.654,0.010 34.354,0.145 35.720 C 0.646 40.783,1.838 45.199,3.805 49.270 C 4.577 50.868,5.043 51.686,6.045 53.200 C 9.546 58.493,14.238 62.077,19.400 63.399 C 21.203 63.861,21.992 63.957,24.000 63.957 C 26.008 63.957,26.797 63.861,28.600 63.399 C 33.760 62.077,38.456 58.491,41.955 53.200 C 42.957 51.686,43.423 50.868,44.195 49.270 C 46.152 45.219,47.364 40.733,47.855 35.720 C 47.990 34.352,47.990 29.648,47.855 28.280 C 47.364 23.267,46.152 18.781,44.195 14.730 C 42.470 11.159,40.467 8.381,37.755 5.796 C 34.617 2.805,30.615 0.790,26.640 0.200 C 25.622 0.049,23.253 -0.016,22.320 0.081 M26.080 4.157 C 28.002 4.469,29.800 5.108,31.492 6.083 C 37.582 9.591,42.103 17.068,43.511 25.960 C 43.863 28.181,43.949 29.374,43.949 32.000 C 43.949 34.626,43.863 35.819,43.511 38.040 C 42.132 46.750,37.765 54.110,31.828 57.732 C 30.324 58.650,28.513 59.361,26.721 59.737 C 25.821 59.927,25.546 59.948,24.000 59.949 C 22.438 59.951,22.188 59.932,21.280 59.738 C 16.263 58.671,12.011 55.365,8.735 49.984 C 3.753 41.801,2.606 30.163,5.824 20.430 C 8.819 11.368,15.038 5.100,21.960 4.167 C 22.312 4.120,22.708 4.066,22.840 4.047 C 23.242 3.990,25.526 4.067,26.080 4.157 " fill="#2B2C30" stroke="none" fill-rule="evenodd"></path></svg>