<svg width="56" height="40" viewBox="0 0 56 40" fill="none" xmlns="http://www.w3.org/2000/svg"><path d="M3.010 0.144 C 2.309 0.333,1.814 0.608,1.286 1.102 C 0.736 1.616,0.414 2.139,0.176 2.905 C 0.006 3.449,-0.000 4.072,0.000 20.020 C 0.000 35.968,0.006 36.591,0.176 37.135 C 0.273 37.446,0.458 37.881,0.588 38.103 C 0.920 38.670,1.684 39.355,2.313 39.650 L 2.847 39.900 28.000 39.900 L 53.153 39.900 53.687 39.650 C 54.316 39.355,55.080 38.670,55.412 38.103 C 55.542 37.881,55.727 37.446,55.824 37.135 C 55.994 36.591,56.000 35.968,56.000 20.020 C 56.000 4.072,55.994 3.449,55.824 2.905 C 55.586 2.139,55.264 1.616,54.714 1.102 C 54.174 0.596,53.690 0.332,52.950 0.140 C 52.164 -0.065,3.770 -0.061,3.010 0.144 M38.570 14.583 L 28.000 25.153 17.430 14.583 L 6.860 4.013 28.000 4.013 L 49.140 4.013 38.570 14.583 M10.617 13.464 L 17.173 20.020 10.593 26.600 L 4.013 33.180 4.013 20.043 C 4.013 12.818,4.024 6.907,4.037 6.907 C 4.050 6.907,7.011 9.857,10.617 13.464 M51.987 20.043 L 51.987 33.180 45.407 26.600 L 38.827 20.020 45.383 13.464 C 48.989 9.857,51.950 6.907,51.963 6.907 C 51.976 6.907,51.987 12.818,51.987 20.043 M28.000 30.427 L 28.415 30.427 32.198 26.647 L 35.982 22.868 42.561 29.447 L 49.140 36.027 28.000 36.027 L 6.860 36.027 13.439 29.447 L 20.018 22.868 23.802 26.647 L 27.585 30.427 28.000 30.427 " fill="#2B2C30" stroke="none" fill-rule="evenodd"></path></svg>