<svg width="32" height="56" viewBox="0 0 32 56" fill="none" xmlns="http://www.w3.org/2000/svg"><path d="M10.424 0.100 C 10.072 0.260,9.960 0.450,9.612 1.475 C 9.435 1.999,7.207 8.535,4.662 16.000 C 0.080 29.437,0.033 29.578,0.030 30.000 C 0.027 30.375,0.047 30.468,0.197 30.773 C 0.476 31.342,0.901 31.715,1.474 31.892 C 1.816 31.997,1.952 32.000,6.908 32.000 L 11.991 32.000 7.996 43.985 C 5.545 51.338,4.040 55.929,4.101 55.865 C 4.156 55.807,10.222 48.632,17.581 39.920 C 24.940 31.208,31.114 23.900,31.300 23.680 C 31.913 22.958,32.101 22.346,31.924 21.653 C 31.751 20.973,31.363 20.502,30.720 20.193 L 30.373 20.027 25.189 20.000 L 20.004 19.973 23.954 11.387 C 26.714 5.385,27.921 2.706,27.962 2.489 C 28.116 1.672,27.701 0.768,26.971 0.330 C 26.393 -0.017,26.872 0.001,18.373 0.002 C 10.985 0.002,10.630 0.007,10.424 0.100 M22.860 4.173 C 22.820 4.269,20.765 8.739,18.294 14.107 C 15.824 19.475,13.791 23.897,13.776 23.933 C 13.754 23.986,14.987 24.002,19.759 24.013 L 25.769 24.027 20.102 30.733 C 16.986 34.422,14.428 37.432,14.419 37.423 C 14.410 37.414,15.108 35.290,15.970 32.703 L 17.538 28.000 11.177 27.987 L 4.817 27.973 8.897 15.987 L 12.978 4.000 17.956 4.000 L 22.935 4.000 22.860 4.173 " fill="#2B2C30" stroke="none" fill-rule="evenodd"></path></svg>