<svg width="52" height="52" viewBox="0 0 52 52" fill="none" xmlns="http://www.w3.org/2000/svg"><path d="M19.153 0.095 C 17.613 0.396,16.195 1.939,16.057 3.463 L 16.009 3.987 32.011 3.987 L 48.013 3.987 48.013 19.933 L 48.013 35.880 48.255 35.880 C 48.606 35.880,49.435 35.650,49.854 35.436 C 50.353 35.182,51.175 34.378,51.475 33.849 C 52.030 32.876,52.000 33.790,52.000 17.924 C 52.000 2.169,52.026 3.020,51.507 2.065 C 51.241 1.577,50.477 0.822,49.920 0.497 C 49.024 -0.027,49.860 -0.001,34.020 0.009 C 26.058 0.015,19.368 0.053,19.153 0.095 M11.657 8.030 C 9.706 8.278,8.326 9.594,8.072 11.447 L 8.002 11.960 23.999 11.981 L 39.997 12.003 40.019 27.928 L 40.040 43.853 40.328 43.853 C 40.486 43.853,40.827 43.791,41.086 43.715 C 42.651 43.256,43.744 41.948,43.944 40.293 C 44.002 39.817,44.024 34.659,44.008 25.437 L 43.983 11.310 43.782 10.751 C 43.321 9.475,42.523 8.679,41.241 8.216 L 40.690 8.017 26.303 8.007 C 18.391 8.002,11.800 8.012,11.657 8.030 M2.734 16.216 C 2.166 16.412,1.470 16.842,1.111 17.219 C 0.983 17.353,0.741 17.691,0.574 17.970 C -0.032 18.979,-0.000 18.095,-0.000 33.914 C -0.000 43.243,0.031 48.324,0.088 48.629 C 0.404 50.292,1.800 51.607,3.483 51.826 C 4.352 51.939,31.740 51.938,32.543 51.825 C 33.856 51.640,34.999 50.803,35.601 49.584 L 35.923 48.932 35.946 34.156 C 35.967 20.854,35.955 19.331,35.831 18.898 C 35.466 17.624,34.456 16.593,33.185 16.198 C 32.676 16.039,32.146 16.033,17.954 16.036 C 3.369 16.039,3.246 16.041,2.734 16.216 M31.980 33.974 L 31.980 47.927 18.005 47.905 L 4.030 47.883 4.008 33.952 L 3.986 20.020 17.983 20.020 L 31.980 20.020 31.980 33.974 M16.033 27.992 L 16.033 31.978 12.025 32.001 L 8.017 32.023 7.993 33.994 L 7.970 35.965 11.980 35.987 L 15.990 36.010 16.013 40.020 L 16.035 44.030 18.006 44.007 L 19.977 43.983 19.999 39.975 L 20.022 35.967 24.008 35.967 L 27.993 35.967 27.993 33.973 L 27.993 31.980 24.007 31.980 L 20.020 31.980 20.020 27.993 L 20.020 24.007 18.027 24.007 L 16.033 24.007 16.033 27.992 " fill="#2B2C30" stroke="none" fill-rule="evenodd"></path></svg>