<svg width="48" height="48" viewBox="0 0 48 48" fill="none" xmlns="http://www.w3.org/2000/svg"><path d="M32.577 0.121 C 32.391 0.201,32.267 0.340,32.157 0.589 C 31.861 1.257,31.804 1.181,34.989 4.380 L 37.876 7.281 32.984 12.180 C 28.718 16.453,28.085 17.118,28.038 17.373 C 28.009 17.534,28.010 17.750,28.040 17.853 C 28.071 17.956,28.515 18.463,29.027 18.980 C 29.997 19.960,30.207 20.084,30.699 19.964 C 30.849 19.928,32.508 18.324,35.819 15.017 L 40.718 10.123 43.619 13.011 C 46.819 16.196,46.743 16.139,47.412 15.843 C 48.035 15.567,48.000 16.038,48.000 7.943 C 47.999 0.960,47.995 0.753,47.843 0.504 C 47.519 -0.028,47.955 -0.000,40.024 0.003 C 33.974 0.006,32.798 0.024,32.577 0.121 M17.280 28.057 C 17.146 28.081,15.456 29.714,12.179 32.985 L 7.279 37.878 4.499 35.110 C 2.971 33.587,1.631 32.283,1.522 32.211 C 1.265 32.041,0.766 32.044,0.474 32.216 C -0.021 32.508,-0.000 32.169,0.000 40.052 C 0.001 47.040,0.005 47.247,0.157 47.496 C 0.481 48.028,0.047 48.000,7.964 48.000 C 15.863 48.000,15.541 48.020,15.804 47.513 C 15.942 47.246,15.955 46.779,15.832 46.535 C 15.783 46.439,14.478 45.091,12.932 43.540 L 10.121 40.720 15.013 35.820 C 20.227 30.598,20.119 30.722,19.926 30.139 C 19.822 29.823,18.224 28.207,17.895 28.084 C 17.664 27.998,17.624 27.996,17.280 28.057 " fill="#2B2C30" stroke="none" fill-rule="evenodd"></path></svg>