<svg width="48" height="48" viewBox="0 0 48 48" fill="none" xmlns="http://www.w3.org/2000/svg"><path d="M30.969 0.137 C 30.785 0.228,30.648 0.383,30.543 0.619 C 30.263 1.252,30.236 1.217,33.828 4.820 L 37.078 8.081 26.584 18.580 C 15.276 29.895,15.852 29.275,16.079 29.881 C 16.180 30.152,17.687 31.711,18.016 31.886 C 18.274 32.022,18.586 32.032,18.825 31.912 C 18.921 31.863,23.707 27.120,29.460 21.372 L 39.920 10.920 43.140 14.132 C 44.911 15.898,46.445 17.387,46.550 17.440 C 47.015 17.676,47.652 17.469,47.869 17.011 C 47.988 16.762,48.000 15.976,48.000 8.748 C 47.999 0.967,47.995 0.753,47.843 0.504 C 47.517 -0.031,48.039 -0.000,39.224 0.002 C 31.928 0.003,31.217 0.015,30.969 0.137 M3.240 12.083 C 1.844 12.369,0.743 13.325,0.212 14.712 L 0.040 15.160 0.040 30.000 L 0.040 44.840 0.216 45.300 C 0.662 46.469,1.532 47.337,2.712 47.788 L 3.160 47.960 18.000 47.960 L 32.840 47.960 33.300 47.784 C 34.469 47.338,35.337 46.468,35.788 45.288 L 35.960 44.840 35.982 35.176 C 36.001 26.611,35.990 25.483,35.881 25.253 C 35.614 24.691,34.896 24.549,34.352 24.950 C 33.860 25.313,32.178 27.062,32.085 27.308 C 32.027 27.459,32.000 30.173,32.000 35.765 L 32.000 44.000 18.000 44.000 L 4.000 44.000 4.000 30.000 L 4.000 16.000 12.195 16.000 C 17.482 16.000,20.464 15.972,20.601 15.920 C 20.842 15.828,22.427 14.314,22.891 13.733 C 23.243 13.292,23.300 12.874,23.064 12.474 C 22.768 11.973,23.336 11.999,12.988 12.009 C 7.803 12.014,3.416 12.047,3.240 12.083 " fill="#2B2C30" stroke="none" fill-rule="evenodd"></path></svg>