<svg width="58" height="42" viewBox="0 0 58 42" fill="none" xmlns="http://www.w3.org/2000/svg"><path d="M46.980 0.067 C 46.900 0.095,45.368 1.580,43.575 3.366 L 40.316 6.615 39.902 6.494 C 35.922 5.330,32.948 4.891,29.048 4.893 C 26.542 4.895,24.974 5.018,22.912 5.375 C 15.060 6.734,7.854 10.694,2.438 16.625 C 0.996 18.204,0.432 19.008,0.177 19.848 C -0.228 21.182,0.087 22.353,1.224 23.732 C 1.979 24.647,4.191 26.909,5.317 27.916 C 7.262 29.655,10.085 31.599,12.301 32.726 C 12.899 33.031,13.408 33.297,13.431 33.318 C 13.455 33.339,12.294 34.540,10.851 35.987 C 9.398 37.445,8.180 38.746,8.120 38.905 C 8.061 39.062,8.039 39.301,8.072 39.436 C 8.105 39.571,8.552 40.106,9.066 40.624 C 10.052 41.618,10.387 41.796,10.841 41.565 C 10.966 41.502,14.165 38.358,17.950 34.579 L 24.832 27.707 25.587 28.062 C 28.148 29.263,31.133 29.081,33.421 27.584 C 34.136 27.117,35.333 25.920,35.801 25.205 C 36.641 23.920,37.068 22.415,37.054 20.783 C 37.044 19.492,36.848 18.628,36.288 17.404 L 35.927 16.612 42.829 9.710 C 51.018 1.520,50.300 2.582,48.709 1.009 C 47.670 -0.017,47.492 -0.114,46.980 0.067 M31.131 9.049 C 31.631 9.135,32.367 9.311,32.767 9.439 C 33.549 9.691,35.274 10.513,35.670 10.823 L 35.912 11.013 34.511 12.418 C 33.741 13.191,33.069 13.823,33.017 13.823 C 32.965 13.823,32.573 13.673,32.144 13.489 C 31.710 13.303,30.960 13.084,30.449 12.994 C 26.410 12.289,22.605 14.658,21.348 18.660 C 21.153 19.283,21.122 19.580,21.122 20.832 C 21.123 22.407,21.242 23.007,21.806 24.264 L 22.078 24.869 20.633 26.248 C 19.689 27.148,19.152 27.596,19.083 27.540 C 18.882 27.378,17.904 25.374,17.648 24.603 C 16.854 22.207,16.893 19.199,17.750 16.797 C 19.172 12.817,22.739 9.806,26.931 9.049 C 27.989 8.858,30.017 8.858,31.131 9.049 M46.463 11.682 L 45.029 13.118 45.497 13.390 C 46.480 13.962,48.001 15.030,49.183 15.979 C 50.479 17.019,52.841 19.328,53.553 20.251 L 53.976 20.799 53.789 21.152 C 53.686 21.346,52.775 22.334,51.765 23.347 C 49.492 25.626,47.688 27.045,45.205 28.505 C 44.263 29.059,42.243 30.092,42.243 30.019 C 42.243 29.994,42.421 29.700,42.639 29.366 C 43.548 27.968,44.365 25.940,44.762 24.095 C 45.055 22.733,45.129 19.948,44.909 18.545 C 44.718 17.327,44.385 16.041,44.015 15.088 L 43.747 14.400 42.184 15.961 C 40.652 17.491,40.623 17.528,40.709 17.824 C 40.909 18.509,41.083 19.930,41.083 20.892 C 41.084 22.722,40.672 24.464,39.842 26.148 C 37.814 30.262,33.650 32.868,29.108 32.866 C 28.146 32.866,26.726 32.693,26.040 32.492 C 25.744 32.406,25.708 32.435,23.879 34.266 C 22.855 35.291,22.057 36.152,22.104 36.181 C 22.254 36.274,24.750 36.624,26.095 36.742 C 27.759 36.887,32.027 36.802,33.543 36.594 C 40.643 35.619,46.758 32.952,52.169 28.472 C 53.457 27.405,55.697 25.168,56.579 24.068 C 58.434 21.754,58.449 20.014,56.635 17.732 C 55.300 16.052,52.861 13.728,50.795 12.168 C 49.714 11.351,48.091 10.247,47.973 10.247 C 47.931 10.247,47.251 10.893,46.463 11.682 M15.413 12.468 C 14.510 13.864,13.739 15.817,13.323 17.765 C 13.130 18.666,13.102 19.074,13.103 20.880 C 13.105 22.671,13.136 23.099,13.324 23.973 C 13.736 25.884,14.564 27.942,15.524 29.442 C 15.852 29.955,15.859 29.982,15.645 29.915 C 14.460 29.547,11.005 27.398,8.942 25.745 C 7.856 24.875,5.621 22.705,4.603 21.533 L 4.037 20.880 4.411 20.422 C 5.188 19.471,7.440 17.239,8.602 16.267 C 10.201 14.931,12.461 13.429,14.305 12.480 C 15.128 12.056,15.815 11.723,15.832 11.740 C 15.850 11.757,15.661 12.085,15.413 12.468 " fill="#2B2C30" stroke="none" fill-rule="evenodd"></path></svg>