<svg width="58" height="32" viewBox="0 0 58 32" fill="none" xmlns="http://www.w3.org/2000/svg"><path d="M26.403 0.107 C 18.998 0.639,12.105 3.398,6.187 8.197 C 4.848 9.283,1.957 12.198,1.135 13.292 C 0.281 14.427,0.065 14.981,0.055 16.052 C 0.049 16.817,0.075 16.932,0.406 17.602 C 0.850 18.501,1.628 19.425,3.620 21.419 C 7.425 25.228,11.596 27.918,16.558 29.761 C 26.180 33.335,37.167 32.541,46.158 27.623 C 47.672 26.795,50.065 25.194,51.501 24.049 C 52.896 22.937,55.862 20.012,56.626 18.995 C 57.617 17.676,57.945 16.664,57.786 15.418 C 57.628 14.182,56.838 13.050,54.472 10.673 C 52.279 8.469,50.373 6.939,47.898 5.396 C 41.542 1.431,33.952 -0.436,26.403 0.107 M30.227 4.067 C 34.351 4.527,37.891 6.978,39.726 10.645 C 42.425 16.035,40.680 22.604,35.658 25.965 C 31.624 28.664,26.390 28.669,22.358 25.977 C 17.323 22.614,15.572 16.042,18.274 10.645 C 20.077 7.043,23.656 4.529,27.632 4.073 C 28.696 3.951,29.180 3.950,30.227 4.067 M15.794 6.984 C 15.755 7.051,15.604 7.281,15.459 7.497 C 14.623 8.732,13.713 11.001,13.323 12.820 C 13.126 13.740,13.098 14.137,13.098 15.998 C 13.098 17.859,13.126 18.256,13.323 19.177 C 13.725 21.052,14.612 23.239,15.516 24.581 C 15.698 24.852,15.832 25.090,15.813 25.110 C 15.754 25.168,13.527 24.024,12.555 23.436 C 9.775 21.754,7.164 19.554,4.791 16.893 L 4.037 16.047 4.280 15.729 C 4.775 15.079,6.484 13.267,7.312 12.512 C 9.668 10.366,11.644 8.980,14.355 7.572 C 15.755 6.845,15.913 6.780,15.794 6.984 M43.392 7.438 C 46.343 8.917,49.015 10.845,51.412 13.226 C 52.653 14.459,53.843 15.816,53.843 15.998 C 53.843 16.181,52.653 17.538,51.412 18.770 C 49.606 20.564,47.600 22.133,45.445 23.436 C 44.482 24.018,42.246 25.168,42.189 25.111 C 42.170 25.092,42.286 24.883,42.446 24.646 C 42.954 23.896,43.791 22.150,44.134 21.124 C 44.789 19.166,44.892 18.475,44.892 15.998 C 44.892 13.522,44.789 12.831,44.134 10.872 C 43.794 9.857,43.003 8.181,42.537 7.492 C 42.183 6.967,42.126 6.863,42.191 6.863 C 42.221 6.863,42.762 7.122,43.392 7.438 M27.562 8.126 C 24.340 8.701,21.694 11.377,21.126 14.634 C 20.938 15.714,20.938 16.283,21.126 17.363 C 21.577 19.948,23.276 22.154,25.666 23.258 C 28.145 24.403,31.270 24.151,33.486 22.626 C 34.738 21.765,35.868 20.352,36.434 18.937 C 36.754 18.138,37.023 16.794,37.023 15.998 C 37.023 15.720,36.957 15.109,36.875 14.641 C 36.346 11.605,34.053 9.086,31.075 8.268 C 30.383 8.079,28.300 7.994,27.562 8.126 " fill="#2B2C30" stroke="none" fill-rule="evenodd"></path></svg>