<svg width="40" height="48" viewBox="0 0 40 48" fill="none" xmlns="http://www.w3.org/2000/svg"><path d="M8.039 1.083 C 7.846 5.638,7.048 9.047,5.186 13.267 C 4.967 13.762,4.135 15.502,3.336 17.133 C 1.716 20.442,1.411 21.138,0.893 22.706 C 0.221 24.742,-0.045 26.564,0.021 28.667 C 0.118 31.725,0.760 34.309,2.103 37.042 C 6.065 45.109,15.127 49.426,24.186 47.562 C 28.086 46.759,31.743 44.739,34.488 41.871 C 37.437 38.789,39.249 34.990,39.838 30.653 C 39.985 29.570,40.034 27.536,39.938 26.533 C 39.688 23.938,38.943 21.818,37.269 18.933 C 35.288 15.520,34.908 14.797,34.311 13.300 C 33.453 11.150,32.998 8.904,32.891 6.300 L 32.846 5.209 32.473 5.346 C 29.832 6.308,27.663 8.200,25.721 11.234 C 25.453 11.653,25.214 11.989,25.190 11.981 C 25.166 11.973,24.833 11.547,24.448 11.033 C 20.628 5.927,14.943 1.554,10.587 0.370 C 9.970 0.203,8.736 0.004,8.293 0.001 L 8.085 0.000 8.039 1.083 M12.425 5.479 C 15.465 7.207,19.090 10.477,21.279 13.467 C 21.481 13.742,22.463 15.193,23.461 16.691 L 25.277 19.415 25.428 19.191 C 25.511 19.068,26.218 17.947,27.000 16.700 C 27.781 15.453,28.720 13.973,29.087 13.411 L 29.755 12.389 30.131 13.511 C 30.809 15.531,31.512 16.998,33.162 19.833 C 35.508 23.864,35.949 25.159,35.958 28.033 C 35.962 29.515,35.899 30.171,35.622 31.500 C 35.123 33.889,33.907 36.401,32.344 38.270 C 29.978 41.097,26.815 42.960,23.133 43.695 C 20.878 44.145,18.371 44.085,16.081 43.527 C 10.236 42.102,5.821 37.666,4.445 31.833 C 4.155 30.601,4.045 29.618,4.039 28.200 C 4.027 25.256,4.542 23.647,7.178 18.378 C 7.636 17.461,8.208 16.288,8.447 15.772 C 10.014 12.388,11.087 9.059,11.563 6.100 C 11.697 5.264,11.726 5.133,11.777 5.133 C 11.799 5.133,12.091 5.289,12.425 5.479 " fill="#2B2C30" stroke="none" fill-rule="evenodd"></path></svg>