<svg width="56" height="48" viewBox="0 0 56 48" fill="none" xmlns="http://www.w3.org/2000/svg"><path d="M3.010 0.144 C 1.598 0.524,0.504 1.617,0.130 3.019 C -0.058 3.725,-0.061 44.237,0.127 44.940 C 0.308 45.619,0.613 46.164,1.102 46.688 C 1.616 47.237,2.139 47.559,2.905 47.797 C 3.452 47.968,4.236 47.973,28.000 47.973 C 51.764 47.973,52.548 47.968,53.095 47.797 C 53.861 47.559,54.384 47.237,54.898 46.688 C 55.386 46.166,55.632 45.728,55.850 44.993 C 55.986 44.534,56.000 42.560,56.000 23.978 C 56.000 4.153,55.994 3.451,55.824 2.905 C 55.586 2.139,55.264 1.616,54.714 1.102 C 54.174 0.596,53.690 0.332,52.950 0.140 C 52.164 -0.065,3.770 -0.061,3.010 0.144 M51.987 23.987 L 51.987 43.960 28.000 43.960 L 4.013 43.960 4.013 23.987 L 4.013 4.013 28.000 4.013 L 51.987 4.013 51.987 23.987 M8.027 14.000 L 8.027 19.973 9.986 19.973 L 11.945 19.973 11.969 15.983 L 11.993 11.993 15.983 11.969 L 19.973 11.945 19.973 9.986 L 19.973 8.027 14.000 8.027 L 8.027 8.027 8.027 14.000 M36.027 9.986 L 36.027 11.945 40.017 11.969 L 44.007 11.993 44.031 15.983 L 44.055 19.973 46.014 19.973 L 47.973 19.973 47.973 14.000 L 47.973 8.027 42.000 8.027 L 36.027 8.027 36.027 9.986 M8.027 33.973 L 8.027 39.947 14.000 39.947 L 19.973 39.947 19.973 37.988 L 19.973 36.029 15.983 36.004 L 11.993 35.980 11.969 31.990 L 11.945 28.000 9.986 28.000 L 8.027 28.000 8.027 33.973 M44.031 31.990 L 44.007 35.980 40.017 36.004 L 36.027 36.029 36.027 37.988 L 36.027 39.947 42.000 39.947 L 47.973 39.947 47.973 33.973 L 47.973 28.000 46.014 28.000 L 44.055 28.000 44.031 31.990 " fill="#2B2C30" stroke="none" fill-rule="evenodd"></path></svg>