<svg width="56" height="40" viewBox="0 0 56 40" fill="none" xmlns="http://www.w3.org/2000/svg"><path d="M31.991 8.003 L 31.967 16.007 29.983 16.032 L 28.000 16.057 28.000 14.049 L 28.000 12.040 19.973 12.040 L 11.947 12.040 11.947 18.060 L 11.947 24.080 5.973 24.080 L 0.000 24.080 0.000 32.013 L 0.000 39.947 28.000 39.947 L 56.000 39.947 56.000 32.015 L 56.000 24.084 54.017 24.059 L 52.033 24.033 52.009 18.037 L 51.985 12.040 49.979 12.040 L 47.973 12.040 47.973 6.020 L 47.973 0.000 39.994 0.000 L 32.014 0.000 31.991 8.003 M12.040 6.020 L 12.040 8.027 16.007 8.027 L 19.973 8.027 19.973 6.020 L 19.973 4.013 16.007 4.013 L 12.040 4.013 12.040 6.020 M43.983 10.010 L 44.007 16.007 45.990 16.032 L 47.973 16.057 47.973 22.029 L 47.973 28.000 49.980 28.000 L 51.987 28.000 51.987 32.013 L 51.987 36.027 28.000 36.027 L 4.013 36.027 4.013 32.013 L 4.013 28.000 10.033 28.000 L 16.053 28.000 16.053 22.027 L 16.053 16.053 20.018 16.053 L 23.983 16.053 24.008 18.037 L 24.033 20.020 30.007 20.020 L 35.980 20.020 36.004 12.017 L 36.028 4.013 39.993 4.013 L 43.959 4.013 43.983 10.010 M0.000 18.013 L 0.000 19.973 4.013 19.973 L 8.027 19.973 8.027 18.013 L 8.027 16.053 4.013 16.053 L 0.000 16.053 0.000 18.013 " fill="#2B2C30" stroke="none" fill-rule="evenodd"></path></svg>