<svg width="60" height="56" viewBox="0 0 60 56" fill="none" xmlns="http://www.w3.org/2000/svg"><path d="M3.062 0.110 C 1.659 0.443,0.434 1.690,0.104 3.121 C 0.040 3.396,0.004 10.892,0.002 24.064 C 0.000 44.245,0.003 44.589,0.198 45.214 C 0.567 46.396,1.604 47.433,2.786 47.802 C 3.405 47.995,3.737 48.000,16.217 48.000 C 28.358 48.000,29.011 47.991,28.961 47.825 C 28.627 46.716,28.404 45.819,28.307 45.200 C 28.243 44.788,28.170 44.349,28.144 44.225 L 28.096 44.000 16.048 44.000 L 4.000 44.000 4.000 24.000 L 4.000 4.000 13.440 4.000 L 22.879 4.000 25.315 8.000 L 27.750 12.000 39.875 12.000 L 52.000 12.000 52.000 18.508 L 52.000 25.016 52.425 25.180 C 52.987 25.397,55.038 26.424,55.575 26.757 L 56.000 27.020 56.000 19.228 C 56.000 10.657,56.014 10.873,55.384 9.880 C 54.970 9.229,54.391 8.733,53.612 8.364 L 52.950 8.050 41.467 8.000 L 29.984 7.950 27.756 4.300 C 25.906 1.269,25.457 0.599,25.106 0.350 L 24.683 0.050 14.066 0.034 C 7.887 0.025,3.288 0.057,3.062 0.110 M44.550 28.103 C 39.759 28.643,35.666 31.492,33.503 35.794 C 32.530 37.730,32.069 39.718,32.066 42.000 C 32.063 43.649,32.233 44.774,32.711 46.272 C 34.166 50.840,37.935 54.387,42.562 55.542 C 47.474 56.768,52.350 55.406,55.901 51.814 C 57.953 49.739,59.116 47.592,59.715 44.769 C 59.997 43.438,60.026 40.902,59.775 39.544 C 59.242 36.674,57.954 34.240,55.857 32.144 C 54.174 30.462,52.458 29.407,50.276 28.712 C 48.489 28.142,46.282 27.908,44.550 28.103 M47.660 32.340 L 48.000 32.680 48.000 36.340 L 48.000 40.000 51.660 40.000 L 55.320 40.000 55.668 40.348 L 56.015 40.695 55.983 42.107 C 55.950 43.512,55.949 43.519,55.669 43.759 L 55.389 44.000 51.698 44.000 L 48.007 44.000 47.978 47.759 L 47.950 51.517 47.669 51.759 C 47.402 51.989,47.325 52.000,45.987 52.000 L 44.585 52.000 44.292 51.708 L 44.000 51.415 44.000 47.708 L 44.000 44.000 40.292 44.000 L 36.585 44.000 36.292 43.708 L 36.000 43.415 36.000 42.048 L 36.000 40.680 36.340 40.340 L 36.680 40.000 40.340 40.000 L 44.000 40.000 44.000 36.340 L 44.000 32.680 44.340 32.340 L 44.680 32.000 46.000 32.000 L 47.320 32.000 47.660 32.340 " fill="#2B2C30" stroke="none" fill-rule="evenodd"></path></svg>