<svg width="56" height="48" viewBox="0 0 56 48" fill="none" xmlns="http://www.w3.org/2000/svg"><path d="M3.010 0.144 C 1.598 0.524,0.504 1.617,0.130 3.019 C -0.061 3.736,-0.061 44.238,0.130 44.954 C 0.503 46.354,1.623 47.470,3.033 47.846 C 3.737 48.034,52.274 48.031,52.981 47.843 C 54.007 47.570,55.066 46.743,55.514 45.864 C 56.032 44.850,56.005 45.908,55.978 27.762 L 55.953 11.060 55.737 10.551 C 55.252 9.408,54.335 8.556,53.219 8.212 C 52.636 8.031,52.323 8.027,41.214 8.027 L 29.807 8.027 27.881 4.690 C 25.361 0.326,25.506 0.543,24.912 0.247 L 24.417 0.000 13.958 0.006 C 5.254 0.011,3.418 0.034,3.010 0.144 M24.905 7.587 C 26.040 9.552,27.085 11.269,27.227 11.403 C 27.370 11.536,27.634 11.724,27.813 11.819 C 28.126 11.986,28.635 11.994,40.063 12.018 L 51.987 12.043 51.987 28.002 L 51.987 43.960 28.000 43.960 L 4.013 43.960 4.013 23.987 L 4.013 4.013 13.427 4.013 L 22.842 4.013 24.905 7.587 " fill="#2B2C30" stroke="none" fill-rule="evenodd"></path></svg>