<svg width="32" height="36" viewBox="0 0 32 36" fill="none" xmlns="http://www.w3.org/2000/svg"><path d="M20.613 0.101 C 20.342 0.227,20.119 0.463,20.052 0.697 C 20.020 0.808,20.000 2.273,20.000 4.439 L 20.000 7.998 11.640 8.014 C 3.916 8.028,3.257 8.037,2.980 8.121 C 1.445 8.591,0.393 9.717,0.082 11.225 C 0.010 11.575,0.000 13.003,0.000 23.371 C 0.000 30.896,0.019 35.188,0.053 35.309 C 0.119 35.545,0.454 35.878,0.696 35.947 C 0.797 35.976,1.384 36.000,2.000 36.000 C 2.616 36.000,3.203 35.976,3.304 35.947 C 3.546 35.878,3.881 35.545,3.947 35.309 C 3.981 35.188,4.000 30.961,4.000 23.560 L 4.000 12.000 12.000 12.000 L 20.000 12.000 20.000 15.610 C 20.000 19.179,20.001 19.222,20.113 19.453 C 20.281 19.800,20.573 19.974,20.983 19.971 C 21.173 19.969,21.373 19.933,21.467 19.883 C 21.637 19.792,31.001 11.369,31.554 10.808 C 32.035 10.321,32.117 9.922,31.823 9.486 C 31.639 9.212,21.661 0.218,21.413 0.102 C 21.143 -0.024,20.885 -0.025,20.613 0.101 " fill="#2B2C30" stroke="none" fill-rule="evenodd"></path></svg>