<svg width="48" height="44" viewBox="0 0 48 44" fill="none" xmlns="http://www.w3.org/2000/svg"><path d="M3.161 0.094 C 1.719 0.369,0.399 1.697,0.088 3.184 C -0.037 3.785,-0.037 40.215,0.088 40.816 C 0.401 42.315,1.685 43.599,3.184 43.912 C 3.785 44.037,44.215 44.037,44.816 43.912 C 46.315 43.599,47.599 42.315,47.912 40.816 C 48.037 40.215,48.037 3.785,47.912 3.184 C 47.594 1.659,46.277 0.363,44.765 0.087 C 44.149 -0.026,3.752 -0.019,3.161 0.094 M44.000 22.000 L 44.000 40.000 24.000 40.000 L 4.000 40.000 4.000 22.000 L 4.000 4.000 24.000 4.000 L 44.000 4.000 44.000 22.000 M8.504 8.157 C 8.061 8.427,8.000 8.650,8.000 10.000 C 8.000 11.350,8.061 11.573,8.504 11.843 C 8.729 11.980,8.911 11.999,10.000 11.999 C 11.089 11.999,11.271 11.980,11.496 11.843 C 11.940 11.572,12.000 11.352,12.000 9.984 C 11.999 8.911,11.980 8.728,11.843 8.504 C 11.572 8.060,11.352 8.000,9.984 8.000 C 8.911 8.001,8.728 8.020,8.504 8.157 M16.504 8.157 C 15.981 8.476,16.000 8.251,16.000 14.016 C 16.001 19.056,16.006 19.249,16.157 19.496 C 16.481 20.028,16.044 20.000,24.000 20.000 C 31.956 20.000,31.519 20.028,31.843 19.496 C 31.994 19.249,31.999 19.056,31.999 14.000 C 31.999 8.944,31.994 8.751,31.843 8.504 C 31.519 7.972,31.958 8.000,23.984 8.000 C 16.960 8.001,16.753 8.005,16.504 8.157 M36.504 8.157 C 36.061 8.427,36.000 8.650,36.000 10.000 C 36.000 11.350,36.061 11.573,36.504 11.843 C 36.729 11.980,36.911 11.999,38.000 11.999 C 39.089 11.999,39.271 11.980,39.496 11.843 C 39.940 11.572,40.000 11.352,40.000 9.984 C 39.999 8.911,39.980 8.728,39.843 8.504 C 39.572 8.060,39.352 8.000,37.984 8.000 C 36.911 8.001,36.728 8.020,36.504 8.157 M28.000 14.000 L 28.000 16.000 24.000 16.000 L 20.000 16.000 20.000 14.000 L 20.000 12.000 24.000 12.000 L 28.000 12.000 28.000 14.000 M8.504 16.157 C 8.061 16.427,8.000 16.650,8.000 18.000 C 8.000 19.350,8.061 19.573,8.504 19.843 C 8.729 19.980,8.911 19.999,10.000 19.999 C 11.089 19.999,11.271 19.980,11.496 19.843 C 11.940 19.572,12.000 19.352,12.000 17.984 C 11.999 16.911,11.980 16.728,11.843 16.504 C 11.572 16.060,11.352 16.000,9.984 16.000 C 8.911 16.001,8.728 16.020,8.504 16.157 M36.504 16.157 C 36.061 16.427,36.000 16.650,36.000 18.000 C 36.000 19.350,36.061 19.573,36.504 19.843 C 36.729 19.980,36.911 19.999,38.000 19.999 C 39.089 19.999,39.271 19.980,39.496 19.843 C 39.940 19.572,40.000 19.352,40.000 17.984 C 39.999 16.911,39.980 16.728,39.843 16.504 C 39.572 16.060,39.352 16.000,37.984 16.000 C 36.911 16.001,36.728 16.020,36.504 16.157 M8.504 24.157 C 8.061 24.427,8.000 24.650,8.000 26.000 C 8.000 27.350,8.061 27.573,8.504 27.843 C 8.729 27.980,8.911 27.999,10.000 27.999 C 11.089 27.999,11.271 27.980,11.496 27.843 C 11.940 27.572,12.000 27.352,12.000 25.984 C 11.999 24.911,11.980 24.728,11.843 24.504 C 11.572 24.060,11.352 24.000,9.984 24.000 C 8.911 24.001,8.728 24.020,8.504 24.157 M16.504 24.157 C 15.981 24.476,16.000 24.251,16.000 30.016 C 16.001 35.056,16.006 35.249,16.157 35.496 C 16.481 36.028,16.044 36.000,24.000 36.000 C 31.956 36.000,31.519 36.028,31.843 35.496 C 31.994 35.249,31.999 35.056,31.999 30.000 C 31.999 24.944,31.994 24.751,31.843 24.504 C 31.519 23.972,31.958 24.000,23.984 24.000 C 16.960 24.001,16.753 24.005,16.504 24.157 M36.504 24.157 C 36.061 24.427,36.000 24.650,36.000 26.000 C 36.000 27.350,36.061 27.573,36.504 27.843 C 36.729 27.980,36.911 27.999,38.000 27.999 C 39.089 27.999,39.271 27.980,39.496 27.843 C 39.940 27.572,40.000 27.352,40.000 25.984 C 39.999 24.911,39.980 24.728,39.843 24.504 C 39.572 24.060,39.352 24.000,37.984 24.000 C 36.911 24.001,36.728 24.020,36.504 24.157 M28.000 30.000 L 28.000 32.000 24.000 32.000 L 20.000 32.000 20.000 30.000 L 20.000 28.000 24.000 28.000 L 28.000 28.000 28.000 30.000 M8.504 32.157 C 8.061 32.427,8.000 32.650,8.000 34.000 C 8.000 35.350,8.061 35.573,8.504 35.843 C 8.729 35.980,8.911 35.999,10.000 35.999 C 11.089 35.999,11.271 35.980,11.496 35.843 C 11.940 35.572,12.000 35.352,12.000 33.984 C 11.999 32.911,11.980 32.728,11.843 32.504 C 11.572 32.060,11.352 32.000,9.984 32.000 C 8.911 32.001,8.728 32.020,8.504 32.157 M36.504 32.157 C 36.061 32.427,36.000 32.650,36.000 34.000 C 36.000 35.350,36.061 35.573,36.504 35.843 C 36.729 35.980,36.911 35.999,38.000 35.999 C 39.089 35.999,39.271 35.980,39.496 35.843 C 39.940 35.572,40.000 35.352,40.000 33.984 C 39.999 32.911,39.980 32.728,39.843 32.504 C 39.572 32.060,39.352 32.000,37.984 32.000 C 36.911 32.001,36.728 32.020,36.504 32.157 " fill="#2B2C30" stroke="none" fill-rule="evenodd"></path></svg>