<svg width="52" height="44" viewBox="0 0 52 44" fill="none" xmlns="http://www.w3.org/2000/svg"><path d="M3.077 0.123 C 2.332 0.309,1.797 0.621,1.209 1.209 C 0.601 1.817,0.263 2.420,0.098 3.189 C -0.039 3.831,-0.042 32.031,0.095 32.691 C 0.321 33.773,1.122 34.874,2.055 35.382 C 2.941 35.863,3.129 35.880,7.732 35.880 L 11.960 35.880 11.960 33.887 L 11.960 31.893 7.973 31.893 L 3.987 31.893 3.987 17.940 L 3.987 3.987 17.983 3.987 L 31.980 3.987 31.980 3.745 C 31.980 3.355,31.733 2.517,31.482 2.055 C 30.974 1.122,29.873 0.321,28.791 0.095 C 28.091 -0.050,3.664 -0.024,3.077 0.123 M8.675 8.082 C 8.112 8.288,8.020 8.528,7.989 9.874 C 7.942 11.869,8.067 12.003,9.971 12.003 C 11.878 12.003,11.979 11.913,12.029 10.183 C 12.066 8.904,11.972 8.486,11.588 8.200 C 11.374 8.042,11.202 8.017,10.158 7.997 C 9.368 7.981,8.871 8.010,8.675 8.082 M19.427 8.065 C 18.053 8.247,16.784 9.278,16.231 10.664 C 16.089 11.018,16.073 11.583,16.033 17.550 L 15.990 24.050 12.278 24.093 L 8.566 24.137 8.313 24.420 L 8.060 24.703 8.060 25.997 C 8.060 27.388,8.115 27.632,8.485 27.884 C 8.690 28.023,9.041 28.039,12.372 28.062 L 16.033 28.087 16.034 34.345 C 16.035 39.369,16.059 40.691,16.154 41.050 C 16.444 42.139,17.240 43.106,18.260 43.608 L 18.846 43.897 33.841 43.921 L 48.837 43.945 49.357 43.757 C 50.628 43.299,51.514 42.303,51.872 40.929 C 51.982 40.504,52.000 38.467,52.000 26.080 C 52.000 16.826,51.969 11.558,51.913 11.257 C 51.657 9.883,50.667 8.747,49.263 8.212 L 48.750 8.017 34.363 8.005 C 26.451 7.998,19.729 8.026,19.427 8.065 M47.992 26.022 L 48.014 40.040 34.017 40.040 L 20.020 40.040 20.020 34.060 L 20.020 28.080 22.013 28.080 L 24.007 28.080 24.007 31.681 C 24.007 35.551,24.012 35.605,24.459 35.918 C 24.565 35.992,24.816 36.053,25.017 36.053 C 25.461 36.053,24.873 36.553,30.905 31.051 C 33.529 28.657,35.722 26.598,35.778 26.475 C 35.933 26.135,35.901 25.794,35.685 25.496 C 35.522 25.272,27.140 17.493,25.791 16.315 C 25.440 16.009,25.308 15.947,25.010 15.947 C 24.813 15.947,24.565 16.008,24.459 16.082 C 24.012 16.395,24.007 16.442,24.007 20.406 L 24.007 24.093 22.013 24.093 L 20.020 24.093 20.020 18.026 L 20.020 11.959 33.995 11.981 L 47.970 12.003 47.992 26.022 M8.514 16.148 C 8.090 16.384,8.019 16.609,7.988 17.810 C 7.955 19.149,8.049 19.528,8.484 19.822 C 8.756 20.005,8.872 20.020,9.984 20.020 C 11.901 20.020,11.960 19.959,11.960 17.999 L 11.960 16.623 11.665 16.328 L 11.371 16.033 10.040 16.036 C 9.141 16.038,8.647 16.075,8.514 16.148 M40.335 16.328 L 40.040 16.623 40.040 17.999 C 40.040 19.959,40.099 20.020,42.016 20.020 C 43.128 20.020,43.244 20.005,43.516 19.822 C 43.955 19.526,44.047 19.149,44.008 17.810 C 43.958 16.099,43.882 16.033,41.946 16.033 L 40.629 16.033 40.335 16.328 M40.501 24.176 C 40.349 24.268,40.183 24.422,40.132 24.516 C 40.078 24.617,40.040 25.253,40.040 26.046 L 40.040 27.404 40.335 27.699 L 40.629 27.993 41.946 27.993 C 43.882 27.993,43.958 27.928,44.008 26.217 C 44.047 24.878,43.955 24.501,43.516 24.205 C 43.243 24.022,43.129 24.007,41.999 24.007 C 40.942 24.007,40.739 24.030,40.501 24.176 M40.418 32.220 C 40.082 32.493,40.040 32.702,40.040 34.091 L 40.040 35.433 40.300 35.694 C 40.620 36.013,41.121 36.093,42.435 36.035 C 43.843 35.972,44.014 35.760,44.021 34.060 C 44.027 32.874,43.936 32.484,43.599 32.244 C 43.373 32.083,43.222 32.067,41.977 32.069 C 40.806 32.070,40.576 32.093,40.418 32.220 " fill="#2B2C30" stroke="none" fill-rule="evenodd"></path></svg>