<svg width="51" height="51" viewBox="0 0 51 51" fill="none" xmlns="http://www.w3.org/2000/svg"><path d="M1.423 1.423 L 0.000 2.847 4.015 6.863 L 8.030 10.878 5.460 13.454 L 2.890 16.029 2.890 16.438 C 2.890 16.957,3.122 17.302,3.552 17.422 C 4.027 17.553,16.441 17.532,16.822 17.399 C 16.981 17.343,17.192 17.190,17.290 17.058 C 17.466 16.820,17.468 16.759,17.493 10.470 C 17.507 6.979,17.495 3.961,17.467 3.763 C 17.432 3.522,17.330 3.319,17.158 3.147 C 16.940 2.928,16.838 2.890,16.465 2.890 L 16.029 2.890 13.454 5.460 L 10.878 8.030 6.863 4.015 L 2.847 0.000 1.423 1.423 M44.137 4.016 L 40.122 8.031 37.546 5.460 L 34.971 2.890 34.535 2.890 C 34.165 2.890,34.060 2.928,33.848 3.140 C 33.711 3.277,33.574 3.512,33.544 3.661 C 33.514 3.809,33.492 6.767,33.495 10.232 C 33.498 14.884,33.526 16.608,33.601 16.822 C 33.657 16.981,33.810 17.192,33.942 17.290 C 34.180 17.466,34.241 17.468,40.530 17.493 C 44.021 17.507,47.039 17.495,47.237 17.467 C 47.478 17.432,47.681 17.330,47.853 17.158 C 48.072 16.940,48.110 16.838,48.110 16.465 L 48.110 16.029 45.540 13.454 L 42.970 10.878 46.985 6.862 L 51.001 2.846 49.576 1.424 L 48.151 0.001 44.137 4.016 M3.592 33.550 C 3.487 33.570,3.286 33.702,3.146 33.842 C 2.928 34.060,2.890 34.163,2.890 34.535 L 2.890 34.971 5.460 37.546 L 8.030 40.122 4.015 44.137 L 0.000 48.153 1.423 49.577 L 2.847 51.000 6.863 46.985 L 10.878 42.970 13.454 45.540 L 16.029 48.110 16.465 48.110 C 16.838 48.110,16.940 48.072,17.158 47.853 C 17.330 47.681,17.432 47.478,17.467 47.237 C 17.495 47.039,17.507 44.021,17.493 40.530 C 17.468 34.241,17.466 34.180,17.290 33.942 C 17.192 33.810,16.981 33.657,16.822 33.601 C 16.607 33.526,14.894 33.501,10.158 33.506 C 6.651 33.510,3.697 33.530,3.592 33.550 M34.178 33.600 C 34.019 33.656,33.808 33.810,33.710 33.942 C 33.534 34.180,33.532 34.235,33.511 40.742 C 33.486 48.115,33.455 47.735,34.106 48.053 C 34.712 48.349,34.742 48.328,37.550 45.531 L 40.122 42.970 44.137 46.985 L 48.153 51.000 49.577 49.577 L 51.000 48.153 46.985 44.137 L 42.970 40.122 45.531 37.550 C 47.483 35.590,48.106 34.914,48.149 34.710 C 48.222 34.360,48.023 33.888,47.717 33.688 C 47.493 33.541,47.116 33.532,40.974 33.515 C 36.074 33.502,34.396 33.523,34.178 33.600 " fill="#2B2C30" stroke="none" fill-rule="evenodd"></path></svg>