<svg width="48" height="48" viewBox="0 0 48 48" fill="none" xmlns="http://www.w3.org/2000/svg"><path d="M0.504 0.157 C -0.031 0.483,-0.005 0.100,0.019 7.405 L 0.040 14.012 0.339 14.286 C 0.591 14.517,0.697 14.560,1.016 14.560 L 1.394 14.560 3.978 11.981 L 6.561 9.402 9.541 12.381 L 12.521 15.360 13.940 13.940 L 15.360 12.521 12.381 9.541 L 9.402 6.561 11.981 3.978 L 14.560 1.394 14.560 1.049 C 14.560 0.860,14.499 0.601,14.424 0.474 C 14.133 -0.018,14.404 -0.000,7.268 0.000 C 0.954 0.001,0.752 0.005,0.504 0.157 M34.033 0.078 C 33.698 0.213,33.440 0.625,33.440 1.023 L 33.440 1.394 36.019 3.978 L 38.598 6.561 35.619 9.541 L 32.640 12.521 34.060 13.940 L 35.479 15.360 38.459 12.381 L 41.439 9.402 44.022 11.981 L 46.606 14.560 46.984 14.560 C 47.303 14.560,47.409 14.517,47.661 14.286 L 47.960 14.012 47.981 7.405 C 48.005 0.100,48.031 0.483,47.496 0.157 C 47.247 0.005,47.050 0.001,40.720 0.005 C 37.134 0.008,34.125 0.040,34.033 0.078 M9.560 35.600 L 6.601 38.560 4.200 36.172 C 2.880 34.859,1.696 33.707,1.569 33.612 C 1.415 33.497,1.222 33.440,0.988 33.440 C 0.701 33.440,0.584 33.489,0.339 33.714 L 0.040 33.988 0.019 40.595 C -0.005 47.900,-0.031 47.516,0.504 47.844 C 0.754 47.997,0.925 48.000,7.386 47.980 L 14.012 47.960 14.286 47.661 C 14.512 47.415,14.560 47.300,14.560 47.008 C 14.560 46.529,14.408 46.351,11.688 43.640 L 9.440 41.401 12.400 38.440 L 15.360 35.479 13.940 34.060 L 12.519 32.640 9.560 35.600 M34.060 34.060 L 32.640 35.481 35.600 38.440 L 38.560 41.399 36.172 43.800 C 34.859 45.120,33.707 46.304,33.612 46.431 C 33.497 46.585,33.440 46.778,33.440 47.012 C 33.440 47.299,33.489 47.416,33.714 47.661 L 33.988 47.960 40.614 47.980 C 47.075 48.000,47.246 47.997,47.496 47.844 C 48.031 47.516,48.005 47.900,47.981 40.595 L 47.960 33.988 47.661 33.714 C 47.415 33.488,47.300 33.440,47.008 33.440 C 46.529 33.440,46.351 33.592,43.640 36.312 L 41.401 38.560 38.440 35.600 L 35.479 32.640 34.060 34.060 " fill="#2B2C30" stroke="none" fill-rule="evenodd"></path></svg>