<svg width="48" height="40" viewBox="0 0 48 40" fill="none" xmlns="http://www.w3.org/2000/svg"><path d="M13.000 0.056 C 12.824 0.072,12.393 0.142,12.043 0.211 C 10.099 0.597,8.387 1.518,6.953 2.953 C 6.071 3.835,5.500 4.645,4.953 5.793 C 4.266 7.235,4.002 8.617,4.001 10.780 L 4.000 12.000 2.380 12.000 C 0.044 12.001,-0.000 12.038,-0.000 14.000 C 0.000 15.350,0.061 15.573,0.504 15.843 C 0.736 15.985,0.914 15.999,2.380 16.000 L 4.000 16.000 4.000 27.620 C 4.001 39.004,4.004 39.245,4.157 39.496 C 4.427 39.939,4.650 40.000,6.000 40.000 C 7.350 40.000,7.573 39.939,7.843 39.496 C 7.996 39.245,7.999 39.004,8.000 27.620 L 8.000 16.000 11.620 16.000 C 15.069 15.999,15.252 15.992,15.496 15.843 C 15.940 15.572,16.000 15.352,16.000 13.984 C 15.999 12.911,15.980 12.728,15.843 12.504 C 15.532 11.994,15.583 12.000,11.595 12.000 L 7.983 12.000 8.022 10.460 C 8.066 8.725,8.142 8.341,8.645 7.320 C 9.370 5.847,10.862 4.622,12.440 4.202 C 13.353 3.959,14.911 3.962,15.552 4.208 C 15.632 4.239,15.973 3.737,16.713 2.506 L 17.760 0.760 17.460 0.633 C 16.340 0.159,14.495 -0.080,13.000 0.056 M32.009 18.996 L 36.012 26.000 32.009 33.004 L 28.007 40.008 29.917 39.984 C 31.798 39.960,31.831 39.957,32.028 39.772 C 32.138 39.668,33.518 37.320,35.094 34.554 C 36.670 31.788,37.978 29.525,38.000 29.525 C 38.022 29.525,39.330 31.788,40.906 34.554 C 42.482 37.320,43.862 39.668,43.972 39.772 C 44.169 39.957,44.202 39.960,46.083 39.984 L 47.993 40.008 43.991 33.004 L 39.988 26.000 43.991 18.996 L 47.993 11.992 46.083 12.016 C 44.202 12.040,44.169 12.043,43.972 12.228 C 43.862 12.332,42.482 14.680,40.906 17.446 C 39.330 20.212,38.022 22.475,38.000 22.475 C 37.978 22.475,36.670 20.212,35.094 17.446 C 33.518 14.680,32.138 12.332,32.028 12.228 C 31.831 12.043,31.798 12.040,29.917 12.016 L 28.007 11.992 32.009 18.996 " fill="#2B2C30" stroke="none" fill-rule="evenodd"></path></svg>