<svg width="56" height="48" viewBox="0 0 56 48" fill="none" xmlns="http://www.w3.org/2000/svg"><path d="M26.273 0.061 C 17.971 0.708,10.822 4.494,5.856 10.873 C 1.623 16.309,-0.452 23.294,0.100 30.245 C 0.582 36.322,2.748 41.517,6.743 46.178 C 7.630 47.212,7.773 47.320,8.248 47.320 C 8.586 47.320,8.686 47.249,9.579 46.370 C 10.935 45.036,10.942 44.923,9.754 43.540 C 6.825 40.131,4.946 35.991,4.227 31.360 C 3.995 29.864,3.995 26.059,4.227 24.603 C 5.274 18.051,8.534 12.614,13.753 8.715 C 16.335 6.785,19.417 5.361,22.689 4.586 C 24.753 4.097,28.124 3.882,30.289 4.101 C 33.119 4.387,36.154 5.242,38.478 6.407 L 39.109 6.723 40.298 5.683 C 40.952 5.111,41.685 4.512,41.928 4.351 C 42.171 4.191,42.371 4.035,42.372 4.005 C 42.373 3.974,41.977 3.730,41.494 3.462 C 38.775 1.956,35.346 0.796,32.247 0.334 C 30.374 0.054,27.838 -0.062,26.273 0.061 M45.016 8.333 C 44.493 8.611,25.077 25.487,24.731 25.965 C 24.108 26.824,23.885 27.944,24.126 28.999 C 24.729 31.637,27.765 32.818,29.988 31.279 C 30.422 30.979,47.375 11.528,47.670 10.992 C 48.074 10.258,47.900 9.270,47.259 8.662 C 46.665 8.098,45.719 7.959,45.016 8.333 M51.772 13.901 C 51.683 14.051,51.104 14.794,50.485 15.550 C 49.784 16.407,49.377 16.981,49.406 17.073 C 49.431 17.154,49.670 17.703,49.938 18.293 C 50.930 20.480,51.649 23.196,51.900 25.707 C 52.039 27.096,51.964 30.106,51.756 31.453 C 51.061 35.975,49.156 40.154,46.246 43.540 C 45.058 44.923,45.065 45.036,46.421 46.370 C 47.346 47.280,47.403 47.320,47.791 47.320 C 48.158 47.320,48.241 47.273,48.678 46.822 C 49.895 45.566,51.535 43.281,52.574 41.393 C 56.666 33.958,57.094 24.744,53.709 16.912 C 53.199 15.731,52.100 13.627,51.993 13.627 C 51.961 13.627,51.861 13.750,51.772 13.901 " fill="#2B2C30" stroke="none" fill-rule="evenodd"></path></svg>