<svg width="56" height="56" viewBox="0 0 56 56" fill="none" xmlns="http://www.w3.org/2000/svg"><path d="M26.227 0.055 C 25.067 0.157,23.923 0.304,22.890 0.483 L 21.747 0.681 21.747 4.850 L 21.747 9.019 21.257 9.176 C 20.987 9.262,20.368 9.515,19.880 9.739 L 18.993 10.147 16.050 7.217 L 13.106 4.287 12.130 4.957 C 9.336 6.873,6.873 9.336,4.957 12.130 L 4.287 13.106 7.217 16.050 L 10.147 18.993 9.739 19.880 C 9.515 20.368,9.262 20.987,9.176 21.257 L 9.019 21.747 4.850 21.747 L 0.681 21.747 0.484 22.890 C 0.123 24.971,0.055 25.786,0.055 28.000 C 0.055 30.214,0.123 31.029,0.484 33.110 L 0.681 34.253 4.850 34.253 L 9.019 34.253 9.176 34.743 C 9.262 35.013,9.515 35.632,9.739 36.120 L 10.147 37.007 7.217 39.950 L 4.287 42.894 4.957 43.870 C 6.873 46.664,9.336 49.127,12.130 51.043 L 13.106 51.713 16.050 48.783 L 18.993 45.853 19.880 46.261 C 20.368 46.485,20.987 46.738,21.256 46.824 L 21.745 46.980 21.769 51.140 L 21.793 55.300 22.587 55.459 C 24.442 55.832,25.672 55.941,28.000 55.941 C 30.328 55.941,31.558 55.832,33.413 55.459 L 34.207 55.300 34.231 51.140 L 34.255 46.980 34.744 46.824 C 35.013 46.738,35.632 46.485,36.120 46.261 L 37.007 45.853 39.950 48.783 L 42.894 51.713 43.870 51.043 C 46.664 49.127,49.127 46.664,51.043 43.870 L 51.713 42.894 48.783 39.950 L 45.853 37.007 46.261 36.120 C 46.485 35.632,46.738 35.013,46.824 34.744 L 46.980 34.255 51.140 34.231 L 55.300 34.207 55.459 33.413 C 55.832 31.558,55.941 30.328,55.941 28.000 C 55.941 25.672,55.832 24.442,55.459 22.587 L 55.300 21.793 51.140 21.769 L 46.980 21.745 46.824 21.256 C 46.738 20.987,46.485 20.368,46.261 19.880 L 45.853 18.993 48.783 16.050 L 51.713 13.106 51.043 12.130 C 49.127 9.336,46.664 6.873,43.870 4.957 L 42.894 4.287 39.950 7.217 L 37.007 10.147 36.120 9.739 C 35.632 9.515,35.013 9.262,34.743 9.176 L 34.253 9.019 34.253 4.850 L 34.253 0.680 33.063 0.477 C 32.409 0.366,31.558 0.234,31.173 0.184 C 30.418 0.086,26.914 -0.005,26.227 0.055 M29.889 4.073 L 30.238 4.131 30.262 8.004 L 30.287 11.878 32.247 12.543 C 33.746 13.053,34.625 13.421,35.988 14.111 L 37.768 15.013 40.514 12.266 C 42.023 10.756,43.293 9.520,43.336 9.520 C 43.436 9.520,46.480 12.564,46.480 12.664 C 46.480 12.707,45.244 13.977,43.734 15.486 L 40.987 18.232 41.889 20.012 C 42.579 21.375,42.947 22.254,43.457 23.753 L 44.122 25.713 47.996 25.738 L 51.869 25.762 51.927 26.111 C 51.959 26.303,51.985 27.153,51.985 28.000 C 51.985 28.847,51.959 29.697,51.927 29.889 L 51.869 30.238 47.996 30.262 L 44.122 30.287 43.457 32.247 C 42.947 33.746,42.579 34.625,41.889 35.988 L 40.987 37.768 43.734 40.514 C 45.244 42.023,46.480 43.293,46.480 43.336 C 46.480 43.436,43.436 46.480,43.336 46.480 C 43.293 46.480,42.023 45.244,40.514 43.734 L 37.768 40.987 35.988 41.889 C 34.625 42.579,33.746 42.947,32.247 43.457 L 30.287 44.122 30.262 47.996 L 30.238 51.869 29.889 51.927 C 29.697 51.959,28.847 51.985,28.000 51.985 C 27.153 51.985,26.303 51.959,26.111 51.927 L 25.762 51.869 25.738 47.996 L 25.713 44.122 23.753 43.457 C 22.254 42.947,21.375 42.579,20.012 41.889 L 18.232 40.987 15.486 43.734 C 13.977 45.244,12.707 46.480,12.664 46.480 C 12.564 46.480,9.520 43.436,9.520 43.336 C 9.520 43.293,10.756 42.023,12.266 40.514 L 15.013 37.768 14.111 35.988 C 13.421 34.625,13.053 33.746,12.543 32.247 L 11.878 30.287 8.004 30.262 L 4.131 30.238 4.073 29.889 C 3.998 29.436,3.998 26.564,4.073 26.111 L 4.131 25.762 8.004 25.738 L 11.878 25.713 12.543 23.753 C 13.053 22.249,13.417 21.379,14.110 20.012 L 15.012 18.231 12.266 15.486 C 10.756 13.976,9.520 12.707,9.520 12.664 C 9.520 12.564,12.564 9.520,12.664 9.520 C 12.707 9.520,13.976 10.756,15.486 12.266 L 18.231 15.012 20.012 14.110 C 21.379 13.417,22.249 13.053,23.753 12.543 L 25.713 11.878 25.738 7.998 L 25.762 4.119 26.018 4.080 C 26.438 4.016,29.512 4.011,29.889 4.073 M25.816 16.203 C 24.303 16.476,22.613 17.181,21.187 18.133 C 20.268 18.746,18.643 20.388,18.026 21.327 C 16.665 23.396,16.016 25.575,16.023 28.047 C 16.037 33.151,19.195 37.583,24.058 39.327 C 26.546 40.219,29.509 40.206,32.037 39.291 C 33.812 38.648,35.039 37.858,36.449 36.449 C 38.822 34.075,39.975 31.313,39.975 28.000 C 39.975 25.522,39.320 23.362,37.936 21.275 C 37.335 20.370,35.701 18.726,34.813 18.133 C 33.349 17.155,31.691 16.473,30.111 16.198 C 29.076 16.017,26.830 16.020,25.816 16.203 M29.802 20.223 C 32.298 20.776,34.431 22.598,35.414 25.017 C 36.150 26.829,36.150 29.171,35.414 30.983 C 34.421 33.428,32.489 35.079,29.773 35.805 C 28.859 36.049,27.064 36.027,26.059 35.760 C 23.069 34.964,20.905 32.745,20.204 29.755 C 19.991 28.845,19.991 27.155,20.204 26.245 C 21.003 22.835,23.817 20.372,27.300 20.033 C 27.885 19.977,29.105 20.069,29.802 20.223 " fill="#2B2C30" stroke="none" fill-rule="evenodd"></path></svg>