<svg width="56" height="56" viewBox="0 0 56 56" fill="none" xmlns="http://www.w3.org/2000/svg"><path d="M20.487 0.062 C 19.016 0.181,17.520 0.427,16.346 0.743 L 15.963 0.846 15.938 2.952 L 15.913 5.058 15.125 5.375 C 14.692 5.550,14.293 5.693,14.240 5.693 C 14.186 5.693,13.489 5.041,12.690 4.244 L 11.238 2.794 10.403 3.318 C 7.770 4.967,5.358 7.304,3.665 9.847 C 3.357 10.309,3.039 10.816,2.959 10.974 L 2.812 11.261 4.253 12.699 C 5.045 13.490,5.693 14.182,5.693 14.237 C 5.693 14.377,5.076 15.868,4.977 15.967 C 4.931 16.013,3.972 16.061,2.844 16.075 L 0.793 16.100 0.590 16.931 C 0.174 18.630,0.050 19.804,0.050 22.027 C 0.051 24.244,0.161 25.274,0.589 27.074 L 0.798 27.953 2.911 27.978 L 5.023 28.003 5.274 28.632 C 5.412 28.977,5.572 29.376,5.630 29.518 C 5.732 29.769,5.695 29.816,4.253 31.260 L 2.771 32.744 3.205 33.442 C 4.714 35.862,6.541 37.877,8.746 39.553 C 9.591 40.196,11.088 41.160,11.241 41.160 C 11.294 41.160,11.990 40.509,12.786 39.714 L 14.234 38.268 15.097 38.614 L 15.960 38.961 15.960 41.043 L 15.960 43.125 16.190 43.212 C 16.818 43.451,20.214 44.031,20.326 43.918 C 20.348 43.896,20.296 43.403,20.210 42.822 C 20.104 42.110,20.035 40.850,19.999 38.951 L 19.945 36.135 19.423 35.947 C 19.135 35.844,18.354 35.563,17.687 35.323 C 17.019 35.082,15.782 34.553,14.937 34.147 L 13.401 33.408 12.075 34.732 L 10.749 36.055 10.215 35.599 C 9.922 35.348,9.286 34.724,8.804 34.212 L 7.927 33.282 9.237 31.970 C 9.957 31.248,10.547 30.625,10.547 30.584 C 10.547 30.544,10.204 29.789,9.786 28.906 C 9.368 28.023,8.764 26.565,8.445 25.667 L 7.864 24.033 5.998 24.008 L 4.132 23.983 4.074 23.495 C 3.997 22.860,3.997 21.276,4.073 20.549 L 4.133 19.977 6.002 19.952 L 7.872 19.927 8.496 18.200 C 8.839 17.250,9.449 15.789,9.850 14.952 L 10.581 13.430 9.254 12.100 L 7.927 10.771 8.588 10.011 C 8.952 9.592,9.592 8.952,10.011 8.588 L 10.771 7.927 12.100 9.254 L 13.430 10.581 14.952 9.850 C 15.789 9.449,17.250 8.839,18.200 8.496 L 19.927 7.872 19.952 6.002 L 19.977 4.133 20.549 4.073 C 21.276 3.997,22.860 3.997,23.495 4.074 L 23.983 4.132 24.008 5.998 L 24.033 7.864 25.667 8.445 C 26.565 8.764,28.023 9.368,28.906 9.786 C 29.789 10.204,30.544 10.547,30.584 10.547 C 30.625 10.547,31.248 9.957,31.970 9.237 L 33.282 7.927 34.212 8.804 C 34.724 9.286,35.348 9.922,35.599 10.215 L 36.055 10.749 34.731 12.076 L 33.407 13.402 34.074 14.798 C 34.779 16.272,35.215 17.333,35.784 18.955 L 36.130 19.944 39.042 20.007 C 40.836 20.045,42.276 20.121,42.793 20.204 C 44.048 20.407,43.976 20.429,43.909 19.857 C 43.809 18.993,43.585 17.710,43.389 16.872 L 43.199 16.057 41.093 16.032 L 38.987 16.007 38.626 15.122 L 38.265 14.237 39.713 12.787 C 40.509 11.990,41.160 11.294,41.160 11.241 C 41.160 11.089,40.196 9.592,39.562 8.758 C 37.885 6.555,35.985 4.820,33.628 3.339 L 32.737 2.779 31.232 4.268 L 29.727 5.756 28.863 5.382 L 28.000 5.008 28.000 2.927 L 28.000 0.845 27.510 0.706 C 25.641 0.177,22.557 -0.106,20.487 0.062 M20.843 14.094 C 17.123 14.638,14.277 17.755,14.036 21.548 C 13.750 26.039,17.405 29.960,21.877 29.960 L 22.668 29.960 23.198 29.143 C 24.640 26.922,26.839 24.713,29.050 23.263 L 29.960 22.666 29.960 21.876 C 29.960 17.132,25.587 13.400,20.843 14.094 M23.734 18.415 C 26.218 19.642,26.762 22.865,24.813 24.813 C 22.867 26.759,19.642 26.218,18.417 23.739 C 18.124 23.146,18.066 22.926,18.032 22.262 C 17.933 20.391,19.027 18.769,20.776 18.194 C 21.196 18.056,21.529 18.019,22.179 18.040 C 22.946 18.065,23.103 18.103,23.734 18.415 M38.574 24.080 C 38.153 24.117,37.408 24.223,36.918 24.315 L 36.027 24.483 36.027 25.996 L 36.027 27.510 35.257 27.814 C 34.833 27.981,34.382 28.173,34.253 28.240 C 34.028 28.358,33.982 28.324,32.942 27.291 L 31.865 26.221 31.059 26.760 C 29.365 27.894,27.894 29.365,26.760 31.059 L 26.221 31.865 27.295 32.942 C 28.132 33.783,28.348 34.051,28.278 34.160 C 28.228 34.237,28.036 34.689,27.851 35.163 L 27.514 36.027 26.000 36.027 L 24.485 36.027 24.326 36.855 C 23.932 38.903,23.932 41.118,24.327 43.143 L 24.486 43.960 25.994 43.960 L 27.502 43.960 27.845 44.823 C 28.034 45.298,28.229 45.750,28.279 45.827 C 28.348 45.936,28.130 46.206,27.291 47.048 L 26.214 48.129 26.775 48.961 C 27.930 50.674,29.251 51.998,31.020 53.215 L 31.847 53.784 32.933 52.705 L 34.020 51.625 34.347 51.801 C 34.526 51.898,34.978 52.090,35.350 52.228 L 36.027 52.478 36.027 53.993 L 36.027 55.508 36.797 55.660 C 39.079 56.109,41.288 56.082,43.657 55.575 L 43.960 55.510 43.960 53.994 L 43.960 52.478 44.637 52.228 C 45.009 52.090,45.460 51.898,45.640 51.801 L 45.967 51.625 47.051 52.702 L 48.135 53.779 48.544 53.515 C 50.488 52.261,52.101 50.673,53.355 48.778 L 53.780 48.136 52.703 47.051 L 51.625 45.967 51.801 45.640 C 51.898 45.460,52.090 45.009,52.228 44.637 L 52.478 43.960 53.994 43.960 L 55.510 43.960 55.575 43.657 C 56.082 41.288,56.109 39.079,55.660 36.797 L 55.508 36.027 53.993 36.027 L 52.478 36.027 52.228 35.350 C 52.090 34.978,51.898 34.526,51.801 34.347 L 51.625 34.020 52.705 32.933 L 53.784 31.847 53.215 31.020 C 51.998 29.251,50.674 27.930,48.961 26.775 L 48.129 26.214 47.048 27.291 C 46.206 28.130,45.936 28.348,45.827 28.279 C 45.750 28.229,45.298 28.034,44.823 27.845 L 43.960 27.502 43.960 25.993 L 43.960 24.485 43.137 24.327 C 41.568 24.025,40.111 23.946,38.574 24.080 M41.113 30.063 C 42.713 30.259,44.369 30.872,45.659 31.745 C 46.416 32.257,47.732 33.574,48.247 34.335 C 49.570 36.290,50.206 38.789,49.947 41.014 C 49.793 42.337,49.545 43.179,48.954 44.380 C 48.365 45.578,47.768 46.397,46.864 47.251 C 44.306 49.664,40.676 50.575,37.333 49.644 C 36.463 49.402,35.121 48.777,34.335 48.250 C 33.585 47.747,32.267 46.428,31.746 45.659 C 30.450 43.748,29.801 41.223,30.047 39.041 C 30.518 34.851,33.317 31.505,37.287 30.384 C 38.693 29.987,39.760 29.898,41.113 30.063 M38.776 36.216 C 35.317 37.313,35.084 42.095,38.413 43.654 C 38.914 43.888,39.066 43.913,39.998 43.913 C 41.001 43.913,41.049 43.904,41.733 43.566 C 42.594 43.140,43.203 42.520,43.616 41.648 C 43.894 41.060,43.913 40.954,43.913 39.993 C 43.913 39.066,43.888 38.913,43.654 38.413 C 42.769 36.524,40.719 35.600,38.776 36.216 " fill="#2B2C30" stroke="none" fill-rule="evenodd"></path></svg>