<svg width="61" height="61" viewBox="0 0 61 61" fill="none" xmlns="http://www.w3.org/2000/svg"><path d="M26.586 0.060 C 24.140 0.302,22.640 0.563,20.812 1.064 C 17.376 2.005,13.879 3.771,10.889 6.074 C 9.580 7.082,6.790 9.927,5.777 11.285 C 1.992 16.362,-0.003 22.277,0.001 28.416 C 0.005 34.684,1.972 40.552,5.779 45.648 C 6.929 47.189,9.743 50.003,11.294 51.163 C 18.952 56.893,28.661 58.447,37.697 55.387 C 38.443 55.135,38.629 55.034,38.581 54.907 C 37.417 51.797,37.182 51.266,36.992 51.316 C 36.816 51.362,36.808 51.341,36.913 51.110 C 37.016 50.884,36.912 50.544,36.036 48.247 L 35.042 45.640 34.189 47.398 C 33.377 49.072,31.773 51.884,31.287 52.488 C 31.062 52.768,31.042 52.772,29.585 52.833 C 28.774 52.867,27.573 52.861,26.915 52.820 L 25.718 52.745 25.247 52.018 C 22.113 47.185,19.913 41.501,18.915 35.661 C 18.681 34.296,18.402 31.762,18.402 31.011 L 18.402 30.500 28.457 30.500 L 38.512 30.500 38.474 30.881 C 38.454 31.091,38.417 31.543,38.393 31.887 L 38.350 32.511 38.974 32.633 C 39.318 32.700,40.188 32.979,40.907 33.253 C 41.627 33.527,42.250 33.729,42.292 33.703 C 42.334 33.677,42.398 33.232,42.435 32.713 C 42.471 32.195,42.528 31.485,42.561 31.135 L 42.622 30.500 47.694 30.500 C 52.303 30.500,52.765 30.515,52.765 30.665 C 52.765 31.586,52.117 34.645,51.593 36.203 L 51.262 37.186 53.005 37.854 C 53.963 38.221,54.819 38.548,54.907 38.581 C 55.034 38.629,55.135 38.443,55.387 37.697 C 57.859 30.399,57.324 22.489,53.900 15.693 C 52.202 12.325,49.647 9.105,46.716 6.641 C 45.173 5.344,42.881 3.857,41.031 2.952 C 38.033 1.486,35.463 0.709,32.076 0.244 C 31.001 0.096,27.428 -0.024,26.586 0.060 M31.136 4.224 C 31.546 4.381,34.016 8.838,35.077 11.336 C 36.997 15.852,38.131 20.681,38.463 25.747 L 38.508 26.433 28.455 26.433 L 18.402 26.433 18.402 25.819 C 18.402 24.969,18.671 22.603,18.966 20.856 C 19.831 15.738,21.855 10.338,24.603 5.819 C 25.632 4.126,25.508 4.244,26.357 4.157 C 27.205 4.070,30.869 4.121,31.136 4.224 M20.009 5.668 C 19.988 5.710,19.579 6.545,19.098 7.523 C 16.996 11.804,15.625 16.084,14.850 20.791 C 14.605 22.274,14.336 24.704,14.334 25.438 C 14.333 25.734,14.305 26.079,14.271 26.205 L 14.210 26.433 9.177 26.433 L 4.145 26.433 4.213 25.849 C 4.694 21.687,6.015 18.122,8.354 14.676 C 10.869 10.969,14.460 7.992,18.656 6.135 C 19.878 5.595,20.077 5.526,20.009 5.668 M38.111 6.061 C 45.210 9.140,50.419 15.346,52.187 22.830 C 52.426 23.839,52.765 25.858,52.765 26.268 C 52.765 26.418,52.303 26.433,47.690 26.433 L 42.616 26.433 42.552 25.645 C 42.317 22.731,42.110 21.168,41.668 18.976 C 40.861 14.973,39.434 10.847,37.571 7.127 C 37.148 6.283,36.853 5.592,36.915 5.592 C 36.978 5.592,37.516 5.803,38.111 6.061 M14.272 30.830 C 14.299 31.012,14.372 31.838,14.435 32.666 C 14.866 38.336,16.589 44.438,19.279 49.815 C 19.684 50.624,19.999 51.303,19.978 51.324 C 19.915 51.387,17.788 50.441,16.884 49.948 C 9.826 46.101,5.103 39.086,4.219 31.135 L 4.148 30.500 9.186 30.500 L 14.224 30.500 14.272 30.830 M37.436 36.764 C 36.935 37.019,36.650 37.480,36.657 38.023 C 36.663 38.480,38.771 44.129,42.959 54.911 C 44.749 59.517,45.165 60.444,45.580 60.742 C 45.946 61.007,46.710 61.018,47.086 60.766 C 47.269 60.642,47.927 59.496,49.170 57.135 L 50.986 53.685 54.493 57.185 C 58.067 60.752,58.369 61.003,59.090 60.998 C 59.508 60.995,60.167 60.696,60.461 60.377 C 60.753 60.059,61.000 59.460,61.000 59.068 C 61.000 58.366,60.733 58.046,57.184 54.493 L 53.680 50.985 57.120 49.176 C 60.265 47.523,60.580 47.334,60.780 46.977 C 61.259 46.126,60.948 45.489,59.780 44.923 C 58.234 44.175,38.719 36.707,38.125 36.636 C 37.915 36.611,37.633 36.663,37.436 36.764 " fill="#2B2C30" stroke="none" fill-rule="evenodd"></path></svg>