<svg width="56" height="56" viewBox="0 0 56 56" fill="none" xmlns="http://www.w3.org/2000/svg"><path d="M26.133 0.059 C 17.913 0.672,10.583 4.646,5.629 11.176 C 2.796 14.909,1.034 19.171,0.255 24.172 C -0.030 26.001,-0.030 29.999,0.255 31.828 C 1.452 39.508,5.165 45.810,11.183 50.377 C 14.901 53.197,19.185 54.968,24.172 55.745 C 26.001 56.030,29.999 56.030,31.828 55.745 C 38.632 54.685,44.416 51.617,48.757 46.767 C 52.604 42.467,54.828 37.714,55.745 31.828 C 56.030 29.999,56.030 26.001,55.745 24.172 C 54.968 19.185,53.197 14.901,50.377 11.183 C 45.747 5.081,39.129 1.242,31.500 0.232 C 30.407 0.087,27.159 -0.017,26.133 0.059 M30.636 4.154 C 30.883 4.254,32.313 6.642,33.318 8.633 C 35.879 13.707,37.357 19.039,37.793 24.778 C 37.839 25.393,37.858 25.929,37.833 25.968 C 37.788 26.042,18.170 26.073,18.097 25.999 C 18.033 25.935,18.182 23.872,18.340 22.633 C 18.990 17.520,20.588 12.373,22.843 8.124 C 23.295 7.273,24.839 4.646,25.063 4.348 C 25.160 4.218,25.372 4.149,25.828 4.098 C 26.573 4.014,30.400 4.059,30.636 4.154 M19.677 5.577 C 19.660 5.615,19.261 6.424,18.791 7.373 C 16.834 11.325,15.379 15.837,14.658 20.185 C 14.360 21.982,14.094 24.302,14.092 25.127 C 14.091 25.398,14.065 25.715,14.035 25.830 L 13.978 26.040 9.042 26.040 C 4.198 26.040,4.107 26.037,4.107 25.857 C 4.107 25.334,4.434 23.406,4.726 22.213 C 5.152 20.470,5.636 19.149,6.491 17.399 C 8.978 12.305,13.350 8.160,18.607 5.915 C 19.568 5.504,19.734 5.452,19.677 5.577 M37.501 5.968 C 40.392 7.229,42.668 8.785,44.944 11.058 C 46.942 13.054,48.341 15.008,49.558 17.500 C 50.789 20.023,51.568 22.712,51.849 25.410 L 51.915 26.040 46.918 26.040 L 41.922 26.040 41.870 25.457 C 41.842 25.136,41.775 24.348,41.721 23.707 C 41.433 20.300,40.660 16.603,39.520 13.177 C 38.820 11.076,38.217 9.609,37.143 7.397 C 36.638 6.357,36.275 5.507,36.336 5.508 C 36.397 5.508,36.921 5.715,37.501 5.968 M14.037 30.201 C 14.068 30.282,14.093 30.577,14.093 30.857 C 14.093 31.688,14.356 33.995,14.658 35.815 C 15.380 40.173,16.867 44.766,18.849 48.765 C 19.307 49.688,19.667 50.457,19.650 50.474 C 19.589 50.535,17.949 49.817,16.893 49.267 C 12.380 46.914,8.670 43.092,6.440 38.500 C 5.631 36.834,5.142 35.488,4.726 33.787 C 4.446 32.642,4.107 30.671,4.107 30.190 C 4.107 30.072,4.769 30.053,9.043 30.053 C 13.459 30.053,13.986 30.069,14.037 30.201 M37.831 30.637 C 37.405 36.270,36.201 41.051,33.999 45.865 C 33.715 46.486,33.293 47.350,33.061 47.787 C 32.490 48.863,31.034 51.318,30.771 51.647 L 30.558 51.914 28.929 51.963 C 28.033 51.990,26.847 51.981,26.294 51.944 L 25.287 51.875 24.947 51.347 C 23.630 49.307,22.241 46.687,21.329 44.520 C 19.597 40.409,18.377 35.281,18.139 31.117 L 18.078 30.053 27.977 30.053 L 37.876 30.053 37.831 30.637 M51.853 30.590 C 51.724 31.701,51.492 32.939,51.193 34.113 C 49.562 40.505,45.043 46.172,39.107 49.267 C 38.073 49.806,36.509 50.493,36.318 50.493 C 36.267 50.493,36.638 49.643,37.143 48.603 C 38.217 46.391,38.820 44.924,39.520 42.823 C 40.668 39.374,41.446 35.640,41.722 32.253 C 41.777 31.582,41.844 30.813,41.871 30.543 L 41.920 30.053 46.917 30.053 L 51.915 30.053 51.853 30.590 " fill="#2B2C30" stroke="none" fill-rule="evenodd"></path></svg>