<svg width="56" height="44" viewBox="0 0 56 44" fill="none" xmlns="http://www.w3.org/2000/svg"><path d="M0.351 0.272 L 0.047 0.544 0.016 1.850 C -0.032 3.934,0.059 4.013,2.470 4.013 L 4.013 4.013 4.013 23.659 L 4.013 43.304 4.285 43.609 L 4.558 43.913 5.895 43.940 C 7.958 43.981,8.025 43.901,8.026 41.415 L 8.027 39.943 10.010 39.968 L 11.993 39.993 12.041 41.673 C 12.067 42.597,12.121 43.419,12.161 43.498 C 12.200 43.578,12.353 43.714,12.501 43.802 C 12.750 43.949,13.840 43.960,27.954 43.960 C 41.588 43.960,43.170 43.945,43.449 43.813 C 43.619 43.732,43.793 43.595,43.835 43.509 C 43.877 43.424,43.933 42.597,43.959 41.673 L 44.007 39.993 49.721 39.947 L 55.436 39.900 55.695 39.641 L 55.953 39.382 55.953 21.970 L 55.953 4.558 55.649 4.286 L 55.344 4.013 31.685 4.013 L 8.027 4.013 8.026 2.543 C 8.026 0.813,7.946 0.435,7.531 0.182 C 7.251 0.012,7.037 0.001,3.945 0.000 L 0.656 -0.000 0.351 0.272 M51.987 21.980 L 51.987 35.933 46.013 35.933 L 40.040 35.933 40.040 37.940 L 40.040 39.947 28.000 39.947 L 15.960 39.947 15.960 37.940 L 15.960 35.933 11.993 35.933 L 8.027 35.933 8.027 21.980 L 8.027 8.027 30.007 8.027 L 51.987 8.027 51.987 21.980 M27.907 12.217 C 23.998 13.073,21.091 16.008,20.190 20.007 C 19.986 20.909,19.986 23.051,20.190 23.953 C 21.494 29.738,27.178 33.195,32.737 31.584 C 38.043 30.046,41.133 24.504,39.612 19.254 C 38.628 15.858,35.941 13.231,32.505 12.304 C 31.449 12.020,29.016 11.973,27.907 12.217 M31.500 16.202 C 33.516 16.679,35.283 18.457,35.805 20.533 C 35.890 20.871,35.957 21.513,35.957 21.980 C 35.957 23.659,35.405 24.985,34.208 26.181 C 32.321 28.068,29.775 28.493,27.347 27.328 C 26.710 27.022,26.405 26.798,25.802 26.190 C 24.564 24.943,24.048 23.703,24.048 21.980 C 24.048 20.254,24.566 19.011,25.802 17.777 C 27.370 16.211,29.293 15.679,31.500 16.202 " fill="#2B2C30" stroke="none" fill-rule="evenodd"></path></svg>