<svg width="57" height="49" viewBox="0 0 57 49" fill="none" xmlns="http://www.w3.org/2000/svg"><path d="M26.933 0.141 C 23.799 0.724,21.344 3.013,20.509 6.128 C 20.221 7.205,20.220 8.950,20.507 10.067 C 20.753 11.025,21.311 12.202,21.853 12.909 C 22.069 13.190,22.228 13.489,22.205 13.574 C 22.164 13.731,11.154 32.856,11.026 32.993 C 10.987 33.034,10.617 32.971,10.204 32.853 C 9.196 32.565,7.135 32.544,6.128 32.811 C 2.337 33.815,-0.204 37.275,0.029 41.115 C 0.098 42.258,0.295 43.042,0.769 44.065 C 1.424 45.479,2.379 46.600,3.646 47.440 C 6.314 49.212,9.889 49.213,12.553 47.444 C 13.387 46.891,14.294 46.007,14.780 45.276 L 15.132 44.745 28.500 44.745 L 41.868 44.745 42.220 45.276 C 43.008 46.461,44.501 47.658,45.845 48.180 C 46.961 48.613,47.731 48.761,48.877 48.762 C 52.101 48.764,54.875 46.993,56.231 44.065 C 56.705 43.042,56.902 42.258,56.971 41.115 C 57.204 37.279,54.656 33.809,50.873 32.812 C 50.045 32.594,47.904 32.565,47.139 32.762 C 46.861 32.833,46.623 32.876,46.610 32.857 C 46.484 32.685,35.055 12.810,35.055 12.764 C 35.055 12.731,35.185 12.492,35.344 12.233 C 36.942 9.637,36.807 5.984,35.021 3.482 C 34.452 2.684,33.313 1.622,32.525 1.155 C 30.857 0.166,28.801 -0.207,26.933 0.141 M30.136 4.490 C 31.004 4.919,31.626 5.554,32.045 6.439 C 32.328 7.037,32.348 7.145,32.348 8.125 C 32.348 9.110,32.330 9.208,32.044 9.787 C 31.484 10.926,30.688 11.622,29.536 11.980 C 27.244 12.693,24.813 11.174,24.401 8.770 C 24.108 7.063,25.012 5.258,26.532 4.517 C 27.297 4.144,27.569 4.091,28.560 4.117 C 29.345 4.138,29.496 4.174,30.136 4.490 M37.523 25.226 L 43.145 34.967 42.824 35.324 C 41.749 36.514,41.063 38.063,40.839 39.810 L 40.730 40.660 28.500 40.660 L 16.270 40.660 16.161 39.810 C 15.974 38.352,15.515 37.149,14.702 35.985 L 14.323 35.442 19.953 25.677 C 23.049 20.307,25.609 15.884,25.640 15.850 C 25.672 15.816,26.018 15.870,26.410 15.971 C 27.932 16.363,29.635 16.277,31.073 15.736 C 31.408 15.610,31.732 15.502,31.791 15.496 C 31.851 15.490,34.431 19.869,37.523 25.226 M9.811 37.025 C 11.016 37.591,11.865 38.711,12.091 40.034 C 12.546 42.687,10.132 45.120,7.494 44.668 C 5.365 44.303,3.978 42.556,4.103 40.397 C 4.195 38.812,5.247 37.415,6.776 36.848 C 7.165 36.704,7.465 36.672,8.217 36.694 C 9.054 36.719,9.244 36.759,9.811 37.025 M50.564 36.991 C 51.910 37.639,52.813 38.952,52.896 40.384 C 53.022 42.557,51.641 44.302,49.506 44.668 C 47.360 45.036,45.291 43.516,44.910 41.292 C 44.576 39.346,45.771 37.448,47.737 36.798 C 47.980 36.718,48.462 36.682,49.068 36.700 C 49.876 36.724,50.099 36.767,50.564 36.991 " fill="#2B2C30" stroke="none" fill-rule="evenodd"></path></svg>