<svg width="54" height="56" viewBox="0 0 54 56" fill="none" xmlns="http://www.w3.org/2000/svg"><path d="M50.715 0.098 C 50.616 0.155,45.463 5.268,39.263 11.462 L 27.991 22.724 22.253 16.992 C 18.379 13.123,16.435 11.241,16.267 11.201 C 16.131 11.168,15.909 11.167,15.772 11.200 C 15.604 11.241,13.067 13.716,7.807 18.972 C -0.423 27.198,-0.169 26.915,0.086 27.531 C 0.145 27.673,0.590 28.179,1.074 28.655 C 1.945 29.510,2.063 29.578,2.605 29.528 C 2.763 29.513,4.663 27.680,9.381 22.989 C 12.987 19.403,15.970 16.470,16.010 16.470 C 16.050 16.470,18.589 18.991,21.651 22.072 C 24.713 25.154,27.321 27.746,27.447 27.832 C 27.725 28.023,28.096 28.034,28.422 27.861 C 28.556 27.790,34.248 22.146,41.072 15.319 L 53.479 2.906 53.527 2.485 L 53.574 2.065 52.591 1.072 C 51.727 0.198,51.566 0.073,51.252 0.037 C 51.056 0.014,50.814 0.042,50.715 0.098 M48.337 16.297 L 48.060 16.574 48.060 35.961 L 48.060 55.347 48.322 55.641 L 48.585 55.935 49.889 55.964 C 51.385 55.997,51.674 55.915,51.892 55.392 C 52.090 54.918,52.084 16.944,51.886 16.561 C 51.628 16.062,51.478 16.020,49.982 16.020 L 48.614 16.020 48.337 16.297 M12.508 28.143 C 12.385 28.228,12.236 28.359,12.175 28.436 C 12.090 28.544,12.065 31.585,12.063 41.991 L 12.060 55.406 12.249 55.609 C 12.545 55.927,12.802 55.980,14.050 55.980 C 15.390 55.980,15.686 55.885,15.892 55.392 C 16.001 55.132,16.020 53.104,16.020 41.985 C 16.020 27.639,16.050 28.420,15.492 28.131 C 15.081 27.919,12.820 27.928,12.508 28.143 M36.484 28.162 C 36.330 28.256,36.158 28.464,36.102 28.625 C 36.028 28.837,36.000 32.503,36.000 42.001 C 36.000 56.366,35.968 55.549,36.541 55.846 C 36.776 55.967,37.058 55.988,38.131 55.964 L 39.435 55.935 39.698 55.641 L 39.960 55.347 39.960 41.975 L 39.960 28.602 39.654 28.296 L 39.348 27.990 38.056 27.990 C 36.946 27.991,36.726 28.015,36.484 28.162 M0.810 40.019 C 0.447 40.138,0.266 40.281,0.139 40.549 C 0.017 40.806,-0.000 41.732,-0.000 48.011 C -0.000 55.897,-0.024 55.553,0.550 55.850 C 0.774 55.966,1.073 55.988,2.131 55.964 L 3.435 55.935 3.698 55.641 L 3.960 55.347 3.960 47.989 C 3.960 39.823,4.000 40.350,3.366 40.085 C 3.075 39.964,1.131 39.913,0.810 40.019 M24.598 40.092 C 24.005 40.350,24.030 39.997,24.030 48.036 C 24.030 56.027,23.997 55.549,24.571 55.846 C 24.764 55.945,25.142 55.980,26.028 55.980 C 27.350 55.979,27.722 55.862,27.902 55.389 C 27.957 55.246,27.990 52.418,27.990 47.960 C 27.990 39.975,28.018 40.345,27.402 40.088 C 26.987 39.915,24.999 39.917,24.598 40.092 " fill="#2B2C30" stroke="none" fill-rule="evenodd"></path></svg>