<svg width="49" height="56" viewBox="0 0 49 56" fill="none" xmlns="http://www.w3.org/2000/svg"><path d="M24.867 0.114 C 23.643 0.351,22.570 0.953,21.654 1.917 C 21.064 2.538,20.588 3.296,20.362 3.972 C 20.289 4.190,20.225 4.376,20.220 4.384 C 20.215 4.392,19.953 4.327,19.640 4.240 C 18.088 3.809,16.324 4.033,14.959 4.833 C 14.299 5.219,13.155 6.380,12.799 7.023 C 12.638 7.315,12.402 7.848,12.276 8.207 L 12.046 8.861 12.023 17.784 L 12.000 26.707 11.533 26.406 C 9.729 25.246,8.449 24.508,7.954 24.346 C 6.659 23.920,5.266 23.927,4.006 24.365 C 3.118 24.674,2.568 25.036,1.753 25.847 C 1.152 26.446,0.952 26.711,0.675 27.277 C 0.186 28.278,0.050 28.860,0.045 29.972 C 0.040 31.116,0.204 31.829,0.683 32.745 C 0.869 33.100,4.181 38.106,8.044 43.870 C 13.125 51.450,15.203 54.486,15.557 54.845 C 15.875 55.167,16.248 55.440,16.617 55.621 L 17.187 55.901 28.010 55.901 L 38.832 55.901 39.388 55.638 C 40.298 55.207,40.785 54.647,41.510 53.200 C 44.323 47.583,46.555 41.463,47.482 36.832 C 47.985 34.319,47.979 34.450,47.979 25.398 C 47.979 16.030,48.025 16.723,47.312 15.272 C 46.996 14.628,46.812 14.377,46.230 13.795 C 45.651 13.216,45.393 13.027,44.753 12.710 C 43.804 12.240,43.297 12.099,42.344 12.039 C 41.668 11.996,40.586 12.120,40.169 12.288 C 40.049 12.337,40.032 12.174,39.997 10.642 C 39.964 9.169,39.934 8.866,39.775 8.371 C 39.170 6.491,37.977 5.166,36.260 4.468 C 35.392 4.115,35.044 4.051,34.014 4.051 C 33.127 4.052,32.492 4.150,31.897 4.378 C 31.813 4.410,31.757 4.353,31.717 4.193 C 31.359 2.760,29.936 1.182,28.388 0.501 C 27.400 0.067,25.941 -0.094,24.867 0.114 M26.644 4.118 C 27.096 4.279,27.489 4.611,27.744 5.046 L 27.971 5.431 28.012 16.434 L 28.052 27.437 28.319 27.704 L 28.586 27.971 29.885 27.997 C 31.342 28.026,31.566 27.969,31.853 27.497 C 32.009 27.242,32.013 27.018,32.015 18.416 C 32.017 9.719,32.019 9.591,32.183 9.228 C 32.543 8.434,33.138 8.050,34.014 8.047 C 34.494 8.045,34.647 8.080,34.971 8.271 C 35.183 8.395,35.452 8.623,35.570 8.777 C 36.028 9.378,36.015 9.086,36.015 18.593 L 36.015 27.361 36.294 27.666 L 36.574 27.971 37.907 27.994 C 39.134 28.015,39.263 28.004,39.511 27.849 C 40.024 27.531,40.016 27.608,40.018 22.359 C 40.020 17.747,40.025 17.588,40.187 17.232 C 40.546 16.438,41.141 16.054,42.017 16.050 C 42.500 16.048,42.650 16.083,42.981 16.278 C 43.472 16.567,43.819 17.040,43.939 17.585 C 44.006 17.891,44.022 20.163,43.998 25.807 C 43.961 34.246,43.970 34.052,43.487 36.428 C 42.649 40.551,40.695 45.844,38.056 51.144 L 37.619 52.022 27.977 52.020 L 18.334 52.018 11.352 41.598 C 7.511 35.867,4.297 31.044,4.208 30.881 C 3.978 30.457,3.985 29.558,4.221 29.114 C 4.680 28.252,5.721 27.812,6.586 28.113 C 6.771 28.178,8.260 29.073,9.893 30.102 L 12.862 31.973 14.147 31.973 L 15.432 31.973 15.699 31.706 L 15.966 31.439 16.007 20.436 C 16.046 9.900,16.054 9.420,16.200 9.147 C 16.599 8.397,17.172 8.049,18.008 8.049 C 18.853 8.049,19.393 8.384,19.828 9.177 C 19.957 9.413,19.971 10.134,20.008 18.435 L 20.049 27.437 20.316 27.704 L 20.583 27.971 21.908 27.993 C 23.381 28.018,23.517 27.985,23.824 27.529 L 24.010 27.253 24.012 16.423 C 24.014 5.705,24.015 5.590,24.180 5.227 C 24.623 4.248,25.678 3.773,26.644 4.118 " fill="#2B2C30" stroke="none" fill-rule="evenodd"></path></svg>