<svg width="56" height="56" viewBox="0 0 56 56" fill="none" xmlns="http://www.w3.org/2000/svg"><path d="M16.613 0.068 C 16.485 0.092,14.007 0.606,11.107 1.211 C 7.528 1.958,5.593 2.404,5.084 2.601 C 3.076 3.378,1.275 5.193,0.523 7.198 C -0.061 8.754,-0.123 10.337,0.278 13.487 C 0.962 18.855,2.383 23.593,4.756 28.420 C 7.841 34.693,12.251 40.246,17.863 44.920 C 21.805 48.204,26.308 50.907,30.847 52.716 C 35.714 54.656,41.665 55.950,45.687 55.943 C 47.044 55.940,47.256 55.917,48.020 55.684 C 50.658 54.880,52.698 52.888,53.472 50.363 C 53.645 49.797,55.520 39.859,55.678 38.672 C 55.859 37.304,54.995 35.606,53.745 34.874 C 53.094 34.492,39.740 29.867,39.289 29.867 C 38.849 29.867,38.314 30.072,37.999 30.361 C 37.875 30.474,36.779 31.890,35.561 33.507 C 34.344 35.124,33.266 36.519,33.167 36.606 C 32.653 37.061,31.774 37.173,31.104 36.870 C 30.499 36.595,28.650 35.310,27.300 34.226 C 24.476 31.959,21.907 29.155,19.890 26.137 C 19.089 24.939,18.894 24.446,18.988 23.856 C 19.118 23.046,19.300 22.869,22.427 20.508 C 24.818 18.703,25.441 18.187,25.639 17.849 C 26.111 17.044,26.138 17.146,23.428 9.380 C 22.085 5.530,20.878 2.194,20.746 1.966 C 19.955 0.605,18.167 -0.216,16.613 0.068 M19.410 10.105 C 20.549 13.378,21.467 16.094,21.451 16.139 C 21.434 16.185,20.361 17.026,19.068 18.008 C 16.585 19.894,16.110 20.359,15.584 21.420 C 14.651 23.304,14.749 25.478,15.850 27.329 C 17.682 30.406,21.086 34.306,24.220 36.915 C 25.954 38.359,28.332 40.022,29.342 40.497 C 31.501 41.513,34.109 41.134,35.891 39.546 C 36.316 39.166,38.821 35.963,39.866 34.461 L 40.014 34.249 45.781 36.258 C 48.953 37.363,51.563 38.267,51.581 38.267 C 51.599 38.267,51.613 38.338,51.613 38.425 C 51.613 38.800,49.714 48.905,49.561 49.342 C 49.129 50.580,48.086 51.514,46.758 51.854 C 46.283 51.976,45.945 51.995,45.174 51.945 C 40.882 51.662,36.353 50.602,32.107 48.885 C 22.049 44.818,13.068 36.371,8.265 26.460 C 5.837 21.450,4.454 16.247,4.061 10.640 C 3.959 9.190,4.354 8.064,5.271 7.197 C 6.149 6.367,6.411 6.286,12.087 5.105 C 14.910 4.517,17.247 4.063,17.280 4.095 C 17.313 4.127,18.271 6.832,19.410 10.105 " fill="#2B2C30" stroke="none" fill-rule="evenodd"></path></svg>