<svg width="56" height="56" viewBox="0 0 56 56" fill="none" xmlns="http://www.w3.org/2000/svg"><path d="M16.462 0.178 C 16.302 0.276,16.124 0.492,16.066 0.658 C 15.990 0.874,15.960 3.136,15.960 8.507 L 15.960 16.053 8.301 16.053 C 3.226 16.053,0.580 16.086,0.461 16.149 C 0.089 16.349,0.000 16.719,-0.000 18.065 L -0.000 19.339 0.317 19.656 L 0.635 19.973 8.297 19.973 L 15.960 19.973 15.960 28.000 L 15.960 36.027 8.297 36.027 L 0.635 36.027 0.317 36.344 L 0.000 36.661 0.000 37.935 C 0.000 38.909,0.034 39.276,0.146 39.492 C 0.437 40.055,0.209 40.040,8.444 40.040 L 15.960 40.040 15.960 47.556 C 15.960 55.791,15.945 55.563,16.508 55.854 C 16.724 55.966,17.091 56.000,18.065 56.000 L 19.339 56.000 19.656 55.683 L 19.973 55.365 19.973 47.703 L 19.973 40.040 28.000 40.040 L 36.027 40.040 36.027 47.703 L 36.027 55.365 36.344 55.683 L 36.661 56.000 37.935 56.000 C 38.909 56.000,39.276 55.966,39.492 55.854 C 40.055 55.563,40.040 55.791,40.040 47.556 L 40.040 40.040 47.556 40.040 C 55.791 40.040,55.563 40.055,55.854 39.492 C 55.966 39.276,56.000 38.909,56.000 37.935 L 56.000 36.661 55.683 36.344 L 55.365 36.027 47.703 36.027 L 40.040 36.027 40.040 28.000 L 40.040 19.973 47.703 19.973 L 55.365 19.973 55.683 19.656 L 56.000 19.339 56.000 18.065 C 56.000 16.719,55.911 16.349,55.539 16.149 C 55.420 16.086,52.774 16.053,47.699 16.053 L 40.040 16.053 40.040 8.490 C 40.040 0.205,40.055 0.437,39.492 0.146 C 39.276 0.035,38.910 0.000,37.946 0.000 L 36.683 0.000 36.378 0.272 L 36.073 0.545 36.027 8.276 L 35.980 16.007 28.000 16.007 L 20.020 16.007 19.973 8.276 L 19.927 0.545 19.622 0.272 L 19.317 -0.000 18.035 0.000 C 16.940 0.001,16.711 0.027,16.462 0.178 M36.027 28.000 L 36.027 36.027 28.000 36.027 L 19.973 36.027 19.973 28.000 L 19.973 19.973 28.000 19.973 L 36.027 19.973 36.027 28.000 " fill="#2B2C30" stroke="none" fill-rule="evenodd"></path></svg>