<svg width="57" height="48" viewBox="0 0 57 48" fill="none" xmlns="http://www.w3.org/2000/svg"><path d="M14.297 0.104 C 8.121 0.748,2.810 5.019,0.853 10.916 C 0.120 13.125,-0.047 14.572,0.032 18.050 C 0.166 23.970,1.060 27.710,3.056 30.694 C 3.467 31.308,4.202 32.147,5.418 33.391 C 7.973 36.003,7.980 36.021,7.980 39.237 C 7.980 40.420,8.008 42.871,8.043 44.682 L 8.106 47.975 18.065 47.975 L 28.025 47.975 28.025 43.998 L 28.025 40.022 29.521 39.967 C 30.404 39.934,31.232 39.852,31.540 39.766 C 33.526 39.212,35.118 37.656,35.776 35.625 C 35.923 35.171,35.950 34.632,35.982 31.516 L 36.019 27.930 37.711 27.930 L 39.404 27.930 39.859 27.621 C 40.396 27.257,40.678 26.762,40.735 26.085 C 40.774 25.613,40.717 25.485,38.404 20.852 L 36.033 16.102 35.968 15.152 C 35.615 9.991,33.066 5.509,28.898 2.724 C 26.691 1.250,24.244 0.372,21.579 0.100 C 20.443 -0.015,15.421 -0.013,14.297 0.104 M21.755 4.130 C 23.121 4.340,23.968 4.606,25.223 5.219 C 28.582 6.863,30.904 9.810,31.739 13.490 C 31.842 13.942,31.949 14.883,31.982 15.627 L 32.043 16.957 33.786 20.448 C 34.745 22.368,35.530 23.957,35.530 23.979 C 35.530 24.001,35.021 24.033,34.398 24.051 C 33.317 24.081,33.247 24.095,32.862 24.367 C 32.641 24.524,32.370 24.824,32.261 25.032 C 32.070 25.398,32.061 25.581,32.015 29.973 C 31.969 34.406,31.962 34.543,31.764 34.913 C 31.509 35.388,31.315 35.564,30.778 35.808 C 30.371 35.992,30.169 36.001,26.236 36.003 L 22.119 36.005 22.654 36.596 C 23.798 37.861,24.031 38.742,24.033 41.824 L 24.035 43.985 18.003 43.985 L 11.970 43.985 11.969 40.446 C 11.967 36.349,11.890 35.727,11.210 34.309 C 10.621 33.081,10.084 32.396,8.364 30.683 C 7.446 29.769,6.600 28.830,6.338 28.436 C 4.813 26.141,4.126 23.050,4.017 17.990 C 3.939 14.364,4.170 12.950,5.181 10.842 C 5.813 9.527,6.350 8.752,7.356 7.705 C 9.212 5.775,11.566 4.545,14.203 4.129 C 15.333 3.950,20.591 3.951,21.755 4.130 M49.462 20.048 C 48.480 20.342,47.874 21.364,48.087 22.364 C 48.181 22.803,48.252 22.910,49.311 24.215 C 50.410 25.569,51.165 27.099,51.647 28.953 C 51.982 30.237,52.065 32.589,51.826 34.016 C 51.430 36.383,50.465 38.369,48.728 40.390 C 47.960 41.283,47.829 42.021,48.283 42.892 C 48.739 43.767,49.926 44.143,50.873 43.713 C 51.554 43.403,52.957 41.693,53.905 40.015 C 55.480 37.227,56.251 33.709,55.961 30.637 C 55.751 28.412,55.280 26.676,54.378 24.796 C 53.546 23.063,52.075 21.026,51.169 20.353 C 50.677 19.987,50.042 19.874,49.462 20.048 M44.354 28.292 L 44.032 28.579 44.004 31.718 C 43.973 35.122,44.014 35.515,44.429 35.787 C 44.785 36.020,45.575 35.979,46.197 35.694 C 46.897 35.374,47.352 34.945,47.662 34.312 C 47.924 33.779,47.928 33.751,47.928 31.968 C 47.928 30.249,47.916 30.140,47.697 29.695 C 47.224 28.733,46.303 28.109,45.257 28.042 C 44.719 28.007,44.652 28.026,44.354 28.292 " fill="#2B2C30" stroke="none" fill-rule="evenodd"></path></svg>