<svg width="48" height="44" viewBox="0 0 48 44" fill="none" xmlns="http://www.w3.org/2000/svg"><path d="M11.540 0.090 C 9.025 0.354,6.525 1.434,4.506 3.129 C 2.325 4.960,0.805 7.548,0.222 10.422 C 0.068 11.184,0.041 11.556,0.046 12.880 C 0.052 14.251,0.079 14.564,0.268 15.468 C 0.387 16.033,0.610 16.884,0.763 17.359 C 1.129 18.491,2.028 20.268,2.665 21.120 C 3.193 21.825,23.868 43.920,24.000 43.920 C 24.068 43.920,43.795 22.710,44.787 21.570 C 46.166 19.985,47.238 17.731,47.737 15.365 C 47.921 14.495,47.950 14.161,47.955 12.880 C 47.961 11.161,47.839 10.344,47.356 8.864 C 45.959 4.582,42.326 1.320,37.839 0.320 C 34.914 -0.333,31.404 0.093,28.760 1.420 C 26.977 2.315,25.395 3.658,24.333 5.179 C 24.172 5.410,24.022 5.598,24.000 5.598 C 23.978 5.598,23.828 5.410,23.667 5.179 C 21.142 1.563,16.415 -0.420,11.540 0.090 M15.205 4.233 C 16.582 4.541,17.883 5.180,19.042 6.116 C 19.344 6.360,20.572 7.604,21.771 8.880 C 22.970 10.156,23.973 11.200,24.000 11.200 C 24.027 11.200,25.030 10.156,26.229 8.880 C 27.428 7.604,28.656 6.360,28.958 6.116 C 31.818 3.806,35.567 3.366,38.845 4.958 C 43.253 7.097,45.191 12.397,43.208 16.890 C 42.713 18.013,42.083 18.889,41.000 19.960 C 40.466 20.488,36.439 24.745,32.051 29.420 C 27.663 34.095,24.040 37.920,24.000 37.920 C 23.960 37.920,20.337 34.095,15.949 29.420 C 11.561 24.745,7.534 20.488,7.000 19.960 C 5.917 18.889,5.287 18.013,4.792 16.890 C 3.070 12.989,4.290 8.372,7.715 5.821 C 8.872 4.959,10.542 4.276,11.960 4.084 C 12.755 3.977,14.397 4.052,15.205 4.233 " fill="#2B2C30" stroke="none" fill-rule="evenodd"></path></svg>