<svg width="48" height="56" viewBox="0 0 48 56" fill="none" xmlns="http://www.w3.org/2000/svg"><path d="M22.120 0.076 C 18.489 0.405,15.121 1.438,12.192 3.119 C 3.338 8.202,-1.342 18.059,0.360 28.040 C 1.598 35.301,6.054 41.515,12.600 45.110 C 13.839 45.791,15.154 46.340,16.943 46.924 C 17.791 47.201,18.655 47.527,18.863 47.648 C 19.426 47.976,20.190 48.748,20.464 49.264 C 20.597 49.515,21.235 50.980,21.882 52.520 C 22.528 54.060,23.116 55.419,23.186 55.540 C 23.370 55.855,23.901 56.045,24.262 55.926 C 24.413 55.876,24.612 55.755,24.704 55.657 C 24.797 55.558,25.417 54.182,26.084 52.599 C 26.750 51.015,27.404 49.515,27.536 49.264 C 27.810 48.748,28.574 47.976,29.137 47.648 C 29.345 47.527,30.209 47.201,31.057 46.924 C 33.627 46.085,35.255 45.309,37.280 43.961 C 42.554 40.448,46.218 35.035,47.483 28.891 C 47.846 27.130,47.948 26.078,47.952 24.080 C 47.957 21.173,47.605 18.946,46.725 16.320 C 44.375 9.302,38.698 3.625,31.680 1.275 C 29.259 0.464,27.081 0.093,24.440 0.042 C 23.560 0.025,22.516 0.040,22.120 0.076 M26.880 4.198 C 31.233 4.869,35.034 6.788,38.123 9.877 C 41.234 12.988,43.130 16.759,43.815 21.200 C 44.014 22.490,44.014 25.510,43.815 26.800 C 43.130 31.241,41.234 35.012,38.123 38.123 C 35.012 41.234,31.241 43.130,26.800 43.815 C 25.510 44.014,22.490 44.014,21.200 43.815 C 16.759 43.130,12.988 41.234,9.877 38.123 C 6.766 35.012,4.870 31.241,4.185 26.800 C 3.986 25.510,3.986 22.490,4.185 21.200 C 4.870 16.759,6.766 12.988,9.877 9.877 C 13.271 6.484,17.373 4.569,22.360 4.049 C 23.072 3.975,26.073 4.074,26.880 4.198 M24.864 9.060 C 21.512 12.396,19.883 15.676,20.026 18.800 C 20.118 20.797,20.695 22.002,22.851 24.694 C 24.443 26.683,25.086 27.740,25.557 29.144 C 25.943 30.294,26.029 31.112,26.029 33.654 L 26.028 35.987 26.640 35.435 C 28.302 33.934,30.044 31.671,30.910 29.886 C 32.231 27.166,32.342 24.508,31.228 22.297 C 30.822 21.490,30.321 20.769,29.149 19.306 C 27.489 17.232,26.776 16.029,26.363 14.602 C 26.033 13.464,25.969 12.757,25.971 10.300 C 25.972 9.035,25.963 8.000,25.951 8.000 C 25.939 8.000,25.450 8.477,24.864 9.060 M18.372 20.680 C 16.806 22.512,16.056 24.199,16.045 25.920 C 16.037 27.230,16.264 27.828,17.399 29.480 C 18.738 31.428,18.953 32.073,19.028 34.360 L 19.080 35.960 19.628 35.320 C 21.195 33.488,21.946 31.797,21.955 30.080 C 21.963 28.769,21.735 28.172,20.601 26.520 C 19.262 24.572,19.047 23.927,18.972 21.640 L 18.920 20.040 18.372 20.680 " fill="#2B2C30" stroke="none" fill-rule="evenodd"></path></svg>