<svg width="56" height="56" viewBox="0 0 56 56" fill="none" xmlns="http://www.w3.org/2000/svg"><path d="M25.807 0.089 C 20.753 0.547,16.361 2.092,12.320 4.833 C 6.234 8.962,1.952 15.382,0.570 22.447 C 0.034 25.192,0.062 24.243,0.026 40.763 L -0.007 56.000 14.487 55.999 C 28.959 55.998,30.030 55.978,32.200 55.664 C 39.870 54.555,46.941 50.050,51.280 43.510 C 53.837 39.655,55.245 35.780,55.830 30.987 C 55.985 29.724,55.985 26.276,55.830 25.013 C 55.361 21.170,54.294 17.733,52.628 14.700 C 48.207 6.651,40.528 1.410,31.422 0.227 C 30.159 0.063,26.962 -0.016,25.807 0.089 M30.387 4.112 C 32.529 4.319,35.123 4.968,37.101 5.792 C 40.168 7.068,42.554 8.671,44.942 11.058 C 48.769 14.886,50.988 19.347,51.814 24.873 C 51.896 25.417,51.938 26.554,51.935 28.093 C 51.931 30.114,51.899 30.656,51.722 31.687 C 50.808 37.021,48.657 41.226,44.942 44.942 C 41.607 48.276,37.731 50.419,33.208 51.430 C 30.859 51.955,31.662 51.928,17.290 51.962 L 4.013 51.993 4.013 39.313 C 4.013 31.102,4.048 26.273,4.112 25.613 C 4.449 22.137,5.680 18.484,7.536 15.457 C 9.403 12.413,12.413 9.403,15.457 7.536 C 18.423 5.718,22.134 4.452,25.480 4.117 C 26.641 4.001,29.214 3.999,30.387 4.112 M26.123 12.179 C 24.694 12.450,23.052 13.194,21.867 14.108 C 20.553 15.122,19.267 16.844,18.672 18.387 C 18.067 19.955,17.838 22.052,18.187 22.821 C 18.847 24.274,20.897 24.385,21.702 23.012 C 21.895 22.683,21.966 22.395,22.035 21.663 C 22.175 20.171,22.571 19.170,23.439 18.110 C 24.131 17.265,25.589 16.385,26.675 16.157 C 26.947 16.100,27.543 16.053,28.000 16.053 C 29.037 16.053,29.639 16.178,30.473 16.563 C 32.780 17.629,34.076 19.793,33.943 22.353 C 33.862 23.907,33.325 25.103,32.201 26.229 C 31.380 27.051,30.899 27.318,28.575 28.243 C 26.470 29.080,26.034 29.484,26.026 30.605 C 26.017 31.753,26.867 32.610,28.000 32.597 C 28.416 32.592,28.849 32.455,30.279 31.876 C 32.394 31.019,32.871 30.782,33.787 30.137 C 36.974 27.891,38.573 23.862,37.795 20.042 C 37.380 18.007,36.581 16.521,35.093 15.020 C 33.704 13.618,32.301 12.799,30.443 12.305 C 29.493 12.052,27.155 11.984,26.123 12.179 M27.020 37.173 C 26.470 37.397,26.161 37.607,25.812 37.993 C 25.254 38.611,25.063 39.122,25.064 39.993 C 25.065 40.969,25.315 41.551,26.005 42.181 C 27.160 43.237,28.840 43.237,29.995 42.181 C 30.685 41.551,30.935 40.969,30.936 39.993 C 30.937 39.110,30.740 38.595,30.161 37.967 C 29.581 37.338,29.042 37.106,28.093 37.080 C 27.631 37.068,27.183 37.106,27.020 37.173 " fill="#2B2C30" stroke="none" fill-rule="evenodd"></path></svg>