<svg width="63" height="56" viewBox="0 0 63 56" fill="none" xmlns="http://www.w3.org/2000/svg"><path d="M16.688 0.143 C 16.049 0.316,15.371 0.724,14.857 1.244 C 14.571 1.534,12.247 5.498,7.540 13.723 C 3.746 20.353,0.509 26.061,0.347 26.407 C 0.093 26.951,0.052 27.167,0.052 27.982 C 0.052 28.798,0.093 29.014,0.347 29.557 C 0.509 29.904,3.745 35.613,7.539 42.245 C 12.691 51.249,14.557 54.423,14.910 54.783 C 15.170 55.048,15.689 55.410,16.065 55.588 L 16.747 55.913 31.397 55.913 L 46.047 55.913 46.727 55.577 C 47.101 55.392,47.629 55.014,47.900 54.737 C 48.278 54.350,49.998 51.424,55.293 42.157 C 59.088 35.516,62.315 29.823,62.464 29.505 C 62.837 28.709,62.850 27.300,62.493 26.512 C 62.362 26.224,59.127 20.516,55.304 13.828 C 50.020 4.584,48.239 1.555,47.881 1.196 C 47.622 0.936,47.103 0.572,46.728 0.388 L 46.047 0.052 31.607 0.032 C 20.386 0.017,17.061 0.041,16.688 0.143 M51.934 16.008 C 58.502 27.484,58.777 27.985,58.640 28.241 C 58.561 28.387,55.479 33.776,51.791 40.215 L 45.085 51.922 31.389 51.922 L 17.692 51.922 10.849 39.956 C 7.085 33.374,4.020 27.964,4.037 27.933 C 4.541 27.020,17.598 4.211,17.668 4.121 C 17.750 4.016,20.581 3.995,31.428 4.016 L 45.085 4.042 51.934 16.008 " fill="#2B2C30" stroke="none" fill-rule="evenodd"></path></svg>