<svg width="56" height="55" viewBox="0 0 56 55" fill="none" xmlns="http://www.w3.org/2000/svg"><path d="M27.580 0.107 C 27.477 0.163,21.251 6.346,13.743 13.847 C -0.575 28.154,-0.138 27.693,0.051 28.295 C 0.149 28.610,1.670 30.146,2.040 30.304 C 2.212 30.377,2.466 30.412,2.603 30.382 C 2.769 30.346,3.712 29.469,5.370 27.810 C 6.753 26.426,7.917 25.293,7.956 25.293 C 7.995 25.293,8.027 31.698,8.027 39.525 L 8.027 53.757 8.299 54.062 L 8.571 54.367 28.000 54.367 L 47.429 54.367 47.701 54.062 L 47.973 53.757 47.973 39.506 L 47.973 25.254 50.517 27.783 C 53.244 30.495,53.343 30.567,53.960 30.304 C 54.330 30.146,55.851 28.610,55.949 28.295 C 56.138 27.693,56.575 28.154,42.257 13.846 C 34.749 6.344,28.515 0.160,28.403 0.103 C 28.147 -0.026,27.822 -0.025,27.580 0.107 M36.003 13.276 L 43.960 21.233 43.960 35.816 L 43.960 50.400 37.988 50.400 L 32.017 50.400 31.992 42.692 L 31.967 34.985 31.662 34.712 L 31.357 34.440 28.050 34.440 C 25.870 34.440,24.666 34.475,24.520 34.541 C 24.398 34.597,24.228 34.761,24.142 34.906 C 24.001 35.145,23.987 35.847,23.987 42.784 L 23.987 50.400 18.013 50.400 L 12.040 50.400 12.040 35.791 L 12.040 21.181 19.997 13.254 C 24.373 8.895,27.974 5.326,28.000 5.324 C 28.025 5.322,31.627 8.900,36.003 13.276 " fill="#2B2C30" stroke="none" fill-rule="evenodd"></path></svg>