<svg width="56" height="56" viewBox="0 0 56 56" fill="none" xmlns="http://www.w3.org/2000/svg"><path d="M0.607 0.088 C 0.504 0.130,0.336 0.258,0.233 0.372 C 0.048 0.578,0.046 0.728,0.023 17.886 C 0.001 33.481,0.013 35.221,0.145 35.477 C 0.443 36.052,-0.080 36.027,11.477 36.027 L 22.027 36.027 22.027 38.169 L 22.027 40.311 21.257 40.709 C 20.203 41.255,19.228 42.230,18.683 43.283 L 18.284 44.053 9.189 44.053 L 0.093 44.053 0.093 46.013 L 0.093 47.973 9.189 47.973 L 18.284 47.973 18.683 48.743 C 19.770 50.844,21.973 52.095,24.352 51.962 C 25.162 51.917,26.323 51.637,26.531 51.437 C 26.570 51.399,26.364 50.912,26.072 50.355 C 23.802 46.007,23.387 41.133,24.889 36.451 C 25.251 35.321,26.091 33.482,26.630 32.640 C 26.819 32.345,26.973 32.083,26.973 32.058 C 26.973 32.034,21.807 32.013,15.493 32.013 L 4.013 32.013 4.013 25.993 L 4.013 19.973 24.010 19.996 L 44.007 20.020 44.053 22.065 L 44.100 24.111 45.080 24.278 C 45.619 24.369,46.480 24.565,46.993 24.713 L 47.927 24.982 47.951 12.841 C 47.974 1.149,47.968 0.691,47.802 0.467 C 47.706 0.338,47.528 0.181,47.404 0.118 C 47.228 0.027,42.218 0.004,23.987 0.007 C 11.230 0.010,0.709 0.046,0.607 0.088 M44.031 10.010 L 44.007 16.007 24.010 16.030 L 4.013 16.054 4.013 10.034 L 4.013 4.013 24.034 4.013 L 44.055 4.013 44.031 10.010 M8.027 10.035 L 8.027 12.044 10.010 12.019 L 11.993 11.993 12.019 10.010 L 12.044 8.027 10.035 8.027 L 8.027 8.027 8.027 10.035 M16.053 9.987 L 16.053 11.947 28.047 11.947 L 40.040 11.947 40.040 9.987 L 40.040 8.027 28.047 8.027 L 16.053 8.027 16.053 9.987 M8.027 25.993 L 8.027 28.000 9.987 28.000 L 11.947 28.000 11.947 25.993 L 11.947 23.987 9.987 23.987 L 8.027 23.987 8.027 25.993 M16.053 25.993 L 16.053 28.000 23.367 28.000 L 30.680 28.000 31.094 27.684 C 32.571 26.556,34.675 25.458,36.451 24.889 C 37.494 24.554,39.173 24.173,39.606 24.173 C 39.736 24.173,39.868 24.131,39.900 24.080 C 39.938 24.018,35.950 23.987,28.006 23.987 L 16.053 23.987 16.053 25.993 M41.067 28.056 C 38.451 28.361,36.761 28.878,35.022 29.905 C 28.688 33.648,26.284 41.325,29.368 47.966 C 30.666 50.763,33.204 53.304,36.031 54.636 C 39.935 56.477,44.437 56.424,48.279 54.494 C 54.545 51.346,57.503 44.038,55.196 37.410 C 53.527 32.615,49.368 29.096,44.355 28.239 C 43.507 28.094,41.633 27.990,41.067 28.056 M36.848 34.107 C 36.987 34.181,38.212 35.356,39.572 36.720 L 42.044 39.199 44.662 36.586 L 47.281 33.973 47.687 33.973 C 48.075 33.973,48.134 34.014,49.011 34.875 C 49.999 35.847,50.195 36.187,50.025 36.643 C 49.970 36.792,48.783 38.057,47.387 39.456 L 44.850 41.998 47.386 44.543 C 48.791 45.952,49.969 47.210,50.026 47.363 C 50.084 47.515,50.105 47.746,50.073 47.876 C 50.041 48.007,49.588 48.544,49.066 49.070 C 48.066 50.078,47.749 50.250,47.306 50.025 C 47.186 49.964,45.942 48.774,44.543 47.381 L 42.000 44.848 39.386 47.461 L 36.772 50.073 36.349 50.073 C 35.936 50.073,35.905 50.051,34.950 49.085 C 34.010 48.133,33.973 48.081,33.973 47.689 L 33.973 47.281 36.540 44.708 C 37.952 43.293,39.107 42.094,39.107 42.044 C 39.107 41.993,37.972 40.818,36.584 39.433 C 34.028 36.880,33.858 36.665,33.957 36.120 C 33.982 35.984,34.395 35.489,34.952 34.930 C 35.818 34.061,35.937 33.973,36.251 33.973 C 36.441 33.973,36.709 34.034,36.848 34.107 " fill="#2B2C30" stroke="none" fill-rule="evenodd"></path></svg>