<svg width="56" height="56" viewBox="0 0 56 56" fill="none" xmlns="http://www.w3.org/2000/svg"><path d="M0.607 0.088 C 0.504 0.130,0.336 0.258,0.233 0.372 C 0.048 0.578,0.046 0.728,0.023 17.906 C 0.000 34.939,0.003 35.238,0.182 35.531 C 0.304 35.731,0.480 35.861,0.718 35.927 C 0.958 35.994,4.484 36.026,11.550 36.026 L 22.027 36.027 22.027 38.178 L 22.027 40.330 21.687 40.471 C 20.485 40.974,19.316 42.070,18.681 43.289 L 18.284 44.053 9.189 44.053 L 0.093 44.053 0.093 46.013 L 0.093 47.973 9.217 47.979 L 18.340 47.985 18.706 48.748 C 19.218 49.813,20.185 50.779,21.283 51.321 C 22.317 51.830,23.222 52.020,24.313 51.956 C 25.057 51.912,26.165 51.652,26.477 51.449 C 26.556 51.397,26.392 50.984,25.912 50.025 C 23.766 45.740,23.405 40.944,24.886 36.400 C 25.198 35.442,26.108 33.481,26.695 32.503 L 26.989 32.013 15.501 32.013 L 4.013 32.013 4.013 25.993 L 4.013 19.973 24.010 19.996 L 44.007 20.020 44.053 22.073 L 44.100 24.127 44.380 24.152 C 44.845 24.195,46.403 24.535,47.213 24.770 L 47.973 24.992 47.973 12.824 L 47.973 0.656 47.701 0.351 L 47.429 0.047 24.111 0.029 C 11.286 0.019,0.709 0.046,0.607 0.088 M44.031 10.010 L 44.007 16.007 24.010 16.030 L 4.013 16.054 4.013 10.034 L 4.013 4.013 24.034 4.013 L 44.055 4.013 44.031 10.010 M8.027 10.035 L 8.027 12.044 10.010 12.019 L 11.993 11.993 12.019 10.010 L 12.044 8.027 10.035 8.027 L 8.027 8.027 8.027 10.035 M16.053 9.987 L 16.053 11.947 28.000 11.947 L 39.947 11.947 39.947 9.987 L 39.947 8.027 28.000 8.027 L 16.053 8.027 16.053 9.987 M8.027 25.993 L 8.027 28.000 9.987 28.000 L 11.947 28.000 11.947 25.993 L 11.947 23.987 9.987 23.987 L 8.027 23.987 8.027 25.993 M16.053 25.993 L 16.053 28.000 23.357 28.000 L 30.661 28.000 31.350 27.488 C 33.376 25.983,36.074 24.802,38.503 24.356 C 39.117 24.244,39.704 24.117,39.807 24.075 C 39.909 24.034,34.607 23.996,28.023 23.993 L 16.053 23.987 16.053 25.993 M40.367 28.107 C 38.278 28.338,36.035 29.169,34.207 30.391 C 29.989 33.209,27.609 38.193,28.080 43.222 C 28.641 49.206,32.729 54.031,38.514 55.535 C 42.955 56.689,47.790 55.539,51.223 52.510 C 54.576 49.552,56.331 45.168,55.920 40.778 C 55.180 32.873,48.259 27.235,40.367 28.107 M50.475 35.692 C 50.824 35.874,52.319 37.425,52.403 37.691 C 52.587 38.279,52.629 38.231,46.387 44.473 L 40.413 50.447 39.993 50.447 L 39.574 50.447 35.910 46.783 L 32.247 43.120 32.247 42.697 C 32.247 42.283,32.268 42.252,33.235 41.297 C 34.187 40.357,34.239 40.320,34.631 40.320 L 35.039 40.320 37.494 42.769 L 39.949 45.217 44.638 40.533 C 47.217 37.956,49.453 35.784,49.607 35.705 C 49.955 35.526,50.152 35.523,50.475 35.692 " fill="#2B2C30" stroke="none" fill-rule="evenodd"></path></svg>