<svg width="56" height="56" viewBox="0 0 56 56" fill="none" xmlns="http://www.w3.org/2000/svg"><path d="M0.607 0.088 C 0.504 0.130,0.336 0.258,0.233 0.372 C 0.048 0.578,0.046 0.728,0.023 17.906 C 0.000 34.939,0.003 35.238,0.182 35.531 C 0.304 35.731,0.480 35.861,0.718 35.927 C 0.958 35.994,4.484 36.026,11.550 36.026 L 22.027 36.027 22.027 38.178 L 22.027 40.330 21.687 40.471 C 20.485 40.974,19.316 42.070,18.681 43.289 L 18.284 44.053 9.189 44.053 L 0.093 44.053 0.093 46.013 L 0.093 47.973 9.084 47.973 L 18.075 47.973 22.754 40.017 L 27.434 32.060 15.724 32.036 L 4.013 32.013 4.013 25.993 L 4.013 19.973 24.010 19.996 L 44.007 20.020 44.032 22.208 L 44.057 24.396 45.992 27.684 L 47.927 30.972 47.950 15.836 C 47.973 1.230,47.968 0.692,47.801 0.467 C 47.706 0.338,47.528 0.181,47.404 0.118 C 47.228 0.027,42.218 0.004,23.987 0.007 C 11.230 0.010,0.709 0.046,0.607 0.088 M44.031 10.010 L 44.007 16.007 24.010 16.030 L 4.013 16.054 4.013 10.034 L 4.013 4.013 24.034 4.013 L 44.055 4.013 44.031 10.010 M8.027 10.035 L 8.027 12.044 10.010 12.019 L 11.993 11.993 12.019 10.010 L 12.044 8.027 10.035 8.027 L 8.027 8.027 8.027 10.035 M16.053 9.987 L 16.053 11.947 28.000 11.947 L 39.947 11.947 39.947 9.987 L 39.947 8.027 28.000 8.027 L 16.053 8.027 16.053 9.987 M8.027 25.993 L 8.027 28.000 9.987 28.000 L 11.947 28.000 11.947 25.993 L 11.947 23.987 9.987 23.987 L 8.027 23.987 8.027 25.993 M16.053 25.993 L 16.053 28.000 22.940 28.000 L 29.826 28.000 30.966 26.056 C 31.593 24.987,32.107 24.084,32.107 24.049 C 32.107 24.015,28.495 23.987,24.080 23.987 L 16.053 23.987 16.053 25.993 M36.811 24.965 C 36.556 25.093,36.215 25.334,36.055 25.502 C 35.818 25.750,21.100 50.640,20.339 52.080 C 20.023 52.678,20.021 53.809,20.335 54.413 C 20.632 54.985,21.049 55.408,21.607 55.705 L 22.073 55.953 37.987 55.953 L 53.900 55.953 54.353 55.730 C 54.907 55.458,55.372 55.006,55.640 54.481 C 55.888 53.996,55.976 52.998,55.815 52.490 C 55.650 51.965,40.437 26.102,39.997 25.597 C 39.471 24.994,38.866 24.735,37.982 24.734 C 37.417 24.734,37.184 24.779,36.811 24.965 M39.947 37.987 L 39.947 43.960 37.987 43.960 L 36.027 43.960 36.027 37.987 L 36.027 32.013 37.987 32.013 L 39.947 32.013 39.947 37.987 M39.129 47.618 C 39.690 47.860,40.345 48.572,40.545 49.157 C 40.871 50.114,40.663 51.129,39.987 51.880 C 38.422 53.621,35.516 52.648,35.306 50.313 C 35.247 49.660,35.385 49.142,35.771 48.568 C 36.525 47.447,37.856 47.071,39.129 47.618 " fill="#2B2C30" stroke="none" fill-rule="evenodd"></path></svg>