<svg width="55" height="54" viewBox="0 0 55 54" fill="none" xmlns="http://www.w3.org/2000/svg"><path d="M0.528 0.143 C -0.038 0.451,-0.000 -0.825,0.000 18.004 C 0.000 30.797,0.027 35.251,0.106 35.424 C 0.164 35.551,0.319 35.729,0.450 35.817 C 0.673 35.969,1.337 35.981,11.344 36.004 L 22.000 36.028 22.000 38.173 L 22.000 40.317 21.290 40.666 C 20.294 41.154,19.154 42.294,18.666 43.290 L 18.317 44.000 9.159 44.000 L 0.000 44.000 0.000 45.971 L 0.000 47.942 9.156 47.942 L 18.313 47.942 18.635 48.606 C 19.698 50.798,21.915 52.099,24.330 51.948 C 25.071 51.902,26.157 51.646,26.467 51.444 C 26.550 51.390,26.413 51.041,25.957 50.137 C 24.642 47.531,24.017 44.915,24.017 42.013 C 24.017 38.717,24.900 35.469,26.522 32.800 C 26.757 32.413,26.950 32.073,26.950 32.044 C 26.950 32.015,21.794 31.992,15.492 31.992 L 4.033 31.992 4.033 25.987 L 4.033 19.983 24.017 19.983 L 44.000 19.983 44.000 22.046 C 44.000 23.180,44.036 24.108,44.080 24.108 C 44.433 24.108,46.415 24.525,47.117 24.747 C 47.596 24.898,47.999 25.022,48.012 25.023 C 48.026 25.024,48.026 19.549,48.012 12.856 C 47.989 1.405,47.978 0.673,47.826 0.450 C 47.737 0.319,47.560 0.164,47.432 0.106 C 47.258 0.027,41.341 0.001,23.989 0.004 C 3.639 0.007,0.748 0.024,0.528 0.143 M44.000 10.037 L 44.000 16.042 24.017 16.042 L 4.033 16.042 4.033 10.037 L 4.033 4.033 24.017 4.033 L 44.000 4.033 44.000 10.037 M7.975 9.992 L 7.975 12.008 9.992 12.008 L 12.008 12.008 12.008 9.992 L 12.008 7.975 9.992 7.975 L 7.975 7.975 7.975 9.992 M16.042 9.992 L 16.042 12.008 28.004 12.008 L 39.967 12.008 39.967 9.992 L 39.967 7.975 28.004 7.975 L 16.042 7.975 16.042 9.992 M7.975 25.987 L 7.975 27.958 9.992 27.958 L 12.008 27.958 12.008 25.987 L 12.008 24.017 9.992 24.017 L 7.975 24.017 7.975 25.987 M16.042 25.987 L 16.042 27.958 23.376 27.958 L 30.710 27.958 31.374 27.470 C 33.388 25.987,35.698 24.948,38.105 24.440 C 38.700 24.314,39.373 24.173,39.600 24.125 C 39.868 24.069,35.801 24.035,28.027 24.028 L 16.042 24.017 16.042 25.987 M45.762 29.064 C 44.934 29.165,43.588 29.608,42.837 30.027 C 39.556 31.859,37.949 35.690,38.925 39.352 L 39.090 39.972 34.866 44.209 C 32.543 46.539,30.553 48.598,30.443 48.783 C 30.333 48.969,30.182 49.413,30.107 49.771 C 29.771 51.383,30.557 52.941,32.065 53.654 C 32.615 53.914,32.766 53.945,33.504 53.943 C 34.215 53.942,34.412 53.904,34.925 53.675 C 35.475 53.429,35.852 53.079,39.787 49.162 L 44.054 44.915 44.783 45.112 C 45.743 45.373,47.674 45.398,48.617 45.163 C 52.208 44.267,54.687 41.363,54.967 37.726 C 55.028 36.922,54.880 35.529,54.682 35.055 C 54.531 34.693,54.268 34.596,53.927 34.777 C 53.786 34.852,52.599 35.988,51.288 37.302 C 49.433 39.162,48.854 39.692,48.675 39.692 C 48.344 39.692,44.275 35.624,44.275 35.293 C 44.275 35.119,44.859 34.481,46.796 32.540 C 49.410 29.919,49.504 29.796,49.148 29.440 C 48.831 29.123,46.973 28.917,45.762 29.064 " fill="#2B2C30" stroke="none" fill-rule="evenodd"></path></svg>