<svg width="32" height="56" viewBox="0 0 32 56" fill="none" xmlns="http://www.w3.org/2000/svg"><path d="M15.045 0.056 C 13.304 0.274,11.744 1.026,10.461 2.266 C 10.157 2.560,9.756 3.003,9.570 3.250 C 8.916 4.120,8.353 5.401,8.124 6.542 C 7.981 7.255,7.995 8.855,8.151 9.565 C 8.322 10.345,8.555 10.991,8.911 11.679 C 10.021 13.818,12.053 15.352,14.428 15.840 C 14.712 15.899,15.032 15.951,15.139 15.957 C 15.246 15.963,14.325 15.983,13.093 16.001 C 10.621 16.038,10.255 16.074,8.961 16.406 C 4.802 17.471,1.472 20.802,0.405 24.963 C 0.030 26.427,0.027 26.477,0.027 30.694 L 0.027 34.482 0.200 34.833 C 0.408 35.257,0.790 35.631,1.215 35.830 C 1.474 35.950,1.592 35.972,2.000 35.972 C 2.408 35.972,2.526 35.950,2.785 35.830 C 3.210 35.632,3.592 35.257,3.800 34.834 L 3.973 34.483 4.006 31.708 C 4.036 29.111,4.046 28.899,4.156 28.400 C 4.396 27.312,4.854 26.255,5.448 25.415 C 5.812 24.900,6.706 23.959,7.088 23.687 C 7.409 23.459,7.671 23.458,7.862 23.684 L 8.000 23.848 8.001 39.511 C 8.002 54.591,8.006 55.181,8.100 55.389 C 8.219 55.650,8.469 55.870,8.736 55.949 C 8.862 55.986,9.378 56.001,10.164 55.990 L 11.395 55.973 11.616 55.827 C 12.048 55.540,11.960 56.158,12.932 46.684 C 13.416 41.966,13.835 37.970,13.863 37.803 C 13.979 37.111,14.542 36.408,15.183 36.154 C 15.623 35.979,16.376 35.979,16.815 36.153 C 17.452 36.406,18.023 37.119,18.138 37.806 C 18.165 37.971,18.584 41.966,19.068 46.684 C 20.041 56.158,19.952 55.541,20.384 55.827 L 20.605 55.973 21.836 55.990 C 22.622 56.001,23.138 55.986,23.264 55.949 C 23.531 55.870,23.781 55.650,23.900 55.389 C 23.994 55.181,23.998 54.591,23.999 39.511 L 24.000 23.848 24.138 23.684 C 24.329 23.458,24.591 23.459,24.912 23.687 C 25.294 23.959,26.188 24.900,26.552 25.415 C 27.142 26.249,27.603 27.316,27.845 28.407 C 27.954 28.898,27.964 29.118,27.994 31.708 L 28.027 34.483 28.200 34.834 C 28.408 35.257,28.790 35.632,29.215 35.830 C 29.474 35.950,29.592 35.972,30.000 35.972 C 30.408 35.972,30.526 35.950,30.785 35.830 C 31.210 35.631,31.592 35.257,31.800 34.833 L 31.973 34.482 31.973 30.694 C 31.973 26.477,31.970 26.427,31.595 24.963 C 30.529 20.804,27.196 17.471,23.039 16.406 C 21.745 16.074,21.379 16.038,18.907 16.001 C 17.675 15.983,16.754 15.963,16.861 15.957 C 17.876 15.903,19.396 15.342,20.479 14.621 C 21.049 14.242,21.987 13.341,22.430 12.748 C 23.091 11.864,23.647 10.598,23.876 9.458 C 24.020 8.743,24.005 7.145,23.848 6.431 C 23.596 5.284,23.074 4.114,22.430 3.252 C 21.986 2.657,21.047 1.757,20.479 1.380 C 19.582 0.786,18.597 0.367,17.611 0.158 C 17.010 0.032,15.666 -0.022,15.045 0.056 M17.013 4.130 C 17.175 4.174,17.535 4.322,17.813 4.460 C 18.238 4.671,18.398 4.789,18.807 5.198 C 19.233 5.624,19.327 5.753,19.564 6.242 C 19.983 7.107,20.087 7.848,19.916 8.754 C 19.672 10.045,18.682 11.251,17.491 11.707 C 15.450 12.489,13.293 11.621,12.381 9.650 C 12.096 9.034,12.028 8.716,12.028 8.000 C 12.028 7.272,12.096 6.962,12.397 6.320 C 12.955 5.130,14.049 4.286,15.337 4.053 C 15.694 3.988,16.654 4.032,17.013 4.130 M19.343 20.057 C 19.547 20.133,19.837 20.416,19.926 20.625 C 19.987 20.767,20.000 21.692,20.000 25.995 C 20.000 29.531,19.982 31.241,19.943 31.343 C 19.867 31.547,19.584 31.837,19.375 31.926 C 19.122 32.035,12.878 32.035,12.625 31.926 C 12.416 31.837,12.133 31.547,12.057 31.343 C 12.018 31.241,12.000 29.531,12.000 25.995 C 12.000 20.347,11.986 20.612,12.299 20.299 C 12.602 19.997,12.509 20.004,15.983 20.002 C 18.122 20.001,19.243 20.019,19.343 20.057 " fill="#2B2C30" stroke="none" fill-rule="evenodd"></path></svg>