<svg width="32" height="56" viewBox="0 0 32 56" fill="none" xmlns="http://www.w3.org/2000/svg"><path d="M15.067 0.061 C 12.210 0.377,9.615 2.384,8.560 5.093 C 7.739 7.202,7.847 9.549,8.857 11.577 C 9.049 11.963,9.463 12.614,9.773 13.018 L 9.918 13.208 9.506 13.388 C 9.279 13.487,8.808 13.721,8.460 13.908 C 4.158 16.218,1.141 20.353,0.270 25.131 C 0.027 26.465,0.027 26.495,0.027 34.694 L 0.027 42.482 0.200 42.833 C 0.408 43.256,0.789 43.631,1.215 43.830 L 1.520 43.973 3.747 43.989 L 5.973 44.005 5.973 42.003 L 5.973 40.000 4.987 40.000 L 4.000 40.000 4.000 33.686 C 4.000 29.685,4.020 27.169,4.056 26.819 C 4.471 22.698,7.014 19.050,10.747 17.222 C 14.064 15.597,17.936 15.597,21.253 17.222 C 23.185 18.168,24.840 19.626,26.041 21.440 C 26.780 22.556,27.445 24.137,27.729 25.456 C 27.993 26.681,28.000 26.896,28.000 33.666 L 28.000 40.000 27.013 40.000 L 26.027 40.000 26.027 42.003 L 26.027 44.005 28.253 43.989 L 30.480 43.973 30.785 43.830 C 31.211 43.631,31.592 43.256,31.800 42.833 L 31.973 42.482 31.973 34.694 C 31.973 26.495,31.973 26.465,31.730 25.131 C 31.112 21.742,29.430 18.681,26.867 16.285 C 25.637 15.134,23.976 14.034,22.494 13.388 L 22.082 13.208 22.227 13.018 C 22.847 12.210,23.273 11.417,23.575 10.513 C 23.879 9.604,23.967 9.039,23.967 8.000 C 23.967 6.961,23.879 6.396,23.575 5.487 C 23.179 4.302,22.598 3.349,21.715 2.442 C 19.965 0.641,17.572 -0.216,15.067 0.061 M17.040 4.133 C 17.216 4.181,17.564 4.319,17.813 4.440 C 18.192 4.625,18.355 4.749,18.803 5.197 C 19.251 5.645,19.375 5.808,19.560 6.187 C 19.889 6.864,19.969 7.218,19.969 8.000 C 19.969 8.782,19.889 9.136,19.560 9.813 C 19.375 10.192,19.251 10.355,18.803 10.803 C 18.355 11.251,18.192 11.375,17.813 11.560 C 17.136 11.889,16.782 11.969,16.000 11.969 C 15.218 11.969,14.864 11.889,14.187 11.560 C 13.808 11.375,13.645 11.251,13.197 10.803 C 12.749 10.355,12.625 10.192,12.440 9.813 C 12.111 9.136,12.031 8.782,12.031 8.000 C 12.031 7.219,12.111 6.860,12.438 6.195 C 12.597 5.870,12.770 5.630,13.077 5.305 C 13.717 4.629,14.329 4.273,15.173 4.085 C 15.632 3.983,16.572 4.007,17.040 4.133 M9.533 28.055 C 8.962 28.199,8.457 28.621,8.192 29.173 L 8.027 29.520 8.012 40.933 C 7.996 53.456,7.978 52.716,8.310 53.532 C 8.685 54.452,9.547 55.315,10.467 55.689 C 11.233 56.001,11.220 56.000,16.011 55.999 C 20.698 55.998,20.721 55.997,21.433 55.731 C 22.386 55.374,23.304 54.479,23.690 53.530 C 24.021 52.717,24.004 53.454,23.988 40.933 L 23.973 29.520 23.808 29.173 C 23.598 28.734,23.269 28.406,22.827 28.194 C 22.518 28.045,22.428 28.027,22.000 28.027 C 21.572 28.027,21.482 28.045,21.173 28.194 C 20.731 28.406,20.402 28.734,20.192 29.173 L 20.027 29.520 20.013 40.760 L 19.999 52.000 16.000 52.000 L 12.001 52.000 11.987 40.760 L 11.973 29.520 11.823 29.194 C 11.633 28.785,11.219 28.370,10.813 28.185 C 10.470 28.029,9.875 27.968,9.533 28.055 " fill="#2B2C30" stroke="none" fill-rule="evenodd"></path></svg>