<svg width="56" height="56" viewBox="0 0 56 56" fill="none" xmlns="http://www.w3.org/2000/svg"><path d="M25.807 0.089 C 18.969 0.709,12.934 3.496,8.215 8.215 C 3.793 12.637,1.104 18.133,0.221 24.547 C 0.022 25.995,-0.006 29.757,0.173 31.080 C 0.710 35.062,1.775 38.449,3.416 41.393 C 9.973 53.159,23.428 58.627,36.254 54.740 C 42.315 52.903,47.736 48.851,51.280 43.510 C 53.837 39.655,55.245 35.780,55.830 30.987 C 55.985 29.724,55.985 26.276,55.830 25.013 C 55.361 21.170,54.294 17.733,52.628 14.700 C 48.207 6.651,40.528 1.410,31.422 0.227 C 30.159 0.063,26.962 -0.016,25.807 0.089 M30.387 4.112 C 32.529 4.319,35.123 4.968,37.101 5.792 C 40.168 7.068,42.554 8.671,44.942 11.058 C 48.769 14.886,50.988 19.347,51.814 24.873 C 51.896 25.417,51.938 26.554,51.935 28.093 C 51.931 30.114,51.899 30.656,51.722 31.687 C 50.808 37.021,48.657 41.226,44.942 44.942 C 41.114 48.769,36.653 50.988,31.127 51.814 C 30.000 51.983,26.000 51.983,24.873 51.814 C 21.371 51.291,18.267 50.186,15.457 48.464 C 12.413 46.597,9.403 43.588,7.536 40.543 C 2.831 32.869,2.831 23.131,7.536 15.457 C 9.403 12.413,12.413 9.403,15.457 7.536 C 18.423 5.718,22.134 4.452,25.480 4.117 C 26.641 4.001,29.214 3.999,30.387 4.112 M27.414 13.070 C 26.579 13.211,25.684 13.910,25.273 14.743 C 25.103 15.086,25.064 15.326,25.063 16.007 C 25.062 16.739,25.094 16.908,25.312 17.323 C 25.643 17.953,26.385 18.610,26.999 18.819 C 28.044 19.173,29.157 18.951,29.962 18.227 C 31.229 17.088,31.340 15.268,30.219 14.041 C 29.474 13.226,28.497 12.888,27.414 13.070 M27.415 24.111 C 26.918 24.265,26.423 24.691,26.219 25.142 C 26.052 25.509,26.044 25.922,26.042 34.029 L 26.040 42.531 26.257 42.942 C 26.377 43.168,26.653 43.479,26.872 43.633 C 27.232 43.887,27.339 43.913,28.000 43.913 C 28.661 43.913,28.768 43.887,29.128 43.633 C 29.347 43.479,29.623 43.168,29.743 42.942 L 29.960 42.531 29.958 34.029 C 29.956 25.960,29.947 25.507,29.783 25.147 C 29.565 24.665,29.027 24.219,28.507 24.088 C 28.020 23.966,27.871 23.969,27.415 24.111 " fill="#2B2C30" stroke="none" fill-rule="evenodd"></path></svg>