<svg width="48" height="48" viewBox="0 0 48 48" fill="none" xmlns="http://www.w3.org/2000/svg"><path d="M9.000 0.050 C 6.701 0.300,4.594 1.311,2.953 2.953 C 0.409 5.496,-0.555 9.085,0.360 12.600 C 0.782 14.221,1.699 15.794,2.953 17.047 C 4.295 18.390,5.905 19.292,7.760 19.742 L 8.040 19.810 8.085 25.685 C 8.124 30.919,8.144 31.624,8.270 32.150 C 9.274 36.355,12.637 39.389,16.878 39.916 C 17.291 39.967,19.635 40.000,22.880 40.000 L 28.204 40.000 28.308 40.460 C 28.366 40.713,28.552 41.271,28.723 41.701 C 29.824 44.468,32.091 46.588,34.931 47.508 C 36.054 47.872,36.650 47.960,38.000 47.960 C 39.350 47.960,39.946 47.872,41.069 47.508 C 42.501 47.045,43.723 46.323,44.816 45.296 C 46.296 43.905,47.226 42.304,47.739 40.262 C 47.933 39.489,47.955 39.256,47.955 38.000 C 47.955 36.744,47.933 36.511,47.739 35.738 C 46.960 32.638,45.070 30.320,42.207 28.953 C 38.085 26.985,33.052 28.183,30.149 31.823 C 29.320 32.862,28.575 34.367,28.308 35.540 L 28.204 36.000 22.802 35.999 C 16.993 35.997,16.873 35.990,15.843 35.574 C 15.051 35.254,14.485 34.878,13.836 34.240 C 12.800 33.223,12.239 32.031,12.078 30.507 C 12.026 30.023,12.003 27.814,12.017 24.767 L 12.040 19.813 12.240 19.754 C 14.446 19.103,15.695 18.400,17.047 17.047 C 18.486 15.609,19.370 13.964,19.807 11.917 C 20.007 10.980,20.007 9.020,19.807 8.083 C 19.370 6.036,18.486 4.391,17.047 2.953 C 15.638 1.543,14.047 0.672,12.080 0.234 C 11.410 0.084,9.652 -0.021,9.000 0.050 M11.560 4.200 C 13.147 4.629,14.630 5.848,15.355 7.320 C 15.832 8.288,15.954 8.834,15.954 10.000 C 15.954 11.166,15.832 11.712,15.355 12.680 C 14.623 14.167,13.153 15.367,11.520 15.812 C 10.803 16.008,9.197 16.008,8.480 15.812 C 6.847 15.367,5.377 14.166,4.645 12.680 C 4.240 11.858,4.085 11.265,4.026 10.317 C 3.845 7.400,5.853 4.774,8.760 4.127 C 9.448 3.974,10.859 4.011,11.560 4.200 M39.131 32.124 C 39.589 32.209,40.064 32.376,40.637 32.654 C 41.370 33.009,41.564 33.150,42.207 33.793 C 42.850 34.436,42.991 34.630,43.346 35.363 C 44.209 37.145,44.214 38.845,43.361 40.606 C 42.723 41.923,41.587 43.009,40.299 43.534 C 37.332 44.742,34.021 43.476,32.642 40.606 C 32.144 39.569,32.042 39.126,32.042 38.000 C 32.042 36.867,32.143 36.431,32.657 35.363 C 33.012 34.625,33.145 34.441,33.790 33.800 C 34.342 33.251,34.676 32.993,35.160 32.744 C 36.536 32.036,37.687 31.856,39.131 32.124 " fill="#2B2C30" stroke="none" fill-rule="evenodd"></path></svg>