<svg width="56" height="36" viewBox="0 0 56 36" fill="none" xmlns="http://www.w3.org/2000/svg"><path d="M3.010 0.144 C 1.598 0.524,0.504 1.617,0.130 3.019 C 0.024 3.417,0.002 6.019,0.001 18.028 C 0.000 31.998,0.007 32.578,0.176 33.122 C 0.519 34.225,1.235 35.087,2.251 35.622 L 2.753 35.887 27.953 35.887 L 53.153 35.887 53.687 35.637 C 54.316 35.342,55.080 34.657,55.412 34.090 C 55.542 33.868,55.727 33.432,55.824 33.122 C 55.993 32.578,56.000 31.996,56.000 18.013 C 56.000 4.031,55.993 3.448,55.824 2.905 C 55.586 2.139,55.264 1.616,54.714 1.102 C 54.174 0.596,53.690 0.332,52.950 0.140 C 52.164 -0.065,3.770 -0.061,3.010 0.144 M51.987 18.013 L 51.987 32.013 28.000 32.013 L 4.013 32.013 4.013 18.013 L 4.013 4.013 28.000 4.013 L 51.987 4.013 51.987 18.013 M8.461 8.218 C 8.327 8.324,8.170 8.569,8.112 8.763 C 7.968 9.246,8.037 11.275,8.207 11.536 C 8.499 11.985,8.546 11.992,11.779 12.021 C 15.199 12.053,15.486 12.019,15.781 11.545 C 15.948 11.277,15.964 11.110,15.940 9.909 L 15.913 8.571 15.609 8.299 L 15.304 8.027 12.004 8.027 C 8.818 8.027,8.697 8.033,8.461 8.218 M20.408 8.218 C 20.045 8.504,19.948 8.969,19.989 10.228 C 20.043 11.863,20.148 11.970,21.749 12.023 C 23.810 12.091,23.986 11.929,23.986 9.954 L 23.987 8.661 23.669 8.344 L 23.352 8.027 22.002 8.027 C 20.781 8.027,20.628 8.045,20.408 8.218 M28.351 8.299 L 28.047 8.571 28.020 9.909 C 27.996 11.110,28.012 11.277,28.179 11.545 C 28.436 11.958,28.905 12.067,30.238 12.023 C 31.426 11.984,31.644 11.903,31.873 11.420 C 32.070 11.006,32.070 8.967,31.874 8.588 C 31.609 8.076,31.444 8.027,29.987 8.027 L 28.656 8.027 28.351 8.299 M36.504 8.157 C 36.097 8.382,36.034 8.635,36.030 10.044 C 36.026 11.545,36.110 11.764,36.754 11.943 C 37.201 12.067,38.772 12.067,39.219 11.943 C 39.865 11.763,39.947 11.548,39.947 10.015 C 39.947 9.269,39.904 8.588,39.851 8.488 C 39.652 8.117,39.280 8.026,37.968 8.030 C 37.118 8.032,36.656 8.072,36.504 8.157 M44.450 8.212 C 44.283 8.314,44.137 8.408,44.126 8.422 C 44.115 8.436,44.083 10.148,44.056 12.227 L 44.007 16.007 42.248 16.053 L 40.490 16.100 40.265 16.362 C 40.049 16.613,40.040 16.679,40.040 18.026 L 40.040 19.428 40.313 19.701 L 40.586 19.973 43.976 19.971 C 47.658 19.969,47.596 19.978,47.869 19.443 C 47.942 19.300,47.973 17.675,47.973 14.002 C 47.973 8.319,47.978 8.373,47.463 8.138 C 47.312 8.070,46.743 8.027,45.986 8.027 C 44.922 8.027,44.712 8.053,44.450 8.212 M8.434 16.219 C 8.081 16.505,8.027 16.746,8.027 18.013 C 8.027 19.915,8.081 19.968,10.017 19.971 L 11.401 19.973 11.674 19.701 L 11.947 19.428 11.947 18.013 L 11.947 16.599 11.674 16.326 L 11.401 16.053 10.017 16.055 C 8.847 16.057,8.603 16.082,8.434 16.219 M16.326 16.326 L 16.053 16.599 16.053 18.013 L 16.053 19.428 16.326 19.701 L 16.599 19.973 17.983 19.971 C 19.919 19.968,19.973 19.915,19.973 18.013 C 19.973 16.111,19.919 16.058,17.983 16.055 L 16.599 16.053 16.326 16.326 M24.338 16.326 L 24.033 16.598 24.033 18.013 L 24.033 19.429 24.338 19.701 L 24.643 19.973 25.944 19.973 C 27.399 19.973,27.641 19.908,27.856 19.456 C 28.059 19.027,28.059 17.000,27.856 16.570 C 27.641 16.119,27.399 16.053,25.944 16.053 L 24.643 16.053 24.338 16.326 M32.421 16.219 C 32.068 16.505,32.013 16.746,32.013 18.013 C 32.013 19.911,32.071 19.968,33.976 19.971 C 35.490 19.974,35.662 19.919,35.897 19.357 C 36.073 18.934,36.073 17.092,35.897 16.669 C 35.662 16.108,35.490 16.053,33.976 16.055 C 32.832 16.057,32.589 16.083,32.421 16.219 M8.709 24.090 C 8.546 24.137,8.325 24.286,8.219 24.420 C 8.046 24.641,8.027 24.793,8.027 25.955 C 8.027 27.928,8.095 28.000,9.987 28.000 C 11.278 28.000,11.653 27.907,11.851 27.539 C 11.904 27.439,11.947 26.757,11.947 26.012 C 11.947 24.479,11.865 24.263,11.219 24.084 C 10.798 23.967,9.120 23.971,8.709 24.090 M16.736 24.090 C 16.572 24.137,16.352 24.286,16.246 24.420 C 16.072 24.642,16.053 24.793,16.053 26.012 C 16.053 26.757,16.096 27.439,16.149 27.539 C 16.406 28.018,15.933 28.000,28.000 28.000 C 40.067 28.000,39.594 28.018,39.851 27.539 C 39.904 27.439,39.947 26.757,39.947 26.012 C 39.947 24.479,39.865 24.263,39.219 24.084 C 38.774 23.960,17.164 23.966,16.736 24.090 M44.736 24.090 C 44.572 24.137,44.352 24.286,44.246 24.420 C 44.072 24.642,44.053 24.793,44.053 26.012 C 44.053 26.757,44.096 27.439,44.149 27.539 C 44.346 27.907,44.722 28.000,46.004 28.000 C 47.905 28.000,47.973 27.929,47.973 25.964 C 47.973 24.484,47.887 24.262,47.246 24.084 C 46.825 23.967,45.147 23.971,44.736 24.090 " fill="#2B2C30" stroke="none" fill-rule="evenodd"></path></svg>