<svg width="48" height="36" viewBox="0 0 48 36" fill="none" xmlns="http://www.w3.org/2000/svg"><path d="M4.504 0.157 C 3.961 0.488,4.000 -0.592,4.000 14.016 C 4.001 26.991,4.004 27.245,4.157 27.496 C 4.491 28.044,2.772 28.000,24.016 28.000 C 42.941 27.999,43.244 27.997,43.496 27.843 C 44.039 27.512,44.000 28.590,44.000 14.000 C 44.000 -0.590,44.039 0.488,43.496 0.157 C 43.244 0.003,42.942 0.001,24.000 0.001 C 5.058 0.001,4.756 0.003,4.504 0.157 M40.000 14.000 L 40.000 24.000 24.000 24.000 L 8.000 24.000 8.000 14.000 L 8.000 4.000 24.000 4.000 L 40.000 4.000 40.000 14.000 M0.504 32.157 C 0.061 32.427,0.000 32.650,-0.000 34.000 C -0.000 35.350,0.061 35.573,0.504 35.843 C 0.756 35.997,1.091 35.999,24.000 35.999 C 46.909 35.999,47.244 35.997,47.496 35.843 C 47.939 35.573,48.000 35.350,48.000 34.000 C 48.000 32.650,47.939 32.427,47.496 32.157 C 47.244 32.003,46.909 32.001,24.000 32.001 C 1.091 32.001,0.756 32.003,0.504 32.157 " fill="#2B2C30" stroke="none" fill-rule="evenodd"></path></svg>