<svg width="48" height="48" viewBox="0 0 48 48" fill="none" xmlns="http://www.w3.org/2000/svg"><path d="M28.000 6.000 L 28.000 12.000 24.356 12.000 C 20.307 12.000,20.333 11.997,20.114 12.523 C 19.962 12.885,19.970 13.189,20.140 13.497 C 20.384 13.939,29.589 23.900,29.804 23.954 C 29.912 23.981,30.088 23.981,30.196 23.954 C 30.411 23.900,39.616 13.939,39.860 13.497 C 39.937 13.357,40.000 13.134,40.000 13.001 C 40.000 12.670,39.761 12.223,39.520 12.102 C 39.369 12.027,38.425 12.002,35.660 12.001 L 32.000 12.000 32.000 6.000 L 32.000 0.000 30.000 0.000 L 28.000 0.000 28.000 6.000 M4.504 12.157 C 3.961 12.488,4.000 11.408,4.000 26.016 C 4.001 38.991,4.004 39.245,4.157 39.496 C 4.491 40.044,2.772 40.000,24.016 40.000 C 42.941 39.999,43.244 39.997,43.496 39.843 C 44.029 39.518,44.000 39.998,44.000 31.604 L 44.000 24.000 42.000 24.000 L 40.000 24.000 40.000 30.000 L 40.000 36.000 23.920 36.000 L 7.840 36.000 7.840 26.000 L 7.840 16.000 11.920 16.000 L 16.000 16.000 16.000 14.000 L 16.000 12.000 10.380 12.000 C 4.947 12.001,4.751 12.006,4.504 12.157 M0.504 44.157 C 0.061 44.427,0.000 44.650,-0.000 46.000 C -0.000 47.350,0.061 47.573,0.504 47.843 C 0.756 47.997,1.091 47.999,24.000 47.999 C 46.909 47.999,47.244 47.997,47.496 47.843 C 47.939 47.573,48.000 47.350,48.000 46.000 C 48.000 44.650,47.939 44.427,47.496 44.157 C 47.244 44.003,46.909 44.001,24.000 44.001 C 1.091 44.001,0.756 44.003,0.504 44.157 " fill="#2B2C30" stroke="none" fill-rule="evenodd"></path></svg>