<svg width="56" height="48" viewBox="0 0 56 48" fill="none" xmlns="http://www.w3.org/2000/svg"><path d="M4.610 0.091 C 4.501 0.135,4.323 0.285,4.213 0.425 L 4.013 0.679 4.013 12.015 L 4.013 23.352 4.331 23.669 L 4.648 23.987 10.353 23.987 L 16.057 23.987 16.032 22.003 L 16.007 20.020 12.017 19.996 L 8.027 19.971 8.027 11.992 L 8.027 4.013 20.020 4.013 L 32.013 4.013 32.013 8.029 L 32.013 12.044 33.997 12.019 L 35.980 11.993 36.007 6.533 C 36.026 2.766,36.003 0.963,35.932 0.719 C 35.864 0.484,35.730 0.303,35.532 0.183 C 35.239 0.004,34.940 0.001,20.020 0.006 C 11.653 0.009,4.718 0.048,4.610 0.091 M20.751 16.025 C 20.458 16.082,20.099 16.476,20.031 16.813 C 19.999 16.973,19.973 22.034,19.973 28.061 C 19.973 39.867,19.956 39.448,20.451 39.794 C 20.650 39.934,21.973 39.947,35.950 39.947 C 47.599 39.947,51.289 39.920,51.476 39.835 C 52.012 39.591,51.987 40.184,51.986 27.981 C 51.986 17.025,51.982 16.746,51.805 16.456 C 51.683 16.256,51.507 16.126,51.268 16.060 C 50.925 15.964,21.234 15.931,20.751 16.025 M47.973 28.000 L 47.973 36.027 36.003 36.004 L 24.033 35.980 24.009 27.977 L 23.986 19.973 35.979 19.973 L 47.973 19.973 47.973 28.000 M0.351 28.272 L 0.047 28.544 0.020 29.882 C -0.004 31.082,0.012 31.251,0.178 31.518 C 0.302 31.716,0.482 31.848,0.718 31.914 C 0.954 31.979,3.580 32.012,8.517 32.013 L 15.960 32.013 15.960 30.007 L 15.960 28.000 8.308 28.000 L 0.656 28.000 0.351 28.272 M16.576 44.103 C 16.087 44.358,16.060 44.455,16.056 45.976 C 16.053 47.339,16.061 47.394,16.279 47.629 C 16.403 47.763,16.602 47.896,16.722 47.925 C 16.842 47.954,25.602 47.967,36.188 47.952 L 55.436 47.927 55.695 47.668 C 55.949 47.414,55.954 47.388,55.984 46.114 C 56.008 45.068,55.985 44.762,55.865 44.530 C 55.547 43.915,57.112 43.960,36.008 43.961 C 19.073 43.961,16.815 43.978,16.576 44.103 " fill="#2B2C30" stroke="none" fill-rule="evenodd"></path></svg>