<svg width="48" height="56" viewBox="0 0 48 56" fill="none" xmlns="http://www.w3.org/2000/svg"><path d="M45.320 0.129 C 45.144 0.194,41.436 2.873,37.080 6.084 C 31.376 10.289,29.115 11.913,29.000 11.888 C 28.912 11.869,22.780 10.980,15.373 9.912 C 2.955 8.122,1.877 7.978,1.533 8.068 C 1.015 8.203,0.567 8.535,0.282 8.996 C 0.072 9.335,0.040 9.463,0.040 9.954 L 0.040 10.520 3.852 19.400 L 7.664 28.280 7.163 28.800 C 5.619 30.405,4.772 31.868,4.269 33.800 C 4.062 34.599,4.041 34.802,4.043 36.000 C 4.044 37.186,4.068 37.409,4.271 38.200 C 4.697 39.850,5.410 41.201,6.557 42.532 C 8.934 45.289,12.657 47.155,17.080 47.807 C 18.759 48.055,21.705 48.033,23.180 47.763 C 23.367 47.729,23.520 47.716,23.520 47.734 C 23.520 47.845,23.205 48.348,22.870 48.770 C 21.930 49.957,20.197 51.051,17.886 51.915 C 16.872 52.295,16.568 52.502,16.262 53.023 C 16.073 53.344,16.040 53.488,16.040 54.000 C 16.040 54.512,16.073 54.656,16.262 54.977 C 16.626 55.596,17.313 56.000,18.002 56.000 C 18.644 56.000,21.133 54.986,22.573 54.138 C 25.600 52.356,27.403 49.993,27.888 47.174 C 27.958 46.770,28.020 46.434,28.027 46.427 C 28.034 46.419,28.436 46.215,28.920 45.972 C 32.510 44.173,34.884 41.464,35.730 38.200 C 35.937 37.400,35.958 37.195,35.959 35.945 L 35.960 34.570 41.280 33.241 C 44.206 32.510,46.753 31.839,46.940 31.749 C 47.127 31.659,47.387 31.456,47.518 31.297 C 48.033 30.673,48.000 31.713,48.000 16.000 C 48.000 -0.062,48.051 1.247,47.395 0.591 C 46.859 0.055,46.030 -0.129,45.320 0.129 M44.000 17.221 L 44.000 28.441 39.237 29.631 C 36.617 30.285,34.465 30.807,34.454 30.790 C 32.070 27.209,27.760 24.811,22.520 24.149 C 21.498 24.019,18.509 24.017,17.520 24.145 C 15.400 24.419,13.359 24.978,11.647 25.754 C 11.342 25.892,11.067 25.977,11.035 25.943 C 10.955 25.856,5.262 12.550,5.294 12.524 C 5.308 12.512,10.756 13.290,17.400 14.254 C 25.603 15.444,29.612 15.994,29.891 15.970 C 30.117 15.950,30.412 15.876,30.548 15.806 C 30.683 15.737,33.751 13.502,37.367 10.840 C 40.983 8.178,43.954 6.000,43.970 6.000 C 43.987 6.000,44.000 11.049,44.000 17.221 M21.520 28.081 C 24.132 28.306,26.525 29.100,28.480 30.390 C 29.382 30.985,30.589 32.191,31.078 32.984 C 31.289 33.328,31.572 33.922,31.707 34.304 C 31.930 34.938,31.952 35.089,31.952 36.000 C 31.952 36.911,31.930 37.062,31.707 37.696 C 31.259 38.968,30.384 40.138,29.137 41.132 C 28.559 41.593,27.461 42.290,27.406 42.231 C 27.390 42.214,27.268 41.957,27.134 41.660 C 26.578 40.429,25.477 39.116,24.210 38.173 C 23.361 37.541,22.868 37.230,21.280 36.321 C 19.153 35.104,18.427 34.503,18.017 33.617 C 17.741 33.021,17.672 31.749,17.873 30.964 C 18.168 29.812,18.930 28.730,19.795 28.234 C 20.251 27.972,20.256 27.972,21.520 28.081 M14.206 29.220 C 13.486 31.693,13.554 33.532,14.434 35.400 C 15.229 37.087,16.445 38.175,19.440 39.878 C 21.752 41.192,22.705 41.955,23.300 42.966 C 23.465 43.247,23.600 43.515,23.600 43.563 C 23.600 43.737,21.445 43.996,19.977 43.999 C 15.940 44.005,12.103 42.571,9.874 40.225 C 9.163 39.477,8.606 38.586,8.293 37.696 C 8.070 37.062,8.048 36.911,8.048 36.000 C 8.048 35.089,8.070 34.938,8.293 34.304 C 9.025 32.225,11.025 30.342,13.680 29.231 C 14.232 29.000,14.271 28.999,14.206 29.220 " fill="#2B2C30" stroke="none" fill-rule="evenodd"></path></svg>