<svg width="48" height="48" viewBox="0 0 48 48" fill="none" xmlns="http://www.w3.org/2000/svg"><path d="M3.161 0.094 C 1.719 0.369,0.399 1.697,0.088 3.184 C -0.037 3.785,-0.037 44.215,0.088 44.816 C 0.401 46.315,1.685 47.599,3.184 47.912 C 3.775 48.035,16.225 48.035,16.816 47.912 C 18.315 47.599,19.599 46.315,19.912 44.816 C 20.037 44.215,20.037 3.785,19.912 3.184 C 19.594 1.659,18.277 0.363,16.765 0.087 C 16.162 -0.023,3.742 -0.017,3.161 0.094 M31.161 0.094 C 29.719 0.369,28.399 1.697,28.088 3.184 C 27.963 3.785,27.963 44.215,28.088 44.816 C 28.401 46.315,29.685 47.599,31.184 47.912 C 31.775 48.035,44.225 48.035,44.816 47.912 C 46.315 47.599,47.599 46.315,47.912 44.816 C 48.037 44.215,48.037 3.785,47.912 3.184 C 47.594 1.659,46.277 0.363,44.765 0.087 C 44.162 -0.023,31.742 -0.017,31.161 0.094 M16.000 24.000 L 16.000 44.000 10.000 44.000 L 4.000 44.000 4.000 24.000 L 4.000 4.000 10.000 4.000 L 16.000 4.000 16.000 24.000 M44.000 24.000 L 44.000 44.000 38.000 44.000 L 32.000 44.000 32.000 24.000 L 32.000 4.000 38.000 4.000 L 44.000 4.000 44.000 24.000 " fill="#2B2C30" stroke="none" fill-rule="evenodd"></path></svg>