<svg width="56" height="56" viewBox="0 0 56 56" fill="none" xmlns="http://www.w3.org/2000/svg"><path d="M25.734 0.104 C 16.461 0.816,8.057 6.256,3.474 14.513 C -0.739 22.103,-1.116 31.492,2.472 39.486 C 6.274 47.957,14.124 54.017,23.328 55.587 C 29.423 56.627,35.987 55.546,41.300 52.628 C 47.847 49.033,52.605 43.213,54.774 36.149 C 56.938 29.101,56.137 21.088,52.628 14.700 C 47.231 4.873,36.867 -0.752,25.734 0.104 M30.707 4.150 C 36.293 4.807,41.386 7.319,45.220 11.305 C 46.613 12.754,47.814 14.317,48.659 15.780 L 48.905 16.207 48.107 16.517 C 45.776 17.424,43.750 19.333,42.607 21.700 C 41.638 23.707,41.197 26.372,41.362 29.221 C 41.633 33.889,43.843 37.529,47.442 39.235 C 47.811 39.410,48.292 39.606,48.510 39.671 L 48.907 39.790 48.659 40.218 C 47.714 41.851,46.068 43.916,44.558 45.364 C 41.291 48.496,37.052 50.693,32.613 51.554 C 29.447 52.169,25.927 52.122,22.746 51.423 C 15.217 49.769,8.812 44.377,5.822 37.175 C 5.433 36.239,4.947 34.838,4.947 34.656 C 4.947 34.558,5.445 34.533,7.444 34.533 L 9.941 34.533 10.820 37.240 L 11.700 39.947 14.390 39.947 C 15.869 39.947,17.080 39.936,17.079 39.923 C 17.079 39.911,15.236 34.545,12.985 28.000 L 8.891 16.100 8.041 16.053 L 7.192 16.007 7.626 15.307 C 8.899 13.251,11.329 10.538,13.160 9.128 C 16.759 6.357,20.799 4.687,25.200 4.153 C 26.566 3.987,29.305 3.986,30.707 4.150 M19.996 28.018 L 20.020 39.993 25.713 39.992 C 31.790 39.990,32.031 39.976,33.600 39.511 C 36.023 38.793,37.643 37.214,38.226 35.000 C 38.473 34.064,38.454 32.520,38.184 31.643 C 37.836 30.513,37.467 29.884,36.725 29.152 C 35.919 28.357,34.966 27.853,33.942 27.680 C 33.513 27.608,33.273 27.524,33.273 27.446 C 33.273 27.379,33.591 27.212,33.983 27.074 C 34.886 26.755,35.494 26.364,36.143 25.683 C 37.066 24.716,37.467 23.644,37.459 22.167 C 37.443 19.130,35.611 17.069,32.248 16.305 C 31.460 16.126,31.041 16.112,25.690 16.078 L 19.973 16.042 19.996 28.018 M30.707 20.494 C 31.890 21.055,32.342 21.766,32.335 23.053 C 32.332 23.725,32.293 23.920,32.083 24.325 C 31.770 24.930,31.118 25.507,30.440 25.779 C 29.948 25.977,29.754 25.993,27.463 26.021 L 25.013 26.051 25.013 23.099 L 25.013 20.147 27.557 20.177 L 30.100 20.207 30.707 20.494 M51.074 21.381 C 51.336 22.285,51.607 23.562,51.817 24.873 C 51.892 25.338,51.937 26.518,51.937 28.000 C 51.937 29.482,51.892 30.662,51.817 31.127 C 51.606 32.446,51.335 33.717,51.071 34.627 C 50.827 35.467,50.801 35.512,50.568 35.497 C 49.659 35.436,48.006 34.011,47.393 32.760 C 46.551 31.041,46.213 28.717,46.483 26.504 C 46.828 23.684,47.971 21.760,49.865 20.812 C 50.279 20.605,50.664 20.450,50.719 20.468 C 50.775 20.486,50.934 20.897,51.074 21.381 M7.175 25.965 C 7.952 28.362,8.587 30.389,8.587 30.468 C 8.587 30.595,8.314 30.613,6.390 30.613 C 4.386 30.613,4.188 30.599,4.127 30.450 C 4.090 30.360,4.060 29.321,4.060 28.140 L 4.060 25.993 4.699 24.033 C 5.456 21.714,5.577 21.404,5.684 21.520 C 5.728 21.568,6.399 23.568,7.175 25.965 M30.293 29.595 C 31.865 29.885,32.881 30.854,33.134 32.303 C 33.426 33.979,32.588 35.209,30.855 35.652 C 30.203 35.818,29.819 35.840,27.565 35.840 L 25.013 35.840 25.013 32.667 L 25.013 29.493 27.376 29.493 C 28.686 29.493,29.986 29.539,30.293 29.595 " fill="#2B2C30" stroke="none" fill-rule="evenodd"></path></svg>