<svg width="48" height="48" viewBox="0 0 48 48" fill="none" xmlns="http://www.w3.org/2000/svg"><path d="M3.161 0.094 C 1.719 0.369,0.399 1.697,0.088 3.184 C -0.037 3.785,-0.037 44.215,0.088 44.816 C 0.401 46.315,1.685 47.599,3.184 47.912 C 3.785 48.037,44.215 48.037,44.816 47.912 C 46.315 47.599,47.599 46.315,47.912 44.816 C 48.037 44.215,48.037 3.785,47.912 3.184 C 47.594 1.659,46.277 0.363,44.765 0.087 C 44.149 -0.026,3.752 -0.019,3.161 0.094 M24.000 10.000 L 24.000 16.000 20.440 16.000 L 16.880 16.000 16.880 12.380 C 16.879 8.931,16.872 8.748,16.723 8.504 C 16.431 8.025,15.853 7.869,15.400 8.148 C 14.959 8.420,5.080 17.408,4.979 17.629 C 4.854 17.905,4.854 18.095,4.980 18.372 C 5.081 18.594,14.956 27.578,15.400 27.851 C 15.709 28.042,16.055 28.039,16.376 27.843 C 16.886 27.532,16.880 27.582,16.880 23.604 L 16.880 20.000 20.440 20.000 L 24.000 20.000 24.000 24.000 L 24.000 28.000 27.956 28.000 L 31.912 28.000 31.936 24.340 C 31.960 20.683,31.960 20.680,32.141 20.426 C 32.353 20.128,32.780 19.964,33.156 20.034 C 33.363 20.073,34.524 21.080,38.450 24.626 C 41.217 27.125,43.579 29.287,43.700 29.431 C 43.860 29.621,43.920 29.780,43.920 30.015 C 43.920 30.303,43.867 30.391,43.420 30.843 C 43.145 31.122,40.782 33.277,38.169 35.633 C 34.480 38.959,33.359 39.928,33.154 39.966 C 32.780 40.037,32.353 39.871,32.141 39.574 C 31.960 39.320,31.960 39.317,31.936 35.660 L 31.912 32.000 27.956 32.000 L 24.000 32.000 24.000 38.000 L 24.000 44.000 14.000 44.000 L 4.000 44.000 4.000 24.000 L 4.000 4.000 14.000 4.000 L 24.000 4.000 24.000 10.000 " fill="#2B2C30" stroke="none" fill-rule="evenodd"></path></svg>