<svg width="48" height="44" viewBox="0 0 48 44" fill="none" xmlns="http://www.w3.org/2000/svg"><path d="M0.504 0.157 C 0.061 0.427,0.000 0.650,-0.000 2.000 C -0.000 3.350,0.061 3.573,0.504 3.843 C 0.729 3.980,0.911 3.999,2.000 3.999 C 3.089 3.999,3.271 3.980,3.496 3.843 C 3.940 3.572,4.000 3.352,4.000 1.984 C 3.999 0.911,3.980 0.728,3.843 0.504 C 3.572 0.060,3.352 -0.000,1.984 0.000 C 0.911 0.001,0.728 0.020,0.504 0.157 M12.504 0.157 C 12.061 0.427,12.000 0.650,12.000 2.000 C 12.000 3.350,12.061 3.573,12.504 3.843 C 12.756 3.997,13.042 3.999,30.000 3.999 C 46.958 3.999,47.244 3.997,47.496 3.843 C 47.939 3.573,48.000 3.350,48.000 2.000 C 48.000 0.650,47.939 0.427,47.496 0.157 C 47.244 0.003,46.958 0.001,30.000 0.001 C 13.042 0.001,12.756 0.003,12.504 0.157 M0.504 20.157 C 0.061 20.427,0.000 20.650,-0.000 22.000 C -0.000 23.350,0.061 23.573,0.504 23.843 C 0.729 23.980,0.911 23.999,2.000 23.999 C 3.089 23.999,3.271 23.980,3.496 23.843 C 3.940 23.572,4.000 23.352,4.000 21.984 C 3.999 20.911,3.980 20.728,3.843 20.504 C 3.572 20.060,3.352 20.000,1.984 20.000 C 0.911 20.001,0.728 20.020,0.504 20.157 M12.504 20.157 C 12.061 20.427,12.000 20.650,12.000 22.000 C 12.000 23.350,12.061 23.573,12.504 23.843 C 12.756 23.997,13.042 23.999,30.000 23.999 C 46.958 23.999,47.244 23.997,47.496 23.843 C 47.939 23.573,48.000 23.350,48.000 22.000 C 48.000 20.650,47.939 20.427,47.496 20.157 C 47.244 20.003,46.958 20.001,30.000 20.001 C 13.042 20.001,12.756 20.003,12.504 20.157 M0.504 40.157 C 0.061 40.427,0.000 40.650,-0.000 42.000 C -0.000 43.350,0.061 43.573,0.504 43.843 C 0.729 43.980,0.911 43.999,2.000 43.999 C 3.089 43.999,3.271 43.980,3.496 43.843 C 3.940 43.572,4.000 43.352,4.000 41.984 C 3.999 40.911,3.980 40.728,3.843 40.504 C 3.572 40.060,3.352 40.000,1.984 40.000 C 0.911 40.001,0.728 40.020,0.504 40.157 M12.504 40.157 C 12.061 40.427,12.000 40.650,12.000 42.000 C 12.000 43.350,12.061 43.573,12.504 43.843 C 12.756 43.997,13.042 43.999,30.000 43.999 C 46.958 43.999,47.244 43.997,47.496 43.843 C 47.939 43.573,48.000 43.350,48.000 42.000 C 48.000 40.650,47.939 40.427,47.496 40.157 C 47.244 40.003,46.958 40.001,30.000 40.001 C 13.042 40.001,12.756 40.003,12.504 40.157 " fill="#2B2C30" stroke="none" fill-rule="evenodd"></path></svg>