<svg width="40" height="57" viewBox="0 0 40 57" fill="none" xmlns="http://www.w3.org/2000/svg"><path d="M18.667 0.042 C 17.926 0.097,16.678 0.276,15.867 0.442 C 8.308 1.992,2.197 8.009,0.501 15.569 C 0.130 17.225,0.044 18.028,0.041 19.867 C 0.039 21.694,0.112 22.360,0.506 24.123 C 2.037 30.974,7.532 40.681,15.867 51.260 C 16.719 52.341,19.103 55.230,19.751 55.967 L 19.985 56.233 20.134 56.100 C 20.594 55.689,23.249 52.688,24.705 50.933 C 31.449 42.807,36.265 34.862,38.503 28.167 C 40.326 22.713,40.470 18.221,38.968 13.700 C 38.255 11.554,37.293 9.715,35.979 7.983 C 32.674 3.626,27.952 0.887,22.500 0.165 C 21.720 0.062,19.400 -0.012,18.667 0.042 M21.367 4.069 C 24.152 4.329,26.582 5.175,28.804 6.659 C 31.259 8.299,33.111 10.400,34.364 12.967 C 36.396 17.129,36.510 21.488,34.728 26.858 C 32.533 33.472,27.432 41.616,20.150 50.133 C 20.117 50.172,20.103 50.154,18.864 48.584 C 12.714 40.787,7.991 33.151,5.699 27.300 C 3.908 22.725,3.595 19.664,4.536 15.921 C 5.299 12.884,7.189 9.880,9.633 7.820 C 11.470 6.271,13.744 5.083,15.921 4.535 C 17.806 4.061,19.618 3.905,21.367 4.069 M18.967 12.076 C 17.247 12.296,15.618 13.104,14.361 14.361 C 12.315 16.407,11.545 19.312,12.302 22.131 C 12.649 23.423,13.366 24.645,14.361 25.639 C 15.355 26.634,16.577 27.351,17.869 27.698 C 20.688 28.455,23.593 27.685,25.639 25.639 C 28.362 22.917,28.759 18.718,26.599 15.494 C 26.146 14.819,25.181 13.854,24.506 13.401 C 22.861 12.299,20.899 11.830,18.967 12.076 M21.283 16.218 C 22.501 16.665,23.393 17.572,23.814 18.792 C 23.938 19.152,23.966 19.375,23.966 20.000 C 23.966 20.625,23.938 20.848,23.814 21.208 C 22.822 24.084,19.311 24.932,17.198 22.805 C 16.620 22.225,16.324 21.711,16.132 20.960 C 15.575 18.783,16.988 16.552,19.233 16.064 C 19.726 15.957,20.787 16.037,21.283 16.218 " fill="#2B2C30" stroke="none" fill-rule="evenodd"></path></svg>