<svg width="40" height="48" viewBox="0 0 40 48" fill="none" xmlns="http://www.w3.org/2000/svg"><path d="M18.733 0.074 C 15.394 0.449,12.356 2.180,10.383 4.830 C 9.280 6.312,8.570 7.954,8.154 9.983 C 8.065 10.418,8.044 11.250,8.020 15.250 L 7.992 20.000 5.813 20.001 C 3.348 20.002,3.017 20.043,2.200 20.443 C 1.833 20.623,1.567 20.822,1.198 21.194 C 0.621 21.776,0.323 22.290,0.132 23.040 C 0.003 23.542,0.000 23.816,0.000 34.000 C 0.000 44.184,0.003 44.458,0.132 44.960 C 0.324 45.713,0.620 46.225,1.198 46.802 C 1.775 47.380,2.287 47.676,3.040 47.868 C 3.546 47.998,3.841 48.000,20.000 48.000 C 36.159 48.000,36.454 47.998,36.960 47.868 C 37.713 47.676,38.225 47.380,38.802 46.802 C 39.380 46.225,39.676 45.713,39.868 44.960 C 39.997 44.458,40.000 44.184,40.000 34.000 C 40.000 23.816,39.997 23.542,39.868 23.040 C 39.677 22.290,39.379 21.776,38.802 21.194 C 38.433 20.822,38.167 20.623,37.800 20.443 C 36.983 20.043,36.652 20.002,34.183 20.001 L 32.000 20.000 32.000 15.637 C 32.000 12.102,31.981 11.124,31.898 10.487 C 31.372 6.439,28.899 3.003,25.233 1.225 C 24.757 0.994,24.087 0.714,23.744 0.602 C 22.179 0.094,20.308 -0.104,18.733 0.074 M21.589 4.164 C 23.159 4.495,24.502 5.223,25.639 6.361 C 26.758 7.480,27.444 8.729,27.844 10.378 C 27.939 10.773,27.957 11.444,27.981 15.417 L 28.008 20.000 20.000 20.000 L 11.992 20.000 12.019 15.417 C 12.048 10.453,12.038 10.605,12.434 9.426 C 13.086 7.483,14.573 5.787,16.456 4.839 C 17.259 4.434,18.094 4.194,19.233 4.038 C 19.629 3.984,21.110 4.063,21.589 4.164 M36.000 34.000 L 36.000 44.000 20.000 44.000 L 4.000 44.000 4.000 34.000 L 4.000 24.000 20.000 24.000 L 36.000 24.000 36.000 34.000 " fill="#2B2C30" stroke="none" fill-rule="evenodd"></path></svg>