<svg width="51" height="51" viewBox="0 0 51 51" fill="none" xmlns="http://www.w3.org/2000/svg"><path d="M27.216 0.169 C 26.705 0.487,26.690 0.596,26.690 4.037 C 26.690 7.411,26.705 7.534,27.159 7.891 C 27.376 8.062,27.487 8.075,28.720 8.075 C 29.886 8.074,30.081 8.054,30.319 7.909 C 30.762 7.639,30.783 7.443,30.754 3.848 L 30.728 0.598 30.450 0.320 L 30.172 0.043 28.835 0.018 C 27.609 -0.004,27.474 0.009,27.216 0.169 M13.898 5.684 C 13.509 5.926,12.174 7.334,12.068 7.613 C 11.848 8.191,11.927 8.299,14.389 10.773 C 15.969 12.360,16.782 13.117,16.975 13.181 C 17.481 13.348,17.746 13.214,18.644 12.336 C 19.571 11.428,19.720 11.207,19.720 10.737 C 19.720 10.429,19.616 10.312,17.275 7.970 C 14.889 5.585,14.821 5.525,14.491 5.525 C 14.305 5.525,14.038 5.597,13.898 5.684 M42.543 5.686 C 42.402 5.774,41.286 6.855,40.063 8.087 C 37.684 10.482,37.603 10.594,37.824 11.174 C 37.947 11.498,39.502 13.053,39.826 13.176 C 40.407 13.397,40.515 13.319,42.952 10.895 C 44.206 9.648,45.287 8.524,45.354 8.398 C 45.499 8.123,45.509 7.792,45.381 7.538 C 45.245 7.271,43.775 5.791,43.503 5.646 C 43.189 5.480,42.847 5.495,42.543 5.686 M27.625 17.826 C 27.484 17.851,26.130 19.144,23.608 21.661 L 19.803 25.458 22.674 28.327 L 25.545 31.197 29.337 27.392 C 33.314 23.402,33.303 23.415,33.142 22.833 C 33.055 22.519,28.427 17.850,28.202 17.850 C 28.126 17.850,28.013 17.836,27.951 17.819 C 27.888 17.803,27.742 17.806,27.625 17.826 M6.961 20.424 C 6.528 20.716,6.440 21.082,6.477 22.440 C 6.511 23.685,6.583 23.910,7.026 24.147 C 7.353 24.322,13.593 24.324,14.008 24.149 C 14.472 23.953,14.535 23.722,14.535 22.208 C 14.535 20.103,14.793 20.230,10.514 20.230 C 7.255 20.230,7.250 20.230,6.961 20.424 M43.467 20.363 C 42.976 20.608,42.908 20.870,42.939 22.383 L 42.968 23.729 43.238 23.971 C 43.406 24.121,43.649 24.234,43.876 24.267 C 44.078 24.297,45.602 24.309,47.264 24.295 C 49.976 24.270,50.309 24.252,50.513 24.118 C 50.954 23.829,51.014 23.576,50.985 22.137 L 50.958 20.828 50.680 20.550 L 50.402 20.273 47.067 20.252 C 44.187 20.234,43.696 20.249,43.467 20.363 M8.955 36.316 C 4.133 41.143,0.145 45.176,0.094 45.278 C -0.034 45.532,-0.024 45.863,0.121 46.138 C 0.299 46.474,4.767 50.886,5.001 50.956 C 5.110 50.989,5.340 50.991,5.511 50.960 C 5.785 50.910,6.888 49.839,14.663 42.070 L 23.503 33.236 20.655 30.388 C 19.090 28.822,17.789 27.540,17.765 27.540 C 17.742 27.540,13.777 31.489,8.955 36.316 M39.653 31.440 C 39.169 31.741,37.850 33.175,37.787 33.468 C 37.667 34.019,37.817 34.212,40.227 36.611 C 42.764 39.136,42.836 39.186,43.457 38.891 C 43.851 38.705,45.363 37.157,45.436 36.865 C 45.580 36.290,45.508 36.196,42.985 33.679 C 40.646 31.345,40.572 31.280,40.244 31.280 C 40.059 31.280,39.793 31.352,39.653 31.440 M27.197 36.589 C 26.740 36.838,26.733 36.898,26.733 40.460 C 26.733 44.014,26.736 44.041,27.193 44.345 C 27.366 44.461,27.653 44.498,28.560 44.523 C 29.918 44.560,30.284 44.472,30.576 44.039 C 30.770 43.750,30.770 43.744,30.770 40.530 C 30.770 37.075,30.750 36.894,30.335 36.604 C 30.069 36.417,27.535 36.405,27.197 36.589 " fill="#2B2C30" stroke="none" fill-rule="evenodd"></path></svg>