<svg width="48" height="48" viewBox="0 0 48 48" fill="none" xmlns="http://www.w3.org/2000/svg"><path d="M16.680 0.048 C 14.052 0.320,12.181 0.829,10.120 1.835 C 4.574 4.543,0.839 9.826,0.119 15.984 C -0.759 23.491,3.264 30.806,10.120 34.167 C 15.094 36.605,20.906 36.605,25.880 34.167 C 26.937 33.649,28.074 32.957,28.876 32.345 L 29.232 32.073 37.156 39.992 C 42.574 45.406,45.150 47.928,45.301 47.964 C 45.801 48.085,46.007 47.962,47.025 46.932 C 47.921 46.026,48.000 45.922,48.000 45.648 C 48.000 45.484,47.960 45.271,47.912 45.175 C 47.863 45.079,44.280 41.452,39.948 37.116 L 32.073 29.232 32.345 28.876 C 32.957 28.074,33.649 26.937,34.167 25.880 C 36.605 20.906,36.605 15.094,34.167 10.120 C 32.380 6.475,29.525 3.621,25.888 1.845 C 24.131 0.988,22.539 0.489,20.640 0.202 C 19.823 0.079,17.324 -0.018,16.680 0.048 M19.452 4.084 C 25.609 4.705,30.568 9.190,31.847 15.295 C 32.065 16.337,32.146 18.673,32.003 19.807 C 30.972 28.003,23.078 33.581,15.046 31.790 C 10.337 30.739,6.523 27.405,4.855 22.880 C 3.232 18.477,3.998 13.370,6.845 9.607 C 9.807 5.692,14.596 3.594,19.452 4.084 " fill="#2B2C30" stroke="none" fill-rule="evenodd"></path></svg>