<svg width="48" height="48" viewBox="0 0 48 48" fill="none" xmlns="http://www.w3.org/2000/svg"><path d="M16.280 0.084 C 8.729 0.860,2.464 6.201,0.608 13.445 C 0.165 15.172,0.047 16.132,0.047 18.000 C 0.047 20.417,0.424 22.473,1.250 24.558 C 3.649 30.613,8.936 34.805,15.443 35.811 C 16.552 35.983,19.192 36.006,20.280 35.853 C 23.365 35.421,26.244 34.273,28.573 32.546 L 29.223 32.064 37.151 39.987 C 44.124 46.955,45.115 47.916,45.373 47.962 C 45.534 47.991,45.750 47.989,45.853 47.957 C 45.956 47.926,46.463 47.484,46.979 46.975 C 47.960 46.009,48.085 45.797,47.964 45.301 C 47.927 45.150,45.395 42.563,39.987 37.151 L 32.064 29.222 32.546 28.573 C 34.273 26.244,35.421 23.365,35.853 20.280 C 36.006 19.192,35.983 16.552,35.811 15.443 C 34.580 7.481,28.537 1.411,20.640 0.204 C 19.618 0.048,17.263 -0.017,16.280 0.084 M20.480 4.201 C 24.987 5.006,28.870 7.983,30.810 12.122 C 33.310 17.458,32.184 23.796,27.990 27.990 C 24.197 31.783,18.679 33.092,13.616 31.398 C 11.610 30.726,9.967 29.740,8.401 28.267 C 6.234 26.228,4.738 23.447,4.191 20.440 C 4.083 19.847,4.045 19.236,4.044 18.080 C 4.042 16.496,4.105 15.918,4.413 14.684 C 5.423 10.635,8.225 7.187,11.954 5.403 C 13.533 4.647,14.618 4.341,16.760 4.047 C 17.310 3.971,19.760 4.073,20.480 4.201 M8.504 16.157 C 8.061 16.427,8.000 16.650,8.000 18.000 C 8.000 19.350,8.061 19.573,8.504 19.843 C 8.754 19.996,8.977 19.999,17.984 20.000 C 28.169 20.000,27.516 20.033,27.843 19.496 C 27.980 19.271,27.999 19.089,27.999 18.000 C 27.999 16.911,27.980 16.729,27.843 16.504 C 27.516 15.967,28.169 16.000,17.984 16.000 C 8.977 16.001,8.754 16.004,8.504 16.157 " fill="#2B2C30" stroke="none" fill-rule="evenodd"></path></svg>