<svg width="56" height="52" viewBox="0 0 56 52" fill="none" xmlns="http://www.w3.org/2000/svg"><path d="M24.152 0.104 C 21.674 0.343,18.910 1.262,16.753 2.565 C 12.026 5.421,8.960 10.067,8.160 15.587 C 7.928 17.188,8.015 19.979,8.346 21.538 C 8.825 23.798,9.704 25.949,10.881 27.746 C 11.519 28.719,12.382 29.824,12.826 30.236 L 13.073 30.465 14.423 29.117 C 15.166 28.376,15.773 27.748,15.773 27.721 C 15.773 27.695,15.529 27.374,15.230 27.009 C 13.630 25.052,12.635 22.872,12.211 20.393 C 11.964 18.953,12.010 16.390,12.306 15.112 C 13.595 9.549,17.727 5.466,23.269 4.277 C 24.668 3.977,27.441 3.979,28.840 4.281 C 31.494 4.853,33.750 6.022,35.648 7.808 C 38.225 10.234,39.724 13.324,40.049 16.875 C 40.625 23.179,36.727 29.213,30.731 31.300 C 29.045 31.887,28.066 32.053,26.273 32.057 C 25.401 32.059,24.435 32.027,24.127 31.987 L 23.567 31.914 24.239 32.594 C 24.609 32.967,24.977 33.429,25.056 33.620 C 25.343 34.313,25.202 35.181,24.714 35.715 L 24.531 35.916 25.260 35.984 C 26.154 36.068,28.069 35.915,29.447 35.650 C 32.047 35.149,34.670 33.972,36.969 32.272 L 37.246 32.067 45.201 40.020 L 53.156 47.973 53.565 47.973 C 53.958 47.973,54.011 47.936,54.939 47.023 C 55.934 46.044,56.102 45.751,55.953 45.251 C 55.917 45.131,52.334 41.475,47.992 37.127 L 40.096 29.221 40.400 28.799 C 41.566 27.174,42.545 25.298,43.073 23.675 C 43.674 21.827,43.877 20.615,43.934 18.542 C 43.967 17.331,43.945 16.394,43.871 15.835 C 43.132 10.277,40.060 5.512,35.373 2.654 C 32.015 0.606,28.120 -0.279,24.152 0.104 M13.744 35.396 L 9.988 39.152 6.415 35.582 L 2.841 32.013 2.434 32.013 C 2.043 32.013,1.988 32.051,1.061 32.963 C 0.033 33.975,-0.107 34.236,0.092 34.768 C 0.153 34.929,1.661 36.513,3.667 38.523 L 7.137 42.000 3.621 45.523 C 1.296 47.853,0.084 49.134,0.043 49.303 C -0.073 49.775,0.091 50.057,1.010 50.977 C 1.930 51.896,2.212 52.059,2.683 51.944 C 2.853 51.903,4.132 50.692,6.457 48.372 L 9.975 44.862 13.499 48.340 C 15.437 50.253,17.129 51.859,17.260 51.909 C 17.746 52.093,18.030 51.936,19.023 50.926 C 19.935 49.999,19.973 49.944,19.973 49.553 L 19.973 49.146 16.404 45.572 L 12.835 41.999 16.334 38.485 C 18.259 36.553,19.949 34.869,20.090 34.744 C 20.231 34.619,20.347 34.467,20.347 34.407 C 20.347 34.275,17.724 31.640,17.592 31.640 C 17.541 31.640,15.810 33.330,13.744 35.396 " fill="#2B2C30" stroke="none" fill-rule="evenodd"></path></svg>