<svg width="56" height="56" viewBox="0 0 56 56" fill="none" xmlns="http://www.w3.org/2000/svg"><path d="M0.607 0.088 C 0.504 0.130,0.336 0.258,0.233 0.372 C 0.064 0.561,0.047 0.711,0.047 2.014 L 0.047 3.449 0.305 3.708 L 0.564 3.967 28.000 3.967 L 55.436 3.967 55.695 3.708 L 55.953 3.449 55.953 2.007 L 55.953 0.564 55.695 0.305 L 55.436 0.047 28.115 0.029 C 13.088 0.019,0.709 0.046,0.607 0.088 M12.212 8.169 C 12.062 8.251,11.905 8.462,11.817 8.702 C 11.736 8.921,9.085 17.731,5.925 28.280 C 2.766 38.829,0.142 47.576,0.095 47.717 L 0.010 47.973 1.832 47.973 L 3.654 47.973 3.908 47.717 C 4.122 47.500,4.429 46.566,5.875 41.743 L 7.588 36.027 14.000 36.027 L 20.412 36.027 22.125 41.743 C 23.571 46.566,23.878 47.500,24.092 47.717 L 24.346 47.973 26.168 47.973 L 27.990 47.973 27.905 47.717 C 27.858 47.576,25.234 38.829,22.075 28.280 C 18.915 17.731,16.264 8.921,16.183 8.701 C 15.956 8.084,15.765 8.026,13.981 8.030 C 12.837 8.033,12.398 8.068,12.212 8.169 M32.519 8.133 C 32.412 8.185,32.255 8.346,32.169 8.492 C 32.025 8.736,32.013 10.193,32.013 28.047 L 32.013 47.339 32.331 47.656 L 32.648 47.973 33.990 47.973 C 35.934 47.973,36.027 47.874,36.027 45.780 L 36.027 44.513 36.733 45.129 C 40.220 48.171,44.706 48.818,48.687 46.856 C 52.381 45.035,54.923 41.355,55.781 36.587 C 56.008 35.326,56.006 32.672,55.777 31.360 C 54.749 25.475,50.797 21.066,45.733 20.154 C 44.846 19.994,43.027 20.017,42.064 20.199 C 40.081 20.575,37.951 21.682,36.517 23.082 L 36.027 23.560 36.027 16.257 C 36.027 8.402,36.034 8.518,35.549 8.179 C 35.372 8.055,35.089 8.028,34.023 8.033 C 33.302 8.036,32.626 8.082,32.519 8.133 M16.625 23.403 L 19.193 31.967 16.597 31.991 C 15.169 32.005,12.831 32.005,11.403 31.991 L 8.807 31.967 11.375 23.403 C 12.787 18.694,13.969 14.840,14.000 14.840 C 14.031 14.840,15.213 18.694,16.625 23.403 M45.191 24.122 C 46.551 24.410,47.658 25.007,48.750 26.040 C 50.307 27.512,51.114 28.917,51.672 31.127 C 51.990 32.387,52.075 34.623,51.856 35.955 C 51.212 39.875,48.785 42.904,45.584 43.782 C 44.711 44.021,43.343 44.039,42.513 43.821 C 40.171 43.206,38.034 41.251,36.952 38.733 C 36.297 37.209,36.027 35.846,36.027 34.061 C 36.027 31.934,36.335 30.539,37.190 28.793 C 38.847 25.410,42.155 23.479,45.191 24.122 M0.506 52.163 C 0.055 52.438,-0.019 52.739,0.016 54.169 C 0.046 55.411,0.052 55.441,0.305 55.695 L 0.564 55.953 28.000 55.953 L 55.436 55.953 55.695 55.695 C 55.949 55.441,55.954 55.414,55.984 54.140 C 56.008 53.094,55.985 52.789,55.865 52.557 C 55.545 51.938,57.936 51.987,27.981 51.987 C 1.547 51.987,0.785 51.992,0.506 52.163 " fill="#2B2C30" stroke="none" fill-rule="evenodd"></path></svg>