<svg width="44" height="40" viewBox="0 0 44 40" fill="none" xmlns="http://www.w3.org/2000/svg"><path d="M9.325 0.139 C 8.812 0.317,8.332 0.788,8.139 1.302 C 8.002 1.669,7.993 1.877,7.993 4.839 L 7.993 7.986 4.712 8.008 C 1.509 8.029,1.423 8.034,1.137 8.189 C 0.756 8.394,0.395 8.754,0.196 9.126 L 0.037 9.423 0.037 23.980 L 0.037 38.537 0.195 38.830 C 0.384 39.178,0.816 39.604,1.173 39.794 C 1.421 39.925,1.986 39.930,18.003 39.930 C 34.016 39.930,34.585 39.925,34.833 39.794 C 35.269 39.562,35.703 39.085,35.861 38.665 C 35.998 38.297,36.007 38.090,36.007 35.127 L 36.007 31.979 39.288 31.958 C 42.494 31.937,42.577 31.933,42.863 31.778 C 43.211 31.590,43.637 31.158,43.827 30.800 C 43.959 30.552,43.963 30.038,43.963 15.987 C 43.963 1.936,43.959 1.421,43.827 1.173 C 43.637 0.816,43.211 0.384,42.863 0.195 L 42.570 0.037 26.143 0.020 C 10.333 0.005,9.702 0.009,9.325 0.139 M39.967 16.023 L 39.967 28.013 37.987 28.013 L 36.007 28.013 36.007 18.849 C 36.007 9.817,36.005 9.680,35.858 9.287 C 35.659 8.757,35.140 8.266,34.609 8.109 C 34.262 8.006,33.010 7.993,23.123 7.993 L 12.027 7.993 12.027 6.013 L 12.027 4.033 25.997 4.033 L 39.967 4.033 39.967 16.023 M31.973 24.017 L 31.973 36.007 18.003 36.007 L 4.033 36.007 4.033 24.017 L 4.033 12.027 18.003 12.027 L 31.973 12.027 31.973 24.017 " fill="#2B2C30" stroke="none" fill-rule="evenodd"></path></svg>