<svg width="44" height="56" viewBox="0 0 44 56" fill="none" xmlns="http://www.w3.org/2000/svg"><path d="M3.190 0.085 C 1.713 0.367,0.329 1.795,0.075 3.300 C 0.018 3.641,0.001 10.768,0.016 28.307 L 0.037 52.837 0.227 53.326 C 0.701 54.543,1.575 55.402,2.749 55.806 C 3.172 55.952,3.353 55.953,22.000 55.953 C 40.647 55.953,40.828 55.952,41.251 55.806 C 42.425 55.402,43.299 54.543,43.773 53.326 L 43.963 52.837 43.983 40.425 L 44.002 28.013 40.005 28.013 L 36.007 28.013 36.007 24.017 L 36.007 20.020 40.003 20.020 L 44.000 20.020 44.000 18.337 C 44.000 17.399,43.965 16.489,43.920 16.281 C 43.876 16.076,43.719 15.733,43.572 15.519 C 43.163 14.925,29.076 1.021,28.518 0.660 C 28.266 0.497,27.844 0.291,27.579 0.201 L 27.097 0.037 15.327 0.026 C 8.115 0.019,3.415 0.042,3.190 0.085 M32.378 9.955 L 38.443 15.950 35.226 15.987 L 32.010 16.023 31.991 23.998 L 31.973 31.972 35.988 31.991 L 40.003 32.010 40.003 42.020 L 40.003 52.030 22.000 52.030 L 3.997 52.030 3.978 28.087 C 3.968 14.918,3.975 4.102,3.994 4.052 C 4.022 3.979,6.325 3.960,15.171 3.960 L 26.314 3.960 32.378 9.955 M12.563 36.149 C 11.997 36.406,12.027 36.082,12.027 42.035 C 12.027 47.093,12.034 47.347,12.165 47.563 C 12.411 47.965,12.676 48.033,14.003 48.033 C 15.277 48.033,15.422 48.000,15.767 47.631 L 15.950 47.435 15.970 42.120 C 15.992 36.122,16.020 36.436,15.443 36.157 C 15.172 36.025,14.994 36.007,14.002 36.008 C 13.049 36.010,12.822 36.032,12.563 36.149 M20.558 36.158 C 19.993 36.438,20.020 36.145,20.020 42.020 C 20.020 47.904,19.993 47.607,20.563 47.883 C 20.834 48.014,21.015 48.033,21.989 48.033 C 23.203 48.033,23.441 47.980,23.760 47.634 L 23.943 47.435 23.963 42.120 C 23.985 36.122,24.013 36.436,23.437 36.157 C 23.166 36.025,22.985 36.007,21.995 36.007 C 21.000 36.007,20.827 36.025,20.558 36.158 M28.637 36.110 C 28.516 36.164,28.334 36.297,28.233 36.407 L 28.050 36.605 28.050 42.020 L 28.050 47.435 28.233 47.634 C 28.552 47.979,28.792 48.033,29.989 48.033 C 31.258 48.033,31.584 47.949,31.825 47.559 C 31.970 47.324,31.973 47.208,31.973 42.020 C 31.973 36.832,31.970 36.716,31.825 36.481 C 31.583 36.088,31.260 36.006,29.974 36.010 C 29.207 36.012,28.788 36.043,28.637 36.110 " fill="#2B2C30" stroke="none" fill-rule="evenodd"></path></svg>