<svg width="28" height="48" viewBox="0 0 28 48" fill="none" xmlns="http://www.w3.org/2000/svg"><path d="M13.393 0.029 C 12.935 0.087,12.416 0.205,12.051 0.333 C 9.809 1.120,8.290 3.043,8.030 5.423 C 7.961 6.054,7.961 25.960,8.030 26.590 C 8.260 28.690,9.465 30.443,11.317 31.371 C 13.659 32.546,16.475 32.066,18.307 30.179 C 19.248 29.210,19.816 27.981,19.973 26.577 C 20.036 26.003,20.036 6.010,19.973 5.437 C 19.912 4.889,19.822 4.493,19.642 3.984 C 19.455 3.452,19.301 3.150,18.952 2.629 C 18.103 1.360,16.667 0.409,15.158 0.116 C 14.774 0.042,13.708 -0.011,13.393 0.029 M14.814 4.192 C 15.403 4.467,15.845 5.027,15.960 5.641 C 16.024 5.988,16.024 26.028,15.960 26.369 C 15.858 26.905,15.465 27.471,15.009 27.737 C 14.415 28.084,13.585 28.084,12.991 27.737 C 12.535 27.471,12.142 26.905,12.040 26.369 C 11.976 26.027,11.976 5.986,12.040 5.645 C 12.150 5.067,12.545 4.528,13.062 4.253 C 13.432 4.055,13.627 4.014,14.101 4.032 C 14.436 4.045,14.560 4.073,14.814 4.192 M0.571 20.117 C 0.330 20.238,0.126 20.475,0.053 20.716 C -0.016 20.946,-0.020 26.194,0.048 27.048 C 0.285 30.026,1.387 32.737,3.279 35.000 C 5.374 37.505,8.355 39.237,11.515 39.786 L 11.993 39.870 11.993 41.937 L 11.993 44.004 8.365 44.017 L 4.737 44.030 4.529 44.147 C 4.414 44.211,4.257 44.354,4.179 44.466 L 4.037 44.668 4.023 45.959 C 4.011 47.224,4.012 47.254,4.117 47.457 C 4.175 47.571,4.304 47.729,4.403 47.807 L 4.582 47.950 14.000 47.950 L 23.418 47.950 23.597 47.807 C 23.696 47.729,23.825 47.571,23.883 47.457 C 23.988 47.254,23.989 47.224,23.977 45.959 L 23.963 44.668 23.821 44.466 C 23.743 44.354,23.586 44.211,23.471 44.147 L 23.263 44.030 19.635 44.017 L 16.007 44.004 16.007 41.937 L 16.007 39.870 16.485 39.786 C 19.306 39.296,22.042 37.834,24.057 35.740 C 26.346 33.361,27.688 30.366,27.952 27.048 C 28.023 26.154,28.015 20.946,27.943 20.702 C 27.870 20.459,27.552 20.137,27.316 20.066 C 27.195 20.031,26.732 20.018,25.896 20.028 L 24.656 20.043 24.464 20.171 C 24.358 20.241,24.213 20.398,24.141 20.521 L 24.010 20.743 23.982 23.987 C 23.951 27.599,23.952 27.585,23.597 28.817 C 22.578 32.348,19.624 35.069,16.003 35.812 C 12.030 36.627,7.921 34.931,5.674 31.549 C 4.910 30.398,4.431 29.208,4.143 27.743 C 4.047 27.256,4.041 27.064,4.016 23.987 L 3.990 20.743 3.859 20.521 C 3.787 20.398,3.642 20.241,3.536 20.171 L 3.344 20.043 2.057 20.030 C 0.820 20.018,0.762 20.021,0.571 20.117 " fill="#2B2C30" stroke="none" fill-rule="evenodd"></path></svg>