<svg width="56" height="41" viewBox="0 0 56 41" fill="none" xmlns="http://www.w3.org/2000/svg"><path d="M0.607 0.088 C 0.504 0.130,0.336 0.258,0.233 0.372 C 0.048 0.578,0.046 0.728,0.023 19.893 C 0.001 37.309,0.013 39.235,0.146 39.491 C 0.369 39.923,0.766 40.040,2.013 40.040 C 3.184 40.040,3.636 39.917,3.853 39.538 C 3.940 39.386,3.978 36.318,4.013 26.423 L 4.060 13.506 7.788 25.910 C 9.838 32.732,11.636 38.704,11.784 39.182 L 12.052 40.051 13.818 40.022 L 15.584 39.993 15.856 39.713 C 16.099 39.464,16.561 38.000,20.035 26.473 L 23.940 13.513 23.987 26.448 L 24.033 39.383 24.338 39.688 L 24.643 39.993 25.783 40.025 C 27.069 40.061,27.524 39.966,27.808 39.605 L 28.000 39.361 28.000 19.998 L 28.000 0.635 27.683 0.317 L 27.365 0.000 25.951 0.000 C 24.430 0.000,24.126 0.072,23.914 0.482 C 23.852 0.602,21.616 7.987,18.946 16.893 C 16.275 25.800,14.058 33.163,14.019 33.257 C 13.972 33.371,12.394 28.198,9.250 17.624 C 6.665 8.932,4.448 1.492,4.323 1.092 C 3.997 0.050,3.896 -0.001,2.147 0.006 C 1.402 0.009,0.709 0.046,0.607 0.088 M39.183 0.098 C 37.307 0.383,35.630 1.202,34.218 2.524 C 33.092 3.577,32.114 5.276,31.715 6.871 C 31.421 8.046,31.421 9.967,31.715 11.142 C 32.096 12.666,32.918 14.144,34.007 15.261 C 34.383 15.648,37.273 17.804,42.420 21.539 C 46.909 24.797,50.446 27.429,50.696 27.696 C 51.501 28.558,51.987 29.814,51.987 31.033 C 51.987 33.311,50.359 35.362,48.138 35.886 C 47.404 36.059,40.171 36.091,39.368 35.924 C 37.976 35.636,36.565 34.552,35.952 33.300 C 35.630 32.642,35.378 31.657,35.375 31.044 C 35.373 30.594,35.084 30.111,34.729 29.964 C 34.550 29.890,34.028 29.862,33.181 29.883 C 31.913 29.913,31.902 29.915,31.678 30.175 C 31.478 30.409,31.453 30.525,31.453 31.255 C 31.453 33.627,32.410 35.795,34.219 37.522 C 35.437 38.686,36.817 39.426,38.500 39.819 C 39.173 39.976,39.680 39.993,43.633 39.993 C 48.386 39.993,48.677 39.970,50.058 39.471 C 53.286 38.306,55.543 35.418,55.929 31.960 C 56.113 30.312,55.779 28.484,55.018 26.970 C 54.614 26.167,53.723 24.974,53.148 24.467 C 52.894 24.244,49.192 21.521,44.921 18.418 C 39.955 14.810,36.992 12.597,36.704 12.282 C 35.364 10.816,35.081 8.609,35.990 6.732 C 36.327 6.038,37.489 4.874,38.173 4.545 C 39.236 4.035,39.466 4.013,43.756 4.013 C 48.125 4.013,48.343 4.036,49.420 4.605 C 50.234 5.034,51.114 5.956,51.567 6.853 C 52.121 7.952,52.178 7.980,53.868 7.980 L 55.269 7.980 55.541 7.675 C 55.875 7.301,55.880 7.091,55.574 6.176 C 54.599 3.256,52.225 1.065,49.167 0.263 C 48.432 0.070,48.174 0.058,44.053 0.038 C 41.666 0.027,39.475 0.053,39.183 0.098 " fill="#2B2C30" stroke="none" fill-rule="evenodd"></path></svg>