<svg width="48" height="52" viewBox="0 0 48 52" fill="none" xmlns="http://www.w3.org/2000/svg"><path d="M8.504 0.157 C 7.967 0.484,8.000 -0.167,8.000 10.000 C 8.000 20.167,7.967 19.516,8.504 19.843 C 8.756 19.997,9.026 19.999,24.000 19.999 C 38.974 19.999,39.244 19.997,39.496 19.843 C 40.033 19.516,40.000 20.167,40.000 10.000 C 40.000 -0.167,40.033 0.484,39.496 0.157 C 39.244 0.003,38.974 0.001,24.000 0.001 C 9.026 0.001,8.756 0.003,8.504 0.157 M36.000 10.000 L 36.000 16.000 24.000 16.000 L 12.000 16.000 12.000 10.000 L 12.000 4.000 24.000 4.000 L 36.000 4.000 36.000 10.000 M0.460 24.300 C 0.071 24.542,-0.000 24.823,0.000 26.120 C 0.000 27.432,0.086 27.756,0.487 27.964 C 0.827 28.140,47.173 28.140,47.513 27.964 C 47.937 27.744,48.014 27.424,47.985 25.990 L 47.960 24.707 47.661 24.434 L 47.362 24.160 24.021 24.162 C 2.186 24.164,0.666 24.173,0.460 24.300 M8.504 32.157 C 7.994 32.468,8.000 32.418,8.000 36.396 L 8.000 40.000 10.000 40.000 L 12.000 40.000 12.000 38.000 L 12.000 36.000 14.000 36.000 L 16.000 36.000 16.000 34.000 L 16.000 32.000 12.380 32.000 C 8.931 32.001,8.748 32.008,8.504 32.157 M20.000 34.000 L 20.000 36.000 24.000 36.000 L 28.000 36.000 28.000 34.000 L 28.000 32.000 24.000 32.000 L 20.000 32.000 20.000 34.000 M32.000 34.000 L 32.000 36.000 34.000 36.000 L 36.000 36.000 36.000 38.000 L 36.000 40.000 38.000 40.000 L 40.000 40.000 40.000 36.396 C 40.000 32.418,40.006 32.468,39.496 32.157 C 39.252 32.008,39.069 32.001,35.620 32.000 L 32.000 32.000 32.000 34.000 M8.000 47.620 C 8.001 51.069,8.008 51.252,8.157 51.496 C 8.468 52.006,8.418 52.000,12.396 52.000 L 16.000 52.000 16.000 50.000 L 16.000 48.000 14.000 48.000 L 12.000 48.000 12.000 46.000 L 12.000 44.000 10.000 44.000 L 8.000 44.000 8.000 47.620 M36.000 46.000 L 36.000 48.000 34.000 48.000 L 32.000 48.000 32.000 50.000 L 32.000 52.000 35.604 52.000 C 39.582 52.000,39.532 52.006,39.843 51.496 C 39.992 51.252,39.999 51.069,40.000 47.620 L 40.000 44.000 38.000 44.000 L 36.000 44.000 36.000 46.000 M20.000 50.000 L 20.000 52.000 24.000 52.000 L 28.000 52.000 28.000 50.000 L 28.000 48.000 24.000 48.000 L 20.000 48.000 20.000 50.000 " fill="#2B2C30" stroke="none" fill-rule="evenodd"></path></svg>