<svg width="40" height="56" viewBox="0 0 40 56" fill="none" xmlns="http://www.w3.org/2000/svg"><path d="M18.667 0.042 C 12.796 0.480,7.525 3.338,4.014 7.989 C 1.990 10.669,0.758 13.649,0.178 17.266 C 0.034 18.160,0.033 18.235,0.033 28.000 C 0.033 37.765,0.034 37.840,0.178 38.734 C 1.066 44.271,3.688 48.721,7.983 51.979 C 10.644 53.998,13.701 55.262,17.266 55.818 C 18.572 56.022,21.428 56.022,22.734 55.818 C 26.299 55.262,29.356 53.998,32.017 51.979 C 35.996 48.961,38.695 44.644,39.628 39.807 C 39.975 38.006,39.967 38.296,39.967 28.000 C 39.967 17.704,39.975 17.994,39.628 16.193 C 38.618 10.956,35.524 6.316,31.067 3.355 C 28.452 1.618,25.682 0.587,22.500 0.165 C 21.720 0.062,19.400 -0.012,18.667 0.042 M18.000 12.067 L 18.000 20.000 11.000 20.000 L 4.000 20.000 4.000 19.683 C 4.000 19.213,4.123 17.983,4.238 17.300 C 4.855 13.647,6.751 10.296,9.567 7.881 C 11.474 6.246,13.666 5.101,16.033 4.505 C 16.679 4.343,17.645 4.152,17.883 4.139 C 17.994 4.134,18.000 4.553,18.000 12.067 M23.267 4.346 C 25.301 4.770,27.084 5.514,28.808 6.658 C 32.531 9.129,35.022 12.941,35.762 17.300 C 35.870 17.936,35.998 19.243,35.999 19.717 L 36.000 20.000 29.000 20.000 L 22.000 20.000 22.000 12.063 L 22.000 4.125 22.317 4.169 C 22.491 4.194,22.918 4.273,23.267 4.346 M35.999 30.283 C 35.999 37.615,35.975 38.047,35.464 40.079 C 34.788 42.769,33.097 45.645,31.070 47.552 C 28.574 49.900,25.658 51.322,22.267 51.845 C 21.197 52.010,18.803 52.010,17.733 51.845 C 14.334 51.321,11.432 49.905,8.930 47.552 C 6.903 45.645,5.212 42.769,4.536 40.079 C 4.022 38.037,4.000 37.634,4.000 30.317 L 4.000 24.000 20.000 24.000 L 36.000 24.000 35.999 30.283 " fill="#2B2C30" stroke="none" fill-rule="evenodd"></path></svg>