<svg width="48" height="44" viewBox="0 0 48 44" fill="none" xmlns="http://www.w3.org/2000/svg"><path d="M1.327 0.126 C 0.872 0.293,0.514 0.594,0.262 1.023 L 0.040 1.400 0.018 7.825 C 0.004 12.129,0.024 14.352,0.080 14.561 C 0.203 15.018,0.625 15.522,1.078 15.756 L 1.475 15.960 4.738 15.983 L 8.000 16.005 8.000 18.003 L 8.000 20.000 4.000 20.000 L 0.000 20.000 0.000 22.000 L 0.000 24.000 10.000 24.000 L 20.000 24.000 20.000 25.997 L 20.000 27.995 16.738 28.017 L 13.475 28.040 13.078 28.244 C 12.625 28.478,12.203 28.982,12.080 29.439 C 12.024 29.648,12.004 31.871,12.018 36.175 L 12.040 42.600 12.262 42.977 C 12.384 43.185,12.602 43.445,12.747 43.556 C 13.354 44.019,12.969 44.000,21.996 44.000 C 31.327 44.000,30.769 44.035,31.402 43.402 C 32.025 42.779,32.000 43.089,32.000 36.000 C 32.000 28.911,32.025 29.221,31.402 28.598 C 30.817 28.013,30.725 28.000,27.146 28.000 L 24.000 28.000 24.000 26.000 L 24.000 24.000 36.000 24.000 L 48.000 24.000 48.000 22.000 L 48.000 20.000 44.000 20.000 L 40.000 20.000 40.000 18.000 L 40.000 16.000 43.146 16.000 C 46.725 16.000,46.817 15.987,47.402 15.402 C 48.025 14.779,48.000 15.089,48.000 8.000 C 48.000 0.911,48.025 1.221,47.402 0.598 C 46.769 -0.035,47.327 -0.000,37.996 -0.000 C 28.969 0.000,29.354 -0.019,28.747 0.444 C 28.602 0.555,28.384 0.815,28.262 1.023 L 28.040 1.400 28.018 7.825 C 28.004 12.129,28.024 14.352,28.080 14.561 C 28.203 15.018,28.625 15.522,29.078 15.756 L 29.475 15.960 32.738 15.983 L 36.000 16.005 36.000 18.003 L 36.000 20.000 24.000 20.000 L 12.000 20.000 12.000 18.000 L 12.000 16.000 15.146 16.000 C 18.725 16.000,18.817 15.987,19.402 15.402 C 20.025 14.779,20.000 15.089,20.000 8.000 C 20.000 0.911,20.025 1.221,19.402 0.598 C 18.768 -0.036,19.332 -0.001,9.966 0.006 C 2.949 0.010,1.591 0.029,1.327 0.126 M16.000 8.000 L 16.000 12.000 10.000 12.000 L 4.000 12.000 4.000 8.000 L 4.000 4.000 10.000 4.000 L 16.000 4.000 16.000 8.000 M44.000 8.000 L 44.000 12.000 38.000 12.000 L 32.000 12.000 32.000 8.000 L 32.000 4.000 38.000 4.000 L 44.000 4.000 44.000 8.000 M28.000 36.000 L 28.000 40.000 22.000 40.000 L 16.000 40.000 16.000 36.000 L 16.000 32.000 22.000 32.000 L 28.000 32.000 28.000 36.000 " fill="#2B2C30" stroke="none" fill-rule="evenodd"></path></svg>