<svg width="56" height="58" viewBox="0 0 56 58" fill="none" xmlns="http://www.w3.org/2000/svg"><path d="M26.498 0.155 C 25.959 0.490,25.995 -0.579,25.969 15.786 C 25.950 27.732,25.969 30.946,26.062 31.229 C 26.136 31.452,26.299 31.667,26.497 31.800 C 26.786 31.994,26.919 32.013,28.000 32.013 C 29.081 32.013,29.214 31.994,29.503 31.800 C 29.701 31.667,29.864 31.452,29.938 31.228 C 30.032 30.944,30.051 27.750,30.031 15.785 C 30.004 -0.634,30.043 0.480,29.487 0.151 C 29.118 -0.067,26.850 -0.063,26.498 0.155 M18.760 3.449 C 17.609 3.809,15.563 4.737,14.209 5.515 C 7.099 9.596,2.153 16.412,0.570 24.313 C 0.185 26.233,0.063 27.511,0.055 29.727 C 0.046 32.444,0.268 34.343,0.878 36.758 C 1.823 40.496,3.636 44.151,6.083 47.250 C 7.052 48.477,9.498 50.917,10.640 51.796 C 14.437 54.717,18.433 56.525,22.913 57.349 C 26.062 57.928,29.621 57.945,32.834 57.395 C 37.361 56.621,41.507 54.767,45.360 51.794 C 46.478 50.931,48.941 48.484,49.863 47.320 C 53.191 43.117,55.157 38.365,55.827 32.900 C 56.006 31.433,55.980 27.893,55.778 26.413 C 55.026 20.912,53.001 16.220,49.577 12.050 C 46.688 8.531,42.680 5.590,38.500 3.923 C 37.155 3.386,36.986 3.347,36.642 3.490 C 36.078 3.726,36.027 3.891,36.027 5.468 C 36.027 7.183,36.033 7.195,37.214 7.697 C 44.622 10.841,49.943 17.316,51.514 25.097 C 53.356 34.218,49.820 43.461,42.340 49.084 C 37.750 52.533,31.638 54.281,25.993 53.758 C 18.462 53.060,11.901 49.118,7.814 42.836 C 6.397 40.657,5.213 37.869,4.620 35.311 C 4.090 33.028,3.883 29.984,4.099 27.665 C 4.923 18.825,10.530 11.202,18.786 7.697 C 19.967 7.195,19.973 7.183,19.973 5.468 C 19.973 3.891,19.922 3.726,19.357 3.490 C 19.186 3.419,19.034 3.364,19.020 3.368 C 19.005 3.372,18.888 3.409,18.760 3.449 " fill="#2B2C30" stroke="none" fill-rule="evenodd"></path></svg>