<svg width="48" height="48" viewBox="0 0 48 48" fill="none" xmlns="http://www.w3.org/2000/svg"><path d="M35.800 0.152 C 35.390 0.412,0.173 35.704,0.084 35.945 C 0.028 36.094,0.000 38.053,0.000 41.705 C 0.001 47.054,0.006 47.249,0.157 47.496 C 0.477 48.021,0.219 48.000,6.319 48.000 C 10.881 48.000,11.890 47.980,12.103 47.888 C 12.255 47.822,19.599 40.531,30.133 29.988 C 44.560 15.548,47.916 12.151,47.959 11.940 C 48.086 11.325,48.218 11.475,42.572 5.811 C 39.639 2.870,37.100 0.359,36.928 0.231 C 36.557 -0.043,36.154 -0.072,35.800 0.152 M39.520 8.520 L 42.680 11.680 28.400 25.960 L 14.120 40.240 10.940 37.060 L 7.760 33.880 22.020 19.620 C 29.863 11.777,36.298 5.360,36.320 5.360 C 36.343 5.360,37.782 6.782,39.520 8.520 M8.079 39.959 L 11.237 43.118 10.801 43.559 L 10.365 44.000 7.223 44.000 L 4.080 44.000 4.080 40.783 L 4.080 37.565 4.457 37.183 C 4.664 36.972,4.854 36.800,4.877 36.800 C 4.901 36.800,6.342 38.221,8.079 39.959 " fill="#2B2C30" stroke="none" fill-rule="evenodd"></path></svg>