<svg width="60" height="58" viewBox="0 0 60 58" fill="none" xmlns="http://www.w3.org/2000/svg"><path d="M28.998 0.129 C 28.749 0.200,28.344 0.370,28.098 0.508 C 27.661 0.752,2.377 19.081,1.515 19.777 C 0.515 20.587,-0.057 21.847,0.020 23.072 C 0.055 23.627,0.973 26.556,5.078 39.200 C 7.836 47.698,10.233 54.928,10.404 55.268 C 10.953 56.361,12.038 57.161,13.296 57.399 C 14.025 57.538,45.975 57.538,46.704 57.399 C 47.962 57.161,49.047 56.361,49.596 55.268 C 49.767 54.928,52.164 47.698,54.922 39.200 C 59.027 26.556,59.945 23.627,59.980 23.072 C 60.057 21.847,59.486 20.588,58.485 19.777 C 57.113 18.667,32.238 0.693,31.690 0.417 C 31.150 0.144,30.886 0.076,30.240 0.042 C 29.769 0.017,29.267 0.053,28.998 0.129 M43.039 13.499 L 55.976 22.898 55.155 25.424 C 54.704 26.813,52.474 33.676,50.200 40.675 L 46.065 53.400 29.999 53.400 L 13.933 53.400 9.005 38.225 C 6.295 29.879,4.071 23.014,4.064 22.969 C 4.046 22.867,29.807 4.113,29.977 4.106 C 30.046 4.103,35.924 8.329,43.039 13.499 " fill="#2B2C30" stroke="none" fill-rule="evenodd"></path></svg>