<svg width="56" height="56" viewBox="0 0 56 56" fill="none" xmlns="http://www.w3.org/2000/svg"><path d="M25.527 0.102 C 18.601 0.668,11.800 4.076,7.117 9.328 C 3.109 13.822,0.685 19.391,0.094 25.467 C -0.061 27.057,-0.041 27.298,0.272 27.649 L 0.545 27.953 13.844 27.978 C 22.411 27.993,27.229 27.969,27.385 27.910 C 27.518 27.859,27.711 27.680,27.813 27.512 C 27.998 27.210,28.000 27.069,27.977 13.876 L 27.953 0.545 27.649 0.272 C 27.309 -0.031,27.233 -0.037,25.527 0.102 M32.421 0.632 C 32.065 0.921,32.013 1.156,32.013 2.507 C 32.013 4.215,32.041 4.255,33.482 4.612 C 38.068 5.749,41.660 7.768,44.944 11.055 C 48.798 14.913,50.907 19.153,51.816 24.873 C 51.977 25.881,51.978 29.931,51.819 31.033 C 51.251 34.960,50.012 38.241,47.924 41.347 C 44.027 47.143,38.144 50.790,31.033 51.819 C 29.931 51.978,25.881 51.977,24.873 51.816 C 21.846 51.335,19.613 50.644,17.242 49.454 C 14.872 48.265,13.049 46.936,11.055 44.944 C 7.768 41.660,5.749 38.068,4.612 33.482 C 4.255 32.041,4.215 32.013,2.507 32.013 C 1.156 32.013,0.921 32.065,0.632 32.421 C 0.400 32.707,0.427 33.079,0.786 34.566 C 3.159 44.393,10.587 52.118,20.371 54.934 C 22.819 55.638,25.101 55.943,27.953 55.945 C 30.509 55.947,32.050 55.779,34.386 55.244 C 44.619 52.902,52.902 44.619,55.244 34.386 C 55.779 32.050,55.947 30.509,55.945 27.953 C 55.943 25.724,55.860 24.782,55.482 22.719 C 54.403 16.829,51.008 10.877,46.513 6.997 C 42.895 3.873,39.029 1.864,34.566 0.786 C 33.079 0.427,32.707 0.400,32.421 0.632 " fill="#2B2C30" stroke="none" fill-rule="evenodd"></path></svg>