<svg width="40" height="64" viewBox="0 0 40 64" fill="none" xmlns="http://www.w3.org/2000/svg"><path d="M18.667 0.042 C 12.796 0.480,7.525 3.338,4.014 7.989 C 1.990 10.669,0.758 13.649,0.178 17.266 L 0.033 18.167 0.033 32.000 L 0.033 45.833 0.178 46.734 C 1.066 52.271,3.688 56.721,7.983 59.979 C 10.644 61.998,13.701 63.262,17.266 63.818 C 18.572 64.022,21.428 64.022,22.734 63.818 C 26.299 63.262,29.356 61.998,32.017 59.979 C 35.996 56.961,38.695 52.644,39.628 47.807 C 39.980 45.979,39.967 46.606,39.967 32.000 C 39.967 17.394,39.980 18.021,39.628 16.193 C 38.618 10.956,35.524 6.316,31.067 3.355 C 28.452 1.618,25.682 0.587,22.500 0.165 C 21.720 0.062,19.400 -0.012,18.667 0.042 M21.367 4.069 C 24.152 4.329,26.582 5.175,28.804 6.659 C 30.320 7.672,31.390 8.645,32.480 10.003 C 34.484 12.502,35.646 15.417,35.931 18.667 C 36.023 19.710,36.023 44.290,35.931 45.333 C 35.688 48.104,34.833 50.570,33.341 52.804 C 30.747 56.688,26.909 59.129,22.267 59.845 C 21.197 60.010,18.803 60.010,17.733 59.845 C 14.334 59.321,11.432 57.905,8.930 55.552 C 7.313 54.030,5.775 51.683,4.973 49.513 C 4.533 48.321,4.204 46.812,4.069 45.367 C 3.975 44.362,3.975 19.638,4.069 18.633 C 4.419 14.881,5.904 11.609,8.496 8.878 C 9.998 7.295,12.348 5.764,14.487 4.973 C 16.570 4.204,19.162 3.863,21.367 4.069 " fill="#2B2C30" stroke="none" fill-rule="evenodd"></path></svg>