<svg width="64" height="40" viewBox="0 0 64 40" fill="none" xmlns="http://www.w3.org/2000/svg"><path d="M17.867 0.125 C 12.511 0.665,7.293 3.620,4.057 7.947 C 2.675 9.794,1.837 11.376,1.086 13.556 C -1.392 20.748,0.462 28.718,5.872 34.128 C 9.050 37.306,13.011 39.243,17.547 39.838 C 19.394 40.080,44.606 40.080,46.453 39.838 C 51.004 39.241,54.969 37.297,58.144 34.107 C 65.124 27.092,65.955 16.107,60.106 8.159 C 56.762 3.614,51.560 0.662,45.928 0.113 C 44.485 -0.027,19.274 -0.016,17.867 0.125 M47.585 4.395 C 53.661 5.903,58.178 10.440,59.606 16.470 C 59.863 17.552,59.887 17.849,59.890 19.947 C 59.894 22.542,59.731 23.575,59.017 25.493 C 57.320 30.054,53.680 33.617,49.173 35.131 C 46.411 36.058,46.093 36.074,31.040 36.028 C 19.797 35.994,18.294 35.970,17.437 35.811 C 13.903 35.158,11.100 33.702,8.665 31.256 C 6.542 29.123,5.103 26.520,4.393 23.530 C 4.134 22.438,4.112 22.165,4.112 20.000 C 4.112 17.835,4.134 17.562,4.393 16.470 C 5.934 9.984,11.168 5.137,17.679 4.168 C 18.017 4.118,24.629 4.085,32.373 4.095 L 46.453 4.114 47.585 4.395 " fill="#2B2C30" stroke="none" fill-rule="evenodd"></path></svg>