<svg width="48" height="48" viewBox="0 0 48 48" fill="none" xmlns="http://www.w3.org/2000/svg"><path d="M32.540 0.082 C 31.672 0.301,31.716 0.261,23.679 8.288 L 15.957 16.000 11.795 16.000 C 8.364 16.000,7.553 16.021,7.175 16.119 C 5.536 16.546,4.214 17.994,4.029 19.563 L 3.976 20.016 9.268 25.308 L 14.560 30.600 7.395 37.760 C 3.454 41.698,0.178 45.017,0.115 45.136 C -0.046 45.438,-0.028 45.815,0.160 46.121 C 0.249 46.263,0.717 46.744,1.201 47.190 C 1.971 47.899,2.116 48.000,2.364 48.000 C 2.520 48.000,2.745 47.948,2.864 47.885 C 2.983 47.822,6.302 44.546,10.240 40.605 L 17.400 33.440 22.697 38.737 L 27.994 44.034 28.532 43.941 C 30.086 43.675,31.474 42.388,31.878 40.837 C 31.980 40.443,32.000 39.679,32.000 36.164 L 32.000 31.962 39.791 24.161 C 47.229 16.713,47.590 16.338,47.768 15.880 C 47.909 15.515,47.954 15.237,47.955 14.720 C 47.957 14.117,47.928 13.977,47.695 13.480 C 47.445 12.947,47.130 12.618,41.256 6.744 C 35.465 0.952,35.047 0.552,34.543 0.318 C 33.952 0.043,33.095 -0.058,32.540 0.082 M43.520 14.760 C 43.520 14.804,40.028 18.332,35.761 22.599 L 28.001 30.358 27.981 34.339 L 27.960 38.320 18.800 29.160 L 9.640 20.000 13.640 20.000 L 17.640 20.000 25.440 12.200 L 33.240 4.400 38.380 9.540 C 41.207 12.367,43.520 14.716,43.520 14.760 " fill="#2B2C30" stroke="none" fill-rule="evenodd"></path></svg>