<svg width="45" height="56" viewBox="0 0 45 56" fill="none" xmlns="http://www.w3.org/2000/svg"><path d="M1.281 0.159 C 0.766 0.363,0.276 0.858,0.118 1.334 C 0.010 1.657,0.001 4.192,0.018 28.127 C 0.037 53.500,0.043 54.574,0.174 54.836 C 0.359 55.208,0.799 55.640,1.162 55.808 C 1.369 55.904,1.640 55.947,2.033 55.948 C 2.517 55.950,2.662 55.918,2.980 55.744 C 3.186 55.630,5.300 54.272,7.677 52.725 L 11.999 49.913 12.000 47.527 C 12.000 46.215,11.975 45.157,11.944 45.176 C 11.913 45.195,10.116 46.362,7.950 47.770 L 4.013 50.328 3.994 28.039 C 3.983 15.780,3.987 5.738,4.001 5.724 C 4.024 5.701,37.690 27.539,38.168 27.887 L 38.349 28.018 37.174 28.783 L 36.000 29.547 36.000 31.911 C 36.000 33.211,36.016 34.275,36.035 34.275 C 36.119 34.275,43.259 29.595,43.444 29.418 C 44.221 28.676,44.208 27.313,43.415 26.578 C 43.185 26.364,3.689 0.664,2.939 0.240 C 2.479 -0.020,1.817 -0.053,1.281 0.159 M16.606 32.098 C 16.521 32.132,16.360 32.268,16.250 32.399 L 16.050 32.637 16.050 44.038 L 16.050 55.440 16.305 55.695 L 16.560 55.950 18.000 55.950 L 19.440 55.950 19.688 55.702 C 19.866 55.524,19.950 55.358,19.984 55.120 C 20.010 54.937,20.022 49.826,20.010 43.762 C 19.988 32.973,19.984 32.732,19.841 32.495 C 19.590 32.081,19.365 32.024,17.989 32.030 C 17.314 32.032,16.692 32.063,16.606 32.098 M28.606 32.098 C 28.521 32.132,28.360 32.268,28.250 32.399 L 28.050 32.637 28.050 44.038 L 28.050 55.440 28.305 55.695 L 28.560 55.950 30.000 55.950 L 31.440 55.950 31.688 55.702 C 31.866 55.524,31.950 55.358,31.984 55.120 C 32.010 54.937,32.022 49.826,32.010 43.762 C 31.988 32.973,31.984 32.732,31.841 32.495 C 31.590 32.081,31.365 32.024,29.989 32.030 C 29.314 32.032,28.692 32.063,28.606 32.098 " fill="#2B2C30" stroke="none" fill-rule="evenodd"></path></svg>