<svg width="45" height="56" viewBox="0 0 45 56" fill="none" xmlns="http://www.w3.org/2000/svg"><path d="M1.281 0.159 C 0.772 0.360,0.280 0.855,0.120 1.325 C 0.011 1.644,-0.000 4.092,-0.000 28.016 C 0.000 56.790,-0.033 54.646,0.423 55.245 C 0.536 55.392,0.798 55.611,1.007 55.731 C 1.343 55.923,1.461 55.949,2.010 55.949 C 2.435 55.950,2.706 55.912,2.864 55.830 C 3.436 55.534,43.193 29.656,43.439 29.420 C 44.223 28.666,44.223 27.357,43.439 26.607 C 43.199 26.377,3.796 0.724,2.939 0.240 C 2.479 -0.020,1.817 -0.053,1.281 0.159 M21.160 16.829 C 30.580 22.949,38.288 27.983,38.288 28.015 C 38.288 28.066,4.084 50.325,4.006 50.325 C 3.989 50.325,3.975 40.284,3.975 28.012 C 3.975 15.741,3.988 5.700,4.003 5.700 C 4.019 5.700,11.739 10.708,21.160 16.829 " fill="#2B2C30" stroke="none" fill-rule="evenodd"></path></svg>