<svg width="56" height="56" viewBox="0 0 56 56" fill="none" xmlns="http://www.w3.org/2000/svg"><path d="M25.807 0.089 C 18.969 0.709,12.934 3.496,8.215 8.215 C 3.793 12.637,1.104 18.133,0.221 24.547 C 0.022 25.995,-0.006 29.757,0.173 31.080 C 0.710 35.062,1.775 38.449,3.416 41.393 C 9.973 53.159,23.428 58.627,36.254 54.740 C 42.315 52.903,47.736 48.851,51.280 43.510 C 53.837 39.655,55.245 35.780,55.830 30.987 C 55.985 29.724,55.985 26.276,55.830 25.013 C 55.361 21.170,54.294 17.733,52.628 14.700 C 48.207 6.651,40.528 1.410,31.422 0.227 C 30.159 0.063,26.962 -0.016,25.807 0.089 M30.387 4.112 C 32.529 4.319,35.123 4.968,37.101 5.792 C 40.168 7.068,42.554 8.671,44.942 11.058 C 48.769 14.886,50.988 19.347,51.814 24.873 C 51.896 25.417,51.938 26.554,51.935 28.093 C 51.931 30.114,51.899 30.656,51.722 31.687 C 50.808 37.021,48.657 41.226,44.942 44.942 C 41.114 48.769,36.653 50.988,31.127 51.814 C 30.000 51.983,26.000 51.983,24.873 51.814 C 21.371 51.291,18.267 50.186,15.457 48.464 C 12.413 46.597,9.403 43.588,7.536 40.543 C 2.831 32.869,2.831 23.131,7.536 15.457 C 9.403 12.413,12.413 9.403,15.457 7.536 C 18.423 5.718,22.134 4.452,25.480 4.117 C 26.641 4.001,29.214 3.999,30.387 4.112 M26.382 12.231 C 26.249 12.336,26.097 12.577,26.044 12.768 C 25.982 12.989,25.948 15.435,25.947 19.577 L 25.947 26.040 19.266 26.040 L 12.586 26.040 12.321 26.305 C 11.993 26.632,11.911 27.105,11.962 28.372 C 12.005 29.430,12.151 29.738,12.702 29.931 C 12.936 30.013,14.727 30.044,19.483 30.048 L 25.947 30.053 25.952 36.517 C 25.956 41.273,25.987 43.064,26.069 43.298 C 26.284 43.913,26.539 44.007,28.000 44.007 C 29.461 44.007,29.716 43.913,29.931 43.298 C 30.013 43.064,30.044 41.273,30.048 36.517 L 30.053 30.053 36.517 30.048 C 41.273 30.044,43.064 30.013,43.298 29.931 C 43.849 29.738,43.995 29.430,44.038 28.372 C 44.089 27.105,44.007 26.632,43.679 26.305 L 43.414 26.040 36.734 26.040 L 30.053 26.040 30.053 19.577 C 30.052 15.435,30.018 12.989,29.956 12.768 C 29.776 12.119,29.564 12.040,28.000 12.040 C 26.756 12.040,26.602 12.058,26.382 12.231 " fill="#2B2C30" stroke="none" fill-rule="evenodd"></path></svg>