<svg width="44" height="44" viewBox="0 0 44 44" fill="none" xmlns="http://www.w3.org/2000/svg"><path d="M20.542 0.125 C 20.406 0.193,20.233 0.349,20.158 0.472 C 20.026 0.688,20.021 1.054,20.020 10.358 L 20.020 20.020 10.358 20.020 C 0.797 20.021,0.694 20.022,0.454 20.169 C 0.064 20.406,0.000 20.664,0.000 22.005 C 0.000 23.331,0.068 23.596,0.471 23.842 C 0.689 23.975,1.035 23.979,10.358 23.980 L 20.020 23.980 20.020 33.642 C 20.021 42.965,20.025 43.311,20.158 43.529 C 20.404 43.932,20.669 44.000,22.000 44.000 C 23.331 44.000,23.596 43.932,23.842 43.529 C 23.975 43.311,23.979 42.965,23.980 33.642 L 23.980 23.980 33.642 23.980 C 42.965 23.979,43.311 23.975,43.529 23.842 C 43.932 23.596,44.000 23.331,44.000 22.000 C 44.000 20.663,43.938 20.423,43.525 20.168 C 43.289 20.022,43.183 20.020,33.633 20.020 L 23.980 20.020 23.980 10.358 C 23.979 1.035,23.975 0.689,23.842 0.471 C 23.595 0.066,23.333 -0.000,21.989 0.002 C 21.021 0.003,20.742 0.027,20.542 0.125 " fill="#2B2C30" stroke="none" fill-rule="evenodd"></path></svg>