<svg width="32" height="32" viewBox="0 0 32 32" fill="none" xmlns="http://www.w3.org/2000/svg"><path d="M1.436 0.070 C 0.882 0.226,0.421 0.625,0.167 1.167 C 0.051 1.415,0.027 1.541,0.029 1.893 L 0.031 2.320 1.957 7.387 C 7.280 21.388,10.373 29.363,11.035 30.796 C 11.278 31.321,11.565 31.632,11.992 31.832 C 12.245 31.950,12.367 31.973,12.747 31.973 C 13.132 31.972,13.245 31.950,13.500 31.825 C 14.071 31.546,14.079 31.532,16.688 26.568 L 19.108 21.964 24.074 26.924 C 29.348 32.191,29.137 31.999,29.623 32.000 C 29.928 32.000,30.213 31.792,31.026 30.973 C 32.004 29.987,32.094 29.817,31.942 29.253 C 31.892 29.069,31.207 28.362,26.925 24.075 L 21.966 19.110 26.569 16.689 C 31.533 14.080,31.545 14.072,31.826 13.500 C 31.952 13.244,31.973 13.134,31.973 12.747 C 31.973 12.098,31.767 11.689,31.237 11.284 C 30.726 10.895,22.970 7.868,5.840 1.376 C 2.068 -0.054,1.974 -0.082,1.436 0.070 M9.140 6.902 C 11.080 7.647,14.515 8.965,16.773 9.829 C 23.877 12.549,24.969 12.981,24.888 13.040 C 24.848 13.069,23.084 14.003,20.968 15.115 L 17.121 17.138 15.087 21.009 C 13.968 23.138,13.037 24.897,13.019 24.918 C 12.979 24.963,12.202 22.970,9.227 15.200 C 8.031 12.076,6.723 8.668,6.320 7.627 C 5.525 5.572,5.515 5.547,5.574 5.547 C 5.596 5.547,7.201 6.157,9.140 6.902 " fill="#2B2C30" stroke="none" fill-rule="evenodd"></path></svg>