<svg width="57" height="57" viewBox="0 0 57 57" fill="none" xmlns="http://www.w3.org/2000/svg"><path d="M-0.000 2.044 L -0.000 4.089 2.019 4.063 L 4.037 4.037 4.063 2.019 L 4.089 -0.000 2.044 -0.000 L 0.000 0.000 -0.000 2.044 M8.170 2.042 L 8.170 4.085 10.165 4.085 L 12.160 4.085 12.160 2.042 L 12.160 0.000 10.165 0.000 L 8.170 0.000 8.170 2.042 M16.245 2.044 L 16.245 4.089 18.264 4.063 L 20.282 4.037 20.308 2.019 L 20.334 -0.000 18.289 -0.000 L 16.245 0.000 16.245 2.044 M24.415 2.042 L 24.415 4.085 26.410 4.085 L 28.405 4.085 28.405 2.042 L 28.405 0.000 26.410 0.000 L 24.415 0.000 24.415 2.042 M32.490 2.044 L 32.490 4.089 34.509 4.063 L 36.528 4.037 36.553 2.019 L 36.579 -0.000 34.534 -0.000 L 32.490 0.000 32.490 2.044 M0.000 10.165 L 0.000 12.160 2.042 12.160 L 4.085 12.160 4.085 10.165 L 4.085 8.170 2.042 8.170 L 0.000 8.170 0.000 10.165 M32.490 10.165 L 32.490 12.160 34.532 12.160 L 36.575 12.160 36.575 10.165 L 36.575 8.170 34.532 8.170 L 32.490 8.170 32.490 10.165 M-0.000 18.289 L -0.000 20.334 2.019 20.308 L 4.037 20.282 4.063 18.264 L 4.089 16.245 2.044 16.245 L 0.000 16.245 -0.000 18.289 M32.490 18.289 L 32.490 20.334 34.509 20.308 L 36.528 20.282 36.553 18.264 L 36.579 16.245 34.534 16.245 L 32.490 16.245 32.490 18.289 M0.000 26.410 L 0.000 28.405 2.042 28.405 L 4.085 28.405 4.085 26.410 L 4.085 24.415 2.042 24.415 L 0.000 24.415 0.000 26.410 M25.555 24.724 C 25.320 24.849,24.999 25.134,24.843 25.357 C 24.600 25.700,24.558 25.850,24.558 26.347 C 24.558 26.882,24.757 27.457,26.873 33.013 C 32.087 46.705,35.254 54.851,35.708 55.741 C 36.339 56.977,37.772 57.232,38.687 56.269 C 38.829 56.119,40.042 53.946,41.382 51.440 C 42.722 48.933,43.836 46.863,43.858 46.840 C 43.879 46.816,46.172 49.068,48.952 51.845 C 52.345 55.233,54.093 56.914,54.269 56.957 C 54.750 57.074,55.037 56.910,55.979 55.975 C 56.931 55.031,57.100 54.727,56.952 54.230 C 56.915 54.107,54.604 51.720,51.816 48.925 L 46.746 43.843 51.326 41.420 C 53.846 40.088,56.048 38.874,56.221 38.722 C 57.338 37.742,56.992 36.284,55.480 35.596 C 54.502 35.152,49.865 33.330,43.226 30.781 C 30.729 25.984,26.946 24.574,26.457 24.534 C 26.086 24.503,25.889 24.545,25.555 24.724 M35.958 32.344 C 43.116 35.074,49.203 37.425,49.483 37.569 C 49.692 37.677,49.461 37.815,46.205 39.529 C 41.630 41.937,42.030 41.552,39.854 45.649 C 37.427 50.220,37.707 49.750,37.570 49.484 C 37.361 49.078,30.364 30.849,30.230 30.361 C 30.191 30.219,30.219 30.191,30.361 30.230 C 30.461 30.257,32.979 31.209,35.958 32.344 M-0.000 34.534 L -0.000 36.579 2.019 36.553 L 4.037 36.528 4.063 34.509 L 4.089 32.490 2.044 32.490 L 0.000 32.490 -0.000 34.534 M8.170 34.532 L 8.170 36.575 10.165 36.575 L 12.160 36.575 12.160 34.532 L 12.160 32.490 10.165 32.490 L 8.170 32.490 8.170 34.532 M16.245 34.534 L 16.245 36.579 18.264 36.553 L 20.282 36.528 20.308 34.509 L 20.334 32.490 18.289 32.490 L 16.245 32.490 16.245 34.534 " fill="#2B2C30" stroke="none" fill-rule="evenodd"></path></svg>