<svg width="48" height="44" viewBox="0 0 48 44" fill="none" xmlns="http://www.w3.org/2000/svg"><path d="M9.334 0.130 C 8.606 0.353,8.000 1.203,8.000 2.000 C 8.000 3.034,8.966 4.000,10.000 4.000 C 11.034 4.000,12.000 3.034,12.000 2.000 C 12.000 1.196,11.376 0.346,10.621 0.122 C 10.121 -0.027,9.837 -0.025,9.334 0.130 M17.334 0.130 C 16.606 0.353,16.000 1.203,16.000 2.000 C 16.000 2.804,16.624 3.654,17.379 3.878 C 17.893 4.031,18.107 4.031,18.621 3.878 C 19.376 3.654,20.000 2.804,20.000 2.000 C 20.000 1.196,19.376 0.346,18.621 0.122 C 18.121 -0.027,17.837 -0.025,17.334 0.130 M25.334 0.130 C 24.606 0.353,24.000 1.203,24.000 2.000 C 24.000 3.034,24.966 4.000,26.000 4.000 C 27.034 4.000,28.000 3.034,28.000 2.000 C 28.000 1.196,27.376 0.346,26.621 0.122 C 26.121 -0.027,25.837 -0.025,25.334 0.130 M33.334 0.130 C 32.606 0.353,32.000 1.203,32.000 2.000 C 32.000 3.034,32.966 4.000,34.000 4.000 C 35.034 4.000,36.000 3.034,36.000 2.000 C 36.000 1.196,35.376 0.346,34.621 0.122 C 34.121 -0.027,33.837 -0.025,33.334 0.130 M1.334 8.130 C 0.606 8.353,-0.000 9.203,-0.000 10.000 C 0.000 11.034,0.966 12.000,2.000 12.000 C 2.804 12.000,3.654 11.376,3.878 10.621 C 4.031 10.107,4.031 9.893,3.878 9.379 C 3.713 8.822,3.178 8.287,2.621 8.122 C 2.121 7.973,1.837 7.975,1.334 8.130 M41.334 8.130 C 40.606 8.353,40.000 9.203,40.000 10.000 C 40.000 11.034,40.966 12.000,42.000 12.000 C 43.034 12.000,44.000 11.034,44.000 10.000 C 44.000 9.196,43.376 8.346,42.621 8.122 C 42.121 7.973,41.837 7.975,41.334 8.130 M1.334 16.130 C 0.606 16.353,-0.000 17.203,-0.000 18.000 C 0.000 19.034,0.966 20.000,2.000 20.000 C 3.034 20.000,4.000 19.034,4.000 18.000 C 4.000 17.196,3.376 16.346,2.621 16.122 C 2.121 15.973,1.837 15.975,1.334 16.130 M34.600 20.092 C 33.782 20.182,32.445 20.513,31.698 20.809 C 28.008 22.273,25.384 25.222,24.399 29.012 C 22.738 35.401,26.594 41.933,33.012 43.601 C 37.891 44.870,43.095 42.901,45.919 38.718 C 47.474 36.416,48.186 33.668,47.931 30.952 C 47.297 24.179,41.362 19.344,34.600 20.092 M1.334 24.130 C 0.606 24.353,-0.000 25.203,-0.000 26.000 C 0.000 27.034,0.966 28.000,2.000 28.000 C 3.034 28.000,4.000 27.034,4.000 26.000 C 4.000 25.196,3.376 24.346,2.621 24.122 C 2.121 23.973,1.837 23.975,1.334 24.130 M37.960 24.239 C 41.147 25.098,43.426 27.634,43.927 30.880 C 44.053 31.695,43.974 33.156,43.760 33.953 C 43.291 35.706,42.368 37.131,40.977 38.249 C 38.674 40.099,35.530 40.510,32.780 39.320 C 31.011 38.555,29.444 36.984,28.671 35.201 C 28.156 34.013,28.053 33.477,28.053 32.000 C 28.053 30.523,28.156 29.987,28.671 28.799 C 29.715 26.390,31.956 24.615,34.587 24.113 C 35.424 23.954,37.138 24.018,37.960 24.239 M1.334 32.130 C 0.606 32.353,-0.000 33.203,-0.000 34.000 C 0.000 35.034,0.966 36.000,2.000 36.000 C 3.034 36.000,4.000 35.034,4.000 34.000 C 4.000 33.196,3.376 32.346,2.621 32.122 C 2.121 31.973,1.837 31.975,1.334 32.130 M9.334 40.130 C 8.606 40.353,8.000 41.203,8.000 42.000 C 8.000 43.034,8.966 44.000,10.000 44.000 C 11.034 44.000,12.000 43.034,12.000 42.000 C 12.000 41.196,11.376 40.346,10.621 40.122 C 10.121 39.973,9.837 39.975,9.334 40.130 M17.327 40.126 C 16.872 40.293,16.514 40.594,16.262 41.023 C 16.073 41.344,16.040 41.488,16.040 42.000 C 16.040 42.512,16.073 42.656,16.262 42.977 C 16.939 44.129,18.468 44.336,19.402 43.402 C 20.185 42.620,20.185 41.380,19.402 40.598 C 18.857 40.053,18.036 39.866,17.327 40.126 " fill="#2B2C30" stroke="none" fill-rule="evenodd"></path></svg>