<svg width="55" height="55" viewBox="0 0 55 55" fill="none" xmlns="http://www.w3.org/2000/svg"><path d="M17.659 0.089 C 15.933 0.642,15.745 3.013,17.365 3.805 C 17.812 4.024,17.957 4.051,18.435 4.008 C 19.470 3.914,20.151 3.221,20.232 2.180 C 20.271 1.674,20.244 1.543,20.011 1.101 C 19.674 0.461,19.125 0.098,18.415 0.043 C 18.143 0.022,17.803 0.043,17.659 0.089 M25.736 0.130 C 24.902 0.428,24.462 0.993,24.400 1.845 C 24.350 2.538,24.555 3.098,25.001 3.491 C 25.906 4.285,27.114 4.208,27.885 3.307 C 29.194 1.778,27.623 -0.543,25.736 0.130 M9.304 8.305 C 8.556 8.713,8.158 9.350,8.158 10.142 C 8.158 11.104,8.668 11.784,9.597 12.064 C 10.179 12.239,10.721 12.150,11.258 11.791 C 12.422 11.010,12.437 9.290,11.287 8.481 C 10.955 8.248,10.798 8.203,10.238 8.181 C 9.763 8.163,9.503 8.197,9.304 8.305 M25.529 8.305 C 25.116 8.530,24.755 8.895,24.549 9.296 C 24.262 9.853,24.341 10.768,24.720 11.293 C 25.451 12.305,27.023 12.428,27.833 11.536 C 28.653 10.634,28.499 9.175,27.512 8.481 C 27.180 8.248,27.023 8.203,26.463 8.181 C 25.988 8.163,25.728 8.197,25.529 8.305 M1.434 16.314 C -0.292 16.867,-0.480 19.238,1.140 20.030 C 1.587 20.249,1.732 20.276,2.210 20.233 C 3.245 20.139,3.926 19.446,4.007 18.405 C 4.046 17.899,4.019 17.768,3.786 17.326 C 3.449 16.686,2.900 16.323,2.190 16.268 C 1.918 16.247,1.578 16.268,1.434 16.314 M20.781 20.626 C 20.652 20.728,20.499 20.956,20.440 21.133 C 20.338 21.443,20.562 22.024,26.946 37.986 C 31.409 49.145,33.627 54.582,33.770 54.717 C 34.226 55.145,35.048 55.015,35.324 54.471 C 35.394 54.334,36.579 51.210,37.958 47.529 C 39.422 43.619,40.542 40.760,40.651 40.651 C 40.760 40.542,43.619 39.422,47.529 37.958 C 51.210 36.579,54.336 35.392,54.476 35.321 C 55.023 35.044,55.148 34.169,54.701 33.757 C 54.588 33.654,47.125 30.615,38.115 27.005 C 26.174 22.221,21.637 20.442,21.375 20.442 C 21.154 20.442,20.926 20.513,20.781 20.626 M1.286 24.485 C 0.042 24.982,-0.374 26.598,0.476 27.630 C 1.418 28.773,3.249 28.531,3.860 27.184 C 4.301 26.213,3.851 24.992,2.891 24.556 C 2.488 24.372,1.660 24.336,1.286 24.485 M36.369 30.684 C 41.373 32.683,45.436 34.350,45.398 34.386 C 45.360 34.423,43.996 34.952,42.366 35.562 C 40.736 36.172,39.200 36.773,38.952 36.899 C 38.253 37.253,37.291 38.216,36.918 38.936 C 36.742 39.276,36.113 40.854,35.521 42.442 C 34.929 44.030,34.416 45.360,34.382 45.398 C 34.338 45.447,27.623 28.836,26.983 27.095 C 26.929 26.949,26.949 26.929,27.095 26.983 C 27.191 27.019,31.365 28.684,36.369 30.684 M1.329 32.582 C 0.831 32.766,0.224 33.423,0.089 33.926 C -0.159 34.846,0.255 35.790,1.101 36.236 C 1.543 36.469,1.674 36.496,2.180 36.457 C 3.237 36.375,3.925 35.687,4.007 34.630 C 4.046 34.124,4.019 33.993,3.786 33.551 C 3.319 32.665,2.249 32.243,1.329 32.582 M9.304 40.755 C 8.891 40.980,8.530 41.345,8.324 41.746 C 8.043 42.293,8.116 43.218,8.483 43.739 C 9.194 44.751,10.798 44.878,11.608 43.986 C 12.428 43.084,12.279 41.658,11.291 40.944 C 10.948 40.696,10.805 40.654,10.237 40.631 C 9.763 40.613,9.502 40.648,9.304 40.755 M17.511 40.710 C 16.588 41.079,16.047 42.167,16.314 43.120 C 16.724 44.583,18.594 45.081,19.672 44.014 C 20.641 43.056,20.346 41.339,19.116 40.781 C 18.713 40.597,17.885 40.561,17.511 40.710 " fill="#2B2C30" stroke="none" fill-rule="evenodd"></path></svg>