<svg width="56" height="56" viewBox="0 0 56 56" fill="none" xmlns="http://www.w3.org/2000/svg"><path d="M12.498 0.155 C 11.975 0.480,11.995 0.245,11.967 6.367 L 11.940 12.033 7.438 12.060 L 2.936 12.087 2.288 12.406 C 1.573 12.758,0.909 13.362,0.534 14.003 C -0.020 14.949,0.000 14.439,0.000 27.371 C 0.000 37.934,0.016 39.240,0.146 39.492 C 0.431 40.043,0.396 40.040,6.434 40.040 L 11.941 40.040 11.967 47.670 C 11.992 54.781,12.005 55.316,12.158 55.542 C 12.249 55.676,12.429 55.833,12.559 55.892 C 12.899 56.047,43.101 56.047,43.441 55.892 C 43.571 55.833,43.751 55.676,43.842 55.542 C 43.995 55.316,44.008 54.781,44.033 47.670 L 44.059 40.040 49.566 40.040 C 55.604 40.040,55.569 40.043,55.854 39.492 C 55.984 39.240,56.000 37.934,56.000 27.371 C 56.000 14.439,56.020 14.949,55.466 14.003 C 55.091 13.362,54.427 12.758,53.712 12.406 L 53.064 12.087 48.562 12.060 L 44.060 12.033 44.033 6.367 C 44.004 0.221,44.026 0.470,43.487 0.151 C 43.254 0.014,41.861 0.000,27.986 0.002 C 14.131 0.005,12.718 0.019,12.498 0.155 M39.947 8.027 L 39.947 12.040 28.000 12.040 L 16.053 12.040 16.053 8.027 L 16.053 4.013 28.000 4.013 L 39.947 4.013 39.947 8.027 M51.987 26.040 L 51.987 36.027 48.020 36.027 L 44.053 36.027 44.053 32.013 L 44.053 28.000 28.000 28.000 L 11.947 28.000 11.947 32.013 L 11.947 36.027 7.980 36.027 L 4.013 36.027 4.013 26.040 L 4.013 16.053 28.000 16.053 L 51.987 16.053 51.987 26.040 M8.622 20.103 C 8.086 20.345,8.027 20.529,8.027 21.950 C 8.027 23.918,8.094 23.987,10.005 23.985 C 11.405 23.984,11.628 23.917,11.880 23.425 C 12.021 23.152,12.043 22.904,12.020 21.865 L 11.993 20.630 11.688 20.325 L 11.383 20.020 10.148 19.996 C 9.243 19.978,8.836 20.006,8.622 20.103 M39.947 42.000 L 39.947 51.987 28.000 51.987 L 16.053 51.987 16.053 42.000 L 16.053 32.013 28.000 32.013 L 39.947 32.013 39.947 42.000 M20.325 44.326 L 20.020 44.598 20.020 46.013 L 20.020 47.429 20.325 47.701 L 20.630 47.973 28.000 47.973 L 35.370 47.973 35.675 47.701 L 35.980 47.429 35.980 46.013 L 35.980 44.598 35.675 44.326 L 35.370 44.053 28.000 44.053 L 20.630 44.053 20.325 44.326 " fill="#2B2C30" stroke="none" fill-rule="evenodd"></path></svg>