<svg width="56" height="47" viewBox="0 0 56 47" fill="none" xmlns="http://www.w3.org/2000/svg"><path d="M32.993 0.140 C 32.499 0.315,31.982 0.882,31.798 1.452 C 31.716 1.706,29.396 10.334,26.643 20.627 C 23.889 30.919,21.626 39.351,21.612 39.365 C 21.598 39.379,19.100 35.074,16.061 29.799 C 12.283 23.242,10.422 20.098,10.179 19.864 C 9.983 19.676,9.661 19.477,9.462 19.422 C 9.226 19.356,7.511 19.321,4.550 19.321 L 0.000 19.320 0.000 21.327 L 0.000 23.333 3.850 23.334 L 7.700 23.334 14.137 34.511 C 18.743 42.506,20.685 45.795,20.961 46.069 C 21.816 46.916,23.220 46.778,23.909 45.779 C 24.119 45.474,25.068 42.034,29.120 26.880 C 34.950 5.077,34.357 7.252,34.447 7.345 C 34.487 7.386,36.395 10.675,38.688 14.653 C 40.981 18.632,42.985 22.087,43.140 22.333 C 43.311 22.603,43.594 22.879,43.855 23.033 L 44.287 23.287 50.143 23.313 L 56.000 23.339 56.000 21.330 L 56.000 19.322 50.992 19.297 L 45.983 19.273 40.679 10.080 C 37.762 5.024,35.260 0.765,35.120 0.616 C 34.587 0.052,33.764 -0.132,32.993 0.140 " fill="#2B2C30" stroke="none" fill-rule="evenodd"></path></svg>