<svg width="52" height="52" viewBox="0 0 52 52" fill="none" xmlns="http://www.w3.org/2000/svg"><path d="M24.267 0.055 C 16.634 0.624,9.783 4.340,5.218 10.386 C 2.585 13.874,0.959 17.808,0.237 22.446 C -0.028 24.144,-0.028 27.856,0.237 29.554 C 1.349 36.689,4.794 42.537,10.385 46.778 C 13.836 49.397,17.815 51.042,22.446 51.763 C 24.144 52.028,27.856 52.028,29.554 51.763 C 32.742 51.267,35.645 50.327,38.196 48.965 C 42.722 46.549,46.549 42.722,48.965 38.196 C 50.327 35.645,51.267 32.742,51.763 29.554 C 52.028 27.856,52.028 24.144,51.763 22.446 C 51.041 17.811,49.398 13.837,46.773 10.378 C 42.476 4.714,36.337 1.153,29.250 0.215 C 28.235 0.081,25.219 -0.016,24.267 0.055 M24.007 14.040 L 24.007 24.007 14.036 24.007 L 4.065 24.007 4.111 23.725 C 4.136 23.570,4.199 23.131,4.251 22.750 C 4.577 20.376,5.536 17.528,6.729 15.390 C 7.745 13.569,8.792 12.176,10.305 10.630 C 13.721 7.140,17.914 4.989,22.750 4.248 C 23.322 4.160,23.839 4.085,23.898 4.081 C 23.984 4.075,24.007 6.120,24.007 14.040 M29.250 4.251 C 36.560 5.253,43.232 10.375,46.179 17.248 C 46.960 19.069,47.620 21.460,47.794 23.097 C 47.824 23.383,47.867 23.704,47.890 23.812 L 47.930 24.007 37.962 24.007 L 27.993 24.007 27.993 14.036 L 27.993 4.065 28.275 4.111 C 28.430 4.136,28.869 4.199,29.250 4.251 M24.007 37.965 L 24.007 47.937 23.595 47.882 C 18.169 47.158,13.912 45.065,10.262 41.328 C 8.790 39.820,7.734 38.411,6.729 36.610 C 5.536 34.472,4.577 31.624,4.251 29.250 C 4.199 28.869,4.136 28.430,4.111 28.275 L 4.065 27.993 14.036 27.993 L 24.007 27.993 24.007 37.965 M47.890 28.188 C 47.867 28.296,47.824 28.617,47.794 28.903 C 47.695 29.838,47.318 31.531,46.959 32.653 C 45.824 36.205,44.004 39.131,41.285 41.775 C 37.735 45.229,33.602 47.188,28.405 47.882 L 27.993 47.937 27.993 37.965 L 27.993 27.993 37.962 27.993 L 47.930 27.993 47.890 28.188 " fill="#2B2C30" stroke="none" fill-rule="evenodd"></path></svg>