<svg width="64" height="56" viewBox="0 0 64 56" fill="none" xmlns="http://www.w3.org/2000/svg"><path d="M12.382 0.276 L 12.053 0.552 12.053 28.000 L 12.053 55.448 12.382 55.724 L 12.710 56.000 18.355 56.000 L 24.000 56.000 24.000 53.973 L 24.000 51.947 32.000 51.947 L 40.000 51.947 40.000 53.973 L 40.000 56.000 45.645 56.000 L 51.290 56.000 51.618 55.724 L 51.947 55.448 51.947 28.000 L 51.947 0.552 51.618 0.276 L 51.290 0.000 32.000 0.000 L 12.710 0.000 12.382 0.276 M48.000 9.973 L 48.000 16.000 32.000 16.000 L 16.000 16.000 16.000 9.973 L 16.000 3.947 32.000 3.947 L 48.000 3.947 48.000 9.973 M0.535 8.135 C 0.390 8.210,0.210 8.390,0.137 8.535 C 0.030 8.746,0.007 12.760,0.028 28.130 L 0.053 47.461 0.296 47.704 C 0.539 47.947,0.541 47.947,4.000 47.947 C 7.459 47.947,7.461 47.947,7.704 47.704 C 7.946 47.462,7.947 47.451,7.977 43.730 L 8.008 40.000 6.084 40.000 L 4.160 40.000 4.160 33.973 L 4.160 27.947 6.080 27.947 L 8.000 27.947 8.000 25.973 L 8.000 24.000 6.080 24.000 L 4.160 24.000 4.160 17.973 L 4.160 11.947 6.087 11.947 L 8.015 11.947 7.981 10.243 C 7.933 7.844,8.309 8.060,4.131 8.026 C 1.593 8.005,0.737 8.031,0.535 8.135 M19.971 10.000 L 20.000 12.000 22.000 12.029 L 24.000 12.058 24.000 10.029 L 24.000 8.000 21.971 8.000 L 19.942 8.000 19.971 10.000 M28.053 9.973 L 28.053 11.947 36.000 11.947 L 43.947 11.947 43.947 9.973 L 43.947 8.000 36.000 8.000 L 28.053 8.000 28.053 9.973 M56.535 8.135 C 56.077 8.371,56.003 8.680,56.002 10.373 L 56.000 11.947 57.920 11.947 L 59.840 11.947 59.840 17.973 L 59.840 24.000 57.920 24.000 L 56.000 24.000 56.000 25.973 L 56.000 27.947 57.920 27.947 L 59.840 27.947 59.840 33.973 L 59.840 40.000 57.916 40.000 L 55.992 40.000 56.023 43.730 C 56.053 47.451,56.054 47.462,56.296 47.704 C 56.539 47.947,56.541 47.947,60.000 47.947 C 63.459 47.947,63.461 47.947,63.704 47.704 L 63.947 47.461 63.947 28.000 L 63.947 8.539 63.704 8.296 C 63.463 8.055,63.437 8.053,60.131 8.026 C 57.593 8.005,56.737 8.031,56.535 8.135 M48.000 25.973 L 48.000 32.000 32.000 32.000 L 16.000 32.000 16.000 25.973 L 16.000 19.947 32.000 19.947 L 48.000 19.947 48.000 25.973 M20.053 25.973 L 20.053 27.947 22.027 27.947 L 24.000 27.947 24.000 25.973 L 24.000 24.000 22.027 24.000 L 20.053 24.000 20.053 25.973 M28.053 25.973 L 28.053 27.947 36.000 27.947 L 43.947 27.947 43.947 25.973 L 43.947 24.000 36.000 24.000 L 28.053 24.000 28.053 25.973 M48.000 41.973 L 48.000 48.000 32.000 48.000 L 16.000 48.000 16.000 41.973 L 16.000 35.947 32.000 35.947 L 48.000 35.947 48.000 41.973 M20.053 41.973 L 20.053 43.947 22.027 43.947 L 24.000 43.947 24.000 41.973 L 24.000 40.000 22.027 40.000 L 20.053 40.000 20.053 41.973 M28.053 41.973 L 28.053 43.947 36.000 43.947 L 43.947 43.947 43.947 41.973 L 43.947 40.000 36.000 40.000 L 28.053 40.000 28.053 41.973 " fill="#2B2C30" stroke="none" fill-rule="evenodd"></path></svg>