<svg width="48" height="48" viewBox="0 0 48 48" fill="none" xmlns="http://www.w3.org/2000/svg"><path d="M22.400 0.051 C 15.354 0.576,9.071 3.982,4.825 9.579 C 2.397 12.779,0.887 16.432,0.218 20.719 C -0.026 22.287,-0.026 25.713,0.218 27.281 C 1.244 33.864,4.427 39.266,9.586 43.180 C 12.772 45.597,16.444 47.115,20.719 47.782 C 22.287 48.026,25.713 48.026,27.281 47.782 C 33.113 46.873,38.071 44.243,41.791 40.086 C 45.089 36.400,46.995 32.326,47.782 27.281 C 48.026 25.713,48.026 22.287,47.782 20.719 C 47.115 16.444,45.597 12.772,43.180 9.586 C 39.211 4.355,33.539 1.064,27.000 0.199 C 26.063 0.075,23.280 -0.015,22.400 0.051 M26.986 4.237 C 30.771 4.831,34.011 6.308,36.960 8.782 C 40.164 11.469,42.565 15.423,43.481 19.520 C 43.864 21.232,43.953 22.089,43.949 24.040 C 43.946 26.033,43.821 27.120,43.394 28.858 C 42.051 34.324,38.278 39.109,33.247 41.726 C 24.313 46.373,13.391 43.695,7.612 35.440 C 5.832 32.898,4.750 30.185,4.225 26.945 C 3.977 25.415,3.977 22.585,4.225 21.055 C 5.165 15.257,8.206 10.495,12.999 7.318 C 15.835 5.439,18.980 4.363,22.560 4.048 C 23.422 3.972,25.997 4.082,26.986 4.237 " fill="#2B2C30" stroke="none" fill-rule="evenodd"></path></svg>