<svg width="48" height="48" viewBox="0 0 48 48" fill="none" xmlns="http://www.w3.org/2000/svg"><path d="M22.120 0.076 C 18.489 0.405,15.121 1.438,12.192 3.119 C 6.408 6.440,2.313 11.827,0.728 18.200 C 0.218 20.249,0.046 21.714,0.046 24.000 C 0.046 26.286,0.218 27.751,0.728 29.800 C 2.693 37.703,8.633 44.151,16.320 46.725 C 18.898 47.589,21.196 47.957,24.000 47.957 C 28.894 47.957,33.226 46.653,37.294 43.954 C 45.722 38.363,49.716 28.054,47.272 18.200 C 45.837 12.416,42.258 7.339,37.294 4.046 C 34.090 1.920,30.881 0.725,26.960 0.197 C 25.879 0.051,23.148 -0.017,22.120 0.076 M26.880 4.198 C 31.233 4.869,35.034 6.788,38.123 9.877 C 41.234 12.988,43.130 16.759,43.815 21.200 C 44.014 22.490,44.014 25.510,43.815 26.800 C 43.130 31.241,41.234 35.012,38.123 38.123 C 35.012 41.234,31.241 43.130,26.800 43.815 C 25.510 44.014,22.490 44.014,21.200 43.815 C 16.759 43.130,12.988 41.234,9.877 38.123 C 6.766 35.012,4.870 31.241,4.185 26.800 C 3.986 25.510,3.986 22.490,4.185 21.200 C 4.870 16.759,6.766 12.988,9.877 9.877 C 13.271 6.484,17.373 4.569,22.360 4.049 C 23.072 3.975,26.073 4.074,26.880 4.198 M22.680 14.092 C 21.697 14.217,20.634 14.547,19.640 15.034 C 16.747 16.453,14.781 19.020,14.151 22.200 C 14.005 22.937,14.005 25.063,14.151 25.800 C 14.964 29.906,18.094 33.036,22.200 33.849 C 22.937 33.995,25.063 33.995,25.800 33.849 C 27.709 33.471,29.438 32.591,30.816 31.296 C 32.296 29.905,33.226 28.304,33.739 26.262 C 33.933 25.489,33.955 25.256,33.955 24.000 C 33.955 22.744,33.933 22.511,33.739 21.738 C 33.354 20.205,32.747 18.945,31.851 17.823 C 29.643 15.055,26.180 13.646,22.680 14.092 " fill="#2B2C30" stroke="none" fill-rule="evenodd"></path></svg>