<svg width="53" height="49" viewBox="0 0 53 49" fill="none" xmlns="http://www.w3.org/2000/svg"><path d="M41.252 0.194 C 41.073 0.315,40.898 0.533,40.837 0.710 C 40.762 0.926,40.730 2.068,40.727 4.615 L 40.722 8.215 37.255 8.215 L 33.789 8.215 17.021 24.976 C 7.799 34.195,0.197 41.845,0.127 41.976 C -0.176 42.546,-0.017 42.887,1.032 43.914 C 1.915 44.779,2.063 44.873,2.533 44.873 C 2.863 44.873,3.201 44.542,19.168 28.576 L 35.466 12.278 38.094 12.278 L 40.722 12.278 40.722 15.790 C 40.722 17.912,40.758 19.430,40.813 19.626 C 40.985 20.244,41.706 20.594,42.230 20.313 C 42.518 20.159,52.589 11.063,52.801 10.765 C 53.039 10.431,53.056 10.024,52.845 9.702 C 52.717 9.508,50.876 7.835,42.431 0.245 C 42.124 -0.031,41.616 -0.053,41.252 0.194 M1.899 4.317 C 1.753 4.408,1.290 4.837,0.869 5.270 C 0.009 6.154,-0.126 6.465,0.124 6.992 C 0.202 7.157,3.403 10.425,7.309 14.327 C 13.457 20.469,14.395 21.372,14.675 21.423 C 15.128 21.505,15.363 21.354,16.386 20.321 C 17.259 19.440,17.269 19.425,17.269 19.004 L 17.269 18.579 10.312 11.564 C 6.485 7.706,3.227 4.460,3.071 4.350 C 2.724 4.107,2.258 4.094,1.899 4.317 M25.484 27.685 C 25.338 27.750,24.832 28.200,24.358 28.685 L 23.497 29.567 23.497 30.040 L 23.497 30.513 28.510 35.535 C 31.267 38.297,33.630 40.614,33.761 40.684 C 33.956 40.787,34.624 40.810,37.405 40.810 L 40.810 40.810 40.810 44.602 L 40.810 48.393 41.082 48.665 C 41.309 48.892,41.422 48.937,41.775 48.937 C 42.283 48.937,41.773 49.363,48.224 43.536 C 51.309 40.749,52.883 39.270,52.937 39.105 C 53.150 38.454,53.235 38.546,48.469 34.248 C 41.486 27.951,42.280 28.620,41.782 28.620 C 41.421 28.620,41.311 28.663,41.082 28.892 L 40.810 29.164 40.810 32.955 L 40.810 36.747 38.138 36.747 L 35.465 36.747 31.005 32.280 C 28.551 29.823,26.437 27.756,26.306 27.687 C 26.014 27.532,25.829 27.531,25.484 27.685 " fill="#2B2C30" stroke="none" fill-rule="evenodd"></path></svg>