<svg width="56" height="57" viewBox="0 0 56 57" fill="none" xmlns="http://www.w3.org/2000/svg"><path d="M27.352 0.121 C 26.679 0.336,26.361 0.809,22.634 7.140 C 20.640 10.528,18.952 13.388,18.883 13.495 C 18.763 13.682,18.832 13.733,20.495 14.691 C 21.451 15.242,22.245 15.679,22.260 15.663 C 22.275 15.647,23.556 13.481,25.107 10.850 C 26.658 8.219,27.959 6.067,27.999 6.067 C 28.038 6.067,29.637 8.723,31.551 11.970 C 33.464 15.217,35.086 17.960,35.155 18.066 C 35.274 18.251,35.159 18.328,32.456 19.877 C 30.904 20.766,29.500 21.593,29.338 21.713 C 28.931 22.013,28.788 22.469,28.968 22.898 C 29.043 23.078,29.191 23.271,29.296 23.328 C 29.402 23.384,32.458 24.398,36.088 25.581 C 42.510 27.675,42.696 27.729,43.020 27.606 C 43.238 27.524,43.411 27.368,43.520 27.157 C 43.691 26.824,46.480 13.902,46.480 13.442 C 46.480 13.098,46.176 12.731,45.782 12.601 C 45.356 12.460,45.307 12.484,41.723 14.548 C 39.423 15.873,38.763 16.214,38.680 16.123 C 38.621 16.059,36.586 12.626,34.156 8.493 C 31.138 3.360,29.617 0.861,29.356 0.604 C 28.795 0.053,28.096 -0.116,27.352 0.121 M13.673 21.649 C 12.441 22.054,9.499 23.017,7.135 23.790 C 3.921 24.841,2.786 25.250,2.632 25.413 C 2.334 25.730,2.345 26.401,2.653 26.704 C 2.778 26.826,4.227 27.699,5.873 28.642 C 7.520 29.586,8.867 30.392,8.867 30.434 C 8.867 30.476,6.950 33.757,4.608 37.725 C 2.265 41.693,0.265 45.125,0.163 45.352 C -0.192 46.141,0.140 47.190,0.918 47.736 L 1.323 48.020 8.641 48.045 L 15.960 48.070 15.960 46.062 L 15.960 44.055 10.746 44.031 L 5.533 44.007 8.924 38.267 C 10.790 35.110,12.328 32.492,12.343 32.450 C 12.359 32.408,13.810 33.201,15.570 34.212 C 18.498 35.894,18.797 36.045,19.104 35.995 C 19.524 35.927,19.861 35.618,19.928 35.242 C 19.961 35.056,19.465 32.549,18.532 28.187 C 17.111 21.545,17.079 21.415,16.801 21.163 C 16.612 20.992,16.417 20.908,16.215 20.910 C 16.049 20.911,14.905 21.244,13.673 21.649 M46.900 33.804 C 46.027 34.313,45.259 34.761,45.193 34.800 C 45.080 34.867,45.655 35.874,50.007 43.237 L 50.490 44.053 43.258 44.053 L 36.027 44.053 36.026 40.437 C 36.026 37.017,36.016 36.804,35.844 36.522 C 35.626 36.163,35.084 35.962,34.716 36.103 C 34.482 36.193,24.697 44.954,24.290 45.437 C 24.036 45.741,24.015 46.240,24.244 46.589 C 24.513 47.001,34.427 55.851,34.746 55.964 C 35.124 56.099,35.542 55.984,35.817 55.670 L 36.027 55.430 36.027 51.749 L 36.027 48.069 45.352 48.045 L 54.677 48.020 55.082 47.736 C 55.810 47.224,56.182 46.163,55.883 45.448 C 55.754 45.139,48.668 33.059,48.544 32.936 C 48.513 32.905,47.773 33.295,46.900 33.804 " fill="#2B2C30" stroke="none" fill-rule="evenodd"></path></svg>