<svg width="56" height="56" viewBox="0 0 56 56" fill="none" xmlns="http://www.w3.org/2000/svg"><path d="M0.607 0.088 C 0.504 0.130,0.336 0.258,0.233 0.372 C 0.069 0.554,0.043 0.736,0.016 1.867 C -0.008 2.906,0.015 3.212,0.135 3.443 C 0.440 4.033,0.193 4.013,7.196 4.013 L 13.562 4.013 12.560 4.675 C 8.398 7.424,4.710 11.682,2.718 16.038 C 2.368 16.802,2.356 17.219,2.662 17.865 C 3.125 18.840,4.608 19.195,5.544 18.555 C 5.950 18.276,6.120 18.058,6.494 17.331 C 8.264 13.892,10.719 10.970,13.704 8.748 C 14.587 8.091,15.844 7.280,15.979 7.280 C 16.020 7.280,16.053 10.013,16.053 13.354 L 16.053 19.428 16.326 19.701 L 16.599 19.973 18.013 19.973 L 19.428 19.973 19.701 19.701 L 19.973 19.428 19.973 9.714 L 19.973 0.000 10.383 0.006 C 5.109 0.009,0.709 0.046,0.607 0.088 M38.291 2.651 C 37.412 3.070,36.998 4.016,37.276 4.971 C 37.495 5.724,37.870 6.069,39.282 6.817 C 40.690 7.563,41.751 8.254,42.980 9.226 C 44.056 10.077,44.337 10.212,45.033 10.215 C 46.672 10.221,47.631 8.387,46.645 7.133 C 46.024 6.344,42.892 4.170,40.900 3.144 C 39.413 2.379,39.018 2.304,38.291 2.651 M51.728 17.371 C 51.023 17.720,50.587 18.444,50.587 19.265 C 50.587 19.454,50.756 20.160,50.963 20.833 C 51.403 22.269,51.736 23.859,51.932 25.463 C 52.112 26.934,52.383 27.421,53.247 27.823 C 54.094 28.216,55.133 27.936,55.673 27.168 C 55.935 26.795,55.953 26.718,55.942 25.961 C 55.914 23.934,54.983 19.675,54.247 18.205 C 54.036 17.783,53.906 17.651,53.492 17.435 C 52.875 17.112,52.293 17.091,51.728 17.371 M1.587 28.111 C 1.106 28.196,0.830 28.378,0.425 28.879 C 0.147 29.223,0.140 29.256,0.149 30.180 C 0.167 32.096,0.831 35.299,1.671 37.525 C 1.859 38.024,2.271 38.518,2.660 38.710 C 3.560 39.154,4.749 38.722,5.248 37.768 C 5.558 37.177,5.520 36.476,5.112 35.233 C 4.697 33.966,4.331 32.257,4.156 30.760 C 4.006 29.477,3.947 29.277,3.595 28.859 C 3.049 28.210,2.399 27.968,1.587 28.111 M50.820 37.324 C 50.279 37.575,49.937 37.996,49.334 39.147 C 48.669 40.419,47.849 41.693,46.972 42.817 C 46.083 43.956,46.040 44.025,45.925 44.540 C 45.607 45.969,46.917 47.306,48.278 46.940 C 48.851 46.786,49.039 46.626,49.857 45.602 C 51.528 43.509,53.426 40.313,53.624 39.258 C 53.758 38.546,53.243 37.658,52.501 37.321 C 52.020 37.102,51.295 37.104,50.820 37.324 M10.088 46.074 C 9.215 46.509,8.827 47.376,9.095 48.295 C 9.211 48.696,9.345 48.890,9.771 49.280 C 11.722 51.063,16.027 53.670,17.012 53.665 C 17.758 53.661,18.518 53.155,18.812 52.465 C 18.997 52.032,18.978 51.269,18.769 50.820 C 18.514 50.271,18.094 49.934,16.868 49.297 C 15.548 48.611,14.251 47.767,13.113 46.853 C 12.651 46.482,12.105 46.100,11.900 46.005 C 11.354 45.750,10.686 45.776,10.088 46.074 M35.327 50.920 C 33.930 51.373,32.613 51.662,30.900 51.890 C 29.763 52.041,29.377 52.130,29.063 52.314 C 28.401 52.702,28.080 53.285,28.080 54.101 C 28.080 54.959,28.629 55.699,29.423 55.913 C 30.793 56.282,37.425 54.807,38.326 53.934 C 39.229 53.059,39.061 51.613,37.973 50.893 C 37.366 50.491,36.624 50.499,35.327 50.920 " fill="#2B2C30" stroke="none" fill-rule="evenodd"></path></svg>