<svg width="40" height="48" viewBox="0 0 40 48" fill="none" xmlns="http://www.w3.org/2000/svg"><path d="M16.532 0.123 C 16.405 0.191,16.237 0.338,16.161 0.450 C 16.028 0.645,16.020 0.767,15.978 3.210 C 15.953 4.616,15.933 6.269,15.933 6.883 L 15.933 8.000 9.744 8.000 C 3.799 8.000,3.534 8.005,3.040 8.132 C 2.291 8.323,1.776 8.621,1.192 9.198 C 0.616 9.768,0.329 10.268,0.129 11.051 C 0.003 11.542,-0.000 11.966,-0.000 28.000 C -0.000 44.159,0.002 44.454,0.132 44.960 C 0.326 45.718,0.619 46.225,1.202 46.807 C 1.787 47.392,2.418 47.743,3.167 47.900 C 3.870 48.047,36.130 48.047,36.833 47.900 C 37.585 47.742,38.220 47.388,38.799 46.806 C 39.378 46.223,39.678 45.705,39.868 44.960 C 39.998 44.454,40.000 44.159,40.000 28.000 C 40.000 11.841,39.998 11.546,39.868 11.040 C 39.676 10.287,39.380 9.775,38.802 9.198 C 38.225 8.620,37.713 8.324,36.960 8.132 C 36.509 8.016,36.220 8.000,34.616 8.000 C 32.591 8.000,32.470 8.021,32.182 8.425 C 32.043 8.620,32.032 8.714,32.013 9.917 C 31.993 11.144,31.999 11.213,32.142 11.467 C 32.238 11.639,32.389 11.780,32.567 11.867 C 32.818 11.988,32.978 12.000,34.421 12.000 L 36.000 12.000 36.000 28.000 L 36.000 44.000 20.000 44.000 L 4.000 44.000 4.000 28.000 L 4.000 12.000 9.965 12.000 L 15.930 12.000 15.948 15.662 C 15.966 19.242,15.970 19.328,16.104 19.508 C 16.434 19.949,16.927 20.107,17.341 19.904 C 17.592 19.781,27.608 10.810,27.828 10.512 C 28.005 10.271,28.015 9.768,27.847 9.512 C 27.663 9.231,17.595 0.193,17.352 0.090 C 17.059 -0.033,16.808 -0.023,16.532 0.123 " fill="#2B2C30" stroke="none" fill-rule="evenodd"></path></svg>