<svg width="56" height="56" viewBox="0 0 56 56" fill="none" xmlns="http://www.w3.org/2000/svg"><path d="M26.227 0.054 C 26.047 0.075,25.438 0.138,24.873 0.194 C 21.901 0.490,18.654 1.425,15.820 2.800 C 7.048 7.056,1.168 15.420,0.136 25.107 C -0.075 27.092,-0.060 27.305,0.317 27.683 L 0.635 28.000 1.909 28.000 C 3.844 28.000,3.924 27.925,4.097 25.947 C 4.360 22.933,5.041 20.407,6.304 17.757 C 8.684 12.766,12.492 8.900,17.407 6.487 C 20.580 4.929,23.576 4.179,27.160 4.045 C 33.498 3.807,39.741 6.139,44.380 10.475 L 44.940 10.998 43.204 12.756 C 42.066 13.907,41.451 14.598,41.422 14.759 C 41.356 15.120,41.543 15.589,41.844 15.811 C 42.102 16.003,42.185 16.007,46.659 16.007 C 51.637 16.007,51.550 16.016,51.843 15.459 C 51.981 15.197,51.994 14.697,51.969 10.577 L 51.940 5.988 51.715 5.749 C 51.445 5.461,50.959 5.352,50.603 5.500 C 50.460 5.559,49.779 6.173,49.090 6.864 C 48.400 7.555,47.804 8.120,47.765 8.120 C 47.726 8.120,47.306 7.759,46.831 7.317 C 42.726 3.503,37.328 1.009,31.500 0.234 C 30.439 0.093,26.929 -0.027,26.227 0.054 M26.530 14.062 L 26.040 14.103 26.040 16.150 L 26.040 18.196 25.783 18.253 C 24.923 18.443,23.604 18.970,22.841 19.428 L 22.488 19.639 21.051 18.204 L 19.613 16.769 18.835 17.430 C 18.406 17.793,17.767 18.433,17.413 18.853 L 16.770 19.614 18.185 21.032 C 18.963 21.811,19.600 22.479,19.600 22.516 C 19.600 22.553,19.471 22.793,19.314 23.049 C 18.969 23.609,18.454 24.875,18.296 25.550 L 18.181 26.040 16.151 26.040 L 14.120 26.040 14.060 26.614 C 13.983 27.349,13.983 28.651,14.060 29.386 L 14.120 29.960 16.151 29.960 L 18.181 29.960 18.296 30.450 C 18.454 31.125,18.969 32.391,19.314 32.951 C 19.471 33.207,19.600 33.447,19.600 33.484 C 19.600 33.521,18.963 34.189,18.185 34.968 L 16.770 36.386 17.413 37.147 C 17.767 37.567,18.406 38.207,18.835 38.570 L 19.613 39.231 21.051 37.796 L 22.488 36.361 22.841 36.572 C 23.604 37.030,24.923 37.557,25.783 37.747 L 26.040 37.804 26.040 39.846 L 26.040 41.889 27.032 41.956 C 27.950 42.019,29.719 41.951,29.887 41.847 C 29.927 41.823,29.960 40.903,29.960 39.805 L 29.960 37.807 30.357 37.707 C 31.119 37.515,31.880 37.217,32.694 36.792 L 33.514 36.363 34.943 37.789 L 36.371 39.216 36.922 38.751 C 37.486 38.276,38.366 37.385,38.912 36.737 L 39.218 36.373 37.767 34.917 C 36.382 33.526,36.323 33.452,36.463 33.273 C 36.716 32.950,37.392 31.432,37.563 30.800 C 37.654 30.466,37.743 30.141,37.761 30.077 C 37.786 29.988,38.275 29.960,39.797 29.960 C 41.792 29.960,41.801 29.959,41.870 29.750 C 41.960 29.477,41.960 26.523,41.870 26.250 C 41.801 26.041,41.792 26.040,39.797 26.040 C 38.275 26.040,37.786 26.012,37.761 25.923 C 37.743 25.859,37.654 25.534,37.563 25.200 C 37.392 24.568,36.716 23.050,36.463 22.727 C 36.323 22.548,36.382 22.474,37.767 21.083 L 39.218 19.627 38.912 19.263 C 38.366 18.615,37.486 17.724,36.922 17.249 L 36.371 16.784 34.943 18.211 L 33.514 19.637 32.694 19.208 C 31.880 18.783,31.119 18.485,30.357 18.293 L 29.960 18.193 29.960 16.195 C 29.960 14.928,29.925 14.176,29.864 14.138 C 29.745 14.065,27.197 14.007,26.530 14.062 M29.400 22.172 C 30.954 22.537,32.529 23.762,33.258 25.172 C 34.515 27.604,34.092 30.324,32.159 32.248 C 30.974 33.428,29.665 33.969,27.992 33.972 C 25.637 33.976,23.620 32.704,22.589 30.567 C 21.790 28.909,21.790 27.091,22.589 25.433 C 23.373 23.808,24.747 22.657,26.432 22.215 C 27.273 21.995,28.567 21.976,29.400 22.172 M52.556 28.118 C 52.107 28.349,52.008 28.625,51.895 29.960 C 51.517 34.451,49.910 38.740,47.291 42.247 C 42.684 48.416,35.627 51.987,28.040 51.987 C 26.329 51.987,24.984 51.861,23.387 51.553 C 19.036 50.713,14.835 48.570,11.647 45.562 L 11.004 44.955 12.782 43.169 C 14.361 41.582,14.560 41.348,14.560 41.078 C 14.560 40.716,14.424 40.426,14.152 40.205 C 13.970 40.057,13.566 40.044,9.254 40.042 L 4.555 40.040 4.284 40.330 L 4.013 40.620 4.013 45.275 L 4.013 49.930 4.286 50.235 C 4.518 50.495,4.621 50.540,4.985 50.540 C 5.409 50.540,5.418 50.533,6.789 49.170 L 8.167 47.801 8.820 48.409 C 15.531 54.658,24.786 57.250,33.727 55.385 C 36.221 54.865,38.315 54.120,40.717 52.900 C 46.002 50.213,50.346 45.837,53.007 40.518 C 54.730 37.074,55.907 32.570,55.907 29.420 C 55.907 28.124,55.737 27.999,53.975 28.001 C 53.212 28.002,52.699 28.044,52.556 28.118 " fill="#2B2C30" stroke="none" fill-rule="evenodd"></path></svg>