<svg width="56" height="56" viewBox="0 0 56 56" fill="none" xmlns="http://www.w3.org/2000/svg"><path d="M26.087 0.064 C 20.613 0.421,15.117 2.514,10.741 5.908 C 9.482 6.884,6.967 9.376,5.986 10.620 C 2.662 14.834,0.592 19.949,0.076 25.219 C -0.047 26.482,0.023 26.843,0.493 27.345 C 1.246 28.151,2.454 28.209,3.264 27.478 C 3.784 27.008,3.927 26.621,4.119 25.158 C 4.334 23.516,4.511 22.641,4.901 21.280 C 5.981 17.518,8.129 13.896,10.965 11.056 C 15.684 6.330,22.110 3.796,28.747 4.045 C 31.343 4.142,33.953 4.641,36.203 5.471 C 37.342 5.891,39.689 7.035,40.600 7.615 C 41.723 8.330,43.319 9.552,44.143 10.327 L 44.906 11.045 43.175 12.779 C 41.332 14.626,41.201 14.823,41.438 15.395 C 41.501 15.547,41.663 15.746,41.799 15.839 C 42.029 15.995,42.372 16.007,46.636 16.007 C 51.150 16.007,51.231 16.003,51.490 15.811 C 51.983 15.445,51.998 15.283,51.968 10.503 C 51.942 6.458,51.927 6.094,51.772 5.866 C 51.680 5.730,51.481 5.568,51.330 5.505 C 50.771 5.274,50.534 5.417,49.100 6.854 L 47.756 8.200 47.048 7.545 C 41.354 2.274,33.758 -0.436,26.087 0.064 M20.953 16.327 C 20.697 16.476,20.382 16.757,20.253 16.949 L 20.020 17.300 20.020 28.001 L 20.020 38.703 20.281 39.079 C 20.779 39.798,21.921 40.159,22.728 39.853 C 23.094 39.714,39.015 29.788,39.328 29.503 C 40.147 28.761,40.147 27.237,39.328 26.498 C 39.023 26.222,23.061 16.274,22.710 16.140 C 22.584 16.092,22.242 16.054,21.951 16.054 C 21.535 16.055,21.319 16.114,20.953 16.327 M29.293 24.873 C 32.017 26.567,34.247 27.974,34.248 28.000 C 34.249 28.042,24.160 34.348,23.971 34.424 C 23.928 34.442,23.893 31.553,23.893 28.005 L 23.893 21.554 24.117 21.674 C 24.240 21.739,26.569 23.179,29.293 24.873 M53.264 28.130 C 52.309 28.484,51.979 29.089,51.756 30.893 C 51.197 35.417,49.455 39.527,46.584 43.096 C 45.645 44.262,43.608 46.241,42.445 47.114 C 39.802 49.101,36.746 50.552,33.576 51.326 C 31.508 51.830,30.523 51.937,27.953 51.937 C 25.280 51.936,24.258 51.817,21.980 51.240 C 18.223 50.287,14.880 48.497,11.877 45.829 C 11.402 45.407,11.013 45.037,11.013 45.006 C 11.013 44.975,11.790 44.166,12.740 43.208 L 14.467 41.466 14.467 41.026 C 14.467 40.664,14.418 40.537,14.194 40.313 L 13.921 40.040 9.249 40.040 L 4.576 40.040 4.271 40.312 L 3.967 40.585 3.941 45.165 C 3.912 50.204,3.907 50.150,4.477 50.445 C 5.104 50.769,5.327 50.641,6.901 49.058 L 8.155 47.796 8.861 48.468 C 12.980 52.392,18.641 55.039,24.466 55.766 C 31.161 56.601,38.184 54.918,43.633 51.172 C 45.801 49.682,48.211 47.469,49.704 45.595 C 53.022 41.433,55.149 36.377,55.725 31.284 C 55.887 29.852,55.824 29.208,55.477 28.780 C 54.949 28.127,54.013 27.852,53.264 28.130 " fill="#2B2C30" stroke="none" fill-rule="evenodd"></path></svg>