<svg width="56" height="56" viewBox="0 0 56 56" fill="none" xmlns="http://www.w3.org/2000/svg"><path d="M10.827 0.150 C 9.719 0.446,8.889 1.151,8.365 2.240 L 8.073 2.847 8.047 7.443 L 8.020 12.040 4.873 12.044 C 2.490 12.047,1.642 12.078,1.376 12.173 C -0.032 12.676,-0.441 14.344,0.585 15.398 C 1.168 15.997,1.205 16.002,4.782 16.036 L 8.025 16.066 8.049 34.610 L 8.073 53.153 8.333 53.707 C 8.845 54.800,9.604 55.472,10.716 55.816 C 11.301 55.996,11.644 56.000,28.000 56.000 C 44.356 56.000,44.699 55.996,45.284 55.816 C 46.396 55.472,47.155 54.800,47.667 53.707 L 47.927 53.153 47.951 34.610 L 47.975 16.066 51.171 16.037 C 54.237 16.008,54.382 15.999,54.740 15.805 C 55.480 15.406,55.908 14.734,55.905 13.980 C 55.900 13.143,55.273 12.348,54.454 12.142 C 54.204 12.079,52.894 12.040,51.015 12.040 L 47.980 12.040 47.953 7.443 L 47.927 2.847 47.635 2.240 C 47.266 1.473,46.824 0.968,46.187 0.587 C 45.142 -0.038,46.303 -0.001,27.957 0.006 C 13.638 0.011,11.269 0.031,10.827 0.150 M43.960 28.000 L 43.960 51.987 28.000 51.987 L 12.040 51.987 12.040 50.318 L 12.040 48.650 20.137 43.780 C 24.590 41.101,28.354 38.780,28.501 38.621 C 28.734 38.370,28.762 38.280,28.721 37.917 C 28.695 37.688,28.613 37.440,28.539 37.365 C 28.464 37.291,24.732 35.014,20.245 32.306 L 12.087 27.383 12.063 15.698 L 12.039 4.013 28.000 4.013 L 43.960 4.013 43.960 28.000 M18.415 35.879 C 20.356 37.049,21.931 38.018,21.915 38.032 C 21.892 38.052,12.346 43.794,12.110 43.931 C 12.072 43.953,12.040 41.281,12.040 37.994 L 12.040 32.017 13.463 32.884 C 14.246 33.360,16.475 34.708,18.415 35.879 " fill="#2B2C30" stroke="none" fill-rule="evenodd"></path></svg>