<svg width="40" height="56" viewBox="0 0 40 56" fill="none" xmlns="http://www.w3.org/2000/svg"><path d="M22.633 0.093 C 22.396 0.197,12.326 9.247,12.153 9.512 C 11.985 9.768,11.995 10.271,12.172 10.512 C 12.392 10.810,22.408 19.781,22.659 19.904 C 23.073 20.107,23.566 19.949,23.896 19.508 C 24.030 19.328,24.034 19.242,24.052 15.662 L 24.070 12.000 30.035 12.000 L 36.000 12.000 36.000 28.000 L 36.000 44.000 34.393 44.000 C 32.613 44.000,32.465 44.028,32.182 44.425 C 32.043 44.620,32.032 44.714,32.013 45.917 C 31.993 47.144,31.999 47.213,32.142 47.467 C 32.238 47.639,32.389 47.780,32.567 47.867 C 32.821 47.990,32.977 48.000,34.604 47.999 C 36.616 47.998,37.014 47.942,37.799 47.556 C 38.162 47.378,38.433 47.174,38.799 46.806 C 39.378 46.223,39.678 45.705,39.868 44.960 C 39.998 44.454,40.000 44.159,40.000 28.000 C 40.000 11.841,39.998 11.546,39.868 11.040 C 39.676 10.287,39.380 9.775,38.802 9.198 C 38.225 8.620,37.713 8.324,36.960 8.132 C 36.466 8.005,36.202 8.000,30.264 8.000 L 24.083 8.000 24.033 4.331 C 23.985 0.739,23.981 0.658,23.842 0.455 C 23.569 0.055,23.064 -0.096,22.633 0.093 M3.133 8.104 C 1.661 8.421,0.412 9.682,0.100 11.167 C -0.047 11.866,-0.048 44.131,0.099 44.825 C 0.339 45.956,1.185 47.053,2.200 47.547 C 3.143 48.007,3.022 48.000,9.864 48.000 L 16.000 48.000 16.000 51.637 C 16.000 55.610,15.990 55.508,16.389 55.792 C 16.668 55.991,17.049 56.027,17.346 55.885 C 17.610 55.758,27.672 46.755,27.845 46.491 C 27.995 46.263,27.980 45.696,27.820 45.476 C 27.634 45.222,17.890 36.427,17.537 36.195 C 17.176 35.958,16.867 35.945,16.507 36.151 C 15.983 36.452,16.000 36.307,16.000 40.382 L 16.000 44.000 10.000 44.000 L 4.000 44.000 4.000 28.000 L 4.000 12.000 5.579 12.000 C 7.037 12.000,7.180 11.989,7.442 11.863 C 7.648 11.763,7.763 11.648,7.863 11.442 C 7.985 11.188,8.000 11.035,7.999 9.996 C 7.997 8.616,7.927 8.368,7.474 8.137 C 7.221 8.008,7.097 8.000,5.386 8.005 C 4.094 8.009,3.441 8.038,3.133 8.104 " fill="#2B2C30" stroke="none" fill-rule="evenodd"></path></svg>