<svg width="56" height="56" viewBox="0 0 56 56" fill="none" xmlns="http://www.w3.org/2000/svg"><path d="M25.713 0.102 C 21.038 0.482,16.370 2.104,12.507 4.691 C 5.815 9.172,1.507 15.996,0.266 24.080 C -0.036 26.049,-0.036 29.951,0.266 31.920 C 1.012 36.783,2.801 41.075,5.651 44.847 C 13.431 55.141,27.183 58.808,39.013 53.744 C 47.462 50.127,53.647 42.508,55.439 33.511 C 55.762 31.888,55.918 30.613,55.938 29.424 L 55.953 28.547 55.649 28.273 L 55.344 28.000 53.993 28.000 C 52.648 28.000,52.642 28.001,52.352 28.260 C 52.086 28.498,52.054 28.590,51.972 29.356 C 51.568 33.142,51.053 35.230,49.883 37.829 C 46.512 45.315,39.650 50.500,31.453 51.755 C 29.927 51.988,26.999 52.039,25.454 51.859 C 21.413 51.388,17.928 50.118,14.653 47.926 C 6.664 42.575,2.683 33.085,4.437 23.567 C 5.624 17.122,9.472 11.413,15.073 7.789 C 20.755 4.112,28.055 3.056,34.673 4.954 C 38.143 5.949,41.642 7.922,44.240 10.346 L 44.940 10.999 43.343 12.616 C 42.464 13.506,41.677 14.337,41.593 14.464 C 41.226 15.018,41.519 15.776,42.168 15.956 C 42.642 16.088,50.793 16.086,51.268 15.954 C 51.507 15.888,51.683 15.758,51.805 15.558 C 51.978 15.274,51.986 15.052,51.986 10.670 L 51.987 6.081 51.748 5.797 C 51.491 5.491,51.029 5.350,50.665 5.465 C 50.545 5.502,49.848 6.123,49.117 6.843 L 47.787 8.153 47.577 7.968 C 47.461 7.866,47.054 7.498,46.671 7.151 C 41.095 2.087,33.349 -0.518,25.713 0.102 M21.671 16.068 C 20.875 16.208,20.261 16.776,20.070 17.547 C 19.997 17.845,19.974 20.935,19.993 28.233 L 20.020 38.500 20.253 38.916 C 20.615 39.561,21.152 39.887,21.923 39.930 C 22.396 39.957,22.639 39.925,22.876 39.804 C 23.187 39.646,38.023 30.432,38.992 29.796 C 39.687 29.339,39.983 28.806,39.985 28.007 C 39.988 27.285,39.747 26.739,39.271 26.384 C 39.104 26.260,35.346 23.904,30.921 21.150 C 24.951 17.434,22.772 16.124,22.475 16.070 C 22.254 16.030,21.892 16.029,21.671 16.068 M29.334 24.868 C 32.043 26.554,34.248 27.968,34.234 28.011 C 34.214 28.067,26.485 32.927,24.103 34.380 C 24.010 34.437,23.987 33.136,23.987 27.995 L 23.987 21.539 24.197 21.672 C 24.312 21.745,26.624 23.183,29.334 24.868 " fill="#2B2C30" stroke="none" fill-rule="evenodd"></path></svg>