<svg width="56" height="45" viewBox="0 0 56 45" fill="none" xmlns="http://www.w3.org/2000/svg"><path d="M23.753 0.096 C 15.925 0.478,9.196 1.863,4.703 4.017 C 2.511 5.067,1.023 6.791,0.314 9.100 C 0.070 9.898,0.056 10.036,0.052 11.853 C 0.047 13.761,0.047 13.768,0.306 14.295 C 0.764 15.228,1.579 15.799,2.679 15.958 C 3.503 16.077,8.425 16.078,9.764 15.960 C 11.489 15.807,13.017 15.260,14.327 14.325 C 15.077 13.790,17.789 11.015,18.248 10.313 C 19.311 8.689,19.973 6.664,19.973 5.040 L 19.973 4.403 20.323 4.350 C 22.874 3.961,33.126 3.961,35.677 4.350 L 36.027 4.403 36.030 5.025 C 36.039 6.700,36.683 8.680,37.752 10.313 C 38.211 11.015,40.923 13.790,41.673 14.325 C 42.983 15.260,44.511 15.807,46.236 15.960 C 47.575 16.078,52.497 16.077,53.321 15.958 C 54.421 15.799,55.236 15.228,55.694 14.295 C 55.953 13.768,55.953 13.763,55.947 11.853 C 55.940 10.045,55.926 9.894,55.685 9.100 C 54.898 6.513,53.297 4.836,50.475 3.643 C 46.124 1.802,40.657 0.667,33.833 0.186 C 31.910 0.051,25.798 -0.004,23.753 0.096 M15.921 5.412 C 15.803 6.452,15.301 7.603,14.554 8.546 C 13.897 9.374,12.213 10.964,11.645 11.291 C 10.532 11.934,10.251 11.977,6.964 12.019 L 3.987 12.056 4.033 11.171 C 4.090 10.083,4.415 9.309,5.131 8.551 C 5.689 7.961,6.248 7.647,7.887 7.004 C 10.030 6.162,12.583 5.483,15.949 4.860 C 15.968 4.856,15.956 5.105,15.921 5.412 M41.627 5.183 C 44.716 5.777,48.137 6.850,49.861 7.766 C 50.562 8.139,51.273 8.902,51.631 9.669 C 51.871 10.182,51.928 10.437,51.967 11.172 L 52.013 12.058 49.037 12.018 C 45.749 11.975,45.461 11.930,44.355 11.291 C 43.785 10.963,42.105 9.375,41.435 8.533 C 40.696 7.605,40.040 6.023,40.040 5.169 C 40.040 4.934,40.075 4.878,40.203 4.906 C 40.293 4.925,40.934 5.050,41.627 5.183 M20.665 12.210 C 19.492 12.616,19.721 12.357,11.921 22.106 C 6.494 28.889,4.570 31.357,4.352 31.817 L 4.060 32.433 4.031 37.333 C 4.011 40.723,4.034 42.342,4.105 42.585 C 4.242 43.050,4.718 43.579,5.180 43.779 C 5.530 43.931,6.961 43.943,28.047 43.974 L 50.540 44.007 50.981 43.748 C 51.267 43.579,51.513 43.333,51.681 43.048 L 51.940 42.607 51.967 37.854 C 51.995 32.862,51.974 32.537,51.576 31.677 C 51.442 31.389,48.482 27.613,44.076 22.111 C 36.241 12.325,36.479 12.593,35.285 12.221 C 34.732 12.049,34.374 12.040,27.922 12.043 C 21.697 12.046,21.101 12.060,20.665 12.210 M41.011 24.663 L 47.973 33.367 47.973 36.703 L 47.973 40.040 28.000 40.040 L 8.027 40.040 8.027 36.691 L 8.027 33.343 14.980 24.651 L 21.934 15.960 27.991 15.960 L 34.048 15.960 41.011 24.663 M27.253 20.031 C 23.698 20.456,21.023 22.829,20.194 26.294 C 19.971 27.227,19.996 28.958,20.247 29.913 C 20.876 32.307,22.433 34.182,24.669 35.238 C 25.809 35.776,26.375 35.887,28.000 35.887 C 29.625 35.887,30.191 35.776,31.331 35.238 C 33.562 34.185,35.130 32.296,35.752 29.913 C 36.020 28.889,36.024 27.128,35.763 26.130 C 34.968 23.101,32.730 20.881,29.808 20.222 C 29.120 20.067,27.787 19.968,27.253 20.031 M28.977 24.130 C 29.754 24.332,30.355 24.686,30.899 25.262 C 32.396 26.844,32.355 29.257,30.806 30.806 C 30.181 31.431,29.490 31.783,28.590 31.936 C 26.921 32.218,25.170 31.295,24.404 29.729 C 22.927 26.712,25.727 23.283,28.977 24.130 " fill="#2B2C30" stroke="none" fill-rule="evenodd"></path></svg>