<svg width="57" height="56" viewBox="0 0 57 56" fill="none" xmlns="http://www.w3.org/2000/svg"><path d="M44.697 0.138 C 40.519 0.791,37.232 3.980,36.419 8.170 C 36.231 9.134,36.238 10.973,36.432 11.910 C 36.915 14.239,38.181 16.328,39.995 17.791 C 40.273 18.014,40.389 18.167,40.328 18.225 C 40.148 18.394,31.032 25.099,30.930 25.137 C 30.874 25.158,26.141 21.420,20.413 16.831 C 14.685 12.242,9.800 8.394,9.557 8.280 C 8.767 7.908,8.367 7.880,4.158 7.907 L 0.099 7.933 13.627 17.905 C 21.067 23.390,27.136 27.909,27.113 27.946 C 27.090 27.983,20.993 32.494,13.564 37.971 L 0.058 47.928 4.039 47.952 C 8.260 47.979,8.746 47.943,9.556 47.547 C 9.822 47.417,14.713 43.568,20.424 38.994 C 26.135 34.419,30.858 30.689,30.920 30.704 C 30.982 30.720,33.172 32.311,35.787 34.240 L 40.542 37.747 40.055 38.129 C 38.414 39.418,37.184 41.288,36.609 43.367 C 36.311 44.442,36.205 46.371,36.382 47.474 C 36.878 50.576,38.763 53.248,41.515 54.753 C 42.487 55.284,43.977 55.739,45.181 55.873 C 49.716 56.376,54.095 53.647,55.625 49.364 C 57.325 44.609,55.291 39.415,50.825 37.107 C 49.217 36.276,47.742 35.963,45.695 36.018 L 44.413 36.053 39.360 32.015 C 36.581 29.794,34.315 27.945,34.325 27.906 C 34.335 27.867,36.580 26.045,39.315 23.857 L 44.286 19.880 45.777 19.928 C 46.953 19.966,47.437 19.941,48.068 19.814 C 50.117 19.398,51.688 18.583,53.168 17.167 C 55.285 15.141,56.351 12.463,56.214 9.512 C 55.940 3.587,50.574 -0.781,44.697 0.138 M47.880 4.234 C 49.369 4.674,50.939 5.953,51.553 7.225 C 52.080 8.316,52.202 8.861,52.191 10.070 C 52.183 10.983,52.142 11.277,51.938 11.859 C 51.399 13.397,50.341 14.631,48.999 15.288 C 47.982 15.786,47.272 15.960,46.269 15.959 C 44.587 15.956,43.238 15.406,42.078 14.251 C 38.692 10.880,40.333 5.184,44.991 4.140 C 45.781 3.963,47.111 4.006,47.880 4.234 M47.519 40.098 C 47.796 40.155,48.418 40.391,48.902 40.623 C 51.867 42.046,53.072 45.589,51.624 48.622 C 51.173 49.567,49.952 50.812,49.020 51.277 C 47.115 52.229,44.947 52.161,43.154 51.093 C 42.863 50.919,42.332 50.488,41.976 50.134 C 41.468 49.630,41.236 49.300,40.907 48.614 C 40.409 47.577,40.280 47.019,40.280 45.902 C 40.280 44.294,40.861 42.914,42.030 41.745 C 42.818 40.957,43.683 40.445,44.661 40.189 C 45.456 39.981,46.746 39.940,47.519 40.098 " fill="#2B2C30" stroke="none" fill-rule="evenodd"></path></svg>