<svg width="56" height="36" viewBox="0 0 56 36" fill="none" xmlns="http://www.w3.org/2000/svg"><path d="M0.607 0.088 C 0.504 0.130,0.336 0.258,0.233 0.372 C 0.048 0.578,0.047 0.711,0.047 18.016 L 0.047 35.452 0.275 35.695 L 0.503 35.938 2.045 35.912 L 3.586 35.887 3.800 35.570 L 4.013 35.252 4.013 18.052 C 4.013 7.105,3.980 0.765,3.922 0.613 C 3.736 0.123,3.348 0.000,2.007 0.006 C 1.339 0.009,0.709 0.046,0.607 0.088 M52.525 0.142 C 51.948 0.463,51.987 -0.809,51.987 18.013 C 51.987 36.555,51.961 35.577,52.448 35.837 C 52.549 35.891,53.257 35.933,54.064 35.933 C 55.488 35.933,55.503 35.931,55.727 35.692 L 55.953 35.452 55.953 18.008 L 55.953 0.564 55.695 0.305 C 55.439 0.050,55.422 0.046,54.108 0.023 C 53.059 0.005,52.726 0.030,52.525 0.142 M18.477 9.308 C 17.850 9.746,8.698 17.460,8.646 17.594 C 8.570 17.793,8.570 18.234,8.647 18.434 C 8.700 18.574,17.892 26.320,18.474 26.716 C 18.867 26.983,19.291 26.928,19.656 26.563 L 19.973 26.245 19.973 23.063 L 19.973 19.880 28.000 19.880 L 36.027 19.880 36.027 23.063 L 36.027 26.245 36.344 26.563 C 36.709 26.928,37.134 26.983,37.525 26.716 C 38.117 26.312,47.299 18.575,47.353 18.435 C 47.430 18.234,47.431 17.793,47.353 17.592 C 47.300 17.452,38.108 9.706,37.526 9.311 C 37.160 9.062,36.733 9.102,36.378 9.419 L 36.073 9.691 36.027 12.849 L 35.980 16.007 28.000 16.007 L 20.020 16.007 19.973 12.849 L 19.927 9.691 19.622 9.419 C 19.268 9.102,18.832 9.060,18.477 9.308 " fill="#2B2C30" stroke="none" fill-rule="evenodd"></path></svg>