<svg width="58" height="61" viewBox="0 0 58 61" fill="none" xmlns="http://www.w3.org/2000/svg"><path d="M27.315 0.138 C 27.107 0.216,26.795 0.423,26.623 0.599 C 26.188 1.044,14.043 23.341,13.963 23.841 C 13.876 24.381,14.068 24.985,14.463 25.423 C 15.124 26.155,14.143 26.108,28.185 26.078 L 40.759 26.052 41.151 25.792 C 41.631 25.475,42.050 24.694,42.050 24.118 C 42.050 23.852,41.926 23.469,41.671 22.953 C 41.463 22.531,38.643 17.335,35.405 11.407 C 29.597 0.771,29.513 0.625,29.065 0.348 C 28.526 0.015,27.864 -0.064,27.315 0.138 M32.317 14.067 C 34.634 18.321,36.558 21.877,36.593 21.969 C 36.654 22.127,36.174 22.137,27.987 22.137 C 22.825 22.137,19.330 22.101,19.349 22.049 C 19.499 21.641,27.999 6.212,28.045 6.264 C 28.078 6.301,30.001 9.812,32.317 14.067 M42.582 32.191 C 40.541 32.408,38.443 33.106,36.782 34.121 C 33.267 36.269,30.847 39.855,30.200 43.874 C 30.028 44.941,30.009 47.110,30.162 48.140 C 30.603 51.115,31.978 53.835,34.120 55.971 C 36.812 58.656,40.185 60.053,43.983 60.057 C 47.842 60.060,51.108 58.709,53.853 55.975 C 55.916 53.919,57.103 51.723,57.720 48.817 C 58.007 47.464,58.029 44.971,57.766 43.597 C 56.589 37.447,51.634 32.861,45.454 32.200 C 44.366 32.083,43.619 32.081,42.582 32.191 M0.494 34.258 C -0.015 34.540,0.007 34.016,0.003 46.144 L -0.000 57.439 0.329 57.768 L 0.657 58.097 11.933 58.097 C 24.070 58.097,23.608 58.115,23.874 57.619 C 23.940 57.494,23.973 53.675,23.973 46.058 L 23.973 34.684 23.673 34.404 L 23.373 34.123 12.049 34.127 C 2.835 34.130,0.682 34.154,0.494 34.258 M45.014 36.160 C 47.756 36.466,50.121 37.765,51.825 39.900 C 54.991 43.868,54.662 49.560,51.059 53.158 C 50.169 54.047,49.387 54.593,48.200 55.154 C 45.119 56.611,41.355 56.339,38.495 54.452 C 37.692 53.922,36.343 52.589,35.767 51.756 C 35.164 50.884,34.703 49.909,34.350 48.759 C 34.104 47.954,34.087 47.783,34.087 46.110 C 34.087 44.439,34.104 44.265,34.350 43.452 C 34.496 42.973,34.766 42.260,34.951 41.867 C 36.558 38.451,39.924 36.250,43.818 36.069 C 43.966 36.062,44.505 36.103,45.014 36.160 M20.010 46.110 L 20.010 54.133 12.035 54.133 L 4.060 54.133 4.060 46.110 L 4.060 38.087 12.035 38.087 L 20.010 38.087 20.010 46.110 " fill="#2B2C30" stroke="none" fill-rule="evenodd"></path></svg>