<svg width="44" height="48" viewBox="0 0 44 48" fill="none" xmlns="http://www.w3.org/2000/svg"><path d="M34.903 0.075 C 31.741 0.519,29.072 2.890,28.261 5.978 C 27.996 6.987,27.944 8.540,28.144 9.485 L 28.281 10.133 28.129 10.230 C 27.669 10.522,13.849 18.480,13.801 18.480 C 13.770 18.480,13.597 18.329,13.417 18.144 C 13.002 17.719,12.060 17.087,11.351 16.759 C 9.456 15.884,7.122 15.800,5.163 16.536 C 3.699 17.087,2.274 18.210,1.393 19.507 C 0.939 20.175,0.460 21.233,0.240 22.053 C 0.068 22.694,0.047 22.902,0.047 24.017 C 0.047 25.138,0.067 25.337,0.244 25.997 C 0.479 26.871,1.097 28.156,1.606 28.825 C 2.960 30.607,4.947 31.724,7.218 31.980 C 9.378 32.223,11.805 31.414,13.367 29.930 L 13.790 29.528 14.027 29.642 C 14.232 29.742,28.252 37.829,28.279 37.864 C 28.284 37.871,28.225 38.174,28.148 38.537 C 27.946 39.483,27.994 41.038,28.256 42.035 C 29.024 44.956,31.410 47.238,34.341 47.854 C 34.660 47.921,35.279 47.960,36.039 47.960 C 37.062 47.960,37.335 47.934,37.935 47.782 C 41.062 46.989,43.330 44.521,43.892 41.299 C 44.224 39.395,43.758 37.246,42.658 35.603 C 41.580 33.994,39.874 32.776,38.023 32.295 C 37.122 32.061,35.735 31.984,34.824 32.117 C 33.339 32.334,31.781 33.063,30.676 34.057 L 30.295 34.400 23.122 30.253 C 19.178 27.973,15.910 26.081,15.862 26.049 C 15.793 26.005,15.797 25.861,15.877 25.408 C 16.011 24.659,16.011 23.374,15.877 22.624 C 15.820 22.302,15.796 22.015,15.825 21.986 C 15.889 21.922,30.221 13.640,30.268 13.640 C 30.287 13.640,30.472 13.794,30.679 13.982 C 31.559 14.778,32.807 15.438,34.076 15.776 C 34.812 15.973,36.435 16.044,37.238 15.915 C 41.286 15.267,44.203 11.654,43.978 7.569 C 43.783 4.029,41.300 1.061,37.829 0.220 C 37.118 0.047,35.628 -0.026,34.903 0.075 M36.982 4.143 C 38.419 4.517,39.601 5.742,39.896 7.161 C 40.019 7.756,39.953 8.810,39.758 9.350 C 38.771 12.089,35.262 12.895,33.220 10.853 C 32.404 10.037,32.042 9.158,32.041 7.992 C 32.041 6.619,32.646 5.472,33.789 4.681 C 34.640 4.093,35.945 3.872,36.982 4.143 M8.768 20.099 C 10.202 20.359,11.519 21.612,11.873 23.055 C 11.986 23.516,11.986 24.517,11.873 24.978 C 11.524 26.398,10.241 27.638,8.815 27.933 C 7.504 28.204,6.171 27.804,5.216 26.852 C 4.409 26.049,4.033 25.148,4.033 24.017 C 4.033 22.885,4.409 21.984,5.216 21.181 C 6.166 20.234,7.416 19.854,8.768 20.099 M37.107 36.201 C 38.421 36.565,39.500 37.668,39.858 39.014 C 39.996 39.535,39.996 40.483,39.857 41.015 C 39.505 42.369,38.464 43.457,37.146 43.848 C 36.421 44.063,35.333 44.040,34.661 43.795 C 33.511 43.377,32.545 42.370,32.189 41.220 C 32.001 40.612,31.988 39.524,32.161 38.940 C 32.620 37.392,33.994 36.227,35.567 36.054 C 35.959 36.010,36.658 36.077,37.107 36.201 " fill="#2B2C30" stroke="none" fill-rule="evenodd"></path></svg>