<svg width="48" height="56" viewBox="0 0 48 56" fill="none" xmlns="http://www.w3.org/2000/svg"><path d="M23.391 0.071 C 22.827 0.217,22.381 0.512,21.865 1.082 C 19.974 3.170,16.036 6.140,13.801 7.165 C 11.532 8.206,7.459 9.141,3.743 9.474 C 2.642 9.573,2.436 9.614,2.078 9.809 C 1.245 10.262,0.895 10.895,0.645 12.400 C 0.014 16.197,-0.161 21.115,0.198 24.941 C 0.967 33.125,3.471 39.801,7.843 45.320 C 8.866 46.612,11.323 49.076,12.600 50.090 C 14.761 51.808,16.660 53.008,19.160 54.239 C 21.741 55.509,23.093 56.002,23.984 55.999 C 24.933 55.995,26.345 55.475,28.880 54.195 C 36.847 50.172,42.372 43.986,45.437 35.655 C 47.775 29.303,48.565 21.077,47.557 13.600 C 47.262 11.407,47.112 10.897,46.594 10.324 C 46.070 9.744,45.675 9.601,44.248 9.473 C 40.324 9.121,36.225 8.150,33.960 7.036 C 31.689 5.918,28.850 3.799,26.568 1.517 C 25.797 0.746,25.330 0.342,25.079 0.232 C 24.679 0.054,23.783 -0.031,23.391 0.071 M24.246 4.851 C 24.992 5.665,27.752 7.882,29.280 8.896 C 31.292 10.230,32.505 10.859,34.165 11.427 C 36.757 12.313,39.450 12.925,42.296 13.274 C 42.926 13.351,43.460 13.433,43.483 13.456 C 43.535 13.508,43.717 14.896,43.854 16.280 C 43.991 17.666,43.991 22.815,43.854 24.200 C 43.605 26.719,43.304 28.545,42.797 30.612 C 40.729 39.045,36.144 45.344,28.960 49.621 C 27.951 50.221,25.699 51.343,24.659 51.763 L 23.997 52.030 23.339 51.764 C 12.234 47.277,5.725 38.366,4.288 25.680 C 3.876 22.043,3.931 17.240,4.422 14.043 L 4.520 13.405 5.440 13.305 C 9.552 12.855,14.081 11.607,16.464 10.266 C 17.711 9.564,19.560 8.348,20.651 7.511 C 21.579 6.799,23.199 5.418,23.636 4.967 C 23.810 4.787,23.975 4.640,24.002 4.640 C 24.030 4.640,24.139 4.735,24.246 4.851 M33.200 20.126 C 33.019 20.204,30.637 22.528,26.461 26.701 L 20.003 33.157 17.461 30.625 C 15.289 28.461,14.877 28.085,14.627 28.039 C 14.466 28.009,14.250 28.011,14.147 28.043 C 14.044 28.074,13.537 28.516,13.021 29.025 C 12.040 29.991,11.915 30.203,12.036 30.699 C 12.096 30.943,19.155 38.084,19.536 38.286 C 19.794 38.422,20.184 38.434,20.425 38.312 C 20.673 38.186,35.746 23.125,35.885 22.864 C 36.031 22.589,36.031 22.291,35.886 22.016 C 35.716 21.696,34.156 20.181,33.895 20.084 C 33.607 19.977,33.540 19.981,33.200 20.126 " fill="#2B2C30" stroke="none" fill-rule="evenodd"></path></svg>