<svg width="48" height="56" viewBox="0 0 48 56" fill="none" xmlns="http://www.w3.org/2000/svg"><path d="M23.391 0.071 C 22.827 0.217,22.381 0.512,21.865 1.082 C 19.974 3.170,16.036 6.140,13.801 7.165 C 11.532 8.206,7.459 9.141,3.743 9.474 C 2.642 9.573,2.436 9.614,2.078 9.809 C 1.245 10.262,0.895 10.895,0.645 12.400 C 0.014 16.197,-0.161 21.115,0.198 24.941 C 0.967 33.125,3.471 39.801,7.843 45.320 C 8.866 46.612,11.323 49.076,12.600 50.090 C 14.761 51.808,16.660 53.008,19.160 54.239 C 21.741 55.509,23.093 56.002,23.984 55.999 C 24.933 55.995,26.345 55.475,28.880 54.195 C 36.847 50.172,42.372 43.986,45.437 35.655 C 47.775 29.303,48.565 21.077,47.557 13.600 C 47.262 11.407,47.112 10.897,46.594 10.324 C 46.070 9.744,45.675 9.601,44.248 9.473 C 40.324 9.121,36.225 8.150,33.960 7.036 C 31.689 5.918,28.850 3.799,26.568 1.517 C 25.797 0.746,25.330 0.342,25.079 0.232 C 24.679 0.054,23.783 -0.031,23.391 0.071 M24.246 4.851 C 24.992 5.665,27.752 7.882,29.280 8.896 C 31.292 10.230,32.505 10.859,34.165 11.427 C 36.757 12.313,39.450 12.925,42.296 13.274 C 42.926 13.351,43.460 13.433,43.483 13.456 C 43.535 13.508,43.717 14.896,43.854 16.280 C 43.991 17.666,43.991 22.815,43.854 24.200 C 43.605 26.719,43.304 28.545,42.797 30.612 C 40.729 39.045,36.144 45.344,28.960 49.621 C 27.951 50.221,25.699 51.343,24.659 51.763 L 23.997 52.030 23.339 51.764 C 12.234 47.277,5.725 38.366,4.288 25.680 C 3.876 22.043,3.931 17.240,4.422 14.043 L 4.520 13.405 5.440 13.305 C 9.552 12.855,14.081 11.607,16.464 10.266 C 17.711 9.564,19.560 8.348,20.651 7.511 C 21.579 6.799,23.199 5.418,23.636 4.967 C 23.810 4.787,23.975 4.640,24.002 4.640 C 24.030 4.640,24.139 4.735,24.246 4.851 M15.638 17.603 C 15.491 17.647,15.046 18.031,14.508 18.578 C 13.558 19.542,13.433 19.773,13.593 20.260 C 13.653 20.440,14.821 21.661,17.399 24.239 L 21.119 27.959 17.365 31.719 C 13.256 35.836,13.344 35.726,13.638 36.345 C 13.830 36.749,15.426 38.283,15.711 38.338 C 16.290 38.449,16.329 38.416,20.240 34.514 L 23.960 30.803 27.720 34.556 C 31.703 38.531,31.612 38.454,32.198 38.302 C 32.522 38.219,34.222 36.524,34.308 36.200 C 34.462 35.621,34.474 35.635,30.525 31.685 L 26.800 27.959 30.404 24.360 C 32.386 22.380,34.081 20.642,34.172 20.498 C 34.367 20.186,34.383 19.792,34.214 19.471 C 34.021 19.106,32.632 17.780,32.297 17.641 C 31.680 17.385,31.741 17.335,27.681 21.398 L 23.961 25.119 20.199 21.360 C 18.129 19.292,16.383 17.600,16.318 17.599 C 16.253 17.598,16.128 17.583,16.040 17.564 C 15.952 17.546,15.771 17.563,15.638 17.603 " fill="#2B2C30" stroke="none" fill-rule="evenodd"></path></svg>