<svg width="48" height="56" viewBox="0 0 48 56" fill="none" xmlns="http://www.w3.org/2000/svg"><path d="M23.337 0.082 C 22.791 0.220,22.538 0.409,21.449 1.498 C 19.284 3.662,16.770 5.561,14.240 6.943 C 13.910 7.123,13.064 7.466,12.360 7.705 C 9.647 8.624,6.892 9.190,3.743 9.473 C 2.640 9.573,2.436 9.614,2.075 9.811 C 1.501 10.123,1.072 10.637,0.888 11.232 C 0.582 12.223,0.240 14.861,0.072 17.520 C -0.032 19.160,0.019 23.412,0.158 24.800 C 1.015 33.342,3.466 39.863,7.903 45.409 C 9.276 47.125,11.675 49.434,13.560 50.852 C 15.771 52.515,18.786 54.213,21.535 55.344 C 23.675 56.223,24.350 56.226,26.396 55.364 C 38.319 50.340,45.564 40.705,47.515 27.280 C 47.869 24.842,47.953 23.521,47.957 20.360 C 47.961 16.823,47.815 14.866,47.354 12.243 C 47.165 11.171,46.984 10.716,46.576 10.293 C 46.038 9.735,45.651 9.599,44.248 9.473 C 40.057 9.095,35.594 7.977,33.410 6.756 C 30.970 5.393,27.880 2.980,26.121 1.064 C 25.464 0.348,24.971 0.086,24.192 0.039 C 23.888 0.021,23.504 0.040,23.337 0.082 M24.658 5.242 C 26.526 7.000,28.698 8.621,31.015 9.990 C 32.272 10.732,32.756 10.947,34.467 11.527 C 36.830 12.327,39.517 12.935,42.235 13.284 C 42.914 13.372,43.478 13.451,43.488 13.462 C 43.529 13.503,43.691 14.833,43.802 16.038 C 44.138 19.685,44.003 23.849,43.435 27.426 C 41.635 38.739,35.524 46.926,25.574 51.356 C 24.878 51.666,24.225 51.941,24.123 51.966 C 23.759 52.058,20.389 50.493,18.522 49.365 C 11.704 45.248,7.261 39.078,5.238 30.920 C 3.987 25.877,3.694 20.349,4.371 14.583 L 4.505 13.446 4.832 13.405 C 7.384 13.084,9.022 12.788,10.913 12.307 C 12.489 11.906,14.789 11.135,15.640 10.721 C 17.060 10.031,19.370 8.530,21.040 7.212 C 21.891 6.540,23.357 5.267,23.715 4.888 C 23.844 4.752,23.965 4.640,23.984 4.640 C 24.002 4.640,24.306 4.911,24.658 5.242 " fill="#2B2C30" stroke="none" fill-rule="evenodd"></path></svg>