<svg width="56" height="36" viewBox="0 0 56 36" fill="none" xmlns="http://www.w3.org/2000/svg"><path d="M0.607 0.088 C 0.086 0.303,-0.147 1.014,0.152 1.476 C 0.248 1.625,2.381 4.022,4.892 6.802 C 9.702 12.126,9.699 12.123,10.298 11.919 C 10.475 11.859,12.101 10.126,15.152 6.747 C 17.675 3.951,19.791 1.573,19.853 1.462 C 20.054 1.104,19.997 0.682,19.701 0.351 L 19.429 0.047 10.111 0.029 C 4.986 0.019,0.709 0.045,0.607 0.088 M20.460 8.172 C 20.061 8.452,19.973 8.780,19.973 9.991 C 19.973 11.301,20.087 11.660,20.578 11.893 C 20.857 12.025,22.609 12.040,37.980 12.040 C 52.541 12.040,55.120 12.020,55.390 11.907 C 55.907 11.691,56.000 11.391,56.000 9.935 L 56.000 8.661 55.683 8.344 L 55.365 8.027 38.017 8.027 C 22.447 8.027,20.647 8.042,20.460 8.172 M20.325 20.339 L 20.020 20.611 19.987 21.754 C 19.948 23.045,20.044 23.509,20.408 23.795 C 20.649 23.985,20.729 23.987,28.000 23.987 C 35.271 23.987,35.351 23.985,35.592 23.795 C 35.956 23.509,36.052 23.045,36.013 21.754 L 35.980 20.611 35.675 20.339 L 35.370 20.067 28.000 20.067 L 20.630 20.067 20.325 20.339 M20.533 32.176 C 20.311 32.288,20.171 32.444,20.095 32.667 C 19.957 33.072,19.941 34.832,20.071 35.301 C 20.261 35.987,19.082 35.933,34.032 35.933 L 47.490 35.933 47.732 35.646 C 47.967 35.366,47.973 35.325,47.973 34.014 L 47.973 32.670 47.701 32.365 L 47.429 32.060 34.144 32.036 C 21.640 32.014,20.841 32.022,20.533 32.176 " fill="#2B2C30" stroke="none" fill-rule="evenodd"></path></svg>