<svg width="48" height="44" viewBox="0 0 48 44" fill="none" xmlns="http://www.w3.org/2000/svg"><path d="M20.504 0.157 C 20.061 0.427,20.000 0.650,20.000 2.000 C 20.000 3.350,20.061 3.573,20.504 3.843 C 20.755 3.996,20.996 3.999,32.340 4.000 L 43.920 4.000 43.920 22.000 L 43.920 40.000 32.356 40.000 C 19.584 40.000,20.487 39.963,20.157 40.504 C 20.020 40.729,20.001 40.911,20.001 42.000 C 20.001 43.089,20.020 43.271,20.157 43.496 C 20.488 44.039,19.410 44.000,34.000 44.000 C 48.590 44.000,47.512 44.039,47.843 43.496 C 47.997 43.244,47.999 42.925,48.000 22.016 C 48.000 -1.440,48.045 0.491,47.496 0.157 C 47.245 0.004,46.991 0.001,34.000 0.001 C 21.009 0.001,20.755 0.004,20.504 0.157 M16.600 12.076 C 16.512 12.113,16.350 12.239,16.240 12.358 L 16.040 12.573 16.018 16.286 L 15.995 20.000 8.394 20.000 C 0.002 20.000,0.482 19.971,0.157 20.504 C 0.020 20.729,0.001 20.911,0.001 22.000 C 0.001 23.089,0.020 23.271,0.157 23.496 C 0.482 24.029,0.002 24.000,8.396 24.000 L 16.000 24.000 16.000 27.681 L 16.000 31.362 16.260 31.644 C 16.571 31.981,16.985 32.079,17.343 31.900 C 17.562 31.791,27.311 23.091,27.760 22.604 C 27.916 22.435,27.960 22.302,27.960 22.000 C 27.960 21.698,27.916 21.565,27.760 21.396 C 27.355 20.956,17.584 12.222,17.376 12.113 C 17.137 11.989,16.845 11.975,16.600 12.076 " fill="#2B2C30" stroke="none" fill-rule="evenodd"></path></svg>