<svg width="46" height="33" viewBox="0 0 46 33" fill="none" xmlns="http://www.w3.org/2000/svg"><path d="M21.237 0.045 C 21.089 0.062,20.572 0.114,20.087 0.160 C 12.787 0.854,5.710 4.713,1.047 10.542 C 0.110 11.713,-0.018 11.936,0.024 12.327 C 0.043 12.508,0.123 12.729,0.202 12.818 C 0.281 12.907,0.805 13.285,1.367 13.658 C 2.807 14.615,2.985 14.592,3.964 13.330 C 5.276 11.641,6.734 10.206,8.472 8.896 C 12.367 5.961,16.850 4.327,21.723 4.069 C 29.540 3.654,36.984 7.013,41.885 13.166 C 42.281 13.663,42.663 14.118,42.733 14.176 C 42.804 14.235,43.034 14.300,43.244 14.320 C 43.620 14.356,43.644 14.345,44.693 13.649 C 45.806 12.911,46.000 12.697,46.000 12.211 C 46.000 11.749,44.681 10.095,42.861 8.276 C 41.085 6.500,39.548 5.280,37.605 4.102 C 36.488 3.424,34.079 2.247,32.913 1.809 C 30.925 1.062,28.361 0.443,26.220 0.192 C 25.243 0.077,21.818 -0.024,21.237 0.045 M21.773 12.080 C 21.668 12.098,21.271 12.151,20.892 12.197 C 18.070 12.539,15.058 13.841,12.783 15.703 C 12.069 16.287,10.614 17.792,10.292 18.279 C 10.010 18.706,9.972 19.061,10.171 19.398 C 10.309 19.630,12.148 20.897,12.462 20.976 C 12.944 21.097,13.160 20.964,14.167 19.925 C 15.637 18.410,16.972 17.499,18.647 16.867 C 20.908 16.016,23.063 15.830,25.346 16.292 C 27.933 16.815,30.068 18.027,31.909 20.018 C 33.072 21.276,33.149 21.284,34.610 20.317 C 35.769 19.550,35.986 19.306,35.929 18.838 C 35.869 18.341,34.627 16.903,33.312 15.805 C 31.060 13.926,28.335 12.697,25.377 12.224 C 24.674 12.112,22.167 12.012,21.773 12.080 M22.157 24.189 C 21.026 24.444,19.930 25.270,19.450 26.231 C 18.663 27.805,18.950 29.682,20.164 30.896 C 20.924 31.656,21.889 32.047,23.006 32.047 C 23.824 32.047,24.477 31.861,25.114 31.447 C 26.201 30.740,26.843 29.694,26.959 28.441 C 27.090 27.033,26.450 25.658,25.282 24.838 C 24.375 24.201,23.192 23.955,22.157 24.189 " fill="#2B2C30" stroke="none" fill-rule="evenodd"></path></svg>