<svg width="56" height="39" viewBox="0 0 56 39" fill="none" xmlns="http://www.w3.org/2000/svg"><path d="M7.747 0.137 C 7.276 0.398,5.723 2.327,4.552 4.107 C -0.650 12.009,-1.439 22.184,2.472 30.899 C 3.612 33.440,5.533 36.367,7.207 38.117 C 7.759 38.693,7.823 38.733,8.207 38.733 C 8.601 38.733,8.652 38.698,9.605 37.757 C 10.559 36.814,10.593 36.766,10.593 36.374 C 10.593 36.052,10.530 35.893,10.285 35.601 C 9.194 34.299,8.455 33.329,7.869 32.427 C 3.308 25.416,2.758 16.418,6.431 8.898 C 7.411 6.892,8.279 5.563,9.727 3.852 C 10.903 2.464,10.902 2.303,9.718 1.088 C 8.648 -0.009,8.307 -0.174,7.747 0.137 M47.273 0.173 C 46.815 0.456,45.486 1.903,45.434 2.176 C 45.346 2.634,45.463 2.856,46.357 3.928 C 49.225 7.368,51.076 11.462,51.754 15.867 C 51.988 17.385,52.040 20.406,51.859 21.960 C 51.274 26.973,49.273 31.558,46.106 35.137 C 45.478 35.848,45.316 36.216,45.451 36.626 C 45.511 36.807,45.920 37.292,46.469 37.831 C 47.326 38.673,47.412 38.733,47.766 38.733 C 48.243 38.733,48.464 38.553,49.451 37.357 C 55.018 30.611,57.130 22.162,55.381 13.627 C 54.459 9.127,52.374 4.875,49.300 1.229 C 48.241 -0.027,47.893 -0.209,47.273 0.173 M16.221 8.657 C 15.923 8.850,15.331 9.579,14.687 10.547 C 13.343 12.568,12.543 14.682,12.172 17.192 C 11.963 18.610,12.034 21.190,12.320 22.540 C 12.881 25.190,14.316 28.131,15.842 29.756 C 16.254 30.195,16.334 30.240,16.702 30.240 C 17.091 30.240,17.148 30.201,18.029 29.330 C 18.594 28.771,18.980 28.309,19.030 28.133 C 19.145 27.726,18.981 27.331,18.354 26.507 C 16.645 24.256,15.762 21.098,16.051 18.267 C 16.290 15.930,17.114 13.857,18.543 12.001 C 18.987 11.424,19.040 11.306,19.040 10.901 C 19.040 10.457,19.022 10.428,18.225 9.601 C 17.131 8.467,16.775 8.299,16.221 8.657 M38.780 8.667 C 38.626 8.762,38.154 9.201,37.730 9.644 C 36.982 10.426,36.960 10.462,36.960 10.902 C 36.960 11.306,37.013 11.424,37.458 12.001 C 38.874 13.836,39.712 15.943,39.949 18.267 C 40.238 21.098,39.355 24.256,37.646 26.507 C 37.019 27.331,36.855 27.726,36.970 28.133 C 37.020 28.309,37.406 28.771,37.971 29.330 C 38.852 30.201,38.909 30.240,39.298 30.240 C 39.666 30.240,39.746 30.195,40.158 29.756 C 41.684 28.131,43.119 25.190,43.680 22.540 C 43.966 21.190,44.037 18.610,43.828 17.192 C 43.385 14.191,42.275 11.637,40.389 9.275 C 39.749 8.475,39.342 8.320,38.780 8.667 M26.963 15.535 C 25.038 16.066,23.746 18.032,24.063 19.945 C 24.287 21.297,25.078 22.379,26.274 22.968 C 26.899 23.275,26.962 23.287,28.000 23.287 C 29.038 23.287,29.101 23.275,29.726 22.968 C 30.912 22.383,31.698 21.319,31.935 19.973 C 32.276 18.037,30.959 16.056,28.980 15.527 C 28.406 15.374,27.536 15.377,26.963 15.535 " fill="#2B2C30" stroke="none" fill-rule="evenodd"></path></svg>