<svg width="52" height="41" viewBox="0 0 52 41" fill="none" xmlns="http://www.w3.org/2000/svg"><path d="M0.327 0.258 C 0.197 0.402,0.069 0.607,0.043 0.715 C 0.017 0.822,0.006 9.577,0.019 20.170 L 0.043 39.430 0.326 39.713 L 0.610 39.997 1.800 40.026 C 3.206 40.060,3.574 39.978,3.817 39.580 C 3.981 39.311,3.986 39.083,3.986 31.660 L 3.987 24.017 8.862 23.984 L 13.737 23.952 14.667 23.724 C 16.690 23.229,18.442 22.329,19.891 21.040 C 21.946 19.212,23.228 17.005,23.806 14.300 C 24.027 13.266,24.026 10.747,23.805 9.707 C 23.308 7.367,22.271 5.390,20.674 3.738 C 19.630 2.658,18.637 1.924,17.377 1.301 C 16.200 0.719,15.569 0.494,14.387 0.237 C 13.603 0.066,13.254 0.056,7.063 0.027 L 0.563 -0.003 0.327 0.258 M35.052 0.126 C 33.336 0.392,31.615 1.225,30.311 2.421 C 28.893 3.722,27.844 5.733,27.556 7.708 C 27.415 8.666,27.495 10.328,27.722 11.195 C 28.118 12.708,28.967 14.226,30.002 15.274 C 30.356 15.632,33.354 17.864,38.456 21.569 C 43.839 25.478,46.486 27.452,46.751 27.755 C 47.270 28.348,47.634 29.052,47.842 29.865 C 48.286 31.599,47.820 33.219,46.499 34.539 C 45.705 35.332,45.190 35.638,44.236 35.882 C 43.617 36.040,43.270 36.053,39.701 36.052 C 35.440 36.051,35.218 36.029,34.151 35.512 C 33.326 35.112,32.337 34.110,31.938 33.268 C 31.616 32.590,31.377 31.656,31.375 31.061 C 31.373 30.655,31.096 30.179,30.764 30.011 C 30.504 29.879,28.287 29.859,27.956 29.985 C 27.833 30.031,27.653 30.197,27.554 30.353 C 27.392 30.609,27.379 30.723,27.426 31.525 C 27.500 32.779,27.807 33.916,28.379 35.058 C 29.471 37.239,31.253 38.797,33.510 39.545 C 34.954 40.023,35.420 40.056,40.175 40.018 C 44.145 39.986,44.461 39.972,45.110 39.802 C 50.030 38.509,52.931 33.672,51.698 28.814 C 51.461 27.880,50.971 26.781,50.443 26.005 C 49.599 24.761,49.292 24.517,41.075 18.543 C 35.575 14.544,33.066 12.669,32.731 12.307 C 31.686 11.178,31.235 9.511,31.554 7.956 C 31.891 6.319,33.284 4.776,34.920 4.226 C 35.469 4.042,35.637 4.034,39.438 4.006 C 43.785 3.974,44.156 4.006,45.189 4.492 C 46.254 4.993,47.017 5.781,47.620 7.001 C 48.081 7.934,48.171 7.973,49.864 7.973 L 51.237 7.973 51.532 7.679 C 51.887 7.324,51.896 7.167,51.610 6.293 C 50.528 2.977,47.791 0.645,44.373 0.126 C 43.286 -0.039,36.113 -0.039,35.052 0.126 M13.780 4.192 C 15.869 4.738,17.501 5.862,18.628 7.529 C 19.559 8.907,19.965 10.267,19.965 12.003 C 19.965 14.166,19.276 15.929,17.821 17.484 C 16.821 18.554,15.497 19.346,13.997 19.772 C 13.321 19.964,13.182 19.970,8.645 19.999 L 3.987 20.030 3.987 12.002 L 3.987 3.975 8.602 4.010 C 12.589 4.040,13.293 4.065,13.780 4.192 " fill="#2B2C30" stroke="none" fill-rule="evenodd"></path></svg>