<svg width="56" height="56" viewBox="0 0 56 56" fill="none" xmlns="http://www.w3.org/2000/svg"><path d="M1.439 0.132 C 0.915 0.296,0.532 0.599,0.269 1.058 L 0.047 1.447 0.047 28.000 L 0.047 54.553 0.273 54.949 C 0.717 55.724,1.747 56.154,2.534 55.894 C 2.908 55.770,42.892 29.892,43.386 29.454 C 44.194 28.737,44.194 27.265,43.386 26.545 C 42.984 26.187,2.954 0.247,2.618 0.127 C 2.204 -0.021,1.924 -0.020,1.439 0.132 M52.474 0.183 C 52.306 0.288,52.128 0.482,52.077 0.614 C 52.018 0.770,51.994 10.488,52.010 28.145 L 52.033 55.436 52.292 55.695 L 52.551 55.953 53.993 55.953 L 55.436 55.953 55.695 55.695 L 55.953 55.436 55.953 28.000 L 55.953 0.564 55.695 0.305 C 55.440 0.050,55.420 0.046,54.108 0.020 C 52.907 -0.004,52.751 0.011,52.474 0.183 M21.257 16.888 C 30.612 22.960,38.267 27.960,38.267 27.999 C 38.267 28.038,30.612 33.038,21.257 39.110 C 11.901 45.182,4.194 50.191,4.130 50.240 C 4.037 50.312,4.013 45.849,4.013 28.000 C 4.013 10.151,4.037 5.688,4.130 5.759 C 4.194 5.808,11.901 10.816,21.257 16.888 " fill="#2B2C30" stroke="none" fill-rule="evenodd"></path></svg>