<svg width="56" height="56" viewBox="0 0 56 56" fill="none" xmlns="http://www.w3.org/2000/svg"><path d="M0.607 0.088 C 0.504 0.130,0.336 0.258,0.233 0.372 C 0.048 0.579,0.047 0.711,0.047 28.008 L 0.047 55.436 0.305 55.695 L 0.564 55.953 2.007 55.953 L 3.449 55.953 3.708 55.695 L 3.967 55.436 3.990 28.145 C 4.006 10.488,3.982 0.770,3.923 0.614 C 3.736 0.123,3.349 0.000,2.007 0.006 C 1.339 0.009,0.709 0.046,0.607 0.088 M53.381 0.127 C 53.044 0.248,13.017 26.186,12.614 26.545 C 11.806 27.265,11.806 28.737,12.614 29.455 C 13.106 29.891,53.091 55.770,53.466 55.894 C 54.253 56.154,55.283 55.724,55.727 54.949 L 55.953 54.553 55.953 28.000 C 55.953 2.321,55.948 1.436,55.780 1.129 C 55.521 0.653,55.074 0.290,54.560 0.137 C 54.007 -0.027,53.817 -0.029,53.381 0.127 M51.964 39.142 L 51.940 50.284 34.860 39.192 C 25.466 33.092,17.780 28.055,17.780 27.999 C 17.780 27.943,25.466 22.906,34.860 16.806 L 51.940 5.714 51.964 16.857 C 51.977 22.986,51.977 33.014,51.964 39.142 " fill="#2B2C30" stroke="none" fill-rule="evenodd"></path></svg>