<svg width="48" height="52" viewBox="0 0 48 52" fill="none" xmlns="http://www.w3.org/2000/svg"><path d="M36.257 0.133 C 36.112 0.205,35.953 0.338,35.904 0.430 C 35.855 0.522,34.059 5.863,31.914 12.299 L 28.013 24.000 29.734 24.000 C 31.729 24.000,31.892 23.960,32.149 23.413 C 32.234 23.230,32.532 22.387,32.811 21.540 L 33.317 20.000 38.000 20.000 L 42.683 20.000 43.232 21.660 C 43.534 22.573,43.829 23.414,43.887 23.529 C 44.097 23.945,44.377 24.000,46.266 24.000 L 47.987 24.000 44.087 12.300 C 41.942 5.865,40.138 0.523,40.080 0.429 C 39.837 0.041,39.639 -0.000,38.028 0.002 C 36.801 0.003,36.471 0.028,36.257 0.133 M8.339 0.354 L 8.040 0.628 8.020 20.314 L 7.999 40.000 4.371 40.000 L 0.744 40.000 0.473 40.182 C 0.111 40.426,-0.014 40.686,0.028 41.107 C 0.052 41.350,0.133 41.529,0.299 41.707 C 0.429 41.846,2.534 44.175,4.977 46.882 C 7.420 49.590,9.515 51.849,9.633 51.902 C 9.904 52.026,10.096 52.026,10.368 51.902 C 10.587 51.802,19.574 41.924,19.850 41.480 C 20.042 41.171,20.040 40.826,19.843 40.504 C 19.532 39.994,19.582 40.000,15.604 40.000 L 12.001 40.000 11.980 20.314 L 11.960 0.628 11.661 0.354 L 11.362 0.080 10.000 0.080 L 8.638 0.080 8.339 0.354 M39.694 11.040 L 41.347 16.000 38.000 16.000 L 34.653 16.000 36.306 11.040 C 37.215 8.312,37.978 6.080,38.000 6.080 C 38.022 6.080,38.785 8.312,39.694 11.040 M28.504 28.157 C 28.061 28.427,28.000 28.650,28.000 30.000 C 28.000 31.350,28.061 31.573,28.504 31.843 C 28.752 31.995,28.952 31.999,35.020 32.000 C 38.463 32.000,41.280 32.018,41.280 32.040 C 41.280 32.062,38.292 36.562,34.640 42.040 L 28.000 52.000 37.604 52.000 C 48.209 52.000,47.515 52.034,47.843 51.496 C 47.980 51.271,47.999 51.089,47.999 50.000 C 47.999 48.911,47.980 48.729,47.843 48.504 C 47.521 47.976,47.855 48.000,40.964 48.000 C 37.530 48.000,34.720 47.982,34.720 47.960 C 34.720 47.938,37.708 43.438,41.360 37.960 L 48.000 28.000 38.380 28.000 C 28.980 28.001,28.754 28.004,28.504 28.157 " fill="#2B2C30" stroke="none" fill-rule="evenodd"></path></svg>