<svg width="44" height="40" viewBox="0 0 44 40" fill="none" xmlns="http://www.w3.org/2000/svg"><path d="M20.130 0.103 C 19.364 0.346,18.514 0.924,17.616 1.813 C 17.298 2.127,15.891 3.646,14.487 5.188 L 11.936 7.993 7.771 7.993 C 3.120 7.993,2.856 8.015,1.938 8.467 C 0.978 8.939,0.346 9.782,0.107 10.909 C -0.052 11.661,-0.051 28.101,0.109 28.942 C 0.330 30.108,1.018 31.084,1.937 31.535 C 2.793 31.955,2.994 31.971,7.673 31.972 L 11.936 31.973 14.657 35.010 C 17.520 38.204,17.970 38.660,18.824 39.233 C 19.824 39.903,20.776 40.105,21.800 39.864 C 22.712 39.651,23.226 39.252,23.575 38.489 C 23.999 37.559,23.980 38.448,23.980 19.983 C 23.980 1.580,23.997 2.402,23.587 1.506 C 23.347 0.982,22.968 0.580,22.492 0.347 C 21.833 0.024,20.735 -0.089,20.130 0.103 M19.929 27.263 L 19.910 34.506 16.942 31.260 L 13.974 28.013 8.967 28.013 L 3.960 28.013 3.960 20.020 L 3.960 12.027 8.932 12.027 L 13.905 12.027 16.907 8.781 L 19.910 5.535 19.929 12.778 C 19.939 16.761,19.939 23.279,19.929 27.263 M29.810 12.229 C 29.260 12.635,28.108 13.891,28.052 14.146 C 27.920 14.745,27.915 14.739,30.622 17.455 L 33.145 19.986 30.791 22.331 C 29.497 23.621,28.342 24.823,28.225 25.003 C 27.828 25.614,27.929 25.893,28.915 26.896 C 29.863 27.859,30.034 27.969,30.519 27.922 L 30.889 27.887 32.696 26.098 C 33.690 25.114,34.842 23.980,35.255 23.577 L 36.008 22.845 38.409 25.235 C 39.729 26.549,40.905 27.695,41.022 27.782 C 41.341 28.021,41.845 27.998,42.211 27.730 C 42.622 27.427,43.738 26.258,43.880 25.982 C 44.205 25.348,44.113 25.223,41.306 22.461 L 38.830 20.026 41.335 17.511 C 44.082 14.753,44.118 14.705,43.926 14.108 C 43.789 13.679,42.217 12.130,41.850 12.061 C 41.197 11.939,41.232 11.912,38.500 14.635 L 35.970 17.157 33.428 14.617 L 30.886 12.076 30.494 12.045 C 30.150 12.017,30.068 12.039,29.810 12.229 " fill="#2B2C30" stroke="none" fill-rule="evenodd"></path></svg>