<svg width="48" height="48" viewBox="0 0 48 48" fill="none" xmlns="http://www.w3.org/2000/svg"><path d="M3.161 0.094 C 1.719 0.369,0.399 1.697,0.088 3.184 C -0.037 3.785,-0.037 44.215,0.088 44.816 C 0.401 46.315,1.685 47.599,3.184 47.912 C 3.785 48.037,44.215 48.037,44.816 47.912 C 46.315 47.599,47.599 46.315,47.912 44.816 C 48.037 44.215,48.037 3.785,47.912 3.184 C 47.594 1.659,46.277 0.363,44.765 0.087 C 44.149 -0.026,3.752 -0.019,3.161 0.094 M15.400 4.148 C 14.959 4.420,5.080 13.408,4.979 13.629 C 4.854 13.905,4.854 14.095,4.980 14.372 C 5.081 14.594,14.956 23.578,15.400 23.851 C 15.709 24.042,16.055 24.039,16.376 23.843 C 16.886 23.532,16.880 23.582,16.880 19.604 L 16.880 16.000 20.440 16.000 L 24.000 16.000 24.000 24.000 L 24.000 32.000 27.956 32.000 L 31.912 32.000 31.936 28.340 C 31.960 24.683,31.960 24.680,32.141 24.426 C 32.353 24.128,32.780 23.964,33.156 24.034 C 33.363 24.073,34.524 25.080,38.450 28.626 C 41.217 31.125,43.579 33.287,43.700 33.431 C 43.860 33.621,43.920 33.780,43.920 34.015 C 43.920 34.303,43.867 34.391,43.420 34.843 C 43.145 35.122,40.782 37.277,38.169 39.633 C 34.480 42.959,33.359 43.928,33.154 43.966 C 32.780 44.037,32.353 43.871,32.141 43.574 C 31.960 43.320,31.960 43.317,31.936 39.660 L 31.912 36.000 27.956 36.000 L 24.000 36.000 24.000 40.000 L 24.000 44.000 14.000 44.000 L 4.000 44.000 4.000 24.000 L 4.000 4.000 9.820 4.000 C 15.514 4.001,15.635 4.004,15.400 4.148 M24.000 8.000 L 24.000 12.000 20.440 12.000 L 16.880 12.000 16.880 8.396 C 16.880 4.418,16.886 4.468,16.376 4.157 L 16.120 4.001 20.060 4.000 L 24.000 4.000 24.000 8.000 M40.000 10.000 L 40.000 12.000 34.000 12.000 L 28.000 12.000 28.000 10.000 L 28.000 8.000 34.000 8.000 L 40.000 8.000 40.000 10.000 M36.000 18.000 L 36.000 20.000 32.000 20.000 L 28.000 20.000 28.000 18.000 L 28.000 16.000 32.000 16.000 L 36.000 16.000 36.000 18.000 M8.000 30.000 L 8.000 32.000 14.000 32.000 L 20.000 32.000 20.000 30.000 L 20.000 28.000 14.000 28.000 L 8.000 28.000 8.000 30.000 M8.000 38.000 L 8.000 40.000 12.000 40.000 L 16.000 40.000 16.000 38.000 L 16.000 36.000 12.000 36.000 L 8.000 36.000 8.000 38.000 " fill="#2B2C30" stroke="none" fill-rule="evenodd"></path></svg>