<svg width="48" height="40" viewBox="0 0 48 40" fill="none" xmlns="http://www.w3.org/2000/svg"><path d="M3.240 0.083 C 1.841 0.371,0.743 1.325,0.212 2.712 L 0.040 3.160 0.040 20.000 L 0.040 36.840 0.212 37.288 C 0.663 38.468,1.531 39.338,2.700 39.784 L 3.160 39.960 24.000 39.960 L 44.840 39.960 45.288 39.788 C 46.468 39.337,47.338 38.469,47.784 37.300 L 47.960 36.840 47.960 20.000 L 47.960 3.160 47.784 2.700 C 47.338 1.531,46.468 0.663,45.288 0.212 L 44.840 0.040 24.200 0.028 C 12.848 0.022,3.416 0.046,3.240 0.083 M28.000 6.000 L 28.000 8.000 26.000 8.000 L 24.000 8.000 24.000 6.000 L 24.000 4.000 26.000 4.000 L 28.000 4.000 28.000 6.000 M36.000 6.000 L 36.000 8.000 34.000 8.000 L 32.000 8.000 32.000 6.000 L 32.000 4.000 34.000 4.000 L 36.000 4.000 36.000 6.000 M44.000 6.000 L 44.000 8.000 42.000 8.000 L 40.000 8.000 40.000 6.000 L 40.000 4.000 42.000 4.000 L 44.000 4.000 44.000 6.000 M44.000 16.900 L 44.000 21.799 40.000 17.800 L 36.000 13.801 31.180 18.620 L 26.360 23.440 24.180 21.260 L 22.000 19.080 13.540 27.540 L 5.080 36.000 4.540 36.000 L 4.000 36.000 4.000 24.000 L 4.000 12.000 24.000 12.000 L 44.000 12.000 44.000 16.900 M11.171 16.127 C 9.823 16.453,8.667 17.563,8.281 18.902 C 8.206 19.160,8.147 19.645,8.147 20.000 C 8.147 21.119,8.523 22.026,9.317 22.819 C 11.825 25.328,16.097 23.551,16.097 20.000 C 16.097 17.400,13.699 15.515,11.171 16.127 M40.020 23.500 L 44.000 27.479 44.000 31.740 L 44.000 36.000 27.340 36.000 L 10.680 36.000 16.340 30.340 L 22.000 24.680 26.300 28.980 L 30.601 33.281 32.000 31.880 L 33.399 30.479 31.300 28.380 L 29.200 26.281 32.580 22.900 C 34.438 21.041,35.977 19.520,35.999 19.520 C 36.021 19.520,37.831 21.311,40.020 23.500 " fill="#2B2C30" stroke="none" fill-rule="evenodd"></path></svg>