<svg width="28" height="48" viewBox="0 0 28 48" fill="none" xmlns="http://www.w3.org/2000/svg"><path d="M0.583 0.087 C 0.348 0.194,0.113 0.458,0.049 0.687 C 0.021 0.788,0.000 1.357,0.000 2.020 C -0.000 3.312,0.014 3.390,0.314 3.697 C 0.535 3.924,0.786 3.999,1.447 4.036 C 9.435 4.474,16.792 9.039,20.819 16.057 C 23.875 21.384,24.768 27.741,23.304 33.740 C 22.374 37.547,20.361 41.322,17.746 44.159 C 17.633 44.282,17.509 44.458,17.471 44.551 C 17.379 44.770,17.380 45.160,17.473 45.383 C 17.551 45.569,18.920 46.990,19.224 47.202 C 19.551 47.428,20.067 47.427,20.358 47.198 C 20.533 47.060,21.320 46.167,21.866 45.486 C 25.983 40.349,28.134 33.980,27.984 27.370 C 27.939 25.365,27.736 23.679,27.319 21.840 C 26.170 16.776,23.668 12.165,20.067 8.476 C 17.790 6.144,15.374 4.375,12.500 2.937 C 9.130 1.250,5.657 0.310,1.820 0.047 C 0.909 -0.015,0.800 -0.012,0.583 0.087 " fill="#2B2C30" stroke="none" fill-rule="evenodd"></path></svg>