<svg width="56" height="56" viewBox="0 0 56 56" fill="none" xmlns="http://www.w3.org/2000/svg"><path d="M28.317 0.317 L 28.000 0.635 28.000 1.898 C 28.000 2.593,28.041 3.269,28.091 3.401 C 28.244 3.802,28.667 3.983,29.616 4.054 C 32.822 4.291,35.718 5.069,38.500 6.438 C 43.376 8.838,47.171 12.620,49.510 17.407 C 50.601 19.640,51.269 21.695,51.649 23.987 C 52.923 31.669,50.475 39.391,45.035 44.853 C 44.367 45.524,43.488 46.340,43.083 46.667 C 39.808 49.307,35.669 51.114,31.407 51.764 C 30.021 51.976,26.272 52.007,24.967 51.819 C 19.301 50.999,14.591 48.634,10.779 44.693 C 8.947 42.799,7.629 40.919,6.438 38.500 C 5.063 35.707,4.308 32.897,4.055 29.633 C 3.939 28.132,3.765 28.000,1.909 28.000 L 0.635 28.000 0.317 28.317 C -0.060 28.695,-0.075 28.908,0.136 30.893 C 1.029 39.277,5.547 46.704,12.600 51.378 C 15.994 53.627,19.806 55.073,24.080 55.732 C 25.897 56.012,29.857 56.038,31.593 55.781 C 38.439 54.767,44.208 51.758,48.645 46.887 C 52.575 42.573,54.890 37.612,55.781 31.593 C 56.038 29.857,56.012 25.897,55.732 24.080 C 54.567 16.524,50.772 10.102,44.826 5.627 C 40.559 2.416,35.671 0.557,30.287 0.098 C 28.663 -0.041,28.677 -0.043,28.317 0.317 " fill="#2B2C30" stroke="none" fill-rule="evenodd"></path></svg>