<svg width="28" height="28" viewBox="0 0 28 28" fill="none" xmlns="http://www.w3.org/2000/svg"><path d="M0.583 0.084 C 0.346 0.195,0.113 0.459,0.049 0.687 C 0.021 0.788,0.000 1.357,0.000 2.020 C -0.000 3.312,0.014 3.390,0.314 3.697 C 0.533 3.922,0.785 3.999,1.423 4.034 C 8.270 4.410,14.719 7.810,18.970 13.283 C 21.889 17.041,23.629 21.591,23.941 26.278 C 24.003 27.211,24.049 27.405,24.264 27.643 C 24.570 27.983,24.644 27.998,26.017 27.998 C 27.379 27.998,27.470 27.980,27.750 27.661 C 27.982 27.397,28.017 27.226,27.981 26.533 C 27.488 17.112,22.291 8.592,14.117 3.802 C 10.263 1.544,5.849 0.235,1.377 0.025 C 0.842 -0.000,0.748 0.007,0.583 0.084 " fill="#2B2C30" stroke="none" fill-rule="evenodd"></path></svg>