<svg width="56" height="56" viewBox="0 0 56 56" fill="none" xmlns="http://www.w3.org/2000/svg"><path d="M26.133 0.059 C 17.913 0.672,10.583 4.646,5.629 11.176 C 2.796 14.909,1.034 19.171,0.255 24.172 C -0.030 26.001,-0.030 29.999,0.255 31.828 C 1.452 39.508,5.165 45.810,11.183 50.377 C 14.901 53.197,19.185 54.968,24.172 55.745 C 26.001 56.030,29.999 56.030,31.828 55.745 C 38.632 54.685,44.416 51.617,48.757 46.767 C 52.604 42.467,54.828 37.714,55.745 31.828 C 56.030 29.999,56.030 26.001,55.745 24.172 C 54.968 19.185,53.197 14.901,50.377 11.183 C 45.747 5.081,39.129 1.242,31.500 0.232 C 30.407 0.087,27.159 -0.017,26.133 0.059 M31.342 4.241 C 36.483 5.001,40.970 7.198,44.695 10.779 C 47.970 13.927,50.395 18.222,51.373 22.605 C 51.837 24.684,51.926 25.552,51.926 28.000 C 51.926 30.448,51.837 31.316,51.373 33.395 C 49.832 40.302,45.032 46.359,38.605 49.509 C 36.846 50.370,35.730 50.784,33.933 51.239 C 31.649 51.817,30.622 51.938,28.000 51.938 C 25.378 51.938,24.351 51.817,22.067 51.239 C 20.270 50.784,19.154 50.370,17.395 49.509 C 13.169 47.437,9.771 44.273,7.291 40.098 C 4.050 34.643,3.167 27.828,4.890 21.560 C 6.183 16.853,9.060 12.474,12.921 9.335 C 14.743 7.853,17.495 6.290,19.740 5.461 C 21.424 4.840,23.763 4.314,25.760 4.107 C 26.875 3.992,30.195 4.072,31.342 4.241 " fill="#2B2C30" stroke="none" fill-rule="evenodd"></path></svg>