<svg width="56" height="56" viewBox="0 0 56 56" fill="none" xmlns="http://www.w3.org/2000/svg"><path d="M28.317 0.317 L 28.000 0.635 28.000 1.909 C 28.000 3.852,28.071 3.926,30.100 4.099 C 32.997 4.347,35.886 5.151,38.500 6.435 C 42.485 8.394,45.672 11.202,48.090 14.887 C 48.920 16.151,50.032 18.350,50.541 19.734 C 51.013 21.015,51.563 23.237,51.767 24.687 C 51.974 26.159,52.002 29.641,51.817 30.940 C 51.157 35.575,49.504 39.483,46.730 42.966 C 42.844 47.843,37.401 50.895,30.940 51.818 C 29.658 52.001,26.059 51.972,24.733 51.768 C 20.216 51.072,16.448 49.449,13.034 46.730 C 6.226 41.306,2.898 32.571,4.350 23.940 C 5.040 19.843,6.947 15.750,9.689 12.482 C 10.153 11.929,10.559 11.356,10.592 11.208 C 10.688 10.769,10.439 10.364,9.542 9.503 C 8.427 8.431,8.008 8.344,7.373 9.053 C 3.842 12.998,1.565 17.453,0.572 22.353 C 0.136 24.509,0.053 25.422,0.056 28.047 C 0.059 30.771,0.170 31.828,0.701 34.208 C 3.016 44.582,11.356 52.918,21.793 55.288 C 23.961 55.781,25.534 55.948,28.000 55.948 C 31.001 55.948,32.999 55.671,35.840 54.861 C 45.450 52.119,53.119 43.980,55.299 34.208 C 55.836 31.803,55.942 30.777,55.942 28.000 C 55.942 25.177,55.806 23.910,55.254 21.596 C 52.422 9.720,42.416 1.098,30.305 0.099 C 28.641 -0.039,28.677 -0.043,28.317 0.317 " fill="#2B2C30" stroke="none" fill-rule="evenodd"></path></svg>