<svg width="56" height="55" viewBox="0 0 56 55" fill="none" xmlns="http://www.w3.org/2000/svg"><path d="M33.667 0.784 C 31.120 2.644,28.862 4.382,28.806 4.526 C 28.729 4.727,28.730 5.260,28.807 5.461 C 28.862 5.606,34.149 9.638,34.600 9.879 C 34.952 10.067,35.348 10.007,35.675 9.715 L 35.980 9.442 36.011 8.162 L 36.042 6.881 38.577 6.934 C 40.713 6.978,41.236 7.016,41.890 7.180 C 44.275 7.775,46.223 9.372,47.277 11.597 C 47.910 12.935,47.996 13.467,48.044 16.357 L 48.086 18.947 46.994 18.947 C 45.469 18.947,45.080 19.165,45.080 20.021 C 45.080 20.292,45.404 20.774,47.203 23.186 C 49.528 26.302,49.660 26.432,50.310 26.237 C 50.622 26.143,50.885 25.830,52.825 23.242 C 55.130 20.166,55.195 20.048,54.885 19.469 C 54.668 19.063,54.264 18.947,53.077 18.947 L 52.002 18.947 51.964 15.983 C 51.928 13.160,51.915 12.978,51.687 12.133 C 51.343 10.855,50.935 9.855,50.376 8.918 C 48.733 6.160,46.043 4.119,43.073 3.375 C 41.768 3.048,41.043 2.987,38.513 2.987 L 36.042 2.987 36.011 1.765 L 35.980 0.544 35.675 0.272 C 35.163 -0.185,34.906 -0.120,33.667 0.784 M3.178 15.035 C 2.046 15.257,0.950 16.129,0.398 17.247 L 0.047 17.957 0.021 34.668 C 0.004 45.837,0.028 51.529,0.092 51.830 C 0.406 53.308,1.665 54.567,3.143 54.881 C 3.444 54.946,9.134 54.969,20.300 54.952 L 37.007 54.927 37.637 54.628 C 38.798 54.078,39.693 52.985,39.937 51.819 C 40.010 51.468,40.040 46.569,40.040 34.922 C 40.040 20.399,40.023 18.455,39.895 17.963 C 39.634 16.962,39.047 16.160,38.146 15.577 C 37.089 14.893,38.219 14.932,19.955 14.944 C 10.956 14.949,3.406 14.990,3.178 15.035 M8.005 20.977 L 8.030 22.960 6.022 22.960 L 4.013 22.960 4.013 20.951 L 4.013 18.943 5.997 18.968 L 7.980 18.993 8.005 20.977 M28.000 21.030 C 28.000 22.175,28.046 23.362,28.102 23.666 C 28.309 24.788,28.924 25.703,29.891 26.329 C 30.736 26.874,31.347 26.973,33.875 26.973 L 36.027 26.973 36.027 35.000 L 36.027 43.027 33.664 43.027 C 30.957 43.027,30.685 43.074,29.751 43.713 C 29.098 44.159,28.580 44.827,28.264 45.630 C 28.076 46.110,28.055 46.352,28.020 48.557 L 27.982 50.960 20.011 50.960 L 12.040 50.960 12.038 49.023 C 12.037 47.958,11.995 46.793,11.944 46.433 C 11.758 45.121,10.918 43.966,9.718 43.375 L 9.105 43.073 6.559 43.045 L 4.013 43.016 4.013 34.995 L 4.013 26.973 6.155 26.973 C 7.374 26.973,8.511 26.928,8.792 26.869 C 10.462 26.517,11.695 25.188,11.942 23.473 C 11.994 23.114,12.037 21.948,12.038 20.883 L 12.040 18.947 20.020 18.947 L 28.000 18.947 28.000 21.030 M36.027 20.953 L 36.027 22.960 34.020 22.960 L 32.013 22.960 32.013 20.953 L 32.013 18.947 34.020 18.947 L 36.027 18.947 36.027 20.953 M8.027 48.953 L 8.027 50.960 6.020 50.960 L 4.013 50.960 4.013 48.953 L 4.013 46.947 6.020 46.947 L 8.027 46.947 8.027 48.953 M36.027 48.953 L 36.027 50.960 34.020 50.960 L 32.013 50.960 32.013 48.953 L 32.013 46.947 34.020 46.947 L 36.027 46.947 36.027 48.953 " fill="#2B2C30" stroke="none" fill-rule="evenodd"></path></svg>