<svg width="48" height="48" viewBox="0 0 48 48" fill="none" xmlns="http://www.w3.org/2000/svg"><path d="M3.161 0.094 C 1.719 0.369,0.399 1.697,0.088 3.184 C -0.037 3.785,-0.037 44.215,0.088 44.816 C 0.401 46.315,1.685 47.599,3.184 47.912 C 3.785 48.037,44.215 48.037,44.816 47.912 C 46.315 47.599,47.599 46.315,47.912 44.816 C 48.037 44.215,48.037 3.785,47.912 3.184 C 47.594 1.659,46.277 0.363,44.765 0.087 C 44.149 -0.026,3.752 -0.019,3.161 0.094 M8.000 6.000 L 8.000 8.000 6.000 8.000 L 4.000 8.000 4.000 6.000 L 4.000 4.000 6.000 4.000 L 8.000 4.000 8.000 6.000 M36.000 6.196 C 36.000 7.490,36.036 8.566,36.088 8.816 C 36.401 10.315,37.685 11.599,39.184 11.912 C 39.434 11.964,40.510 12.000,41.804 12.000 L 44.000 12.000 44.000 24.000 L 44.000 36.000 41.855 36.000 C 40.659 36.000,39.499 36.038,39.235 36.087 C 37.723 36.363,36.406 37.659,36.088 39.184 C 36.036 39.434,36.000 40.510,36.000 41.804 L 36.000 44.000 24.000 44.000 L 12.000 44.000 12.000 41.804 C 12.000 40.510,11.964 39.434,11.912 39.184 C 11.594 37.659,10.277 36.363,8.765 36.087 C 8.501 36.038,7.341 36.000,6.145 36.000 L 4.000 36.000 4.000 24.000 L 4.000 12.000 6.196 12.000 C 7.490 12.000,8.566 11.964,8.816 11.912 C 10.315 11.599,11.599 10.315,11.912 8.816 C 11.964 8.566,12.000 7.490,12.000 6.196 L 12.000 4.000 24.000 4.000 L 36.000 4.000 36.000 6.196 M44.000 6.000 L 44.000 8.000 42.000 8.000 L 40.000 8.000 40.000 6.000 L 40.000 4.000 42.000 4.000 L 44.000 4.000 44.000 6.000 M8.000 42.000 L 8.000 44.000 6.000 44.000 L 4.000 44.000 4.000 42.000 L 4.000 40.000 6.000 40.000 L 8.000 40.000 8.000 42.000 M44.000 42.000 L 44.000 44.000 42.000 44.000 L 40.000 44.000 40.000 42.000 L 40.000 40.000 42.000 40.000 L 44.000 40.000 44.000 42.000 " fill="#2B2C30" stroke="none" fill-rule="evenodd"></path></svg>