<svg width="56" height="56" viewBox="0 0 56 56" fill="none" xmlns="http://www.w3.org/2000/svg"><path d="M18.747 0.216 C 17.315 0.704,16.333 1.834,16.062 3.307 C 15.998 3.653,15.960 5.379,15.960 7.907 C 15.960 11.419,15.978 11.960,16.100 12.006 C 16.177 12.036,18.225 12.024,20.650 11.979 L 25.060 11.898 25.613 11.640 C 26.354 11.294,26.877 10.850,27.311 10.199 C 27.897 9.321,27.988 8.787,27.995 6.230 L 28.000 4.013 36.021 4.013 L 44.042 4.013 44.071 6.557 L 44.100 9.100 44.414 9.726 C 44.799 10.492,45.564 11.247,46.340 11.626 L 46.900 11.900 49.443 11.929 L 51.987 11.958 51.987 19.979 L 51.987 28.000 49.835 28.000 C 47.268 28.000,46.680 28.098,45.826 28.669 C 45.155 29.117,44.708 29.640,44.360 30.387 L 44.102 30.940 44.021 35.350 C 43.976 37.775,43.965 39.825,43.996 39.905 C 44.045 40.034,44.535 40.047,48.416 40.022 C 52.644 39.994,52.797 39.987,53.321 39.789 C 54.397 39.382,55.315 38.495,55.733 37.459 L 55.953 36.913 55.979 20.253 C 55.995 9.135,55.972 3.444,55.908 3.143 C 55.599 1.689,54.363 0.434,52.909 0.099 C 52.642 0.037,46.766 0.005,35.933 0.005 L 19.367 0.005 18.747 0.216 M23.987 6.020 L 23.987 8.027 21.980 8.027 L 19.973 8.027 19.973 6.020 L 19.973 4.013 21.980 4.013 L 23.987 4.013 23.987 6.020 M51.987 6.020 L 51.987 8.027 49.980 8.027 L 47.973 8.027 47.973 6.020 L 47.973 4.013 49.980 4.013 L 51.987 4.013 51.987 6.020 M3.144 16.101 C 2.878 16.155,2.450 16.300,2.193 16.424 C 1.622 16.700,0.751 17.550,0.464 18.111 C -0.018 19.053,0.002 18.282,0.003 35.980 C 0.004 46.777,0.037 52.642,0.099 52.909 C 0.434 54.363,1.689 55.599,3.143 55.908 C 3.444 55.972,9.135 55.995,20.253 55.979 L 36.913 55.953 37.459 55.733 C 38.525 55.303,39.462 54.307,39.816 53.228 C 39.988 52.704,39.993 52.145,39.993 35.933 L 39.993 19.180 39.782 18.657 C 39.311 17.492,38.487 16.672,37.343 16.226 L 36.820 16.023 20.224 16.013 C 9.028 16.007,3.470 16.036,3.144 16.101 M8.005 22.003 L 8.030 23.987 6.022 23.987 L 4.013 23.987 4.013 21.978 L 4.013 19.970 5.997 19.995 L 7.980 20.020 8.005 22.003 M28.000 22.194 C 28.000 24.611,28.072 25.118,28.532 25.964 C 28.824 26.502,29.589 27.249,30.127 27.523 C 30.927 27.932,31.455 28.000,33.807 28.000 L 36.028 28.000 36.004 36.003 L 35.980 44.007 33.460 44.053 C 30.945 44.100,30.939 44.100,30.387 44.359 C 29.639 44.709,29.116 45.156,28.669 45.826 C 28.098 46.680,28.000 47.268,28.000 49.835 L 28.000 51.987 19.979 51.987 L 11.958 51.987 11.929 49.443 L 11.900 46.900 11.626 46.340 C 11.247 45.564,10.492 44.799,9.726 44.414 L 9.100 44.100 6.557 44.071 L 4.013 44.042 4.013 36.021 L 4.013 28.000 6.165 28.000 C 8.732 28.000,9.320 27.902,10.174 27.331 C 10.844 26.884,11.291 26.361,11.641 25.613 L 11.900 25.060 11.926 22.633 C 11.940 21.299,11.970 20.154,11.993 20.090 C 12.025 19.998,13.715 19.973,20.017 19.973 L 28.000 19.973 28.000 22.194 M36.005 22.003 L 36.030 23.987 34.022 23.987 L 32.013 23.987 32.013 21.978 L 32.013 19.970 33.997 19.995 L 35.980 20.020 36.005 22.003 M51.987 34.020 L 51.987 36.027 49.980 36.027 L 47.973 36.027 47.973 34.020 L 47.973 32.013 49.980 32.013 L 51.987 32.013 51.987 34.020 M8.027 49.980 L 8.027 51.987 6.020 51.987 L 4.013 51.987 4.013 49.980 L 4.013 47.973 6.020 47.973 L 8.027 47.973 8.027 49.980 M36.005 50.003 L 36.030 51.987 34.022 51.987 L 32.013 51.987 32.013 49.978 L 32.013 47.970 33.997 47.995 L 35.980 48.020 36.005 50.003 " fill="#2B2C30" stroke="none" fill-rule="evenodd"></path></svg>