<svg width="63" height="60" viewBox="0 0 63 60" fill="none" xmlns="http://www.w3.org/2000/svg"><path d="M30.607 0.199 C 30.377 0.306,30.052 0.538,29.886 0.715 C 29.578 1.042,29.527 1.194,24.135 17.771 L 22.982 21.315 12.328 21.315 C 0.783 21.315,1.274 21.292,0.644 21.871 C 0.070 22.399,-0.161 23.467,0.145 24.180 C 0.225 24.365,0.473 24.688,0.697 24.896 C 0.984 25.163,16.650 36.601,17.671 37.289 C 17.726 37.325,16.329 41.784,14.502 47.405 C 12.101 54.790,11.235 57.584,11.237 57.944 C 11.241 59.293,12.771 60.325,14.003 59.810 C 14.222 59.719,17.930 57.080,22.242 53.947 C 26.554 50.814,30.291 48.143,30.547 48.013 C 31.079 47.740,31.663 47.709,32.181 47.925 C 32.379 48.008,36.074 50.642,40.393 53.779 C 44.713 56.916,48.459 59.593,48.719 59.727 C 50.053 60.418,51.758 59.291,51.632 57.802 C 51.607 57.504,50.198 53.009,48.363 47.373 C 46.589 41.926,45.152 37.426,45.170 37.375 C 45.188 37.323,48.888 34.608,53.392 31.341 C 57.897 28.074,61.789 25.231,62.042 25.022 C 63.177 24.085,63.137 22.516,61.958 21.682 L 61.512 21.367 50.690 21.315 L 39.869 21.262 36.639 11.328 C 34.863 5.863,33.336 1.250,33.246 1.076 C 32.772 0.160,31.562 -0.243,30.607 0.199 M33.810 15.597 C 35.085 19.522,36.319 23.311,36.553 24.018 L 36.977 25.304 45.899 25.331 L 54.821 25.357 47.673 30.543 C 43.741 33.395,40.500 35.768,40.470 35.817 C 40.440 35.866,41.647 39.693,43.153 44.322 C 44.659 48.952,45.878 52.751,45.862 52.765 C 45.846 52.779,43.328 50.972,40.268 48.749 C 37.207 46.526,34.432 44.570,34.100 44.402 C 32.517 43.603,30.467 43.589,28.826 44.366 C 28.518 44.511,25.734 46.469,22.638 48.717 C 19.543 50.965,17.010 52.767,17.010 52.722 C 17.010 52.664,21.200 39.714,22.420 36.002 C 22.462 35.872,20.725 34.560,15.262 30.594 L 8.047 25.357 16.970 25.331 L 25.893 25.304 27.235 21.183 C 30.665 10.648,31.414 8.384,31.452 8.422 C 31.474 8.444,32.535 11.673,33.810 15.597 " fill="#2B2C30" stroke="none" fill-rule="evenodd"></path></svg>