<svg width="52" height="36" viewBox="0 0 52 36" fill="none" xmlns="http://www.w3.org/2000/svg"><path d="M0.499 0.136 C -0.036 0.426,-0.000 -0.874,-0.000 17.983 C -0.000 36.902,-0.039 35.547,0.517 35.835 C 0.743 35.952,3.619 35.967,26.000 35.967 C 48.381 35.967,51.257 35.952,51.483 35.835 C 52.039 35.547,52.000 36.902,52.000 17.983 C 52.000 -0.935,52.039 0.419,51.483 0.131 C 51.257 0.015,48.384 0.000,25.983 0.003 C 3.821 0.007,0.708 0.023,0.499 0.136 M15.947 10.011 L 15.947 16.035 9.988 16.012 L 4.030 15.990 4.008 9.988 L 3.985 3.987 9.966 3.987 L 15.947 3.987 15.947 10.011 M31.980 10.010 L 31.980 16.033 26.000 16.033 L 20.020 16.033 20.020 10.010 L 20.020 3.987 26.000 3.987 L 31.980 3.987 31.980 10.010 M47.992 9.988 L 47.970 15.990 42.012 16.012 L 36.053 16.035 36.053 10.011 L 36.053 3.987 42.034 3.987 L 48.015 3.987 47.992 9.988 M15.947 26.000 L 15.947 31.980 9.967 31.980 L 3.987 31.980 3.987 26.000 L 3.987 20.020 9.967 20.020 L 15.947 20.020 15.947 26.000 M31.980 26.000 L 31.980 31.980 26.000 31.980 L 20.020 31.980 20.020 26.000 L 20.020 20.020 26.000 20.020 L 31.980 20.020 31.980 26.000 M48.013 26.000 L 48.013 31.980 42.033 31.980 L 36.053 31.980 36.053 26.000 L 36.053 20.020 42.033 20.020 L 48.013 20.020 48.013 26.000 " fill="#2B2C30" stroke="none" fill-rule="evenodd"></path></svg>