<svg width="61" height="56" viewBox="0 0 61 56" fill="none" xmlns="http://www.w3.org/2000/svg"><path d="M22.570 0.069 C 18.054 0.576,14.132 3.625,12.600 7.820 C 11.866 9.829,11.870 9.781,11.821 17.286 L 11.776 24.050 13.818 24.047 L 15.860 24.044 15.860 17.478 C 15.860 9.988,15.844 10.157,16.738 8.340 C 17.135 7.534,17.362 7.228,18.137 6.449 C 19.479 5.103,20.760 4.424,22.545 4.116 C 23.326 3.982,24.458 3.962,30.108 3.987 C 36.114 4.013,36.782 4.032,37.057 4.187 C 37.225 4.281,41.557 8.559,46.683 13.693 C 55.130 22.153,56.014 23.069,56.120 23.471 C 56.242 23.939,56.188 24.511,55.987 24.870 C 55.759 25.276,37.059 44.002,36.704 44.179 C 36.246 44.408,35.423 44.406,34.971 44.176 C 34.777 44.077,34.034 43.420,33.321 42.717 L 32.025 41.439 32.025 41.993 C 32.025 42.862,31.836 44.596,31.635 45.580 L 31.451 46.478 31.967 46.932 C 32.696 47.575,33.743 48.067,34.773 48.251 C 36.097 48.489,37.218 48.326,38.532 47.704 C 39.275 47.353,39.533 47.105,49.034 37.626 C 54.604 32.068,58.932 27.668,59.146 27.349 C 60.597 25.176,60.484 22.371,58.862 20.282 C 58.112 19.317,40.038 1.362,39.429 0.978 C 39.112 0.778,38.494 0.487,38.057 0.332 L 37.261 0.051 30.093 0.040 C 26.151 0.034,22.766 0.047,22.570 0.069 M24.400 9.240 C 23.490 9.534,22.967 9.852,22.306 10.514 C 19.549 13.270,20.850 17.864,24.667 18.858 C 27.722 19.654,30.805 17.233,30.805 14.038 C 30.805 11.763,29.285 9.769,27.108 9.190 C 26.379 8.996,25.081 9.020,24.400 9.240 M11.793 28.210 C 8.009 28.836,4.524 31.060,2.435 34.185 C 1.333 35.831,0.710 37.308,0.287 39.275 C -0.032 40.757,-0.028 43.315,0.295 44.835 C 1.464 50.327,5.733 54.603,11.148 55.706 C 12.598 56.002,15.345 56.005,16.778 55.713 C 22.309 54.585,26.593 50.257,27.726 44.650 C 28.004 43.272,27.976 40.534,27.668 39.150 C 27.044 36.336,25.724 33.957,23.704 32.002 C 21.762 30.122,19.484 28.910,16.775 28.314 C 15.717 28.081,12.926 28.023,11.793 28.210 M15.589 32.233 C 15.734 32.347,15.900 32.610,15.958 32.818 C 16.020 33.041,16.062 34.587,16.063 36.625 L 16.063 40.057 19.731 40.057 L 23.399 40.057 23.696 40.354 L 23.993 40.651 23.993 42.039 L 23.993 43.427 23.696 43.724 L 23.399 44.022 19.731 44.022 L 16.063 44.022 16.063 47.453 C 16.062 49.427,16.019 51.040,15.961 51.250 C 15.775 51.918,15.592 51.998,14.163 52.036 C 13.319 52.059,12.792 52.029,12.593 51.946 C 12.011 51.705,11.997 51.600,11.997 47.636 L 11.997 44.022 8.305 44.022 C 4.697 44.022,4.608 44.017,4.385 43.809 C 4.259 43.691,4.113 43.483,4.060 43.344 C 3.930 43.001,3.940 41.074,4.074 40.689 C 4.295 40.057,4.294 40.057,8.333 40.057 L 11.997 40.057 12.000 36.422 C 12.004 32.537,12.015 32.444,12.516 32.167 C 12.681 32.076,13.173 32.031,14.042 32.029 C 15.183 32.025,15.353 32.048,15.589 32.233 " fill="#2B2C30" stroke="none" fill-rule="evenodd"></path></svg>