<svg width="56" height="56" viewBox="0 0 56 56" fill="none" xmlns="http://www.w3.org/2000/svg"><path d="M24.531 0.144 C 21.208 0.662,18.213 2.982,16.881 6.072 C 16.687 6.521,16.435 7.218,16.320 7.621 C 16.115 8.341,16.111 8.462,16.078 14.635 C 16.046 20.735,16.050 20.937,16.236 21.615 C 16.342 21.999,16.561 22.595,16.724 22.940 C 17.001 23.525,17.530 24.076,24.727 31.274 C 33.114 39.663,32.742 39.332,34.254 39.757 C 35.116 39.999,36.470 40.021,37.287 39.807 C 38.069 39.601,38.869 39.208,39.527 38.707 C 39.835 38.472,43.388 34.969,47.422 30.923 C 52.907 25.423,54.842 23.425,55.092 23.006 C 56.174 21.189,56.267 19.105,55.349 17.192 C 54.990 16.443,54.855 16.293,51.298 12.665 C 45.019 6.263,39.962 1.296,39.366 0.947 C 38.611 0.504,37.851 0.214,37.147 0.100 C 36.203 -0.053,25.559 -0.016,24.531 0.144 M37.007 4.238 C 37.380 4.416,38.883 5.874,44.534 11.540 C 48.417 15.434,51.662 18.756,51.745 18.922 C 51.995 19.420,52.033 20.010,51.848 20.510 C 51.706 20.895,50.726 21.915,44.392 28.263 C 40.382 32.284,36.953 35.648,36.773 35.740 C 36.258 36.005,35.839 36.044,35.276 35.880 C 34.781 35.735,34.566 35.530,27.689 28.669 C 22.986 23.976,20.521 21.450,20.340 21.140 L 20.068 20.673 20.069 14.980 C 20.069 8.647,20.066 8.687,20.695 7.390 C 21.203 6.342,22.347 5.207,23.427 4.677 C 24.748 4.030,24.759 4.029,30.987 4.022 L 36.540 4.015 37.007 4.238 M26.973 7.146 C 25.615 7.440,24.270 8.457,23.635 9.670 C 22.805 11.256,22.892 13.278,23.852 14.726 C 24.769 16.108,26.104 16.872,27.767 16.963 C 29.280 17.047,30.427 16.611,31.510 15.542 C 32.843 14.227,33.311 12.570,32.855 10.785 C 32.381 8.934,30.924 7.530,29.073 7.141 C 28.276 6.973,27.767 6.974,26.973 7.146 M11.211 10.782 C 10.096 11.835,9.314 12.989,8.749 14.420 C 8.063 16.155,8.073 16.022,8.073 23.007 L 8.073 29.260 8.333 30.027 C 8.814 31.446,8.947 31.594,16.911 39.539 L 24.313 46.924 25.107 47.310 C 27.118 48.290,29.346 48.169,31.135 46.984 C 31.657 46.639,34.347 44.106,34.347 43.960 C 34.347 43.922,34.085 43.839,33.765 43.776 C 32.972 43.621,31.859 43.204,31.008 42.745 L 30.301 42.364 29.640 43.018 C 29.277 43.378,28.824 43.737,28.633 43.816 C 28.233 43.982,27.478 44.005,27.096 43.862 C 26.703 43.715,12.437 29.444,12.219 28.980 C 12.052 28.623,12.044 28.203,12.042 19.390 C 12.041 13.427,12.008 10.173,11.948 10.173 C 11.898 10.173,11.566 10.447,11.211 10.782 M3.238 18.755 C 2.838 19.135,2.300 19.723,2.044 20.060 C 1.401 20.906,0.611 22.543,0.306 23.660 L 0.052 24.593 0.022 30.563 C -0.013 37.291,-0.003 37.422,0.651 38.780 C 0.860 39.215,1.262 39.819,1.615 40.227 C 2.735 41.523,15.985 54.648,16.520 54.991 C 18.148 56.035,20.264 56.269,21.941 55.591 C 22.957 55.181,23.536 54.754,24.993 53.341 L 26.437 51.942 25.795 51.794 C 24.655 51.533,23.374 51.022,22.516 50.486 C 22.329 50.369,22.267 50.407,21.620 51.035 C 21.237 51.405,20.775 51.771,20.592 51.848 C 20.140 52.037,19.445 52.019,18.993 51.808 C 18.537 51.594,4.367 37.434,4.181 37.007 C 4.086 36.786,4.050 34.764,4.013 27.395 L 3.967 18.063 3.238 18.755 " fill="#2B2C30" stroke="none" fill-rule="evenodd"></path></svg>