<svg width="45" height="49" viewBox="0 0 45 49" fill="none" xmlns="http://www.w3.org/2000/svg"><path d="M10.901 0.076 C 7.160 0.479,3.828 2.571,1.825 5.777 C 0.886 7.280,0.283 9.046,0.080 10.891 C -0.026 11.859,-0.029 24.904,0.078 25.559 C 0.206 26.350,0.501 27.156,0.908 27.825 C 1.260 28.405,2.129 29.298,10.604 37.787 C 15.724 42.916,20.179 47.326,20.504 47.589 C 22.606 49.284,25.439 49.417,27.697 47.926 C 28.093 47.665,29.692 46.126,33.669 42.178 C 36.657 39.213,39.196 36.637,39.313 36.454 C 39.726 35.805,39.592 35.485,38.444 34.363 C 37.545 33.485,37.343 33.376,36.812 33.488 C 36.610 33.530,35.508 34.592,30.975 39.111 C 25.675 44.396,25.367 44.689,24.983 44.813 C 24.508 44.967,23.862 44.935,23.468 44.739 C 23.120 44.564,4.460 25.921,4.251 25.537 L 4.087 25.238 4.088 18.075 L 4.088 10.912 4.294 10.162 C 4.783 8.377,5.857 6.764,7.268 5.694 C 7.958 5.171,9.272 4.534,10.162 4.292 L 10.912 4.088 18.075 4.088 L 25.238 4.087 25.617 4.298 C 25.886 4.447,27.604 6.116,31.541 10.054 L 37.087 15.600 35.576 17.119 C 34.746 17.954,34.029 18.711,33.983 18.801 C 33.855 19.054,33.885 19.512,34.047 19.778 C 34.345 20.266,34.166 20.250,39.240 20.250 C 43.665 20.249,43.847 20.244,44.077 20.103 C 44.612 19.777,44.585 20.024,44.611 15.228 C 44.624 12.855,44.613 10.734,44.586 10.515 C 44.506 9.852,43.951 9.432,43.331 9.566 C 43.147 9.605,42.705 9.998,41.511 11.182 L 39.934 12.746 34.386 7.193 C 31.334 4.138,28.650 1.492,28.420 1.313 C 27.815 0.841,27.133 0.488,26.363 0.249 L 25.688 0.038 18.563 0.028 C 14.644 0.023,11.196 0.044,10.901 0.076 M12.928 9.294 C 11.602 9.653,10.480 10.509,9.772 11.700 C 9.686 11.844,9.521 12.216,9.404 12.525 C 9.208 13.047,9.192 13.167,9.191 14.175 C 9.189 15.169,9.206 15.310,9.389 15.813 C 9.678 16.605,10.015 17.135,10.614 17.735 C 11.232 18.355,11.882 18.754,12.713 19.024 C 13.203 19.183,13.463 19.220,14.137 19.224 C 15.644 19.234,16.866 18.708,17.898 17.604 C 18.453 17.011,18.752 16.502,19.008 15.720 C 19.424 14.445,19.325 13.223,18.701 11.932 C 18.134 10.759,17.094 9.846,15.813 9.396 C 15.050 9.129,13.711 9.081,12.928 9.294 M17.212 23.411 C 16.978 23.539,15.452 25.064,15.332 25.290 C 15.194 25.552,15.196 25.903,15.338 26.203 C 15.400 26.334,17.451 28.437,19.894 30.875 C 24.667 35.637,24.585 35.566,25.179 35.406 C 25.570 35.300,27.256 33.610,27.335 33.244 C 27.457 32.672,27.549 32.777,22.813 28.032 C 20.354 25.568,18.234 23.500,18.103 23.438 C 17.826 23.306,17.427 23.294,17.212 23.411 " fill="#2B2C30" stroke="none" fill-rule="evenodd"></path></svg>