<svg width="49" height="49" viewBox="0 0 49 49" fill="none" xmlns="http://www.w3.org/2000/svg"><path d="M10.780 0.088 C 8.030 0.402,5.580 1.594,3.591 3.588 C 1.808 5.375,0.769 7.296,0.223 9.817 C 0.042 10.652,0.041 10.703,0.041 18.212 L 0.041 25.766 0.233 26.376 C 0.471 27.134,0.734 27.665,1.187 28.297 C 1.710 29.028,20.344 47.592,20.945 47.981 C 23.113 49.387,25.931 49.303,27.966 47.773 C 28.443 47.415,47.560 28.279,47.872 27.848 C 48.192 27.406,48.557 26.637,48.766 25.967 C 49.013 25.174,49.034 23.607,48.809 22.785 C 48.562 21.883,48.074 21.004,47.381 20.209 C 47.029 19.807,42.649 15.406,37.648 10.429 C 28.342 1.170,28.094 0.939,27.032 0.492 C 25.923 0.025,26.358 0.049,18.579 0.033 C 14.627 0.025,11.117 0.050,10.780 0.088 M25.348 4.178 C 25.641 4.260,26.897 5.483,35.139 13.712 C 41.568 20.131,44.646 23.259,44.755 23.485 C 44.971 23.929,44.968 24.664,44.748 25.153 C 44.499 25.707,25.777 44.442,25.194 44.720 C 24.694 44.959,23.957 44.981,23.498 44.772 C 23.294 44.679,20.026 41.485,13.846 35.340 C 6.096 27.634,4.466 25.975,4.290 25.615 L 4.077 25.180 4.103 17.960 L 4.128 10.739 4.316 10.086 C 5.004 7.693,6.613 5.808,8.848 4.776 C 9.392 4.524,10.414 4.221,10.984 4.142 C 11.119 4.123,14.330 4.102,18.121 4.096 C 23.125 4.087,25.104 4.109,25.348 4.178 M13.312 9.203 C 12.198 9.389,10.892 10.170,10.234 11.042 C 9.540 11.960,9.233 12.794,9.170 13.925 C 9.087 15.442,9.570 16.696,10.650 17.763 C 11.665 18.766,12.784 19.215,14.251 19.209 C 15.619 19.204,16.791 18.717,17.754 17.754 C 18.717 16.791,19.204 15.619,19.209 14.251 C 19.215 12.784,18.766 11.665,17.763 10.650 C 16.770 9.645,15.543 9.135,14.177 9.158 C 13.813 9.164,13.424 9.184,13.312 9.203 M25.357 15.306 C 25.223 15.366,24.717 15.819,24.235 16.311 L 23.357 17.207 23.357 17.646 L 23.357 18.086 27.869 22.605 C 30.350 25.091,32.480 27.177,32.601 27.241 C 32.865 27.381,33.184 27.392,33.427 27.268 C 33.684 27.138,35.188 25.644,35.327 25.382 C 35.476 25.100,35.476 24.716,35.326 24.435 C 35.146 24.094,26.368 15.373,26.108 15.276 C 25.811 15.165,25.659 15.171,25.357 15.306 M16.282 24.269 C 15.310 25.228,15.134 25.517,15.233 25.991 C 15.277 26.201,16.208 27.179,19.751 30.733 C 22.206 33.195,24.313 35.263,24.435 35.327 C 24.698 35.466,25.097 35.478,25.342 35.353 C 25.599 35.223,27.103 33.729,27.242 33.467 C 27.390 33.186,27.390 32.882,27.241 32.601 C 27.177 32.480,25.091 30.350,22.605 27.869 L 18.086 23.357 17.646 23.357 L 17.207 23.357 16.282 24.269 " fill="#2B2C30" stroke="none" fill-rule="evenodd"></path></svg>