<svg width="49" height="49" viewBox="0 0 49 49" fill="none" xmlns="http://www.w3.org/2000/svg"><path d="M10.535 0.122 C 7.971 0.479,5.664 1.583,3.823 3.335 C 2.310 4.775,1.231 6.467,0.615 8.365 C 0.017 10.205,0.041 9.803,0.041 18.212 L 0.041 25.766 0.233 26.376 C 0.471 27.134,0.734 27.665,1.187 28.297 C 1.720 29.041,20.256 47.509,20.907 47.944 C 23.000 49.345,25.636 49.334,27.767 47.917 C 28.210 47.622,47.331 28.555,47.773 27.966 C 48.182 27.422,48.533 26.716,48.766 25.967 C 49.013 25.174,49.034 23.607,48.809 22.785 C 48.561 21.878,48.075 21.004,47.377 20.209 C 47.023 19.807,42.659 15.414,37.679 10.449 C 28.297 1.093,28.162 0.967,27.032 0.492 C 25.923 0.025,26.360 0.049,18.538 0.031 C 12.915 0.018,11.139 0.038,10.535 0.122 M25.515 4.245 C 25.992 4.477,44.618 23.120,44.791 23.538 C 44.968 23.967,44.949 24.707,44.748 25.153 C 44.499 25.707,25.777 44.442,25.194 44.720 C 24.642 44.984,23.925 44.989,23.450 44.733 C 23.241 44.620,19.507 40.968,13.806 35.299 C 6.090 27.628,4.466 25.974,4.290 25.614 L 4.077 25.180 4.103 17.960 L 4.128 10.739 4.316 10.086 C 5.195 7.029,7.641 4.761,10.658 4.204 C 11.094 4.123,12.877 4.096,18.206 4.091 C 24.999 4.084,25.192 4.088,25.515 4.245 M13.113 9.242 C 11.784 9.496,10.358 10.587,9.719 11.841 C 9.184 12.888,9.009 14.228,9.264 15.313 C 9.689 17.121,11.124 18.603,12.903 19.073 C 13.674 19.276,14.906 19.256,15.639 19.029 C 17.243 18.532,18.532 17.243,19.029 15.639 C 19.256 14.906,19.276 13.674,19.073 12.903 C 18.744 11.656,17.765 10.389,16.652 9.772 C 15.659 9.221,14.293 9.017,13.113 9.242 M16.282 24.269 C 15.310 25.228,15.134 25.517,15.233 25.991 C 15.277 26.201,16.208 27.179,19.751 30.733 C 22.206 33.195,24.313 35.263,24.435 35.327 C 24.698 35.466,25.097 35.478,25.342 35.353 C 25.599 35.223,27.103 33.729,27.242 33.467 C 27.390 33.186,27.390 32.882,27.241 32.601 C 27.177 32.480,25.091 30.350,22.605 27.869 L 18.086 23.357 17.646 23.357 L 17.207 23.357 16.282 24.269 " fill="#2B2C30" stroke="none" fill-rule="evenodd"></path></svg>