<svg width="56" height="56" viewBox="0 0 56 56" fill="none" xmlns="http://www.w3.org/2000/svg"><path d="M26.133 0.059 C 17.918 0.672,10.533 4.677,5.619 11.185 C 2.783 14.941,1.033 19.178,0.255 24.172 C -0.030 26.001,-0.030 29.999,0.255 31.828 C 0.790 35.261,1.802 38.387,3.269 41.134 C 5.870 46.008,9.992 50.130,14.866 52.731 C 17.613 54.198,20.739 55.210,24.172 55.745 C 26.001 56.030,29.999 56.030,31.828 55.745 C 38.614 54.688,44.394 51.630,48.716 46.811 C 52.598 42.483,54.824 37.738,55.745 31.828 C 56.030 29.999,56.030 26.001,55.745 24.172 C 54.968 19.185,53.197 14.901,50.377 11.183 C 45.748 5.083,39.127 1.241,31.500 0.232 C 30.407 0.087,27.159 -0.017,26.133 0.059 M31.342 4.241 C 36.483 5.001,40.970 7.198,44.695 10.779 C 47.970 13.927,50.395 18.222,51.373 22.605 C 51.837 24.684,51.926 25.552,51.926 28.000 C 51.926 30.448,51.837 31.316,51.373 33.395 C 49.832 40.302,45.032 46.359,38.605 49.509 C 36.846 50.370,35.730 50.784,33.933 51.239 C 31.649 51.817,30.622 51.938,28.000 51.938 C 25.378 51.938,24.351 51.817,22.067 51.239 C 20.270 50.784,19.154 50.370,17.395 49.509 C 11.686 46.711,7.252 41.637,5.242 35.601 C 3.563 30.560,3.632 24.791,5.431 19.833 C 6.308 17.417,7.902 14.649,9.582 12.628 C 10.449 11.584,11.835 10.217,12.921 9.335 C 14.746 7.852,17.496 6.290,19.740 5.461 C 21.424 4.840,23.763 4.314,25.760 4.107 C 26.875 3.992,30.195 4.072,31.342 4.241 M25.660 12.177 C 23.876 12.468,22.202 13.009,20.741 13.768 C 16.308 16.070,13.382 19.937,12.305 24.920 C 12.120 25.776,12.093 26.167,12.093 28.000 C 12.093 29.833,12.120 30.224,12.305 31.080 C 13.716 37.604,18.396 42.284,24.920 43.695 C 25.776 43.880,26.167 43.907,28.000 43.907 C 30.386 43.907,31.131 43.793,33.176 43.112 C 37.784 41.577,41.579 37.779,43.117 33.162 C 43.787 31.147,43.904 30.384,43.906 28.000 C 43.908 26.160,43.882 25.779,43.696 24.920 C 42.286 18.413,37.586 13.701,31.127 12.317 C 29.910 12.056,26.877 11.979,25.660 12.177 M30.168 16.199 C 31.798 16.500,33.584 17.245,34.893 18.168 C 35.757 18.779,37.123 20.133,37.743 20.994 C 39.213 23.036,39.979 25.436,39.979 28.000 C 39.979 31.317,38.742 34.250,36.368 36.562 C 35.363 37.540,34.575 38.115,33.463 38.683 C 31.749 39.557,29.969 39.979,28.000 39.979 C 26.031 39.979,24.251 39.557,22.537 38.683 C 21.425 38.115,20.637 37.540,19.632 36.562 C 17.258 34.250,16.021 31.317,16.021 28.000 C 16.021 25.436,16.787 23.036,18.257 20.994 C 18.877 20.133,20.243 18.779,21.107 18.168 C 22.725 17.027,24.855 16.252,27.020 16.019 C 27.650 15.951,29.353 16.049,30.168 16.199 M27.109 24.117 C 25.967 24.394,24.898 25.238,24.429 26.233 C 23.679 27.823,23.974 29.586,25.194 30.806 C 25.796 31.408,26.494 31.768,27.376 31.931 C 28.581 32.153,29.888 31.724,30.806 30.806 C 32.376 29.237,32.376 26.763,30.806 25.194 C 29.814 24.202,28.426 23.797,27.109 24.117 " fill="#2B2C30" stroke="none" fill-rule="evenodd"></path></svg>