<svg width="60" height="59" viewBox="0 0 60 59" fill="none" xmlns="http://www.w3.org/2000/svg"><path d="M26.150 0.059 C 22.961 0.374,20.596 0.881,18.236 1.753 C 15.588 2.731,12.259 4.675,10.050 6.532 C 2.080 13.232,-1.504 23.583,0.605 33.806 C 1.580 38.531,4.063 43.348,7.340 46.875 C 12.015 51.906,17.690 54.846,24.600 55.815 C 25.655 55.963,30.457 56.004,30.943 55.869 C 31.234 55.788,31.230 55.782,29.358 53.908 L 27.481 52.029 26.483 51.963 C 16.799 51.329,8.489 44.969,5.293 35.747 C 3.645 30.989,3.598 25.516,5.165 20.667 C 7.552 13.279,13.279 7.552,20.667 5.165 C 23.178 4.354,25.139 4.057,28.000 4.057 C 30.861 4.057,32.822 4.354,35.333 5.165 C 41.519 7.163,46.640 11.567,49.490 17.338 C 51.219 20.841,51.946 24.012,51.944 28.050 C 51.943 31.277,51.481 33.814,50.359 36.750 L 50.092 37.450 52.521 35.043 C 53.857 33.720,55.120 32.505,55.327 32.343 C 55.660 32.085,55.719 31.972,55.821 31.400 C 55.987 30.471,55.983 25.790,55.816 24.600 C 54.970 18.591,52.576 13.393,48.723 9.200 C 46.202 6.456,43.502 4.433,40.250 2.850 C 37.367 1.446,34.867 0.696,31.550 0.240 C 30.493 0.095,26.979 -0.023,26.150 0.059 M26.335 12.095 C 23.710 12.398,21.337 13.257,19.194 14.681 C 17.237 15.980,15.887 17.339,14.604 19.299 C 9.826 26.598,11.878 36.485,19.178 41.336 C 20.264 42.057,21.666 42.740,22.874 43.135 C 24.741 43.745,24.382 43.863,26.238 42.026 C 27.125 41.149,27.980 40.334,28.138 40.215 L 28.427 40.000 27.677 40.000 C 25.625 40.000,23.067 39.168,21.181 37.887 C 19.677 36.866,18.157 35.108,17.301 33.402 C 13.998 26.814,17.265 18.952,24.283 16.600 C 29.853 14.734,36.076 17.340,38.732 22.650 C 40.275 25.736,40.411 29.291,39.110 32.541 C 37.860 35.662,34.966 38.388,31.875 39.356 C 31.349 39.521,31.118 39.699,31.425 39.701 C 31.494 39.702,31.795 39.816,32.095 39.956 C 32.477 40.134,32.978 40.542,33.770 41.324 L 34.899 42.438 35.243 42.274 C 36.696 41.581,38.842 39.916,39.995 38.587 C 43.498 34.549,44.782 29.243,43.496 24.123 C 41.949 17.967,36.998 13.363,30.726 12.252 C 29.672 12.065,27.323 11.981,26.335 12.095 M27.025 24.155 C 26.253 24.362,25.731 24.659,25.194 25.196 C 23.638 26.753,23.638 29.248,25.195 30.805 C 26.722 32.331,29.143 32.370,30.744 30.894 C 31.368 30.320,31.885 29.259,31.965 28.388 C 32.151 26.379,30.792 24.531,28.820 24.112 C 28.139 23.968,27.678 23.979,27.025 24.155 M57.149 36.249 C 56.983 36.333,53.069 40.181,48.450 44.800 L 40.053 53.198 35.501 48.659 C 30.729 43.900,30.635 43.822,30.081 44.104 C 29.954 44.169,29.456 44.610,28.975 45.084 C 28.017 46.027,27.864 46.352,28.135 46.863 C 28.368 47.302,39.406 58.274,39.739 58.398 C 39.940 58.473,40.124 58.475,40.339 58.403 C 40.550 58.334,43.719 55.228,50.215 48.725 C 55.475 43.459,59.833 39.044,59.899 38.914 C 60.134 38.451,59.951 38.097,58.975 37.125 C 57.970 36.124,57.674 35.983,57.149 36.249 " fill="#2B2C30" stroke="none" fill-rule="evenodd"></path></svg>