<svg width="56" height="40" viewBox="0 0 56 40" fill="none" xmlns="http://www.w3.org/2000/svg"><path d="M12.498 0.155 C 12.034 0.444,11.999 0.588,11.963 2.357 L 11.929 4.013 6.292 4.013 L 0.656 4.013 0.351 4.286 L 0.047 4.558 0.022 19.849 C 0.004 30.925,0.026 35.209,0.102 35.392 C 0.159 35.531,0.317 35.720,0.453 35.812 C 0.683 35.968,1.089 35.982,6.323 36.007 L 11.947 36.034 11.947 37.453 C 11.948 39.044,12.030 39.478,12.382 39.756 L 12.625 39.947 33.935 39.947 C 49.058 39.947,55.309 39.917,55.467 39.845 C 55.589 39.790,55.759 39.626,55.845 39.481 C 55.985 39.244,56.000 38.699,56.000 33.973 C 56.000 29.248,55.985 28.703,55.845 28.466 C 55.759 28.321,55.589 28.157,55.467 28.101 C 55.309 28.029,49.058 28.000,33.935 28.000 L 12.625 28.000 12.382 28.191 C 12.028 28.470,11.948 28.903,11.947 30.543 L 11.947 32.013 7.980 32.013 L 4.013 32.013 4.013 20.020 L 4.013 8.027 7.972 8.027 L 11.931 8.027 11.962 9.653 C 11.990 11.132,12.011 11.304,12.189 11.543 C 12.297 11.688,12.486 11.859,12.609 11.922 C 12.785 12.012,17.377 12.038,33.953 12.039 C 51.997 12.040,55.119 12.021,55.390 11.907 C 56.023 11.643,56.007 11.798,55.979 5.882 L 55.953 0.564 55.695 0.305 L 55.436 0.047 34.088 0.025 C 14.576 0.006,12.719 0.017,12.498 0.155 M36.027 6.020 L 36.027 8.027 26.040 8.027 L 16.053 8.027 16.053 6.020 L 16.053 4.013 26.040 4.013 L 36.027 4.013 36.027 6.020 M36.005 33.997 L 35.980 35.980 26.017 36.004 L 16.053 36.028 16.053 34.020 L 16.053 32.013 26.042 32.013 L 36.030 32.013 36.005 33.997 " fill="#2B2C30" stroke="none" fill-rule="evenodd"></path></svg>