<svg width="56" height="40" viewBox="0 0 56 40" fill="none" xmlns="http://www.w3.org/2000/svg"><path d="M0.607 0.088 C 0.504 0.130,0.336 0.258,0.233 0.372 C 0.048 0.578,0.047 0.711,0.047 20.022 L 0.047 39.465 0.275 39.708 L 0.503 39.951 2.045 39.926 L 3.586 39.900 3.800 39.583 L 4.013 39.266 4.013 20.048 C 4.013 3.053,3.997 0.799,3.872 0.557 C 3.630 0.089,3.322 -0.001,1.988 0.006 C 1.331 0.009,0.709 0.046,0.607 0.088 M52.474 0.183 C 52.306 0.288,52.127 0.482,52.077 0.615 C 52.018 0.770,51.994 7.691,52.009 20.160 L 52.033 39.465 52.260 39.706 C 52.485 39.945,52.494 39.947,53.993 39.947 C 55.493 39.947,55.502 39.945,55.727 39.706 L 55.953 39.465 55.953 20.015 L 55.953 0.564 55.695 0.305 C 55.440 0.050,55.420 0.046,54.108 0.020 C 52.907 -0.004,52.751 0.011,52.474 0.183 M8.477 4.173 C 8.340 4.258,8.182 4.427,8.127 4.548 C 8.059 4.697,8.027 6.483,8.027 10.064 C 8.027 15.936,7.997 15.653,8.643 15.923 C 9.109 16.118,46.891 16.118,47.357 15.923 C 48.003 15.653,47.973 15.936,47.973 10.064 C 47.973 6.455,47.941 4.698,47.872 4.546 C 47.816 4.424,47.652 4.254,47.508 4.169 C 47.264 4.025,45.789 4.014,27.986 4.016 C 10.212 4.018,8.707 4.030,8.477 4.173 M28.000 10.033 L 28.000 12.040 20.020 12.040 L 12.040 12.040 12.040 10.033 L 12.040 8.027 20.020 8.027 L 28.000 8.027 28.000 10.033 " fill="#2B2C30" stroke="none" fill-rule="evenodd"></path></svg>