<svg width="56" height="56" viewBox="0 0 56 56" fill="none" xmlns="http://www.w3.org/2000/svg"><path d="M25.807 0.089 C 21.570 0.473,17.641 1.677,14.224 3.639 C 7.476 7.513,2.698 13.798,0.849 21.233 C 0.255 23.623,0.054 25.333,0.054 28.000 C 0.054 30.667,0.255 32.377,0.849 34.767 C 3.142 43.987,10.071 51.509,19.040 54.513 C 22.047 55.520,24.728 55.950,28.000 55.950 C 33.710 55.950,38.763 54.428,43.510 51.280 C 53.343 44.756,58.002 32.730,55.150 21.233 C 53.476 14.486,49.301 8.562,43.510 4.720 C 39.771 2.240,36.028 0.846,31.453 0.230 C 30.192 0.060,27.006 -0.020,25.807 0.089 M30.387 4.112 C 32.529 4.319,35.123 4.968,37.101 5.792 C 40.168 7.068,42.554 8.671,44.942 11.058 C 48.769 14.886,50.988 19.347,51.814 24.873 C 51.893 25.401,51.940 26.563,51.940 28.000 C 51.940 30.382,51.871 31.113,51.470 32.993 C 51.165 34.419,50.836 35.518,50.336 36.773 C 49.066 39.967,47.412 42.471,44.942 44.942 C 41.114 48.769,36.653 50.988,31.127 51.814 C 30.000 51.983,26.000 51.983,24.873 51.814 C 21.371 51.291,18.267 50.186,15.457 48.464 C 12.413 46.597,9.403 43.588,7.536 40.543 C 2.831 32.869,2.831 23.131,7.536 15.457 C 9.403 12.413,12.413 9.403,15.457 7.536 C 18.423 5.718,22.134 4.452,25.480 4.117 C 26.641 4.001,29.214 3.999,30.387 4.112 M26.811 15.544 C 25.308 15.949,24.065 17.128,23.593 18.597 C 23.338 19.393,23.340 20.560,23.600 21.373 C 24.221 23.321,25.937 24.567,28.000 24.567 C 31.627 24.568,33.816 20.542,31.845 17.492 C 30.774 15.837,28.703 15.035,26.811 15.544 M14.678 16.236 C 13.520 16.653,12.627 17.574,12.223 18.768 C 12.058 19.256,12.028 19.524,12.058 20.216 C 12.089 20.940,12.138 21.156,12.392 21.671 C 13.159 23.229,14.625 24.089,16.287 23.958 C 17.089 23.895,17.582 23.724,18.263 23.272 C 19.809 22.246,20.415 20.052,19.621 18.356 C 19.146 17.341,18.390 16.646,17.333 16.254 C 16.622 15.990,15.385 15.982,14.678 16.236 M38.640 16.253 C 38.358 16.364,37.956 16.570,37.748 16.712 C 35.907 17.969,35.475 20.563,36.806 22.371 C 37.232 22.950,37.974 23.510,38.661 23.772 C 39.239 23.992,40.688 23.991,41.323 23.769 C 42.059 23.513,42.880 22.862,43.313 22.192 C 43.833 21.387,43.990 20.785,43.942 19.781 C 43.908 19.070,43.858 18.872,43.557 18.264 C 43.151 17.441,42.468 16.762,41.650 16.368 C 41.187 16.145,40.979 16.105,40.133 16.081 C 39.308 16.057,39.072 16.085,38.640 16.253 M12.650 28.117 C 12.210 28.233,11.915 28.521,9.814 30.880 C 8.975 31.823,8.227 32.741,8.152 32.920 C 8.045 33.178,8.022 33.634,8.045 35.087 C 8.073 36.917,8.075 36.930,8.330 37.315 C 8.801 38.026,9.020 38.080,11.437 38.080 L 13.548 38.080 13.821 37.807 L 14.093 37.534 14.096 34.984 C 14.097 33.581,14.140 32.249,14.192 32.024 C 14.334 31.410,14.703 30.718,15.267 30.010 C 15.657 29.521,15.773 29.302,15.773 29.056 C 15.773 28.635,15.565 28.249,15.263 28.112 C 14.963 27.975,13.173 27.979,12.650 28.117 M22.777 28.108 C 22.599 28.160,22.335 28.287,22.190 28.390 C 21.785 28.678,18.402 32.888,18.190 33.368 C 18.014 33.764,18.004 33.955,18.031 36.247 L 18.060 38.701 18.317 39.090 C 18.459 39.303,18.750 39.594,18.964 39.736 L 19.353 39.993 27.863 40.018 L 36.373 40.043 36.875 39.781 C 37.241 39.589,37.453 39.395,37.659 39.063 L 37.940 38.609 37.968 36.239 C 37.995 33.896,37.993 33.864,37.769 33.385 C 37.437 32.676,33.888 28.525,33.383 28.255 C 32.995 28.048,32.972 28.047,28.047 28.030 C 24.939 28.020,22.980 28.049,22.777 28.108 M40.704 28.125 C 40.405 28.297,40.234 28.627,40.230 29.038 C 40.227 29.308,40.327 29.501,40.733 30.010 C 41.297 30.718,41.666 31.410,41.808 32.024 C 41.860 32.249,41.903 33.581,41.904 34.984 L 41.907 37.534 42.179 37.807 L 42.452 38.080 44.563 38.080 C 46.980 38.080,47.199 38.026,47.670 37.315 C 47.926 36.929,47.927 36.921,47.955 35.054 C 47.982 33.246,47.976 33.166,47.768 32.790 C 47.428 32.171,44.011 28.419,43.608 28.222 C 43.147 27.996,41.049 27.926,40.704 28.125 " fill="#2B2C30" stroke="none" fill-rule="evenodd"></path></svg>