<svg width="56" height="54" viewBox="0 0 56 54" fill="none" xmlns="http://www.w3.org/2000/svg"><path d="M26.589 0.139 C 24.050 0.622,21.935 2.229,20.811 4.528 C 20.438 5.292,20.071 6.538,20.068 7.051 C 20.067 7.326,20.031 7.350,19.063 7.738 C 16.177 8.895,13.274 10.812,11.064 13.023 C 7.099 16.988,4.661 22.148,4.099 27.765 C 3.913 29.625,4.074 32.914,4.435 34.627 C 4.477 34.829,4.425 34.891,4.042 35.093 C 1.777 36.289,0.191 38.854,0.031 41.580 C -0.101 43.839,0.652 45.881,2.225 47.528 C 4.387 49.791,7.494 50.586,10.453 49.636 C 11.102 49.427,12.021 48.995,12.430 48.706 L 12.681 48.529 13.720 49.310 C 16.841 51.656,20.714 53.245,24.687 53.810 C 25.953 53.991,30.047 53.991,31.313 53.810 C 35.286 53.245,39.159 51.656,42.280 49.310 L 43.319 48.529 43.570 48.706 C 43.979 48.995,44.898 49.427,45.547 49.636 C 47.298 50.198,49.128 50.152,50.861 49.502 C 52.772 48.785,54.538 47.091,55.337 45.209 C 55.836 44.035,55.945 43.470,55.947 42.047 C 55.949 40.612,55.798 39.872,55.261 38.689 C 54.587 37.203,53.296 35.798,51.956 35.093 C 51.607 34.910,51.523 34.820,51.558 34.673 C 51.582 34.571,51.677 34.004,51.769 33.413 C 51.979 32.055,52.006 28.208,51.814 26.927 C 50.985 21.389,48.721 16.816,44.932 13.028 C 42.695 10.791,39.839 8.901,36.937 7.738 C 35.969 7.350,35.933 7.326,35.932 7.051 C 35.929 6.538,35.562 5.292,35.189 4.528 C 34.176 2.455,32.198 0.831,30.007 0.273 C 29.023 0.023,27.512 -0.036,26.589 0.139 M21.084 12.024 C 22.148 13.845,23.989 15.228,26.087 15.780 C 26.655 15.930,27.112 15.977,28.000 15.977 C 28.888 15.977,29.345 15.930,29.913 15.780 C 32.132 15.196,34.005 13.719,35.112 11.679 L 35.272 11.386 35.740 11.571 C 36.465 11.856,37.654 12.473,38.552 13.028 C 43.100 15.842,46.456 20.621,47.557 25.853 C 48.057 28.229,48.106 31.137,47.686 33.471 L 47.583 34.043 46.962 34.106 C 46.211 34.183,44.850 34.624,44.147 35.019 C 40.754 36.922,39.209 40.907,40.433 44.597 L 40.722 45.470 40.451 45.694 C 39.882 46.165,38.090 47.324,37.240 47.770 C 35.473 48.699,33.340 49.409,31.173 49.791 C 29.960 50.004,27.363 50.080,26.034 49.941 C 22.383 49.559,18.936 48.218,16.031 46.050 C 15.219 45.445,15.215 45.440,15.344 45.191 C 15.593 44.710,15.869 43.628,15.945 42.840 C 16.255 39.632,14.678 36.620,11.851 35.022 C 11.149 34.625,9.792 34.183,9.038 34.106 L 8.417 34.043 8.314 33.471 C 7.753 30.358,8.017 26.730,9.022 23.716 C 10.808 18.364,14.839 13.936,19.965 11.698 C 20.355 11.528,20.682 11.388,20.693 11.388 C 20.703 11.387,20.879 11.674,21.084 12.024 " fill="#2B2C30" stroke="none" fill-rule="evenodd"></path></svg>