<svg width="40" height="40" viewBox="0 0 40 40" fill="none" xmlns="http://www.w3.org/2000/svg"><path d="M0.507 0.151 C 0.049 0.414,0.000 0.590,-0.000 1.989 C -0.000 3.352,0.045 3.547,0.425 3.818 C 0.624 3.960,0.693 3.967,2.000 3.967 C 3.307 3.967,3.376 3.960,3.575 3.818 C 3.954 3.548,4.000 3.351,4.000 2.000 C 4.000 0.595,3.955 0.430,3.502 0.164 C 3.231 0.006,3.180 0.000,1.994 0.001 C 0.847 0.002,0.750 0.012,0.507 0.151 M12.553 0.139 C 12.073 0.376,12.000 0.622,12.000 2.000 C 12.000 3.033,12.015 3.189,12.137 3.442 C 12.237 3.648,12.352 3.763,12.558 3.863 C 12.811 3.985,12.967 4.000,14.000 4.000 C 15.033 4.000,15.189 3.985,15.442 3.863 C 15.648 3.763,15.763 3.648,15.863 3.442 C 15.985 3.189,16.000 3.033,16.000 2.000 C 16.000 0.967,15.985 0.811,15.863 0.558 C 15.763 0.352,15.648 0.237,15.442 0.137 C 15.188 0.015,15.033 0.000,13.996 0.000 C 12.953 0.000,12.805 0.014,12.553 0.139 M24.553 0.139 C 24.073 0.376,24.000 0.622,24.000 2.000 C 24.000 3.033,24.015 3.189,24.137 3.442 C 24.237 3.648,24.352 3.763,24.558 3.863 C 24.811 3.985,24.967 4.000,26.000 4.000 C 27.033 4.000,27.189 3.985,27.442 3.863 C 27.648 3.763,27.763 3.648,27.863 3.442 C 27.985 3.189,28.000 3.033,28.000 2.000 C 28.000 0.967,27.985 0.811,27.863 0.558 C 27.763 0.352,27.648 0.237,27.442 0.137 C 27.188 0.015,27.033 0.000,25.996 0.000 C 24.953 0.000,24.805 0.014,24.553 0.139 M36.553 0.139 C 36.073 0.376,36.000 0.622,36.000 2.000 C 36.000 3.033,36.015 3.189,36.137 3.442 C 36.237 3.648,36.352 3.763,36.558 3.863 C 36.811 3.985,36.967 4.000,38.000 4.000 C 39.033 4.000,39.189 3.985,39.442 3.863 C 39.648 3.763,39.763 3.648,39.863 3.442 C 39.985 3.189,40.000 3.033,40.000 2.000 C 40.000 0.967,39.985 0.811,39.863 0.558 C 39.763 0.352,39.648 0.237,39.442 0.137 C 39.188 0.015,39.033 0.000,37.996 0.000 C 36.953 0.000,36.805 0.014,36.553 0.139 M0.553 12.139 C 0.073 12.376,0.000 12.622,0.000 14.000 C 0.000 15.033,0.015 15.189,0.137 15.442 C 0.237 15.648,0.352 15.763,0.558 15.863 C 0.811 15.985,0.967 16.000,2.000 16.000 C 3.033 16.000,3.189 15.985,3.442 15.863 C 3.648 15.763,3.763 15.648,3.863 15.442 C 3.985 15.189,4.000 15.033,4.000 14.000 C 4.000 12.967,3.985 12.811,3.863 12.558 C 3.763 12.352,3.648 12.237,3.442 12.137 C 3.188 12.015,3.033 12.000,1.996 12.000 C 0.953 12.000,0.805 12.014,0.553 12.139 M12.553 12.139 C 12.073 12.376,12.000 12.622,12.000 14.000 C 12.000 15.033,12.015 15.189,12.137 15.442 C 12.237 15.648,12.352 15.763,12.558 15.863 C 12.811 15.985,12.967 16.000,14.000 16.000 C 15.033 16.000,15.189 15.985,15.442 15.863 C 15.648 15.763,15.763 15.648,15.863 15.442 C 15.985 15.189,16.000 15.033,16.000 14.000 C 16.000 12.967,15.985 12.811,15.863 12.558 C 15.763 12.352,15.648 12.237,15.442 12.137 C 15.188 12.015,15.033 12.000,13.996 12.000 C 12.953 12.000,12.805 12.014,12.553 12.139 M24.553 12.139 C 24.073 12.376,24.000 12.622,24.000 14.000 C 24.000 15.033,24.015 15.189,24.137 15.442 C 24.237 15.648,24.352 15.763,24.558 15.863 C 24.811 15.985,24.967 16.000,26.000 16.000 C 27.033 16.000,27.189 15.985,27.442 15.863 C 27.648 15.763,27.763 15.648,27.863 15.442 C 27.985 15.189,28.000 15.033,28.000 14.000 C 28.000 12.967,27.985 12.811,27.863 12.558 C 27.763 12.352,27.648 12.237,27.442 12.137 C 27.188 12.015,27.033 12.000,25.996 12.000 C 24.953 12.000,24.805 12.014,24.553 12.139 M36.553 12.139 C 36.073 12.376,36.000 12.622,36.000 14.000 C 36.000 15.033,36.015 15.189,36.137 15.442 C 36.237 15.648,36.352 15.763,36.558 15.863 C 36.811 15.985,36.967 16.000,38.000 16.000 C 39.033 16.000,39.189 15.985,39.442 15.863 C 39.648 15.763,39.763 15.648,39.863 15.442 C 39.985 15.189,40.000 15.033,40.000 14.000 C 40.000 12.967,39.985 12.811,39.863 12.558 C 39.763 12.352,39.648 12.237,39.442 12.137 C 39.188 12.015,39.033 12.000,37.996 12.000 C 36.953 12.000,36.805 12.014,36.553 12.139 M0.553 24.139 C 0.073 24.376,0.000 24.622,0.000 26.000 C 0.000 27.033,0.015 27.189,0.137 27.442 C 0.237 27.648,0.352 27.763,0.558 27.863 C 0.811 27.985,0.967 28.000,2.000 28.000 C 3.033 28.000,3.189 27.985,3.442 27.863 C 3.648 27.763,3.763 27.648,3.863 27.442 C 3.985 27.189,4.000 27.033,4.000 26.000 C 4.000 24.967,3.985 24.811,3.863 24.558 C 3.763 24.352,3.648 24.237,3.442 24.137 C 3.188 24.015,3.033 24.000,1.996 24.000 C 0.953 24.000,0.805 24.014,0.553 24.139 M12.553 24.139 C 12.073 24.376,12.000 24.622,12.000 26.000 C 12.000 27.033,12.015 27.189,12.137 27.442 C 12.237 27.648,12.352 27.763,12.558 27.863 C 12.811 27.985,12.967 28.000,14.000 28.000 C 15.033 28.000,15.189 27.985,15.442 27.863 C 15.648 27.763,15.763 27.648,15.863 27.442 C 15.985 27.189,16.000 27.033,16.000 26.000 C 16.000 24.967,15.985 24.811,15.863 24.558 C 15.763 24.352,15.648 24.237,15.442 24.137 C 15.188 24.015,15.033 24.000,13.996 24.000 C 12.953 24.000,12.805 24.014,12.553 24.139 M24.553 24.139 C 24.073 24.376,24.000 24.622,24.000 26.000 C 24.000 27.033,24.015 27.189,24.137 27.442 C 24.237 27.648,24.352 27.763,24.558 27.863 C 24.811 27.985,24.967 28.000,26.000 28.000 C 27.033 28.000,27.189 27.985,27.442 27.863 C 27.648 27.763,27.763 27.648,27.863 27.442 C 27.985 27.189,28.000 27.033,28.000 26.000 C 28.000 24.967,27.985 24.811,27.863 24.558 C 27.763 24.352,27.648 24.237,27.442 24.137 C 27.188 24.015,27.033 24.000,25.996 24.000 C 24.953 24.000,24.805 24.014,24.553 24.139 M36.553 24.139 C 36.073 24.376,36.000 24.622,36.000 26.000 C 36.000 27.033,36.015 27.189,36.137 27.442 C 36.237 27.648,36.352 27.763,36.558 27.863 C 36.811 27.985,36.967 28.000,38.000 28.000 C 39.033 28.000,39.189 27.985,39.442 27.863 C 39.648 27.763,39.763 27.648,39.863 27.442 C 39.985 27.189,40.000 27.033,40.000 26.000 C 40.000 24.967,39.985 24.811,39.863 24.558 C 39.763 24.352,39.648 24.237,39.442 24.137 C 39.188 24.015,39.033 24.000,37.996 24.000 C 36.953 24.000,36.805 24.014,36.553 24.139 M0.553 36.139 C 0.073 36.376,0.000 36.622,0.000 38.000 C 0.000 39.033,0.015 39.189,0.137 39.442 C 0.237 39.648,0.352 39.763,0.558 39.863 C 0.811 39.985,0.967 40.000,2.000 40.000 C 3.033 40.000,3.189 39.985,3.442 39.863 C 3.648 39.763,3.763 39.648,3.863 39.442 C 3.985 39.189,4.000 39.033,4.000 38.000 C 4.000 36.967,3.985 36.811,3.863 36.558 C 3.763 36.352,3.648 36.237,3.442 36.137 C 3.188 36.015,3.033 36.000,1.996 36.000 C 0.953 36.000,0.805 36.014,0.553 36.139 M12.553 36.139 C 12.073 36.376,12.000 36.622,12.000 38.000 C 12.000 39.033,12.015 39.189,12.137 39.442 C 12.237 39.648,12.352 39.763,12.558 39.863 C 12.811 39.985,12.967 40.000,14.000 40.000 C 15.033 40.000,15.189 39.985,15.442 39.863 C 15.648 39.763,15.763 39.648,15.863 39.442 C 15.985 39.189,16.000 39.033,16.000 38.000 C 16.000 36.967,15.985 36.811,15.863 36.558 C 15.763 36.352,15.648 36.237,15.442 36.137 C 15.188 36.015,15.033 36.000,13.996 36.000 C 12.953 36.000,12.805 36.014,12.553 36.139 M24.553 36.139 C 24.073 36.376,24.000 36.622,24.000 38.000 C 24.000 39.033,24.015 39.189,24.137 39.442 C 24.237 39.648,24.352 39.763,24.558 39.863 C 24.811 39.985,24.967 40.000,26.000 40.000 C 27.033 40.000,27.189 39.985,27.442 39.863 C 27.648 39.763,27.763 39.648,27.863 39.442 C 27.985 39.189,28.000 39.033,28.000 38.000 C 28.000 36.967,27.985 36.811,27.863 36.558 C 27.763 36.352,27.648 36.237,27.442 36.137 C 27.188 36.015,27.033 36.000,25.996 36.000 C 24.953 36.000,24.805 36.014,24.553 36.139 M36.553 36.139 C 36.073 36.376,36.000 36.622,36.000 38.000 C 36.000 39.033,36.015 39.189,36.137 39.442 C 36.237 39.648,36.352 39.763,36.558 39.863 C 36.811 39.985,36.967 40.000,38.000 40.000 C 39.033 40.000,39.189 39.985,39.442 39.863 C 39.648 39.763,39.763 39.648,39.863 39.442 C 39.985 39.189,40.000 39.033,40.000 38.000 C 40.000 36.967,39.985 36.811,39.863 36.558 C 39.763 36.352,39.648 36.237,39.442 36.137 C 39.188 36.015,39.033 36.000,37.996 36.000 C 36.953 36.000,36.805 36.014,36.553 36.139 " fill="#2B2C30" stroke="none" fill-rule="evenodd"></path></svg>