<svg width="52" height="60" viewBox="0 0 52 60" fill="none" xmlns="http://www.w3.org/2000/svg"><path d="M0.499 0.136 C 0.076 0.366,-0.000 0.647,0.000 1.993 C 0.000 3.960,0.033 3.987,2.411 3.987 L 4.051 3.987 4.111 5.135 C 4.544 13.460,6.054 19.080,8.868 22.837 C 9.534 23.726,10.815 24.984,11.604 25.523 C 11.943 25.754,12.219 25.966,12.217 25.994 C 12.216 26.021,11.952 26.217,11.632 26.430 C 10.841 26.955,9.271 28.551,8.559 29.554 C 6.900 31.889,5.587 35.483,4.856 39.693 C 4.361 42.542,3.993 47.290,3.988 50.895 L 3.987 52.000 2.379 52.000 C 0.037 52.000,-0.000 52.031,-0.000 53.997 C -0.000 54.997,0.027 55.269,0.148 55.474 C 0.458 55.999,0.304 55.987,6.516 55.987 L 12.182 55.987 12.333 55.397 C 12.496 54.765,12.885 53.959,13.596 52.780 L 14.039 52.043 11.371 52.000 C 7.827 51.942,8.034 52.083,8.051 49.756 C 8.071 47.078,8.314 43.784,8.674 41.297 C 9.618 34.778,11.717 30.684,14.950 29.055 C 16.257 28.396,17.474 28.112,19.369 28.025 C 22.191 27.894,24.661 28.539,26.251 29.820 C 26.553 30.063,26.831 30.229,26.868 30.189 C 26.906 30.149,27.256 29.571,27.647 28.903 C 28.037 28.236,28.489 27.518,28.651 27.308 C 28.990 26.869,28.987 26.862,28.292 26.383 C 28.033 26.204,27.820 26.027,27.820 25.989 C 27.820 25.951,28.064 25.757,28.362 25.558 C 29.134 25.042,30.885 23.241,31.520 22.309 C 33.385 19.573,34.626 15.925,35.312 11.170 C 35.561 9.440,35.764 7.371,35.837 5.807 C 35.864 5.211,35.907 4.558,35.932 4.355 L 35.977 3.987 37.650 3.987 C 39.235 3.987,39.336 3.977,39.562 3.799 C 39.949 3.494,40.040 3.151,40.040 1.993 C 40.040 0.787,39.937 0.440,39.504 0.176 C 39.218 0.001,39.125 0.001,19.977 0.004 C 3.127 0.007,0.707 0.023,0.499 0.136 M31.284 4.098 C 31.402 4.157,31.587 4.338,31.697 4.500 C 31.919 4.830,31.919 4.778,31.668 7.670 C 31.099 14.226,29.618 18.747,27.214 21.266 C 26.430 22.088,25.755 22.583,24.780 23.050 C 22.446 24.168,18.688 24.308,16.011 23.375 C 12.239 22.060,9.895 18.178,8.799 11.427 C 8.525 9.737,8.355 8.236,8.223 6.355 C 8.106 4.675,8.149 4.435,8.616 4.150 C 8.874 3.993,9.275 3.987,19.977 3.988 C 28.677 3.989,31.116 4.013,31.284 4.098 M33.132 28.807 C 32.661 28.961,32.115 29.365,31.812 29.784 C 31.449 30.286,16.482 55.756,16.273 56.227 C 16.000 56.843,16.021 57.732,16.322 58.348 C 16.626 58.969,17.081 59.426,17.674 59.704 L 18.157 59.930 34.017 59.930 L 49.877 59.930 50.367 59.689 C 51.533 59.117,52.149 57.795,51.834 56.542 C 51.715 56.072,36.445 30.048,35.994 29.548 C 35.523 29.026,34.906 28.747,34.150 28.715 C 33.756 28.699,33.352 28.735,33.132 28.807 M35.967 41.992 L 35.967 48.017 33.995 47.993 L 32.023 47.970 32.001 41.968 L 31.979 35.967 33.973 35.967 L 35.967 35.967 35.967 41.992 M35.093 51.573 C 35.625 51.807,36.260 52.447,36.498 52.989 C 36.637 53.305,36.692 53.601,36.694 54.037 C 36.697 55.092,36.146 55.972,35.162 56.480 C 34.785 56.675,34.594 56.715,34.017 56.719 C 33.428 56.723,33.249 56.687,32.833 56.482 C 31.961 56.054,31.399 55.232,31.310 54.257 C 31.128 52.252,33.238 50.756,35.093 51.573 " fill="#2B2C30" stroke="none" fill-rule="evenodd"></path></svg>