<svg width="60" height="59" viewBox="0 0 60 59" fill="none" xmlns="http://www.w3.org/2000/svg"><path d="M26.150 0.059 C 22.961 0.374,20.596 0.881,18.236 1.753 C 15.588 2.731,12.259 4.675,10.050 6.532 C 2.080 13.232,-1.504 23.583,0.605 33.806 C 1.580 38.531,4.063 43.348,7.340 46.875 C 12.015 51.906,17.690 54.846,24.600 55.815 C 25.655 55.963,30.457 56.004,30.943 55.869 C 31.234 55.788,31.230 55.782,29.358 53.908 L 27.481 52.029 26.483 51.963 C 16.799 51.329,8.489 44.969,5.293 35.747 C 3.645 30.989,3.598 25.516,5.165 20.667 C 7.552 13.279,13.279 7.552,20.667 5.165 C 23.178 4.354,25.139 4.057,28.000 4.057 C 30.861 4.057,32.822 4.354,35.333 5.165 C 41.519 7.163,46.640 11.567,49.490 17.338 C 51.219 20.841,51.946 24.012,51.944 28.050 C 51.943 31.277,51.480 33.821,50.359 36.750 L 50.091 37.450 51.820 35.740 C 53.733 33.850,54.309 33.366,55.075 33.010 C 55.647 32.744,55.616 32.813,55.823 31.350 C 55.993 30.150,55.987 25.845,55.814 24.600 C 54.983 18.622,52.575 13.393,48.723 9.200 C 46.202 6.456,43.502 4.433,40.250 2.850 C 37.367 1.446,34.867 0.696,31.550 0.240 C 30.493 0.095,26.979 -0.023,26.150 0.059 M26.650 8.091 C 26.540 8.138,26.360 8.276,26.250 8.399 C 26.053 8.617,26.050 8.781,26.023 18.585 C 26.005 25.406,26.030 28.631,26.102 28.805 C 26.272 29.215,37.003 39.876,37.325 39.955 C 37.815 40.074,38.126 39.901,39.012 39.015 C 39.979 38.048,40.149 37.673,39.865 37.137 C 39.782 36.979,37.528 34.668,34.856 32.000 L 30.000 27.151 30.000 17.927 L 30.000 8.703 29.708 8.377 L 29.417 8.050 28.133 8.027 C 27.428 8.015,26.760 8.043,26.650 8.091 M57.150 36.251 C 56.985 36.338,53.070 40.187,48.450 44.804 L 40.049 53.200 35.600 48.750 C 33.152 46.302,31.002 44.229,30.821 44.143 C 30.308 43.900,29.954 44.079,28.972 45.083 C 28.107 45.967,27.924 46.292,28.051 46.718 C 28.158 47.076,39.383 58.279,39.760 58.403 C 39.976 58.475,40.159 58.473,40.361 58.398 C 40.695 58.274,59.630 39.406,59.865 38.963 C 60.139 38.448,59.985 38.130,58.975 37.125 C 57.965 36.120,57.668 35.978,57.150 36.251 " fill="#2B2C30" stroke="none" fill-rule="evenodd"></path></svg>