<svg width="44" height="48" viewBox="0 0 44 48" fill="none" xmlns="http://www.w3.org/2000/svg"><path d="M12.552 0.124 C 12.087 0.353,12.067 0.436,12.027 2.306 L 11.990 3.997 6.303 4.033 C -0.019 4.074,0.373 4.040,0.121 4.571 C 0.024 4.775,-0.000 5.062,-0.000 6.014 C 0.000 7.082,0.016 7.231,0.152 7.474 C 0.417 7.945,0.448 7.953,2.310 7.993 L 3.997 8.030 4.033 26.473 C 4.068 43.754,4.078 44.940,4.198 45.283 C 4.604 46.452,5.523 47.382,6.668 47.787 L 7.150 47.957 22.000 47.957 L 36.850 47.957 37.332 47.787 C 38.477 47.382,39.396 46.452,39.802 45.283 C 39.922 44.940,39.932 43.754,39.967 26.473 L 40.003 8.030 41.690 7.993 C 43.552 7.953,43.583 7.945,43.848 7.474 C 43.984 7.231,44.000 7.082,44.000 6.014 C 44.000 5.062,43.976 4.775,43.879 4.571 C 43.627 4.040,44.019 4.074,37.697 4.033 L 32.010 3.997 31.973 2.306 C 31.933 0.428,31.913 0.347,31.436 0.121 C 31.203 0.011,30.380 0.000,21.989 0.002 C 13.611 0.003,12.775 0.014,12.552 0.124 M36.007 26.033 L 36.007 44.073 22.000 44.073 L 7.993 44.073 7.993 26.033 L 7.993 7.993 22.000 7.993 L 36.007 7.993 36.007 26.033 M12.489 12.170 C 11.990 12.475,12.027 11.361,12.027 26.037 C 12.027 40.961,11.972 39.601,12.580 39.895 C 12.839 40.020,13.033 40.040,14.011 40.040 C 15.290 40.040,15.527 39.974,15.820 39.534 L 15.987 39.285 15.987 26.057 C 15.987 11.497,16.019 12.471,15.533 12.175 C 15.314 12.042,15.165 12.027,14.007 12.027 C 12.863 12.027,12.698 12.043,12.489 12.170 M20.482 12.170 C 19.983 12.475,20.020 11.361,20.020 26.039 C 20.020 39.233,20.021 39.328,20.168 39.565 C 20.434 39.996,20.670 40.052,22.094 40.026 C 23.221 40.006,23.378 39.988,23.552 39.857 C 24.015 39.510,23.980 40.632,23.980 26.022 C 23.979 12.962,23.977 12.719,23.836 12.489 C 23.583 12.073,23.398 12.027,21.985 12.027 C 20.856 12.027,20.691 12.043,20.482 12.170 M28.467 12.175 C 27.981 12.471,28.013 11.497,28.013 26.057 L 28.013 39.285 28.180 39.534 C 28.473 39.974,28.710 40.040,29.989 40.040 C 30.967 40.040,31.161 40.020,31.420 39.895 C 32.028 39.601,31.973 40.963,31.973 26.022 C 31.973 12.962,31.970 12.719,31.830 12.489 C 31.576 12.073,31.392 12.027,29.979 12.027 C 28.836 12.027,28.686 12.042,28.467 12.175 " fill="#2B2C30" stroke="none" fill-rule="evenodd"></path></svg>