<svg width="61" height="53" viewBox="0 0 61 53" fill="none" xmlns="http://www.w3.org/2000/svg"><path d="M29.827 0.135 C 29.652 0.200,29.369 0.369,29.198 0.508 C 28.996 0.674,23.887 9.200,14.586 24.894 C 6.721 38.166,0.221 49.179,0.143 49.367 C -0.259 50.330,0.240 51.477,1.244 51.896 C 1.580 52.037,4.663 52.053,30.500 52.053 C 56.337 52.053,59.420 52.037,59.756 51.896 C 60.259 51.686,60.581 51.376,60.808 50.884 C 61.059 50.341,61.046 49.765,60.770 49.190 C 60.251 48.106,32.150 0.857,31.848 0.560 C 31.328 0.048,30.514 -0.123,29.827 0.135 M42.929 26.886 C 49.738 38.372,55.335 47.842,55.369 47.929 C 55.424 48.073,53.087 48.088,30.500 48.088 C 7.584 48.088,5.575 48.075,5.633 47.924 C 5.735 47.658,30.444 6.002,30.500 6.002 C 30.528 6.002,36.121 15.400,42.929 26.886 " fill="#2B2C30" stroke="none" fill-rule="evenodd"></path></svg>