<svg width="56" height="56" viewBox="0 0 56 56" fill="none" xmlns="http://www.w3.org/2000/svg"><path d="M36.027 9.713 L 36.027 19.428 36.299 19.701 L 36.572 19.973 37.987 19.973 L 39.401 19.973 39.674 19.701 L 39.947 19.428 39.947 13.354 C 39.947 10.013,39.980 7.280,40.021 7.280 C 40.156 7.280,41.413 8.091,42.296 8.748 C 45.325 11.002,47.684 13.825,49.557 17.434 C 49.859 18.016,50.057 18.276,50.355 18.481 C 51.688 19.398,53.376 18.677,53.552 17.115 C 53.586 16.807,53.529 16.577,53.282 16.038 C 51.301 11.707,47.665 7.498,43.506 4.721 L 42.446 4.013 48.807 4.013 C 55.807 4.013,55.560 4.033,55.865 3.443 C 55.985 3.211,56.008 2.906,55.984 1.860 C 55.954 0.586,55.949 0.559,55.695 0.305 L 55.436 0.047 45.731 0.022 L 36.027 -0.003 36.027 9.713 M16.328 2.554 C 14.835 3.087,11.293 5.352,9.669 6.812 C 8.263 8.075,9.079 10.212,10.967 10.212 C 11.650 10.212,11.977 10.052,13.067 9.187 C 14.176 8.307,15.540 7.422,16.800 6.766 C 17.390 6.458,18.028 6.052,18.218 5.862 C 19.186 4.894,18.920 3.220,17.709 2.656 C 17.165 2.403,16.821 2.377,16.328 2.554 M2.508 17.435 C 2.094 17.651,1.964 17.783,1.753 18.205 C 1.017 19.675,0.086 23.934,0.058 25.961 C 0.047 26.718,0.065 26.795,0.327 27.168 C 1.014 28.145,2.433 28.284,3.297 27.458 C 3.800 26.977,3.916 26.677,4.065 25.467 C 4.260 23.883,4.598 22.258,5.008 20.941 C 5.198 20.332,5.371 19.651,5.393 19.429 C 5.479 18.567,5.024 17.736,4.264 17.368 C 3.695 17.093,3.121 17.114,2.508 17.435 M53.594 28.108 C 53.186 28.179,52.719 28.454,52.433 28.791 C 52.109 29.174,51.979 29.604,51.847 30.736 C 51.668 32.269,51.310 33.932,50.851 35.369 C 50.555 36.295,50.487 36.631,50.527 36.977 C 50.629 37.873,51.244 38.618,52.051 38.821 C 53.038 39.070,53.940 38.557,54.329 37.525 C 55.169 35.299,55.833 32.096,55.851 30.180 C 55.860 29.256,55.853 29.223,55.575 28.879 C 55.418 28.684,55.187 28.449,55.061 28.357 C 54.760 28.134,54.090 28.020,53.594 28.108 M3.499 37.321 C 2.757 37.658,2.242 38.546,2.376 39.258 C 2.574 40.313,4.523 43.594,6.166 45.637 C 6.964 46.629,7.153 46.787,7.722 46.940 C 8.712 47.207,9.849 46.490,10.070 45.461 C 10.143 45.119,10.144 44.853,10.075 44.540 C 9.960 44.025,9.917 43.956,9.028 42.817 C 8.151 41.693,7.331 40.419,6.666 39.147 C 6.372 38.586,6.002 37.985,5.843 37.812 C 5.257 37.175,4.274 36.969,3.499 37.321 M44.100 46.005 C 43.895 46.100,43.349 46.482,42.887 46.853 C 41.749 47.767,40.452 48.611,39.132 49.297 C 37.906 49.934,37.486 50.271,37.231 50.820 C 37.022 51.269,37.003 52.032,37.188 52.465 C 37.482 53.155,38.242 53.661,38.988 53.665 C 39.990 53.670,44.393 50.987,46.318 49.198 C 47.369 48.222,47.172 46.701,45.912 46.074 C 45.314 45.776,44.646 45.750,44.100 46.005 M18.223 50.783 C 16.961 51.408,16.700 53.028,17.709 53.975 C 18.605 54.816,25.254 56.269,26.577 55.913 C 27.853 55.569,28.344 53.965,27.525 52.815 C 27.146 52.283,26.660 52.098,25.100 51.890 C 23.410 51.665,22.105 51.381,20.642 50.920 C 19.404 50.530,18.804 50.496,18.223 50.783 " fill="#2B2C30" stroke="none" fill-rule="evenodd"></path></svg>