<svg width="56" height="56" viewBox="0 0 56 56" fill="none" xmlns="http://www.w3.org/2000/svg"><path d="M25.947 0.064 C 23.466 0.248,20.417 0.903,18.377 1.689 C 17.179 2.151,17.101 2.462,17.782 4.060 C 18.510 5.768,18.611 5.810,20.500 5.196 C 22.415 4.574,24.317 4.201,26.320 4.054 C 27.895 3.939,28.028 3.763,27.984 1.850 L 27.953 0.544 27.649 0.272 C 27.329 -0.013,27.198 -0.029,25.947 0.064 M38.372 2.590 C 38.196 2.757,37.949 3.236,37.664 3.959 C 37.036 5.561,37.100 5.715,38.747 6.540 C 40.648 7.493,42.153 8.505,43.882 9.994 C 44.466 10.496,44.564 10.547,44.955 10.547 C 45.375 10.547,45.411 10.522,46.309 9.640 C 47.573 8.398,47.643 8.075,46.819 7.286 C 45.210 5.745,42.621 3.980,40.299 2.841 C 39.102 2.253,38.773 2.210,38.372 2.590 M7.833 8.690 C 7.577 8.784,6.568 9.911,5.619 11.163 C 4.210 13.021,2.333 16.371,2.333 17.027 C 2.333 17.540,2.608 17.768,3.802 18.246 C 5.439 18.901,5.749 18.839,6.262 17.758 C 7.117 15.957,8.279 14.157,9.654 12.505 C 10.461 11.535,10.546 11.397,10.546 11.051 C 10.547 10.581,10.271 10.177,9.385 9.351 C 8.581 8.600,8.347 8.501,7.833 8.690 M51.858 17.814 C 50.787 18.279,50.400 18.597,50.400 19.010 C 50.400 19.141,50.585 19.823,50.810 20.524 C 51.432 22.455,51.801 24.337,51.946 26.320 C 52.058 27.854,52.235 28.000,53.993 28.000 C 55.897 28.000,56.048 27.832,55.898 25.890 C 55.715 23.517,55.288 21.389,54.537 19.113 C 53.884 17.136,53.664 17.030,51.858 17.814 M0.317 28.317 C -0.042 28.676,-0.041 28.670,0.093 30.240 C 0.669 36.986,3.488 43.077,8.212 47.787 C 12.689 52.249,18.070 54.882,24.547 55.779 C 26.156 56.002,29.826 56.003,31.453 55.780 C 39.726 54.649,46.694 50.347,51.248 43.559 L 51.987 42.458 51.987 48.814 C 51.987 55.806,51.967 55.560,52.557 55.865 C 52.789 55.985,53.094 56.008,54.140 55.984 C 55.414 55.954,55.441 55.949,55.695 55.695 L 55.953 55.436 55.978 45.731 L 56.003 36.027 46.302 36.027 L 36.601 36.027 36.314 36.314 L 36.027 36.601 36.027 38.001 L 36.027 39.401 36.299 39.674 L 36.572 39.947 42.646 39.947 C 47.241 39.947,48.720 39.973,48.720 40.056 C 48.720 40.256,47.159 42.497,46.357 43.447 C 42.572 47.936,37.416 50.816,31.481 51.757 C 30.184 51.962,27.262 52.037,25.798 51.902 C 21.097 51.468,16.637 49.651,12.880 46.638 C 11.602 45.614,9.849 43.792,8.805 42.405 C 6.041 38.732,4.355 34.236,4.051 29.727 C 3.942 28.123,3.789 28.000,1.909 28.000 L 0.635 28.000 0.317 28.317 " fill="#2B2C30" stroke="none" fill-rule="evenodd"></path></svg>