<svg width="56" height="56" viewBox="0 0 56 56" fill="none" xmlns="http://www.w3.org/2000/svg"><path d="M25.760 0.101 C 19.206 0.602,12.923 3.509,8.211 8.221 C 3.899 12.533,1.217 17.887,0.266 24.080 C -0.030 26.011,-0.036 29.962,0.255 31.828 C 1.452 39.508,5.165 45.810,11.183 50.377 C 14.901 53.197,19.185 54.968,24.172 55.745 C 25.228 55.910,25.852 55.942,28.000 55.942 C 30.148 55.942,30.772 55.910,31.828 55.745 C 38.632 54.685,44.416 51.617,48.757 46.767 C 52.604 42.467,54.830 37.710,55.745 31.828 C 56.038 29.946,56.032 26.000,55.734 24.080 C 54.830 18.263,52.516 13.370,48.650 9.100 C 47.189 7.486,45.190 5.788,43.307 4.562 L 42.536 4.060 48.986 4.013 L 55.436 3.967 55.695 3.708 L 55.953 3.449 55.953 2.007 L 55.953 0.564 55.695 0.305 L 55.436 0.047 45.731 0.022 L 36.027 -0.003 36.027 9.713 L 36.027 19.428 36.299 19.701 L 36.572 19.973 37.959 19.973 C 39.089 19.973,39.385 19.945,39.562 19.821 C 40.040 19.487,40.040 19.485,40.040 13.163 C 40.040 9.927,40.072 7.280,40.110 7.281 C 40.149 7.281,40.691 7.628,41.316 8.051 C 46.155 11.327,49.600 16.080,51.110 21.560 C 52.372 26.143,52.247 31.131,50.758 35.601 C 48.748 41.637,44.314 46.711,38.605 49.509 C 36.846 50.370,35.730 50.784,33.933 51.239 C 31.649 51.817,30.622 51.938,28.000 51.938 C 25.378 51.938,24.351 51.817,22.067 51.239 C 20.270 50.784,19.154 50.370,17.395 49.509 C 14.467 48.073,11.736 45.943,9.685 43.493 C 6.147 39.267,4.257 34.356,4.046 28.840 C 3.831 23.236,5.541 17.906,9.024 13.322 C 9.949 12.104,12.094 9.956,13.300 9.041 C 17.128 6.135,21.270 4.518,25.947 4.105 C 27.387 3.978,27.464 3.959,27.734 3.672 C 27.938 3.455,27.955 3.352,27.983 2.163 C 28.001 1.422,27.972 0.779,27.916 0.630 C 27.799 0.323,27.298 -0.004,26.973 0.014 C 26.845 0.021,26.299 0.060,25.760 0.101 " fill="#2B2C30" stroke="none" fill-rule="evenodd"></path></svg>