<svg width="40" height="48" viewBox="0 0 40 48" fill="none" xmlns="http://www.w3.org/2000/svg"><path d="M22.633 0.093 C 22.396 0.197,12.326 9.247,12.153 9.512 C 11.985 9.768,11.995 10.271,12.172 10.512 C 12.392 10.810,22.408 19.781,22.659 19.904 C 23.073 20.107,23.566 19.949,23.896 19.508 C 24.030 19.328,24.034 19.242,24.052 15.662 L 24.070 12.000 30.035 12.000 L 36.000 12.000 36.000 28.000 L 36.000 44.000 20.000 44.000 L 4.000 44.000 4.000 28.000 L 4.000 12.000 5.579 12.000 C 7.022 12.000,7.182 11.988,7.433 11.867 C 7.611 11.780,7.762 11.639,7.858 11.467 C 8.001 11.213,8.007 11.144,7.987 9.917 C 7.968 8.714,7.957 8.620,7.818 8.425 C 7.530 8.021,7.409 8.000,5.384 8.000 C 3.780 8.000,3.491 8.016,3.040 8.132 C 2.291 8.323,1.776 8.621,1.192 9.198 C 0.616 9.768,0.329 10.268,0.129 11.051 C 0.003 11.542,-0.000 11.966,-0.000 28.000 C -0.000 44.159,0.002 44.454,0.132 44.960 C 0.326 45.718,0.619 46.225,1.202 46.807 C 1.568 47.173,1.848 47.382,2.205 47.558 C 3.163 48.029,1.879 47.998,20.000 47.998 C 38.127 47.998,36.837 48.030,37.799 47.556 C 38.162 47.378,38.433 47.174,38.799 46.806 C 39.378 46.223,39.678 45.705,39.868 44.960 C 39.998 44.454,40.000 44.159,40.000 28.000 C 40.000 11.841,39.998 11.546,39.868 11.040 C 39.676 10.287,39.380 9.775,38.802 9.198 C 38.225 8.620,37.713 8.324,36.960 8.132 C 36.466 8.005,36.202 8.000,30.264 8.000 L 24.083 8.000 24.033 4.331 C 23.985 0.739,23.981 0.658,23.842 0.455 C 23.569 0.055,23.064 -0.096,22.633 0.093 " fill="#2B2C30" stroke="none" fill-rule="evenodd"></path></svg>