<svg width="52" height="48" viewBox="0 0 52 48" fill="none" xmlns="http://www.w3.org/2000/svg"><path d="M10.877 0.051 C 9.082 0.308,8.165 0.565,6.855 1.179 C 5.711 1.716,4.712 2.406,3.755 3.321 C 1.951 5.046,0.808 7.077,0.236 9.577 C 0.071 10.297,0.054 10.697,0.022 14.777 C -0.018 19.700,-0.028 19.604,0.566 19.885 C 0.951 20.068,2.991 20.076,3.420 19.897 C 3.976 19.664,3.970 19.720,4.009 15.032 C 4.042 11.024,4.055 10.750,4.232 10.069 C 4.898 7.514,6.778 5.412,9.204 4.510 C 11.446 3.676,14.047 3.922,16.140 5.167 C 17.087 5.731,18.276 6.919,18.840 7.867 C 19.370 8.759,19.807 10.038,19.927 11.050 C 19.980 11.498,20.020 13.573,20.020 15.925 L 20.020 20.020 17.814 20.020 C 15.346 20.020,14.960 20.072,14.103 20.518 C 13.015 21.084,12.241 22.191,12.045 23.459 C 11.984 23.855,11.962 27.473,11.979 34.407 L 12.003 44.763 12.199 45.276 C 12.618 46.377,13.299 47.135,14.300 47.614 L 14.863 47.883 32.023 47.883 L 49.183 47.883 49.703 47.630 C 50.784 47.102,51.664 45.977,51.910 44.807 C 51.984 44.457,52.003 41.512,51.984 33.713 L 51.957 23.097 51.755 22.597 C 51.343 21.577,50.442 20.677,49.421 20.264 L 48.923 20.063 36.471 20.040 L 24.018 20.017 23.983 15.187 C 23.944 9.857,23.956 9.983,23.347 8.151 C 22.015 4.139,18.580 1.120,14.360 0.253 C 13.514 0.079,11.497 -0.038,10.877 0.051 M48.013 34.017 L 48.013 44.027 32.023 44.027 L 16.033 44.027 16.033 34.017 L 16.033 24.007 32.023 24.007 L 48.013 24.007 48.013 34.017 " fill="#2B2C30" stroke="none" fill-rule="evenodd"></path></svg>