<svg width="48" height="48" viewBox="0 0 48 48" fill="none" xmlns="http://www.w3.org/2000/svg"><path d="M21.960 0.086 C 16.168 0.635,11.045 3.030,6.999 7.078 C 5.084 8.994,3.671 10.970,2.477 13.400 C 1.105 16.194,0.353 18.859,0.070 21.928 C -0.040 23.127,0.001 23.414,0.326 23.726 L 0.570 23.960 1.905 23.983 C 3.121 24.003,3.263 23.991,3.496 23.846 C 3.873 23.612,3.971 23.345,4.073 22.280 C 4.320 19.691,4.864 17.686,5.924 15.458 C 8.261 10.544,12.440 6.811,17.536 5.084 C 19.774 4.326,21.511 4.047,24.000 4.047 C 25.861 4.047,26.761 4.138,28.360 4.487 C 31.656 5.208,35.017 6.957,37.506 9.245 L 38.092 9.784 35.686 12.195 L 33.280 14.606 33.280 14.984 C 33.280 15.303,33.323 15.409,33.554 15.661 L 33.828 15.960 39.940 15.981 L 46.052 16.003 46.326 15.819 C 46.815 15.489,46.806 15.621,46.782 9.073 L 46.760 3.130 46.527 2.887 C 46.217 2.563,45.840 2.441,45.500 2.553 C 45.325 2.611,44.535 3.344,43.087 4.793 L 40.934 6.948 40.127 6.226 C 36.389 2.885,31.916 0.830,27.000 0.193 C 25.880 0.048,23.003 -0.013,21.960 0.086 M29.880 17.452 C 29.792 17.499,27.947 19.307,25.780 21.469 L 21.840 25.399 20.060 23.630 C 19.081 22.658,18.191 21.803,18.082 21.731 C 17.839 21.570,17.424 21.562,17.136 21.713 C 17.017 21.775,16.533 22.220,16.060 22.701 L 15.200 23.576 15.200 24.005 L 15.200 24.434 18.260 27.493 C 20.302 29.534,21.393 30.569,21.541 30.604 C 22.176 30.758,21.986 30.924,27.495 25.415 C 32.032 20.878,32.636 20.245,32.683 19.981 C 32.713 19.816,32.713 19.583,32.683 19.463 C 32.622 19.220,31.125 17.651,30.784 17.473 C 30.529 17.340,30.105 17.330,29.880 17.452 M44.586 24.117 C 44.168 24.299,44.065 24.548,43.951 25.665 C 43.661 28.483,43.088 30.513,41.914 32.874 C 40.573 35.574,38.756 37.818,36.384 39.704 C 35.259 40.598,34.290 41.204,32.840 41.921 C 30.906 42.877,28.995 43.476,26.800 43.815 C 25.510 44.014,22.490 44.014,21.200 43.815 C 17.070 43.177,13.358 41.406,10.386 38.654 L 9.909 38.212 12.294 35.826 L 14.680 33.439 14.680 33.001 C 14.680 32.613,14.650 32.533,14.418 32.302 L 14.157 32.040 8.218 32.017 C 4.952 32.004,2.157 32.016,2.006 32.043 C 1.851 32.071,1.635 32.197,1.506 32.335 L 1.280 32.577 1.280 38.722 L 1.280 44.868 1.485 45.112 C 1.733 45.406,2.139 45.535,2.500 45.435 C 2.688 45.383,3.359 44.763,4.914 43.207 L 7.067 41.052 7.834 41.736 C 11.655 45.150,15.900 47.102,21.040 47.811 C 22.430 48.003,25.573 48.002,26.960 47.810 C 28.802 47.556,30.341 47.197,31.855 46.671 C 36.402 45.089,40.280 42.260,43.192 38.400 C 45.987 34.695,47.661 30.169,47.956 25.520 C 48.011 24.653,47.952 24.469,47.527 24.182 C 47.274 24.012,47.176 24.000,46.048 24.003 C 45.203 24.005,44.764 24.039,44.586 24.117 " fill="#2B2C30" stroke="none" fill-rule="evenodd"></path></svg>