<svg width="52" height="52" viewBox="0 0 52 52" fill="none" xmlns="http://www.w3.org/2000/svg"><path d="M25.523 0.160 C 25.218 0.347,14.418 10.128,14.186 10.426 C 13.877 10.826,14.024 11.551,14.469 11.813 C 14.693 11.946,15.156 11.960,19.361 11.960 L 24.005 11.960 24.027 23.710 L 24.050 35.461 24.333 35.714 L 24.616 35.967 26.000 35.967 L 27.384 35.967 27.667 35.714 L 27.950 35.461 27.973 23.710 L 27.995 11.960 32.639 11.960 C 36.844 11.960,37.307 11.946,37.531 11.813 C 37.976 11.551,38.123 10.825,37.814 10.427 C 37.581 10.127,26.780 0.346,26.477 0.160 C 26.147 -0.042,25.853 -0.042,25.523 0.160 M3.073 28.114 C 2.340 28.293,1.803 28.606,1.207 29.201 C 0.595 29.812,0.259 30.412,0.097 31.183 C -0.032 31.793,-0.039 48.042,0.088 48.716 C 0.302 49.840,1.102 50.952,2.069 51.467 C 3.135 52.035,1.434 51.997,26.000 51.997 C 50.261 51.997,48.843 52.025,49.823 51.529 C 50.845 51.011,51.702 49.858,51.913 48.717 C 52.039 48.037,52.030 31.785,51.903 31.183 C 51.742 30.413,51.405 29.812,50.793 29.200 C 50.160 28.567,49.558 28.238,48.750 28.084 C 48.378 28.013,46.011 27.992,40.410 28.011 L 32.590 28.037 32.307 28.320 L 32.023 28.603 32.023 29.932 C 32.023 31.415,32.081 31.625,32.547 31.846 C 32.795 31.964,33.754 31.980,40.421 31.980 L 48.013 31.980 48.013 39.997 L 48.013 48.013 26.000 48.013 L 3.987 48.013 3.987 39.998 L 3.987 31.983 11.698 31.960 L 19.410 31.937 19.693 31.653 L 19.977 31.370 19.977 29.987 L 19.977 28.603 19.693 28.320 L 19.410 28.037 11.460 28.022 C 5.411 28.010,3.406 28.032,3.073 28.114 " fill="#2B2C30" stroke="none" fill-rule="evenodd"></path></svg>