<svg width="48" height="52" viewBox="0 0 48 52" fill="none" xmlns="http://www.w3.org/2000/svg"><path d="M22.400 0.115 C 20.966 0.323,19.866 0.664,18.640 1.280 C 15.316 2.951,13.054 5.903,12.222 9.659 C 11.971 10.791,11.971 13.209,12.222 14.341 C 13.303 19.217,16.786 22.701,21.653 23.774 C 22.794 24.026,25.206 24.026,26.347 23.774 C 31.211 22.702,34.702 19.211,35.774 14.347 C 36.026 13.206,36.026 10.794,35.774 9.653 C 34.682 4.701,30.949 1.058,26.081 0.193 C 25.105 0.020,23.319 -0.018,22.400 0.115 M25.917 4.240 C 27.242 4.564,28.658 5.367,29.646 6.354 C 30.641 7.350,31.432 8.751,31.773 10.125 C 32.026 11.143,32.026 12.857,31.773 13.875 C 31.062 16.738,28.868 18.971,26.010 19.742 C 24.887 20.045,23.113 20.045,21.990 19.742 C 20.108 19.234,18.481 18.092,17.425 16.537 C 16.942 15.827,16.427 14.683,16.227 13.875 C 15.974 12.857,15.974 11.143,16.227 10.125 C 16.429 9.308,16.941 8.177,17.444 7.430 C 18.607 5.706,20.674 4.429,22.865 4.081 C 23.567 3.969,25.143 4.051,25.917 4.240 M13.140 28.088 C 12.565 28.185,11.872 28.478,11.301 28.866 C 10.801 29.205,1.460 38.822,0.854 39.620 C 0.679 39.851,0.425 40.274,0.288 40.560 L 0.040 41.080 0.017 46.139 C -0.008 51.735,-0.026 51.520,0.504 51.843 C 0.756 51.997,1.091 51.999,24.000 51.999 C 46.909 51.999,47.244 51.997,47.496 51.843 C 48.017 51.526,48.000 51.713,48.000 46.332 C 48.000 41.695,47.992 41.432,47.841 40.943 C 47.605 40.177,47.171 39.576,45.911 38.264 C 36.542 28.517,36.733 28.700,35.480 28.263 L 34.840 28.040 24.200 28.028 C 18.332 28.022,13.372 28.049,13.140 28.088 M34.279 32.051 C 34.451 32.117,43.655 41.645,43.850 41.960 C 43.989 42.183,43.999 42.410,44.000 45.100 L 44.000 48.000 24.000 48.000 L 4.000 48.000 4.000 45.125 C 4.000 43.544,4.032 42.166,4.071 42.063 C 4.143 41.873,13.276 32.364,13.613 32.128 C 13.778 32.012,14.776 32.000,23.971 32.000 C 29.568 32.000,34.206 32.023,34.279 32.051 " fill="#2B2C30" stroke="none" fill-rule="evenodd"></path></svg>