<svg width="57" height="57" viewBox="0 0 57 57" fill="none" xmlns="http://www.w3.org/2000/svg"><path d="M26.600 0.060 C 18.234 0.684,10.724 4.757,5.720 11.385 C 2.833 15.208,1.052 19.520,0.259 24.604 C -0.031 26.466,-0.031 30.534,0.259 32.396 C 1.478 40.216,5.255 46.627,11.383 51.276 C 15.167 54.147,19.528 55.950,24.604 56.741 C 26.466 57.031,30.534 57.031,32.396 56.741 C 39.322 55.661,45.209 52.539,49.627 47.602 C 53.544 43.226,55.807 38.388,56.741 32.396 C 57.031 30.534,57.031 26.466,56.741 24.604 C 55.950 19.528,54.147 15.167,51.276 11.383 C 46.564 5.172,39.828 1.264,32.063 0.236 C 30.950 0.089,27.644 -0.018,26.600 0.060 M32.015 4.323 C 34.657 4.730,36.889 5.424,39.188 6.552 C 41.843 7.855,43.632 9.137,45.748 11.252 C 47.862 13.366,49.142 15.153,50.450 17.813 C 51.605 20.163,52.343 22.610,52.743 25.413 C 52.903 26.537,52.903 30.463,52.743 31.588 C 52.343 34.390,51.605 36.837,50.450 39.188 C 49.142 41.847,47.862 43.634,45.748 45.748 C 43.608 47.887,41.727 49.231,39.093 50.500 C 36.817 51.596,34.542 52.302,32.015 52.696 C 30.467 52.938,26.533 52.938,24.985 52.696 C 22.459 52.302,20.144 51.585,17.907 50.503 C 15.264 49.223,13.388 47.884,11.252 45.748 C 9.138 43.634,7.858 41.847,6.550 39.188 C 5.395 36.837,4.657 34.390,4.257 31.588 C 4.097 30.463,4.097 26.537,4.257 25.413 C 4.657 22.610,5.395 20.163,6.550 17.813 C 7.858 15.153,9.138 13.366,11.252 11.252 C 13.366 9.138,15.153 7.858,17.813 6.550 C 20.532 5.214,23.158 4.490,26.553 4.143 C 27.408 4.055,31.058 4.176,32.015 4.323 M27.014 14.438 C 24.822 15.013,23.142 16.762,22.648 18.983 C 22.425 19.983,22.500 21.381,22.826 22.307 C 23.880 25.306,27.226 27.050,30.220 26.161 C 34.180 24.985,35.889 20.353,33.615 16.954 C 32.178 14.805,29.503 13.786,27.014 14.438 M22.848 28.511 C 22.639 28.561,22.318 28.706,22.135 28.832 C 21.647 29.171,16.775 34.199,16.591 34.553 C 16.458 34.812,16.435 35.227,16.435 37.433 L 16.435 40.010 16.713 40.287 L 16.990 40.565 28.574 40.565 L 40.157 40.565 40.405 40.336 C 40.541 40.209,40.678 40.003,40.710 39.877 C 40.741 39.752,40.754 38.562,40.737 37.233 C 40.709 34.963,40.695 34.795,40.501 34.438 C 40.247 33.970,35.135 28.874,34.675 28.629 C 34.363 28.463,34.003 28.452,28.785 28.436 C 25.508 28.427,23.072 28.457,22.848 28.511 " fill="#2B2C30" stroke="none" fill-rule="evenodd"></path></svg>