<svg width="56" height="40" viewBox="0 0 56 40" fill="none" xmlns="http://www.w3.org/2000/svg"><path d="M18.548 0.141 C 15.381 0.743,12.831 3.239,12.188 6.366 C 12.006 7.249,11.999 8.798,12.172 9.616 C 12.819 12.665,15.154 15.063,18.180 15.786 C 19.282 16.049,21.268 15.998,22.260 15.681 C 24.448 14.983,26.198 13.499,27.164 11.522 C 27.765 10.293,27.937 9.503,27.935 7.980 C 27.934 6.837,27.903 6.571,27.686 5.852 C 26.844 3.061,24.903 1.123,22.148 0.323 C 21.098 0.019,19.595 -0.057,18.548 0.141 M21.218 4.202 C 22.403 4.568,23.445 5.624,23.812 6.830 C 24.520 9.162,23.013 11.564,20.591 11.965 C 18.004 12.394,15.601 9.980,16.049 7.403 C 16.193 6.577,16.524 5.899,17.082 5.289 C 17.558 4.768,18.389 4.262,19.004 4.117 C 19.646 3.967,20.570 4.002,21.218 4.202 M40.693 8.172 C 38.567 8.628,36.766 10.393,36.211 12.564 C 35.403 15.722,37.327 18.985,40.469 19.789 C 41.883 20.151,43.637 19.955,44.793 19.308 C 48.383 17.298,49.066 12.674,46.199 9.791 C 44.754 8.338,42.713 7.738,40.693 8.172 M43.134 12.370 C 44.116 13.060,44.270 14.493,43.459 15.386 C 42.580 16.353,40.854 16.135,40.249 14.980 C 39.729 13.990,40.115 12.727,41.086 12.234 C 41.684 11.930,42.594 11.990,43.134 12.370 M10.665 20.211 C 10.060 20.373,9.365 20.720,8.958 21.063 C 8.672 21.304,1.143 31.255,0.632 32.068 C 0.506 32.269,0.312 32.676,0.201 32.974 C 0.011 33.484,-0.000 33.672,-0.000 36.443 L 0.000 39.372 0.242 39.660 L 0.483 39.947 19.986 39.947 L 39.488 39.947 39.711 39.724 C 39.834 39.601,39.961 39.359,39.994 39.185 C 40.026 39.011,40.040 37.628,40.023 36.112 L 39.993 33.356 39.632 32.625 C 39.166 31.683,31.346 21.240,30.875 20.930 C 30.389 20.611,29.778 20.332,29.260 20.194 C 28.555 20.005,11.370 20.021,10.665 20.211 M31.195 27.837 C 32.762 29.903,34.491 32.179,35.036 32.894 L 36.027 34.195 36.027 35.111 L 36.027 36.027 20.020 36.027 L 4.013 36.027 4.013 35.088 L 4.013 34.149 7.529 29.511 C 9.462 26.960,11.187 24.695,11.361 24.477 L 11.679 24.080 20.013 24.080 L 28.346 24.080 31.195 27.837 M38.566 24.383 C 38.692 24.550,39.353 25.431,40.034 26.342 L 41.274 27.997 43.526 28.022 L 45.778 28.047 48.880 31.687 C 51.743 35.047,51.982 35.354,51.984 35.677 L 51.987 36.027 48.020 36.027 L 44.053 36.027 44.053 37.987 L 44.053 39.947 49.884 39.947 L 55.715 39.947 55.858 39.671 C 55.974 39.446,56.000 38.966,56.000 37.009 C 56.000 34.421,55.944 34.056,55.425 33.293 C 55.050 32.742,48.588 25.174,48.204 24.837 C 48.007 24.664,47.633 24.423,47.373 24.302 L 46.900 24.082 42.619 24.081 L 38.338 24.080 38.566 24.383 " fill="#2B2C30" stroke="none" fill-rule="evenodd"></path></svg>