<svg width="52" height="56" viewBox="0 0 52 56" fill="none" xmlns="http://www.w3.org/2000/svg"><path d="M22.548 0.090 C 17.938 0.671,14.085 3.835,12.615 8.247 C 12.187 9.535,12.021 10.576,12.020 12.003 C 12.013 17.458,15.705 22.234,20.988 23.607 C 27.088 25.192,33.404 21.745,35.392 15.747 C 35.838 14.402,35.924 13.783,35.921 11.917 C 35.919 10.027,35.809 9.348,35.267 7.872 C 33.827 3.949,30.360 1.008,26.244 0.217 C 25.366 0.048,23.413 -0.019,22.548 0.090 M25.003 4.077 C 25.939 4.210,26.587 4.396,27.335 4.746 C 29.518 5.767,31.108 7.665,31.745 10.010 C 32.000 10.950,32.013 12.996,31.770 13.909 C 31.412 15.251,30.751 16.450,29.820 17.441 C 28.710 18.623,27.403 19.394,25.859 19.775 C 24.783 20.040,23.228 20.040,22.149 19.773 C 19.301 19.071,17.100 16.932,16.273 14.065 C 16.106 13.484,16.079 13.191,16.083 11.960 C 16.086 10.658,16.107 10.462,16.320 9.768 C 16.627 8.770,17.032 7.981,17.671 7.132 C 19.350 4.904,22.272 3.687,25.003 4.077 M13.260 28.053 C 12.360 28.204,11.339 28.736,10.601 29.439 C 10.309 29.716,8.440 31.640,6.447 33.713 C 4.454 35.787,2.392 37.932,1.864 38.481 C 1.336 39.030,0.763 39.712,0.591 39.998 C -0.007 40.987,-0.000 40.911,-0.000 46.304 C -0.000 50.538,0.017 51.187,0.137 51.439 C 0.421 52.037,-0.350 52.000,11.908 52.000 C 17.990 52.000,22.967 51.978,22.967 51.951 C 22.967 51.923,22.796 51.619,22.587 51.275 C 22.100 50.473,21.585 49.439,21.276 48.642 L 21.033 48.013 12.510 48.013 L 3.987 48.013 3.990 45.088 C 3.992 42.957,4.021 42.113,4.098 41.980 C 4.212 41.781,12.826 32.841,13.420 32.305 L 13.780 31.980 18.399 31.980 L 23.018 31.980 23.574 31.222 C 23.879 30.805,24.685 29.908,25.363 29.228 L 26.596 27.993 20.037 28.005 C 16.429 28.012,13.379 28.033,13.260 28.053 M36.487 28.089 C 32.612 28.528,29.143 30.502,26.829 33.583 C 24.687 36.437,23.720 39.963,24.102 43.525 C 24.608 48.230,27.503 52.367,31.791 54.514 C 38.017 57.631,45.677 55.601,49.595 49.797 C 50.688 48.179,51.551 45.973,51.837 44.070 C 51.987 43.065,51.987 40.909,51.836 39.910 C 51.394 36.987,49.997 34.232,47.883 32.112 C 44.905 29.126,40.638 27.619,36.487 28.089 M40.208 32.241 C 41.638 32.581,43.267 33.355,44.195 34.136 L 44.494 34.387 43.973 34.650 C 43.213 35.033,41.846 35.491,40.766 35.722 C 39.940 35.898,39.592 35.923,37.960 35.920 C 36.371 35.917,35.967 35.888,35.217 35.725 C 34.188 35.501,32.773 35.023,32.032 34.649 L 31.508 34.385 31.852 34.096 C 32.966 33.161,34.895 32.343,36.631 32.069 C 37.480 31.936,39.286 32.022,40.208 32.241 M29.966 38.079 C 32.424 39.309,34.657 39.856,37.527 39.928 C 40.717 40.009,43.328 39.433,46.137 38.029 C 46.607 37.795,47.002 37.615,47.014 37.630 C 47.111 37.747,47.552 39.013,47.732 39.687 C 47.927 40.421,47.953 40.686,47.953 41.990 C 47.953 43.294,47.927 43.559,47.732 44.293 C 47.552 44.967,47.111 46.233,47.014 46.350 C 47.002 46.365,46.588 46.175,46.094 45.927 C 43.653 44.700,41.360 44.129,38.561 44.050 C 35.428 43.962,32.847 44.502,30.164 45.808 C 29.528 46.117,28.996 46.358,28.981 46.343 C 28.870 46.233,28.327 44.623,28.199 44.027 C 27.981 43.008,27.981 40.970,28.200 39.953 C 28.342 39.294,28.918 37.613,29.003 37.613 C 29.021 37.613,29.455 37.823,29.966 38.079 M40.834 48.266 C 41.813 48.478,43.240 48.960,43.956 49.321 C 44.233 49.461,44.460 49.590,44.460 49.608 C 44.460 49.625,44.255 49.792,44.005 49.980 C 41.159 52.108,37.379 52.581,34.141 51.214 C 33.369 50.888,32.325 50.281,31.852 49.884 L 31.508 49.595 32.032 49.331 C 33.082 48.801,34.962 48.247,36.313 48.070 C 36.480 48.048,37.377 48.043,38.307 48.058 C 39.615 48.079,40.186 48.126,40.834 48.266 " fill="#2B2C30" stroke="none" fill-rule="evenodd"></path></svg>