<svg width="57" height="57" viewBox="0 0 57 57" fill="none" xmlns="http://www.w3.org/2000/svg"><path d="M26.172 0.102 C 14.936 1.066,5.338 8.469,1.628 19.035 C 0.577 22.025,0.120 24.537,0.033 27.788 C -0.201 36.580,3.641 44.971,10.446 50.529 C 16.876 55.779,24.965 57.945,33.155 56.610 C 44.774 54.715,54.113 45.686,56.429 34.105 C 56.866 31.921,56.953 30.948,56.944 28.358 C 56.935 25.806,56.783 24.394,56.281 22.208 C 54.354 13.805,48.891 6.853,41.230 3.051 C 37.933 1.415,35.649 0.715,32.046 0.235 C 30.665 0.051,27.580 -0.019,26.172 0.102 M29.117 4.821 C 28.288 5.785,27.526 6.948,27.022 8.019 C 26.415 9.305,26.273 9.920,26.276 11.258 C 26.278 12.525,26.456 13.211,27.126 14.542 C 27.811 15.903,30.362 19.469,31.875 21.182 C 32.282 21.643,32.755 22.313,32.982 22.750 C 33.322 23.403,33.385 23.616,33.421 24.240 C 33.473 25.128,33.296 25.760,32.787 26.505 C 32.133 27.462,31.483 27.761,28.785 28.349 C 22.691 29.677,20.924 30.221,18.502 31.517 C 16.159 32.771,14.125 34.575,12.800 36.575 C 11.333 38.792,11.096 39.661,11.291 42.113 C 11.389 43.339,11.774 45.869,11.932 46.320 C 12.027 46.590,10.743 45.315,9.820 44.223 C 7.245 41.174,5.365 37.280,4.571 33.345 C 4.216 31.588,4.135 30.670,4.137 28.405 C 4.140 25.835,4.272 24.732,4.846 22.461 C 7.275 12.870,15.369 5.639,25.151 4.322 C 26.498 4.141,26.783 4.121,28.388 4.102 L 29.749 4.085 29.117 4.821 M36.265 5.363 C 40.033 6.653,42.947 8.465,45.745 11.258 C 49.596 15.100,51.879 19.691,52.692 25.223 C 52.924 26.803,52.924 30.284,52.693 31.872 C 51.946 36.998,49.718 41.588,46.136 45.384 C 43.933 47.719,40.870 49.821,37.880 51.052 C 37.422 51.241,36.980 51.395,36.896 51.395 C 36.674 51.395,35.219 50.235,34.338 49.356 C 31.935 46.957,31.069 44.595,31.869 42.626 C 32.250 41.689,32.695 41.041,33.547 40.184 C 34.551 39.173,35.831 38.209,38.836 36.202 C 41.462 34.447,42.704 33.489,43.636 32.497 C 44.793 31.265,45.237 30.394,45.424 28.983 C 45.716 26.790,44.934 24.528,43.178 22.490 C 42.213 21.369,41.047 20.377,38.104 18.169 C 34.467 15.440,33.021 14.009,32.310 12.430 C 31.486 10.602,31.702 8.799,32.967 6.933 C 33.468 6.194,34.661 4.940,34.863 4.940 C 34.956 4.940,35.587 5.130,36.265 5.363 " fill="#2B2C30" stroke="none" fill-rule="evenodd"></path></svg>