<svg width="52" height="48" viewBox="0 0 52 48" fill="none" xmlns="http://www.w3.org/2000/svg"><path d="M0.470 0.163 C 0.323 0.253,0.157 0.438,0.100 0.575 C 0.022 0.764,0.003 5.429,0.021 20.127 L 0.043 39.430 0.327 39.713 L 0.610 39.997 6.307 39.997 L 12.003 39.997 12.027 38.026 L 12.050 36.055 8.040 36.033 L 4.030 36.010 4.008 24.028 L 3.986 12.047 24.006 12.047 L 44.027 12.047 44.027 18.049 L 44.027 24.051 46.020 26.043 L 48.013 28.035 48.013 14.442 C 48.013 -0.625,48.054 0.423,47.452 0.137 C 47.192 0.013,44.911 0.000,23.950 0.000 C 1.392 0.001,0.729 0.005,0.470 0.163 M27.993 5.980 L 27.993 7.973 26.000 7.973 L 24.007 7.973 24.007 5.980 L 24.007 3.987 26.000 3.987 L 27.993 3.987 27.993 5.980 M35.967 5.980 L 35.967 7.973 33.973 7.973 L 31.980 7.973 31.980 5.980 L 31.980 3.987 33.973 3.987 L 35.967 3.987 35.967 5.980 M44.027 5.980 L 44.027 7.973 42.033 7.973 L 40.040 7.973 40.040 5.980 L 40.040 3.987 42.033 3.987 L 44.027 3.987 44.027 5.980 M25.913 29.981 L 25.913 31.980 22.025 31.980 C 19.752 31.980,17.944 32.017,17.672 32.068 C 16.696 32.253,16.102 32.915,16.050 33.877 C 16.022 34.376,16.051 34.512,16.268 34.926 C 16.435 35.243,16.648 35.490,16.904 35.663 L 17.290 35.923 21.580 35.967 L 25.870 36.010 25.870 38.003 L 25.870 39.997 21.616 40.040 L 17.363 40.083 16.940 40.345 C 16.633 40.535,16.452 40.732,16.275 41.070 C 15.744 42.088,16.099 43.254,17.106 43.792 C 17.458 43.981,17.522 43.984,21.688 44.009 L 25.913 44.034 25.913 45.981 L 25.913 47.927 31.612 47.925 C 36.873 47.923,37.366 47.910,38.047 47.759 C 41.683 46.952,44.490 44.251,45.542 40.545 L 45.682 40.054 48.082 40.025 L 50.483 39.997 50.928 39.750 C 52.080 39.111,52.340 37.724,51.493 36.734 C 50.934 36.082,50.810 36.057,48.080 36.055 L 45.677 36.053 45.624 35.815 C 44.901 32.541,42.402 29.719,39.246 28.613 C 37.617 28.043,37.774 28.055,31.568 28.017 L 25.913 27.982 25.913 29.981 " fill="#2B2C30" stroke="none" fill-rule="evenodd"></path></svg>