<svg width="48" height="49" viewBox="0 0 48 49" fill="none" xmlns="http://www.w3.org/2000/svg"><path d="M32.520 0.083 C 27.762 0.624,23.625 3.481,21.520 7.679 C 19.888 10.933,19.555 14.757,20.613 18.105 L 20.814 18.743 10.985 28.592 C 3.584 36.007,1.090 38.553,0.890 38.898 C -0.591 41.441,-0.161 44.519,1.945 46.448 C 3.863 48.206,6.665 48.530,8.960 47.260 C 9.509 46.956,10.408 46.082,19.440 37.075 L 29.320 27.222 29.800 27.378 C 30.982 27.763,32.072 27.932,33.640 27.976 C 34.964 28.012,35.293 27.995,36.191 27.843 C 39.872 27.217,43.029 25.311,45.207 22.398 C 48.288 18.276,48.862 12.712,46.682 8.103 C 46.218 7.123,45.793 6.848,45.216 7.155 C 45.097 7.218,42.912 9.360,40.360 11.915 C 37.808 14.470,35.684 16.560,35.640 16.560 C 35.536 16.560,31.440 12.464,31.440 12.360 C 31.440 12.317,33.562 10.157,36.155 7.561 C 41.329 2.380,41.168 2.572,40.825 1.982 C 40.483 1.393,38.295 0.537,36.240 0.188 C 35.389 0.044,33.366 -0.014,32.520 0.083 M31.112 6.940 C 27.997 10.080,27.834 10.280,27.562 11.323 C 27.302 12.323,27.476 13.564,27.997 14.423 C 28.153 14.680,29.243 15.849,30.709 17.331 C 32.704 19.349,33.249 19.856,33.640 20.058 C 34.925 20.723,36.350 20.723,37.640 20.059 C 38.035 19.856,38.639 19.290,41.068 16.846 L 44.016 13.880 43.964 14.640 C 43.790 17.191,42.759 19.413,40.926 21.186 C 39.006 23.043,36.652 24.000,34.004 24.000 C 32.758 24.000,31.798 23.825,30.400 23.344 C 29.762 23.125,29.014 22.869,28.738 22.775 L 28.235 22.606 17.618 33.214 C 6.207 44.616,6.838 44.028,6.000 44.028 C 5.258 44.028,4.576 43.607,4.217 42.925 C 3.976 42.470,3.976 41.607,4.217 41.160 C 4.315 40.977,6.128 39.106,8.440 36.800 C 10.668 34.578,15.399 29.826,18.954 26.240 L 25.419 19.720 24.984 18.520 C 24.389 16.878,24.175 16.044,24.063 14.940 C 23.832 12.663,24.431 10.339,25.762 8.353 C 26.305 7.542,27.542 6.305,28.353 5.762 C 29.943 4.697,31.868 4.063,33.675 4.010 L 34.030 4.000 31.112 6.940 " fill="#2B2C30" stroke="none" fill-rule="evenodd"></path></svg>