<svg width="59" height="59" viewBox="0 0 59 59" fill="none" xmlns="http://www.w3.org/2000/svg"><path d="M1.401 1.402 L 0.001 2.804 3.983 6.785 C 6.173 8.975,7.965 10.810,7.965 10.863 C 7.965 10.916,6.815 12.113,5.408 13.523 C 2.967 15.970,2.852 16.103,2.852 16.458 C 2.852 16.738,2.923 16.901,3.139 17.118 L 3.427 17.405 10.157 17.405 L 16.887 17.405 17.146 17.146 L 17.405 16.887 17.405 10.157 L 17.405 3.427 17.118 3.139 C 16.901 2.923,16.738 2.852,16.458 2.852 C 16.103 2.852,15.970 2.967,13.523 5.408 C 12.113 6.814,10.916 7.965,10.864 7.965 C 10.811 7.965,8.976 6.173,6.785 3.982 L 2.801 -0.001 1.401 1.402 M52.215 3.983 C 50.025 6.173,48.190 7.965,48.137 7.965 C 48.084 7.965,46.887 6.815,45.477 5.408 C 43.030 2.967,42.897 2.852,42.542 2.852 C 42.262 2.852,42.099 2.923,41.882 3.139 L 41.595 3.427 41.595 10.157 L 41.595 16.887 41.854 17.146 L 42.113 17.405 48.843 17.405 L 55.573 17.405 55.861 17.118 C 56.077 16.901,56.148 16.738,56.148 16.458 C 56.148 16.103,56.033 15.970,53.592 13.523 C 52.186 12.113,51.035 10.916,51.035 10.864 C 51.035 10.811,52.827 8.976,55.018 6.785 L 59.001 2.801 57.598 1.401 L 56.196 0.001 52.215 3.983 M18.575 17.699 C 18.086 17.958,17.626 18.509,17.533 18.952 C 17.490 19.156,17.454 23.947,17.454 29.598 C 17.454 37.858,17.480 39.946,17.584 40.241 C 17.748 40.704,18.496 41.370,18.965 41.470 C 19.429 41.569,39.567 41.569,40.030 41.471 C 40.475 41.376,41.120 40.830,41.361 40.344 C 41.538 39.989,41.547 39.529,41.573 29.856 C 41.591 23.188,41.566 19.552,41.499 19.189 C 41.381 18.551,41.025 18.052,40.455 17.726 L 40.071 17.507 29.500 17.509 C 19.302 17.512,18.917 17.519,18.575 17.699 M37.465 29.549 L 37.465 37.563 29.500 37.563 L 21.535 37.563 21.535 29.549 L 21.535 21.535 29.500 21.535 L 37.465 21.535 37.465 29.549 M3.139 41.882 C 2.923 42.099,2.852 42.262,2.852 42.542 C 2.852 42.897,2.967 43.030,5.408 45.477 C 6.814 46.887,7.965 48.084,7.965 48.137 C 7.965 48.190,6.173 50.025,3.983 52.215 L 0.001 56.196 1.401 57.598 L 2.801 59.001 6.785 55.018 C 8.976 52.827,10.811 51.035,10.864 51.035 C 10.916 51.035,12.113 52.186,13.523 53.592 C 15.970 56.033,16.103 56.148,16.458 56.148 C 16.738 56.148,16.901 56.077,17.118 55.861 L 17.405 55.573 17.405 48.843 L 17.405 42.113 17.146 41.854 L 16.887 41.595 10.157 41.595 L 3.427 41.595 3.139 41.882 M41.854 41.854 L 41.595 42.113 41.595 48.843 L 41.595 55.573 41.882 55.861 C 42.099 56.077,42.262 56.148,42.542 56.148 C 42.897 56.148,43.030 56.033,45.477 53.592 C 46.887 52.186,48.084 51.035,48.137 51.035 C 48.190 51.035,50.025 52.827,52.215 55.017 L 56.196 58.999 57.598 57.599 L 59.001 56.199 55.018 52.215 C 52.827 50.024,51.035 48.189,51.035 48.136 C 51.035 48.084,52.186 46.887,53.592 45.477 C 56.033 43.030,56.148 42.897,56.148 42.542 C 56.148 42.262,56.077 42.099,55.861 41.882 L 55.573 41.595 48.843 41.595 L 42.113 41.595 41.854 41.854 " fill="#2B2C30" stroke="none" fill-rule="evenodd"></path></svg>